M48
;GenerationSoftware,Autodesk,EAGLE,9.5.1*%
;CreationDate,2020-01-05T18:47:13Z*%
FMAT,2
ICI,OFF
METRIC,TZ,000.000
T5C0.813
T4C0.914
T3C1.000
T2C1.016
T1C3.200
%
G90
M71
T1
X3000Y3000
X87000Y3000
X87000Y57000
X3000Y57000
T2
X40960Y53560
X40960Y51020
X40960Y48480
X40960Y45940
X40960Y43400
X40960Y40860
X40960Y38320
X40960Y35780
X40960Y33240
X40960Y30700
X40960Y28160
X40960Y25620
X40960Y23080
X40960Y20540
X40960Y18000
X40960Y15460
X40960Y12920
X40960Y10380
X40960Y7840
X40960Y5300
X56320Y5300
X56320Y7840
X56320Y10380
X56320Y12920
X56320Y15460
X56320Y18000
X56320Y20540
X56320Y23080
X56320Y25620
X56320Y28160
X56320Y30700
X56320Y33240
X56320Y35780
X56320Y38320
X56320Y40860
X56320Y43400
X56320Y45940
X56320Y48480
X56320Y51020
X56320Y53560
X17145Y14605
X19685Y14605
X22225Y14605
X24765Y14605
X27305Y14605
X17145Y12065
X19685Y12065
X22225Y12065
X24765Y12065
X27305Y12065
X6110Y27780
X6110Y30320
X6110Y32860
X6110Y35400
X6110Y7207
X6110Y9748
X6110Y12287
X6110Y14827
X6110Y17368
X6110Y19908
X6110Y22447
X62570Y38360
X60030Y38360
X6110Y52150
X6110Y49610
X6110Y47070
X6110Y44530
X6110Y41990
X62570Y40900
X60030Y40900
X62570Y43440
X60030Y43440
X86110Y41460
X86110Y38920
X86110Y13260
X86110Y10720
T3
X25700Y18575
X28240Y18575
X30780Y18575
T4
X25620Y55330
X25620Y42630
X18000Y42630
X18000Y45170
X25620Y45170
X18000Y55330
T5
X70390Y15200
X70390Y12660
X78010Y12660
X78010Y15200
X70390Y10120
X78010Y10120
X78130Y38640
X78130Y41180
X70510Y41180
X70510Y38640
X78130Y43720
X70510Y43720
X63270Y19360
X63270Y9200
X82460Y7860
X82460Y18020
X52645Y8615
X50105Y8615
X47565Y8615
X45025Y8615
X63270Y21455
X63270Y31615
X60920Y33955
X63460Y33955
X60610Y21495
X60610Y31655
X45025Y16235
X47565Y16235
X50105Y16235
X52645Y16235
X31850Y44430
X31850Y41890
X31850Y46970
X50305Y19090
X18510Y22146
X18510Y20114
X52470Y51180
X52470Y48640
X47765Y19090
X17540Y24865
X9920Y24865
X50390Y37230
X50390Y27070
X47770Y37230
X47770Y27070
X16930Y35220
X27090Y35220
X16930Y32795
X27090Y32795
X44150Y30760
X44150Y40920
X44150Y53595
X44150Y43435
X47370Y43520
X49910Y43520
X47370Y40960
X49910Y40960
X36195Y26945
X36195Y29485
X36135Y39690
X36135Y37150
X31850Y36810
X31850Y34270
X31850Y39350
X31850Y29090
X31850Y26550
X31850Y31630
X32385Y12319
X32385Y14351
X16930Y30480
X27090Y30480
X16920Y27940
X27080Y27940
X36195Y32385
X36195Y34925
M30