G04 #@! TF.GenerationSoftware,KiCad,Pcbnew,(5.1.5)-3*
G04 #@! TF.CreationDate,2020-02-19T20:56:23+00:00*
G04 #@! TF.ProjectId,Isolator CAN SMT,49736f6c-6174-46f7-9220-43414e20534d,rev?*
G04 #@! TF.SameCoordinates,Original*
G04 #@! TF.FileFunction,Legend,Top*
G04 #@! TF.FilePolarity,Positive*
%FSLAX46Y46*%
G04 Gerber Fmt 4.6, Leading zero omitted, Abs format (unit mm)*
G04 Created by KiCad (PCBNEW (5.1.5)-3) date 2020-02-19 20:56:23*
%MOMM*%
%LPD*%
G04 APERTURE LIST*
%ADD10C,0.150000*%
%ADD11C,0.100000*%
%ADD12C,0.120000*%
G04 APERTURE END LIST*
D10*
X161973071Y-94892761D02*
X162115928Y-94940380D01*
X162354023Y-94940380D01*
X162449261Y-94892761D01*
X162496880Y-94845142D01*
X162544500Y-94749904D01*
X162544500Y-94654666D01*
X162496880Y-94559428D01*
X162449261Y-94511809D01*
X162354023Y-94464190D01*
X162163547Y-94416571D01*
X162068309Y-94368952D01*
X162020690Y-94321333D01*
X161973071Y-94226095D01*
X161973071Y-94130857D01*
X162020690Y-94035619D01*
X162068309Y-93988000D01*
X162163547Y-93940380D01*
X162401642Y-93940380D01*
X162544500Y-93988000D01*
X163354023Y-94892761D02*
X163258785Y-94940380D01*
X163068309Y-94940380D01*
X162973071Y-94892761D01*
X162925452Y-94797523D01*
X162925452Y-94416571D01*
X162973071Y-94321333D01*
X163068309Y-94273714D01*
X163258785Y-94273714D01*
X163354023Y-94321333D01*
X163401642Y-94416571D01*
X163401642Y-94511809D01*
X162925452Y-94607047D01*
X163830214Y-94940380D02*
X163830214Y-94273714D01*
X163830214Y-94464190D02*
X163877833Y-94368952D01*
X163925452Y-94321333D01*
X164020690Y-94273714D01*
X164115928Y-94273714D01*
X164449261Y-94940380D02*
X164449261Y-94273714D01*
X164449261Y-93940380D02*
X164401642Y-93988000D01*
X164449261Y-94035619D01*
X164496880Y-93988000D01*
X164449261Y-93940380D01*
X164449261Y-94035619D01*
X165354023Y-94940380D02*
X165354023Y-94416571D01*
X165306404Y-94321333D01*
X165211166Y-94273714D01*
X165020690Y-94273714D01*
X164925452Y-94321333D01*
X165354023Y-94892761D02*
X165258785Y-94940380D01*
X165020690Y-94940380D01*
X164925452Y-94892761D01*
X164877833Y-94797523D01*
X164877833Y-94702285D01*
X164925452Y-94607047D01*
X165020690Y-94559428D01*
X165258785Y-94559428D01*
X165354023Y-94511809D01*
X165973071Y-94940380D02*
X165877833Y-94892761D01*
X165830214Y-94797523D01*
X165830214Y-93940380D01*
X167115928Y-94940380D02*
X167115928Y-93940380D01*
X167687357Y-94940380D01*
X167687357Y-93940380D01*
X168306404Y-94940380D02*
X168211166Y-94892761D01*
X168163547Y-94845142D01*
X168115928Y-94749904D01*
X168115928Y-94464190D01*
X168163547Y-94368952D01*
X168211166Y-94321333D01*
X168306404Y-94273714D01*
X168449261Y-94273714D01*
X168544500Y-94321333D01*
X168592119Y-94368952D01*
X168639738Y-94464190D01*
X168639738Y-94749904D01*
X168592119Y-94845142D01*
X168544500Y-94892761D01*
X168449261Y-94940380D01*
X168306404Y-94940380D01*
X169068309Y-94845142D02*
X169115928Y-94892761D01*
X169068309Y-94940380D01*
X169020690Y-94892761D01*
X169068309Y-94845142D01*
X169068309Y-94940380D01*
D11*
G36*
X173418500Y-98996500D02*
G01*
X161861500Y-98996500D01*
X161861500Y-95440500D01*
X173418500Y-95440500D01*
X173418500Y-98996500D01*
G37*
X173418500Y-98996500D02*
X161861500Y-98996500D01*
X161861500Y-95440500D01*
X173418500Y-95440500D01*
X173418500Y-98996500D01*
D10*
X139890547Y-41219428D02*
X140652452Y-41219428D01*
X140271500Y-41600380D02*
X140271500Y-40838476D01*
X137469595Y-41727380D02*
X137469595Y-40727380D01*
X137707690Y-40727380D01*
X137850547Y-40775000D01*
X137945785Y-40870238D01*
X137993404Y-40965476D01*
X138041023Y-41155952D01*
X138041023Y-41298809D01*
X137993404Y-41489285D01*
X137945785Y-41584523D01*
X137850547Y-41679761D01*
X137707690Y-41727380D01*
X137469595Y-41727380D01*
X135374023Y-41632142D02*
X135326404Y-41679761D01*
X135183547Y-41727380D01*
X135088309Y-41727380D01*
X134945452Y-41679761D01*
X134850214Y-41584523D01*
X134802595Y-41489285D01*
X134754976Y-41298809D01*
X134754976Y-41155952D01*
X134802595Y-40965476D01*
X134850214Y-40870238D01*
X134945452Y-40775000D01*
X135088309Y-40727380D01*
X135183547Y-40727380D01*
X135326404Y-40775000D01*
X135374023Y-40822619D01*
X159624119Y-65873880D02*
X159624119Y-66588166D01*
X159576500Y-66731023D01*
X159481261Y-66826261D01*
X159338404Y-66873880D01*
X159243166Y-66873880D01*
X160862214Y-66873880D02*
X160862214Y-65873880D01*
X160862214Y-66350071D02*
X161433642Y-66350071D01*
X161433642Y-66873880D02*
X161433642Y-65873880D01*
X162338404Y-66207214D02*
X162338404Y-66873880D01*
X161909833Y-66207214D02*
X161909833Y-66731023D01*
X161957452Y-66826261D01*
X162052690Y-66873880D01*
X162195547Y-66873880D01*
X162290785Y-66826261D01*
X162338404Y-66778642D01*
X163195547Y-66826261D02*
X163100309Y-66873880D01*
X162909833Y-66873880D01*
X162814595Y-66826261D01*
X162766976Y-66731023D01*
X162766976Y-66350071D01*
X162814595Y-66254833D01*
X162909833Y-66207214D01*
X163100309Y-66207214D01*
X163195547Y-66254833D01*
X163243166Y-66350071D01*
X163243166Y-66445309D01*
X162766976Y-66540547D01*
X163671738Y-66873880D02*
X163671738Y-65873880D01*
X163671738Y-66254833D02*
X163766976Y-66207214D01*
X163957452Y-66207214D01*
X164052690Y-66254833D01*
X164100309Y-66302452D01*
X164147928Y-66397690D01*
X164147928Y-66683404D01*
X164100309Y-66778642D01*
X164052690Y-66826261D01*
X163957452Y-66873880D01*
X163766976Y-66873880D01*
X163671738Y-66826261D01*
X164576500Y-66207214D02*
X164576500Y-66873880D01*
X164576500Y-66302452D02*
X164624119Y-66254833D01*
X164719357Y-66207214D01*
X164862214Y-66207214D01*
X164957452Y-66254833D01*
X165005071Y-66350071D01*
X165005071Y-66873880D01*
X165862214Y-66826261D02*
X165766976Y-66873880D01*
X165576500Y-66873880D01*
X165481261Y-66826261D01*
X165433642Y-66731023D01*
X165433642Y-66350071D01*
X165481261Y-66254833D01*
X165576500Y-66207214D01*
X165766976Y-66207214D01*
X165862214Y-66254833D01*
X165909833Y-66350071D01*
X165909833Y-66445309D01*
X165433642Y-66540547D01*
X166338404Y-66873880D02*
X166338404Y-66207214D01*
X166338404Y-66397690D02*
X166386023Y-66302452D01*
X166433642Y-66254833D01*
X166528880Y-66207214D01*
X166624119Y-66207214D01*
X168433642Y-65826261D02*
X167576500Y-67111976D01*
X169481261Y-66588166D02*
X169957452Y-66588166D01*
X169386023Y-66873880D02*
X169719357Y-65873880D01*
X170052690Y-66873880D01*
X171147928Y-66873880D02*
X171147928Y-65873880D01*
X171481261Y-66588166D01*
X171814595Y-65873880D01*
X171814595Y-66873880D01*
X172719357Y-66873880D02*
X172719357Y-66350071D01*
X172671738Y-66254833D01*
X172576500Y-66207214D01*
X172386023Y-66207214D01*
X172290785Y-66254833D01*
X172719357Y-66826261D02*
X172624119Y-66873880D01*
X172386023Y-66873880D01*
X172290785Y-66826261D01*
X172243166Y-66731023D01*
X172243166Y-66635785D01*
X172290785Y-66540547D01*
X172386023Y-66492928D01*
X172624119Y-66492928D01*
X172719357Y-66445309D01*
X173195547Y-66873880D02*
X173195547Y-66207214D01*
X173195547Y-66397690D02*
X173243166Y-66302452D01*
X173290785Y-66254833D01*
X173386023Y-66207214D01*
X173481261Y-66207214D01*
X173671738Y-66207214D02*
X174052690Y-66207214D01*
X173814595Y-65873880D02*
X173814595Y-66731023D01*
X173862214Y-66826261D01*
X173957452Y-66873880D01*
X174052690Y-66873880D01*
X174766976Y-66826261D02*
X174671738Y-66873880D01*
X174481261Y-66873880D01*
X174386023Y-66826261D01*
X174338404Y-66731023D01*
X174338404Y-66350071D01*
X174386023Y-66254833D01*
X174481261Y-66207214D01*
X174671738Y-66207214D01*
X174766976Y-66254833D01*
X174814595Y-66350071D01*
X174814595Y-66445309D01*
X174338404Y-66540547D01*
X175386023Y-66873880D02*
X175290785Y-66826261D01*
X175243166Y-66731023D01*
X175243166Y-65873880D01*
X175909833Y-66873880D02*
X175814595Y-66826261D01*
X175766976Y-66731023D01*
X175766976Y-65873880D01*
X161886023Y-68523880D02*
X161790785Y-68476261D01*
X161743166Y-68428642D01*
X161695547Y-68333404D01*
X161695547Y-68047690D01*
X161743166Y-67952452D01*
X161790785Y-67904833D01*
X161886023Y-67857214D01*
X162028880Y-67857214D01*
X162124119Y-67904833D01*
X162171738Y-67952452D01*
X162219357Y-68047690D01*
X162219357Y-68333404D01*
X162171738Y-68428642D01*
X162124119Y-68476261D01*
X162028880Y-68523880D01*
X161886023Y-68523880D01*
X162647928Y-67857214D02*
X162647928Y-68857214D01*
X162647928Y-67904833D02*
X162743166Y-67857214D01*
X162933642Y-67857214D01*
X163028880Y-67904833D01*
X163076500Y-67952452D01*
X163124119Y-68047690D01*
X163124119Y-68333404D01*
X163076500Y-68428642D01*
X163028880Y-68476261D01*
X162933642Y-68523880D01*
X162743166Y-68523880D01*
X162647928Y-68476261D01*
X163933642Y-68476261D02*
X163838404Y-68523880D01*
X163647928Y-68523880D01*
X163552690Y-68476261D01*
X163505071Y-68381023D01*
X163505071Y-68000071D01*
X163552690Y-67904833D01*
X163647928Y-67857214D01*
X163838404Y-67857214D01*
X163933642Y-67904833D01*
X163981261Y-68000071D01*
X163981261Y-68095309D01*
X163505071Y-68190547D01*
X164409833Y-67857214D02*
X164409833Y-68523880D01*
X164409833Y-67952452D02*
X164457452Y-67904833D01*
X164552690Y-67857214D01*
X164695547Y-67857214D01*
X164790785Y-67904833D01*
X164838404Y-68000071D01*
X164838404Y-68523880D01*
X165314595Y-68523880D02*
X165314595Y-67857214D01*
X165314595Y-67523880D02*
X165266976Y-67571500D01*
X165314595Y-67619119D01*
X165362214Y-67571500D01*
X165314595Y-67523880D01*
X165314595Y-67619119D01*
X165790785Y-67857214D02*
X165790785Y-68523880D01*
X165790785Y-67952452D02*
X165838404Y-67904833D01*
X165933642Y-67857214D01*
X166076500Y-67857214D01*
X166171738Y-67904833D01*
X166219357Y-68000071D01*
X166219357Y-68523880D01*
X166600309Y-67857214D02*
X166838404Y-68523880D01*
X167076500Y-67857214D01*
X167838404Y-68476261D02*
X167743166Y-68523880D01*
X167552690Y-68523880D01*
X167457452Y-68476261D01*
X167409833Y-68381023D01*
X167409833Y-68000071D01*
X167457452Y-67904833D01*
X167552690Y-67857214D01*
X167743166Y-67857214D01*
X167838404Y-67904833D01*
X167886023Y-68000071D01*
X167886023Y-68095309D01*
X167409833Y-68190547D01*
X168314595Y-68523880D02*
X168314595Y-67857214D01*
X168314595Y-68047690D02*
X168362214Y-67952452D01*
X168409833Y-67904833D01*
X168505071Y-67857214D01*
X168600309Y-67857214D01*
X168790785Y-67857214D02*
X169171738Y-67857214D01*
X168933642Y-67523880D02*
X168933642Y-68381023D01*
X168981261Y-68476261D01*
X169076500Y-68523880D01*
X169171738Y-68523880D01*
X169886023Y-68476261D02*
X169790785Y-68523880D01*
X169600309Y-68523880D01*
X169505071Y-68476261D01*
X169457452Y-68381023D01*
X169457452Y-68000071D01*
X169505071Y-67904833D01*
X169600309Y-67857214D01*
X169790785Y-67857214D01*
X169886023Y-67904833D01*
X169933642Y-68000071D01*
X169933642Y-68095309D01*
X169457452Y-68190547D01*
X170362214Y-68523880D02*
X170362214Y-67857214D01*
X170362214Y-68047690D02*
X170409833Y-67952452D01*
X170457452Y-67904833D01*
X170552690Y-67857214D01*
X170647928Y-67857214D01*
X170981261Y-68428642D02*
X171028880Y-68476261D01*
X170981261Y-68523880D01*
X170933642Y-68476261D01*
X170981261Y-68428642D01*
X170981261Y-68523880D01*
X171600309Y-68523880D02*
X171505071Y-68476261D01*
X171457452Y-68428642D01*
X171409833Y-68333404D01*
X171409833Y-68047690D01*
X171457452Y-67952452D01*
X171505071Y-67904833D01*
X171600309Y-67857214D01*
X171743166Y-67857214D01*
X171838404Y-67904833D01*
X171886023Y-67952452D01*
X171933642Y-68047690D01*
X171933642Y-68333404D01*
X171886023Y-68428642D01*
X171838404Y-68476261D01*
X171743166Y-68523880D01*
X171600309Y-68523880D01*
X172362214Y-68523880D02*
X172362214Y-67857214D01*
X172362214Y-68047690D02*
X172409833Y-67952452D01*
X172457452Y-67904833D01*
X172552690Y-67857214D01*
X172647928Y-67857214D01*
X173409833Y-67857214D02*
X173409833Y-68666738D01*
X173362214Y-68761976D01*
X173314595Y-68809595D01*
X173219357Y-68857214D01*
X173076500Y-68857214D01*
X172981261Y-68809595D01*
X173409833Y-68476261D02*
X173314595Y-68523880D01*
X173124119Y-68523880D01*
X173028880Y-68476261D01*
X172981261Y-68428642D01*
X172933642Y-68333404D01*
X172933642Y-68047690D01*
X172981261Y-67952452D01*
X173028880Y-67904833D01*
X173124119Y-67857214D01*
X173314595Y-67857214D01*
X173409833Y-67904833D01*
X154734380Y-80193071D02*
X154877238Y-80240690D01*
X154924857Y-80288309D01*
X154972476Y-80383547D01*
X154972476Y-80526404D01*
X154924857Y-80621642D01*
X154877238Y-80669261D01*
X154782000Y-80716880D01*
X154401047Y-80716880D01*
X154401047Y-79716880D01*
X154734380Y-79716880D01*
X154829619Y-79764500D01*
X154877238Y-79812119D01*
X154924857Y-79907357D01*
X154924857Y-80002595D01*
X154877238Y-80097833D01*
X154829619Y-80145452D01*
X154734380Y-80193071D01*
X154401047Y-80193071D01*
X155401047Y-80716880D02*
X155401047Y-79716880D01*
X155734380Y-80431166D01*
X156067714Y-79716880D01*
X156067714Y-80716880D01*
X156496285Y-80669261D02*
X156639142Y-80716880D01*
X156877238Y-80716880D01*
X156972476Y-80669261D01*
X157020095Y-80621642D01*
X157067714Y-80526404D01*
X157067714Y-80431166D01*
X157020095Y-80335928D01*
X156972476Y-80288309D01*
X156877238Y-80240690D01*
X156686761Y-80193071D01*
X156591523Y-80145452D01*
X156543904Y-80097833D01*
X156496285Y-80002595D01*
X156496285Y-79907357D01*
X156543904Y-79812119D01*
X156591523Y-79764500D01*
X156686761Y-79716880D01*
X156924857Y-79716880D01*
X157067714Y-79764500D01*
X158829619Y-80621642D02*
X158782000Y-80669261D01*
X158639142Y-80716880D01*
X158543904Y-80716880D01*
X158401047Y-80669261D01*
X158305809Y-80574023D01*
X158258190Y-80478785D01*
X158210571Y-80288309D01*
X158210571Y-80145452D01*
X158258190Y-79954976D01*
X158305809Y-79859738D01*
X158401047Y-79764500D01*
X158543904Y-79716880D01*
X158639142Y-79716880D01*
X158782000Y-79764500D01*
X158829619Y-79812119D01*
X159210571Y-80431166D02*
X159686761Y-80431166D01*
X159115333Y-80716880D02*
X159448666Y-79716880D01*
X159782000Y-80716880D01*
X160115333Y-80716880D02*
X160115333Y-79716880D01*
X160686761Y-80716880D01*
X160686761Y-79716880D01*
X161924857Y-80716880D02*
X161924857Y-79716880D01*
X162353428Y-80669261D02*
X162448666Y-80716880D01*
X162639142Y-80716880D01*
X162734380Y-80669261D01*
X162782000Y-80574023D01*
X162782000Y-80526404D01*
X162734380Y-80431166D01*
X162639142Y-80383547D01*
X162496285Y-80383547D01*
X162401047Y-80335928D01*
X162353428Y-80240690D01*
X162353428Y-80193071D01*
X162401047Y-80097833D01*
X162496285Y-80050214D01*
X162639142Y-80050214D01*
X162734380Y-80097833D01*
X163353428Y-80716880D02*
X163258190Y-80669261D01*
X163210571Y-80621642D01*
X163162952Y-80526404D01*
X163162952Y-80240690D01*
X163210571Y-80145452D01*
X163258190Y-80097833D01*
X163353428Y-80050214D01*
X163496285Y-80050214D01*
X163591523Y-80097833D01*
X163639142Y-80145452D01*
X163686761Y-80240690D01*
X163686761Y-80526404D01*
X163639142Y-80621642D01*
X163591523Y-80669261D01*
X163496285Y-80716880D01*
X163353428Y-80716880D01*
X164258190Y-80716880D02*
X164162952Y-80669261D01*
X164115333Y-80574023D01*
X164115333Y-79716880D01*
X165067714Y-80716880D02*
X165067714Y-80193071D01*
X165020095Y-80097833D01*
X164924857Y-80050214D01*
X164734380Y-80050214D01*
X164639142Y-80097833D01*
X165067714Y-80669261D02*
X164972476Y-80716880D01*
X164734380Y-80716880D01*
X164639142Y-80669261D01*
X164591523Y-80574023D01*
X164591523Y-80478785D01*
X164639142Y-80383547D01*
X164734380Y-80335928D01*
X164972476Y-80335928D01*
X165067714Y-80288309D01*
X165401047Y-80050214D02*
X165782000Y-80050214D01*
X165543904Y-79716880D02*
X165543904Y-80574023D01*
X165591523Y-80669261D01*
X165686761Y-80716880D01*
X165782000Y-80716880D01*
X166258190Y-80716880D02*
X166162952Y-80669261D01*
X166115333Y-80621642D01*
X166067714Y-80526404D01*
X166067714Y-80240690D01*
X166115333Y-80145452D01*
X166162952Y-80097833D01*
X166258190Y-80050214D01*
X166401047Y-80050214D01*
X166496285Y-80097833D01*
X166543904Y-80145452D01*
X166591523Y-80240690D01*
X166591523Y-80526404D01*
X166543904Y-80621642D01*
X166496285Y-80669261D01*
X166401047Y-80716880D01*
X166258190Y-80716880D01*
X167020095Y-80716880D02*
X167020095Y-80050214D01*
X167020095Y-80240690D02*
X167067714Y-80145452D01*
X167115333Y-80097833D01*
X167210571Y-80050214D01*
X167305809Y-80050214D01*
X154520095Y-81366880D02*
X154853428Y-82366880D01*
X155186761Y-81366880D01*
X156043904Y-82366880D02*
X155472476Y-82366880D01*
X155758190Y-82366880D02*
X155758190Y-81366880D01*
X155662952Y-81509738D01*
X155567714Y-81604976D01*
X155472476Y-81652595D01*
X157520095Y-82747833D02*
X157472476Y-82700214D01*
X157377238Y-82557357D01*
X157329619Y-82462119D01*
X157282000Y-82319261D01*
X157234380Y-82081166D01*
X157234380Y-81890690D01*
X157282000Y-81652595D01*
X157329619Y-81509738D01*
X157377238Y-81414500D01*
X157472476Y-81271642D01*
X157520095Y-81224023D01*
X158329619Y-82319261D02*
X158234380Y-82366880D01*
X158043904Y-82366880D01*
X157948666Y-82319261D01*
X157901047Y-82271642D01*
X157853428Y-82176404D01*
X157853428Y-81890690D01*
X157901047Y-81795452D01*
X157948666Y-81747833D01*
X158043904Y-81700214D01*
X158234380Y-81700214D01*
X158329619Y-81747833D01*
X158662952Y-82747833D02*
X158710571Y-82700214D01*
X158805809Y-82557357D01*
X158853428Y-82462119D01*
X158901047Y-82319261D01*
X158948666Y-82081166D01*
X158948666Y-81890690D01*
X158901047Y-81652595D01*
X158853428Y-81509738D01*
X158805809Y-81414500D01*
X158710571Y-81271642D01*
X158662952Y-81224023D01*
X160520095Y-81843071D02*
X160186761Y-81843071D01*
X160186761Y-82366880D02*
X160186761Y-81366880D01*
X160662952Y-81366880D01*
X161424857Y-82319261D02*
X161329619Y-82366880D01*
X161139142Y-82366880D01*
X161043904Y-82319261D01*
X160996285Y-82224023D01*
X160996285Y-81843071D01*
X161043904Y-81747833D01*
X161139142Y-81700214D01*
X161329619Y-81700214D01*
X161424857Y-81747833D01*
X161472476Y-81843071D01*
X161472476Y-81938309D01*
X160996285Y-82033547D01*
X161901047Y-82366880D02*
X161901047Y-81366880D01*
X161901047Y-81747833D02*
X161996285Y-81700214D01*
X162186761Y-81700214D01*
X162282000Y-81747833D01*
X162329619Y-81795452D01*
X162377238Y-81890690D01*
X162377238Y-82176404D01*
X162329619Y-82271642D01*
X162282000Y-82319261D01*
X162186761Y-82366880D01*
X161996285Y-82366880D01*
X161901047Y-82319261D01*
X163520095Y-81462119D02*
X163567714Y-81414500D01*
X163662952Y-81366880D01*
X163901047Y-81366880D01*
X163996285Y-81414500D01*
X164043904Y-81462119D01*
X164091523Y-81557357D01*
X164091523Y-81652595D01*
X164043904Y-81795452D01*
X163472476Y-82366880D01*
X164091523Y-82366880D01*
X164710571Y-81366880D02*
X164805809Y-81366880D01*
X164901047Y-81414500D01*
X164948666Y-81462119D01*
X164996285Y-81557357D01*
X165043904Y-81747833D01*
X165043904Y-81985928D01*
X164996285Y-82176404D01*
X164948666Y-82271642D01*
X164901047Y-82319261D01*
X164805809Y-82366880D01*
X164710571Y-82366880D01*
X164615333Y-82319261D01*
X164567714Y-82271642D01*
X164520095Y-82176404D01*
X164472476Y-81985928D01*
X164472476Y-81747833D01*
X164520095Y-81557357D01*
X164567714Y-81462119D01*
X164615333Y-81414500D01*
X164710571Y-81366880D01*
X165424857Y-81462119D02*
X165472476Y-81414500D01*
X165567714Y-81366880D01*
X165805809Y-81366880D01*
X165901047Y-81414500D01*
X165948666Y-81462119D01*
X165996285Y-81557357D01*
X165996285Y-81652595D01*
X165948666Y-81795452D01*
X165377238Y-82366880D01*
X165996285Y-82366880D01*
X166615333Y-81366880D02*
X166710571Y-81366880D01*
X166805809Y-81414500D01*
X166853428Y-81462119D01*
X166901047Y-81557357D01*
X166948666Y-81747833D01*
X166948666Y-81985928D01*
X166901047Y-82176404D01*
X166853428Y-82271642D01*
X166805809Y-82319261D01*
X166710571Y-82366880D01*
X166615333Y-82366880D01*
X166520095Y-82319261D01*
X166472476Y-82271642D01*
X166424857Y-82176404D01*
X166377238Y-81985928D01*
X166377238Y-81747833D01*
X166424857Y-81557357D01*
X166472476Y-81462119D01*
X166520095Y-81414500D01*
X166615333Y-81366880D01*
X175314285Y-72057142D02*
X175266666Y-72104761D01*
X175123809Y-72152380D01*
X175028571Y-72152380D01*
X174885714Y-72104761D01*
X174790476Y-72009523D01*
X174742857Y-71914285D01*
X174695238Y-71723809D01*
X174695238Y-71580952D01*
X174742857Y-71390476D01*
X174790476Y-71295238D01*
X174885714Y-71200000D01*
X175028571Y-71152380D01*
X175123809Y-71152380D01*
X175266666Y-71200000D01*
X175314285Y-71247619D01*
X175933333Y-71152380D02*
X176123809Y-71152380D01*
X176219047Y-71200000D01*
X176314285Y-71295238D01*
X176361904Y-71485714D01*
X176361904Y-71819047D01*
X176314285Y-72009523D01*
X176219047Y-72104761D01*
X176123809Y-72152380D01*
X175933333Y-72152380D01*
X175838095Y-72104761D01*
X175742857Y-72009523D01*
X175695238Y-71819047D01*
X175695238Y-71485714D01*
X175742857Y-71295238D01*
X175838095Y-71200000D01*
X175933333Y-71152380D01*
X176790476Y-72152380D02*
X176790476Y-71152380D01*
X177123809Y-71866666D01*
X177457142Y-71152380D01*
X177457142Y-72152380D01*
X175552380Y-79828571D02*
X175695238Y-79876190D01*
X175742857Y-79923809D01*
X175790476Y-80019047D01*
X175790476Y-80161904D01*
X175742857Y-80257142D01*
X175695238Y-80304761D01*
X175600000Y-80352380D01*
X175219047Y-80352380D01*
X175219047Y-79352380D01*
X175552380Y-79352380D01*
X175647619Y-79400000D01*
X175695238Y-79447619D01*
X175742857Y-79542857D01*
X175742857Y-79638095D01*
X175695238Y-79733333D01*
X175647619Y-79780952D01*
X175552380Y-79828571D01*
X175219047Y-79828571D01*
X176219047Y-79971428D02*
X176980952Y-79971428D01*
X176600000Y-80352380D02*
X176600000Y-79590476D01*
X175314285Y-92657142D02*
X175266666Y-92704761D01*
X175123809Y-92752380D01*
X175028571Y-92752380D01*
X174885714Y-92704761D01*
X174790476Y-92609523D01*
X174742857Y-92514285D01*
X174695238Y-92323809D01*
X174695238Y-92180952D01*
X174742857Y-91990476D01*
X174790476Y-91895238D01*
X174885714Y-91800000D01*
X175028571Y-91752380D01*
X175123809Y-91752380D01*
X175266666Y-91800000D01*
X175314285Y-91847619D01*
X175933333Y-91752380D02*
X176123809Y-91752380D01*
X176219047Y-91800000D01*
X176314285Y-91895238D01*
X176361904Y-92085714D01*
X176361904Y-92419047D01*
X176314285Y-92609523D01*
X176219047Y-92704761D01*
X176123809Y-92752380D01*
X175933333Y-92752380D01*
X175838095Y-92704761D01*
X175742857Y-92609523D01*
X175695238Y-92419047D01*
X175695238Y-92085714D01*
X175742857Y-91895238D01*
X175838095Y-91800000D01*
X175933333Y-91752380D01*
X176790476Y-92752380D02*
X176790476Y-91752380D01*
X177123809Y-92466666D01*
X177457142Y-91752380D01*
X177457142Y-92752380D01*
X175752380Y-83728571D02*
X175895238Y-83776190D01*
X175942857Y-83823809D01*
X175990476Y-83919047D01*
X175990476Y-84061904D01*
X175942857Y-84157142D01*
X175895238Y-84204761D01*
X175800000Y-84252380D01*
X175419047Y-84252380D01*
X175419047Y-83252380D01*
X175752380Y-83252380D01*
X175847619Y-83300000D01*
X175895238Y-83347619D01*
X175942857Y-83442857D01*
X175942857Y-83538095D01*
X175895238Y-83633333D01*
X175847619Y-83680952D01*
X175752380Y-83728571D01*
X175419047Y-83728571D01*
X176419047Y-83871428D02*
X177180952Y-83871428D01*
X176800000Y-84252380D02*
X176800000Y-83490476D01*
X132849904Y-40775000D02*
X132754666Y-40727380D01*
X132611809Y-40727380D01*
X132468952Y-40775000D01*
X132373714Y-40870238D01*
X132326095Y-40965476D01*
X132278476Y-41155952D01*
X132278476Y-41298809D01*
X132326095Y-41489285D01*
X132373714Y-41584523D01*
X132468952Y-41679761D01*
X132611809Y-41727380D01*
X132707047Y-41727380D01*
X132849904Y-41679761D01*
X132897523Y-41632142D01*
X132897523Y-41298809D01*
X132707047Y-41298809D01*
X133809523Y-87877380D02*
X134047619Y-88877380D01*
X134238095Y-88163095D01*
X134428571Y-88877380D01*
X134666666Y-87877380D01*
X135047619Y-88877380D02*
X135047619Y-88210714D01*
X135047619Y-87877380D02*
X135000000Y-87925000D01*
X135047619Y-87972619D01*
X135095238Y-87925000D01*
X135047619Y-87877380D01*
X135047619Y-87972619D01*
X135380952Y-88210714D02*
X135761904Y-88210714D01*
X135523809Y-88877380D02*
X135523809Y-88020238D01*
X135571428Y-87925000D01*
X135666666Y-87877380D01*
X135761904Y-87877380D01*
X136095238Y-88877380D02*
X136095238Y-88210714D01*
X136095238Y-87877380D02*
X136047619Y-87925000D01*
X136095238Y-87972619D01*
X136142857Y-87925000D01*
X136095238Y-87877380D01*
X136095238Y-87972619D01*
X132619047Y-90527380D02*
X132619047Y-89527380D01*
X132952380Y-90241666D01*
X133285714Y-89527380D01*
X133285714Y-90527380D01*
X133904761Y-90527380D02*
X133809523Y-90479761D01*
X133761904Y-90432142D01*
X133714285Y-90336904D01*
X133714285Y-90051190D01*
X133761904Y-89955952D01*
X133809523Y-89908333D01*
X133904761Y-89860714D01*
X134047619Y-89860714D01*
X134142857Y-89908333D01*
X134190476Y-89955952D01*
X134238095Y-90051190D01*
X134238095Y-90336904D01*
X134190476Y-90432142D01*
X134142857Y-90479761D01*
X134047619Y-90527380D01*
X133904761Y-90527380D01*
X135095238Y-90527380D02*
X135095238Y-89527380D01*
X135095238Y-90479761D02*
X135000000Y-90527380D01*
X134809523Y-90527380D01*
X134714285Y-90479761D01*
X134666666Y-90432142D01*
X134619047Y-90336904D01*
X134619047Y-90051190D01*
X134666666Y-89955952D01*
X134714285Y-89908333D01*
X134809523Y-89860714D01*
X135000000Y-89860714D01*
X135095238Y-89908333D01*
X136000000Y-89860714D02*
X136000000Y-90527380D01*
X135571428Y-89860714D02*
X135571428Y-90384523D01*
X135619047Y-90479761D01*
X135714285Y-90527380D01*
X135857142Y-90527380D01*
X135952380Y-90479761D01*
X136000000Y-90432142D01*
X136619047Y-90527380D02*
X136523809Y-90479761D01*
X136476190Y-90384523D01*
X136476190Y-89527380D01*
X137380952Y-90479761D02*
X137285714Y-90527380D01*
X137095238Y-90527380D01*
X137000000Y-90479761D01*
X136952380Y-90384523D01*
X136952380Y-90003571D01*
X137000000Y-89908333D01*
X137095238Y-89860714D01*
X137285714Y-89860714D01*
X137380952Y-89908333D01*
X137428571Y-90003571D01*
X137428571Y-90098809D01*
X136952380Y-90194047D01*
D12*
X147250000Y-98750000D02*
X123000000Y-98750000D01*
X147250000Y-81500000D02*
X147250000Y-98750000D01*
X123000000Y-81500000D02*
X147250000Y-81500000D01*
X123000000Y-98750000D02*
X123000000Y-81500000D01*
X148459500Y-42167500D02*
X148459500Y-43497500D01*
X147129500Y-42167500D02*
X148459500Y-42167500D01*
X145859500Y-42167500D02*
X145859500Y-44827500D01*
X145859500Y-44827500D02*
X143259500Y-44827500D01*
X145859500Y-42167500D02*
X143259500Y-42167500D01*
X143259500Y-42167500D02*
X143259500Y-44827500D01*
X171319500Y-41532500D02*
X171319500Y-42862500D01*
X169989500Y-41532500D02*
X171319500Y-41532500D01*
X168719500Y-41532500D02*
X168719500Y-44192500D01*
X168719500Y-44192500D02*
X163579500Y-44192500D01*
X168719500Y-41532500D02*
X163579500Y-41532500D01*
X163579500Y-41532500D02*
X163579500Y-44192500D01*
X114935000Y-62059500D02*
X118385000Y-62059500D01*
X114935000Y-62059500D02*
X112985000Y-62059500D01*
X114935000Y-56939500D02*
X116885000Y-56939500D01*
X114935000Y-56939500D02*
X112985000Y-56939500D01*
X139733500Y-65944000D02*
X138393500Y-65944000D01*
X139733500Y-64994000D02*
X139733500Y-65944000D01*
X140683500Y-64994000D02*
X139733500Y-64994000D01*
X149953500Y-64994000D02*
X149953500Y-65944000D01*
X149003500Y-64994000D02*
X149953500Y-64994000D01*
X139733500Y-75214000D02*
X139733500Y-74264000D01*
X140683500Y-75214000D02*
X139733500Y-75214000D01*
X149953500Y-75214000D02*
X149953500Y-74264000D01*
X149003500Y-75214000D02*
X149953500Y-75214000D01*
X109222221Y-61978000D02*
X109547779Y-61978000D01*
X109222221Y-60958000D02*
X109547779Y-60958000D01*
X104835000Y-67243000D02*
X103505000Y-67243000D01*
X104835000Y-65913000D02*
X104835000Y-67243000D01*
X104835000Y-64643000D02*
X102175000Y-64643000D01*
X102175000Y-64643000D02*
X102175000Y-46803000D01*
X104835000Y-64643000D02*
X104835000Y-46803000D01*
X104835000Y-46803000D02*
X102175000Y-46803000D01*
X108779000Y-44383000D02*
X108779000Y-43053000D01*
X110109000Y-44383000D02*
X108779000Y-44383000D01*
X111379000Y-44383000D02*
X111379000Y-41723000D01*
X111379000Y-41723000D02*
X116519000Y-41723000D01*
X111379000Y-44383000D02*
X116519000Y-44383000D01*
X116519000Y-44383000D02*
X116519000Y-41723000D01*
X159616500Y-53704500D02*
X159616500Y-50554500D01*
X159616500Y-59554500D02*
X159616500Y-56404500D01*
X154506500Y-56054500D02*
X154506500Y-54054500D01*
X160216500Y-55404500D02*
X160216500Y-54704500D01*
X159016500Y-55404500D02*
X160216500Y-55404500D01*
X159016500Y-54704500D02*
X159016500Y-55404500D01*
X160216500Y-54704500D02*
X159016500Y-54704500D01*
X159816500Y-55404500D02*
X159416500Y-54704500D01*
X177466500Y-63404500D02*
X177466500Y-46704500D01*
X154766500Y-63404500D02*
X177466500Y-63404500D01*
X154766500Y-46704500D02*
X154766500Y-63404500D01*
X177466500Y-46704500D02*
X154766500Y-46704500D01*
X127127000Y-51699000D02*
X123827000Y-51699000D01*
X123827000Y-51699000D02*
X123827000Y-57099000D01*
X127127000Y-51699000D02*
X127127000Y-57099000D01*
X162550000Y-78370000D02*
X164000000Y-78370000D01*
X162550000Y-70630000D02*
X162550000Y-78370000D01*
X167450000Y-70630000D02*
X162550000Y-70630000D01*
X167450000Y-78370000D02*
X167450000Y-70630000D01*
X166000000Y-78370000D02*
X167450000Y-78370000D01*
X164000000Y-78370000D02*
G75*
G02X166000000Y-78370000I1000000J0D01*
G01*
X167390000Y-84090000D02*
X165940000Y-84090000D01*
X167390000Y-91830000D02*
X167390000Y-84090000D01*
X162490000Y-91830000D02*
X167390000Y-91830000D01*
X162490000Y-84090000D02*
X162490000Y-91830000D01*
X163940000Y-84090000D02*
X162490000Y-84090000D01*
X165940000Y-84090000D02*
G75*
G02X163940000Y-84090000I-1000000J0D01*
G01*
X122852279Y-40839000D02*
X122526721Y-40839000D01*
X122852279Y-41859000D02*
X122526721Y-41859000D01*
X127487000Y-46261779D02*
X127487000Y-45936221D01*
X126467000Y-46261779D02*
X126467000Y-45936221D01*
X131719250Y-47923750D02*
X131719250Y-48711250D01*
X131325500Y-48317500D02*
X132113000Y-48317500D01*
X132353000Y-52510563D02*
X133417437Y-53575000D01*
X132353000Y-47819437D02*
X133417437Y-46755000D01*
X132353000Y-47819437D02*
X132353000Y-49105000D01*
X132353000Y-52510563D02*
X132353000Y-51225000D01*
X133417437Y-53575000D02*
X139173000Y-53575000D01*
X133417437Y-46755000D02*
X139173000Y-46755000D01*
X139173000Y-46755000D02*
X139173000Y-49105000D01*
X139173000Y-53575000D02*
X139173000Y-51225000D01*
X121687000Y-53090422D02*
X121687000Y-53607578D01*
X120267000Y-53090422D02*
X120267000Y-53607578D01*
X114490000Y-76049721D02*
X114490000Y-76375279D01*
X115510000Y-76049721D02*
X115510000Y-76375279D01*
X137720000Y-58854078D02*
X137720000Y-58336922D01*
X139140000Y-58854078D02*
X139140000Y-58336922D01*
X141353000Y-47144721D02*
X141353000Y-47470279D01*
X140333000Y-47144721D02*
X140333000Y-47470279D01*
X114939221Y-51717000D02*
X115264779Y-51717000D01*
X114939221Y-52737000D02*
X115264779Y-52737000D01*
X129735578Y-53639000D02*
X129218422Y-53639000D01*
X129735578Y-55059000D02*
X129218422Y-55059000D01*
X115510000Y-72087221D02*
X115510000Y-72412779D01*
X114490000Y-72087221D02*
X114490000Y-72412779D01*
X137289000Y-78640721D02*
X137289000Y-78966279D01*
X136269000Y-78640721D02*
X136269000Y-78966279D01*
X129556500Y-68083221D02*
X129556500Y-68408779D01*
X130576500Y-68083221D02*
X130576500Y-68408779D01*
X133703279Y-74360500D02*
X133377721Y-74360500D01*
X133703279Y-73340500D02*
X133377721Y-73340500D01*
X130540000Y-71948221D02*
X130540000Y-72273779D01*
X129520000Y-71948221D02*
X129520000Y-72273779D01*
X152588500Y-65724721D02*
X152588500Y-66050279D01*
X153608500Y-65724721D02*
X153608500Y-66050279D01*
X142174500Y-78704221D02*
X142174500Y-79029779D01*
X143194500Y-78704221D02*
X143194500Y-79029779D01*
X150057000Y-78056221D02*
X150057000Y-78381779D01*
X151077000Y-78056221D02*
X151077000Y-78381779D01*
X140997721Y-61720000D02*
X141323279Y-61720000D01*
X140997721Y-62740000D02*
X141323279Y-62740000D01*
X155958000Y-73587221D02*
X155958000Y-73912779D01*
X154938000Y-73587221D02*
X154938000Y-73912779D01*
X148392779Y-46222000D02*
X148067221Y-46222000D01*
X148392779Y-47242000D02*
X148067221Y-47242000D01*
X148308279Y-53024500D02*
X147982721Y-53024500D01*
X148308279Y-52004500D02*
X147982721Y-52004500D01*
X126160000Y-79160000D02*
X126160000Y-76810000D01*
X126160000Y-72340000D02*
X126160000Y-74690000D01*
X120404437Y-72340000D02*
X126160000Y-72340000D01*
X120404437Y-79160000D02*
X126160000Y-79160000D01*
X119340000Y-78095563D02*
X119340000Y-76810000D01*
X119340000Y-73404437D02*
X119340000Y-74690000D01*
X119340000Y-73404437D02*
X120404437Y-72340000D01*
X119340000Y-78095563D02*
X120404437Y-79160000D01*
X118312500Y-73902500D02*
X119100000Y-73902500D01*
X118706250Y-73508750D02*
X118706250Y-74296250D01*
X114570000Y-50002000D02*
X116570000Y-50002000D01*
X116570000Y-50002000D02*
X116570000Y-46102000D01*
X114570000Y-50002000D02*
X114570000Y-46102000D01*
X158210000Y-97500000D02*
X158210000Y-94815000D01*
X158210000Y-94815000D02*
X156290000Y-94815000D01*
X156290000Y-94815000D02*
X156290000Y-97500000D01*
X151790000Y-94815000D02*
X151790000Y-97500000D01*
X153710000Y-94815000D02*
X151790000Y-94815000D01*
X153710000Y-97500000D02*
X153710000Y-94815000D01*
X104830000Y-68800000D02*
X102170000Y-68800000D01*
X104830000Y-76480000D02*
X104830000Y-68800000D01*
X102170000Y-76480000D02*
X102170000Y-68800000D01*
X104830000Y-76480000D02*
X102170000Y-76480000D01*
X104830000Y-77750000D02*
X104830000Y-79080000D01*
X104830000Y-79080000D02*
X103500000Y-79080000D01*
X141665000Y-42167500D02*
X141665000Y-43497500D01*
X140335000Y-42167500D02*
X141665000Y-42167500D01*
X139065000Y-42167500D02*
X139065000Y-44827500D01*
X139065000Y-44827500D02*
X131385000Y-44827500D01*
X139065000Y-42167500D02*
X131385000Y-42167500D01*
X131385000Y-42167500D02*
X131385000Y-44827500D01*
X174920000Y-85420000D02*
X176250000Y-85420000D01*
X174920000Y-86750000D02*
X174920000Y-85420000D01*
X174920000Y-88020000D02*
X177580000Y-88020000D01*
X177580000Y-88020000D02*
X177580000Y-90620000D01*
X174920000Y-88020000D02*
X174920000Y-90620000D01*
X174920000Y-90620000D02*
X177580000Y-90620000D01*
X174670000Y-78370000D02*
X177330000Y-78370000D01*
X174670000Y-75770000D02*
X174670000Y-78370000D01*
X177330000Y-75770000D02*
X177330000Y-78370000D01*
X174670000Y-75770000D02*
X177330000Y-75770000D01*
X174670000Y-74500000D02*
X174670000Y-73170000D01*
X174670000Y-73170000D02*
X176000000Y-73170000D01*
X113980000Y-83920000D02*
X113980000Y-96740000D01*
X113980000Y-96740000D02*
X116640000Y-96740000D01*
X116640000Y-96740000D02*
X116640000Y-83920000D01*
X116640000Y-83920000D02*
X113980000Y-83920000D01*
X116640000Y-84870000D02*
X122640000Y-84870000D01*
X122640000Y-84870000D02*
X122640000Y-85630000D01*
X122640000Y-85630000D02*
X116640000Y-85630000D01*
X116640000Y-84930000D02*
X122640000Y-84930000D01*
X116640000Y-85050000D02*
X122640000Y-85050000D01*
X116640000Y-85170000D02*
X122640000Y-85170000D01*
X116640000Y-85290000D02*
X122640000Y-85290000D01*
X116640000Y-85410000D02*
X122640000Y-85410000D01*
X116640000Y-85530000D02*
X122640000Y-85530000D01*
X113582929Y-84870000D02*
X113980000Y-84870000D01*
X113582929Y-85630000D02*
X113980000Y-85630000D01*
X111110000Y-84870000D02*
X111497071Y-84870000D01*
X111110000Y-85630000D02*
X111497071Y-85630000D01*
X113980000Y-86520000D02*
X116640000Y-86520000D01*
X116640000Y-87410000D02*
X122640000Y-87410000D01*
X122640000Y-87410000D02*
X122640000Y-88170000D01*
X122640000Y-88170000D02*
X116640000Y-88170000D01*
X113582929Y-87410000D02*
X113980000Y-87410000D01*
X113582929Y-88170000D02*
X113980000Y-88170000D01*
X111042929Y-87410000D02*
X111497071Y-87410000D01*
X111042929Y-88170000D02*
X111497071Y-88170000D01*
X113980000Y-89060000D02*
X116640000Y-89060000D01*
X116640000Y-89950000D02*
X122640000Y-89950000D01*
X122640000Y-89950000D02*
X122640000Y-90710000D01*
X122640000Y-90710000D02*
X116640000Y-90710000D01*
X113582929Y-89950000D02*
X113980000Y-89950000D01*
X113582929Y-90710000D02*
X113980000Y-90710000D01*
X111042929Y-89950000D02*
X111497071Y-89950000D01*
X111042929Y-90710000D02*
X111497071Y-90710000D01*
X113980000Y-91600000D02*
X116640000Y-91600000D01*
X116640000Y-92490000D02*
X122640000Y-92490000D01*
X122640000Y-92490000D02*
X122640000Y-93250000D01*
X122640000Y-93250000D02*
X116640000Y-93250000D01*
X113582929Y-92490000D02*
X113980000Y-92490000D01*
X113582929Y-93250000D02*
X113980000Y-93250000D01*
X111042929Y-92490000D02*
X111497071Y-92490000D01*
X111042929Y-93250000D02*
X111497071Y-93250000D01*
X113980000Y-94140000D02*
X116640000Y-94140000D01*
X116640000Y-95030000D02*
X122640000Y-95030000D01*
X122640000Y-95030000D02*
X122640000Y-95790000D01*
X122640000Y-95790000D02*
X116640000Y-95790000D01*
X113582929Y-95030000D02*
X113980000Y-95030000D01*
X113582929Y-95790000D02*
X113980000Y-95790000D01*
X111042929Y-95030000D02*
X111497071Y-95030000D01*
X111042929Y-95790000D02*
X111497071Y-95790000D01*
X108730000Y-85250000D02*
X108730000Y-83980000D01*
X108730000Y-83980000D02*
X110000000Y-83980000D01*
X127874936Y-48239000D02*
X129079064Y-48239000D01*
X127874936Y-50959000D02*
X129079064Y-50959000D01*
X135330000Y-78544922D02*
X135330000Y-79062078D01*
X133910000Y-78544922D02*
X133910000Y-79062078D01*
X139648000Y-78935078D02*
X139648000Y-78417922D01*
X138228000Y-78935078D02*
X138228000Y-78417922D01*
X110080000Y-78240000D02*
X110080000Y-79700000D01*
X106920000Y-78240000D02*
X106920000Y-80400000D01*
X106920000Y-78240000D02*
X107850000Y-78240000D01*
X110080000Y-78240000D02*
X109150000Y-78240000D01*
X106260000Y-92580000D02*
X106260000Y-91650000D01*
X106260000Y-89420000D02*
X106260000Y-90350000D01*
X106260000Y-89420000D02*
X104100000Y-89420000D01*
X106260000Y-92580000D02*
X104800000Y-92580000D01*
X112139000Y-47208221D02*
X112139000Y-47533779D01*
X113159000Y-47208221D02*
X113159000Y-47533779D01*
X108337221Y-71740000D02*
X108662779Y-71740000D01*
X108337221Y-72760000D02*
X108662779Y-72760000D01*
X108337221Y-75510000D02*
X108662779Y-75510000D01*
X108337221Y-74490000D02*
X108662779Y-74490000D01*
X115264779Y-54737000D02*
X114939221Y-54737000D01*
X115264779Y-53717000D02*
X114939221Y-53717000D01*
X111740000Y-76375279D02*
X111740000Y-76049721D01*
X112760000Y-76375279D02*
X112760000Y-76049721D01*
X111740000Y-72412779D02*
X111740000Y-72087221D01*
X112760000Y-72412779D02*
X112760000Y-72087221D01*
X133377721Y-76202000D02*
X133703279Y-76202000D01*
X133377721Y-75182000D02*
X133703279Y-75182000D01*
X156740000Y-92587221D02*
X156740000Y-92912779D01*
X157760000Y-92587221D02*
X157760000Y-92912779D01*
X153260000Y-92587221D02*
X153260000Y-92912779D01*
X152240000Y-92587221D02*
X152240000Y-92912779D01*
X119167000Y-43786221D02*
X119167000Y-44111779D01*
X120187000Y-43786221D02*
X120187000Y-44111779D01*
X122852279Y-43609000D02*
X122526721Y-43609000D01*
X122852279Y-42589000D02*
X122526721Y-42589000D01*
X119467000Y-49686221D02*
X119467000Y-50011779D01*
X120487000Y-49686221D02*
X120487000Y-50011779D01*
X151370779Y-61759500D02*
X151045221Y-61759500D01*
X151370779Y-62779500D02*
X151045221Y-62779500D01*
X156740000Y-73912779D02*
X156740000Y-73587221D01*
X157760000Y-73912779D02*
X157760000Y-73587221D01*
X157912779Y-87490000D02*
X157587221Y-87490000D01*
X157912779Y-88510000D02*
X157587221Y-88510000D01*
X148430279Y-49492000D02*
X148104721Y-49492000D01*
X148430279Y-48472000D02*
X148104721Y-48472000D01*
X148244779Y-53973000D02*
X147919221Y-53973000D01*
X148244779Y-54993000D02*
X147919221Y-54993000D01*
X171990000Y-85262779D02*
X171990000Y-84937221D01*
X173010000Y-85262779D02*
X173010000Y-84937221D01*
X104437221Y-82171000D02*
X104762779Y-82171000D01*
X104437221Y-81151000D02*
X104762779Y-81151000D01*
X105337221Y-86240000D02*
X105662779Y-86240000D01*
X105337221Y-87260000D02*
X105662779Y-87260000D01*
X109143721Y-66928000D02*
X109469279Y-66928000D01*
X109143721Y-67948000D02*
X109469279Y-67948000D01*
X121667000Y-46719000D02*
X121667000Y-48479000D01*
X124737000Y-48479000D02*
X124737000Y-46049000D01*
X130003500Y-62425500D02*
X131263500Y-62425500D01*
X136823500Y-62425500D02*
X135563500Y-62425500D01*
X130003500Y-58665500D02*
X130003500Y-62425500D01*
X136823500Y-56415500D02*
X136823500Y-62425500D01*
X114956500Y-62928000D02*
X113006500Y-62928000D01*
X114956500Y-62928000D02*
X116906500Y-62928000D01*
X114956500Y-68048000D02*
X113006500Y-68048000D01*
X114956500Y-68048000D02*
X118406500Y-68048000D01*
X135216500Y-72196000D02*
X135216500Y-66446000D01*
X135216500Y-66446000D02*
X131616500Y-66446000D01*
X131616500Y-66446000D02*
X131616500Y-72196000D01*
X151884500Y-57509500D02*
X150954500Y-57509500D01*
X148724500Y-57509500D02*
X149654500Y-57509500D01*
X148724500Y-57509500D02*
X148724500Y-59669500D01*
X151884500Y-57509500D02*
X151884500Y-58969500D01*
X143470000Y-46402000D02*
X144930000Y-46402000D01*
X143470000Y-49562000D02*
X145630000Y-49562000D01*
X143470000Y-49562000D02*
X143470000Y-48632000D01*
X143470000Y-46402000D02*
X143470000Y-47332000D01*
X143207000Y-51990000D02*
X143207000Y-52920000D01*
X143207000Y-55150000D02*
X143207000Y-54220000D01*
X143207000Y-55150000D02*
X145367000Y-55150000D01*
X143207000Y-51990000D02*
X144667000Y-51990000D01*
D10*
X149653666Y-42949880D02*
X149653666Y-43664166D01*
X149606047Y-43807023D01*
X149510809Y-43902261D01*
X149367952Y-43949880D01*
X149272714Y-43949880D01*
X150272714Y-43378452D02*
X150177476Y-43330833D01*
X150129857Y-43283214D01*
X150082238Y-43187976D01*
X150082238Y-43140357D01*
X150129857Y-43045119D01*
X150177476Y-42997500D01*
X150272714Y-42949880D01*
X150463190Y-42949880D01*
X150558428Y-42997500D01*
X150606047Y-43045119D01*
X150653666Y-43140357D01*
X150653666Y-43187976D01*
X150606047Y-43283214D01*
X150558428Y-43330833D01*
X150463190Y-43378452D01*
X150272714Y-43378452D01*
X150177476Y-43426071D01*
X150129857Y-43473690D01*
X150082238Y-43568928D01*
X150082238Y-43759404D01*
X150129857Y-43854642D01*
X150177476Y-43902261D01*
X150272714Y-43949880D01*
X150463190Y-43949880D01*
X150558428Y-43902261D01*
X150606047Y-43854642D01*
X150653666Y-43759404D01*
X150653666Y-43568928D01*
X150606047Y-43473690D01*
X150558428Y-43426071D01*
X150463190Y-43378452D01*
X161401166Y-42378380D02*
X161401166Y-43092666D01*
X161353547Y-43235523D01*
X161258309Y-43330761D01*
X161115452Y-43378380D01*
X161020214Y-43378380D01*
X162353547Y-42378380D02*
X161877357Y-42378380D01*
X161829738Y-42854571D01*
X161877357Y-42806952D01*
X161972595Y-42759333D01*
X162210690Y-42759333D01*
X162305928Y-42806952D01*
X162353547Y-42854571D01*
X162401166Y-42949809D01*
X162401166Y-43187904D01*
X162353547Y-43283142D01*
X162305928Y-43330761D01*
X162210690Y-43378380D01*
X161972595Y-43378380D01*
X161877357Y-43330761D01*
X161829738Y-43283142D01*
X119062595Y-58888380D02*
X119062595Y-59697904D01*
X119110214Y-59793142D01*
X119157833Y-59840761D01*
X119253071Y-59888380D01*
X119443547Y-59888380D01*
X119538785Y-59840761D01*
X119586404Y-59793142D01*
X119634023Y-59697904D01*
X119634023Y-58888380D01*
X120014976Y-58888380D02*
X120681642Y-58888380D01*
X120253071Y-59888380D01*
X144145095Y-61999880D02*
X144145095Y-62809404D01*
X144192714Y-62904642D01*
X144240333Y-62952261D01*
X144335571Y-62999880D01*
X144526047Y-62999880D01*
X144621285Y-62952261D01*
X144668904Y-62904642D01*
X144716523Y-62809404D01*
X144716523Y-61999880D01*
X145097476Y-61999880D02*
X145716523Y-61999880D01*
X145383190Y-62380833D01*
X145526047Y-62380833D01*
X145621285Y-62428452D01*
X145668904Y-62476071D01*
X145716523Y-62571309D01*
X145716523Y-62809404D01*
X145668904Y-62904642D01*
X145621285Y-62952261D01*
X145526047Y-62999880D01*
X145240333Y-62999880D01*
X145145095Y-62952261D01*
X145097476Y-62904642D01*
X108742142Y-60490380D02*
X108408809Y-60014190D01*
X108170714Y-60490380D02*
X108170714Y-59490380D01*
X108551666Y-59490380D01*
X108646904Y-59538000D01*
X108694523Y-59585619D01*
X108742142Y-59680857D01*
X108742142Y-59823714D01*
X108694523Y-59918952D01*
X108646904Y-59966571D01*
X108551666Y-60014190D01*
X108170714Y-60014190D01*
X109123095Y-59585619D02*
X109170714Y-59538000D01*
X109265952Y-59490380D01*
X109504047Y-59490380D01*
X109599285Y-59538000D01*
X109646904Y-59585619D01*
X109694523Y-59680857D01*
X109694523Y-59776095D01*
X109646904Y-59918952D01*
X109075476Y-60490380D01*
X109694523Y-60490380D01*
X110075476Y-59585619D02*
X110123095Y-59538000D01*
X110218333Y-59490380D01*
X110456428Y-59490380D01*
X110551666Y-59538000D01*
X110599285Y-59585619D01*
X110646904Y-59680857D01*
X110646904Y-59776095D01*
X110599285Y-59918952D01*
X110027857Y-60490380D01*
X110646904Y-60490380D01*
X106029166Y-47521880D02*
X106029166Y-48236166D01*
X105981547Y-48379023D01*
X105886309Y-48474261D01*
X105743452Y-48521880D01*
X105648214Y-48521880D01*
X106410119Y-47521880D02*
X107029166Y-47521880D01*
X106695833Y-47902833D01*
X106838690Y-47902833D01*
X106933928Y-47950452D01*
X106981547Y-47998071D01*
X107029166Y-48093309D01*
X107029166Y-48331404D01*
X106981547Y-48426642D01*
X106933928Y-48474261D01*
X106838690Y-48521880D01*
X106552976Y-48521880D01*
X106457738Y-48474261D01*
X106410119Y-48426642D01*
X109140666Y-45426380D02*
X109140666Y-46140666D01*
X109093047Y-46283523D01*
X108997809Y-46378761D01*
X108854952Y-46426380D01*
X108759714Y-46426380D01*
X110140666Y-46426380D02*
X109569238Y-46426380D01*
X109854952Y-46426380D02*
X109854952Y-45426380D01*
X109759714Y-45569238D01*
X109664476Y-45664476D01*
X109569238Y-45712095D01*
X172743904Y-64841380D02*
X172743904Y-63841380D01*
X173315333Y-64841380D02*
X172886761Y-64269952D01*
X173315333Y-63841380D02*
X172743904Y-64412809D01*
X174267714Y-64841380D02*
X173696285Y-64841380D01*
X173982000Y-64841380D02*
X173982000Y-63841380D01*
X173886761Y-63984238D01*
X173791523Y-64079476D01*
X173696285Y-64127095D01*
X124838904Y-60001380D02*
X124838904Y-59001380D01*
X125077000Y-59001380D01*
X125219857Y-59049000D01*
X125315095Y-59144238D01*
X125362714Y-59239476D01*
X125410333Y-59429952D01*
X125410333Y-59572809D01*
X125362714Y-59763285D01*
X125315095Y-59858523D01*
X125219857Y-59953761D01*
X125077000Y-60001380D01*
X124838904Y-60001380D01*
X126362714Y-60001380D02*
X125791285Y-60001380D01*
X126077000Y-60001380D02*
X126077000Y-59001380D01*
X125981761Y-59144238D01*
X125886523Y-59239476D01*
X125791285Y-59287095D01*
X170638095Y-72152380D02*
X170638095Y-72961904D01*
X170685714Y-73057142D01*
X170733333Y-73104761D01*
X170828571Y-73152380D01*
X171019047Y-73152380D01*
X171114285Y-73104761D01*
X171161904Y-73057142D01*
X171209523Y-72961904D01*
X171209523Y-72152380D01*
X172114285Y-72152380D02*
X171923809Y-72152380D01*
X171828571Y-72200000D01*
X171780952Y-72247619D01*
X171685714Y-72390476D01*
X171638095Y-72580952D01*
X171638095Y-72961904D01*
X171685714Y-73057142D01*
X171733333Y-73104761D01*
X171828571Y-73152380D01*
X172019047Y-73152380D01*
X172114285Y-73104761D01*
X172161904Y-73057142D01*
X172209523Y-72961904D01*
X172209523Y-72723809D01*
X172161904Y-72628571D01*
X172114285Y-72580952D01*
X172019047Y-72533333D01*
X171828571Y-72533333D01*
X171733333Y-72580952D01*
X171685714Y-72628571D01*
X171638095Y-72723809D01*
X170688095Y-91146380D02*
X170688095Y-91955904D01*
X170735714Y-92051142D01*
X170783333Y-92098761D01*
X170878571Y-92146380D01*
X171069047Y-92146380D01*
X171164285Y-92098761D01*
X171211904Y-92051142D01*
X171259523Y-91955904D01*
X171259523Y-91146380D01*
X172211904Y-91146380D02*
X171735714Y-91146380D01*
X171688095Y-91622571D01*
X171735714Y-91574952D01*
X171830952Y-91527333D01*
X172069047Y-91527333D01*
X172164285Y-91574952D01*
X172211904Y-91622571D01*
X172259523Y-91717809D01*
X172259523Y-91955904D01*
X172211904Y-92051142D01*
X172164285Y-92098761D01*
X172069047Y-92146380D01*
X171830952Y-92146380D01*
X171735714Y-92098761D01*
X171688095Y-92051142D01*
X125245833Y-41695642D02*
X125198214Y-41743261D01*
X125055357Y-41790880D01*
X124960119Y-41790880D01*
X124817261Y-41743261D01*
X124722023Y-41648023D01*
X124674404Y-41552785D01*
X124626785Y-41362309D01*
X124626785Y-41219452D01*
X124674404Y-41028976D01*
X124722023Y-40933738D01*
X124817261Y-40838500D01*
X124960119Y-40790880D01*
X125055357Y-40790880D01*
X125198214Y-40838500D01*
X125245833Y-40886119D01*
X126198214Y-41790880D02*
X125626785Y-41790880D01*
X125912500Y-41790880D02*
X125912500Y-40790880D01*
X125817261Y-40933738D01*
X125722023Y-41028976D01*
X125626785Y-41076595D01*
X128810333Y-46006142D02*
X128762714Y-46053761D01*
X128619857Y-46101380D01*
X128524619Y-46101380D01*
X128381761Y-46053761D01*
X128286523Y-45958523D01*
X128238904Y-45863285D01*
X128191285Y-45672809D01*
X128191285Y-45529952D01*
X128238904Y-45339476D01*
X128286523Y-45244238D01*
X128381761Y-45149000D01*
X128524619Y-45101380D01*
X128619857Y-45101380D01*
X128762714Y-45149000D01*
X128810333Y-45196619D01*
X129191285Y-45196619D02*
X129238904Y-45149000D01*
X129334142Y-45101380D01*
X129572238Y-45101380D01*
X129667476Y-45149000D01*
X129715095Y-45196619D01*
X129762714Y-45291857D01*
X129762714Y-45387095D01*
X129715095Y-45529952D01*
X129143666Y-46101380D01*
X129762714Y-46101380D01*
X135346333Y-55072142D02*
X135298714Y-55119761D01*
X135155857Y-55167380D01*
X135060619Y-55167380D01*
X134917761Y-55119761D01*
X134822523Y-55024523D01*
X134774904Y-54929285D01*
X134727285Y-54738809D01*
X134727285Y-54595952D01*
X134774904Y-54405476D01*
X134822523Y-54310238D01*
X134917761Y-54215000D01*
X135060619Y-54167380D01*
X135155857Y-54167380D01*
X135298714Y-54215000D01*
X135346333Y-54262619D01*
X135679666Y-54167380D02*
X136298714Y-54167380D01*
X135965380Y-54548333D01*
X136108238Y-54548333D01*
X136203476Y-54595952D01*
X136251095Y-54643571D01*
X136298714Y-54738809D01*
X136298714Y-54976904D01*
X136251095Y-55072142D01*
X136203476Y-55119761D01*
X136108238Y-55167380D01*
X135822523Y-55167380D01*
X135727285Y-55119761D01*
X135679666Y-55072142D01*
X118578333Y-54141642D02*
X118530714Y-54189261D01*
X118387857Y-54236880D01*
X118292619Y-54236880D01*
X118149761Y-54189261D01*
X118054523Y-54094023D01*
X118006904Y-53998785D01*
X117959285Y-53808309D01*
X117959285Y-53665452D01*
X118006904Y-53474976D01*
X118054523Y-53379738D01*
X118149761Y-53284500D01*
X118292619Y-53236880D01*
X118387857Y-53236880D01*
X118530714Y-53284500D01*
X118578333Y-53332119D01*
X119435476Y-53570214D02*
X119435476Y-54236880D01*
X119197380Y-53189261D02*
X118959285Y-53903547D01*
X119578333Y-53903547D01*
X115033333Y-79057142D02*
X114985714Y-79104761D01*
X114842857Y-79152380D01*
X114747619Y-79152380D01*
X114604761Y-79104761D01*
X114509523Y-79009523D01*
X114461904Y-78914285D01*
X114414285Y-78723809D01*
X114414285Y-78580952D01*
X114461904Y-78390476D01*
X114509523Y-78295238D01*
X114604761Y-78200000D01*
X114747619Y-78152380D01*
X114842857Y-78152380D01*
X114985714Y-78200000D01*
X115033333Y-78247619D01*
X115938095Y-78152380D02*
X115461904Y-78152380D01*
X115414285Y-78628571D01*
X115461904Y-78580952D01*
X115557142Y-78533333D01*
X115795238Y-78533333D01*
X115890476Y-78580952D01*
X115938095Y-78628571D01*
X115985714Y-78723809D01*
X115985714Y-78961904D01*
X115938095Y-79057142D01*
X115890476Y-79104761D01*
X115795238Y-79152380D01*
X115557142Y-79152380D01*
X115461904Y-79104761D01*
X115414285Y-79057142D01*
X138163333Y-56502642D02*
X138115714Y-56550261D01*
X137972857Y-56597880D01*
X137877619Y-56597880D01*
X137734761Y-56550261D01*
X137639523Y-56455023D01*
X137591904Y-56359785D01*
X137544285Y-56169309D01*
X137544285Y-56026452D01*
X137591904Y-55835976D01*
X137639523Y-55740738D01*
X137734761Y-55645500D01*
X137877619Y-55597880D01*
X137972857Y-55597880D01*
X138115714Y-55645500D01*
X138163333Y-55693119D01*
X139020476Y-55597880D02*
X138830000Y-55597880D01*
X138734761Y-55645500D01*
X138687142Y-55693119D01*
X138591904Y-55835976D01*
X138544285Y-56026452D01*
X138544285Y-56407404D01*
X138591904Y-56502642D01*
X138639523Y-56550261D01*
X138734761Y-56597880D01*
X138925238Y-56597880D01*
X139020476Y-56550261D01*
X139068095Y-56502642D01*
X139115714Y-56407404D01*
X139115714Y-56169309D01*
X139068095Y-56074071D01*
X139020476Y-56026452D01*
X138925238Y-55978833D01*
X138734761Y-55978833D01*
X138639523Y-56026452D01*
X138591904Y-56074071D01*
X138544285Y-56169309D01*
X139500142Y-47474166D02*
X139547761Y-47521785D01*
X139595380Y-47664642D01*
X139595380Y-47759880D01*
X139547761Y-47902738D01*
X139452523Y-47997976D01*
X139357285Y-48045595D01*
X139166809Y-48093214D01*
X139023952Y-48093214D01*
X138833476Y-48045595D01*
X138738238Y-47997976D01*
X138643000Y-47902738D01*
X138595380Y-47759880D01*
X138595380Y-47664642D01*
X138643000Y-47521785D01*
X138690619Y-47474166D01*
X138595380Y-47140833D02*
X138595380Y-46474166D01*
X139595380Y-46902738D01*
X112228333Y-52681142D02*
X112180714Y-52728761D01*
X112037857Y-52776380D01*
X111942619Y-52776380D01*
X111799761Y-52728761D01*
X111704523Y-52633523D01*
X111656904Y-52538285D01*
X111609285Y-52347809D01*
X111609285Y-52204952D01*
X111656904Y-52014476D01*
X111704523Y-51919238D01*
X111799761Y-51824000D01*
X111942619Y-51776380D01*
X112037857Y-51776380D01*
X112180714Y-51824000D01*
X112228333Y-51871619D01*
X112799761Y-52204952D02*
X112704523Y-52157333D01*
X112656904Y-52109714D01*
X112609285Y-52014476D01*
X112609285Y-51966857D01*
X112656904Y-51871619D01*
X112704523Y-51824000D01*
X112799761Y-51776380D01*
X112990238Y-51776380D01*
X113085476Y-51824000D01*
X113133095Y-51871619D01*
X113180714Y-51966857D01*
X113180714Y-52014476D01*
X113133095Y-52109714D01*
X113085476Y-52157333D01*
X112990238Y-52204952D01*
X112799761Y-52204952D01*
X112704523Y-52252571D01*
X112656904Y-52300190D01*
X112609285Y-52395428D01*
X112609285Y-52585904D01*
X112656904Y-52681142D01*
X112704523Y-52728761D01*
X112799761Y-52776380D01*
X112990238Y-52776380D01*
X113085476Y-52728761D01*
X113133095Y-52681142D01*
X113180714Y-52585904D01*
X113180714Y-52395428D01*
X113133095Y-52300190D01*
X113085476Y-52252571D01*
X112990238Y-52204952D01*
X128166833Y-56706142D02*
X128119214Y-56753761D01*
X127976357Y-56801380D01*
X127881119Y-56801380D01*
X127738261Y-56753761D01*
X127643023Y-56658523D01*
X127595404Y-56563285D01*
X127547785Y-56372809D01*
X127547785Y-56229952D01*
X127595404Y-56039476D01*
X127643023Y-55944238D01*
X127738261Y-55849000D01*
X127881119Y-55801380D01*
X127976357Y-55801380D01*
X128119214Y-55849000D01*
X128166833Y-55896619D01*
X128643023Y-56801380D02*
X128833500Y-56801380D01*
X128928738Y-56753761D01*
X128976357Y-56706142D01*
X129071595Y-56563285D01*
X129119214Y-56372809D01*
X129119214Y-55991857D01*
X129071595Y-55896619D01*
X129023976Y-55849000D01*
X128928738Y-55801380D01*
X128738261Y-55801380D01*
X128643023Y-55849000D01*
X128595404Y-55896619D01*
X128547785Y-55991857D01*
X128547785Y-56229952D01*
X128595404Y-56325190D01*
X128643023Y-56372809D01*
X128738261Y-56420428D01*
X128928738Y-56420428D01*
X129023976Y-56372809D01*
X129071595Y-56325190D01*
X129119214Y-56229952D01*
X114557142Y-70357142D02*
X114509523Y-70404761D01*
X114366666Y-70452380D01*
X114271428Y-70452380D01*
X114128571Y-70404761D01*
X114033333Y-70309523D01*
X113985714Y-70214285D01*
X113938095Y-70023809D01*
X113938095Y-69880952D01*
X113985714Y-69690476D01*
X114033333Y-69595238D01*
X114128571Y-69500000D01*
X114271428Y-69452380D01*
X114366666Y-69452380D01*
X114509523Y-69500000D01*
X114557142Y-69547619D01*
X115509523Y-70452380D02*
X114938095Y-70452380D01*
X115223809Y-70452380D02*
X115223809Y-69452380D01*
X115128571Y-69595238D01*
X115033333Y-69690476D01*
X114938095Y-69738095D01*
X116128571Y-69452380D02*
X116223809Y-69452380D01*
X116319047Y-69500000D01*
X116366666Y-69547619D01*
X116414285Y-69642857D01*
X116461904Y-69833333D01*
X116461904Y-70071428D01*
X116414285Y-70261904D01*
X116366666Y-70357142D01*
X116319047Y-70404761D01*
X116223809Y-70452380D01*
X116128571Y-70452380D01*
X116033333Y-70404761D01*
X115985714Y-70357142D01*
X115938095Y-70261904D01*
X115890476Y-70071428D01*
X115890476Y-69833333D01*
X115938095Y-69642857D01*
X115985714Y-69547619D01*
X116033333Y-69500000D01*
X116128571Y-69452380D01*
X136580642Y-76303142D02*
X136533023Y-76350761D01*
X136390166Y-76398380D01*
X136294928Y-76398380D01*
X136152071Y-76350761D01*
X136056833Y-76255523D01*
X136009214Y-76160285D01*
X135961595Y-75969809D01*
X135961595Y-75826952D01*
X136009214Y-75636476D01*
X136056833Y-75541238D01*
X136152071Y-75446000D01*
X136294928Y-75398380D01*
X136390166Y-75398380D01*
X136533023Y-75446000D01*
X136580642Y-75493619D01*
X137533023Y-76398380D02*
X136961595Y-76398380D01*
X137247309Y-76398380D02*
X137247309Y-75398380D01*
X137152071Y-75541238D01*
X137056833Y-75636476D01*
X136961595Y-75684095D01*
X138485404Y-76398380D02*
X137913976Y-76398380D01*
X138199690Y-76398380D02*
X138199690Y-75398380D01*
X138104452Y-75541238D01*
X138009214Y-75636476D01*
X137913976Y-75684095D01*
X127023642Y-67803142D02*
X126976023Y-67850761D01*
X126833166Y-67898380D01*
X126737928Y-67898380D01*
X126595071Y-67850761D01*
X126499833Y-67755523D01*
X126452214Y-67660285D01*
X126404595Y-67469809D01*
X126404595Y-67326952D01*
X126452214Y-67136476D01*
X126499833Y-67041238D01*
X126595071Y-66946000D01*
X126737928Y-66898380D01*
X126833166Y-66898380D01*
X126976023Y-66946000D01*
X127023642Y-66993619D01*
X127976023Y-67898380D02*
X127404595Y-67898380D01*
X127690309Y-67898380D02*
X127690309Y-66898380D01*
X127595071Y-67041238D01*
X127499833Y-67136476D01*
X127404595Y-67184095D01*
X128356976Y-66993619D02*
X128404595Y-66946000D01*
X128499833Y-66898380D01*
X128737928Y-66898380D01*
X128833166Y-66946000D01*
X128880785Y-66993619D01*
X128928404Y-67088857D01*
X128928404Y-67184095D01*
X128880785Y-67326952D01*
X128309357Y-67898380D01*
X128928404Y-67898380D01*
X129849642Y-74842642D02*
X129802023Y-74890261D01*
X129659166Y-74937880D01*
X129563928Y-74937880D01*
X129421071Y-74890261D01*
X129325833Y-74795023D01*
X129278214Y-74699785D01*
X129230595Y-74509309D01*
X129230595Y-74366452D01*
X129278214Y-74175976D01*
X129325833Y-74080738D01*
X129421071Y-73985500D01*
X129563928Y-73937880D01*
X129659166Y-73937880D01*
X129802023Y-73985500D01*
X129849642Y-74033119D01*
X130802023Y-74937880D02*
X130230595Y-74937880D01*
X130516309Y-74937880D02*
X130516309Y-73937880D01*
X130421071Y-74080738D01*
X130325833Y-74175976D01*
X130230595Y-74223595D01*
X131135357Y-73937880D02*
X131754404Y-73937880D01*
X131421071Y-74318833D01*
X131563928Y-74318833D01*
X131659166Y-74366452D01*
X131706785Y-74414071D01*
X131754404Y-74509309D01*
X131754404Y-74747404D01*
X131706785Y-74842642D01*
X131659166Y-74890261D01*
X131563928Y-74937880D01*
X131278214Y-74937880D01*
X131182976Y-74890261D01*
X131135357Y-74842642D01*
X126987142Y-72068142D02*
X126939523Y-72115761D01*
X126796666Y-72163380D01*
X126701428Y-72163380D01*
X126558571Y-72115761D01*
X126463333Y-72020523D01*
X126415714Y-71925285D01*
X126368095Y-71734809D01*
X126368095Y-71591952D01*
X126415714Y-71401476D01*
X126463333Y-71306238D01*
X126558571Y-71211000D01*
X126701428Y-71163380D01*
X126796666Y-71163380D01*
X126939523Y-71211000D01*
X126987142Y-71258619D01*
X127939523Y-72163380D02*
X127368095Y-72163380D01*
X127653809Y-72163380D02*
X127653809Y-71163380D01*
X127558571Y-71306238D01*
X127463333Y-71401476D01*
X127368095Y-71449095D01*
X128844285Y-71163380D02*
X128368095Y-71163380D01*
X128320476Y-71639571D01*
X128368095Y-71591952D01*
X128463333Y-71544333D01*
X128701428Y-71544333D01*
X128796666Y-71591952D01*
X128844285Y-71639571D01*
X128891904Y-71734809D01*
X128891904Y-71972904D01*
X128844285Y-72068142D01*
X128796666Y-72115761D01*
X128701428Y-72163380D01*
X128463333Y-72163380D01*
X128368095Y-72115761D01*
X128320476Y-72068142D01*
X154955642Y-65544642D02*
X154908023Y-65592261D01*
X154765166Y-65639880D01*
X154669928Y-65639880D01*
X154527071Y-65592261D01*
X154431833Y-65497023D01*
X154384214Y-65401785D01*
X154336595Y-65211309D01*
X154336595Y-65068452D01*
X154384214Y-64877976D01*
X154431833Y-64782738D01*
X154527071Y-64687500D01*
X154669928Y-64639880D01*
X154765166Y-64639880D01*
X154908023Y-64687500D01*
X154955642Y-64735119D01*
X155908023Y-65639880D02*
X155336595Y-65639880D01*
X155622309Y-65639880D02*
X155622309Y-64639880D01*
X155527071Y-64782738D01*
X155431833Y-64877976D01*
X155336595Y-64925595D01*
X156765166Y-64639880D02*
X156574690Y-64639880D01*
X156479452Y-64687500D01*
X156431833Y-64735119D01*
X156336595Y-64877976D01*
X156288976Y-65068452D01*
X156288976Y-65449404D01*
X156336595Y-65544642D01*
X156384214Y-65592261D01*
X156479452Y-65639880D01*
X156669928Y-65639880D01*
X156765166Y-65592261D01*
X156812785Y-65544642D01*
X156860404Y-65449404D01*
X156860404Y-65211309D01*
X156812785Y-65116071D01*
X156765166Y-65068452D01*
X156669928Y-65020833D01*
X156479452Y-65020833D01*
X156384214Y-65068452D01*
X156336595Y-65116071D01*
X156288976Y-65211309D01*
X144391142Y-79287642D02*
X144343523Y-79335261D01*
X144200666Y-79382880D01*
X144105428Y-79382880D01*
X143962571Y-79335261D01*
X143867333Y-79240023D01*
X143819714Y-79144785D01*
X143772095Y-78954309D01*
X143772095Y-78811452D01*
X143819714Y-78620976D01*
X143867333Y-78525738D01*
X143962571Y-78430500D01*
X144105428Y-78382880D01*
X144200666Y-78382880D01*
X144343523Y-78430500D01*
X144391142Y-78478119D01*
X145343523Y-79382880D02*
X144772095Y-79382880D01*
X145057809Y-79382880D02*
X145057809Y-78382880D01*
X144962571Y-78525738D01*
X144867333Y-78620976D01*
X144772095Y-78668595D01*
X145676857Y-78382880D02*
X146343523Y-78382880D01*
X145914952Y-79382880D01*
X152455642Y-78589142D02*
X152408023Y-78636761D01*
X152265166Y-78684380D01*
X152169928Y-78684380D01*
X152027071Y-78636761D01*
X151931833Y-78541523D01*
X151884214Y-78446285D01*
X151836595Y-78255809D01*
X151836595Y-78112952D01*
X151884214Y-77922476D01*
X151931833Y-77827238D01*
X152027071Y-77732000D01*
X152169928Y-77684380D01*
X152265166Y-77684380D01*
X152408023Y-77732000D01*
X152455642Y-77779619D01*
X153408023Y-78684380D02*
X152836595Y-78684380D01*
X153122309Y-78684380D02*
X153122309Y-77684380D01*
X153027071Y-77827238D01*
X152931833Y-77922476D01*
X152836595Y-77970095D01*
X153979452Y-78112952D02*
X153884214Y-78065333D01*
X153836595Y-78017714D01*
X153788976Y-77922476D01*
X153788976Y-77874857D01*
X153836595Y-77779619D01*
X153884214Y-77732000D01*
X153979452Y-77684380D01*
X154169928Y-77684380D01*
X154265166Y-77732000D01*
X154312785Y-77779619D01*
X154360404Y-77874857D01*
X154360404Y-77922476D01*
X154312785Y-78017714D01*
X154265166Y-78065333D01*
X154169928Y-78112952D01*
X153979452Y-78112952D01*
X153884214Y-78160571D01*
X153836595Y-78208190D01*
X153788976Y-78303428D01*
X153788976Y-78493904D01*
X153836595Y-78589142D01*
X153884214Y-78636761D01*
X153979452Y-78684380D01*
X154169928Y-78684380D01*
X154265166Y-78636761D01*
X154312785Y-78589142D01*
X154360404Y-78493904D01*
X154360404Y-78303428D01*
X154312785Y-78208190D01*
X154265166Y-78160571D01*
X154169928Y-78112952D01*
X140517642Y-61157142D02*
X140470023Y-61204761D01*
X140327166Y-61252380D01*
X140231928Y-61252380D01*
X140089071Y-61204761D01*
X139993833Y-61109523D01*
X139946214Y-61014285D01*
X139898595Y-60823809D01*
X139898595Y-60680952D01*
X139946214Y-60490476D01*
X139993833Y-60395238D01*
X140089071Y-60300000D01*
X140231928Y-60252380D01*
X140327166Y-60252380D01*
X140470023Y-60300000D01*
X140517642Y-60347619D01*
X141470023Y-61252380D02*
X140898595Y-61252380D01*
X141184309Y-61252380D02*
X141184309Y-60252380D01*
X141089071Y-60395238D01*
X140993833Y-60490476D01*
X140898595Y-60538095D01*
X141946214Y-61252380D02*
X142136690Y-61252380D01*
X142231928Y-61204761D01*
X142279547Y-61157142D01*
X142374785Y-61014285D01*
X142422404Y-60823809D01*
X142422404Y-60442857D01*
X142374785Y-60347619D01*
X142327166Y-60300000D01*
X142231928Y-60252380D01*
X142041452Y-60252380D01*
X141946214Y-60300000D01*
X141898595Y-60347619D01*
X141850976Y-60442857D01*
X141850976Y-60680952D01*
X141898595Y-60776190D01*
X141946214Y-60823809D01*
X142041452Y-60871428D01*
X142231928Y-60871428D01*
X142327166Y-60823809D01*
X142374785Y-60776190D01*
X142422404Y-60680952D01*
X154043142Y-71858142D02*
X153995523Y-71905761D01*
X153852666Y-71953380D01*
X153757428Y-71953380D01*
X153614571Y-71905761D01*
X153519333Y-71810523D01*
X153471714Y-71715285D01*
X153424095Y-71524809D01*
X153424095Y-71381952D01*
X153471714Y-71191476D01*
X153519333Y-71096238D01*
X153614571Y-71001000D01*
X153757428Y-70953380D01*
X153852666Y-70953380D01*
X153995523Y-71001000D01*
X154043142Y-71048619D01*
X154424095Y-71048619D02*
X154471714Y-71001000D01*
X154566952Y-70953380D01*
X154805047Y-70953380D01*
X154900285Y-71001000D01*
X154947904Y-71048619D01*
X154995523Y-71143857D01*
X154995523Y-71239095D01*
X154947904Y-71381952D01*
X154376476Y-71953380D01*
X154995523Y-71953380D01*
X155614571Y-70953380D02*
X155709809Y-70953380D01*
X155805047Y-71001000D01*
X155852666Y-71048619D01*
X155900285Y-71143857D01*
X155947904Y-71334333D01*
X155947904Y-71572428D01*
X155900285Y-71762904D01*
X155852666Y-71858142D01*
X155805047Y-71905761D01*
X155709809Y-71953380D01*
X155614571Y-71953380D01*
X155519333Y-71905761D01*
X155471714Y-71858142D01*
X155424095Y-71762904D01*
X155376476Y-71572428D01*
X155376476Y-71334333D01*
X155424095Y-71143857D01*
X155471714Y-71048619D01*
X155519333Y-71001000D01*
X155614571Y-70953380D01*
X150995142Y-46966142D02*
X150947523Y-47013761D01*
X150804666Y-47061380D01*
X150709428Y-47061380D01*
X150566571Y-47013761D01*
X150471333Y-46918523D01*
X150423714Y-46823285D01*
X150376095Y-46632809D01*
X150376095Y-46489952D01*
X150423714Y-46299476D01*
X150471333Y-46204238D01*
X150566571Y-46109000D01*
X150709428Y-46061380D01*
X150804666Y-46061380D01*
X150947523Y-46109000D01*
X150995142Y-46156619D01*
X151376095Y-46156619D02*
X151423714Y-46109000D01*
X151518952Y-46061380D01*
X151757047Y-46061380D01*
X151852285Y-46109000D01*
X151899904Y-46156619D01*
X151947523Y-46251857D01*
X151947523Y-46347095D01*
X151899904Y-46489952D01*
X151328476Y-47061380D01*
X151947523Y-47061380D01*
X152899904Y-47061380D02*
X152328476Y-47061380D01*
X152614190Y-47061380D02*
X152614190Y-46061380D01*
X152518952Y-46204238D01*
X152423714Y-46299476D01*
X152328476Y-46347095D01*
X147439142Y-51220642D02*
X147391523Y-51268261D01*
X147248666Y-51315880D01*
X147153428Y-51315880D01*
X147010571Y-51268261D01*
X146915333Y-51173023D01*
X146867714Y-51077785D01*
X146820095Y-50887309D01*
X146820095Y-50744452D01*
X146867714Y-50553976D01*
X146915333Y-50458738D01*
X147010571Y-50363500D01*
X147153428Y-50315880D01*
X147248666Y-50315880D01*
X147391523Y-50363500D01*
X147439142Y-50411119D01*
X147820095Y-50411119D02*
X147867714Y-50363500D01*
X147962952Y-50315880D01*
X148201047Y-50315880D01*
X148296285Y-50363500D01*
X148343904Y-50411119D01*
X148391523Y-50506357D01*
X148391523Y-50601595D01*
X148343904Y-50744452D01*
X147772476Y-51315880D01*
X148391523Y-51315880D01*
X148772476Y-50411119D02*
X148820095Y-50363500D01*
X148915333Y-50315880D01*
X149153428Y-50315880D01*
X149248666Y-50363500D01*
X149296285Y-50411119D01*
X149343904Y-50506357D01*
X149343904Y-50601595D01*
X149296285Y-50744452D01*
X148724857Y-51315880D01*
X149343904Y-51315880D01*
X122107142Y-71540642D02*
X122059523Y-71588261D01*
X121916666Y-71635880D01*
X121821428Y-71635880D01*
X121678571Y-71588261D01*
X121583333Y-71493023D01*
X121535714Y-71397785D01*
X121488095Y-71207309D01*
X121488095Y-71064452D01*
X121535714Y-70873976D01*
X121583333Y-70778738D01*
X121678571Y-70683500D01*
X121821428Y-70635880D01*
X121916666Y-70635880D01*
X122059523Y-70683500D01*
X122107142Y-70731119D01*
X122488095Y-70731119D02*
X122535714Y-70683500D01*
X122630952Y-70635880D01*
X122869047Y-70635880D01*
X122964285Y-70683500D01*
X123011904Y-70731119D01*
X123059523Y-70826357D01*
X123059523Y-70921595D01*
X123011904Y-71064452D01*
X122440476Y-71635880D01*
X123059523Y-71635880D01*
X123392857Y-70635880D02*
X124011904Y-70635880D01*
X123678571Y-71016833D01*
X123821428Y-71016833D01*
X123916666Y-71064452D01*
X123964285Y-71112071D01*
X124011904Y-71207309D01*
X124011904Y-71445404D01*
X123964285Y-71540642D01*
X123916666Y-71588261D01*
X123821428Y-71635880D01*
X123535714Y-71635880D01*
X123440476Y-71588261D01*
X123392857Y-71540642D01*
X117117904Y-48204380D02*
X117117904Y-47204380D01*
X117356000Y-47204380D01*
X117498857Y-47252000D01*
X117594095Y-47347238D01*
X117641714Y-47442476D01*
X117689333Y-47632952D01*
X117689333Y-47775809D01*
X117641714Y-47966285D01*
X117594095Y-48061523D01*
X117498857Y-48156761D01*
X117356000Y-48204380D01*
X117117904Y-48204380D01*
X118070285Y-47299619D02*
X118117904Y-47252000D01*
X118213142Y-47204380D01*
X118451238Y-47204380D01*
X118546476Y-47252000D01*
X118594095Y-47299619D01*
X118641714Y-47394857D01*
X118641714Y-47490095D01*
X118594095Y-47632952D01*
X118022666Y-48204380D01*
X118641714Y-48204380D01*
X158861904Y-96852380D02*
X158861904Y-95852380D01*
X159100000Y-95852380D01*
X159242857Y-95900000D01*
X159338095Y-95995238D01*
X159385714Y-96090476D01*
X159433333Y-96280952D01*
X159433333Y-96423809D01*
X159385714Y-96614285D01*
X159338095Y-96709523D01*
X159242857Y-96804761D01*
X159100000Y-96852380D01*
X158861904Y-96852380D01*
X159766666Y-95852380D02*
X160385714Y-95852380D01*
X160052380Y-96233333D01*
X160195238Y-96233333D01*
X160290476Y-96280952D01*
X160338095Y-96328571D01*
X160385714Y-96423809D01*
X160385714Y-96661904D01*
X160338095Y-96757142D01*
X160290476Y-96804761D01*
X160195238Y-96852380D01*
X159909523Y-96852380D01*
X159814285Y-96804761D01*
X159766666Y-96757142D01*
X149861904Y-96652380D02*
X149861904Y-95652380D01*
X150100000Y-95652380D01*
X150242857Y-95700000D01*
X150338095Y-95795238D01*
X150385714Y-95890476D01*
X150433333Y-96080952D01*
X150433333Y-96223809D01*
X150385714Y-96414285D01*
X150338095Y-96509523D01*
X150242857Y-96604761D01*
X150100000Y-96652380D01*
X149861904Y-96652380D01*
X151290476Y-95985714D02*
X151290476Y-96652380D01*
X151052380Y-95604761D02*
X150814285Y-96319047D01*
X151433333Y-96319047D01*
X106092666Y-68857880D02*
X106092666Y-69572166D01*
X106045047Y-69715023D01*
X105949809Y-69810261D01*
X105806952Y-69857880D01*
X105711714Y-69857880D01*
X106521238Y-68953119D02*
X106568857Y-68905500D01*
X106664095Y-68857880D01*
X106902190Y-68857880D01*
X106997428Y-68905500D01*
X107045047Y-68953119D01*
X107092666Y-69048357D01*
X107092666Y-69143595D01*
X107045047Y-69286452D01*
X106473619Y-69857880D01*
X107092666Y-69857880D01*
X142213380Y-46677833D02*
X142927666Y-46677833D01*
X143070523Y-46725452D01*
X143165761Y-46820690D01*
X143213380Y-46963547D01*
X143213380Y-47058785D01*
X142546714Y-45773071D02*
X143213380Y-45773071D01*
X142165761Y-46011166D02*
X142880047Y-46249261D01*
X142880047Y-45630214D01*
X173066666Y-87452380D02*
X173066666Y-88166666D01*
X173019047Y-88309523D01*
X172923809Y-88404761D01*
X172780952Y-88452380D01*
X172685714Y-88452380D01*
X173971428Y-87452380D02*
X173780952Y-87452380D01*
X173685714Y-87500000D01*
X173638095Y-87547619D01*
X173542857Y-87690476D01*
X173495238Y-87880952D01*
X173495238Y-88261904D01*
X173542857Y-88357142D01*
X173590476Y-88404761D01*
X173685714Y-88452380D01*
X173876190Y-88452380D01*
X173971428Y-88404761D01*
X174019047Y-88357142D01*
X174066666Y-88261904D01*
X174066666Y-88023809D01*
X174019047Y-87928571D01*
X173971428Y-87880952D01*
X173876190Y-87833333D01*
X173685714Y-87833333D01*
X173590476Y-87880952D01*
X173542857Y-87928571D01*
X173495238Y-88023809D01*
X172566666Y-74552380D02*
X172566666Y-75266666D01*
X172519047Y-75409523D01*
X172423809Y-75504761D01*
X172280952Y-75552380D01*
X172185714Y-75552380D01*
X172947619Y-74552380D02*
X173614285Y-74552380D01*
X173185714Y-75552380D01*
X115166666Y-81952380D02*
X115166666Y-82666666D01*
X115119047Y-82809523D01*
X115023809Y-82904761D01*
X114880952Y-82952380D01*
X114785714Y-82952380D01*
X115690476Y-82952380D02*
X115880952Y-82952380D01*
X115976190Y-82904761D01*
X116023809Y-82857142D01*
X116119047Y-82714285D01*
X116166666Y-82523809D01*
X116166666Y-82142857D01*
X116119047Y-82047619D01*
X116071428Y-82000000D01*
X115976190Y-81952380D01*
X115785714Y-81952380D01*
X115690476Y-82000000D01*
X115642857Y-82047619D01*
X115595238Y-82142857D01*
X115595238Y-82380952D01*
X115642857Y-82476190D01*
X115690476Y-82523809D01*
X115785714Y-82571428D01*
X115976190Y-82571428D01*
X116071428Y-82523809D01*
X116119047Y-82476190D01*
X116166666Y-82380952D01*
X129810333Y-52601380D02*
X129334142Y-52601380D01*
X129334142Y-51601380D01*
X130667476Y-52601380D02*
X130096047Y-52601380D01*
X130381761Y-52601380D02*
X130381761Y-51601380D01*
X130286523Y-51744238D01*
X130191285Y-51839476D01*
X130096047Y-51887095D01*
X132484833Y-78366880D02*
X132008642Y-78366880D01*
X132008642Y-77366880D01*
X132770547Y-77462119D02*
X132818166Y-77414500D01*
X132913404Y-77366880D01*
X133151500Y-77366880D01*
X133246738Y-77414500D01*
X133294357Y-77462119D01*
X133341976Y-77557357D01*
X133341976Y-77652595D01*
X133294357Y-77795452D01*
X132722928Y-78366880D01*
X133341976Y-78366880D01*
X140803333Y-78493880D02*
X140327142Y-78493880D01*
X140327142Y-77493880D01*
X141041428Y-77493880D02*
X141660476Y-77493880D01*
X141327142Y-77874833D01*
X141470000Y-77874833D01*
X141565238Y-77922452D01*
X141612857Y-77970071D01*
X141660476Y-78065309D01*
X141660476Y-78303404D01*
X141612857Y-78398642D01*
X141565238Y-78446261D01*
X141470000Y-78493880D01*
X141184285Y-78493880D01*
X141089047Y-78446261D01*
X141041428Y-78398642D01*
X109404761Y-82147619D02*
X109309523Y-82100000D01*
X109214285Y-82004761D01*
X109071428Y-81861904D01*
X108976190Y-81814285D01*
X108880952Y-81814285D01*
X108928571Y-82052380D02*
X108833333Y-82004761D01*
X108738095Y-81909523D01*
X108690476Y-81719047D01*
X108690476Y-81385714D01*
X108738095Y-81195238D01*
X108833333Y-81100000D01*
X108928571Y-81052380D01*
X109119047Y-81052380D01*
X109214285Y-81100000D01*
X109309523Y-81195238D01*
X109357142Y-81385714D01*
X109357142Y-81719047D01*
X109309523Y-81909523D01*
X109214285Y-82004761D01*
X109119047Y-82052380D01*
X108928571Y-82052380D01*
X110214285Y-81385714D02*
X110214285Y-82052380D01*
X109976190Y-81004761D02*
X109738095Y-81719047D01*
X110357142Y-81719047D01*
X105404761Y-89047619D02*
X105309523Y-89000000D01*
X105214285Y-88904761D01*
X105071428Y-88761904D01*
X104976190Y-88714285D01*
X104880952Y-88714285D01*
X104928571Y-88952380D02*
X104833333Y-88904761D01*
X104738095Y-88809523D01*
X104690476Y-88619047D01*
X104690476Y-88285714D01*
X104738095Y-88095238D01*
X104833333Y-88000000D01*
X104928571Y-87952380D01*
X105119047Y-87952380D01*
X105214285Y-88000000D01*
X105309523Y-88095238D01*
X105357142Y-88285714D01*
X105357142Y-88619047D01*
X105309523Y-88809523D01*
X105214285Y-88904761D01*
X105119047Y-88952380D01*
X104928571Y-88952380D01*
X106261904Y-87952380D02*
X105785714Y-87952380D01*
X105738095Y-88428571D01*
X105785714Y-88380952D01*
X105880952Y-88333333D01*
X106119047Y-88333333D01*
X106214285Y-88380952D01*
X106261904Y-88428571D01*
X106309523Y-88523809D01*
X106309523Y-88761904D01*
X106261904Y-88857142D01*
X106214285Y-88904761D01*
X106119047Y-88952380D01*
X105880952Y-88952380D01*
X105785714Y-88904761D01*
X105738095Y-88857142D01*
X110450333Y-48712380D02*
X110117000Y-48236190D01*
X109878904Y-48712380D02*
X109878904Y-47712380D01*
X110259857Y-47712380D01*
X110355095Y-47760000D01*
X110402714Y-47807619D01*
X110450333Y-47902857D01*
X110450333Y-48045714D01*
X110402714Y-48140952D01*
X110355095Y-48188571D01*
X110259857Y-48236190D01*
X109878904Y-48236190D01*
X111402714Y-48712380D02*
X110831285Y-48712380D01*
X111117000Y-48712380D02*
X111117000Y-47712380D01*
X111021761Y-47855238D01*
X110926523Y-47950476D01*
X110831285Y-47998095D01*
X108333333Y-71272380D02*
X108000000Y-70796190D01*
X107761904Y-71272380D02*
X107761904Y-70272380D01*
X108142857Y-70272380D01*
X108238095Y-70320000D01*
X108285714Y-70367619D01*
X108333333Y-70462857D01*
X108333333Y-70605714D01*
X108285714Y-70700952D01*
X108238095Y-70748571D01*
X108142857Y-70796190D01*
X107761904Y-70796190D01*
X108714285Y-70367619D02*
X108761904Y-70320000D01*
X108857142Y-70272380D01*
X109095238Y-70272380D01*
X109190476Y-70320000D01*
X109238095Y-70367619D01*
X109285714Y-70462857D01*
X109285714Y-70558095D01*
X109238095Y-70700952D01*
X108666666Y-71272380D01*
X109285714Y-71272380D01*
X108333333Y-74022380D02*
X108000000Y-73546190D01*
X107761904Y-74022380D02*
X107761904Y-73022380D01*
X108142857Y-73022380D01*
X108238095Y-73070000D01*
X108285714Y-73117619D01*
X108333333Y-73212857D01*
X108333333Y-73355714D01*
X108285714Y-73450952D01*
X108238095Y-73498571D01*
X108142857Y-73546190D01*
X107761904Y-73546190D01*
X108666666Y-73022380D02*
X109285714Y-73022380D01*
X108952380Y-73403333D01*
X109095238Y-73403333D01*
X109190476Y-73450952D01*
X109238095Y-73498571D01*
X109285714Y-73593809D01*
X109285714Y-73831904D01*
X109238095Y-73927142D01*
X109190476Y-73974761D01*
X109095238Y-74022380D01*
X108809523Y-74022380D01*
X108714285Y-73974761D01*
X108666666Y-73927142D01*
X112355333Y-54681380D02*
X112022000Y-54205190D01*
X111783904Y-54681380D02*
X111783904Y-53681380D01*
X112164857Y-53681380D01*
X112260095Y-53729000D01*
X112307714Y-53776619D01*
X112355333Y-53871857D01*
X112355333Y-54014714D01*
X112307714Y-54109952D01*
X112260095Y-54157571D01*
X112164857Y-54205190D01*
X111783904Y-54205190D01*
X113212476Y-54014714D02*
X113212476Y-54681380D01*
X112974380Y-53633761D02*
X112736285Y-54348047D01*
X113355333Y-54348047D01*
X112233333Y-79152380D02*
X111900000Y-78676190D01*
X111661904Y-79152380D02*
X111661904Y-78152380D01*
X112042857Y-78152380D01*
X112138095Y-78200000D01*
X112185714Y-78247619D01*
X112233333Y-78342857D01*
X112233333Y-78485714D01*
X112185714Y-78580952D01*
X112138095Y-78628571D01*
X112042857Y-78676190D01*
X111661904Y-78676190D01*
X113138095Y-78152380D02*
X112661904Y-78152380D01*
X112614285Y-78628571D01*
X112661904Y-78580952D01*
X112757142Y-78533333D01*
X112995238Y-78533333D01*
X113090476Y-78580952D01*
X113138095Y-78628571D01*
X113185714Y-78723809D01*
X113185714Y-78961904D01*
X113138095Y-79057142D01*
X113090476Y-79104761D01*
X112995238Y-79152380D01*
X112757142Y-79152380D01*
X112661904Y-79104761D01*
X112614285Y-79057142D01*
X112233333Y-70452380D02*
X111900000Y-69976190D01*
X111661904Y-70452380D02*
X111661904Y-69452380D01*
X112042857Y-69452380D01*
X112138095Y-69500000D01*
X112185714Y-69547619D01*
X112233333Y-69642857D01*
X112233333Y-69785714D01*
X112185714Y-69880952D01*
X112138095Y-69928571D01*
X112042857Y-69976190D01*
X111661904Y-69976190D01*
X113090476Y-69452380D02*
X112900000Y-69452380D01*
X112804761Y-69500000D01*
X112757142Y-69547619D01*
X112661904Y-69690476D01*
X112614285Y-69880952D01*
X112614285Y-70261904D01*
X112661904Y-70357142D01*
X112709523Y-70404761D01*
X112804761Y-70452380D01*
X112995238Y-70452380D01*
X113090476Y-70404761D01*
X113138095Y-70357142D01*
X113185714Y-70261904D01*
X113185714Y-70023809D01*
X113138095Y-69928571D01*
X113090476Y-69880952D01*
X112995238Y-69833333D01*
X112804761Y-69833333D01*
X112709523Y-69880952D01*
X112661904Y-69928571D01*
X112614285Y-70023809D01*
X130643333Y-76525380D02*
X130310000Y-76049190D01*
X130071904Y-76525380D02*
X130071904Y-75525380D01*
X130452857Y-75525380D01*
X130548095Y-75573000D01*
X130595714Y-75620619D01*
X130643333Y-75715857D01*
X130643333Y-75858714D01*
X130595714Y-75953952D01*
X130548095Y-76001571D01*
X130452857Y-76049190D01*
X130071904Y-76049190D01*
X130976666Y-75525380D02*
X131643333Y-75525380D01*
X131214761Y-76525380D01*
X159233333Y-93852380D02*
X158900000Y-93376190D01*
X158661904Y-93852380D02*
X158661904Y-92852380D01*
X159042857Y-92852380D01*
X159138095Y-92900000D01*
X159185714Y-92947619D01*
X159233333Y-93042857D01*
X159233333Y-93185714D01*
X159185714Y-93280952D01*
X159138095Y-93328571D01*
X159042857Y-93376190D01*
X158661904Y-93376190D01*
X159804761Y-93280952D02*
X159709523Y-93233333D01*
X159661904Y-93185714D01*
X159614285Y-93090476D01*
X159614285Y-93042857D01*
X159661904Y-92947619D01*
X159709523Y-92900000D01*
X159804761Y-92852380D01*
X159995238Y-92852380D01*
X160090476Y-92900000D01*
X160138095Y-92947619D01*
X160185714Y-93042857D01*
X160185714Y-93090476D01*
X160138095Y-93185714D01*
X160090476Y-93233333D01*
X159995238Y-93280952D01*
X159804761Y-93280952D01*
X159709523Y-93328571D01*
X159661904Y-93376190D01*
X159614285Y-93471428D01*
X159614285Y-93661904D01*
X159661904Y-93757142D01*
X159709523Y-93804761D01*
X159804761Y-93852380D01*
X159995238Y-93852380D01*
X160090476Y-93804761D01*
X160138095Y-93757142D01*
X160185714Y-93661904D01*
X160185714Y-93471428D01*
X160138095Y-93376190D01*
X160090476Y-93328571D01*
X159995238Y-93280952D01*
X150433333Y-93052380D02*
X150100000Y-92576190D01*
X149861904Y-93052380D02*
X149861904Y-92052380D01*
X150242857Y-92052380D01*
X150338095Y-92100000D01*
X150385714Y-92147619D01*
X150433333Y-92242857D01*
X150433333Y-92385714D01*
X150385714Y-92480952D01*
X150338095Y-92528571D01*
X150242857Y-92576190D01*
X149861904Y-92576190D01*
X150909523Y-93052380D02*
X151100000Y-93052380D01*
X151195238Y-93004761D01*
X151242857Y-92957142D01*
X151338095Y-92814285D01*
X151385714Y-92623809D01*
X151385714Y-92242857D01*
X151338095Y-92147619D01*
X151290476Y-92100000D01*
X151195238Y-92052380D01*
X151004761Y-92052380D01*
X150909523Y-92100000D01*
X150861904Y-92147619D01*
X150814285Y-92242857D01*
X150814285Y-92480952D01*
X150861904Y-92576190D01*
X150909523Y-92623809D01*
X151004761Y-92671428D01*
X151195238Y-92671428D01*
X151290476Y-92623809D01*
X151338095Y-92576190D01*
X151385714Y-92480952D01*
X118546642Y-41981380D02*
X118213309Y-41505190D01*
X117975214Y-41981380D02*
X117975214Y-40981380D01*
X118356166Y-40981380D01*
X118451404Y-41029000D01*
X118499023Y-41076619D01*
X118546642Y-41171857D01*
X118546642Y-41314714D01*
X118499023Y-41409952D01*
X118451404Y-41457571D01*
X118356166Y-41505190D01*
X117975214Y-41505190D01*
X119499023Y-41981380D02*
X118927595Y-41981380D01*
X119213309Y-41981380D02*
X119213309Y-40981380D01*
X119118071Y-41124238D01*
X119022833Y-41219476D01*
X118927595Y-41267095D01*
X120118071Y-40981380D02*
X120213309Y-40981380D01*
X120308547Y-41029000D01*
X120356166Y-41076619D01*
X120403785Y-41171857D01*
X120451404Y-41362333D01*
X120451404Y-41600428D01*
X120403785Y-41790904D01*
X120356166Y-41886142D01*
X120308547Y-41933761D01*
X120213309Y-41981380D01*
X120118071Y-41981380D01*
X120022833Y-41933761D01*
X119975214Y-41886142D01*
X119927595Y-41790904D01*
X119879976Y-41600428D01*
X119879976Y-41362333D01*
X119927595Y-41171857D01*
X119975214Y-41076619D01*
X120022833Y-41029000D01*
X120118071Y-40981380D01*
X125214142Y-43601380D02*
X124880809Y-43125190D01*
X124642714Y-43601380D02*
X124642714Y-42601380D01*
X125023666Y-42601380D01*
X125118904Y-42649000D01*
X125166523Y-42696619D01*
X125214142Y-42791857D01*
X125214142Y-42934714D01*
X125166523Y-43029952D01*
X125118904Y-43077571D01*
X125023666Y-43125190D01*
X124642714Y-43125190D01*
X126166523Y-43601380D02*
X125595095Y-43601380D01*
X125880809Y-43601380D02*
X125880809Y-42601380D01*
X125785571Y-42744238D01*
X125690333Y-42839476D01*
X125595095Y-42887095D01*
X127118904Y-43601380D02*
X126547476Y-43601380D01*
X126833190Y-43601380D02*
X126833190Y-42601380D01*
X126737952Y-42744238D01*
X126642714Y-42839476D01*
X126547476Y-42887095D01*
X121658142Y-51125380D02*
X121324809Y-50649190D01*
X121086714Y-51125380D02*
X121086714Y-50125380D01*
X121467666Y-50125380D01*
X121562904Y-50173000D01*
X121610523Y-50220619D01*
X121658142Y-50315857D01*
X121658142Y-50458714D01*
X121610523Y-50553952D01*
X121562904Y-50601571D01*
X121467666Y-50649190D01*
X121086714Y-50649190D01*
X122610523Y-51125380D02*
X122039095Y-51125380D01*
X122324809Y-51125380D02*
X122324809Y-50125380D01*
X122229571Y-50268238D01*
X122134333Y-50363476D01*
X122039095Y-50411095D01*
X122991476Y-50220619D02*
X123039095Y-50173000D01*
X123134333Y-50125380D01*
X123372428Y-50125380D01*
X123467666Y-50173000D01*
X123515285Y-50220619D01*
X123562904Y-50315857D01*
X123562904Y-50411095D01*
X123515285Y-50553952D01*
X122943857Y-51125380D01*
X123562904Y-51125380D01*
X147502642Y-61285380D02*
X147169309Y-60809190D01*
X146931214Y-61285380D02*
X146931214Y-60285380D01*
X147312166Y-60285380D01*
X147407404Y-60333000D01*
X147455023Y-60380619D01*
X147502642Y-60475857D01*
X147502642Y-60618714D01*
X147455023Y-60713952D01*
X147407404Y-60761571D01*
X147312166Y-60809190D01*
X146931214Y-60809190D01*
X148455023Y-61285380D02*
X147883595Y-61285380D01*
X148169309Y-61285380D02*
X148169309Y-60285380D01*
X148074071Y-60428238D01*
X147978833Y-60523476D01*
X147883595Y-60571095D01*
X148788357Y-60285380D02*
X149407404Y-60285380D01*
X149074071Y-60666333D01*
X149216928Y-60666333D01*
X149312166Y-60713952D01*
X149359785Y-60761571D01*
X149407404Y-60856809D01*
X149407404Y-61094904D01*
X149359785Y-61190142D01*
X149312166Y-61237761D01*
X149216928Y-61285380D01*
X148931214Y-61285380D01*
X148835976Y-61237761D01*
X148788357Y-61190142D01*
X157027642Y-76842880D02*
X156694309Y-76366690D01*
X156456214Y-76842880D02*
X156456214Y-75842880D01*
X156837166Y-75842880D01*
X156932404Y-75890500D01*
X156980023Y-75938119D01*
X157027642Y-76033357D01*
X157027642Y-76176214D01*
X156980023Y-76271452D01*
X156932404Y-76319071D01*
X156837166Y-76366690D01*
X156456214Y-76366690D01*
X157980023Y-76842880D02*
X157408595Y-76842880D01*
X157694309Y-76842880D02*
X157694309Y-75842880D01*
X157599071Y-75985738D01*
X157503833Y-76080976D01*
X157408595Y-76128595D01*
X158837166Y-76176214D02*
X158837166Y-76842880D01*
X158599071Y-75795261D02*
X158360976Y-76509547D01*
X158980023Y-76509547D01*
X157257142Y-86652380D02*
X156923809Y-86176190D01*
X156685714Y-86652380D02*
X156685714Y-85652380D01*
X157066666Y-85652380D01*
X157161904Y-85700000D01*
X157209523Y-85747619D01*
X157257142Y-85842857D01*
X157257142Y-85985714D01*
X157209523Y-86080952D01*
X157161904Y-86128571D01*
X157066666Y-86176190D01*
X156685714Y-86176190D01*
X158209523Y-86652380D02*
X157638095Y-86652380D01*
X157923809Y-86652380D02*
X157923809Y-85652380D01*
X157828571Y-85795238D01*
X157733333Y-85890476D01*
X157638095Y-85938095D01*
X159114285Y-85652380D02*
X158638095Y-85652380D01*
X158590476Y-86128571D01*
X158638095Y-86080952D01*
X158733333Y-86033333D01*
X158971428Y-86033333D01*
X159066666Y-86080952D01*
X159114285Y-86128571D01*
X159161904Y-86223809D01*
X159161904Y-86461904D01*
X159114285Y-86557142D01*
X159066666Y-86604761D01*
X158971428Y-86652380D01*
X158733333Y-86652380D01*
X158638095Y-86604761D01*
X158590476Y-86557142D01*
X150995142Y-48839380D02*
X150661809Y-48363190D01*
X150423714Y-48839380D02*
X150423714Y-47839380D01*
X150804666Y-47839380D01*
X150899904Y-47887000D01*
X150947523Y-47934619D01*
X150995142Y-48029857D01*
X150995142Y-48172714D01*
X150947523Y-48267952D01*
X150899904Y-48315571D01*
X150804666Y-48363190D01*
X150423714Y-48363190D01*
X151947523Y-48839380D02*
X151376095Y-48839380D01*
X151661809Y-48839380D02*
X151661809Y-47839380D01*
X151566571Y-47982238D01*
X151471333Y-48077476D01*
X151376095Y-48125095D01*
X152804666Y-47839380D02*
X152614190Y-47839380D01*
X152518952Y-47887000D01*
X152471333Y-47934619D01*
X152376095Y-48077476D01*
X152328476Y-48267952D01*
X152328476Y-48648904D01*
X152376095Y-48744142D01*
X152423714Y-48791761D01*
X152518952Y-48839380D01*
X152709428Y-48839380D01*
X152804666Y-48791761D01*
X152852285Y-48744142D01*
X152899904Y-48648904D01*
X152899904Y-48410809D01*
X152852285Y-48315571D01*
X152804666Y-48267952D01*
X152709428Y-48220333D01*
X152518952Y-48220333D01*
X152423714Y-48267952D01*
X152376095Y-48315571D01*
X152328476Y-48410809D01*
X150677642Y-54998880D02*
X150344309Y-54522690D01*
X150106214Y-54998880D02*
X150106214Y-53998880D01*
X150487166Y-53998880D01*
X150582404Y-54046500D01*
X150630023Y-54094119D01*
X150677642Y-54189357D01*
X150677642Y-54332214D01*
X150630023Y-54427452D01*
X150582404Y-54475071D01*
X150487166Y-54522690D01*
X150106214Y-54522690D01*
X151630023Y-54998880D02*
X151058595Y-54998880D01*
X151344309Y-54998880D02*
X151344309Y-53998880D01*
X151249071Y-54141738D01*
X151153833Y-54236976D01*
X151058595Y-54284595D01*
X151963357Y-53998880D02*
X152630023Y-53998880D01*
X152201452Y-54998880D01*
X171757142Y-83052380D02*
X171423809Y-82576190D01*
X171185714Y-83052380D02*
X171185714Y-82052380D01*
X171566666Y-82052380D01*
X171661904Y-82100000D01*
X171709523Y-82147619D01*
X171757142Y-82242857D01*
X171757142Y-82385714D01*
X171709523Y-82480952D01*
X171661904Y-82528571D01*
X171566666Y-82576190D01*
X171185714Y-82576190D01*
X172709523Y-83052380D02*
X172138095Y-83052380D01*
X172423809Y-83052380D02*
X172423809Y-82052380D01*
X172328571Y-82195238D01*
X172233333Y-82290476D01*
X172138095Y-82338095D01*
X173280952Y-82480952D02*
X173185714Y-82433333D01*
X173138095Y-82385714D01*
X173090476Y-82290476D01*
X173090476Y-82242857D01*
X173138095Y-82147619D01*
X173185714Y-82100000D01*
X173280952Y-82052380D01*
X173471428Y-82052380D01*
X173566666Y-82100000D01*
X173614285Y-82147619D01*
X173661904Y-82242857D01*
X173661904Y-82290476D01*
X173614285Y-82385714D01*
X173566666Y-82433333D01*
X173471428Y-82480952D01*
X173280952Y-82480952D01*
X173185714Y-82528571D01*
X173138095Y-82576190D01*
X173090476Y-82671428D01*
X173090476Y-82861904D01*
X173138095Y-82957142D01*
X173185714Y-83004761D01*
X173280952Y-83052380D01*
X173471428Y-83052380D01*
X173566666Y-83004761D01*
X173614285Y-82957142D01*
X173661904Y-82861904D01*
X173661904Y-82671428D01*
X173614285Y-82576190D01*
X173566666Y-82528571D01*
X173471428Y-82480952D01*
X104005142Y-80637880D02*
X103671809Y-80161690D01*
X103433714Y-80637880D02*
X103433714Y-79637880D01*
X103814666Y-79637880D01*
X103909904Y-79685500D01*
X103957523Y-79733119D01*
X104005142Y-79828357D01*
X104005142Y-79971214D01*
X103957523Y-80066452D01*
X103909904Y-80114071D01*
X103814666Y-80161690D01*
X103433714Y-80161690D01*
X104957523Y-80637880D02*
X104386095Y-80637880D01*
X104671809Y-80637880D02*
X104671809Y-79637880D01*
X104576571Y-79780738D01*
X104481333Y-79875976D01*
X104386095Y-79923595D01*
X105433714Y-80637880D02*
X105624190Y-80637880D01*
X105719428Y-80590261D01*
X105767047Y-80542642D01*
X105862285Y-80399785D01*
X105909904Y-80209309D01*
X105909904Y-79828357D01*
X105862285Y-79733119D01*
X105814666Y-79685500D01*
X105719428Y-79637880D01*
X105528952Y-79637880D01*
X105433714Y-79685500D01*
X105386095Y-79733119D01*
X105338476Y-79828357D01*
X105338476Y-80066452D01*
X105386095Y-80161690D01*
X105433714Y-80209309D01*
X105528952Y-80256928D01*
X105719428Y-80256928D01*
X105814666Y-80209309D01*
X105862285Y-80161690D01*
X105909904Y-80066452D01*
X104857142Y-85772380D02*
X104523809Y-85296190D01*
X104285714Y-85772380D02*
X104285714Y-84772380D01*
X104666666Y-84772380D01*
X104761904Y-84820000D01*
X104809523Y-84867619D01*
X104857142Y-84962857D01*
X104857142Y-85105714D01*
X104809523Y-85200952D01*
X104761904Y-85248571D01*
X104666666Y-85296190D01*
X104285714Y-85296190D01*
X105238095Y-84867619D02*
X105285714Y-84820000D01*
X105380952Y-84772380D01*
X105619047Y-84772380D01*
X105714285Y-84820000D01*
X105761904Y-84867619D01*
X105809523Y-84962857D01*
X105809523Y-85058095D01*
X105761904Y-85200952D01*
X105190476Y-85772380D01*
X105809523Y-85772380D01*
X106428571Y-84772380D02*
X106523809Y-84772380D01*
X106619047Y-84820000D01*
X106666666Y-84867619D01*
X106714285Y-84962857D01*
X106761904Y-85153333D01*
X106761904Y-85391428D01*
X106714285Y-85581904D01*
X106666666Y-85677142D01*
X106619047Y-85724761D01*
X106523809Y-85772380D01*
X106428571Y-85772380D01*
X106333333Y-85724761D01*
X106285714Y-85677142D01*
X106238095Y-85581904D01*
X106190476Y-85391428D01*
X106190476Y-85153333D01*
X106238095Y-84962857D01*
X106285714Y-84867619D01*
X106333333Y-84820000D01*
X106428571Y-84772380D01*
X108663642Y-66460380D02*
X108330309Y-65984190D01*
X108092214Y-66460380D02*
X108092214Y-65460380D01*
X108473166Y-65460380D01*
X108568404Y-65508000D01*
X108616023Y-65555619D01*
X108663642Y-65650857D01*
X108663642Y-65793714D01*
X108616023Y-65888952D01*
X108568404Y-65936571D01*
X108473166Y-65984190D01*
X108092214Y-65984190D01*
X109044595Y-65555619D02*
X109092214Y-65508000D01*
X109187452Y-65460380D01*
X109425547Y-65460380D01*
X109520785Y-65508000D01*
X109568404Y-65555619D01*
X109616023Y-65650857D01*
X109616023Y-65746095D01*
X109568404Y-65888952D01*
X108996976Y-66460380D01*
X109616023Y-66460380D01*
X110568404Y-66460380D02*
X109996976Y-66460380D01*
X110282690Y-66460380D02*
X110282690Y-65460380D01*
X110187452Y-65603238D01*
X110092214Y-65698476D01*
X109996976Y-65746095D01*
X119515095Y-46601380D02*
X119515095Y-47410904D01*
X119562714Y-47506142D01*
X119610333Y-47553761D01*
X119705571Y-47601380D01*
X119896047Y-47601380D01*
X119991285Y-47553761D01*
X120038904Y-47506142D01*
X120086523Y-47410904D01*
X120086523Y-46601380D01*
X121086523Y-47601380D02*
X120515095Y-47601380D01*
X120800809Y-47601380D02*
X120800809Y-46601380D01*
X120705571Y-46744238D01*
X120610333Y-46839476D01*
X120515095Y-46887095D01*
X127901595Y-59917880D02*
X127901595Y-60727404D01*
X127949214Y-60822642D01*
X127996833Y-60870261D01*
X128092071Y-60917880D01*
X128282547Y-60917880D01*
X128377785Y-60870261D01*
X128425404Y-60822642D01*
X128473023Y-60727404D01*
X128473023Y-59917880D01*
X128901595Y-60013119D02*
X128949214Y-59965500D01*
X129044452Y-59917880D01*
X129282547Y-59917880D01*
X129377785Y-59965500D01*
X129425404Y-60013119D01*
X129473023Y-60108357D01*
X129473023Y-60203595D01*
X129425404Y-60346452D01*
X128853976Y-60917880D01*
X129473023Y-60917880D01*
X119144595Y-64290380D02*
X119144595Y-65099904D01*
X119192214Y-65195142D01*
X119239833Y-65242761D01*
X119335071Y-65290380D01*
X119525547Y-65290380D01*
X119620785Y-65242761D01*
X119668404Y-65195142D01*
X119716023Y-65099904D01*
X119716023Y-64290380D01*
X120620785Y-64623714D02*
X120620785Y-65290380D01*
X120382690Y-64242761D02*
X120144595Y-64957047D01*
X120763642Y-64957047D01*
X136048809Y-69445190D02*
X136048809Y-69921380D01*
X135715476Y-68921380D02*
X136048809Y-69445190D01*
X136382142Y-68921380D01*
X136667857Y-69016619D02*
X136715476Y-68969000D01*
X136810714Y-68921380D01*
X137048809Y-68921380D01*
X137144047Y-68969000D01*
X137191666Y-69016619D01*
X137239285Y-69111857D01*
X137239285Y-69207095D01*
X137191666Y-69349952D01*
X136620238Y-69921380D01*
X137239285Y-69921380D01*
X147192761Y-59348619D02*
X147097523Y-59301000D01*
X147002285Y-59205761D01*
X146859428Y-59062904D01*
X146764190Y-59015285D01*
X146668952Y-59015285D01*
X146716571Y-59253380D02*
X146621333Y-59205761D01*
X146526095Y-59110523D01*
X146478476Y-58920047D01*
X146478476Y-58586714D01*
X146526095Y-58396238D01*
X146621333Y-58301000D01*
X146716571Y-58253380D01*
X146907047Y-58253380D01*
X147002285Y-58301000D01*
X147097523Y-58396238D01*
X147145142Y-58586714D01*
X147145142Y-58920047D01*
X147097523Y-59110523D01*
X147002285Y-59205761D01*
X146907047Y-59253380D01*
X146716571Y-59253380D01*
X148097523Y-59253380D02*
X147526095Y-59253380D01*
X147811809Y-59253380D02*
X147811809Y-58253380D01*
X147716571Y-58396238D01*
X147621333Y-58491476D01*
X147526095Y-58539095D01*
X144049761Y-51220619D02*
X143954523Y-51173000D01*
X143859285Y-51077761D01*
X143716428Y-50934904D01*
X143621190Y-50887285D01*
X143525952Y-50887285D01*
X143573571Y-51125380D02*
X143478333Y-51077761D01*
X143383095Y-50982523D01*
X143335476Y-50792047D01*
X143335476Y-50458714D01*
X143383095Y-50268238D01*
X143478333Y-50173000D01*
X143573571Y-50125380D01*
X143764047Y-50125380D01*
X143859285Y-50173000D01*
X143954523Y-50268238D01*
X144002142Y-50458714D01*
X144002142Y-50792047D01*
X143954523Y-50982523D01*
X143859285Y-51077761D01*
X143764047Y-51125380D01*
X143573571Y-51125380D01*
X144383095Y-50220619D02*
X144430714Y-50173000D01*
X144525952Y-50125380D01*
X144764047Y-50125380D01*
X144859285Y-50173000D01*
X144906904Y-50220619D01*
X144954523Y-50315857D01*
X144954523Y-50411095D01*
X144906904Y-50553952D01*
X144335476Y-51125380D01*
X144954523Y-51125380D01*
X144430761Y-56808619D02*
X144335523Y-56761000D01*
X144240285Y-56665761D01*
X144097428Y-56522904D01*
X144002190Y-56475285D01*
X143906952Y-56475285D01*
X143954571Y-56713380D02*
X143859333Y-56665761D01*
X143764095Y-56570523D01*
X143716476Y-56380047D01*
X143716476Y-56046714D01*
X143764095Y-55856238D01*
X143859333Y-55761000D01*
X143954571Y-55713380D01*
X144145047Y-55713380D01*
X144240285Y-55761000D01*
X144335523Y-55856238D01*
X144383142Y-56046714D01*
X144383142Y-56380047D01*
X144335523Y-56570523D01*
X144240285Y-56665761D01*
X144145047Y-56713380D01*
X143954571Y-56713380D01*
X144716476Y-55713380D02*
X145335523Y-55713380D01*
X145002190Y-56094333D01*
X145145047Y-56094333D01*
X145240285Y-56141952D01*
X145287904Y-56189571D01*
X145335523Y-56284809D01*
X145335523Y-56522904D01*
X145287904Y-56618142D01*
X145240285Y-56665761D01*
X145145047Y-56713380D01*
X144859333Y-56713380D01*
X144764095Y-56665761D01*
X144716476Y-56618142D01*
M02*
