M48
; DRILL file {KiCad (5.1.5)-3} date 19/02/2020 20:56:29
; FORMAT={-:-/ absolute / inch / decimal}
; #@! TF.CreationDate,2020-02-19T20:56:29+00:00
; #@! TF.GenerationSoftware,Kicad,Pcbnew,(5.1.5)-3
; #@! TF.FileFunction,Plated,1,2,PTH
FMAT,2
INCH
T1C0.0157
T2C0.0394
T3C0.0512
%
G90
G05
T1
X4.0451Y-3.6201
X4.0871Y-3.3246
X4.2207Y-2.655
X4.2225Y-2.42
X4.2244Y-3.4843
X4.4724Y-3.0315
X4.5881Y-2.8755
X4.59Y-2.9525
X4.62Y-2.815
X4.6226Y-2.1349
X4.6275Y-2.185
X4.6489Y-1.8611
X4.7Y-2.27
X4.705Y-2.3175
X4.705Y-2.3675
X4.7125Y-2.8
X4.7165Y-2.5415
X4.7275Y-3.0625
X4.78Y-2.36
X4.82Y-2.248
X4.84Y-2.585
X4.92Y-2.6332
X4.965Y-2.6618
X5.0413Y-2.9823
X5.0656Y-2.7183
X5.0681Y-2.8705
X5.1725Y-2.985
X5.385Y-3.18
X5.3866Y-2.875
X5.3866Y-2.9525
X5.4151Y-2.8299
X5.4151Y-3.0224
X5.45Y-2.45
X5.4725Y-3.1825
X5.51Y-2.27
X5.5344Y-3.0606
X5.5425Y-2.685
X5.5488Y-2.7746
X5.55Y-2.815
X5.55Y-2.875
X5.554Y-2.7275
X5.5581Y-2.0649
X5.5775Y-2.6425
X5.5925Y-3.62
X5.6139Y-2.9314
X5.63Y-2.45
X5.64Y-2.6275
X5.661Y-3.136
X5.6625Y-3.0725
X5.6825Y-2.5975
X5.6937Y-2.7308
X5.6994Y-2.8841
X5.74Y-2.9075
X5.7425Y-2.0025
X5.7533Y-2.0717
X5.755Y-2.2175
X5.7633Y-1.8833
X5.8125Y-2.475
X5.8295Y-3.048
X5.8515Y-2.4435
X5.88Y-2.475
X5.8875Y-2.985
X5.92Y-2.3875
X5.93Y-2.945
X5.975Y-3.0475
X5.9785Y-3.1105
X5.99Y-2.67
X6.0175Y-2.7425
X6.0175Y-3.465
X6.08Y-2.625
X6.082Y-2.563
X6.1014Y-3.8361
X6.1065Y-2.7108
X6.12Y-2.785
X6.1775Y-2.995
X6.1909Y-3.5768
X6.265Y-2.935
X6.3125Y-3.2575
X6.7441Y-3.5039
X6.7446Y-3.4094
T2
X6.9291Y-2.9331
X6.9291Y-3.0331
X4.335Y-1.695
X4.435Y-1.695
X4.535Y-1.695
X4.075Y-1.895
X4.075Y-1.995
X4.075Y-2.095
X4.075Y-2.195
X4.075Y-2.295
X4.075Y-2.395
X4.075Y-2.495
X4.075Y-2.595
X4.3307Y-3.3563
X4.3307Y-3.4563
X4.3307Y-3.5563
X4.3307Y-3.6563
X4.3307Y-3.7563
X4.4307Y-3.3563
X4.4307Y-3.4563
X4.4307Y-3.5563
X4.4307Y-3.6563
X4.4307Y-3.7563
X6.4925Y-1.6875
X6.5925Y-1.6875
X6.6925Y-1.6875
X5.225Y-1.7125
X5.325Y-1.7125
X5.425Y-1.7125
X5.525Y-1.7125
X6.939Y-3.4154
X6.939Y-3.5154
X4.0748Y-2.761
X4.0748Y-2.861
X4.0748Y-2.961
X4.0748Y-3.061
X5.6925Y-1.7125
X5.7925Y-1.7125
T3
X6.1975Y-2.1675
X6.2762Y-1.9313
X6.2762Y-2.4037
X6.7566Y-1.9313
X6.7566Y-2.4037
T0
M30
