G04 EAGLE Gerber RS-274X export*
G75*
%MOMM*%
%FSLAX34Y34*%
%LPD*%
%INSilkscreen Top*%
%IPPOS*%
%AMOC8*
5,1,8,0,0,1.08239X$1,22.5*%
G01*
%ADD10C,0.152400*%
%ADD11C,0.101600*%
%ADD12C,0.127000*%
%ADD13C,0.203200*%
%ADD14R,0.300000X0.150000*%
%ADD15R,0.300000X0.300000*%
%ADD16C,0.552200*%


D10*
X245274Y36732D02*
X250697Y36732D01*
X253409Y39444D01*
X253409Y44867D01*
X250697Y47579D01*
X245274Y47579D01*
X242562Y44867D01*
X242562Y39444D01*
X245274Y36732D01*
X258934Y31309D02*
X258934Y47579D01*
X267069Y47579D01*
X269780Y44867D01*
X269780Y39444D01*
X267069Y36732D01*
X258934Y36732D01*
X278017Y36732D02*
X283440Y36732D01*
X278017Y36732D02*
X275305Y39444D01*
X275305Y44867D01*
X278017Y47579D01*
X283440Y47579D01*
X286152Y44867D01*
X286152Y42155D01*
X275305Y42155D01*
X291677Y36732D02*
X291677Y47579D01*
X299812Y47579D01*
X302523Y44867D01*
X302523Y36732D01*
X308048Y47579D02*
X310760Y47579D01*
X310760Y36732D01*
X308048Y36732D02*
X313472Y36732D01*
X310760Y53002D02*
X310760Y55714D01*
X318963Y47579D02*
X318963Y36732D01*
X318963Y47579D02*
X327098Y47579D01*
X329809Y44867D01*
X329809Y36732D01*
X340757Y36732D02*
X335334Y47579D01*
X346181Y47579D02*
X340757Y36732D01*
X354417Y36732D02*
X359841Y36732D01*
X354417Y36732D02*
X351706Y39444D01*
X351706Y44867D01*
X354417Y47579D01*
X359841Y47579D01*
X362552Y44867D01*
X362552Y42155D01*
X351706Y42155D01*
X368077Y36732D02*
X368077Y47579D01*
X368077Y42155D02*
X373501Y47579D01*
X376212Y47579D01*
X384432Y50290D02*
X384432Y39444D01*
X387144Y36732D01*
X387144Y47579D02*
X381720Y47579D01*
X395346Y36732D02*
X400770Y36732D01*
X395346Y36732D02*
X392635Y39444D01*
X392635Y44867D01*
X395346Y47579D01*
X400770Y47579D01*
X403481Y44867D01*
X403481Y42155D01*
X392635Y42155D01*
X409006Y36732D02*
X409006Y47579D01*
X409006Y42155D02*
X414430Y47579D01*
X417141Y47579D01*
X422649Y39444D02*
X422649Y36732D01*
X422649Y39444D02*
X425361Y39444D01*
X425361Y36732D01*
X422649Y36732D01*
X433547Y36732D02*
X438970Y36732D01*
X441682Y39444D01*
X441682Y44867D01*
X438970Y47579D01*
X433547Y47579D01*
X430835Y44867D01*
X430835Y39444D01*
X433547Y36732D01*
X447207Y36732D02*
X447207Y47579D01*
X452630Y47579D02*
X447207Y42155D01*
X452630Y47579D02*
X455341Y47579D01*
X466273Y31309D02*
X468984Y31309D01*
X471696Y34020D01*
X471696Y47579D01*
X463561Y47579D01*
X460850Y44867D01*
X460850Y39444D01*
X463561Y36732D01*
X471696Y36732D01*
X493593Y36732D02*
X493593Y53002D01*
X501728Y53002D01*
X504439Y50290D01*
X504439Y47579D01*
X501728Y44867D01*
X504439Y42155D01*
X504439Y39444D01*
X501728Y36732D01*
X493593Y36732D01*
X493593Y44867D02*
X501728Y44867D01*
X509964Y36732D02*
X509964Y53002D01*
X515387Y47579D01*
X520811Y53002D01*
X520811Y36732D01*
X534471Y53002D02*
X537182Y50290D01*
X534471Y53002D02*
X529047Y53002D01*
X526336Y50290D01*
X526336Y47579D01*
X529047Y44867D01*
X534471Y44867D01*
X537182Y42155D01*
X537182Y39444D01*
X534471Y36732D01*
X529047Y36732D01*
X526336Y39444D01*
X559079Y36732D02*
X564502Y36732D01*
X561791Y36732D02*
X561791Y53002D01*
X564502Y53002D02*
X559079Y53002D01*
X569993Y36732D02*
X578128Y36732D01*
X580840Y39444D01*
X578128Y42155D01*
X572705Y42155D01*
X569993Y44867D01*
X572705Y47579D01*
X580840Y47579D01*
X589076Y36732D02*
X594500Y36732D01*
X597211Y39444D01*
X597211Y44867D01*
X594500Y47579D01*
X589076Y47579D01*
X586365Y44867D01*
X586365Y39444D01*
X589076Y36732D01*
X602736Y53002D02*
X605448Y53002D01*
X605448Y36732D01*
X602736Y36732D02*
X608160Y36732D01*
X616362Y47579D02*
X621786Y47579D01*
X624497Y44867D01*
X624497Y36732D01*
X616362Y36732D01*
X613651Y39444D01*
X616362Y42155D01*
X624497Y42155D01*
X632734Y39444D02*
X632734Y50290D01*
X632734Y39444D02*
X635446Y36732D01*
X635446Y47579D02*
X630022Y47579D01*
X643648Y36732D02*
X649072Y36732D01*
X651783Y39444D01*
X651783Y44867D01*
X649072Y47579D01*
X643648Y47579D01*
X640937Y44867D01*
X640937Y39444D01*
X643648Y36732D01*
X657308Y36732D02*
X657308Y47579D01*
X657308Y42155D02*
X662732Y47579D01*
X665443Y47579D01*
X247985Y10062D02*
X242562Y15485D01*
X242562Y20909D01*
X247985Y26332D01*
X256188Y20909D02*
X264323Y20909D01*
X256188Y20909D02*
X253476Y18197D01*
X253476Y12774D01*
X256188Y10062D01*
X264323Y10062D01*
X269848Y10062D02*
X275271Y15485D01*
X275271Y20909D01*
X269848Y26332D01*
X297134Y10062D02*
X307980Y10062D01*
X297134Y10062D02*
X307980Y20909D01*
X307980Y23620D01*
X305269Y26332D01*
X299846Y26332D01*
X297134Y23620D01*
X313505Y23620D02*
X313505Y12774D01*
X313505Y23620D02*
X316217Y26332D01*
X321640Y26332D01*
X324352Y23620D01*
X324352Y12774D01*
X321640Y10062D01*
X316217Y10062D01*
X313505Y12774D01*
X324352Y23620D01*
X329877Y20909D02*
X335300Y26332D01*
X335300Y10062D01*
X329877Y10062D02*
X340724Y10062D01*
X346249Y12774D02*
X348960Y10062D01*
X354384Y10062D01*
X357095Y12774D01*
X357095Y23620D01*
X354384Y26332D01*
X348960Y26332D01*
X346249Y23620D01*
X346249Y20909D01*
X348960Y18197D01*
X357095Y18197D01*
X378992Y12774D02*
X381703Y10062D01*
X384415Y10062D01*
X387127Y12774D01*
X387127Y26332D01*
X389838Y26332D02*
X384415Y26332D01*
X398075Y10062D02*
X403498Y10062D01*
X406210Y12774D01*
X406210Y18197D01*
X403498Y20909D01*
X398075Y20909D01*
X395363Y18197D01*
X395363Y12774D01*
X398075Y10062D01*
X411735Y10062D02*
X411735Y26332D01*
X414446Y20909D02*
X411735Y18197D01*
X414446Y20909D02*
X419870Y20909D01*
X422581Y18197D01*
X422581Y10062D01*
X430818Y20909D02*
X436241Y20909D01*
X438953Y18197D01*
X438953Y10062D01*
X430818Y10062D01*
X428106Y12774D01*
X430818Y15485D01*
X438953Y15485D01*
X444478Y10062D02*
X444478Y20909D01*
X452613Y20909D01*
X455325Y18197D01*
X455325Y10062D01*
X460850Y10062D02*
X460850Y20909D01*
X468984Y20909D01*
X471696Y18197D01*
X471696Y10062D01*
X479933Y10062D02*
X485356Y10062D01*
X479933Y10062D02*
X477221Y12774D01*
X477221Y18197D01*
X479933Y20909D01*
X485356Y20909D01*
X488068Y18197D01*
X488068Y15485D01*
X477221Y15485D01*
X493593Y10062D02*
X501728Y10062D01*
X504439Y12774D01*
X501728Y15485D01*
X496304Y15485D01*
X493593Y18197D01*
X496304Y20909D01*
X504439Y20909D01*
X526336Y26332D02*
X526336Y10062D01*
X526336Y18197D02*
X537182Y18197D01*
X537182Y26332D02*
X537182Y10062D01*
X542707Y12774D02*
X542707Y20909D01*
X542707Y12774D02*
X545419Y10062D01*
X553554Y10062D01*
X553554Y20909D01*
X561791Y10062D02*
X567214Y10062D01*
X561791Y10062D02*
X559079Y12774D01*
X559079Y18197D01*
X561791Y20909D01*
X567214Y20909D01*
X569925Y18197D01*
X569925Y15485D01*
X559079Y15485D01*
X575450Y10062D02*
X575450Y26332D01*
X575450Y10062D02*
X583585Y10062D01*
X586297Y12774D01*
X586297Y18197D01*
X583585Y20909D01*
X575450Y20909D01*
X591822Y20909D02*
X591822Y10062D01*
X591822Y20909D02*
X599957Y20909D01*
X602669Y18197D01*
X602669Y10062D01*
X610905Y10062D02*
X616329Y10062D01*
X610905Y10062D02*
X608194Y12774D01*
X608194Y18197D01*
X610905Y20909D01*
X616329Y20909D01*
X619040Y18197D01*
X619040Y15485D01*
X608194Y15485D01*
X624565Y10062D02*
X624565Y20909D01*
X629988Y20909D02*
X624565Y15485D01*
X629988Y20909D02*
X632700Y20909D01*
X770368Y250697D02*
X773080Y253409D01*
X770368Y250697D02*
X770368Y245274D01*
X773080Y242562D01*
X783926Y242562D01*
X786638Y245274D01*
X786638Y250697D01*
X783926Y253409D01*
X770368Y261645D02*
X770368Y267069D01*
X770368Y261645D02*
X773080Y258934D01*
X783926Y258934D01*
X786638Y261645D01*
X786638Y267069D01*
X783926Y269780D01*
X773080Y269780D01*
X770368Y267069D01*
X770368Y275305D02*
X786638Y275305D01*
X775791Y280728D02*
X770368Y275305D01*
X775791Y280728D02*
X770368Y286152D01*
X786638Y286152D01*
X786638Y308048D02*
X770368Y308048D01*
X770368Y316183D01*
X773080Y318895D01*
X775791Y318895D01*
X778503Y316183D01*
X781215Y318895D01*
X783926Y318895D01*
X786638Y316183D01*
X786638Y308048D01*
X778503Y308048D02*
X778503Y316183D01*
X778503Y324420D02*
X778503Y335266D01*
X773080Y329843D02*
X783926Y329843D01*
X786638Y75162D02*
X770368Y75162D01*
X770368Y83297D01*
X773080Y86009D01*
X775791Y86009D01*
X778503Y83297D01*
X781215Y86009D01*
X783926Y86009D01*
X786638Y83297D01*
X786638Y75162D01*
X778503Y75162D02*
X778503Y83297D01*
X778503Y91534D02*
X778503Y102380D01*
X773080Y96957D02*
X783926Y96957D01*
X770368Y132412D02*
X773080Y135123D01*
X770368Y132412D02*
X770368Y126988D01*
X773080Y124277D01*
X783926Y124277D01*
X786638Y126988D01*
X786638Y132412D01*
X783926Y135123D01*
X770368Y143360D02*
X770368Y148783D01*
X770368Y143360D02*
X773080Y140648D01*
X783926Y140648D01*
X786638Y143360D01*
X786638Y148783D01*
X783926Y151495D01*
X773080Y151495D01*
X770368Y148783D01*
X770368Y157020D02*
X786638Y157020D01*
X775791Y162443D02*
X770368Y157020D01*
X775791Y162443D02*
X770368Y167866D01*
X786638Y167866D01*
X524662Y387485D02*
X524662Y398332D01*
X524662Y387485D02*
X530085Y382062D01*
X535509Y387485D01*
X535509Y398332D01*
X543745Y382062D02*
X549169Y382062D01*
X543745Y382062D02*
X541034Y384774D01*
X541034Y390197D01*
X543745Y392909D01*
X549169Y392909D01*
X551880Y390197D01*
X551880Y387485D01*
X541034Y387485D01*
X557405Y382062D02*
X557405Y392909D01*
X562828Y392909D02*
X557405Y387485D01*
X562828Y392909D02*
X565540Y392909D01*
X571048Y382062D02*
X579183Y382062D01*
X581895Y384774D01*
X579183Y387485D01*
X573760Y387485D01*
X571048Y390197D01*
X573760Y392909D01*
X581895Y392909D01*
X587420Y392909D02*
X590131Y392909D01*
X590131Y382062D01*
X587420Y382062D02*
X592843Y382062D01*
X590131Y398332D02*
X590131Y401044D01*
X601046Y382062D02*
X606469Y382062D01*
X609181Y384774D01*
X609181Y390197D01*
X606469Y392909D01*
X601046Y392909D01*
X598334Y390197D01*
X598334Y384774D01*
X601046Y382062D01*
X614706Y382062D02*
X614706Y392909D01*
X622841Y392909D01*
X625552Y390197D01*
X625552Y382062D01*
X647449Y382062D02*
X658295Y382062D01*
X647449Y382062D02*
X658295Y392909D01*
X658295Y395620D01*
X655584Y398332D01*
X650160Y398332D01*
X647449Y395620D01*
X663820Y384774D02*
X663820Y382062D01*
X663820Y384774D02*
X666532Y384774D01*
X666532Y382062D01*
X663820Y382062D01*
X672006Y384774D02*
X672006Y395620D01*
X674718Y398332D01*
X680141Y398332D01*
X682853Y395620D01*
X682853Y384774D01*
X680141Y382062D01*
X674718Y382062D01*
X672006Y384774D01*
X682853Y395620D01*
X334250Y237850D02*
X264150Y237850D01*
X334250Y237850D02*
X334250Y167750D01*
X267700Y167750D01*
X264150Y171300D02*
X264150Y237850D01*
X264150Y171300D02*
X267700Y167750D01*
X268176Y175368D02*
X268178Y175487D01*
X268184Y175607D01*
X268194Y175726D01*
X268208Y175844D01*
X268226Y175962D01*
X268247Y176080D01*
X268273Y176196D01*
X268302Y176312D01*
X268336Y176427D01*
X268373Y176540D01*
X268414Y176652D01*
X268458Y176763D01*
X268506Y176873D01*
X268558Y176980D01*
X268613Y177086D01*
X268672Y177190D01*
X268735Y177292D01*
X268800Y177391D01*
X268869Y177489D01*
X268941Y177584D01*
X269016Y177677D01*
X269095Y177767D01*
X269176Y177855D01*
X269260Y177939D01*
X269347Y178021D01*
X269436Y178100D01*
X269528Y178176D01*
X269623Y178249D01*
X269720Y178319D01*
X269819Y178385D01*
X269921Y178448D01*
X270024Y178508D01*
X270129Y178564D01*
X270236Y178617D01*
X270345Y178666D01*
X270456Y178712D01*
X270568Y178753D01*
X270681Y178791D01*
X270795Y178826D01*
X270911Y178856D01*
X271027Y178883D01*
X271144Y178905D01*
X271262Y178924D01*
X271381Y178939D01*
X271500Y178950D01*
X271619Y178957D01*
X271738Y178960D01*
X271858Y178959D01*
X271977Y178954D01*
X272096Y178945D01*
X272215Y178932D01*
X272333Y178915D01*
X272450Y178895D01*
X272567Y178870D01*
X272683Y178841D01*
X272798Y178809D01*
X272912Y178773D01*
X273025Y178733D01*
X273136Y178689D01*
X273245Y178642D01*
X273353Y178591D01*
X273460Y178537D01*
X273564Y178479D01*
X273666Y178417D01*
X273767Y178353D01*
X273865Y178284D01*
X273961Y178213D01*
X274054Y178139D01*
X274145Y178061D01*
X274233Y177981D01*
X274318Y177897D01*
X274401Y177811D01*
X274481Y177722D01*
X274558Y177631D01*
X274631Y177537D01*
X274702Y177440D01*
X274769Y177342D01*
X274833Y177241D01*
X274894Y177138D01*
X274951Y177033D01*
X275004Y176927D01*
X275054Y176818D01*
X275101Y176708D01*
X275143Y176597D01*
X275182Y176484D01*
X275218Y176370D01*
X275249Y176254D01*
X275276Y176138D01*
X275300Y176021D01*
X275320Y175903D01*
X275336Y175785D01*
X275348Y175666D01*
X275356Y175547D01*
X275360Y175428D01*
X275360Y175308D01*
X275356Y175189D01*
X275348Y175070D01*
X275336Y174951D01*
X275320Y174833D01*
X275300Y174715D01*
X275276Y174598D01*
X275249Y174482D01*
X275218Y174366D01*
X275182Y174252D01*
X275143Y174139D01*
X275101Y174028D01*
X275054Y173918D01*
X275004Y173809D01*
X274951Y173703D01*
X274894Y173598D01*
X274833Y173495D01*
X274769Y173394D01*
X274702Y173296D01*
X274631Y173199D01*
X274558Y173105D01*
X274481Y173014D01*
X274401Y172925D01*
X274318Y172839D01*
X274233Y172755D01*
X274145Y172675D01*
X274054Y172597D01*
X273961Y172523D01*
X273865Y172452D01*
X273767Y172383D01*
X273666Y172319D01*
X273564Y172257D01*
X273460Y172199D01*
X273353Y172145D01*
X273245Y172094D01*
X273136Y172047D01*
X273025Y172003D01*
X272912Y171963D01*
X272798Y171927D01*
X272683Y171895D01*
X272567Y171866D01*
X272450Y171841D01*
X272333Y171821D01*
X272215Y171804D01*
X272096Y171791D01*
X271977Y171782D01*
X271858Y171777D01*
X271738Y171776D01*
X271619Y171779D01*
X271500Y171786D01*
X271381Y171797D01*
X271262Y171812D01*
X271144Y171831D01*
X271027Y171853D01*
X270911Y171880D01*
X270795Y171910D01*
X270681Y171945D01*
X270568Y171983D01*
X270456Y172024D01*
X270345Y172070D01*
X270236Y172119D01*
X270129Y172172D01*
X270024Y172228D01*
X269921Y172288D01*
X269819Y172351D01*
X269720Y172417D01*
X269623Y172487D01*
X269528Y172560D01*
X269436Y172636D01*
X269347Y172715D01*
X269260Y172797D01*
X269176Y172881D01*
X269095Y172969D01*
X269016Y173059D01*
X268941Y173152D01*
X268869Y173247D01*
X268800Y173345D01*
X268735Y173444D01*
X268672Y173546D01*
X268613Y173650D01*
X268558Y173756D01*
X268506Y173863D01*
X268458Y173973D01*
X268414Y174084D01*
X268373Y174196D01*
X268336Y174309D01*
X268302Y174424D01*
X268273Y174540D01*
X268247Y174656D01*
X268226Y174774D01*
X268208Y174892D01*
X268194Y175010D01*
X268184Y175129D01*
X268178Y175249D01*
X268176Y175368D01*
D11*
X266208Y259008D02*
X262310Y259008D01*
X264259Y259008D02*
X264259Y270702D01*
X262310Y270702D02*
X266208Y270702D01*
X275953Y270702D02*
X277902Y268753D01*
X275953Y270702D02*
X272055Y270702D01*
X270106Y268753D01*
X270106Y260957D01*
X272055Y259008D01*
X275953Y259008D01*
X277902Y260957D01*
X281800Y266804D02*
X285698Y270702D01*
X285698Y259008D01*
X281800Y259008D02*
X289596Y259008D01*
X418568Y224852D02*
X418568Y213158D01*
X414670Y224852D02*
X422466Y224852D01*
X426364Y222903D02*
X428313Y224852D01*
X432211Y224852D01*
X434160Y222903D01*
X434160Y220954D01*
X432211Y219005D01*
X430262Y219005D01*
X432211Y219005D02*
X434160Y217056D01*
X434160Y215107D01*
X432211Y213158D01*
X428313Y213158D01*
X426364Y215107D01*
D10*
X320950Y340400D02*
X314600Y346750D01*
X333650Y340400D02*
X340000Y346750D01*
X346350Y340400D01*
X359050Y340400D02*
X365400Y346750D01*
X371750Y340400D01*
X384450Y340400D02*
X390800Y346750D01*
X397150Y340400D01*
X409850Y340400D02*
X416200Y346750D01*
X314600Y346750D02*
X314600Y384850D01*
X320950Y391200D01*
X333650Y391200D01*
X340000Y384850D01*
X346350Y391200D01*
X359050Y391200D01*
X365400Y384850D01*
X371750Y391200D01*
X384450Y391200D01*
X390800Y384850D01*
X397150Y391200D01*
X409850Y391200D01*
X416200Y384850D01*
X340000Y384850D02*
X340000Y346750D01*
X365400Y346750D02*
X365400Y384850D01*
X390800Y384850D02*
X390800Y346750D01*
X416200Y346750D02*
X416200Y384850D01*
X409850Y340400D02*
X397150Y340400D01*
X384450Y340400D02*
X371750Y340400D01*
X359050Y340400D02*
X346350Y340400D01*
X333650Y340400D02*
X320950Y340400D01*
X416200Y346750D02*
X422550Y340400D01*
X435250Y340400D02*
X441600Y346750D01*
X416200Y384850D02*
X422550Y391200D01*
X435250Y391200D01*
X441600Y384850D01*
X441600Y346750D01*
X435250Y340400D02*
X422550Y340400D01*
D12*
X317142Y398185D02*
X315235Y400092D01*
X317142Y398185D02*
X319048Y398185D01*
X320955Y400092D01*
X320955Y409625D01*
X319048Y409625D02*
X322862Y409625D01*
X326929Y409625D02*
X326929Y398185D01*
X326929Y409625D02*
X332649Y409625D01*
X334555Y407718D01*
X334555Y403905D01*
X332649Y401998D01*
X326929Y401998D01*
X338623Y405812D02*
X342436Y409625D01*
X342436Y398185D01*
X338623Y398185D02*
X346249Y398185D01*
D13*
X163500Y202800D02*
X163500Y50400D01*
X163500Y202800D02*
X33500Y202800D01*
X33500Y50400D01*
X163500Y50400D01*
D10*
X204270Y321020D02*
X240330Y321020D01*
X240330Y273780D02*
X204270Y273780D01*
D13*
X230770Y279366D02*
X230772Y279441D01*
X230778Y279516D01*
X230788Y279591D01*
X230801Y279665D01*
X230819Y279738D01*
X230840Y279810D01*
X230865Y279881D01*
X230894Y279950D01*
X230927Y280018D01*
X230962Y280084D01*
X231002Y280148D01*
X231044Y280210D01*
X231090Y280270D01*
X231139Y280327D01*
X231191Y280381D01*
X231245Y280433D01*
X231302Y280482D01*
X231362Y280528D01*
X231424Y280570D01*
X231488Y280610D01*
X231554Y280645D01*
X231622Y280678D01*
X231691Y280707D01*
X231762Y280732D01*
X231834Y280753D01*
X231907Y280771D01*
X231981Y280784D01*
X232056Y280794D01*
X232131Y280800D01*
X232206Y280802D01*
X232281Y280800D01*
X232356Y280794D01*
X232431Y280784D01*
X232505Y280771D01*
X232578Y280753D01*
X232650Y280732D01*
X232721Y280707D01*
X232790Y280678D01*
X232858Y280645D01*
X232924Y280610D01*
X232988Y280570D01*
X233050Y280528D01*
X233110Y280482D01*
X233167Y280433D01*
X233221Y280381D01*
X233273Y280327D01*
X233322Y280270D01*
X233368Y280210D01*
X233410Y280148D01*
X233450Y280084D01*
X233485Y280018D01*
X233518Y279950D01*
X233547Y279881D01*
X233572Y279810D01*
X233593Y279738D01*
X233611Y279665D01*
X233624Y279591D01*
X233634Y279516D01*
X233640Y279441D01*
X233642Y279366D01*
X233640Y279291D01*
X233634Y279216D01*
X233624Y279141D01*
X233611Y279067D01*
X233593Y278994D01*
X233572Y278922D01*
X233547Y278851D01*
X233518Y278782D01*
X233485Y278714D01*
X233450Y278648D01*
X233410Y278584D01*
X233368Y278522D01*
X233322Y278462D01*
X233273Y278405D01*
X233221Y278351D01*
X233167Y278299D01*
X233110Y278250D01*
X233050Y278204D01*
X232988Y278162D01*
X232924Y278122D01*
X232858Y278087D01*
X232790Y278054D01*
X232721Y278025D01*
X232650Y278000D01*
X232578Y277979D01*
X232505Y277961D01*
X232431Y277948D01*
X232356Y277938D01*
X232281Y277932D01*
X232206Y277930D01*
X232131Y277932D01*
X232056Y277938D01*
X231981Y277948D01*
X231907Y277961D01*
X231834Y277979D01*
X231762Y278000D01*
X231691Y278025D01*
X231622Y278054D01*
X231554Y278087D01*
X231488Y278122D01*
X231424Y278162D01*
X231362Y278204D01*
X231302Y278250D01*
X231245Y278299D01*
X231191Y278351D01*
X231139Y278405D01*
X231090Y278462D01*
X231044Y278522D01*
X231002Y278584D01*
X230962Y278648D01*
X230927Y278714D01*
X230894Y278782D01*
X230865Y278851D01*
X230840Y278922D01*
X230819Y278994D01*
X230801Y279067D01*
X230788Y279141D01*
X230778Y279216D01*
X230772Y279291D01*
X230770Y279366D01*
D11*
X206822Y328008D02*
X202924Y328008D01*
X204873Y328008D02*
X204873Y339702D01*
X202924Y339702D02*
X206822Y339702D01*
X216567Y339702D02*
X218516Y337753D01*
X216567Y339702D02*
X212669Y339702D01*
X210720Y337753D01*
X210720Y329957D01*
X212669Y328008D01*
X216567Y328008D01*
X218516Y329957D01*
X222414Y328008D02*
X230210Y328008D01*
X222414Y328008D02*
X230210Y335804D01*
X230210Y337753D01*
X228261Y339702D01*
X224363Y339702D01*
X222414Y337753D01*
D14*
X42700Y383100D03*
X42700Y395100D03*
D15*
X42700Y389100D03*
D11*
X15254Y399812D02*
X15254Y411506D01*
X21101Y411506D01*
X23050Y409557D01*
X23050Y405659D01*
X21101Y403710D01*
X15254Y403710D01*
X28897Y411506D02*
X32795Y411506D01*
X28897Y411506D02*
X26948Y409557D01*
X26948Y401761D01*
X28897Y399812D01*
X32795Y399812D01*
X34744Y401761D01*
X34744Y409557D01*
X32795Y411506D01*
X38642Y411506D02*
X38642Y399812D01*
X42540Y403710D01*
X46438Y399812D01*
X46438Y411506D01*
X50336Y411506D02*
X58132Y411506D01*
X50336Y411506D02*
X50336Y399812D01*
X58132Y399812D01*
X54234Y405659D02*
X50336Y405659D01*
X62030Y399812D02*
X62030Y411506D01*
X67877Y411506D01*
X69826Y409557D01*
X69826Y405659D01*
X67877Y403710D01*
X62030Y403710D01*
X65928Y403710D02*
X69826Y399812D01*
D14*
X43800Y21000D03*
X43800Y33000D03*
D15*
X43800Y27000D03*
D11*
X76002Y33236D02*
X77951Y31287D01*
X76002Y33236D02*
X72104Y33236D01*
X70155Y31287D01*
X70155Y29338D01*
X72104Y27389D01*
X76002Y27389D01*
X77951Y25440D01*
X77951Y23491D01*
X76002Y21542D01*
X72104Y21542D01*
X70155Y23491D01*
X85747Y21542D02*
X85747Y33236D01*
X81849Y33236D02*
X89645Y33236D01*
X93543Y29338D02*
X93543Y21542D01*
X93543Y29338D02*
X97441Y33236D01*
X101339Y29338D01*
X101339Y21542D01*
X101339Y27389D02*
X93543Y27389D01*
X109135Y21542D02*
X109135Y33236D01*
X105237Y33236D02*
X113033Y33236D01*
X116931Y33236D02*
X116931Y23491D01*
X118880Y21542D01*
X122778Y21542D01*
X124727Y23491D01*
X124727Y33236D01*
X134472Y33236D02*
X136421Y31287D01*
X134472Y33236D02*
X130574Y33236D01*
X128625Y31287D01*
X128625Y29338D01*
X130574Y27389D01*
X134472Y27389D01*
X136421Y25440D01*
X136421Y23491D01*
X134472Y21542D01*
X130574Y21542D01*
X128625Y23491D01*
X149308Y383708D02*
X149308Y395402D01*
X155155Y395402D01*
X157104Y393453D01*
X157104Y389555D01*
X155155Y387606D01*
X149308Y387606D01*
X153206Y387606D02*
X157104Y383708D01*
X161002Y395402D02*
X168798Y395402D01*
X161002Y395402D02*
X161002Y389555D01*
X164900Y391504D01*
X166849Y391504D01*
X168798Y389555D01*
X168798Y385657D01*
X166849Y383708D01*
X162951Y383708D01*
X161002Y385657D01*
X400920Y127502D02*
X400920Y115808D01*
X400920Y127502D02*
X406767Y127502D01*
X408716Y125553D01*
X408716Y121655D01*
X406767Y119706D01*
X400920Y119706D01*
X404818Y119706D02*
X408716Y115808D01*
X416512Y125553D02*
X420410Y127502D01*
X416512Y125553D02*
X412614Y121655D01*
X412614Y117757D01*
X414563Y115808D01*
X418461Y115808D01*
X420410Y117757D01*
X420410Y119706D01*
X418461Y121655D01*
X412614Y121655D01*
X315516Y319553D02*
X313567Y321502D01*
X309669Y321502D01*
X307720Y319553D01*
X307720Y311757D01*
X309669Y309808D01*
X313567Y309808D01*
X315516Y311757D01*
X319414Y319553D02*
X321363Y321502D01*
X325261Y321502D01*
X327210Y319553D01*
X327210Y317604D01*
X325261Y315655D01*
X323312Y315655D01*
X325261Y315655D02*
X327210Y313706D01*
X327210Y311757D01*
X325261Y309808D01*
X321363Y309808D01*
X319414Y311757D01*
D12*
X373900Y73500D02*
X373900Y64500D01*
X249900Y64500D01*
X249900Y73500D01*
X373900Y103500D02*
X373900Y112500D01*
X249900Y112500D01*
X249900Y103500D01*
D11*
X374967Y156002D02*
X376916Y154053D01*
X374967Y156002D02*
X371069Y156002D01*
X369120Y154053D01*
X369120Y146257D01*
X371069Y144308D01*
X374967Y144308D01*
X376916Y146257D01*
X380814Y152104D02*
X384712Y156002D01*
X384712Y144308D01*
X380814Y144308D02*
X388610Y144308D01*
X247416Y152753D02*
X245467Y154702D01*
X241569Y154702D01*
X239620Y152753D01*
X239620Y144957D01*
X241569Y143008D01*
X245467Y143008D01*
X247416Y144957D01*
X251314Y143008D02*
X259110Y143008D01*
X251314Y143008D02*
X259110Y150804D01*
X259110Y152753D01*
X257161Y154702D01*
X253263Y154702D01*
X251314Y152753D01*
D13*
X163500Y215600D02*
X163500Y368000D01*
X33500Y368000D01*
X33500Y215600D01*
X163500Y215600D01*
D11*
X360726Y275908D02*
X360726Y287602D01*
X366573Y287602D01*
X368522Y285653D01*
X368522Y281755D01*
X366573Y279806D01*
X360726Y279806D01*
X364624Y279806D02*
X368522Y275908D01*
X372420Y283704D02*
X376318Y287602D01*
X376318Y275908D01*
X372420Y275908D02*
X380216Y275908D01*
X384114Y277857D02*
X384114Y285653D01*
X386063Y287602D01*
X389961Y287602D01*
X391910Y285653D01*
X391910Y277857D01*
X389961Y275908D01*
X386063Y275908D01*
X384114Y277857D01*
X391910Y285653D01*
X185104Y257553D02*
X183155Y259502D01*
X179257Y259502D01*
X177308Y257553D01*
X177308Y249757D01*
X179257Y247808D01*
X183155Y247808D01*
X185104Y249757D01*
X194849Y247808D02*
X194849Y259502D01*
X189002Y253655D01*
X196798Y253655D01*
D10*
X512760Y232300D02*
X571200Y232300D01*
X512760Y232300D02*
X507600Y232300D01*
X571200Y232300D02*
X571200Y319750D01*
X507600Y319750D02*
X507600Y232300D01*
X507600Y319750D02*
X571200Y319750D01*
X512760Y318750D02*
X512760Y232300D01*
D16*
X519400Y310900D03*
D12*
X517105Y227175D02*
X513292Y227175D01*
X511385Y225268D01*
X511385Y217642D01*
X513292Y215735D01*
X517105Y215735D01*
X519012Y217642D01*
X519012Y225268D01*
X517105Y227175D01*
X523079Y227175D02*
X523079Y215735D01*
X523079Y219548D02*
X530705Y227175D01*
X524986Y221455D02*
X530705Y215735D01*
X534773Y223362D02*
X538586Y227175D01*
X538586Y215735D01*
X534773Y215735D02*
X542399Y215735D01*
D10*
X566040Y170700D02*
X507600Y170700D01*
X566040Y170700D02*
X571200Y170700D01*
X507600Y170700D02*
X507600Y83250D01*
X571200Y83250D02*
X571200Y170700D01*
X571200Y83250D02*
X507600Y83250D01*
X566040Y84250D02*
X566040Y170700D01*
D16*
X559400Y92100D03*
D12*
X517105Y78375D02*
X513292Y78375D01*
X511385Y76468D01*
X511385Y68842D01*
X513292Y66935D01*
X517105Y66935D01*
X519012Y68842D01*
X519012Y76468D01*
X517105Y78375D01*
X523079Y78375D02*
X523079Y66935D01*
X523079Y70748D02*
X530705Y78375D01*
X524986Y72655D02*
X530705Y66935D01*
X534773Y66935D02*
X542399Y66935D01*
X534773Y66935D02*
X542399Y74562D01*
X542399Y76468D01*
X540493Y78375D01*
X536680Y78375D01*
X534773Y76468D01*
D11*
X448620Y275808D02*
X448620Y287502D01*
X454467Y287502D01*
X456416Y285553D01*
X456416Y281655D01*
X454467Y279706D01*
X448620Y279706D01*
X452518Y279706D02*
X456416Y275808D01*
X460314Y283604D02*
X464212Y287502D01*
X464212Y275808D01*
X460314Y275808D02*
X468110Y275808D01*
X426320Y162302D02*
X426320Y150608D01*
X426320Y162302D02*
X432167Y162302D01*
X434116Y160353D01*
X434116Y156455D01*
X432167Y154506D01*
X426320Y154506D01*
X430218Y154506D02*
X434116Y150608D01*
X438014Y150608D02*
X445810Y150608D01*
X438014Y150608D02*
X445810Y158404D01*
X445810Y160353D01*
X443861Y162302D01*
X439963Y162302D01*
X438014Y160353D01*
X451108Y128402D02*
X451108Y116708D01*
X451108Y128402D02*
X456955Y128402D01*
X458904Y126453D01*
X458904Y122555D01*
X456955Y120606D01*
X451108Y120606D01*
X455006Y120606D02*
X458904Y116708D01*
X462802Y126453D02*
X464751Y128402D01*
X468649Y128402D01*
X470598Y126453D01*
X470598Y124504D01*
X468649Y122555D01*
X466700Y122555D01*
X468649Y122555D02*
X470598Y120606D01*
X470598Y118657D01*
X468649Y116708D01*
X464751Y116708D01*
X462802Y118657D01*
X617408Y352008D02*
X617408Y363702D01*
X623255Y363702D01*
X625204Y361753D01*
X625204Y357855D01*
X623255Y355906D01*
X617408Y355906D01*
X621306Y355906D02*
X625204Y352008D01*
X634949Y352008D02*
X634949Y363702D01*
X629102Y357855D01*
X636898Y357855D01*
D12*
X639700Y316900D02*
X753700Y316900D01*
X639700Y316900D02*
X639700Y235900D01*
X753700Y235900D01*
X753700Y316900D01*
D11*
X725473Y224602D02*
X721575Y224602D01*
X719626Y222653D01*
X719626Y214857D01*
X721575Y212908D01*
X725473Y212908D01*
X727422Y214857D01*
X727422Y222653D01*
X725473Y224602D01*
X731320Y224602D02*
X731320Y214857D01*
X733269Y212908D01*
X737167Y212908D01*
X739116Y214857D01*
X739116Y224602D01*
X746912Y224602D02*
X746912Y212908D01*
X743014Y224602D02*
X750810Y224602D01*
D12*
X753700Y158800D02*
X639700Y158800D01*
X639700Y77800D01*
X753700Y77800D01*
X753700Y158800D01*
D11*
X739116Y169508D02*
X735218Y169508D01*
X737167Y169508D02*
X737167Y181202D01*
X735218Y181202D02*
X739116Y181202D01*
X743014Y181202D02*
X743014Y169508D01*
X750810Y169508D02*
X743014Y181202D01*
X750810Y181202D02*
X750810Y169508D01*
X225600Y114000D02*
X180800Y114000D01*
X180800Y152400D02*
X225600Y152400D01*
X178458Y156008D02*
X178458Y167702D01*
X178458Y156008D02*
X184305Y156008D01*
X186254Y157957D01*
X186254Y165753D01*
X184305Y167702D01*
X178458Y167702D01*
X190152Y163804D02*
X194050Y167702D01*
X194050Y156008D01*
X190152Y156008D02*
X197948Y156008D01*
X180800Y69700D02*
X225600Y69700D01*
X225600Y108100D02*
X180800Y108100D01*
X178458Y67602D02*
X178458Y55908D01*
X184305Y55908D01*
X186254Y57857D01*
X186254Y65653D01*
X184305Y67602D01*
X178458Y67602D01*
X190152Y55908D02*
X197948Y55908D01*
X190152Y55908D02*
X197948Y63704D01*
X197948Y65653D01*
X195999Y67602D01*
X192101Y67602D01*
X190152Y65653D01*
X601298Y142455D02*
X603247Y144404D01*
X601298Y142455D02*
X601298Y138557D01*
X603247Y136608D01*
X611043Y136608D01*
X612992Y138557D01*
X612992Y142455D01*
X611043Y144404D01*
X601298Y148302D02*
X601298Y156098D01*
X601298Y148302D02*
X607145Y148302D01*
X605196Y152200D01*
X605196Y154149D01*
X607145Y156098D01*
X611043Y156098D01*
X612992Y154149D01*
X612992Y150251D01*
X611043Y148302D01*
D10*
X694700Y136850D02*
X694700Y124150D01*
X688350Y117800D01*
X675650Y117800D01*
X669300Y124150D01*
X675650Y143200D02*
X688350Y143200D01*
X694700Y136850D01*
X675650Y143200D02*
X669300Y136850D01*
X669300Y124150D01*
X688350Y117800D02*
X694700Y111450D01*
X694700Y98750D01*
X688350Y92400D01*
X675650Y92400D01*
X669300Y98750D01*
X669300Y111450D01*
X675650Y117800D01*
D12*
X710446Y109515D02*
X712353Y111422D01*
X712353Y113328D01*
X710446Y115235D01*
X700913Y115235D01*
X700913Y113328D02*
X700913Y117142D01*
X700913Y121209D02*
X712353Y121209D01*
X700913Y121209D02*
X700913Y126929D01*
X702820Y128836D01*
X706633Y128836D01*
X708540Y126929D01*
X708540Y121209D01*
X712353Y132903D02*
X712353Y140529D01*
X712353Y132903D02*
X704727Y140529D01*
X702820Y140529D01*
X700913Y138623D01*
X700913Y134810D01*
X702820Y132903D01*
D10*
X694700Y282250D02*
X694700Y294950D01*
X694700Y282250D02*
X688350Y275900D01*
X675650Y275900D01*
X669300Y282250D01*
X675650Y301300D02*
X688350Y301300D01*
X694700Y294950D01*
X675650Y301300D02*
X669300Y294950D01*
X669300Y282250D01*
X688350Y275900D02*
X694700Y269550D01*
X694700Y256850D01*
X688350Y250500D01*
X675650Y250500D01*
X669300Y256850D01*
X669300Y269550D01*
X675650Y275900D01*
D12*
X710446Y267615D02*
X712353Y269522D01*
X712353Y271428D01*
X710446Y273335D01*
X700913Y273335D01*
X700913Y271428D02*
X700913Y275242D01*
X700913Y279309D02*
X712353Y279309D01*
X700913Y279309D02*
X700913Y285029D01*
X702820Y286936D01*
X706633Y286936D01*
X708540Y285029D01*
X708540Y279309D01*
X702820Y291003D02*
X700913Y292910D01*
X700913Y296723D01*
X702820Y298629D01*
X704727Y298629D01*
X706633Y296723D01*
X706633Y294816D01*
X706633Y296723D02*
X708540Y298629D01*
X710446Y298629D01*
X712353Y296723D01*
X712353Y292910D01*
X710446Y291003D01*
D11*
X433016Y65453D02*
X431067Y67402D01*
X427169Y67402D01*
X425220Y65453D01*
X425220Y57657D01*
X427169Y55708D01*
X431067Y55708D01*
X433016Y57657D01*
X440812Y65453D02*
X444710Y67402D01*
X440812Y65453D02*
X436914Y61555D01*
X436914Y57657D01*
X438863Y55708D01*
X442761Y55708D01*
X444710Y57657D01*
X444710Y59606D01*
X442761Y61555D01*
X436914Y61555D01*
M02*
