G04 EAGLE Gerber RS-274X export*
G75*
%MOMM*%
%FSLAX34Y34*%
%LPD*%
%INSolderpaste Top*%
%IPPOS*%
%AMOC8*
5,1,8,0,0,1.08239X$1,22.5*%
G01*
%ADD10R,0.558800X1.270000*%
%ADD11R,1.270000X0.558800*%
%ADD12R,1.400000X1.000000*%
%ADD13R,2.209800X0.609600*%
%ADD14R,1.200000X1.200000*%
%ADD15R,1.300000X1.600000*%
%ADD16R,1.600000X1.300000*%
%ADD17R,1.500000X1.300000*%
%ADD18R,5.500000X1.500000*%
%ADD19R,1.300000X1.500000*%
%ADD20R,1.520000X1.780000*%
%ADD21R,6.000000X2.000000*%
%ADD22R,3.500000X2.000000*%
%ADD23R,1.780000X2.160000*%


D10*
X271200Y159874D03*
X279200Y159874D03*
X287200Y159874D03*
X295200Y159874D03*
X303200Y159874D03*
X311200Y159874D03*
X319200Y159874D03*
X327200Y159874D03*
D11*
X342126Y174800D03*
X342126Y182800D03*
X342126Y190800D03*
X342126Y198800D03*
X342126Y206800D03*
X342126Y214800D03*
X342126Y222800D03*
X342126Y230800D03*
D10*
X327200Y245726D03*
X319200Y245726D03*
X311200Y245726D03*
X303200Y245726D03*
X295200Y245726D03*
X287200Y245726D03*
X279200Y245726D03*
X271200Y245726D03*
D11*
X256274Y230800D03*
X256274Y222800D03*
X256274Y214800D03*
X256274Y206800D03*
X256274Y198800D03*
X256274Y190800D03*
X256274Y182800D03*
X256274Y174800D03*
D12*
X407000Y192300D03*
X429000Y201800D03*
X429000Y182800D03*
D13*
X248462Y278350D03*
X248462Y291050D03*
X248462Y303750D03*
X248462Y316450D03*
X196138Y316450D03*
X196138Y303750D03*
X196138Y291050D03*
X196138Y278350D03*
D14*
X33700Y389100D03*
X54700Y389100D03*
X34800Y27000D03*
X55800Y27000D03*
D15*
X96200Y389100D03*
X115200Y389100D03*
D16*
X413500Y81600D03*
X413500Y100600D03*
D17*
X322300Y277100D03*
X322300Y296100D03*
D18*
X354900Y88500D03*
X268900Y88500D03*
D19*
X388800Y131100D03*
X369800Y131100D03*
X274800Y130700D03*
X255800Y130700D03*
D16*
X378300Y302300D03*
X378300Y321300D03*
D19*
X214100Y253200D03*
X233100Y253200D03*
D20*
X492950Y301300D03*
X492950Y275900D03*
X492950Y250500D03*
X585850Y250500D03*
X585850Y275900D03*
X585850Y301300D03*
X585850Y101700D03*
X585850Y127100D03*
X585850Y152500D03*
X492950Y152500D03*
X492950Y127100D03*
X492950Y101700D03*
D15*
X468300Y300700D03*
X449300Y300700D03*
D16*
X460700Y146100D03*
X460700Y165100D03*
X460000Y101100D03*
X460000Y82100D03*
D15*
X620100Y338800D03*
X639100Y338800D03*
D21*
X731700Y296900D03*
X731700Y256900D03*
D22*
X640700Y296900D03*
X640700Y256900D03*
D21*
X731700Y138800D03*
X731700Y98800D03*
D22*
X640700Y138800D03*
X640700Y98800D03*
D23*
X182900Y133200D03*
X223600Y133200D03*
X182900Y88900D03*
X223600Y88900D03*
D17*
X607600Y102100D03*
X607600Y121100D03*
X437100Y82100D03*
X437100Y101100D03*
M02*
