G04 EAGLE Gerber RS-274X export*
G75*
%MOMM*%
%FSLAX34Y34*%
%LPD*%
%INSoldermask Bottom*%
%IPPOS*%
%AMOC8*
5,1,8,0,0,1.08239X$1,22.5*%
G01*
%ADD10C,3.403200*%
%ADD11P,1.869504X8X22.500000*%
%ADD12C,2.082800*%
%ADD13R,2.082800X2.082800*%
%ADD14C,1.727200*%
%ADD15P,1.309259X8X22.500000*%


D10*
X760000Y385000D03*
X760000Y35000D03*
X200000Y385000D03*
X200000Y35000D03*
D11*
X327300Y353100D03*
X327300Y378500D03*
X352700Y353100D03*
X352700Y378500D03*
X378100Y353100D03*
X378100Y378500D03*
X403500Y353100D03*
X403500Y378500D03*
X428900Y353100D03*
X428900Y378500D03*
D12*
X152400Y82150D03*
X127000Y94850D03*
X152400Y107550D03*
X152400Y132950D03*
X152400Y158350D03*
X127000Y120250D03*
X127000Y145650D03*
D13*
X127000Y171050D03*
D10*
X63500Y183750D03*
X63500Y69450D03*
D12*
X152400Y247350D03*
X127000Y260050D03*
X152400Y272750D03*
X152400Y298150D03*
X152400Y323550D03*
X127000Y285450D03*
X127000Y310850D03*
D13*
X127000Y336250D03*
D10*
X63500Y348950D03*
X63500Y234650D03*
D14*
X674380Y130500D02*
X689620Y130500D01*
X689620Y105100D02*
X674380Y105100D01*
X674380Y288600D02*
X689620Y288600D01*
X689620Y263200D02*
X674380Y263200D01*
D15*
X296100Y144600D03*
X303800Y259500D03*
X176700Y278100D03*
X133300Y390600D03*
X469900Y187700D03*
X325500Y222300D03*
X229400Y278100D03*
X229400Y200600D03*
X229400Y315300D03*
X219533Y184459D03*
X294500Y225400D03*
X294500Y209900D03*
X186000Y237800D03*
X322400Y194400D03*
X231988Y172700D03*
X229400Y296700D03*
X272800Y206800D03*
X282100Y178900D03*
M02*
