G04 EAGLE Gerber RS-274X export*
G75*
%MOMM*%
%FSLAX34Y34*%
%LPD*%
%INBottom Copper*%
%IPPOS*%
%AMOC8*
5,1,8,0,0,1.08239X$1,22.5*%
G01*
%ADD10C,1.524000*%
%ADD11C,1.320800*%
%ADD12P,1.429621X8X112.500000*%
%ADD13P,1.429621X8X292.500000*%
%ADD14C,1.422400*%
%ADD15P,1.732040X8X202.500000*%
%ADD16P,1.429621X8X22.500000*%
%ADD17C,1.676400*%
%ADD18C,1.320800*%
%ADD19P,1.649562X8X292.500000*%
%ADD20P,1.649562X8X202.500000*%
%ADD21C,0.406400*%

G36*
X698518Y10671D02*
X698518Y10671D01*
X698536Y10669D01*
X698718Y10690D01*
X698901Y10709D01*
X698918Y10714D01*
X698935Y10716D01*
X699110Y10773D01*
X699286Y10827D01*
X699301Y10835D01*
X699318Y10841D01*
X699478Y10931D01*
X699640Y11019D01*
X699653Y11030D01*
X699669Y11039D01*
X699808Y11159D01*
X699949Y11276D01*
X699960Y11290D01*
X699974Y11302D01*
X700086Y11447D01*
X700201Y11590D01*
X700209Y11606D01*
X700220Y11620D01*
X700302Y11785D01*
X700387Y11947D01*
X700392Y11964D01*
X700400Y11981D01*
X700447Y12159D01*
X700498Y12334D01*
X700500Y12352D01*
X700504Y12369D01*
X700531Y12700D01*
X700531Y91040D01*
X700529Y91058D01*
X700531Y91076D01*
X700510Y91257D01*
X700491Y91441D01*
X700486Y91458D01*
X700484Y91475D01*
X700427Y91650D01*
X700373Y91826D01*
X700365Y91841D01*
X700359Y91858D01*
X700269Y92018D01*
X700181Y92180D01*
X700170Y92193D01*
X700161Y92209D01*
X700041Y92348D01*
X699924Y92489D01*
X699910Y92500D01*
X699898Y92514D01*
X699753Y92626D01*
X699610Y92741D01*
X699594Y92749D01*
X699580Y92760D01*
X699415Y92842D01*
X699253Y92927D01*
X699236Y92932D01*
X699220Y92940D01*
X699041Y92987D01*
X698866Y93038D01*
X698848Y93040D01*
X698831Y93044D01*
X698500Y93071D01*
X689075Y93071D01*
X686087Y94309D01*
X683801Y96595D01*
X682563Y99583D01*
X682563Y102817D01*
X683801Y105805D01*
X686087Y108091D01*
X689075Y109329D01*
X698500Y109329D01*
X698518Y109331D01*
X698536Y109329D01*
X698718Y109350D01*
X698901Y109369D01*
X698918Y109374D01*
X698935Y109376D01*
X699110Y109433D01*
X699286Y109487D01*
X699301Y109495D01*
X699318Y109501D01*
X699478Y109591D01*
X699640Y109679D01*
X699653Y109690D01*
X699669Y109699D01*
X699808Y109819D01*
X699949Y109936D01*
X699960Y109950D01*
X699974Y109962D01*
X700086Y110107D01*
X700201Y110250D01*
X700209Y110266D01*
X700220Y110280D01*
X700302Y110445D01*
X700387Y110607D01*
X700392Y110624D01*
X700400Y110640D01*
X700447Y110819D01*
X700498Y110994D01*
X700500Y111012D01*
X700504Y111029D01*
X700531Y111360D01*
X700531Y116440D01*
X700529Y116458D01*
X700531Y116476D01*
X700510Y116657D01*
X700491Y116841D01*
X700486Y116858D01*
X700484Y116875D01*
X700427Y117050D01*
X700373Y117226D01*
X700365Y117241D01*
X700359Y117258D01*
X700269Y117418D01*
X700181Y117580D01*
X700170Y117593D01*
X700161Y117609D01*
X700041Y117748D01*
X699924Y117889D01*
X699910Y117900D01*
X699898Y117914D01*
X699753Y118026D01*
X699610Y118141D01*
X699594Y118149D01*
X699580Y118160D01*
X699415Y118242D01*
X699253Y118327D01*
X699236Y118332D01*
X699220Y118340D01*
X699041Y118387D01*
X698866Y118438D01*
X698848Y118440D01*
X698831Y118444D01*
X698500Y118471D01*
X689075Y118471D01*
X686087Y119709D01*
X683801Y121995D01*
X682563Y124983D01*
X682563Y128217D01*
X683801Y131205D01*
X686087Y133491D01*
X689075Y134729D01*
X698500Y134729D01*
X698518Y134731D01*
X698536Y134729D01*
X698718Y134750D01*
X698901Y134769D01*
X698918Y134774D01*
X698935Y134776D01*
X699110Y134833D01*
X699286Y134887D01*
X699301Y134895D01*
X699318Y134901D01*
X699478Y134991D01*
X699640Y135079D01*
X699653Y135090D01*
X699669Y135099D01*
X699808Y135219D01*
X699949Y135336D01*
X699960Y135350D01*
X699974Y135362D01*
X700086Y135507D01*
X700201Y135650D01*
X700209Y135666D01*
X700220Y135680D01*
X700302Y135845D01*
X700387Y136007D01*
X700392Y136024D01*
X700400Y136040D01*
X700447Y136219D01*
X700498Y136394D01*
X700500Y136412D01*
X700504Y136429D01*
X700531Y136760D01*
X700531Y141840D01*
X700529Y141858D01*
X700531Y141876D01*
X700510Y142057D01*
X700491Y142241D01*
X700486Y142258D01*
X700484Y142275D01*
X700427Y142450D01*
X700373Y142626D01*
X700365Y142641D01*
X700359Y142658D01*
X700269Y142818D01*
X700181Y142980D01*
X700170Y142993D01*
X700161Y143009D01*
X700041Y143148D01*
X699924Y143289D01*
X699910Y143300D01*
X699898Y143314D01*
X699753Y143426D01*
X699610Y143541D01*
X699594Y143549D01*
X699580Y143560D01*
X699415Y143642D01*
X699253Y143727D01*
X699236Y143732D01*
X699220Y143740D01*
X699041Y143787D01*
X698866Y143838D01*
X698848Y143840D01*
X698831Y143844D01*
X698500Y143871D01*
X689075Y143871D01*
X686087Y145109D01*
X683801Y147395D01*
X682563Y150383D01*
X682563Y153617D01*
X683801Y156605D01*
X686087Y158891D01*
X689075Y160129D01*
X698500Y160129D01*
X698518Y160131D01*
X698536Y160129D01*
X698718Y160150D01*
X698901Y160169D01*
X698918Y160174D01*
X698935Y160176D01*
X699110Y160233D01*
X699286Y160287D01*
X699301Y160295D01*
X699318Y160301D01*
X699478Y160391D01*
X699640Y160479D01*
X699653Y160490D01*
X699669Y160499D01*
X699808Y160619D01*
X699949Y160736D01*
X699960Y160750D01*
X699974Y160762D01*
X700086Y160907D01*
X700201Y161050D01*
X700209Y161066D01*
X700220Y161080D01*
X700302Y161245D01*
X700387Y161407D01*
X700392Y161424D01*
X700400Y161440D01*
X700447Y161619D01*
X700498Y161794D01*
X700500Y161812D01*
X700504Y161829D01*
X700531Y162160D01*
X700531Y376240D01*
X700529Y376258D01*
X700531Y376276D01*
X700510Y376458D01*
X700491Y376641D01*
X700486Y376658D01*
X700484Y376675D01*
X700427Y376850D01*
X700373Y377026D01*
X700365Y377041D01*
X700359Y377058D01*
X700269Y377218D01*
X700181Y377380D01*
X700170Y377393D01*
X700161Y377409D01*
X700041Y377548D01*
X699924Y377689D01*
X699910Y377700D01*
X699898Y377714D01*
X699753Y377826D01*
X699610Y377941D01*
X699594Y377949D01*
X699580Y377960D01*
X699415Y378042D01*
X699253Y378127D01*
X699236Y378132D01*
X699220Y378140D01*
X699041Y378187D01*
X698866Y378238D01*
X698848Y378240D01*
X698831Y378244D01*
X698500Y378271D01*
X690275Y378271D01*
X687287Y379509D01*
X685001Y381795D01*
X683763Y384783D01*
X683763Y388017D01*
X685001Y391005D01*
X687287Y393291D01*
X690275Y394529D01*
X698500Y394529D01*
X698518Y394531D01*
X698536Y394529D01*
X698718Y394550D01*
X698901Y394569D01*
X698918Y394574D01*
X698935Y394576D01*
X699110Y394633D01*
X699286Y394687D01*
X699301Y394695D01*
X699318Y394701D01*
X699478Y394791D01*
X699640Y394879D01*
X699653Y394890D01*
X699669Y394899D01*
X699808Y395019D01*
X699949Y395136D01*
X699960Y395150D01*
X699974Y395162D01*
X700086Y395307D01*
X700201Y395450D01*
X700209Y395466D01*
X700220Y395480D01*
X700302Y395645D01*
X700387Y395807D01*
X700392Y395824D01*
X700400Y395840D01*
X700447Y396019D01*
X700498Y396194D01*
X700500Y396212D01*
X700504Y396229D01*
X700531Y396560D01*
X700531Y401640D01*
X700529Y401658D01*
X700531Y401676D01*
X700510Y401858D01*
X700491Y402041D01*
X700486Y402058D01*
X700484Y402075D01*
X700427Y402250D01*
X700373Y402426D01*
X700365Y402441D01*
X700359Y402458D01*
X700269Y402618D01*
X700181Y402780D01*
X700170Y402793D01*
X700161Y402809D01*
X700041Y402948D01*
X699924Y403089D01*
X699910Y403100D01*
X699898Y403114D01*
X699753Y403226D01*
X699610Y403341D01*
X699594Y403349D01*
X699580Y403360D01*
X699415Y403442D01*
X699253Y403527D01*
X699236Y403532D01*
X699220Y403540D01*
X699041Y403587D01*
X698866Y403638D01*
X698848Y403640D01*
X698831Y403644D01*
X698500Y403671D01*
X690275Y403671D01*
X687287Y404909D01*
X685001Y407195D01*
X683763Y410183D01*
X683763Y413417D01*
X685001Y416405D01*
X687287Y418691D01*
X690275Y419929D01*
X698500Y419929D01*
X698518Y419931D01*
X698536Y419929D01*
X698718Y419950D01*
X698901Y419969D01*
X698918Y419974D01*
X698935Y419976D01*
X699110Y420033D01*
X699286Y420087D01*
X699301Y420095D01*
X699318Y420101D01*
X699478Y420191D01*
X699640Y420279D01*
X699653Y420290D01*
X699669Y420299D01*
X699808Y420419D01*
X699949Y420536D01*
X699960Y420550D01*
X699974Y420562D01*
X700086Y420707D01*
X700201Y420850D01*
X700209Y420866D01*
X700220Y420880D01*
X700302Y421045D01*
X700387Y421207D01*
X700392Y421224D01*
X700400Y421240D01*
X700447Y421419D01*
X700498Y421594D01*
X700500Y421612D01*
X700504Y421629D01*
X700531Y421960D01*
X700531Y427040D01*
X700529Y427058D01*
X700531Y427076D01*
X700510Y427258D01*
X700491Y427441D01*
X700486Y427458D01*
X700484Y427475D01*
X700427Y427650D01*
X700373Y427826D01*
X700365Y427841D01*
X700359Y427858D01*
X700269Y428018D01*
X700181Y428180D01*
X700170Y428193D01*
X700161Y428209D01*
X700041Y428348D01*
X699924Y428489D01*
X699910Y428500D01*
X699898Y428514D01*
X699753Y428626D01*
X699610Y428741D01*
X699594Y428749D01*
X699580Y428760D01*
X699415Y428842D01*
X699253Y428927D01*
X699236Y428932D01*
X699220Y428940D01*
X699041Y428987D01*
X698866Y429038D01*
X698848Y429040D01*
X698831Y429044D01*
X698500Y429071D01*
X690275Y429071D01*
X687287Y430309D01*
X685001Y432595D01*
X683763Y435583D01*
X683763Y438817D01*
X685001Y441805D01*
X687287Y444091D01*
X690275Y445329D01*
X698500Y445329D01*
X698518Y445331D01*
X698536Y445329D01*
X698718Y445350D01*
X698901Y445369D01*
X698918Y445374D01*
X698935Y445376D01*
X699110Y445433D01*
X699286Y445487D01*
X699301Y445495D01*
X699318Y445501D01*
X699478Y445591D01*
X699640Y445679D01*
X699653Y445690D01*
X699669Y445699D01*
X699808Y445819D01*
X699949Y445936D01*
X699960Y445950D01*
X699974Y445962D01*
X700086Y446107D01*
X700201Y446250D01*
X700209Y446266D01*
X700220Y446280D01*
X700302Y446445D01*
X700387Y446607D01*
X700392Y446624D01*
X700400Y446640D01*
X700447Y446819D01*
X700498Y446994D01*
X700500Y447012D01*
X700504Y447029D01*
X700531Y447360D01*
X700531Y584200D01*
X700529Y584218D01*
X700531Y584236D01*
X700510Y584418D01*
X700491Y584601D01*
X700486Y584618D01*
X700484Y584635D01*
X700427Y584810D01*
X700373Y584986D01*
X700365Y585001D01*
X700359Y585018D01*
X700269Y585178D01*
X700181Y585340D01*
X700170Y585353D01*
X700161Y585369D01*
X700041Y585508D01*
X699924Y585649D01*
X699910Y585660D01*
X699898Y585674D01*
X699753Y585786D01*
X699610Y585901D01*
X699594Y585909D01*
X699580Y585920D01*
X699415Y586002D01*
X699253Y586087D01*
X699236Y586092D01*
X699220Y586100D01*
X699041Y586147D01*
X698866Y586198D01*
X698848Y586200D01*
X698831Y586204D01*
X698500Y586231D01*
X54355Y586231D01*
X54209Y586217D01*
X54063Y586210D01*
X54009Y586197D01*
X53954Y586191D01*
X53814Y586148D01*
X53673Y586113D01*
X53622Y586090D01*
X53569Y586073D01*
X53441Y586004D01*
X53309Y585941D01*
X53264Y585908D01*
X53215Y585881D01*
X53103Y585788D01*
X52986Y585701D01*
X52949Y585659D01*
X52906Y585624D01*
X52814Y585510D01*
X52717Y585401D01*
X52689Y585353D01*
X52654Y585310D01*
X52587Y585180D01*
X52512Y585054D01*
X52494Y585002D01*
X52468Y584953D01*
X52428Y584812D01*
X52380Y584674D01*
X52372Y584619D01*
X52357Y584566D01*
X52345Y584420D01*
X52325Y584275D01*
X52328Y584220D01*
X52324Y584164D01*
X52341Y584019D01*
X52350Y583873D01*
X52364Y583820D01*
X52371Y583765D01*
X52416Y583626D01*
X52454Y583484D01*
X52481Y583427D01*
X52496Y583382D01*
X52537Y583309D01*
X52596Y583184D01*
X54378Y580098D01*
X56161Y573444D01*
X56161Y566556D01*
X54378Y559902D01*
X50934Y553937D01*
X46063Y549066D01*
X40098Y545622D01*
X33444Y543839D01*
X26556Y543839D01*
X19902Y545622D01*
X13716Y549194D01*
X13582Y549254D01*
X13453Y549322D01*
X13399Y549337D01*
X13349Y549360D01*
X13206Y549392D01*
X13066Y549433D01*
X13010Y549437D01*
X12956Y549450D01*
X12810Y549454D01*
X12664Y549466D01*
X12609Y549459D01*
X12554Y549461D01*
X12409Y549436D01*
X12265Y549419D01*
X12212Y549402D01*
X12157Y549392D01*
X12021Y549339D01*
X11882Y549294D01*
X11834Y549267D01*
X11782Y549247D01*
X11658Y549168D01*
X11531Y549096D01*
X11489Y549060D01*
X11442Y549030D01*
X11337Y548929D01*
X11227Y548833D01*
X11192Y548789D01*
X11153Y548751D01*
X11069Y548630D01*
X10980Y548515D01*
X10955Y548465D01*
X10923Y548420D01*
X10866Y548285D01*
X10800Y548154D01*
X10786Y548101D01*
X10764Y548050D01*
X10734Y547907D01*
X10696Y547766D01*
X10691Y547703D01*
X10681Y547656D01*
X10680Y547572D01*
X10669Y547435D01*
X10669Y52565D01*
X10683Y52420D01*
X10690Y52274D01*
X10703Y52220D01*
X10709Y52164D01*
X10752Y52025D01*
X10787Y51883D01*
X10810Y51833D01*
X10827Y51780D01*
X10897Y51651D01*
X10959Y51519D01*
X10992Y51474D01*
X11019Y51426D01*
X11112Y51313D01*
X11200Y51196D01*
X11241Y51159D01*
X11276Y51116D01*
X11390Y51025D01*
X11499Y50927D01*
X11547Y50899D01*
X11590Y50864D01*
X11720Y50797D01*
X11846Y50722D01*
X11898Y50704D01*
X11947Y50678D01*
X12088Y50638D01*
X12226Y50590D01*
X12281Y50582D01*
X12334Y50567D01*
X12480Y50555D01*
X12625Y50535D01*
X12680Y50539D01*
X12736Y50534D01*
X12881Y50551D01*
X13027Y50560D01*
X13080Y50575D01*
X13135Y50581D01*
X13274Y50626D01*
X13416Y50664D01*
X13473Y50691D01*
X13518Y50706D01*
X13591Y50747D01*
X13716Y50806D01*
X19902Y54378D01*
X26556Y56161D01*
X33444Y56161D01*
X40098Y54378D01*
X46063Y50934D01*
X50934Y46063D01*
X54378Y40098D01*
X56161Y33444D01*
X56161Y26556D01*
X54378Y19902D01*
X50806Y13716D01*
X50746Y13582D01*
X50678Y13453D01*
X50663Y13399D01*
X50640Y13349D01*
X50608Y13206D01*
X50567Y13066D01*
X50563Y13010D01*
X50550Y12956D01*
X50546Y12810D01*
X50534Y12664D01*
X50541Y12609D01*
X50539Y12554D01*
X50564Y12409D01*
X50581Y12265D01*
X50598Y12212D01*
X50608Y12157D01*
X50661Y12021D01*
X50706Y11882D01*
X50733Y11833D01*
X50753Y11782D01*
X50832Y11659D01*
X50904Y11531D01*
X50940Y11489D01*
X50970Y11442D01*
X51071Y11337D01*
X51167Y11227D01*
X51211Y11192D01*
X51249Y11153D01*
X51370Y11069D01*
X51485Y10980D01*
X51535Y10955D01*
X51580Y10923D01*
X51715Y10866D01*
X51846Y10800D01*
X51899Y10786D01*
X51950Y10764D01*
X52093Y10734D01*
X52234Y10696D01*
X52297Y10691D01*
X52344Y10681D01*
X52428Y10680D01*
X52565Y10669D01*
X698500Y10669D01*
X698518Y10671D01*
G37*
%LPC*%
G36*
X386027Y30818D02*
X386027Y30818D01*
X367872Y48973D01*
X367851Y48990D01*
X367833Y49011D01*
X367696Y49118D01*
X367560Y49228D01*
X367537Y49241D01*
X367515Y49257D01*
X367358Y49335D01*
X367204Y49417D01*
X367179Y49425D01*
X367155Y49437D01*
X366985Y49482D01*
X366819Y49532D01*
X366792Y49534D01*
X366766Y49541D01*
X366435Y49568D01*
X157902Y49568D01*
X81332Y126138D01*
X81325Y126143D01*
X81320Y126150D01*
X81170Y126271D01*
X81021Y126393D01*
X81013Y126397D01*
X81006Y126403D01*
X80835Y126491D01*
X80665Y126581D01*
X80657Y126584D01*
X80649Y126588D01*
X80463Y126641D01*
X80279Y126696D01*
X80270Y126697D01*
X80262Y126699D01*
X80070Y126715D01*
X79878Y126733D01*
X79869Y126732D01*
X79860Y126732D01*
X79671Y126710D01*
X79478Y126689D01*
X79469Y126686D01*
X79461Y126685D01*
X79279Y126626D01*
X79094Y126568D01*
X79086Y126563D01*
X79078Y126561D01*
X78909Y126466D01*
X78742Y126373D01*
X78735Y126367D01*
X78727Y126363D01*
X78581Y126237D01*
X78435Y126112D01*
X78429Y126105D01*
X78422Y126100D01*
X78305Y125948D01*
X78185Y125796D01*
X78181Y125788D01*
X78176Y125781D01*
X78090Y125609D01*
X78003Y125438D01*
X78000Y125429D01*
X77996Y125421D01*
X77946Y125234D01*
X77895Y125050D01*
X77894Y125041D01*
X77892Y125032D01*
X77865Y124701D01*
X77865Y121056D01*
X76473Y117695D01*
X73900Y115122D01*
X70539Y113730D01*
X51661Y113730D01*
X48300Y115122D01*
X45727Y117695D01*
X44335Y121056D01*
X44335Y124694D01*
X45727Y128055D01*
X46583Y128911D01*
X46589Y128918D01*
X46596Y128923D01*
X46716Y129073D01*
X46838Y129222D01*
X46842Y129230D01*
X46848Y129237D01*
X46936Y129407D01*
X47027Y129578D01*
X47029Y129587D01*
X47033Y129594D01*
X47086Y129779D01*
X47142Y129964D01*
X47142Y129973D01*
X47145Y129981D01*
X47161Y130172D01*
X47178Y130365D01*
X47177Y130374D01*
X47178Y130383D01*
X47156Y130572D01*
X47135Y130765D01*
X47132Y130774D01*
X47131Y130782D01*
X47071Y130964D01*
X47013Y131149D01*
X47009Y131157D01*
X47006Y131165D01*
X46912Y131332D01*
X46818Y131501D01*
X46812Y131508D01*
X46808Y131516D01*
X46683Y131661D01*
X46558Y131808D01*
X46551Y131814D01*
X46545Y131821D01*
X46393Y131938D01*
X46242Y132058D01*
X46234Y132062D01*
X46227Y132067D01*
X46055Y132153D01*
X45883Y132240D01*
X45874Y132243D01*
X45866Y132247D01*
X45681Y132296D01*
X45495Y132348D01*
X45486Y132349D01*
X45478Y132351D01*
X45147Y132378D01*
X43842Y132378D01*
X33943Y142277D01*
X33943Y170223D01*
X36621Y172901D01*
X36622Y172902D01*
X39686Y175966D01*
X42364Y178644D01*
X44675Y178644D01*
X44702Y178647D01*
X44729Y178645D01*
X44902Y178667D01*
X45076Y178684D01*
X45101Y178692D01*
X45128Y178695D01*
X45294Y178751D01*
X45461Y178802D01*
X45484Y178815D01*
X45510Y178824D01*
X45661Y178911D01*
X45815Y178994D01*
X45835Y179011D01*
X45859Y179024D01*
X46112Y179239D01*
X48300Y181428D01*
X51661Y182820D01*
X70539Y182820D01*
X73900Y181428D01*
X76473Y178855D01*
X77865Y175494D01*
X77865Y171856D01*
X76473Y168495D01*
X73900Y165922D01*
X70539Y164530D01*
X51661Y164530D01*
X48300Y165922D01*
X45452Y168771D01*
X45435Y168791D01*
X45424Y168800D01*
X45414Y168812D01*
X45268Y168927D01*
X45123Y169045D01*
X45110Y169052D01*
X45098Y169061D01*
X44932Y169146D01*
X44767Y169233D01*
X44752Y169237D01*
X44739Y169244D01*
X44559Y169294D01*
X44381Y169346D01*
X44366Y169348D01*
X44351Y169352D01*
X44165Y169365D01*
X43979Y169381D01*
X43965Y169380D01*
X43950Y169381D01*
X43765Y169358D01*
X43579Y169337D01*
X43565Y169332D01*
X43550Y169331D01*
X43373Y169271D01*
X43196Y169214D01*
X43183Y169207D01*
X43169Y169202D01*
X43007Y169109D01*
X42844Y169019D01*
X42833Y169009D01*
X42820Y169001D01*
X42567Y168787D01*
X41652Y167872D01*
X41635Y167851D01*
X41614Y167834D01*
X41507Y167696D01*
X41397Y167560D01*
X41384Y167537D01*
X41368Y167515D01*
X41290Y167358D01*
X41208Y167204D01*
X41200Y167179D01*
X41188Y167155D01*
X41143Y166985D01*
X41093Y166819D01*
X41091Y166792D01*
X41084Y166766D01*
X41057Y166435D01*
X41057Y152391D01*
X41057Y152386D01*
X41057Y152382D01*
X41077Y152188D01*
X41097Y151990D01*
X41098Y151986D01*
X41098Y151981D01*
X41157Y151793D01*
X41215Y151605D01*
X41217Y151601D01*
X41218Y151597D01*
X41314Y151422D01*
X41407Y151251D01*
X41409Y151248D01*
X41412Y151244D01*
X41540Y151091D01*
X41664Y150942D01*
X41668Y150939D01*
X41671Y150936D01*
X41827Y150811D01*
X41978Y150690D01*
X41982Y150688D01*
X41985Y150685D01*
X42166Y150592D01*
X42335Y150504D01*
X42340Y150503D01*
X42344Y150501D01*
X42534Y150447D01*
X42722Y150393D01*
X42727Y150392D01*
X42731Y150391D01*
X42924Y150376D01*
X43124Y150360D01*
X43128Y150360D01*
X43132Y150360D01*
X43326Y150383D01*
X43523Y150407D01*
X43528Y150408D01*
X43532Y150409D01*
X43717Y150470D01*
X43906Y150531D01*
X43910Y150534D01*
X43914Y150535D01*
X44083Y150631D01*
X44257Y150729D01*
X44260Y150732D01*
X44264Y150735D01*
X44409Y150861D01*
X44561Y150993D01*
X44564Y150996D01*
X44568Y150999D01*
X44688Y151155D01*
X44808Y151311D01*
X44810Y151315D01*
X44813Y151318D01*
X44965Y151613D01*
X45727Y153455D01*
X48300Y156028D01*
X51661Y157420D01*
X70539Y157420D01*
X73900Y156028D01*
X76473Y153455D01*
X77205Y151686D01*
X77216Y151666D01*
X77223Y151645D01*
X77311Y151489D01*
X77396Y151331D01*
X77410Y151314D01*
X77421Y151294D01*
X77538Y151159D01*
X77652Y151020D01*
X77669Y151006D01*
X77684Y150989D01*
X77825Y150880D01*
X77965Y150767D01*
X77984Y150756D01*
X78002Y150743D01*
X78163Y150663D01*
X78321Y150580D01*
X78342Y150573D01*
X78363Y150563D01*
X78536Y150517D01*
X78708Y150467D01*
X78730Y150465D01*
X78751Y150459D01*
X79082Y150432D01*
X82723Y150432D01*
X163378Y69777D01*
X163399Y69760D01*
X163417Y69739D01*
X163554Y69632D01*
X163690Y69522D01*
X163713Y69509D01*
X163735Y69493D01*
X163892Y69415D01*
X164046Y69333D01*
X164071Y69325D01*
X164095Y69313D01*
X164265Y69268D01*
X164431Y69218D01*
X164458Y69216D01*
X164484Y69209D01*
X164815Y69182D01*
X392132Y69182D01*
X392182Y69187D01*
X392234Y69184D01*
X392382Y69207D01*
X392532Y69222D01*
X392581Y69237D01*
X392632Y69244D01*
X392773Y69296D01*
X392917Y69340D01*
X392962Y69364D01*
X393010Y69382D01*
X393139Y69460D01*
X393271Y69532D01*
X393310Y69564D01*
X393354Y69591D01*
X393465Y69693D01*
X393580Y69789D01*
X393612Y69829D01*
X393650Y69864D01*
X393738Y69986D01*
X393833Y70103D01*
X393856Y70148D01*
X393886Y70190D01*
X393949Y70327D01*
X394018Y70460D01*
X394032Y70509D01*
X394054Y70556D01*
X394088Y70703D01*
X394130Y70847D01*
X394134Y70898D01*
X394145Y70948D01*
X394150Y71099D01*
X394163Y71249D01*
X394157Y71299D01*
X394158Y71350D01*
X394133Y71499D01*
X394116Y71648D01*
X394100Y71697D01*
X394091Y71747D01*
X394037Y71888D01*
X393991Y72031D01*
X393966Y72076D01*
X393947Y72123D01*
X393827Y72321D01*
X393793Y72382D01*
X393784Y72392D01*
X393775Y72407D01*
X393290Y73075D01*
X392564Y74500D01*
X392121Y75861D01*
X409092Y75861D01*
X409110Y75862D01*
X409127Y75861D01*
X409310Y75882D01*
X409492Y75901D01*
X409509Y75906D01*
X409527Y75908D01*
X409605Y75933D01*
X409742Y75894D01*
X409760Y75892D01*
X409777Y75888D01*
X410108Y75861D01*
X427079Y75861D01*
X426636Y74500D01*
X425910Y73075D01*
X425425Y72407D01*
X425399Y72363D01*
X425367Y72323D01*
X425298Y72189D01*
X425222Y72059D01*
X425205Y72011D01*
X425182Y71966D01*
X425140Y71821D01*
X425091Y71679D01*
X425085Y71628D01*
X425070Y71579D01*
X425058Y71429D01*
X425038Y71279D01*
X425042Y71228D01*
X425037Y71177D01*
X425055Y71028D01*
X425065Y70878D01*
X425078Y70828D01*
X425084Y70778D01*
X425131Y70634D01*
X425171Y70489D01*
X425193Y70443D01*
X425209Y70395D01*
X425283Y70264D01*
X425351Y70129D01*
X425382Y70089D01*
X425407Y70044D01*
X425506Y69930D01*
X425598Y69812D01*
X425637Y69778D01*
X425670Y69739D01*
X425789Y69647D01*
X425903Y69549D01*
X425948Y69524D01*
X425988Y69493D01*
X426123Y69426D01*
X426254Y69352D01*
X426303Y69336D01*
X426349Y69313D01*
X426494Y69274D01*
X426638Y69228D01*
X426688Y69222D01*
X426738Y69209D01*
X426968Y69190D01*
X427038Y69182D01*
X427051Y69183D01*
X427068Y69182D01*
X463310Y69182D01*
X463337Y69184D01*
X463364Y69182D01*
X463538Y69204D01*
X463711Y69222D01*
X463736Y69229D01*
X463763Y69233D01*
X463929Y69288D01*
X464096Y69340D01*
X464120Y69353D01*
X464145Y69361D01*
X464296Y69448D01*
X464450Y69532D01*
X464470Y69549D01*
X464494Y69562D01*
X464747Y69777D01*
X470213Y75243D01*
X470224Y75257D01*
X470238Y75268D01*
X470351Y75411D01*
X470468Y75554D01*
X470476Y75570D01*
X470488Y75584D01*
X470571Y75748D01*
X470657Y75910D01*
X470662Y75927D01*
X470670Y75943D01*
X470719Y76121D01*
X470771Y76296D01*
X470773Y76314D01*
X470778Y76331D01*
X470791Y76514D01*
X470808Y76697D01*
X470806Y76715D01*
X470807Y76733D01*
X470784Y76915D01*
X470764Y77097D01*
X470759Y77114D01*
X470757Y77132D01*
X470698Y77306D01*
X470643Y77481D01*
X470634Y77497D01*
X470629Y77514D01*
X470537Y77673D01*
X470448Y77834D01*
X470437Y77847D01*
X470428Y77863D01*
X470213Y78116D01*
X466124Y82204D01*
X466124Y90096D01*
X471704Y95676D01*
X479596Y95676D01*
X485176Y90096D01*
X485176Y82204D01*
X479802Y76830D01*
X479785Y76810D01*
X479764Y76792D01*
X479657Y76654D01*
X479547Y76519D01*
X479534Y76495D01*
X479518Y76474D01*
X479440Y76317D01*
X479358Y76163D01*
X479350Y76138D01*
X479338Y76113D01*
X479293Y75944D01*
X479243Y75777D01*
X479241Y75751D01*
X479234Y75725D01*
X479207Y75394D01*
X479207Y74177D01*
X467098Y62068D01*
X427177Y62068D01*
X427127Y62063D01*
X427075Y62066D01*
X426926Y62043D01*
X426777Y62028D01*
X426728Y62013D01*
X426677Y62006D01*
X426536Y61954D01*
X426392Y61910D01*
X426347Y61886D01*
X426299Y61868D01*
X426170Y61790D01*
X426038Y61718D01*
X425999Y61686D01*
X425955Y61659D01*
X425844Y61557D01*
X425729Y61461D01*
X425697Y61421D01*
X425659Y61386D01*
X425571Y61264D01*
X425476Y61147D01*
X425453Y61102D01*
X425423Y61060D01*
X425360Y60923D01*
X425291Y60790D01*
X425277Y60741D01*
X425255Y60694D01*
X425221Y60547D01*
X425179Y60403D01*
X425175Y60352D01*
X425163Y60302D01*
X425159Y60151D01*
X425146Y60001D01*
X425152Y59951D01*
X425151Y59900D01*
X425176Y59751D01*
X425193Y59602D01*
X425209Y59553D01*
X425218Y59503D01*
X425271Y59362D01*
X425318Y59219D01*
X425343Y59174D01*
X425362Y59126D01*
X425482Y58929D01*
X425516Y58868D01*
X425525Y58858D01*
X425534Y58843D01*
X425910Y58325D01*
X426636Y56900D01*
X427079Y55539D01*
X410108Y55539D01*
X410090Y55537D01*
X410073Y55539D01*
X409890Y55518D01*
X409708Y55499D01*
X409691Y55494D01*
X409673Y55492D01*
X409595Y55467D01*
X409458Y55506D01*
X409440Y55508D01*
X409423Y55512D01*
X409092Y55539D01*
X392121Y55539D01*
X392564Y56900D01*
X393290Y58325D01*
X393666Y58843D01*
X393692Y58887D01*
X393724Y58927D01*
X393793Y59061D01*
X393869Y59191D01*
X393886Y59239D01*
X393909Y59284D01*
X393951Y59429D01*
X394000Y59571D01*
X394006Y59622D01*
X394021Y59671D01*
X394033Y59822D01*
X394053Y59971D01*
X394049Y60022D01*
X394054Y60073D01*
X394036Y60222D01*
X394026Y60372D01*
X394013Y60422D01*
X394007Y60472D01*
X393960Y60616D01*
X393921Y60761D01*
X393898Y60806D01*
X393882Y60855D01*
X393808Y60987D01*
X393740Y61121D01*
X393709Y61161D01*
X393684Y61206D01*
X393585Y61320D01*
X393493Y61438D01*
X393454Y61472D01*
X393421Y61511D01*
X393302Y61603D01*
X393188Y61701D01*
X393143Y61726D01*
X393103Y61757D01*
X392968Y61824D01*
X392837Y61898D01*
X392788Y61914D01*
X392742Y61937D01*
X392596Y61976D01*
X392454Y62022D01*
X392403Y62028D01*
X392353Y62041D01*
X392123Y62060D01*
X392054Y62068D01*
X392040Y62067D01*
X392023Y62068D01*
X160366Y62068D01*
X160357Y62067D01*
X160348Y62068D01*
X160156Y62047D01*
X159965Y62028D01*
X159956Y62026D01*
X159948Y62025D01*
X159765Y61967D01*
X159580Y61910D01*
X159572Y61906D01*
X159564Y61903D01*
X159395Y61810D01*
X159226Y61718D01*
X159219Y61713D01*
X159211Y61708D01*
X159064Y61583D01*
X158917Y61461D01*
X158911Y61454D01*
X158904Y61448D01*
X158785Y61297D01*
X158664Y61147D01*
X158660Y61139D01*
X158655Y61132D01*
X158567Y60960D01*
X158479Y60790D01*
X158476Y60781D01*
X158472Y60773D01*
X158420Y60586D01*
X158368Y60403D01*
X158367Y60394D01*
X158364Y60385D01*
X158350Y60193D01*
X158335Y60001D01*
X158336Y59993D01*
X158335Y59984D01*
X158359Y59791D01*
X158382Y59602D01*
X158384Y59593D01*
X158385Y59584D01*
X158447Y59401D01*
X158506Y59219D01*
X158511Y59211D01*
X158514Y59203D01*
X158609Y59037D01*
X158704Y58868D01*
X158710Y58861D01*
X158715Y58854D01*
X158929Y58601D01*
X160253Y57277D01*
X160274Y57260D01*
X160292Y57239D01*
X160430Y57132D01*
X160565Y57022D01*
X160589Y57009D01*
X160610Y56993D01*
X160766Y56915D01*
X160921Y56833D01*
X160946Y56825D01*
X160970Y56813D01*
X161139Y56768D01*
X161306Y56718D01*
X161333Y56716D01*
X161359Y56709D01*
X161690Y56682D01*
X370223Y56682D01*
X388378Y38527D01*
X388399Y38510D01*
X388417Y38489D01*
X388554Y38382D01*
X388690Y38272D01*
X388713Y38259D01*
X388735Y38243D01*
X388892Y38165D01*
X389046Y38083D01*
X389071Y38075D01*
X389095Y38063D01*
X389265Y38018D01*
X389431Y37968D01*
X389458Y37966D01*
X389484Y37959D01*
X389815Y37932D01*
X466435Y37932D01*
X466462Y37934D01*
X466489Y37932D01*
X466663Y37954D01*
X466836Y37972D01*
X466861Y37979D01*
X466888Y37983D01*
X467054Y38038D01*
X467221Y38090D01*
X467244Y38103D01*
X467270Y38111D01*
X467421Y38198D01*
X467575Y38282D01*
X467595Y38299D01*
X467619Y38312D01*
X467872Y38527D01*
X496898Y67553D01*
X496915Y67574D01*
X496936Y67592D01*
X497043Y67729D01*
X497153Y67865D01*
X497166Y67888D01*
X497182Y67910D01*
X497260Y68067D01*
X497342Y68221D01*
X497350Y68246D01*
X497362Y68270D01*
X497407Y68440D01*
X497457Y68606D01*
X497459Y68633D01*
X497466Y68659D01*
X497493Y68990D01*
X497493Y75394D01*
X497491Y75421D01*
X497493Y75447D01*
X497471Y75621D01*
X497453Y75795D01*
X497446Y75820D01*
X497442Y75847D01*
X497386Y76013D01*
X497335Y76180D01*
X497322Y76203D01*
X497314Y76228D01*
X497227Y76380D01*
X497143Y76534D01*
X497126Y76554D01*
X497113Y76577D01*
X496898Y76830D01*
X491524Y82204D01*
X491524Y90096D01*
X497104Y95676D01*
X504996Y95676D01*
X510576Y90096D01*
X510576Y82204D01*
X505202Y76830D01*
X505185Y76810D01*
X505164Y76792D01*
X505057Y76654D01*
X504947Y76519D01*
X504934Y76495D01*
X504918Y76474D01*
X504840Y76317D01*
X504758Y76163D01*
X504750Y76138D01*
X504738Y76113D01*
X504693Y75944D01*
X504643Y75777D01*
X504641Y75751D01*
X504634Y75725D01*
X504607Y75394D01*
X504607Y65202D01*
X470223Y30818D01*
X386027Y30818D01*
G37*
%LPD*%
%LPC*%
G36*
X400161Y170855D02*
X400161Y170855D01*
X396800Y172247D01*
X394227Y174820D01*
X392835Y178181D01*
X392835Y179143D01*
X392833Y179170D01*
X392835Y179197D01*
X392813Y179371D01*
X392795Y179544D01*
X392788Y179570D01*
X392784Y179596D01*
X392728Y179762D01*
X392677Y179929D01*
X392664Y179953D01*
X392656Y179978D01*
X392569Y180129D01*
X392485Y180283D01*
X392468Y180303D01*
X392455Y180327D01*
X392240Y180580D01*
X383793Y189027D01*
X383793Y376123D01*
X386472Y378802D01*
X392653Y384983D01*
X392673Y385007D01*
X392696Y385028D01*
X392800Y385163D01*
X392908Y385294D01*
X392923Y385322D01*
X392942Y385347D01*
X393093Y385642D01*
X394227Y388380D01*
X396800Y390953D01*
X400161Y392345D01*
X419039Y392345D01*
X422400Y390953D01*
X424973Y388380D01*
X426365Y385019D01*
X426365Y381381D01*
X424973Y378020D01*
X422400Y375447D01*
X419039Y374055D01*
X400161Y374055D01*
X396800Y375447D01*
X396425Y375822D01*
X396411Y375834D01*
X396400Y375847D01*
X396255Y375961D01*
X396113Y376077D01*
X396098Y376086D01*
X396084Y376097D01*
X395920Y376180D01*
X395758Y376266D01*
X395741Y376271D01*
X395725Y376279D01*
X395547Y376329D01*
X395372Y376381D01*
X395354Y376382D01*
X395337Y376387D01*
X395154Y376401D01*
X394971Y376417D01*
X394953Y376415D01*
X394935Y376417D01*
X394753Y376394D01*
X394571Y376374D01*
X394554Y376368D01*
X394536Y376366D01*
X394362Y376308D01*
X394187Y376252D01*
X394171Y376244D01*
X394154Y376238D01*
X393995Y376146D01*
X393834Y376058D01*
X393821Y376046D01*
X393805Y376037D01*
X393552Y375822D01*
X391502Y373772D01*
X391485Y373751D01*
X391464Y373733D01*
X391358Y373596D01*
X391247Y373460D01*
X391234Y373436D01*
X391218Y373415D01*
X391140Y373259D01*
X391058Y373104D01*
X391050Y373079D01*
X391038Y373055D01*
X390993Y372886D01*
X390943Y372719D01*
X390941Y372692D01*
X390934Y372666D01*
X390907Y372335D01*
X390907Y364563D01*
X390908Y364554D01*
X390907Y364545D01*
X390928Y364354D01*
X390947Y364163D01*
X390949Y364154D01*
X390950Y364145D01*
X391008Y363963D01*
X391065Y363778D01*
X391069Y363770D01*
X391072Y363761D01*
X391165Y363593D01*
X391257Y363424D01*
X391262Y363417D01*
X391267Y363409D01*
X391391Y363262D01*
X391514Y363114D01*
X391521Y363109D01*
X391527Y363102D01*
X391678Y362983D01*
X391828Y362862D01*
X391836Y362858D01*
X391843Y362852D01*
X392016Y362765D01*
X392185Y362677D01*
X392194Y362674D01*
X392202Y362670D01*
X392388Y362618D01*
X392572Y362565D01*
X392581Y362564D01*
X392590Y362562D01*
X392783Y362548D01*
X392974Y362532D01*
X392982Y362533D01*
X392991Y362533D01*
X393184Y362557D01*
X393373Y362579D01*
X393382Y362582D01*
X393391Y362583D01*
X393574Y362644D01*
X393756Y362704D01*
X393764Y362708D01*
X393772Y362711D01*
X393938Y362807D01*
X394107Y362902D01*
X394114Y362908D01*
X394121Y362912D01*
X394374Y363127D01*
X396800Y365553D01*
X398594Y366296D01*
X400161Y366945D01*
X419039Y366945D01*
X422400Y365553D01*
X424973Y362980D01*
X426365Y359619D01*
X426365Y355981D01*
X424973Y352620D01*
X422400Y350047D01*
X421632Y349730D01*
X421632Y349729D01*
X419039Y348655D01*
X400161Y348655D01*
X396800Y350047D01*
X394374Y352473D01*
X394367Y352479D01*
X394362Y352486D01*
X394212Y352606D01*
X394063Y352728D01*
X394055Y352732D01*
X394048Y352738D01*
X393878Y352826D01*
X393707Y352917D01*
X393698Y352919D01*
X393691Y352923D01*
X393506Y352976D01*
X393321Y353032D01*
X393312Y353032D01*
X393304Y353035D01*
X393113Y353051D01*
X392920Y353068D01*
X392911Y353067D01*
X392902Y353068D01*
X392713Y353046D01*
X392520Y353025D01*
X392511Y353022D01*
X392503Y353021D01*
X392321Y352961D01*
X392136Y352903D01*
X392128Y352899D01*
X392120Y352896D01*
X391951Y352801D01*
X391784Y352708D01*
X391777Y352703D01*
X391769Y352698D01*
X391623Y352572D01*
X391477Y352448D01*
X391471Y352441D01*
X391464Y352435D01*
X391347Y352284D01*
X391227Y352132D01*
X391223Y352124D01*
X391218Y352117D01*
X391132Y351945D01*
X391045Y351773D01*
X391042Y351764D01*
X391038Y351756D01*
X390988Y351570D01*
X390937Y351385D01*
X390936Y351376D01*
X390934Y351368D01*
X390907Y351037D01*
X390907Y339163D01*
X390908Y339154D01*
X390907Y339145D01*
X390928Y338954D01*
X390947Y338763D01*
X390949Y338754D01*
X390950Y338745D01*
X391008Y338562D01*
X391065Y338378D01*
X391069Y338370D01*
X391072Y338361D01*
X391166Y338191D01*
X391257Y338024D01*
X391262Y338017D01*
X391267Y338009D01*
X391391Y337862D01*
X391514Y337714D01*
X391521Y337709D01*
X391527Y337702D01*
X391678Y337583D01*
X391828Y337462D01*
X391836Y337458D01*
X391843Y337452D01*
X392016Y337365D01*
X392185Y337277D01*
X392194Y337274D01*
X392202Y337270D01*
X392388Y337218D01*
X392572Y337165D01*
X392581Y337164D01*
X392590Y337162D01*
X392783Y337148D01*
X392974Y337132D01*
X392982Y337133D01*
X392991Y337133D01*
X393184Y337157D01*
X393373Y337179D01*
X393382Y337182D01*
X393391Y337183D01*
X393574Y337244D01*
X393756Y337304D01*
X393764Y337308D01*
X393772Y337311D01*
X393938Y337407D01*
X394107Y337502D01*
X394114Y337508D01*
X394121Y337512D01*
X394374Y337727D01*
X396800Y340153D01*
X400161Y341545D01*
X419039Y341545D01*
X422400Y340153D01*
X424973Y337580D01*
X426365Y334219D01*
X426365Y330581D01*
X424973Y327220D01*
X422400Y324647D01*
X419203Y323323D01*
X419039Y323255D01*
X400161Y323255D01*
X396800Y324647D01*
X394374Y327073D01*
X394367Y327079D01*
X394362Y327086D01*
X394212Y327206D01*
X394063Y327328D01*
X394055Y327332D01*
X394048Y327338D01*
X393878Y327426D01*
X393707Y327517D01*
X393698Y327519D01*
X393691Y327523D01*
X393506Y327576D01*
X393321Y327632D01*
X393312Y327632D01*
X393304Y327635D01*
X393113Y327651D01*
X392920Y327668D01*
X392911Y327667D01*
X392902Y327668D01*
X392713Y327646D01*
X392520Y327625D01*
X392511Y327622D01*
X392503Y327621D01*
X392321Y327561D01*
X392136Y327503D01*
X392128Y327499D01*
X392120Y327496D01*
X391951Y327401D01*
X391784Y327308D01*
X391777Y327303D01*
X391769Y327298D01*
X391623Y327172D01*
X391477Y327048D01*
X391471Y327041D01*
X391464Y327035D01*
X391347Y326884D01*
X391227Y326732D01*
X391223Y326724D01*
X391218Y326717D01*
X391132Y326545D01*
X391045Y326373D01*
X391042Y326364D01*
X391038Y326356D01*
X390988Y326170D01*
X390937Y325985D01*
X390936Y325976D01*
X390934Y325968D01*
X390907Y325637D01*
X390907Y313763D01*
X390908Y313754D01*
X390907Y313745D01*
X390928Y313554D01*
X390947Y313363D01*
X390949Y313354D01*
X390950Y313345D01*
X391008Y313163D01*
X391065Y312978D01*
X391069Y312970D01*
X391072Y312961D01*
X391165Y312793D01*
X391257Y312624D01*
X391262Y312617D01*
X391267Y312609D01*
X391391Y312462D01*
X391514Y312314D01*
X391521Y312309D01*
X391527Y312302D01*
X391678Y312183D01*
X391828Y312062D01*
X391836Y312058D01*
X391843Y312052D01*
X392016Y311965D01*
X392185Y311877D01*
X392194Y311874D01*
X392202Y311870D01*
X392388Y311818D01*
X392572Y311765D01*
X392581Y311764D01*
X392590Y311762D01*
X392783Y311748D01*
X392974Y311732D01*
X392982Y311733D01*
X392991Y311733D01*
X393184Y311757D01*
X393373Y311779D01*
X393382Y311782D01*
X393391Y311783D01*
X393574Y311844D01*
X393756Y311904D01*
X393764Y311908D01*
X393772Y311911D01*
X393937Y312006D01*
X394107Y312102D01*
X394114Y312108D01*
X394121Y312112D01*
X394374Y312327D01*
X396800Y314753D01*
X400161Y316145D01*
X419039Y316145D01*
X422400Y314753D01*
X424973Y312180D01*
X426365Y308819D01*
X426365Y305181D01*
X424973Y301820D01*
X422400Y299247D01*
X419039Y297855D01*
X400161Y297855D01*
X396800Y299247D01*
X394374Y301673D01*
X394367Y301679D01*
X394362Y301686D01*
X394212Y301806D01*
X394063Y301928D01*
X394055Y301932D01*
X394048Y301938D01*
X393878Y302026D01*
X393707Y302117D01*
X393698Y302119D01*
X393691Y302123D01*
X393506Y302176D01*
X393321Y302232D01*
X393312Y302232D01*
X393304Y302235D01*
X393113Y302251D01*
X392920Y302268D01*
X392911Y302267D01*
X392902Y302268D01*
X392713Y302246D01*
X392520Y302225D01*
X392511Y302222D01*
X392503Y302221D01*
X392321Y302161D01*
X392136Y302103D01*
X392128Y302099D01*
X392120Y302096D01*
X391951Y302001D01*
X391784Y301908D01*
X391777Y301903D01*
X391769Y301898D01*
X391623Y301772D01*
X391477Y301648D01*
X391471Y301641D01*
X391464Y301635D01*
X391347Y301484D01*
X391227Y301332D01*
X391223Y301324D01*
X391218Y301317D01*
X391132Y301145D01*
X391045Y300973D01*
X391042Y300964D01*
X391038Y300956D01*
X390988Y300770D01*
X390937Y300585D01*
X390936Y300576D01*
X390934Y300568D01*
X390907Y300237D01*
X390907Y288363D01*
X390908Y288354D01*
X390907Y288345D01*
X390928Y288153D01*
X390947Y287963D01*
X390949Y287954D01*
X390950Y287945D01*
X391008Y287763D01*
X391065Y287578D01*
X391069Y287570D01*
X391072Y287561D01*
X391165Y287393D01*
X391257Y287224D01*
X391262Y287217D01*
X391267Y287209D01*
X391391Y287062D01*
X391514Y286914D01*
X391521Y286909D01*
X391527Y286902D01*
X391678Y286783D01*
X391828Y286662D01*
X391836Y286658D01*
X391843Y286652D01*
X392016Y286565D01*
X392185Y286477D01*
X392194Y286474D01*
X392202Y286470D01*
X392388Y286418D01*
X392572Y286365D01*
X392581Y286364D01*
X392590Y286362D01*
X392783Y286348D01*
X392974Y286332D01*
X392982Y286333D01*
X392991Y286333D01*
X393184Y286357D01*
X393373Y286379D01*
X393382Y286382D01*
X393391Y286383D01*
X393574Y286444D01*
X393756Y286504D01*
X393764Y286508D01*
X393772Y286511D01*
X393937Y286606D01*
X394107Y286702D01*
X394114Y286708D01*
X394121Y286712D01*
X394374Y286927D01*
X396800Y289353D01*
X400161Y290745D01*
X419039Y290745D01*
X422400Y289353D01*
X424973Y286780D01*
X426365Y283419D01*
X426365Y279781D01*
X424973Y276420D01*
X422400Y273847D01*
X419039Y272455D01*
X400161Y272455D01*
X396800Y273847D01*
X394374Y276273D01*
X394367Y276279D01*
X394362Y276286D01*
X394212Y276406D01*
X394063Y276528D01*
X394055Y276532D01*
X394048Y276538D01*
X393878Y276626D01*
X393707Y276717D01*
X393698Y276719D01*
X393691Y276723D01*
X393507Y276776D01*
X393321Y276832D01*
X393312Y276832D01*
X393304Y276835D01*
X393113Y276851D01*
X392920Y276868D01*
X392911Y276867D01*
X392902Y276868D01*
X392713Y276846D01*
X392520Y276825D01*
X392511Y276822D01*
X392503Y276821D01*
X392321Y276761D01*
X392136Y276703D01*
X392128Y276699D01*
X392120Y276696D01*
X391951Y276601D01*
X391784Y276508D01*
X391777Y276503D01*
X391769Y276498D01*
X391623Y276372D01*
X391477Y276248D01*
X391471Y276241D01*
X391464Y276235D01*
X391347Y276084D01*
X391227Y275932D01*
X391223Y275924D01*
X391218Y275917D01*
X391132Y275745D01*
X391045Y275573D01*
X391042Y275564D01*
X391038Y275556D01*
X390988Y275370D01*
X390937Y275185D01*
X390936Y275176D01*
X390934Y275168D01*
X390907Y274837D01*
X390907Y262963D01*
X390908Y262954D01*
X390907Y262945D01*
X390928Y262754D01*
X390947Y262563D01*
X390949Y262554D01*
X390950Y262545D01*
X391008Y262363D01*
X391065Y262178D01*
X391069Y262170D01*
X391072Y262161D01*
X391165Y261993D01*
X391257Y261824D01*
X391262Y261817D01*
X391267Y261809D01*
X391391Y261662D01*
X391514Y261514D01*
X391521Y261509D01*
X391527Y261502D01*
X391678Y261383D01*
X391828Y261262D01*
X391836Y261258D01*
X391843Y261252D01*
X392016Y261165D01*
X392185Y261077D01*
X392194Y261074D01*
X392202Y261070D01*
X392388Y261018D01*
X392572Y260965D01*
X392581Y260964D01*
X392590Y260962D01*
X392783Y260948D01*
X392974Y260932D01*
X392982Y260933D01*
X392991Y260933D01*
X393184Y260957D01*
X393373Y260979D01*
X393382Y260982D01*
X393391Y260983D01*
X393574Y261044D01*
X393756Y261104D01*
X393764Y261108D01*
X393772Y261111D01*
X393938Y261207D01*
X394107Y261302D01*
X394114Y261308D01*
X394121Y261312D01*
X394374Y261527D01*
X396800Y263953D01*
X398684Y264733D01*
X400161Y265345D01*
X419039Y265345D01*
X422400Y263953D01*
X424973Y261380D01*
X426365Y258019D01*
X426365Y254381D01*
X424973Y251020D01*
X422400Y248447D01*
X421723Y248167D01*
X419039Y247055D01*
X400161Y247055D01*
X396800Y248447D01*
X394374Y250873D01*
X394367Y250879D01*
X394362Y250886D01*
X394212Y251006D01*
X394063Y251128D01*
X394055Y251132D01*
X394048Y251138D01*
X393878Y251226D01*
X393707Y251317D01*
X393698Y251319D01*
X393691Y251323D01*
X393506Y251376D01*
X393321Y251432D01*
X393312Y251432D01*
X393304Y251435D01*
X393113Y251451D01*
X392920Y251468D01*
X392911Y251467D01*
X392902Y251468D01*
X392713Y251446D01*
X392520Y251425D01*
X392511Y251422D01*
X392503Y251421D01*
X392321Y251361D01*
X392136Y251303D01*
X392128Y251299D01*
X392120Y251296D01*
X391951Y251201D01*
X391784Y251108D01*
X391777Y251103D01*
X391769Y251098D01*
X391623Y250972D01*
X391477Y250848D01*
X391471Y250841D01*
X391464Y250835D01*
X391347Y250684D01*
X391227Y250532D01*
X391223Y250524D01*
X391218Y250517D01*
X391132Y250345D01*
X391045Y250173D01*
X391042Y250164D01*
X391038Y250156D01*
X390988Y249970D01*
X390937Y249785D01*
X390936Y249776D01*
X390934Y249768D01*
X390907Y249437D01*
X390907Y237563D01*
X390908Y237554D01*
X390907Y237545D01*
X390928Y237354D01*
X390947Y237163D01*
X390949Y237154D01*
X390950Y237145D01*
X391008Y236963D01*
X391065Y236778D01*
X391069Y236770D01*
X391072Y236761D01*
X391165Y236593D01*
X391257Y236424D01*
X391262Y236417D01*
X391267Y236409D01*
X391391Y236262D01*
X391514Y236114D01*
X391521Y236109D01*
X391527Y236102D01*
X391678Y235983D01*
X391828Y235862D01*
X391836Y235858D01*
X391843Y235852D01*
X392016Y235765D01*
X392185Y235677D01*
X392194Y235674D01*
X392202Y235670D01*
X392388Y235618D01*
X392572Y235565D01*
X392581Y235564D01*
X392590Y235562D01*
X392783Y235548D01*
X392974Y235532D01*
X392982Y235533D01*
X392991Y235533D01*
X393184Y235557D01*
X393373Y235579D01*
X393382Y235582D01*
X393391Y235583D01*
X393574Y235644D01*
X393756Y235704D01*
X393764Y235708D01*
X393772Y235711D01*
X393938Y235807D01*
X394107Y235902D01*
X394114Y235908D01*
X394121Y235912D01*
X394374Y236127D01*
X396800Y238553D01*
X400161Y239945D01*
X419039Y239945D01*
X422400Y238553D01*
X424973Y235980D01*
X426365Y232619D01*
X426365Y228981D01*
X424973Y225620D01*
X422400Y223047D01*
X419294Y221761D01*
X419039Y221655D01*
X400161Y221655D01*
X396800Y223047D01*
X394374Y225473D01*
X394367Y225479D01*
X394362Y225486D01*
X394212Y225606D01*
X394063Y225728D01*
X394055Y225732D01*
X394048Y225738D01*
X393878Y225826D01*
X393707Y225917D01*
X393698Y225919D01*
X393691Y225923D01*
X393506Y225976D01*
X393321Y226032D01*
X393312Y226032D01*
X393304Y226035D01*
X393113Y226051D01*
X392920Y226068D01*
X392911Y226067D01*
X392902Y226068D01*
X392713Y226046D01*
X392520Y226025D01*
X392511Y226022D01*
X392503Y226021D01*
X392321Y225961D01*
X392136Y225903D01*
X392128Y225899D01*
X392120Y225896D01*
X391951Y225801D01*
X391784Y225708D01*
X391777Y225703D01*
X391769Y225698D01*
X391623Y225572D01*
X391477Y225448D01*
X391471Y225441D01*
X391464Y225435D01*
X391347Y225284D01*
X391227Y225132D01*
X391223Y225124D01*
X391218Y225117D01*
X391132Y224945D01*
X391045Y224773D01*
X391042Y224764D01*
X391038Y224756D01*
X390988Y224570D01*
X390937Y224385D01*
X390936Y224376D01*
X390934Y224368D01*
X390907Y224037D01*
X390907Y212163D01*
X390908Y212154D01*
X390907Y212145D01*
X390928Y211954D01*
X390947Y211763D01*
X390949Y211754D01*
X390950Y211745D01*
X391008Y211563D01*
X391065Y211378D01*
X391069Y211370D01*
X391072Y211361D01*
X391165Y211193D01*
X391257Y211024D01*
X391262Y211017D01*
X391267Y211009D01*
X391391Y210862D01*
X391514Y210714D01*
X391521Y210709D01*
X391527Y210702D01*
X391678Y210583D01*
X391828Y210462D01*
X391836Y210458D01*
X391843Y210452D01*
X392016Y210365D01*
X392185Y210277D01*
X392194Y210274D01*
X392202Y210270D01*
X392388Y210218D01*
X392572Y210165D01*
X392581Y210164D01*
X392590Y210162D01*
X392783Y210148D01*
X392974Y210132D01*
X392982Y210133D01*
X392991Y210133D01*
X393184Y210157D01*
X393373Y210179D01*
X393382Y210182D01*
X393391Y210183D01*
X393574Y210244D01*
X393756Y210304D01*
X393764Y210308D01*
X393772Y210311D01*
X393938Y210407D01*
X394107Y210502D01*
X394114Y210508D01*
X394121Y210512D01*
X394374Y210727D01*
X396800Y213153D01*
X400161Y214545D01*
X419039Y214545D01*
X422400Y213153D01*
X424973Y210580D01*
X426365Y207219D01*
X426365Y203581D01*
X424973Y200220D01*
X422400Y197647D01*
X419039Y196255D01*
X400161Y196255D01*
X396800Y197647D01*
X394374Y200073D01*
X394367Y200079D01*
X394362Y200086D01*
X394212Y200206D01*
X394063Y200328D01*
X394055Y200332D01*
X394048Y200338D01*
X393878Y200426D01*
X393707Y200517D01*
X393698Y200519D01*
X393691Y200523D01*
X393506Y200576D01*
X393321Y200632D01*
X393312Y200632D01*
X393304Y200635D01*
X393113Y200651D01*
X392920Y200668D01*
X392911Y200667D01*
X392902Y200668D01*
X392713Y200646D01*
X392520Y200625D01*
X392511Y200622D01*
X392503Y200621D01*
X392321Y200561D01*
X392136Y200503D01*
X392128Y200499D01*
X392120Y200496D01*
X391951Y200401D01*
X391784Y200308D01*
X391777Y200303D01*
X391769Y200298D01*
X391623Y200172D01*
X391477Y200048D01*
X391471Y200041D01*
X391464Y200035D01*
X391347Y199884D01*
X391227Y199732D01*
X391223Y199724D01*
X391218Y199717D01*
X391132Y199545D01*
X391045Y199373D01*
X391042Y199364D01*
X391038Y199356D01*
X390988Y199170D01*
X390937Y198985D01*
X390936Y198976D01*
X390934Y198968D01*
X390907Y198637D01*
X390907Y192815D01*
X390909Y192788D01*
X390907Y192761D01*
X390929Y192587D01*
X390947Y192414D01*
X390954Y192389D01*
X390958Y192362D01*
X391013Y192196D01*
X391065Y192029D01*
X391078Y192005D01*
X391086Y191980D01*
X391173Y191829D01*
X391257Y191675D01*
X391274Y191655D01*
X391287Y191631D01*
X391502Y191378D01*
X394658Y188222D01*
X394675Y188208D01*
X394689Y188191D01*
X394831Y188081D01*
X394969Y187967D01*
X394989Y187957D01*
X395006Y187943D01*
X395167Y187863D01*
X395325Y187779D01*
X395346Y187772D01*
X395366Y187762D01*
X395539Y187715D01*
X395711Y187664D01*
X395733Y187662D01*
X395754Y187656D01*
X395933Y187644D01*
X396112Y187628D01*
X396134Y187630D01*
X396156Y187628D01*
X396334Y187652D01*
X396512Y187671D01*
X396533Y187678D01*
X396555Y187681D01*
X396871Y187782D01*
X400161Y189145D01*
X419039Y189145D01*
X422400Y187753D01*
X424973Y185180D01*
X426365Y181819D01*
X426365Y178181D01*
X424973Y174820D01*
X422400Y172247D01*
X419039Y170855D01*
X400161Y170855D01*
G37*
%LPD*%
%LPC*%
G36*
X310279Y385371D02*
X310279Y385371D01*
X307291Y386609D01*
X304951Y388949D01*
X304900Y389044D01*
X304886Y389061D01*
X304875Y389081D01*
X304758Y389216D01*
X304644Y389355D01*
X304626Y389369D01*
X304612Y389386D01*
X304471Y389495D01*
X304331Y389608D01*
X304311Y389619D01*
X304294Y389632D01*
X304133Y389712D01*
X303974Y389795D01*
X303953Y389802D01*
X303933Y389812D01*
X303759Y389858D01*
X303588Y389908D01*
X303566Y389910D01*
X303544Y389916D01*
X303214Y389943D01*
X233677Y389943D01*
X212343Y411277D01*
X212343Y473935D01*
X212341Y473962D01*
X212343Y473989D01*
X212321Y474163D01*
X212303Y474336D01*
X212296Y474361D01*
X212292Y474388D01*
X212237Y474554D01*
X212185Y474721D01*
X212172Y474744D01*
X212164Y474770D01*
X212077Y474921D01*
X211993Y475075D01*
X211976Y475095D01*
X211963Y475119D01*
X211748Y475372D01*
X176922Y510198D01*
X176901Y510215D01*
X176883Y510236D01*
X176746Y510342D01*
X176610Y510453D01*
X176587Y510466D01*
X176565Y510482D01*
X176409Y510560D01*
X176254Y510642D01*
X176229Y510650D01*
X176205Y510662D01*
X176035Y510707D01*
X175869Y510757D01*
X175842Y510759D01*
X175816Y510766D01*
X175485Y510793D01*
X66777Y510793D01*
X65810Y511760D01*
X65789Y511777D01*
X65772Y511798D01*
X65633Y511905D01*
X65498Y512015D01*
X65475Y512028D01*
X65453Y512044D01*
X65297Y512122D01*
X65143Y512204D01*
X65117Y512212D01*
X65093Y512224D01*
X64924Y512269D01*
X64757Y512319D01*
X64730Y512321D01*
X64704Y512328D01*
X64373Y512355D01*
X51661Y512355D01*
X48300Y513747D01*
X45727Y516320D01*
X44335Y519681D01*
X44335Y523319D01*
X45727Y526680D01*
X48300Y529253D01*
X51661Y530645D01*
X70539Y530645D01*
X73900Y529253D01*
X76473Y526680D01*
X77865Y523319D01*
X77865Y519938D01*
X77867Y519920D01*
X77865Y519902D01*
X77886Y519720D01*
X77905Y519537D01*
X77910Y519520D01*
X77912Y519503D01*
X77969Y519328D01*
X78023Y519152D01*
X78031Y519137D01*
X78037Y519120D01*
X78127Y518960D01*
X78215Y518798D01*
X78226Y518785D01*
X78235Y518769D01*
X78355Y518630D01*
X78472Y518489D01*
X78486Y518478D01*
X78498Y518464D01*
X78643Y518352D01*
X78786Y518237D01*
X78802Y518229D01*
X78816Y518218D01*
X78981Y518136D01*
X79143Y518051D01*
X79160Y518046D01*
X79176Y518038D01*
X79355Y517991D01*
X79530Y517940D01*
X79548Y517938D01*
X79565Y517934D01*
X79896Y517907D01*
X179273Y517907D01*
X219457Y477723D01*
X219457Y415065D01*
X219459Y415038D01*
X219457Y415011D01*
X219479Y414837D01*
X219497Y414664D01*
X219504Y414639D01*
X219508Y414612D01*
X219563Y414446D01*
X219615Y414279D01*
X219628Y414256D01*
X219636Y414230D01*
X219723Y414079D01*
X219807Y413925D01*
X219824Y413905D01*
X219837Y413881D01*
X220052Y413628D01*
X236028Y397652D01*
X236049Y397635D01*
X236067Y397614D01*
X236204Y397507D01*
X236340Y397397D01*
X236363Y397384D01*
X236385Y397368D01*
X236542Y397290D01*
X236696Y397208D01*
X236721Y397200D01*
X236745Y397188D01*
X236915Y397143D01*
X237081Y397093D01*
X237108Y397091D01*
X237134Y397084D01*
X237465Y397057D01*
X303214Y397057D01*
X303236Y397059D01*
X303258Y397057D01*
X303435Y397079D01*
X303614Y397097D01*
X303635Y397103D01*
X303658Y397106D01*
X303827Y397162D01*
X303999Y397215D01*
X304019Y397225D01*
X304040Y397232D01*
X304195Y397321D01*
X304353Y397407D01*
X304370Y397421D01*
X304390Y397432D01*
X304525Y397550D01*
X304662Y397664D01*
X304676Y397682D01*
X304693Y397696D01*
X304802Y397838D01*
X304915Y397978D01*
X304925Y397998D01*
X304939Y398016D01*
X304963Y398062D01*
X307291Y400391D01*
X308343Y400827D01*
X310279Y401629D01*
X326721Y401629D01*
X329709Y400391D01*
X331995Y398105D01*
X333233Y395117D01*
X333233Y391883D01*
X331995Y388895D01*
X329709Y386609D01*
X326721Y385371D01*
X310279Y385371D01*
G37*
%LPD*%
%LPC*%
G36*
X265227Y85343D02*
X265227Y85343D01*
X244093Y106477D01*
X244093Y110433D01*
X244091Y110459D01*
X244093Y110486D01*
X244071Y110660D01*
X244053Y110833D01*
X244046Y110859D01*
X244042Y110886D01*
X243987Y111051D01*
X243935Y111218D01*
X243922Y111242D01*
X243914Y111267D01*
X243827Y111419D01*
X243743Y111572D01*
X243726Y111593D01*
X243713Y111616D01*
X243498Y111869D01*
X238505Y116862D01*
X238505Y124438D01*
X243862Y129795D01*
X251438Y129795D01*
X256795Y124438D01*
X256795Y116862D01*
X251802Y111869D01*
X251785Y111848D01*
X251764Y111831D01*
X251657Y111693D01*
X251547Y111558D01*
X251534Y111534D01*
X251518Y111513D01*
X251440Y111356D01*
X251358Y111202D01*
X251350Y111176D01*
X251338Y111152D01*
X251293Y110983D01*
X251243Y110816D01*
X251241Y110789D01*
X251234Y110763D01*
X251207Y110433D01*
X251207Y110265D01*
X251209Y110238D01*
X251207Y110211D01*
X251229Y110037D01*
X251247Y109864D01*
X251254Y109839D01*
X251258Y109812D01*
X251313Y109646D01*
X251365Y109479D01*
X251378Y109456D01*
X251386Y109430D01*
X251473Y109279D01*
X251557Y109125D01*
X251574Y109105D01*
X251587Y109081D01*
X251802Y108828D01*
X267578Y93052D01*
X267599Y93035D01*
X267617Y93014D01*
X267754Y92907D01*
X267890Y92797D01*
X267913Y92784D01*
X267935Y92768D01*
X268092Y92690D01*
X268246Y92608D01*
X268271Y92600D01*
X268295Y92588D01*
X268465Y92543D01*
X268631Y92493D01*
X268658Y92491D01*
X268684Y92484D01*
X269015Y92457D01*
X341585Y92457D01*
X341612Y92459D01*
X341639Y92457D01*
X341813Y92479D01*
X341986Y92497D01*
X342011Y92504D01*
X342038Y92508D01*
X342204Y92563D01*
X342371Y92615D01*
X342394Y92628D01*
X342420Y92636D01*
X342571Y92723D01*
X342725Y92807D01*
X342745Y92824D01*
X342769Y92837D01*
X343022Y93052D01*
X395372Y145402D01*
X395384Y145416D01*
X395397Y145428D01*
X395511Y145572D01*
X395627Y145714D01*
X395636Y145730D01*
X395647Y145744D01*
X395730Y145908D01*
X395816Y146070D01*
X395821Y146087D01*
X395829Y146103D01*
X395879Y146280D01*
X395931Y146455D01*
X395932Y146473D01*
X395937Y146490D01*
X395951Y146674D01*
X395967Y146856D01*
X395965Y146874D01*
X395967Y146892D01*
X395944Y147073D01*
X395924Y147257D01*
X395918Y147274D01*
X395916Y147291D01*
X395858Y147465D01*
X395802Y147641D01*
X395794Y147656D01*
X395788Y147673D01*
X395696Y147833D01*
X395608Y147993D01*
X395596Y148006D01*
X395587Y148022D01*
X395372Y148275D01*
X394227Y149420D01*
X392835Y152781D01*
X392835Y156419D01*
X394227Y159780D01*
X396800Y162353D01*
X398775Y163171D01*
X400161Y163745D01*
X419039Y163745D01*
X422400Y162353D01*
X424973Y159780D01*
X426365Y156419D01*
X426365Y152781D01*
X424973Y149420D01*
X422400Y146847D01*
X421814Y146605D01*
X421813Y146604D01*
X419039Y145455D01*
X406327Y145455D01*
X406300Y145453D01*
X406273Y145455D01*
X406099Y145433D01*
X405926Y145415D01*
X405900Y145408D01*
X405874Y145404D01*
X405708Y145349D01*
X405541Y145297D01*
X405517Y145284D01*
X405492Y145276D01*
X405341Y145189D01*
X405187Y145105D01*
X405167Y145088D01*
X405143Y145075D01*
X404890Y144860D01*
X401842Y141812D01*
X401837Y141805D01*
X401830Y141800D01*
X401709Y141650D01*
X401587Y141501D01*
X401583Y141493D01*
X401577Y141486D01*
X401489Y141315D01*
X401399Y141145D01*
X401396Y141137D01*
X401392Y141129D01*
X401339Y140943D01*
X401284Y140759D01*
X401283Y140750D01*
X401281Y140742D01*
X401265Y140550D01*
X401247Y140358D01*
X401248Y140349D01*
X401248Y140340D01*
X401270Y140151D01*
X401291Y139958D01*
X401294Y139949D01*
X401295Y139941D01*
X401354Y139759D01*
X401412Y139574D01*
X401417Y139566D01*
X401419Y139558D01*
X401514Y139389D01*
X401607Y139222D01*
X401613Y139215D01*
X401617Y139207D01*
X401743Y139061D01*
X401868Y138915D01*
X401875Y138909D01*
X401880Y138902D01*
X402032Y138785D01*
X402184Y138665D01*
X402192Y138661D01*
X402199Y138656D01*
X402371Y138570D01*
X402542Y138483D01*
X402551Y138480D01*
X402559Y138476D01*
X402746Y138426D01*
X402930Y138375D01*
X402939Y138374D01*
X402948Y138372D01*
X403279Y138345D01*
X419039Y138345D01*
X422400Y136953D01*
X424973Y134380D01*
X426365Y131019D01*
X426365Y127381D01*
X424973Y124020D01*
X422400Y121447D01*
X419384Y120198D01*
X419039Y120055D01*
X400161Y120055D01*
X396800Y121447D01*
X394227Y124020D01*
X392835Y127381D01*
X392835Y127901D01*
X392834Y127910D01*
X392835Y127919D01*
X392814Y128113D01*
X392795Y128302D01*
X392793Y128310D01*
X392792Y128319D01*
X392733Y128504D01*
X392677Y128687D01*
X392673Y128695D01*
X392670Y128703D01*
X392577Y128872D01*
X392485Y129041D01*
X392480Y129048D01*
X392475Y129056D01*
X392351Y129203D01*
X392228Y129350D01*
X392221Y129356D01*
X392215Y129363D01*
X392063Y129482D01*
X391914Y129603D01*
X391906Y129607D01*
X391899Y129612D01*
X391726Y129700D01*
X391557Y129788D01*
X391548Y129791D01*
X391540Y129795D01*
X391354Y129847D01*
X391170Y129899D01*
X391161Y129900D01*
X391152Y129903D01*
X390959Y129917D01*
X390768Y129932D01*
X390760Y129931D01*
X390751Y129932D01*
X390558Y129908D01*
X390369Y129885D01*
X390360Y129883D01*
X390351Y129882D01*
X390169Y129820D01*
X389986Y129761D01*
X389978Y129756D01*
X389970Y129753D01*
X389803Y129657D01*
X389635Y129563D01*
X389628Y129557D01*
X389621Y129552D01*
X389368Y129338D01*
X345373Y85343D01*
X265227Y85343D01*
G37*
%LPD*%
%LPC*%
G36*
X51661Y215330D02*
X51661Y215330D01*
X48300Y216722D01*
X45727Y219295D01*
X44335Y222656D01*
X44335Y226294D01*
X45727Y229655D01*
X48300Y232228D01*
X48313Y232233D01*
X51661Y233620D01*
X70539Y233620D01*
X73900Y232228D01*
X76473Y229655D01*
X77865Y226294D01*
X77865Y222656D01*
X76473Y219295D01*
X73900Y216722D01*
X70539Y215330D01*
X51661Y215330D01*
G37*
%LPD*%
%LPC*%
G36*
X51661Y189930D02*
X51661Y189930D01*
X48300Y191322D01*
X45727Y193895D01*
X44335Y197256D01*
X44335Y200894D01*
X45727Y204255D01*
X48300Y206828D01*
X51661Y208220D01*
X70539Y208220D01*
X73900Y206828D01*
X76473Y204255D01*
X77865Y200894D01*
X77865Y197256D01*
X76473Y193895D01*
X73900Y191322D01*
X73827Y191292D01*
X73826Y191292D01*
X70539Y189930D01*
X51661Y189930D01*
G37*
%LPD*%
%LPC*%
G36*
X51661Y319455D02*
X51661Y319455D01*
X48300Y320847D01*
X45727Y323420D01*
X44335Y326781D01*
X44335Y330419D01*
X45727Y333780D01*
X48300Y336353D01*
X51661Y337745D01*
X70539Y337745D01*
X73900Y336353D01*
X76473Y333780D01*
X77865Y330419D01*
X77865Y326781D01*
X76473Y323420D01*
X73900Y320847D01*
X70539Y319455D01*
X51661Y319455D01*
G37*
%LPD*%
%LPC*%
G36*
X51661Y461555D02*
X51661Y461555D01*
X48300Y462947D01*
X45727Y465520D01*
X44335Y468881D01*
X44335Y472519D01*
X45727Y475880D01*
X48300Y478453D01*
X51661Y479845D01*
X70539Y479845D01*
X73900Y478453D01*
X76473Y475880D01*
X77865Y472519D01*
X77865Y468881D01*
X76473Y465520D01*
X73900Y462947D01*
X70539Y461555D01*
X51661Y461555D01*
G37*
%LPD*%
%LPC*%
G36*
X553761Y424855D02*
X553761Y424855D01*
X550400Y426247D01*
X547827Y428820D01*
X546435Y432181D01*
X546435Y435819D01*
X547827Y439180D01*
X550400Y441753D01*
X553761Y443145D01*
X572639Y443145D01*
X576000Y441753D01*
X578573Y439180D01*
X579965Y435819D01*
X579965Y432181D01*
X578573Y428820D01*
X576000Y426247D01*
X572639Y424855D01*
X553761Y424855D01*
G37*
%LPD*%
%LPC*%
G36*
X400161Y94655D02*
X400161Y94655D01*
X396800Y96047D01*
X394227Y98620D01*
X392835Y101981D01*
X392835Y105619D01*
X394227Y108980D01*
X396800Y111553D01*
X400161Y112945D01*
X419039Y112945D01*
X422400Y111553D01*
X424973Y108980D01*
X426365Y105619D01*
X426365Y101981D01*
X424973Y98620D01*
X422400Y96047D01*
X419039Y94655D01*
X400161Y94655D01*
G37*
%LPD*%
%LPC*%
G36*
X553761Y94655D02*
X553761Y94655D01*
X550400Y96047D01*
X547827Y98620D01*
X546435Y101981D01*
X546435Y105619D01*
X547827Y108980D01*
X550400Y111553D01*
X553761Y112945D01*
X572639Y112945D01*
X576000Y111553D01*
X578573Y108980D01*
X579965Y105619D01*
X579965Y101981D01*
X578573Y98620D01*
X576000Y96047D01*
X572639Y94655D01*
X553761Y94655D01*
G37*
%LPD*%
%LPC*%
G36*
X553761Y297855D02*
X553761Y297855D01*
X550400Y299247D01*
X547827Y301820D01*
X546435Y305181D01*
X546435Y308819D01*
X547827Y312180D01*
X550400Y314753D01*
X553761Y316145D01*
X572639Y316145D01*
X576000Y314753D01*
X578573Y312180D01*
X579965Y308819D01*
X579965Y305181D01*
X578573Y301820D01*
X576000Y299247D01*
X572639Y297855D01*
X553761Y297855D01*
G37*
%LPD*%
%LPC*%
G36*
X51661Y344855D02*
X51661Y344855D01*
X48300Y346247D01*
X45727Y348820D01*
X44335Y352181D01*
X44335Y355819D01*
X45727Y359180D01*
X48300Y361753D01*
X51661Y363145D01*
X70539Y363145D01*
X73900Y361753D01*
X76473Y359180D01*
X77865Y355819D01*
X77865Y352181D01*
X76473Y348820D01*
X73900Y346247D01*
X70539Y344855D01*
X51661Y344855D01*
G37*
%LPD*%
%LPC*%
G36*
X400161Y501055D02*
X400161Y501055D01*
X396800Y502447D01*
X394227Y505020D01*
X392835Y508381D01*
X392835Y512019D01*
X394227Y515380D01*
X396800Y517953D01*
X400161Y519345D01*
X419039Y519345D01*
X422400Y517953D01*
X424973Y515380D01*
X426365Y512019D01*
X426365Y508381D01*
X424973Y505020D01*
X422400Y502447D01*
X419039Y501055D01*
X400161Y501055D01*
G37*
%LPD*%
%LPC*%
G36*
X553761Y69255D02*
X553761Y69255D01*
X550400Y70647D01*
X547827Y73220D01*
X546435Y76581D01*
X546435Y80219D01*
X547827Y83580D01*
X550400Y86153D01*
X553761Y87545D01*
X572639Y87545D01*
X576000Y86153D01*
X578573Y83580D01*
X579965Y80219D01*
X579965Y76581D01*
X578573Y73220D01*
X576000Y70647D01*
X572639Y69255D01*
X553761Y69255D01*
G37*
%LPD*%
%LPC*%
G36*
X51661Y410755D02*
X51661Y410755D01*
X48300Y412147D01*
X45727Y414720D01*
X44335Y418081D01*
X44335Y421719D01*
X45727Y425080D01*
X48300Y427653D01*
X51661Y429045D01*
X70539Y429045D01*
X73900Y427653D01*
X76473Y425080D01*
X77865Y421719D01*
X77865Y418081D01*
X76473Y414720D01*
X73900Y412147D01*
X70539Y410755D01*
X51661Y410755D01*
G37*
%LPD*%
%LPC*%
G36*
X553761Y170855D02*
X553761Y170855D01*
X550400Y172247D01*
X547827Y174820D01*
X546435Y178181D01*
X546435Y181819D01*
X547827Y185180D01*
X550400Y187753D01*
X553761Y189145D01*
X572639Y189145D01*
X576000Y187753D01*
X578573Y185180D01*
X579965Y181819D01*
X579965Y178181D01*
X578573Y174820D01*
X576000Y172247D01*
X572639Y170855D01*
X553761Y170855D01*
G37*
%LPD*%
%LPC*%
G36*
X553761Y272455D02*
X553761Y272455D01*
X550400Y273847D01*
X547827Y276420D01*
X546435Y279781D01*
X546435Y283419D01*
X547827Y286780D01*
X550400Y289353D01*
X553761Y290745D01*
X572639Y290745D01*
X576000Y289353D01*
X578573Y286780D01*
X579965Y283419D01*
X579965Y279781D01*
X578573Y276420D01*
X576000Y273847D01*
X572639Y272455D01*
X553761Y272455D01*
G37*
%LPD*%
%LPC*%
G36*
X51661Y486955D02*
X51661Y486955D01*
X48300Y488347D01*
X45727Y490920D01*
X44335Y494281D01*
X44335Y497919D01*
X45727Y501280D01*
X48300Y503853D01*
X51661Y505245D01*
X70539Y505245D01*
X73900Y503853D01*
X76473Y501280D01*
X77865Y497919D01*
X77865Y494281D01*
X76473Y490920D01*
X73900Y488347D01*
X70539Y486955D01*
X51661Y486955D01*
G37*
%LPD*%
%LPC*%
G36*
X553761Y374055D02*
X553761Y374055D01*
X550400Y375447D01*
X547827Y378020D01*
X546435Y381381D01*
X546435Y385019D01*
X547827Y388380D01*
X550400Y390953D01*
X553761Y392345D01*
X572639Y392345D01*
X576000Y390953D01*
X578573Y388380D01*
X579965Y385019D01*
X579965Y381381D01*
X578573Y378020D01*
X576000Y375447D01*
X572639Y374055D01*
X553761Y374055D01*
G37*
%LPD*%
%LPC*%
G36*
X553761Y475655D02*
X553761Y475655D01*
X550400Y477047D01*
X547827Y479620D01*
X546435Y482981D01*
X546435Y486619D01*
X547827Y489980D01*
X550400Y492553D01*
X553761Y493945D01*
X572639Y493945D01*
X576000Y492553D01*
X578573Y489980D01*
X579965Y486619D01*
X579965Y482981D01*
X578573Y479620D01*
X576000Y477047D01*
X572639Y475655D01*
X553761Y475655D01*
G37*
%LPD*%
%LPC*%
G36*
X400161Y475655D02*
X400161Y475655D01*
X396800Y477047D01*
X394227Y479620D01*
X392835Y482981D01*
X392835Y486619D01*
X394227Y489980D01*
X396800Y492553D01*
X400161Y493945D01*
X419039Y493945D01*
X422400Y492553D01*
X424973Y489980D01*
X426365Y486619D01*
X426365Y482981D01*
X424973Y479620D01*
X422400Y477047D01*
X419039Y475655D01*
X400161Y475655D01*
G37*
%LPD*%
%LPC*%
G36*
X400161Y424855D02*
X400161Y424855D01*
X396800Y426247D01*
X394227Y428820D01*
X392835Y432181D01*
X392835Y435819D01*
X394227Y439180D01*
X396800Y441753D01*
X400161Y443145D01*
X419039Y443145D01*
X422400Y441753D01*
X424973Y439180D01*
X426365Y435819D01*
X426365Y432181D01*
X424973Y428820D01*
X422400Y426247D01*
X419039Y424855D01*
X400161Y424855D01*
G37*
%LPD*%
%LPC*%
G36*
X553761Y399455D02*
X553761Y399455D01*
X550400Y400847D01*
X547827Y403420D01*
X546435Y406781D01*
X546435Y410419D01*
X547827Y413780D01*
X550400Y416353D01*
X553761Y417745D01*
X572639Y417745D01*
X576000Y416353D01*
X578573Y413780D01*
X579965Y410419D01*
X579965Y406781D01*
X578573Y403420D01*
X576000Y400847D01*
X572639Y399455D01*
X553761Y399455D01*
G37*
%LPD*%
%LPC*%
G36*
X400161Y399455D02*
X400161Y399455D01*
X396800Y400847D01*
X394227Y403420D01*
X392835Y406781D01*
X392835Y410419D01*
X394227Y413780D01*
X396800Y416353D01*
X400161Y417745D01*
X419039Y417745D01*
X422400Y416353D01*
X424973Y413780D01*
X426365Y410419D01*
X426365Y406781D01*
X424973Y403420D01*
X422400Y400847D01*
X419039Y399455D01*
X400161Y399455D01*
G37*
%LPD*%
%LPC*%
G36*
X553761Y526455D02*
X553761Y526455D01*
X550400Y527847D01*
X547827Y530420D01*
X546435Y533781D01*
X546435Y537419D01*
X547827Y540780D01*
X550400Y543353D01*
X553761Y544745D01*
X572639Y544745D01*
X576000Y543353D01*
X578573Y540780D01*
X579965Y537419D01*
X579965Y533781D01*
X578573Y530420D01*
X576000Y527847D01*
X572639Y526455D01*
X553761Y526455D01*
G37*
%LPD*%
%LPC*%
G36*
X400161Y526455D02*
X400161Y526455D01*
X396800Y527847D01*
X394227Y530420D01*
X392835Y533781D01*
X392835Y537419D01*
X394227Y540780D01*
X396800Y543353D01*
X400161Y544745D01*
X419039Y544745D01*
X422400Y543353D01*
X424973Y540780D01*
X426365Y537419D01*
X426365Y533781D01*
X424973Y530420D01*
X422400Y527847D01*
X419039Y526455D01*
X400161Y526455D01*
G37*
%LPD*%
%LPC*%
G36*
X553761Y196255D02*
X553761Y196255D01*
X550400Y197647D01*
X547827Y200220D01*
X546435Y203581D01*
X546435Y207219D01*
X547827Y210580D01*
X550400Y213153D01*
X553761Y214545D01*
X572639Y214545D01*
X576000Y213153D01*
X578573Y210580D01*
X579965Y207219D01*
X579965Y203581D01*
X578573Y200220D01*
X576000Y197647D01*
X572639Y196255D01*
X553761Y196255D01*
G37*
%LPD*%
%LPC*%
G36*
X51661Y294055D02*
X51661Y294055D01*
X48300Y295447D01*
X45727Y298020D01*
X44335Y301381D01*
X44335Y305019D01*
X45727Y308380D01*
X48300Y310953D01*
X49505Y311452D01*
X51661Y312345D01*
X70539Y312345D01*
X73900Y310953D01*
X76473Y308380D01*
X77865Y305019D01*
X77865Y301381D01*
X76473Y298020D01*
X73900Y295447D01*
X72544Y294886D01*
X70539Y294055D01*
X51661Y294055D01*
G37*
%LPD*%
%LPC*%
G36*
X553761Y247055D02*
X553761Y247055D01*
X550400Y248447D01*
X547827Y251020D01*
X546435Y254381D01*
X546435Y258019D01*
X547827Y261380D01*
X550400Y263953D01*
X552284Y264733D01*
X553761Y265345D01*
X572639Y265345D01*
X576000Y263953D01*
X578573Y261380D01*
X579965Y258019D01*
X579965Y254381D01*
X578573Y251020D01*
X576000Y248447D01*
X575323Y248167D01*
X572639Y247055D01*
X553761Y247055D01*
G37*
%LPD*%
%LPC*%
G36*
X51661Y436155D02*
X51661Y436155D01*
X48300Y437547D01*
X45727Y440120D01*
X44335Y443481D01*
X44335Y447119D01*
X45727Y450480D01*
X48300Y453053D01*
X51661Y454445D01*
X70539Y454445D01*
X73900Y453053D01*
X76473Y450480D01*
X77865Y447119D01*
X77865Y443481D01*
X76473Y440120D01*
X73900Y437547D01*
X72755Y437073D01*
X70539Y436155D01*
X51661Y436155D01*
G37*
%LPD*%
%LPC*%
G36*
X553761Y120055D02*
X553761Y120055D01*
X550400Y121447D01*
X547827Y124020D01*
X546435Y127381D01*
X546435Y131019D01*
X547827Y134380D01*
X550400Y136953D01*
X553761Y138345D01*
X572639Y138345D01*
X576000Y136953D01*
X578573Y134380D01*
X579965Y131019D01*
X579965Y127381D01*
X578573Y124020D01*
X576000Y121447D01*
X572984Y120198D01*
X572639Y120055D01*
X553761Y120055D01*
G37*
%LPD*%
%LPC*%
G36*
X553761Y348655D02*
X553761Y348655D01*
X550400Y350047D01*
X547827Y352620D01*
X546435Y355981D01*
X546435Y359619D01*
X547827Y362980D01*
X550400Y365553D01*
X552194Y366296D01*
X553761Y366945D01*
X572639Y366945D01*
X576000Y365553D01*
X578573Y362980D01*
X579965Y359619D01*
X579965Y355981D01*
X578573Y352620D01*
X576000Y350047D01*
X575232Y349730D01*
X575232Y349729D01*
X572639Y348655D01*
X553761Y348655D01*
G37*
%LPD*%
%LPC*%
G36*
X51661Y88330D02*
X51661Y88330D01*
X48300Y89722D01*
X45727Y92295D01*
X44335Y95656D01*
X44335Y99294D01*
X45727Y102655D01*
X48300Y105228D01*
X50878Y106296D01*
X51661Y106620D01*
X70539Y106620D01*
X73900Y105228D01*
X76473Y102655D01*
X77865Y99294D01*
X77865Y95656D01*
X76473Y92295D01*
X73900Y89722D01*
X70539Y88330D01*
X51661Y88330D01*
G37*
%LPD*%
%LPC*%
G36*
X553761Y43855D02*
X553761Y43855D01*
X550400Y45247D01*
X547827Y47820D01*
X546435Y51181D01*
X546435Y54819D01*
X547827Y58180D01*
X550400Y60753D01*
X552465Y61608D01*
X553761Y62145D01*
X572639Y62145D01*
X576000Y60753D01*
X578573Y58180D01*
X579965Y54819D01*
X579965Y51181D01*
X578573Y47820D01*
X576000Y45247D01*
X572639Y43855D01*
X553761Y43855D01*
G37*
%LPD*%
%LPC*%
G36*
X400161Y450255D02*
X400161Y450255D01*
X396800Y451647D01*
X394227Y454220D01*
X392835Y457581D01*
X392835Y461219D01*
X394227Y464580D01*
X396800Y467153D01*
X398503Y467858D01*
X400161Y468545D01*
X419039Y468545D01*
X422400Y467153D01*
X424973Y464580D01*
X426365Y461219D01*
X426365Y457581D01*
X424973Y454220D01*
X422400Y451647D01*
X421542Y451292D01*
X419039Y450255D01*
X400161Y450255D01*
G37*
%LPD*%
%LPC*%
G36*
X553761Y450255D02*
X553761Y450255D01*
X550400Y451647D01*
X547827Y454220D01*
X546435Y457581D01*
X546435Y461219D01*
X547827Y464580D01*
X550400Y467153D01*
X552103Y467858D01*
X553761Y468545D01*
X572639Y468545D01*
X576000Y467153D01*
X578573Y464580D01*
X579965Y461219D01*
X579965Y457581D01*
X578573Y454220D01*
X576000Y451647D01*
X575142Y451292D01*
X572639Y450255D01*
X553761Y450255D01*
G37*
%LPD*%
%LPC*%
G36*
X553761Y323255D02*
X553761Y323255D01*
X550400Y324647D01*
X547827Y327220D01*
X546435Y330581D01*
X546435Y334219D01*
X547827Y337580D01*
X550400Y340153D01*
X553761Y341545D01*
X572639Y341545D01*
X576000Y340153D01*
X578573Y337580D01*
X579965Y334219D01*
X579965Y330581D01*
X578573Y327220D01*
X576000Y324647D01*
X572803Y323323D01*
X572639Y323255D01*
X553761Y323255D01*
G37*
%LPD*%
%LPC*%
G36*
X553761Y221655D02*
X553761Y221655D01*
X550400Y223047D01*
X547827Y225620D01*
X546435Y228981D01*
X546435Y232619D01*
X547827Y235980D01*
X550400Y238553D01*
X553761Y239945D01*
X572639Y239945D01*
X576000Y238553D01*
X578573Y235980D01*
X579965Y232619D01*
X579965Y228981D01*
X578573Y225620D01*
X576000Y223047D01*
X572894Y221761D01*
X572639Y221655D01*
X553761Y221655D01*
G37*
%LPD*%
%LPC*%
G36*
X553761Y145455D02*
X553761Y145455D01*
X550400Y146847D01*
X547827Y149420D01*
X546435Y152781D01*
X546435Y156419D01*
X547827Y159780D01*
X550400Y162353D01*
X552375Y163171D01*
X553761Y163745D01*
X572639Y163745D01*
X576000Y162353D01*
X578573Y159780D01*
X579965Y156419D01*
X579965Y152781D01*
X578573Y149420D01*
X576000Y146847D01*
X575414Y146605D01*
X575413Y146604D01*
X572639Y145455D01*
X553761Y145455D01*
G37*
%LPD*%
%LPC*%
G36*
X247370Y443063D02*
X247370Y443063D01*
X244196Y444378D01*
X241766Y446808D01*
X240451Y449982D01*
X240451Y453418D01*
X241766Y456592D01*
X244196Y459022D01*
X247370Y460337D01*
X265030Y460337D01*
X268204Y459022D01*
X270634Y456592D01*
X271949Y453418D01*
X271949Y449982D01*
X270634Y446808D01*
X268204Y444378D01*
X265030Y443063D01*
X247370Y443063D01*
G37*
%LPD*%
%LPC*%
G36*
X171170Y417663D02*
X171170Y417663D01*
X167996Y418978D01*
X165566Y421408D01*
X164251Y424582D01*
X164251Y428018D01*
X165566Y431192D01*
X167996Y433622D01*
X171170Y434937D01*
X188830Y434937D01*
X192004Y433622D01*
X194434Y431192D01*
X195749Y428018D01*
X195749Y424582D01*
X194434Y421408D01*
X192004Y418978D01*
X188830Y417663D01*
X171170Y417663D01*
G37*
%LPD*%
%LPC*%
G36*
X247370Y544663D02*
X247370Y544663D01*
X244196Y545978D01*
X241766Y548408D01*
X240451Y551582D01*
X240451Y555018D01*
X241766Y558192D01*
X244196Y560622D01*
X247370Y561937D01*
X265030Y561937D01*
X268204Y560622D01*
X270634Y558192D01*
X271949Y555018D01*
X271949Y551582D01*
X270634Y548408D01*
X268204Y545978D01*
X265030Y544663D01*
X247370Y544663D01*
G37*
%LPD*%
%LPC*%
G36*
X247370Y417663D02*
X247370Y417663D01*
X244196Y418978D01*
X241766Y421408D01*
X240451Y424582D01*
X240451Y428018D01*
X241766Y431192D01*
X244196Y433622D01*
X247370Y434937D01*
X265030Y434937D01*
X268204Y433622D01*
X270634Y431192D01*
X271949Y428018D01*
X271949Y424582D01*
X270634Y421408D01*
X268204Y418978D01*
X265030Y417663D01*
X247370Y417663D01*
G37*
%LPD*%
%LPC*%
G36*
X171170Y443063D02*
X171170Y443063D01*
X167996Y444378D01*
X165566Y446808D01*
X164251Y449982D01*
X164251Y453418D01*
X165566Y456592D01*
X167996Y459022D01*
X171170Y460337D01*
X188830Y460337D01*
X192004Y459022D01*
X194434Y456592D01*
X195749Y453418D01*
X195749Y449982D01*
X194434Y446808D01*
X192004Y444378D01*
X188830Y443063D01*
X171170Y443063D01*
G37*
%LPD*%
%LPC*%
G36*
X171170Y544663D02*
X171170Y544663D01*
X167996Y545978D01*
X165566Y548408D01*
X164251Y551582D01*
X164251Y555018D01*
X165566Y558192D01*
X167996Y560622D01*
X171170Y561937D01*
X188830Y561937D01*
X192004Y560622D01*
X194434Y558192D01*
X195749Y555018D01*
X195749Y551582D01*
X194434Y548408D01*
X192004Y545978D01*
X188830Y544663D01*
X171170Y544663D01*
G37*
%LPD*%
%LPC*%
G36*
X90979Y240521D02*
X90979Y240521D01*
X87991Y241759D01*
X85705Y244045D01*
X84467Y247033D01*
X84467Y250267D01*
X85705Y253255D01*
X87991Y255541D01*
X90979Y256779D01*
X107421Y256779D01*
X110409Y255541D01*
X112695Y253255D01*
X113933Y250267D01*
X113933Y247033D01*
X112695Y244045D01*
X110409Y241759D01*
X107421Y240521D01*
X90979Y240521D01*
G37*
%LPD*%
%LPC*%
G36*
X310279Y461571D02*
X310279Y461571D01*
X307291Y462809D01*
X305005Y465095D01*
X303767Y468083D01*
X303767Y471317D01*
X305005Y474305D01*
X307291Y476591D01*
X310279Y477829D01*
X326721Y477829D01*
X329709Y476591D01*
X331995Y474305D01*
X333233Y471317D01*
X333233Y468083D01*
X331995Y465095D01*
X329709Y462809D01*
X326721Y461571D01*
X310279Y461571D01*
G37*
%LPD*%
%LPC*%
G36*
X167179Y240521D02*
X167179Y240521D01*
X164191Y241759D01*
X161905Y244045D01*
X160667Y247033D01*
X160667Y250267D01*
X161905Y253255D01*
X164191Y255541D01*
X167179Y256779D01*
X183621Y256779D01*
X186609Y255541D01*
X188895Y253255D01*
X190133Y250267D01*
X190133Y247033D01*
X188895Y244045D01*
X186609Y241759D01*
X183621Y240521D01*
X167179Y240521D01*
G37*
%LPD*%
%LPC*%
G36*
X310279Y308171D02*
X310279Y308171D01*
X307291Y309409D01*
X305005Y311695D01*
X303767Y314683D01*
X303767Y317917D01*
X305005Y320905D01*
X307291Y323191D01*
X310279Y324429D01*
X326721Y324429D01*
X329709Y323191D01*
X331995Y320905D01*
X333233Y317917D01*
X333233Y314683D01*
X331995Y311695D01*
X329709Y309409D01*
X326721Y308171D01*
X310279Y308171D01*
G37*
%LPD*%
%LPC*%
G36*
X310279Y359971D02*
X310279Y359971D01*
X307291Y361209D01*
X305005Y363495D01*
X303767Y366483D01*
X303767Y369717D01*
X305005Y372705D01*
X307291Y374991D01*
X310279Y376229D01*
X326721Y376229D01*
X329709Y374991D01*
X331995Y372705D01*
X333233Y369717D01*
X333233Y366483D01*
X331995Y363495D01*
X329709Y361209D01*
X326721Y359971D01*
X310279Y359971D01*
G37*
%LPD*%
%LPC*%
G36*
X310279Y282771D02*
X310279Y282771D01*
X307291Y284009D01*
X305005Y286295D01*
X303767Y289283D01*
X303767Y292517D01*
X305005Y295505D01*
X307291Y297791D01*
X310279Y299029D01*
X326721Y299029D01*
X329709Y297791D01*
X331995Y295505D01*
X333233Y292517D01*
X333233Y289283D01*
X331995Y286295D01*
X329709Y284009D01*
X326721Y282771D01*
X310279Y282771D01*
G37*
%LPD*%
%LPC*%
G36*
X310279Y436171D02*
X310279Y436171D01*
X307291Y437409D01*
X305005Y439695D01*
X303767Y442683D01*
X303767Y445917D01*
X305005Y448905D01*
X307291Y451191D01*
X310279Y452429D01*
X326721Y452429D01*
X329709Y451191D01*
X331995Y448905D01*
X333233Y445917D01*
X333233Y442683D01*
X331995Y439695D01*
X329709Y437409D01*
X328899Y437073D01*
X328898Y437073D01*
X326721Y436171D01*
X310279Y436171D01*
G37*
%LPD*%
%LPC*%
G36*
X323850Y125221D02*
X323850Y125221D01*
X314705Y125221D01*
X314705Y126978D01*
X320288Y132561D01*
X320345Y132592D01*
X320516Y132685D01*
X320519Y132687D01*
X320523Y132690D01*
X320676Y132818D01*
X320825Y132942D01*
X320828Y132946D01*
X320831Y132949D01*
X320956Y133105D01*
X321077Y133256D01*
X321079Y133260D01*
X321082Y133263D01*
X321175Y133444D01*
X321263Y133613D01*
X321264Y133618D01*
X321266Y133622D01*
X321320Y133810D01*
X321374Y134000D01*
X321375Y134005D01*
X321376Y134009D01*
X321391Y134201D01*
X321407Y134402D01*
X321407Y134406D01*
X321407Y134410D01*
X321384Y134602D01*
X321360Y134801D01*
X321359Y134806D01*
X321358Y134810D01*
X321297Y134995D01*
X321235Y135184D01*
X321233Y135188D01*
X321232Y135192D01*
X321135Y135361D01*
X321038Y135535D01*
X321035Y135538D01*
X321032Y135542D01*
X320905Y135689D01*
X320774Y135839D01*
X320771Y135842D01*
X320768Y135846D01*
X320611Y135966D01*
X320456Y136086D01*
X320452Y136088D01*
X320449Y136091D01*
X320154Y136243D01*
X319245Y136619D01*
X316959Y138905D01*
X315721Y141893D01*
X315721Y145127D01*
X316959Y148115D01*
X319245Y150401D01*
X322233Y151639D01*
X325467Y151639D01*
X328455Y150401D01*
X330741Y148115D01*
X331979Y145127D01*
X331979Y141893D01*
X330741Y138905D01*
X328455Y136619D01*
X327546Y136243D01*
X327542Y136240D01*
X327538Y136239D01*
X327367Y136146D01*
X327192Y136052D01*
X327188Y136050D01*
X327184Y136047D01*
X327034Y135922D01*
X326881Y135796D01*
X326878Y135793D01*
X326875Y135790D01*
X326752Y135637D01*
X326627Y135483D01*
X326625Y135479D01*
X326623Y135476D01*
X326533Y135303D01*
X326440Y135127D01*
X326439Y135123D01*
X326437Y135119D01*
X326383Y134931D01*
X326327Y134740D01*
X326327Y134736D01*
X326326Y134732D01*
X326309Y134533D01*
X326293Y134339D01*
X326293Y134335D01*
X326293Y134330D01*
X326316Y134136D01*
X326338Y133939D01*
X326339Y133935D01*
X326340Y133931D01*
X326401Y133743D01*
X326461Y133556D01*
X326463Y133552D01*
X326465Y133548D01*
X326561Y133376D01*
X326657Y133204D01*
X326660Y133201D01*
X326662Y133197D01*
X326791Y133049D01*
X326919Y132899D01*
X326923Y132896D01*
X326926Y132892D01*
X327080Y132772D01*
X327236Y132650D01*
X327240Y132648D01*
X327244Y132646D01*
X327409Y132563D01*
X332995Y126978D01*
X332995Y125221D01*
X323850Y125221D01*
X323850Y125221D01*
G37*
%LPD*%
%LPC*%
G36*
X185100Y203171D02*
X185100Y203171D01*
X175955Y203171D01*
X175955Y204928D01*
X181538Y210511D01*
X181592Y210540D01*
X181766Y210635D01*
X181769Y210637D01*
X181773Y210640D01*
X181924Y210766D01*
X182075Y210892D01*
X182078Y210896D01*
X182081Y210899D01*
X182205Y211054D01*
X182327Y211206D01*
X182330Y211210D01*
X182332Y211214D01*
X182423Y211391D01*
X182513Y211563D01*
X182514Y211568D01*
X182516Y211572D01*
X182570Y211763D01*
X182624Y211950D01*
X182625Y211955D01*
X182626Y211959D01*
X182641Y212155D01*
X182657Y212352D01*
X182657Y212356D01*
X182657Y212360D01*
X182633Y212555D01*
X182610Y212751D01*
X182609Y212756D01*
X182608Y212760D01*
X182547Y212946D01*
X182486Y213134D01*
X182483Y213138D01*
X182482Y213142D01*
X182387Y213309D01*
X182288Y213485D01*
X182285Y213488D01*
X182282Y213492D01*
X182153Y213641D01*
X182024Y213789D01*
X182021Y213792D01*
X182018Y213796D01*
X181860Y213917D01*
X181706Y214036D01*
X181702Y214038D01*
X181699Y214041D01*
X181404Y214193D01*
X180495Y214569D01*
X178209Y216855D01*
X176971Y219843D01*
X176971Y223077D01*
X178209Y226065D01*
X180495Y228351D01*
X183483Y229589D01*
X186717Y229589D01*
X189705Y228351D01*
X191991Y226065D01*
X193229Y223077D01*
X193229Y219843D01*
X191991Y216855D01*
X189705Y214569D01*
X188796Y214193D01*
X188792Y214191D01*
X188788Y214189D01*
X188615Y214096D01*
X188442Y214002D01*
X188438Y214000D01*
X188434Y213997D01*
X188284Y213872D01*
X188131Y213746D01*
X188128Y213743D01*
X188125Y213740D01*
X188001Y213586D01*
X187877Y213433D01*
X187875Y213429D01*
X187873Y213426D01*
X187783Y213254D01*
X187690Y213077D01*
X187689Y213073D01*
X187687Y213069D01*
X187632Y212878D01*
X187577Y212690D01*
X187577Y212686D01*
X187576Y212682D01*
X187559Y212481D01*
X187543Y212289D01*
X187543Y212285D01*
X187543Y212280D01*
X187566Y212085D01*
X187588Y211889D01*
X187589Y211885D01*
X187590Y211881D01*
X187651Y211693D01*
X187711Y211506D01*
X187713Y211502D01*
X187714Y211498D01*
X187812Y211325D01*
X187907Y211154D01*
X187910Y211151D01*
X187912Y211147D01*
X188040Y210999D01*
X188169Y210849D01*
X188173Y210846D01*
X188176Y210842D01*
X188331Y210722D01*
X188486Y210600D01*
X188490Y210598D01*
X188494Y210596D01*
X188659Y210513D01*
X194245Y204928D01*
X194245Y203171D01*
X185100Y203171D01*
X185100Y203171D01*
G37*
%LPD*%
%LPC*%
G36*
X255029Y175843D02*
X255029Y175843D01*
X251388Y177351D01*
X248601Y180138D01*
X247093Y183779D01*
X247093Y187721D01*
X248601Y191362D01*
X251388Y194149D01*
X255029Y195657D01*
X258971Y195657D01*
X262612Y194149D01*
X265399Y191362D01*
X266907Y187721D01*
X266907Y183779D01*
X265399Y180138D01*
X262612Y177351D01*
X261940Y177073D01*
X258971Y175843D01*
X255029Y175843D01*
G37*
%LPD*%
%LPC*%
G36*
X305829Y175843D02*
X305829Y175843D01*
X302188Y177351D01*
X299401Y180138D01*
X297893Y183779D01*
X297893Y187721D01*
X299401Y191362D01*
X302188Y194149D01*
X305829Y195657D01*
X309771Y195657D01*
X313412Y194149D01*
X316199Y191362D01*
X317707Y187721D01*
X317707Y183779D01*
X316199Y180138D01*
X313412Y177351D01*
X312740Y177073D01*
X309771Y175843D01*
X305829Y175843D01*
G37*
%LPD*%
%LPC*%
G36*
X471704Y152824D02*
X471704Y152824D01*
X466124Y158404D01*
X466124Y166296D01*
X471704Y171876D01*
X479596Y171876D01*
X485176Y166296D01*
X485176Y158404D01*
X479596Y152824D01*
X471704Y152824D01*
G37*
%LPD*%
%LPC*%
G36*
X446304Y152824D02*
X446304Y152824D01*
X440724Y158404D01*
X440724Y166296D01*
X446304Y171876D01*
X454196Y171876D01*
X459776Y166296D01*
X459776Y158404D01*
X454196Y152824D01*
X446304Y152824D01*
G37*
%LPD*%
%LPC*%
G36*
X446304Y76624D02*
X446304Y76624D01*
X440724Y82204D01*
X440724Y90096D01*
X446304Y95676D01*
X454196Y95676D01*
X459776Y90096D01*
X459776Y82204D01*
X454196Y76624D01*
X446304Y76624D01*
G37*
%LPD*%
%LPC*%
G36*
X522504Y152824D02*
X522504Y152824D01*
X516924Y158404D01*
X516924Y166296D01*
X522504Y171876D01*
X530396Y171876D01*
X535976Y166296D01*
X535976Y158404D01*
X530396Y152824D01*
X522504Y152824D01*
G37*
%LPD*%
%LPC*%
G36*
X621912Y399855D02*
X621912Y399855D01*
X616555Y405212D01*
X616555Y412788D01*
X621912Y418145D01*
X629488Y418145D01*
X634845Y412788D01*
X634845Y405212D01*
X629488Y399855D01*
X621912Y399855D01*
G37*
%LPD*%
%LPC*%
G36*
X596512Y374455D02*
X596512Y374455D01*
X591155Y379812D01*
X591155Y387388D01*
X596512Y392745D01*
X604088Y392745D01*
X609445Y387388D01*
X609445Y379812D01*
X604088Y374455D01*
X596512Y374455D01*
G37*
%LPD*%
%LPC*%
G36*
X193062Y136905D02*
X193062Y136905D01*
X187705Y142262D01*
X187705Y149838D01*
X193062Y155195D01*
X200638Y155195D01*
X205995Y149838D01*
X205995Y142262D01*
X200638Y136905D01*
X193062Y136905D01*
G37*
%LPD*%
%LPC*%
G36*
X596512Y425255D02*
X596512Y425255D01*
X591155Y430612D01*
X591155Y438188D01*
X596512Y443545D01*
X604088Y443545D01*
X609445Y438188D01*
X609445Y430612D01*
X604088Y425255D01*
X596512Y425255D01*
G37*
%LPD*%
%LPC*%
G36*
X167662Y136905D02*
X167662Y136905D01*
X162305Y142262D01*
X162305Y149838D01*
X167662Y155195D01*
X175238Y155195D01*
X180595Y149838D01*
X180595Y142262D01*
X175238Y136905D01*
X167662Y136905D01*
G37*
%LPD*%
%LPC*%
G36*
X621912Y425255D02*
X621912Y425255D01*
X616555Y430612D01*
X616555Y438188D01*
X621912Y443545D01*
X629488Y443545D01*
X634845Y438188D01*
X634845Y430612D01*
X629488Y425255D01*
X621912Y425255D01*
G37*
%LPD*%
%LPC*%
G36*
X269262Y136905D02*
X269262Y136905D01*
X263905Y142262D01*
X263905Y149838D01*
X269262Y155195D01*
X276838Y155195D01*
X282195Y149838D01*
X282195Y142262D01*
X276838Y136905D01*
X269262Y136905D01*
G37*
%LPD*%
%LPC*%
G36*
X218462Y136905D02*
X218462Y136905D01*
X213105Y142262D01*
X213105Y149838D01*
X218462Y155195D01*
X226038Y155195D01*
X231395Y149838D01*
X231395Y142262D01*
X226038Y136905D01*
X218462Y136905D01*
G37*
%LPD*%
%LPC*%
G36*
X218462Y111505D02*
X218462Y111505D01*
X213105Y116862D01*
X213105Y124438D01*
X218462Y129795D01*
X226038Y129795D01*
X231395Y124438D01*
X231395Y116862D01*
X226038Y111505D01*
X218462Y111505D01*
G37*
%LPD*%
%LPC*%
G36*
X193062Y111505D02*
X193062Y111505D01*
X187705Y116862D01*
X187705Y124438D01*
X193062Y129795D01*
X200638Y129795D01*
X205995Y124438D01*
X205995Y116862D01*
X200638Y111505D01*
X193062Y111505D01*
G37*
%LPD*%
%LPC*%
G36*
X167662Y111505D02*
X167662Y111505D01*
X162305Y116862D01*
X162305Y124438D01*
X167662Y129795D01*
X175238Y129795D01*
X180595Y124438D01*
X180595Y116862D01*
X175238Y111505D01*
X167662Y111505D01*
G37*
%LPD*%
%LPC*%
G36*
X243862Y136905D02*
X243862Y136905D01*
X238505Y142262D01*
X238505Y149838D01*
X243862Y155195D01*
X251438Y155195D01*
X256795Y149838D01*
X256795Y142262D01*
X251438Y136905D01*
X243862Y136905D01*
G37*
%LPD*%
%LPC*%
G36*
X596512Y399855D02*
X596512Y399855D01*
X591155Y405212D01*
X591155Y412788D01*
X596512Y418145D01*
X604088Y418145D01*
X609445Y412788D01*
X609445Y405212D01*
X604088Y399855D01*
X596512Y399855D01*
G37*
%LPD*%
%LPC*%
G36*
X621912Y374455D02*
X621912Y374455D01*
X616555Y379812D01*
X616555Y387388D01*
X621912Y392745D01*
X629488Y392745D01*
X634845Y387388D01*
X634845Y379812D01*
X629488Y374455D01*
X621912Y374455D01*
G37*
%LPD*%
%LPC*%
G36*
X165933Y296671D02*
X165933Y296671D01*
X161171Y301433D01*
X161171Y308167D01*
X165933Y312929D01*
X172667Y312929D01*
X177429Y308167D01*
X177429Y301433D01*
X172667Y296671D01*
X165933Y296671D01*
G37*
%LPD*%
%LPC*%
G36*
X358583Y286721D02*
X358583Y286721D01*
X353821Y291483D01*
X353821Y298217D01*
X358583Y302979D01*
X365317Y302979D01*
X370079Y298217D01*
X370079Y291483D01*
X365317Y286721D01*
X358583Y286721D01*
G37*
%LPD*%
%LPC*%
G36*
X631233Y331421D02*
X631233Y331421D01*
X626471Y336183D01*
X626471Y342917D01*
X631233Y347679D01*
X637967Y347679D01*
X642729Y342917D01*
X642729Y336183D01*
X637967Y331421D01*
X631233Y331421D01*
G37*
%LPD*%
%LPC*%
G36*
X605833Y331421D02*
X605833Y331421D01*
X601071Y336183D01*
X601071Y342917D01*
X605833Y347679D01*
X612567Y347679D01*
X617329Y342917D01*
X617329Y336183D01*
X612567Y331421D01*
X605833Y331421D01*
G37*
%LPD*%
%LPC*%
G36*
X629333Y206421D02*
X629333Y206421D01*
X624571Y211183D01*
X624571Y217917D01*
X629333Y222679D01*
X636067Y222679D01*
X640829Y217917D01*
X640829Y211183D01*
X636067Y206421D01*
X629333Y206421D01*
G37*
%LPD*%
%LPC*%
G36*
X629333Y185471D02*
X629333Y185471D01*
X624571Y190233D01*
X624571Y196967D01*
X629333Y201729D01*
X636067Y201729D01*
X640829Y196967D01*
X640829Y190233D01*
X636067Y185471D01*
X629333Y185471D01*
G37*
%LPD*%
%LPC*%
G36*
X474283Y182771D02*
X474283Y182771D01*
X469521Y187533D01*
X469521Y194267D01*
X474283Y199029D01*
X481017Y199029D01*
X485779Y194267D01*
X485779Y187533D01*
X481017Y182771D01*
X474283Y182771D01*
G37*
%LPD*%
%LPC*%
G36*
X438133Y401071D02*
X438133Y401071D01*
X433371Y405833D01*
X433371Y412567D01*
X438133Y417329D01*
X444867Y417329D01*
X449629Y412567D01*
X449629Y405833D01*
X444867Y401071D01*
X438133Y401071D01*
G37*
%LPD*%
%LPC*%
G36*
X470333Y401471D02*
X470333Y401471D01*
X465571Y406233D01*
X465571Y412967D01*
X470333Y417729D01*
X477067Y417729D01*
X481829Y412967D01*
X481829Y406233D01*
X477067Y401471D01*
X470333Y401471D01*
G37*
%LPD*%
%LPC*%
G36*
X438133Y426221D02*
X438133Y426221D01*
X433371Y430983D01*
X433371Y437717D01*
X438133Y442479D01*
X444867Y442479D01*
X449629Y437717D01*
X449629Y430983D01*
X444867Y426221D01*
X438133Y426221D01*
G37*
%LPD*%
%LPC*%
G36*
X267533Y319821D02*
X267533Y319821D01*
X262771Y324583D01*
X262771Y331317D01*
X267533Y336079D01*
X274267Y336079D01*
X279029Y331317D01*
X279029Y324583D01*
X274267Y319821D01*
X267533Y319821D01*
G37*
%LPD*%
%LPC*%
G36*
X165933Y319821D02*
X165933Y319821D01*
X161171Y324583D01*
X161171Y331317D01*
X165933Y336079D01*
X172667Y336079D01*
X177429Y331317D01*
X177429Y324583D01*
X172667Y319821D01*
X165933Y319821D01*
G37*
%LPD*%
%LPC*%
G36*
X358583Y315721D02*
X358583Y315721D01*
X353821Y320483D01*
X353821Y327217D01*
X358583Y331979D01*
X365317Y331979D01*
X370079Y327217D01*
X370079Y320483D01*
X365317Y315721D01*
X358583Y315721D01*
G37*
%LPD*%
%LPC*%
G36*
X602733Y308421D02*
X602733Y308421D01*
X597971Y313183D01*
X597971Y319917D01*
X602733Y324679D01*
X609467Y324679D01*
X614229Y319917D01*
X614229Y313183D01*
X609467Y308421D01*
X602733Y308421D01*
G37*
%LPD*%
%LPC*%
G36*
X165933Y344071D02*
X165933Y344071D01*
X161171Y348833D01*
X161171Y355567D01*
X165933Y360329D01*
X172667Y360329D01*
X177429Y355567D01*
X177429Y348833D01*
X172667Y344071D01*
X165933Y344071D01*
G37*
%LPD*%
%LPC*%
G36*
X629333Y308021D02*
X629333Y308021D01*
X624571Y312783D01*
X624571Y319517D01*
X629333Y324279D01*
X636067Y324279D01*
X640829Y319517D01*
X640829Y312783D01*
X636067Y308021D01*
X629333Y308021D01*
G37*
%LPD*%
%LPC*%
G36*
X470333Y427071D02*
X470333Y427071D01*
X465571Y431833D01*
X465571Y438567D01*
X470333Y443329D01*
X477067Y443329D01*
X481829Y438567D01*
X481829Y431833D01*
X477067Y427071D01*
X470333Y427071D01*
G37*
%LPD*%
%LPC*%
G36*
X629333Y83871D02*
X629333Y83871D01*
X624571Y88633D01*
X624571Y95367D01*
X629333Y100129D01*
X636067Y100129D01*
X640829Y95367D01*
X640829Y88633D01*
X636067Y83871D01*
X629333Y83871D01*
G37*
%LPD*%
%LPC*%
G36*
X267533Y344071D02*
X267533Y344071D01*
X262771Y348833D01*
X262771Y355567D01*
X267533Y360329D01*
X274267Y360329D01*
X279029Y355567D01*
X279029Y348833D01*
X274267Y344071D01*
X267533Y344071D01*
G37*
%LPD*%
%LPC*%
G36*
X267533Y296671D02*
X267533Y296671D01*
X262771Y301433D01*
X262771Y308167D01*
X267533Y312929D01*
X274267Y312929D01*
X279029Y308167D01*
X279029Y301433D01*
X274267Y296671D01*
X267533Y296671D01*
G37*
%LPD*%
%LPC*%
G36*
X521333Y478271D02*
X521333Y478271D01*
X516571Y483033D01*
X516571Y489767D01*
X521333Y494529D01*
X528067Y494529D01*
X532829Y489767D01*
X532829Y483033D01*
X528067Y478271D01*
X521333Y478271D01*
G37*
%LPD*%
%LPC*%
G36*
X357983Y363371D02*
X357983Y363371D01*
X353221Y368133D01*
X353221Y374867D01*
X357983Y379629D01*
X364717Y379629D01*
X369479Y374867D01*
X369479Y368133D01*
X364717Y363371D01*
X357983Y363371D01*
G37*
%LPD*%
%LPC*%
G36*
X474333Y262571D02*
X474333Y262571D01*
X469571Y267333D01*
X469571Y274067D01*
X474333Y278829D01*
X481067Y278829D01*
X485829Y274067D01*
X485829Y267333D01*
X481067Y262571D01*
X474333Y262571D01*
G37*
%LPD*%
%LPC*%
G36*
X500533Y262571D02*
X500533Y262571D01*
X495771Y267333D01*
X495771Y274067D01*
X500533Y278829D01*
X507267Y278829D01*
X512029Y274067D01*
X512029Y267333D01*
X507267Y262571D01*
X500533Y262571D01*
G37*
%LPD*%
%LPC*%
G36*
X602733Y206821D02*
X602733Y206821D01*
X597971Y211583D01*
X597971Y218317D01*
X602733Y223079D01*
X609467Y223079D01*
X614229Y218317D01*
X614229Y211583D01*
X609467Y206821D01*
X602733Y206821D01*
G37*
%LPD*%
%LPC*%
G36*
X474333Y364171D02*
X474333Y364171D01*
X469571Y368933D01*
X469571Y375667D01*
X474333Y380429D01*
X481067Y380429D01*
X485829Y375667D01*
X485829Y368933D01*
X481067Y364171D01*
X474333Y364171D01*
G37*
%LPD*%
%LPC*%
G36*
X500533Y364171D02*
X500533Y364171D01*
X495771Y368933D01*
X495771Y375667D01*
X500533Y380429D01*
X507267Y380429D01*
X512029Y375667D01*
X512029Y368933D01*
X507267Y364171D01*
X500533Y364171D01*
G37*
%LPD*%
%LPC*%
G36*
X267433Y271271D02*
X267433Y271271D01*
X262671Y276033D01*
X262671Y282767D01*
X267433Y287529D01*
X274167Y287529D01*
X278929Y282767D01*
X278929Y276033D01*
X274167Y271271D01*
X267433Y271271D01*
G37*
%LPD*%
%LPC*%
G36*
X63639Y74614D02*
X63639Y74614D01*
X63639Y82236D01*
X69520Y82236D01*
X71099Y81986D01*
X72620Y81491D01*
X74045Y80765D01*
X75339Y79825D01*
X76470Y78694D01*
X77410Y77400D01*
X78136Y75975D01*
X78579Y74614D01*
X63639Y74614D01*
G37*
%LPD*%
%LPC*%
G36*
X63639Y280339D02*
X63639Y280339D01*
X63639Y287961D01*
X69520Y287961D01*
X71099Y287711D01*
X72620Y287216D01*
X74045Y286490D01*
X75339Y285550D01*
X76470Y284419D01*
X77410Y283125D01*
X78136Y281700D01*
X78579Y280339D01*
X63639Y280339D01*
G37*
%LPD*%
%LPC*%
G36*
X565739Y512739D02*
X565739Y512739D01*
X565739Y520361D01*
X571620Y520361D01*
X573199Y520111D01*
X574720Y519616D01*
X576145Y518890D01*
X577439Y517950D01*
X578570Y516819D01*
X579510Y515525D01*
X580236Y514100D01*
X580679Y512739D01*
X565739Y512739D01*
G37*
%LPD*%
%LPC*%
G36*
X412139Y80939D02*
X412139Y80939D01*
X412139Y88561D01*
X418020Y88561D01*
X419599Y88311D01*
X421120Y87816D01*
X422545Y87090D01*
X423839Y86150D01*
X424970Y85019D01*
X425910Y83725D01*
X426636Y82300D01*
X427079Y80939D01*
X412139Y80939D01*
G37*
%LPD*%
%LPC*%
G36*
X43621Y74614D02*
X43621Y74614D01*
X44064Y75975D01*
X44790Y77400D01*
X45730Y78694D01*
X46861Y79825D01*
X48155Y80765D01*
X49580Y81491D01*
X51101Y81986D01*
X52680Y82236D01*
X58561Y82236D01*
X58561Y74614D01*
X43621Y74614D01*
G37*
%LPD*%
%LPC*%
G36*
X43621Y280339D02*
X43621Y280339D01*
X44064Y281700D01*
X44790Y283125D01*
X45730Y284419D01*
X46861Y285550D01*
X48155Y286490D01*
X49580Y287216D01*
X51101Y287711D01*
X52680Y287961D01*
X58561Y287961D01*
X58561Y280339D01*
X43621Y280339D01*
G37*
%LPD*%
%LPC*%
G36*
X392121Y80939D02*
X392121Y80939D01*
X392564Y82300D01*
X393290Y83725D01*
X394230Y85019D01*
X395361Y86150D01*
X396655Y87090D01*
X398080Y87816D01*
X399601Y88311D01*
X401180Y88561D01*
X407061Y88561D01*
X407061Y80939D01*
X392121Y80939D01*
G37*
%LPD*%
%LPC*%
G36*
X545721Y512739D02*
X545721Y512739D01*
X546164Y514100D01*
X546890Y515525D01*
X547830Y516819D01*
X548961Y517950D01*
X550255Y518890D01*
X551680Y519616D01*
X553201Y520111D01*
X554780Y520361D01*
X560661Y520361D01*
X560661Y512739D01*
X545721Y512739D01*
G37*
%LPD*%
%LPC*%
G36*
X412139Y42839D02*
X412139Y42839D01*
X412139Y50461D01*
X427079Y50461D01*
X426636Y49100D01*
X425910Y47675D01*
X424970Y46381D01*
X423839Y45250D01*
X422545Y44310D01*
X421120Y43584D01*
X419599Y43089D01*
X418020Y42839D01*
X412139Y42839D01*
G37*
%LPD*%
%LPC*%
G36*
X565739Y500039D02*
X565739Y500039D01*
X565739Y507661D01*
X580679Y507661D01*
X580236Y506300D01*
X579510Y504875D01*
X578570Y503581D01*
X577439Y502450D01*
X576145Y501510D01*
X574720Y500784D01*
X573199Y500289D01*
X571620Y500039D01*
X565739Y500039D01*
G37*
%LPD*%
%LPC*%
G36*
X63639Y267639D02*
X63639Y267639D01*
X63639Y275261D01*
X78579Y275261D01*
X78136Y273900D01*
X77410Y272475D01*
X76470Y271181D01*
X75339Y270050D01*
X74045Y269110D01*
X72620Y268384D01*
X71099Y267889D01*
X69520Y267639D01*
X63639Y267639D01*
G37*
%LPD*%
%LPC*%
G36*
X63639Y61914D02*
X63639Y61914D01*
X63639Y69536D01*
X78579Y69536D01*
X78136Y68175D01*
X77410Y66750D01*
X76470Y65456D01*
X75339Y64325D01*
X74045Y63385D01*
X72620Y62659D01*
X71099Y62164D01*
X69520Y61914D01*
X63639Y61914D01*
G37*
%LPD*%
%LPC*%
G36*
X401180Y42839D02*
X401180Y42839D01*
X399601Y43089D01*
X398080Y43584D01*
X396655Y44310D01*
X395361Y45250D01*
X394230Y46381D01*
X393290Y47675D01*
X392564Y49100D01*
X392121Y50461D01*
X407061Y50461D01*
X407061Y42839D01*
X401180Y42839D01*
G37*
%LPD*%
%LPC*%
G36*
X52680Y267639D02*
X52680Y267639D01*
X51101Y267889D01*
X49580Y268384D01*
X48155Y269110D01*
X46861Y270050D01*
X45730Y271181D01*
X44790Y272475D01*
X44064Y273900D01*
X43621Y275261D01*
X58561Y275261D01*
X58561Y267639D01*
X52680Y267639D01*
G37*
%LPD*%
%LPC*%
G36*
X52680Y61914D02*
X52680Y61914D01*
X51101Y62164D01*
X49580Y62659D01*
X48155Y63385D01*
X46861Y64325D01*
X45730Y65456D01*
X44790Y66750D01*
X44064Y68175D01*
X43621Y69536D01*
X58561Y69536D01*
X58561Y61914D01*
X52680Y61914D01*
G37*
%LPD*%
%LPC*%
G36*
X554780Y500039D02*
X554780Y500039D01*
X553201Y500289D01*
X551680Y500784D01*
X550255Y501510D01*
X548961Y502450D01*
X547830Y503581D01*
X546890Y504875D01*
X546164Y506300D01*
X545721Y507661D01*
X560661Y507661D01*
X560661Y500039D01*
X554780Y500039D01*
G37*
%LPD*%
%LPC*%
G36*
X320531Y267531D02*
X320531Y267531D01*
X320531Y274645D01*
X325824Y274645D01*
X327245Y274420D01*
X328614Y273975D01*
X329897Y273321D01*
X331061Y272475D01*
X332079Y271457D01*
X332925Y270293D01*
X333579Y269010D01*
X334024Y267641D01*
X334041Y267531D01*
X320531Y267531D01*
G37*
%LPD*%
%LPC*%
G36*
X320531Y344731D02*
X320531Y344731D01*
X320531Y351845D01*
X325824Y351845D01*
X327245Y351620D01*
X328614Y351175D01*
X329897Y350521D01*
X331061Y349675D01*
X332079Y348657D01*
X332925Y347493D01*
X333579Y346210D01*
X334024Y344841D01*
X334041Y344731D01*
X320531Y344731D01*
G37*
%LPD*%
%LPC*%
G36*
X320531Y420931D02*
X320531Y420931D01*
X320531Y428045D01*
X325824Y428045D01*
X327245Y427820D01*
X328614Y427375D01*
X329897Y426721D01*
X331061Y425875D01*
X332079Y424857D01*
X332925Y423693D01*
X333579Y422410D01*
X334024Y421041D01*
X334041Y420931D01*
X320531Y420931D01*
G37*
%LPD*%
%LPC*%
G36*
X302959Y344731D02*
X302959Y344731D01*
X302976Y344841D01*
X303421Y346210D01*
X304075Y347493D01*
X304921Y348657D01*
X305939Y349675D01*
X307103Y350521D01*
X308386Y351175D01*
X309755Y351620D01*
X311176Y351845D01*
X316469Y351845D01*
X316469Y344731D01*
X302959Y344731D01*
G37*
%LPD*%
%LPC*%
G36*
X302959Y267531D02*
X302959Y267531D01*
X302976Y267641D01*
X303421Y269010D01*
X304075Y270293D01*
X304921Y271457D01*
X305939Y272475D01*
X307103Y273321D01*
X308386Y273975D01*
X309755Y274420D01*
X311176Y274645D01*
X316469Y274645D01*
X316469Y267531D01*
X302959Y267531D01*
G37*
%LPD*%
%LPC*%
G36*
X302959Y420931D02*
X302959Y420931D01*
X302976Y421041D01*
X303421Y422410D01*
X304075Y423693D01*
X304921Y424857D01*
X305939Y425875D01*
X307103Y426721D01*
X308386Y427375D01*
X309755Y427820D01*
X311176Y428045D01*
X316469Y428045D01*
X316469Y420931D01*
X302959Y420931D01*
G37*
%LPD*%
%LPC*%
G36*
X320531Y333555D02*
X320531Y333555D01*
X320531Y340669D01*
X334041Y340669D01*
X334024Y340559D01*
X333579Y339190D01*
X332925Y337907D01*
X332079Y336743D01*
X331061Y335725D01*
X329897Y334879D01*
X328614Y334225D01*
X327245Y333780D01*
X325824Y333555D01*
X320531Y333555D01*
G37*
%LPD*%
%LPC*%
G36*
X320531Y409755D02*
X320531Y409755D01*
X320531Y416869D01*
X334041Y416869D01*
X334024Y416759D01*
X333579Y415390D01*
X332925Y414107D01*
X332079Y412943D01*
X331061Y411925D01*
X329897Y411079D01*
X328614Y410425D01*
X327245Y409980D01*
X325824Y409755D01*
X320531Y409755D01*
G37*
%LPD*%
%LPC*%
G36*
X320531Y256355D02*
X320531Y256355D01*
X320531Y263469D01*
X334041Y263469D01*
X334024Y263359D01*
X333579Y261990D01*
X332925Y260707D01*
X332079Y259543D01*
X331061Y258525D01*
X329897Y257679D01*
X328614Y257025D01*
X327245Y256580D01*
X325824Y256355D01*
X320531Y256355D01*
G37*
%LPD*%
%LPC*%
G36*
X311176Y256355D02*
X311176Y256355D01*
X309755Y256580D01*
X308386Y257025D01*
X307103Y257679D01*
X305939Y258525D01*
X304921Y259543D01*
X304075Y260707D01*
X303421Y261990D01*
X302976Y263359D01*
X302959Y263469D01*
X316469Y263469D01*
X316469Y256355D01*
X311176Y256355D01*
G37*
%LPD*%
%LPC*%
G36*
X311176Y409755D02*
X311176Y409755D01*
X309755Y409980D01*
X308386Y410425D01*
X307103Y411079D01*
X305939Y411925D01*
X304921Y412943D01*
X304075Y414107D01*
X303421Y415390D01*
X302976Y416759D01*
X302959Y416869D01*
X316469Y416869D01*
X316469Y409755D01*
X311176Y409755D01*
G37*
%LPD*%
%LPC*%
G36*
X311176Y333555D02*
X311176Y333555D01*
X309755Y333780D01*
X308386Y334225D01*
X307103Y334879D01*
X305939Y335725D01*
X304921Y336743D01*
X304075Y337907D01*
X303421Y339190D01*
X302976Y340559D01*
X302959Y340669D01*
X316469Y340669D01*
X316469Y333555D01*
X311176Y333555D01*
G37*
%LPD*%
%LPC*%
G36*
X503081Y164381D02*
X503081Y164381D01*
X503081Y172892D01*
X505417Y172892D01*
X511592Y166717D01*
X511592Y164381D01*
X503081Y164381D01*
G37*
%LPD*%
%LPC*%
G36*
X528481Y88181D02*
X528481Y88181D01*
X528481Y96692D01*
X530817Y96692D01*
X536992Y90517D01*
X536992Y88181D01*
X528481Y88181D01*
G37*
%LPD*%
%LPC*%
G36*
X528481Y75608D02*
X528481Y75608D01*
X528481Y84119D01*
X536992Y84119D01*
X536992Y81783D01*
X530817Y75608D01*
X528481Y75608D01*
G37*
%LPD*%
%LPC*%
G36*
X490508Y164381D02*
X490508Y164381D01*
X490508Y166717D01*
X496683Y172892D01*
X499019Y172892D01*
X499019Y164381D01*
X490508Y164381D01*
G37*
%LPD*%
%LPC*%
G36*
X515908Y88181D02*
X515908Y88181D01*
X515908Y90517D01*
X522083Y96692D01*
X524419Y96692D01*
X524419Y88181D01*
X515908Y88181D01*
G37*
%LPD*%
%LPC*%
G36*
X503081Y151808D02*
X503081Y151808D01*
X503081Y160319D01*
X511592Y160319D01*
X511592Y157983D01*
X505417Y151808D01*
X503081Y151808D01*
G37*
%LPD*%
%LPC*%
G36*
X522083Y75608D02*
X522083Y75608D01*
X515908Y81783D01*
X515908Y84119D01*
X524419Y84119D01*
X524419Y75608D01*
X522083Y75608D01*
G37*
%LPD*%
%LPC*%
G36*
X496683Y151808D02*
X496683Y151808D01*
X490508Y157983D01*
X490508Y160319D01*
X499019Y160319D01*
X499019Y151808D01*
X496683Y151808D01*
G37*
%LPD*%
%LPC*%
G36*
X284899Y188249D02*
X284899Y188249D01*
X284899Y196413D01*
X284958Y196404D01*
X286593Y195872D01*
X288125Y195092D01*
X289516Y194081D01*
X290731Y192866D01*
X291742Y191475D01*
X292522Y189943D01*
X293054Y188308D01*
X293063Y188249D01*
X284899Y188249D01*
G37*
%LPD*%
%LPC*%
G36*
X271737Y188249D02*
X271737Y188249D01*
X271746Y188308D01*
X272278Y189943D01*
X273058Y191475D01*
X274069Y192866D01*
X275284Y194081D01*
X276675Y195092D01*
X278207Y195872D01*
X279842Y196404D01*
X279901Y196413D01*
X279901Y188249D01*
X271737Y188249D01*
G37*
%LPD*%
%LPC*%
G36*
X284899Y183251D02*
X284899Y183251D01*
X293063Y183251D01*
X293054Y183192D01*
X292522Y181557D01*
X291742Y180025D01*
X290731Y178634D01*
X289516Y177419D01*
X288125Y176408D01*
X286593Y175628D01*
X284958Y175096D01*
X284899Y175087D01*
X284899Y183251D01*
G37*
%LPD*%
%LPC*%
G36*
X279842Y175096D02*
X279842Y175096D01*
X278207Y175628D01*
X276675Y176408D01*
X275284Y177419D01*
X274069Y178634D01*
X273058Y180025D01*
X272278Y181557D01*
X271746Y183192D01*
X271737Y183251D01*
X279901Y183251D01*
X279901Y175087D01*
X279842Y175096D01*
G37*
%LPD*%
%LPC*%
G36*
X275589Y123189D02*
X275589Y123189D01*
X275589Y130811D01*
X277259Y130811D01*
X283211Y124859D01*
X283211Y123189D01*
X275589Y123189D01*
G37*
%LPD*%
%LPC*%
G36*
X262889Y123189D02*
X262889Y123189D01*
X262889Y124859D01*
X268841Y130811D01*
X270511Y130811D01*
X270511Y123189D01*
X262889Y123189D01*
G37*
%LPD*%
%LPC*%
G36*
X275589Y110489D02*
X275589Y110489D01*
X275589Y118111D01*
X283211Y118111D01*
X283211Y116441D01*
X277259Y110489D01*
X275589Y110489D01*
G37*
%LPD*%
%LPC*%
G36*
X268841Y110489D02*
X268841Y110489D01*
X262889Y116441D01*
X262889Y118111D01*
X270511Y118111D01*
X270511Y110489D01*
X268841Y110489D01*
G37*
%LPD*%
%LPC*%
G36*
X501131Y411631D02*
X501131Y411631D01*
X501131Y418745D01*
X502888Y418745D01*
X508245Y413388D01*
X508245Y411631D01*
X501131Y411631D01*
G37*
%LPD*%
%LPC*%
G36*
X526731Y513831D02*
X526731Y513831D01*
X526731Y520945D01*
X528488Y520945D01*
X533845Y515588D01*
X533845Y513831D01*
X526731Y513831D01*
G37*
%LPD*%
%LPC*%
G36*
X443531Y537981D02*
X443531Y537981D01*
X443531Y545095D01*
X445288Y545095D01*
X450645Y539738D01*
X450645Y537981D01*
X443531Y537981D01*
G37*
%LPD*%
%LPC*%
G36*
X443531Y309631D02*
X443531Y309631D01*
X443531Y316745D01*
X445288Y316745D01*
X450645Y311388D01*
X450645Y309631D01*
X443531Y309631D01*
G37*
%LPD*%
%LPC*%
G36*
X363981Y351281D02*
X363981Y351281D01*
X363981Y358395D01*
X365738Y358395D01*
X371095Y353038D01*
X371095Y351281D01*
X363981Y351281D01*
G37*
%LPD*%
%LPC*%
G36*
X171231Y281431D02*
X171231Y281431D01*
X171231Y288545D01*
X172988Y288545D01*
X178345Y283188D01*
X178345Y281431D01*
X171231Y281431D01*
G37*
%LPD*%
%LPC*%
G36*
X363981Y271481D02*
X363981Y271481D01*
X363981Y278595D01*
X365738Y278595D01*
X371095Y273238D01*
X371095Y271481D01*
X363981Y271481D01*
G37*
%LPD*%
%LPC*%
G36*
X505081Y192931D02*
X505081Y192931D01*
X505081Y200045D01*
X506838Y200045D01*
X512195Y194688D01*
X512195Y192931D01*
X505081Y192931D01*
G37*
%LPD*%
%LPC*%
G36*
X363381Y398931D02*
X363381Y398931D01*
X363381Y406045D01*
X365138Y406045D01*
X370495Y400688D01*
X370495Y398931D01*
X363381Y398931D01*
G37*
%LPD*%
%LPC*%
G36*
X501131Y437231D02*
X501131Y437231D01*
X501131Y444345D01*
X502888Y444345D01*
X508245Y438988D01*
X508245Y437231D01*
X501131Y437231D01*
G37*
%LPD*%
%LPC*%
G36*
X493905Y192931D02*
X493905Y192931D01*
X493905Y194688D01*
X499262Y200045D01*
X501019Y200045D01*
X501019Y192931D01*
X493905Y192931D01*
G37*
%LPD*%
%LPC*%
G36*
X489955Y437231D02*
X489955Y437231D01*
X489955Y438988D01*
X495312Y444345D01*
X497069Y444345D01*
X497069Y437231D01*
X489955Y437231D01*
G37*
%LPD*%
%LPC*%
G36*
X489955Y411631D02*
X489955Y411631D01*
X489955Y413388D01*
X495312Y418745D01*
X497069Y418745D01*
X497069Y411631D01*
X489955Y411631D01*
G37*
%LPD*%
%LPC*%
G36*
X160055Y281431D02*
X160055Y281431D01*
X160055Y283188D01*
X165412Y288545D01*
X167169Y288545D01*
X167169Y281431D01*
X160055Y281431D01*
G37*
%LPD*%
%LPC*%
G36*
X501131Y426055D02*
X501131Y426055D01*
X501131Y433169D01*
X508245Y433169D01*
X508245Y431412D01*
X502888Y426055D01*
X501131Y426055D01*
G37*
%LPD*%
%LPC*%
G36*
X363981Y260305D02*
X363981Y260305D01*
X363981Y267419D01*
X371095Y267419D01*
X371095Y265662D01*
X365738Y260305D01*
X363981Y260305D01*
G37*
%LPD*%
%LPC*%
G36*
X363981Y340105D02*
X363981Y340105D01*
X363981Y347219D01*
X371095Y347219D01*
X371095Y345462D01*
X365738Y340105D01*
X363981Y340105D01*
G37*
%LPD*%
%LPC*%
G36*
X352805Y271481D02*
X352805Y271481D01*
X352805Y273238D01*
X358162Y278595D01*
X359919Y278595D01*
X359919Y271481D01*
X352805Y271481D01*
G37*
%LPD*%
%LPC*%
G36*
X526731Y502655D02*
X526731Y502655D01*
X526731Y509769D01*
X533845Y509769D01*
X533845Y508012D01*
X528488Y502655D01*
X526731Y502655D01*
G37*
%LPD*%
%LPC*%
G36*
X352805Y351281D02*
X352805Y351281D01*
X352805Y353038D01*
X358162Y358395D01*
X359919Y358395D01*
X359919Y351281D01*
X352805Y351281D01*
G37*
%LPD*%
%LPC*%
G36*
X443531Y298455D02*
X443531Y298455D01*
X443531Y305569D01*
X450645Y305569D01*
X450645Y303812D01*
X445288Y298455D01*
X443531Y298455D01*
G37*
%LPD*%
%LPC*%
G36*
X325881Y114045D02*
X325881Y114045D01*
X325881Y121159D01*
X332995Y121159D01*
X332995Y119402D01*
X327638Y114045D01*
X325881Y114045D01*
G37*
%LPD*%
%LPC*%
G36*
X501131Y400455D02*
X501131Y400455D01*
X501131Y407569D01*
X508245Y407569D01*
X508245Y405812D01*
X502888Y400455D01*
X501131Y400455D01*
G37*
%LPD*%
%LPC*%
G36*
X363381Y387755D02*
X363381Y387755D01*
X363381Y394869D01*
X370495Y394869D01*
X370495Y393112D01*
X365138Y387755D01*
X363381Y387755D01*
G37*
%LPD*%
%LPC*%
G36*
X505081Y181755D02*
X505081Y181755D01*
X505081Y188869D01*
X512195Y188869D01*
X512195Y187112D01*
X506838Y181755D01*
X505081Y181755D01*
G37*
%LPD*%
%LPC*%
G36*
X515555Y513831D02*
X515555Y513831D01*
X515555Y515588D01*
X520912Y520945D01*
X522669Y520945D01*
X522669Y513831D01*
X515555Y513831D01*
G37*
%LPD*%
%LPC*%
G36*
X171231Y270255D02*
X171231Y270255D01*
X171231Y277369D01*
X178345Y277369D01*
X178345Y275612D01*
X172988Y270255D01*
X171231Y270255D01*
G37*
%LPD*%
%LPC*%
G36*
X352205Y398931D02*
X352205Y398931D01*
X352205Y400688D01*
X357562Y406045D01*
X359319Y406045D01*
X359319Y398931D01*
X352205Y398931D01*
G37*
%LPD*%
%LPC*%
G36*
X432355Y309631D02*
X432355Y309631D01*
X432355Y311388D01*
X437712Y316745D01*
X439469Y316745D01*
X439469Y309631D01*
X432355Y309631D01*
G37*
%LPD*%
%LPC*%
G36*
X432355Y537981D02*
X432355Y537981D01*
X432355Y539738D01*
X437712Y545095D01*
X439469Y545095D01*
X439469Y537981D01*
X432355Y537981D01*
G37*
%LPD*%
%LPC*%
G36*
X187131Y191995D02*
X187131Y191995D01*
X187131Y199109D01*
X194245Y199109D01*
X194245Y197352D01*
X188888Y191995D01*
X187131Y191995D01*
G37*
%LPD*%
%LPC*%
G36*
X443531Y526805D02*
X443531Y526805D01*
X443531Y533919D01*
X450645Y533919D01*
X450645Y532162D01*
X445288Y526805D01*
X443531Y526805D01*
G37*
%LPD*%
%LPC*%
G36*
X181312Y191995D02*
X181312Y191995D01*
X175955Y197352D01*
X175955Y199109D01*
X183069Y199109D01*
X183069Y191995D01*
X181312Y191995D01*
G37*
%LPD*%
%LPC*%
G36*
X358162Y260305D02*
X358162Y260305D01*
X352805Y265662D01*
X352805Y267419D01*
X359919Y267419D01*
X359919Y260305D01*
X358162Y260305D01*
G37*
%LPD*%
%LPC*%
G36*
X520912Y502655D02*
X520912Y502655D01*
X515555Y508012D01*
X515555Y509769D01*
X522669Y509769D01*
X522669Y502655D01*
X520912Y502655D01*
G37*
%LPD*%
%LPC*%
G36*
X358162Y340105D02*
X358162Y340105D01*
X352805Y345462D01*
X352805Y347219D01*
X359919Y347219D01*
X359919Y340105D01*
X358162Y340105D01*
G37*
%LPD*%
%LPC*%
G36*
X357562Y387755D02*
X357562Y387755D01*
X352205Y393112D01*
X352205Y394869D01*
X359319Y394869D01*
X359319Y387755D01*
X357562Y387755D01*
G37*
%LPD*%
%LPC*%
G36*
X320062Y114045D02*
X320062Y114045D01*
X314705Y119402D01*
X314705Y121159D01*
X321819Y121159D01*
X321819Y114045D01*
X320062Y114045D01*
G37*
%LPD*%
%LPC*%
G36*
X437712Y526805D02*
X437712Y526805D01*
X432355Y532162D01*
X432355Y533919D01*
X439469Y533919D01*
X439469Y526805D01*
X437712Y526805D01*
G37*
%LPD*%
%LPC*%
G36*
X437712Y298455D02*
X437712Y298455D01*
X432355Y303812D01*
X432355Y305569D01*
X439469Y305569D01*
X439469Y298455D01*
X437712Y298455D01*
G37*
%LPD*%
%LPC*%
G36*
X499262Y181755D02*
X499262Y181755D01*
X493905Y187112D01*
X493905Y188869D01*
X501019Y188869D01*
X501019Y181755D01*
X499262Y181755D01*
G37*
%LPD*%
%LPC*%
G36*
X165412Y270255D02*
X165412Y270255D01*
X160055Y275612D01*
X160055Y277369D01*
X167169Y277369D01*
X167169Y270255D01*
X165412Y270255D01*
G37*
%LPD*%
%LPC*%
G36*
X495312Y426055D02*
X495312Y426055D01*
X489955Y431412D01*
X489955Y433169D01*
X497069Y433169D01*
X497069Y426055D01*
X495312Y426055D01*
G37*
%LPD*%
%LPC*%
G36*
X495312Y400455D02*
X495312Y400455D01*
X489955Y405812D01*
X489955Y407569D01*
X497069Y407569D01*
X497069Y400455D01*
X495312Y400455D01*
G37*
%LPD*%
D10*
X401980Y535600D02*
X417220Y535600D01*
X417220Y510200D02*
X401980Y510200D01*
X401980Y484800D02*
X417220Y484800D01*
X417220Y459400D02*
X401980Y459400D01*
X401980Y434000D02*
X417220Y434000D01*
X417220Y408600D02*
X401980Y408600D01*
X401980Y383200D02*
X417220Y383200D01*
X417220Y357800D02*
X401980Y357800D01*
X401980Y332400D02*
X417220Y332400D01*
X417220Y307000D02*
X401980Y307000D01*
X401980Y281600D02*
X417220Y281600D01*
X417220Y256200D02*
X401980Y256200D01*
X401980Y230800D02*
X417220Y230800D01*
X417220Y205400D02*
X401980Y205400D01*
X401980Y180000D02*
X417220Y180000D01*
X417220Y154600D02*
X401980Y154600D01*
X401980Y129200D02*
X417220Y129200D01*
X417220Y103800D02*
X401980Y103800D01*
X401980Y78400D02*
X417220Y78400D01*
X417220Y53000D02*
X401980Y53000D01*
X555580Y53000D02*
X570820Y53000D01*
X570820Y78400D02*
X555580Y78400D01*
X555580Y103800D02*
X570820Y103800D01*
X570820Y129200D02*
X555580Y129200D01*
X555580Y154600D02*
X570820Y154600D01*
X570820Y180000D02*
X555580Y180000D01*
X555580Y205400D02*
X570820Y205400D01*
X570820Y230800D02*
X555580Y230800D01*
X555580Y256200D02*
X570820Y256200D01*
X570820Y281600D02*
X555580Y281600D01*
X555580Y307000D02*
X570820Y307000D01*
X570820Y332400D02*
X555580Y332400D01*
X555580Y357800D02*
X570820Y357800D01*
X570820Y383200D02*
X555580Y383200D01*
X555580Y408600D02*
X570820Y408600D01*
X570820Y434000D02*
X555580Y434000D01*
X555580Y459400D02*
X570820Y459400D01*
X570820Y484800D02*
X555580Y484800D01*
X555580Y510200D02*
X570820Y510200D01*
X570820Y535600D02*
X555580Y535600D01*
D11*
X325104Y316300D02*
X311896Y316300D01*
X311896Y265500D02*
X325104Y265500D01*
X325104Y290900D02*
X311896Y290900D01*
X311896Y393500D02*
X325104Y393500D01*
X325104Y342700D02*
X311896Y342700D01*
X311896Y368100D02*
X325104Y368100D01*
D12*
X361350Y371500D03*
X361350Y396900D03*
D13*
X361950Y294850D03*
X361950Y269450D03*
D12*
X477700Y270700D03*
X477700Y372300D03*
X503900Y270700D03*
X503900Y372300D03*
D14*
X263312Y426300D02*
X249088Y426300D01*
X187112Y426300D02*
X172888Y426300D01*
X172888Y451700D02*
X187112Y451700D01*
X249088Y451700D02*
X263312Y451700D01*
X187112Y553300D02*
X172888Y553300D01*
X249088Y553300D02*
X263312Y553300D01*
D11*
X311896Y469700D02*
X325104Y469700D01*
X325104Y418900D02*
X311896Y418900D01*
X311896Y444300D02*
X325104Y444300D01*
D10*
X68720Y521500D02*
X53480Y521500D01*
X53480Y496100D02*
X68720Y496100D01*
X68720Y470700D02*
X53480Y470700D01*
X53480Y445300D02*
X68720Y445300D01*
X68720Y419900D02*
X53480Y419900D01*
D15*
X526450Y162350D03*
X501050Y162350D03*
X475650Y162350D03*
X450250Y162350D03*
X450250Y86150D03*
X475650Y86150D03*
X501050Y86150D03*
X526450Y86150D03*
D16*
X477650Y190900D03*
X503050Y190900D03*
D17*
X257000Y185750D03*
X282400Y185750D03*
X307800Y185750D03*
D12*
X524700Y486400D03*
X524700Y511800D03*
D13*
X185100Y201140D03*
D18*
X185100Y221460D03*
D11*
X690692Y152000D02*
X703900Y152000D01*
X703900Y126600D02*
X690692Y126600D01*
X780100Y126600D02*
X793308Y126600D01*
X793308Y152000D02*
X780100Y152000D01*
X703900Y101200D02*
X690692Y101200D01*
X780100Y101200D02*
X793308Y101200D01*
X794508Y386400D02*
X781300Y386400D01*
X781300Y411800D02*
X794508Y411800D01*
X705100Y411800D02*
X691892Y411800D01*
X691892Y386400D02*
X705100Y386400D01*
X781300Y437200D02*
X794508Y437200D01*
X705100Y437200D02*
X691892Y437200D01*
D13*
X632700Y193600D03*
X632700Y92000D03*
D12*
X824600Y78600D03*
X824600Y180200D03*
D10*
X853480Y107200D02*
X868720Y107200D01*
X868720Y132600D02*
X853480Y132600D01*
X853480Y389200D02*
X868720Y389200D01*
X868720Y414600D02*
X853480Y414600D01*
D12*
X632700Y214550D03*
X632700Y316150D03*
D16*
X609200Y339550D03*
X634600Y339550D03*
D12*
X606100Y214950D03*
X606100Y316550D03*
D19*
X600300Y434400D03*
X625700Y434400D03*
X600300Y409000D03*
X625700Y409000D03*
X600300Y383600D03*
X625700Y383600D03*
D10*
X68720Y224475D02*
X53480Y224475D01*
X53480Y199075D02*
X68720Y199075D01*
X68720Y173675D02*
X53480Y173675D01*
X53480Y148275D02*
X68720Y148275D01*
X68720Y122875D02*
X53480Y122875D01*
X53480Y97475D02*
X68720Y97475D01*
X68720Y72075D02*
X53480Y72075D01*
D11*
X168796Y248650D02*
X182004Y248650D01*
X105804Y248650D02*
X92596Y248650D01*
D10*
X68720Y354000D02*
X53480Y354000D01*
X53480Y328600D02*
X68720Y328600D01*
X68720Y303200D02*
X53480Y303200D01*
X53480Y277800D02*
X68720Y277800D01*
D16*
X169300Y352200D03*
X270900Y352200D03*
X169300Y327950D03*
X270900Y327950D03*
D12*
X441500Y307600D03*
X441500Y409200D03*
D13*
X441500Y535950D03*
X441500Y434350D03*
D16*
X473700Y435200D03*
X499100Y435200D03*
X473700Y409600D03*
X499100Y409600D03*
D20*
X273050Y120650D03*
X247650Y120650D03*
X222250Y120650D03*
X196850Y120650D03*
X171450Y120650D03*
X273050Y146050D03*
X247650Y146050D03*
X222250Y146050D03*
X196850Y146050D03*
X171450Y146050D03*
D13*
X323850Y123190D03*
D18*
X323850Y143510D03*
D16*
X169300Y304800D03*
X270900Y304800D03*
X169200Y279400D03*
X270800Y279400D03*
D12*
X361950Y323850D03*
X361950Y349250D03*
D21*
X247650Y120650D02*
X247650Y107950D01*
X266700Y88900D01*
X343900Y88900D01*
X409600Y154600D01*
X68250Y514350D02*
X61100Y521500D01*
X68250Y514350D02*
X177800Y514350D01*
X215900Y476250D01*
X215900Y412750D01*
X235150Y393500D01*
X318500Y393500D01*
X475650Y86150D02*
X475650Y75650D01*
X465625Y65625D01*
X162500Y65625D01*
X81250Y146875D01*
X62500Y146875D01*
X61100Y148275D01*
X501050Y86150D02*
X501050Y66675D01*
X468750Y34375D01*
X387500Y34375D01*
X368750Y53125D01*
X159375Y53125D01*
X76565Y135935D01*
X45315Y135935D01*
X37500Y143750D01*
X37500Y168750D01*
X43838Y175088D01*
X59688Y175088D01*
X61100Y173675D01*
X407400Y381000D02*
X409600Y383200D01*
X407400Y381000D02*
X393700Y381000D01*
X387350Y374650D01*
X387350Y190500D01*
X397850Y180000D01*
X409600Y180000D01*
M02*
