G04 EAGLE Gerber RS-274X export*
G75*
%MOMM*%
%FSLAX34Y34*%
%LPD*%
%IN*%
%IPPOS*%
%AMOC8*
5,1,8,0,0,1.08239X$1,22.5*%
G01*
%ADD10C,0.254000*%


D10*
X0Y0D02*
X901400Y0D01*
X901400Y600800D01*
X0Y600800D01*
X0Y0D01*
X46000Y29476D02*
X45932Y28431D01*
X45795Y27392D01*
X45590Y26365D01*
X45319Y25353D01*
X44983Y24361D01*
X44582Y23393D01*
X44118Y22454D01*
X43595Y21546D01*
X43013Y20675D01*
X42375Y19844D01*
X41684Y19057D01*
X40943Y18316D01*
X40156Y17625D01*
X39325Y16988D01*
X38454Y16406D01*
X37546Y15882D01*
X36607Y15418D01*
X35639Y15017D01*
X34647Y14681D01*
X33635Y14410D01*
X32608Y14205D01*
X31569Y14069D01*
X30524Y14000D01*
X29476Y14000D01*
X28431Y14069D01*
X27392Y14205D01*
X26365Y14410D01*
X25353Y14681D01*
X24361Y15017D01*
X23393Y15418D01*
X22454Y15882D01*
X21546Y16406D01*
X20675Y16988D01*
X19844Y17625D01*
X19057Y18316D01*
X18316Y19057D01*
X17625Y19844D01*
X16988Y20675D01*
X16406Y21546D01*
X15882Y22454D01*
X15418Y23393D01*
X15017Y24361D01*
X14681Y25353D01*
X14410Y26365D01*
X14205Y27392D01*
X14069Y28431D01*
X14000Y29476D01*
X14000Y30524D01*
X14069Y31569D01*
X14205Y32608D01*
X14410Y33635D01*
X14681Y34647D01*
X15017Y35639D01*
X15418Y36607D01*
X15882Y37546D01*
X16406Y38454D01*
X16988Y39325D01*
X17625Y40156D01*
X18316Y40943D01*
X19057Y41684D01*
X19844Y42375D01*
X20675Y43013D01*
X21546Y43595D01*
X22454Y44118D01*
X23393Y44582D01*
X24361Y44983D01*
X25353Y45319D01*
X26365Y45590D01*
X27392Y45795D01*
X28431Y45932D01*
X29476Y46000D01*
X30524Y46000D01*
X31569Y45932D01*
X32608Y45795D01*
X33635Y45590D01*
X34647Y45319D01*
X35639Y44983D01*
X36607Y44582D01*
X37546Y44118D01*
X38454Y43595D01*
X39325Y43013D01*
X40156Y42375D01*
X40943Y41684D01*
X41684Y40943D01*
X42375Y40156D01*
X43013Y39325D01*
X43595Y38454D01*
X44118Y37546D01*
X44582Y36607D01*
X44983Y35639D01*
X45319Y34647D01*
X45590Y33635D01*
X45795Y32608D01*
X45932Y31569D01*
X46000Y30524D01*
X46000Y29476D01*
X886000Y29476D02*
X885932Y28431D01*
X885795Y27392D01*
X885590Y26365D01*
X885319Y25353D01*
X884983Y24361D01*
X884582Y23393D01*
X884118Y22454D01*
X883595Y21546D01*
X883013Y20675D01*
X882375Y19844D01*
X881684Y19057D01*
X880943Y18316D01*
X880156Y17625D01*
X879325Y16988D01*
X878454Y16406D01*
X877546Y15882D01*
X876607Y15418D01*
X875639Y15017D01*
X874647Y14681D01*
X873635Y14410D01*
X872608Y14205D01*
X871569Y14069D01*
X870524Y14000D01*
X869476Y14000D01*
X868431Y14069D01*
X867392Y14205D01*
X866365Y14410D01*
X865353Y14681D01*
X864361Y15017D01*
X863393Y15418D01*
X862454Y15882D01*
X861546Y16406D01*
X860675Y16988D01*
X859844Y17625D01*
X859057Y18316D01*
X858316Y19057D01*
X857625Y19844D01*
X856988Y20675D01*
X856406Y21546D01*
X855882Y22454D01*
X855418Y23393D01*
X855017Y24361D01*
X854681Y25353D01*
X854410Y26365D01*
X854205Y27392D01*
X854069Y28431D01*
X854000Y29476D01*
X854000Y30524D01*
X854069Y31569D01*
X854205Y32608D01*
X854410Y33635D01*
X854681Y34647D01*
X855017Y35639D01*
X855418Y36607D01*
X855882Y37546D01*
X856406Y38454D01*
X856988Y39325D01*
X857625Y40156D01*
X858316Y40943D01*
X859057Y41684D01*
X859844Y42375D01*
X860675Y43013D01*
X861546Y43595D01*
X862454Y44118D01*
X863393Y44582D01*
X864361Y44983D01*
X865353Y45319D01*
X866365Y45590D01*
X867392Y45795D01*
X868431Y45932D01*
X869476Y46000D01*
X870524Y46000D01*
X871569Y45932D01*
X872608Y45795D01*
X873635Y45590D01*
X874647Y45319D01*
X875639Y44983D01*
X876607Y44582D01*
X877546Y44118D01*
X878454Y43595D01*
X879325Y43013D01*
X880156Y42375D01*
X880943Y41684D01*
X881684Y40943D01*
X882375Y40156D01*
X883013Y39325D01*
X883595Y38454D01*
X884118Y37546D01*
X884582Y36607D01*
X884983Y35639D01*
X885319Y34647D01*
X885590Y33635D01*
X885795Y32608D01*
X885932Y31569D01*
X886000Y30524D01*
X886000Y29476D01*
X886000Y569476D02*
X885932Y568431D01*
X885795Y567392D01*
X885590Y566365D01*
X885319Y565353D01*
X884983Y564361D01*
X884582Y563393D01*
X884118Y562454D01*
X883595Y561546D01*
X883013Y560675D01*
X882375Y559844D01*
X881684Y559057D01*
X880943Y558316D01*
X880156Y557625D01*
X879325Y556988D01*
X878454Y556406D01*
X877546Y555882D01*
X876607Y555418D01*
X875639Y555017D01*
X874647Y554681D01*
X873635Y554410D01*
X872608Y554205D01*
X871569Y554069D01*
X870524Y554000D01*
X869476Y554000D01*
X868431Y554069D01*
X867392Y554205D01*
X866365Y554410D01*
X865353Y554681D01*
X864361Y555017D01*
X863393Y555418D01*
X862454Y555882D01*
X861546Y556406D01*
X860675Y556988D01*
X859844Y557625D01*
X859057Y558316D01*
X858316Y559057D01*
X857625Y559844D01*
X856988Y560675D01*
X856406Y561546D01*
X855882Y562454D01*
X855418Y563393D01*
X855017Y564361D01*
X854681Y565353D01*
X854410Y566365D01*
X854205Y567392D01*
X854069Y568431D01*
X854000Y569476D01*
X854000Y570524D01*
X854069Y571569D01*
X854205Y572608D01*
X854410Y573635D01*
X854681Y574647D01*
X855017Y575639D01*
X855418Y576607D01*
X855882Y577546D01*
X856406Y578454D01*
X856988Y579325D01*
X857625Y580156D01*
X858316Y580943D01*
X859057Y581684D01*
X859844Y582375D01*
X860675Y583013D01*
X861546Y583595D01*
X862454Y584118D01*
X863393Y584582D01*
X864361Y584983D01*
X865353Y585319D01*
X866365Y585590D01*
X867392Y585795D01*
X868431Y585932D01*
X869476Y586000D01*
X870524Y586000D01*
X871569Y585932D01*
X872608Y585795D01*
X873635Y585590D01*
X874647Y585319D01*
X875639Y584983D01*
X876607Y584582D01*
X877546Y584118D01*
X878454Y583595D01*
X879325Y583013D01*
X880156Y582375D01*
X880943Y581684D01*
X881684Y580943D01*
X882375Y580156D01*
X883013Y579325D01*
X883595Y578454D01*
X884118Y577546D01*
X884582Y576607D01*
X884983Y575639D01*
X885319Y574647D01*
X885590Y573635D01*
X885795Y572608D01*
X885932Y571569D01*
X886000Y570524D01*
X886000Y569476D01*
X46000Y569476D02*
X45932Y568431D01*
X45795Y567392D01*
X45590Y566365D01*
X45319Y565353D01*
X44983Y564361D01*
X44582Y563393D01*
X44118Y562454D01*
X43595Y561546D01*
X43013Y560675D01*
X42375Y559844D01*
X41684Y559057D01*
X40943Y558316D01*
X40156Y557625D01*
X39325Y556988D01*
X38454Y556406D01*
X37546Y555882D01*
X36607Y555418D01*
X35639Y555017D01*
X34647Y554681D01*
X33635Y554410D01*
X32608Y554205D01*
X31569Y554069D01*
X30524Y554000D01*
X29476Y554000D01*
X28431Y554069D01*
X27392Y554205D01*
X26365Y554410D01*
X25353Y554681D01*
X24361Y555017D01*
X23393Y555418D01*
X22454Y555882D01*
X21546Y556406D01*
X20675Y556988D01*
X19844Y557625D01*
X19057Y558316D01*
X18316Y559057D01*
X17625Y559844D01*
X16988Y560675D01*
X16406Y561546D01*
X15882Y562454D01*
X15418Y563393D01*
X15017Y564361D01*
X14681Y565353D01*
X14410Y566365D01*
X14205Y567392D01*
X14069Y568431D01*
X14000Y569476D01*
X14000Y570524D01*
X14069Y571569D01*
X14205Y572608D01*
X14410Y573635D01*
X14681Y574647D01*
X15017Y575639D01*
X15418Y576607D01*
X15882Y577546D01*
X16406Y578454D01*
X16988Y579325D01*
X17625Y580156D01*
X18316Y580943D01*
X19057Y581684D01*
X19844Y582375D01*
X20675Y583013D01*
X21546Y583595D01*
X22454Y584118D01*
X23393Y584582D01*
X24361Y584983D01*
X25353Y585319D01*
X26365Y585590D01*
X27392Y585795D01*
X28431Y585932D01*
X29476Y586000D01*
X30524Y586000D01*
X31569Y585932D01*
X32608Y585795D01*
X33635Y585590D01*
X34647Y585319D01*
X35639Y584983D01*
X36607Y584582D01*
X37546Y584118D01*
X38454Y583595D01*
X39325Y583013D01*
X40156Y582375D01*
X40943Y581684D01*
X41684Y580943D01*
X42375Y580156D01*
X43013Y579325D01*
X43595Y578454D01*
X44118Y577546D01*
X44582Y576607D01*
X44983Y575639D01*
X45319Y574647D01*
X45590Y573635D01*
X45795Y572608D01*
X45932Y571569D01*
X46000Y570524D01*
X46000Y569476D01*
M02*
