G04 EAGLE Gerber RS-274X export*
G75*
%MOMM*%
%FSLAX34Y34*%
%LPD*%
%INSoldermask Bottom*%
%IPPOS*%
%AMOC8*
5,1,8,0,0,1.08239X$1,22.5*%
G01*
%ADD10C,3.403200*%
%ADD11C,1.727200*%
%ADD12C,1.524000*%
%ADD13P,1.649562X8X112.500000*%
%ADD14P,1.649562X8X292.500000*%
%ADD15C,1.625600*%
%ADD16P,1.951982X8X202.500000*%
%ADD17P,1.649562X8X22.500000*%
%ADD18C,1.879600*%
%ADD19C,1.524000*%
%ADD20P,1.869504X8X292.500000*%
%ADD21P,1.869504X8X202.500000*%


D10*
X30000Y30000D03*
X870000Y30000D03*
X870000Y570000D03*
X30000Y570000D03*
D11*
X401980Y535600D02*
X417220Y535600D01*
X417220Y510200D02*
X401980Y510200D01*
X401980Y484800D02*
X417220Y484800D01*
X417220Y459400D02*
X401980Y459400D01*
X401980Y434000D02*
X417220Y434000D01*
X417220Y408600D02*
X401980Y408600D01*
X401980Y383200D02*
X417220Y383200D01*
X417220Y357800D02*
X401980Y357800D01*
X401980Y332400D02*
X417220Y332400D01*
X417220Y307000D02*
X401980Y307000D01*
X401980Y281600D02*
X417220Y281600D01*
X417220Y256200D02*
X401980Y256200D01*
X401980Y230800D02*
X417220Y230800D01*
X417220Y205400D02*
X401980Y205400D01*
X401980Y180000D02*
X417220Y180000D01*
X417220Y154600D02*
X401980Y154600D01*
X401980Y129200D02*
X417220Y129200D01*
X417220Y103800D02*
X401980Y103800D01*
X401980Y78400D02*
X417220Y78400D01*
X417220Y53000D02*
X401980Y53000D01*
X555580Y53000D02*
X570820Y53000D01*
X570820Y78400D02*
X555580Y78400D01*
X555580Y103800D02*
X570820Y103800D01*
X570820Y129200D02*
X555580Y129200D01*
X555580Y154600D02*
X570820Y154600D01*
X570820Y180000D02*
X555580Y180000D01*
X555580Y205400D02*
X570820Y205400D01*
X570820Y230800D02*
X555580Y230800D01*
X555580Y256200D02*
X570820Y256200D01*
X570820Y281600D02*
X555580Y281600D01*
X555580Y307000D02*
X570820Y307000D01*
X570820Y332400D02*
X555580Y332400D01*
X555580Y357800D02*
X570820Y357800D01*
X570820Y383200D02*
X555580Y383200D01*
X555580Y408600D02*
X570820Y408600D01*
X570820Y434000D02*
X555580Y434000D01*
X555580Y459400D02*
X570820Y459400D01*
X570820Y484800D02*
X555580Y484800D01*
X555580Y510200D02*
X570820Y510200D01*
X570820Y535600D02*
X555580Y535600D01*
D12*
X325104Y316300D02*
X311896Y316300D01*
X311896Y265500D02*
X325104Y265500D01*
X325104Y290900D02*
X311896Y290900D01*
X311896Y393500D02*
X325104Y393500D01*
X325104Y342700D02*
X311896Y342700D01*
X311896Y368100D02*
X325104Y368100D01*
D13*
X361350Y371500D03*
X361350Y396900D03*
D14*
X361950Y294850D03*
X361950Y269450D03*
D13*
X477700Y270700D03*
X477700Y372300D03*
X503900Y270700D03*
X503900Y372300D03*
D15*
X263312Y426300D02*
X249088Y426300D01*
X187112Y426300D02*
X172888Y426300D01*
X172888Y451700D02*
X187112Y451700D01*
X249088Y451700D02*
X263312Y451700D01*
X187112Y553300D02*
X172888Y553300D01*
X249088Y553300D02*
X263312Y553300D01*
D12*
X311896Y469700D02*
X325104Y469700D01*
X325104Y418900D02*
X311896Y418900D01*
X311896Y444300D02*
X325104Y444300D01*
D11*
X68720Y521500D02*
X53480Y521500D01*
X53480Y496100D02*
X68720Y496100D01*
X68720Y470700D02*
X53480Y470700D01*
X53480Y445300D02*
X68720Y445300D01*
X68720Y419900D02*
X53480Y419900D01*
D16*
X526450Y162350D03*
X501050Y162350D03*
X475650Y162350D03*
X450250Y162350D03*
X450250Y86150D03*
X475650Y86150D03*
X501050Y86150D03*
X526450Y86150D03*
D17*
X477650Y190900D03*
X503050Y190900D03*
D18*
X257000Y185750D03*
X282400Y185750D03*
X307800Y185750D03*
D13*
X524700Y486400D03*
X524700Y511800D03*
D14*
X185100Y201140D03*
D19*
X185100Y221460D03*
D12*
X690692Y152000D02*
X703900Y152000D01*
X703900Y126600D02*
X690692Y126600D01*
X780100Y126600D02*
X793308Y126600D01*
X793308Y152000D02*
X780100Y152000D01*
X703900Y101200D02*
X690692Y101200D01*
X780100Y101200D02*
X793308Y101200D01*
X794508Y386400D02*
X781300Y386400D01*
X781300Y411800D02*
X794508Y411800D01*
X705100Y411800D02*
X691892Y411800D01*
X691892Y386400D02*
X705100Y386400D01*
X781300Y437200D02*
X794508Y437200D01*
X705100Y437200D02*
X691892Y437200D01*
D14*
X632700Y193600D03*
X632700Y92000D03*
D13*
X824600Y78600D03*
X824600Y180200D03*
D11*
X853480Y107200D02*
X868720Y107200D01*
X868720Y132600D02*
X853480Y132600D01*
X853480Y389200D02*
X868720Y389200D01*
X868720Y414600D02*
X853480Y414600D01*
D13*
X632700Y214550D03*
X632700Y316150D03*
D17*
X609200Y339550D03*
X634600Y339550D03*
D13*
X606100Y214950D03*
X606100Y316550D03*
D20*
X600300Y434400D03*
X625700Y434400D03*
X600300Y409000D03*
X625700Y409000D03*
X600300Y383600D03*
X625700Y383600D03*
D11*
X68720Y224475D02*
X53480Y224475D01*
X53480Y199075D02*
X68720Y199075D01*
X68720Y173675D02*
X53480Y173675D01*
X53480Y148275D02*
X68720Y148275D01*
X68720Y122875D02*
X53480Y122875D01*
X53480Y97475D02*
X68720Y97475D01*
X68720Y72075D02*
X53480Y72075D01*
D12*
X168796Y248650D02*
X182004Y248650D01*
X105804Y248650D02*
X92596Y248650D01*
D11*
X68720Y354000D02*
X53480Y354000D01*
X53480Y328600D02*
X68720Y328600D01*
X68720Y303200D02*
X53480Y303200D01*
X53480Y277800D02*
X68720Y277800D01*
D17*
X169300Y352200D03*
X270900Y352200D03*
X169300Y327950D03*
X270900Y327950D03*
D13*
X441500Y307600D03*
X441500Y409200D03*
D14*
X441500Y535950D03*
X441500Y434350D03*
D17*
X473700Y435200D03*
X499100Y435200D03*
X473700Y409600D03*
X499100Y409600D03*
D21*
X273050Y120650D03*
X247650Y120650D03*
X222250Y120650D03*
X196850Y120650D03*
X171450Y120650D03*
X273050Y146050D03*
X247650Y146050D03*
X222250Y146050D03*
X196850Y146050D03*
X171450Y146050D03*
D14*
X323850Y123190D03*
D19*
X323850Y143510D03*
D17*
X169300Y304800D03*
X270900Y304800D03*
X169200Y279400D03*
X270800Y279400D03*
D13*
X361950Y323850D03*
X361950Y349250D03*
M02*
