G04 EAGLE Gerber RS-274X export*
G75*
%MOMM*%
%FSLAX34Y34*%
%LPD*%
%IN*%
%IPPOS*%
%AMOC8*
5,1,8,0,0,1.08239X$1,22.5*%
G01*
%ADD10C,0.254000*%


D10*
X0Y0D02*
X800000Y0D01*
X800000Y420000D01*
X0Y420000D01*
X0Y0D01*
X776000Y384476D02*
X775932Y383431D01*
X775795Y382392D01*
X775590Y381365D01*
X775319Y380353D01*
X774983Y379361D01*
X774582Y378393D01*
X774118Y377454D01*
X773595Y376546D01*
X773013Y375675D01*
X772375Y374844D01*
X771684Y374057D01*
X770943Y373316D01*
X770156Y372625D01*
X769325Y371988D01*
X768454Y371406D01*
X767546Y370882D01*
X766607Y370418D01*
X765639Y370017D01*
X764647Y369681D01*
X763635Y369410D01*
X762608Y369205D01*
X761569Y369069D01*
X760524Y369000D01*
X759476Y369000D01*
X758431Y369069D01*
X757392Y369205D01*
X756365Y369410D01*
X755353Y369681D01*
X754361Y370017D01*
X753393Y370418D01*
X752454Y370882D01*
X751546Y371406D01*
X750675Y371988D01*
X749844Y372625D01*
X749057Y373316D01*
X748316Y374057D01*
X747625Y374844D01*
X746988Y375675D01*
X746406Y376546D01*
X745882Y377454D01*
X745418Y378393D01*
X745017Y379361D01*
X744681Y380353D01*
X744410Y381365D01*
X744205Y382392D01*
X744069Y383431D01*
X744000Y384476D01*
X744000Y385524D01*
X744069Y386569D01*
X744205Y387608D01*
X744410Y388635D01*
X744681Y389647D01*
X745017Y390639D01*
X745418Y391607D01*
X745882Y392546D01*
X746406Y393454D01*
X746988Y394325D01*
X747625Y395156D01*
X748316Y395943D01*
X749057Y396684D01*
X749844Y397375D01*
X750675Y398013D01*
X751546Y398595D01*
X752454Y399118D01*
X753393Y399582D01*
X754361Y399983D01*
X755353Y400319D01*
X756365Y400590D01*
X757392Y400795D01*
X758431Y400932D01*
X759476Y401000D01*
X760524Y401000D01*
X761569Y400932D01*
X762608Y400795D01*
X763635Y400590D01*
X764647Y400319D01*
X765639Y399983D01*
X766607Y399582D01*
X767546Y399118D01*
X768454Y398595D01*
X769325Y398013D01*
X770156Y397375D01*
X770943Y396684D01*
X771684Y395943D01*
X772375Y395156D01*
X773013Y394325D01*
X773595Y393454D01*
X774118Y392546D01*
X774582Y391607D01*
X774983Y390639D01*
X775319Y389647D01*
X775590Y388635D01*
X775795Y387608D01*
X775932Y386569D01*
X776000Y385524D01*
X776000Y384476D01*
X776000Y34476D02*
X775932Y33431D01*
X775795Y32392D01*
X775590Y31365D01*
X775319Y30353D01*
X774983Y29361D01*
X774582Y28393D01*
X774118Y27454D01*
X773595Y26546D01*
X773013Y25675D01*
X772375Y24844D01*
X771684Y24057D01*
X770943Y23316D01*
X770156Y22625D01*
X769325Y21988D01*
X768454Y21406D01*
X767546Y20882D01*
X766607Y20418D01*
X765639Y20017D01*
X764647Y19681D01*
X763635Y19410D01*
X762608Y19205D01*
X761569Y19069D01*
X760524Y19000D01*
X759476Y19000D01*
X758431Y19069D01*
X757392Y19205D01*
X756365Y19410D01*
X755353Y19681D01*
X754361Y20017D01*
X753393Y20418D01*
X752454Y20882D01*
X751546Y21406D01*
X750675Y21988D01*
X749844Y22625D01*
X749057Y23316D01*
X748316Y24057D01*
X747625Y24844D01*
X746988Y25675D01*
X746406Y26546D01*
X745882Y27454D01*
X745418Y28393D01*
X745017Y29361D01*
X744681Y30353D01*
X744410Y31365D01*
X744205Y32392D01*
X744069Y33431D01*
X744000Y34476D01*
X744000Y35524D01*
X744069Y36569D01*
X744205Y37608D01*
X744410Y38635D01*
X744681Y39647D01*
X745017Y40639D01*
X745418Y41607D01*
X745882Y42546D01*
X746406Y43454D01*
X746988Y44325D01*
X747625Y45156D01*
X748316Y45943D01*
X749057Y46684D01*
X749844Y47375D01*
X750675Y48013D01*
X751546Y48595D01*
X752454Y49118D01*
X753393Y49582D01*
X754361Y49983D01*
X755353Y50319D01*
X756365Y50590D01*
X757392Y50795D01*
X758431Y50932D01*
X759476Y51000D01*
X760524Y51000D01*
X761569Y50932D01*
X762608Y50795D01*
X763635Y50590D01*
X764647Y50319D01*
X765639Y49983D01*
X766607Y49582D01*
X767546Y49118D01*
X768454Y48595D01*
X769325Y48013D01*
X770156Y47375D01*
X770943Y46684D01*
X771684Y45943D01*
X772375Y45156D01*
X773013Y44325D01*
X773595Y43454D01*
X774118Y42546D01*
X774582Y41607D01*
X774983Y40639D01*
X775319Y39647D01*
X775590Y38635D01*
X775795Y37608D01*
X775932Y36569D01*
X776000Y35524D01*
X776000Y34476D01*
X216000Y384476D02*
X215932Y383431D01*
X215795Y382392D01*
X215590Y381365D01*
X215319Y380353D01*
X214983Y379361D01*
X214582Y378393D01*
X214118Y377454D01*
X213595Y376546D01*
X213013Y375675D01*
X212375Y374844D01*
X211684Y374057D01*
X210943Y373316D01*
X210156Y372625D01*
X209325Y371988D01*
X208454Y371406D01*
X207546Y370882D01*
X206607Y370418D01*
X205639Y370017D01*
X204647Y369681D01*
X203635Y369410D01*
X202608Y369205D01*
X201569Y369069D01*
X200524Y369000D01*
X199476Y369000D01*
X198431Y369069D01*
X197392Y369205D01*
X196365Y369410D01*
X195353Y369681D01*
X194361Y370017D01*
X193393Y370418D01*
X192454Y370882D01*
X191546Y371406D01*
X190675Y371988D01*
X189844Y372625D01*
X189057Y373316D01*
X188316Y374057D01*
X187625Y374844D01*
X186988Y375675D01*
X186406Y376546D01*
X185882Y377454D01*
X185418Y378393D01*
X185017Y379361D01*
X184681Y380353D01*
X184410Y381365D01*
X184205Y382392D01*
X184069Y383431D01*
X184000Y384476D01*
X184000Y385524D01*
X184069Y386569D01*
X184205Y387608D01*
X184410Y388635D01*
X184681Y389647D01*
X185017Y390639D01*
X185418Y391607D01*
X185882Y392546D01*
X186406Y393454D01*
X186988Y394325D01*
X187625Y395156D01*
X188316Y395943D01*
X189057Y396684D01*
X189844Y397375D01*
X190675Y398013D01*
X191546Y398595D01*
X192454Y399118D01*
X193393Y399582D01*
X194361Y399983D01*
X195353Y400319D01*
X196365Y400590D01*
X197392Y400795D01*
X198431Y400932D01*
X199476Y401000D01*
X200524Y401000D01*
X201569Y400932D01*
X202608Y400795D01*
X203635Y400590D01*
X204647Y400319D01*
X205639Y399983D01*
X206607Y399582D01*
X207546Y399118D01*
X208454Y398595D01*
X209325Y398013D01*
X210156Y397375D01*
X210943Y396684D01*
X211684Y395943D01*
X212375Y395156D01*
X213013Y394325D01*
X213595Y393454D01*
X214118Y392546D01*
X214582Y391607D01*
X214983Y390639D01*
X215319Y389647D01*
X215590Y388635D01*
X215795Y387608D01*
X215932Y386569D01*
X216000Y385524D01*
X216000Y384476D01*
X216000Y34476D02*
X215932Y33431D01*
X215795Y32392D01*
X215590Y31365D01*
X215319Y30353D01*
X214983Y29361D01*
X214582Y28393D01*
X214118Y27454D01*
X213595Y26546D01*
X213013Y25675D01*
X212375Y24844D01*
X211684Y24057D01*
X210943Y23316D01*
X210156Y22625D01*
X209325Y21988D01*
X208454Y21406D01*
X207546Y20882D01*
X206607Y20418D01*
X205639Y20017D01*
X204647Y19681D01*
X203635Y19410D01*
X202608Y19205D01*
X201569Y19069D01*
X200524Y19000D01*
X199476Y19000D01*
X198431Y19069D01*
X197392Y19205D01*
X196365Y19410D01*
X195353Y19681D01*
X194361Y20017D01*
X193393Y20418D01*
X192454Y20882D01*
X191546Y21406D01*
X190675Y21988D01*
X189844Y22625D01*
X189057Y23316D01*
X188316Y24057D01*
X187625Y24844D01*
X186988Y25675D01*
X186406Y26546D01*
X185882Y27454D01*
X185418Y28393D01*
X185017Y29361D01*
X184681Y30353D01*
X184410Y31365D01*
X184205Y32392D01*
X184069Y33431D01*
X184000Y34476D01*
X184000Y35524D01*
X184069Y36569D01*
X184205Y37608D01*
X184410Y38635D01*
X184681Y39647D01*
X185017Y40639D01*
X185418Y41607D01*
X185882Y42546D01*
X186406Y43454D01*
X186988Y44325D01*
X187625Y45156D01*
X188316Y45943D01*
X189057Y46684D01*
X189844Y47375D01*
X190675Y48013D01*
X191546Y48595D01*
X192454Y49118D01*
X193393Y49582D01*
X194361Y49983D01*
X195353Y50319D01*
X196365Y50590D01*
X197392Y50795D01*
X198431Y50932D01*
X199476Y51000D01*
X200524Y51000D01*
X201569Y50932D01*
X202608Y50795D01*
X203635Y50590D01*
X204647Y50319D01*
X205639Y49983D01*
X206607Y49582D01*
X207546Y49118D01*
X208454Y48595D01*
X209325Y48013D01*
X210156Y47375D01*
X210943Y46684D01*
X211684Y45943D01*
X212375Y45156D01*
X213013Y44325D01*
X213595Y43454D01*
X214118Y42546D01*
X214582Y41607D01*
X214983Y40639D01*
X215319Y39647D01*
X215590Y38635D01*
X215795Y37608D01*
X215932Y36569D01*
X216000Y35524D01*
X216000Y34476D01*
X62976Y167750D02*
X61931Y167819D01*
X60892Y167955D01*
X59865Y168160D01*
X58853Y168431D01*
X57861Y168767D01*
X56893Y169168D01*
X55954Y169632D01*
X55046Y170156D01*
X54175Y170738D01*
X53344Y171375D01*
X52557Y172066D01*
X51816Y172807D01*
X51125Y173594D01*
X50488Y174425D01*
X49906Y175296D01*
X49382Y176204D01*
X48918Y177143D01*
X48517Y178111D01*
X48181Y179103D01*
X47910Y180115D01*
X47705Y181142D01*
X47569Y182181D01*
X47500Y183226D01*
X47500Y184274D01*
X47569Y185319D01*
X47705Y186358D01*
X47910Y187385D01*
X48181Y188397D01*
X48517Y189389D01*
X48918Y190357D01*
X49382Y191296D01*
X49906Y192204D01*
X50488Y193075D01*
X51125Y193906D01*
X51816Y194693D01*
X52557Y195434D01*
X53344Y196125D01*
X54175Y196763D01*
X55046Y197345D01*
X55954Y197868D01*
X56893Y198332D01*
X57861Y198733D01*
X58853Y199069D01*
X59865Y199340D01*
X60892Y199545D01*
X61931Y199682D01*
X62976Y199750D01*
X64024Y199750D01*
X65069Y199682D01*
X66108Y199545D01*
X67135Y199340D01*
X68147Y199069D01*
X69139Y198733D01*
X70107Y198332D01*
X71046Y197868D01*
X71954Y197345D01*
X72825Y196763D01*
X73656Y196125D01*
X74443Y195434D01*
X75184Y194693D01*
X75875Y193906D01*
X76513Y193075D01*
X77095Y192204D01*
X77618Y191296D01*
X78082Y190357D01*
X78483Y189389D01*
X78819Y188397D01*
X79090Y187385D01*
X79295Y186358D01*
X79432Y185319D01*
X79500Y184274D01*
X79500Y183226D01*
X79432Y182181D01*
X79295Y181142D01*
X79090Y180115D01*
X78819Y179103D01*
X78483Y178111D01*
X78082Y177143D01*
X77618Y176204D01*
X77095Y175296D01*
X76513Y174425D01*
X75875Y173594D01*
X75184Y172807D01*
X74443Y172066D01*
X73656Y171375D01*
X72825Y170738D01*
X71954Y170156D01*
X71046Y169632D01*
X70107Y169168D01*
X69139Y168767D01*
X68147Y168431D01*
X67135Y168160D01*
X66108Y167955D01*
X65069Y167819D01*
X64024Y167750D01*
X62976Y167750D01*
X62976Y53450D02*
X61931Y53519D01*
X60892Y53655D01*
X59865Y53860D01*
X58853Y54131D01*
X57861Y54467D01*
X56893Y54868D01*
X55954Y55332D01*
X55046Y55856D01*
X54175Y56438D01*
X53344Y57075D01*
X52557Y57766D01*
X51816Y58507D01*
X51125Y59294D01*
X50488Y60125D01*
X49906Y60996D01*
X49382Y61904D01*
X48918Y62843D01*
X48517Y63811D01*
X48181Y64803D01*
X47910Y65815D01*
X47705Y66842D01*
X47569Y67881D01*
X47500Y68926D01*
X47500Y69974D01*
X47569Y71019D01*
X47705Y72058D01*
X47910Y73085D01*
X48181Y74097D01*
X48517Y75089D01*
X48918Y76057D01*
X49382Y76996D01*
X49906Y77904D01*
X50488Y78775D01*
X51125Y79606D01*
X51816Y80393D01*
X52557Y81134D01*
X53344Y81825D01*
X54175Y82463D01*
X55046Y83045D01*
X55954Y83568D01*
X56893Y84032D01*
X57861Y84433D01*
X58853Y84769D01*
X59865Y85040D01*
X60892Y85245D01*
X61931Y85382D01*
X62976Y85450D01*
X64024Y85450D01*
X65069Y85382D01*
X66108Y85245D01*
X67135Y85040D01*
X68147Y84769D01*
X69139Y84433D01*
X70107Y84032D01*
X71046Y83568D01*
X71954Y83045D01*
X72825Y82463D01*
X73656Y81825D01*
X74443Y81134D01*
X75184Y80393D01*
X75875Y79606D01*
X76513Y78775D01*
X77095Y77904D01*
X77618Y76996D01*
X78082Y76057D01*
X78483Y75089D01*
X78819Y74097D01*
X79090Y73085D01*
X79295Y72058D01*
X79432Y71019D01*
X79500Y69974D01*
X79500Y68926D01*
X79432Y67881D01*
X79295Y66842D01*
X79090Y65815D01*
X78819Y64803D01*
X78483Y63811D01*
X78082Y62843D01*
X77618Y61904D01*
X77095Y60996D01*
X76513Y60125D01*
X75875Y59294D01*
X75184Y58507D01*
X74443Y57766D01*
X73656Y57075D01*
X72825Y56438D01*
X71954Y55856D01*
X71046Y55332D01*
X70107Y54868D01*
X69139Y54467D01*
X68147Y54131D01*
X67135Y53860D01*
X66108Y53655D01*
X65069Y53519D01*
X64024Y53450D01*
X62976Y53450D01*
X62976Y332950D02*
X61931Y333019D01*
X60892Y333155D01*
X59865Y333360D01*
X58853Y333631D01*
X57861Y333967D01*
X56893Y334368D01*
X55954Y334832D01*
X55046Y335356D01*
X54175Y335938D01*
X53344Y336575D01*
X52557Y337266D01*
X51816Y338007D01*
X51125Y338794D01*
X50488Y339625D01*
X49906Y340496D01*
X49382Y341404D01*
X48918Y342343D01*
X48517Y343311D01*
X48181Y344303D01*
X47910Y345315D01*
X47705Y346342D01*
X47569Y347381D01*
X47500Y348426D01*
X47500Y349474D01*
X47569Y350519D01*
X47705Y351558D01*
X47910Y352585D01*
X48181Y353597D01*
X48517Y354589D01*
X48918Y355557D01*
X49382Y356496D01*
X49906Y357404D01*
X50488Y358275D01*
X51125Y359106D01*
X51816Y359893D01*
X52557Y360634D01*
X53344Y361325D01*
X54175Y361963D01*
X55046Y362545D01*
X55954Y363068D01*
X56893Y363532D01*
X57861Y363933D01*
X58853Y364269D01*
X59865Y364540D01*
X60892Y364745D01*
X61931Y364882D01*
X62976Y364950D01*
X64024Y364950D01*
X65069Y364882D01*
X66108Y364745D01*
X67135Y364540D01*
X68147Y364269D01*
X69139Y363933D01*
X70107Y363532D01*
X71046Y363068D01*
X71954Y362545D01*
X72825Y361963D01*
X73656Y361325D01*
X74443Y360634D01*
X75184Y359893D01*
X75875Y359106D01*
X76513Y358275D01*
X77095Y357404D01*
X77618Y356496D01*
X78082Y355557D01*
X78483Y354589D01*
X78819Y353597D01*
X79090Y352585D01*
X79295Y351558D01*
X79432Y350519D01*
X79500Y349474D01*
X79500Y348426D01*
X79432Y347381D01*
X79295Y346342D01*
X79090Y345315D01*
X78819Y344303D01*
X78483Y343311D01*
X78082Y342343D01*
X77618Y341404D01*
X77095Y340496D01*
X76513Y339625D01*
X75875Y338794D01*
X75184Y338007D01*
X74443Y337266D01*
X73656Y336575D01*
X72825Y335938D01*
X71954Y335356D01*
X71046Y334832D01*
X70107Y334368D01*
X69139Y333967D01*
X68147Y333631D01*
X67135Y333360D01*
X66108Y333155D01*
X65069Y333019D01*
X64024Y332950D01*
X62976Y332950D01*
X62976Y218650D02*
X61931Y218719D01*
X60892Y218855D01*
X59865Y219060D01*
X58853Y219331D01*
X57861Y219667D01*
X56893Y220068D01*
X55954Y220532D01*
X55046Y221056D01*
X54175Y221638D01*
X53344Y222275D01*
X52557Y222966D01*
X51816Y223707D01*
X51125Y224494D01*
X50488Y225325D01*
X49906Y226196D01*
X49382Y227104D01*
X48918Y228043D01*
X48517Y229011D01*
X48181Y230003D01*
X47910Y231015D01*
X47705Y232042D01*
X47569Y233081D01*
X47500Y234126D01*
X47500Y235174D01*
X47569Y236219D01*
X47705Y237258D01*
X47910Y238285D01*
X48181Y239297D01*
X48517Y240289D01*
X48918Y241257D01*
X49382Y242196D01*
X49906Y243104D01*
X50488Y243975D01*
X51125Y244806D01*
X51816Y245593D01*
X52557Y246334D01*
X53344Y247025D01*
X54175Y247663D01*
X55046Y248245D01*
X55954Y248768D01*
X56893Y249232D01*
X57861Y249633D01*
X58853Y249969D01*
X59865Y250240D01*
X60892Y250445D01*
X61931Y250582D01*
X62976Y250650D01*
X64024Y250650D01*
X65069Y250582D01*
X66108Y250445D01*
X67135Y250240D01*
X68147Y249969D01*
X69139Y249633D01*
X70107Y249232D01*
X71046Y248768D01*
X71954Y248245D01*
X72825Y247663D01*
X73656Y247025D01*
X74443Y246334D01*
X75184Y245593D01*
X75875Y244806D01*
X76513Y243975D01*
X77095Y243104D01*
X77618Y242196D01*
X78082Y241257D01*
X78483Y240289D01*
X78819Y239297D01*
X79090Y238285D01*
X79295Y237258D01*
X79432Y236219D01*
X79500Y235174D01*
X79500Y234126D01*
X79432Y233081D01*
X79295Y232042D01*
X79090Y231015D01*
X78819Y230003D01*
X78483Y229011D01*
X78082Y228043D01*
X77618Y227104D01*
X77095Y226196D01*
X76513Y225325D01*
X75875Y224494D01*
X75184Y223707D01*
X74443Y222966D01*
X73656Y222275D01*
X72825Y221638D01*
X71954Y221056D01*
X71046Y220532D01*
X70107Y220068D01*
X69139Y219667D01*
X68147Y219331D01*
X67135Y219060D01*
X66108Y218855D01*
X65069Y218719D01*
X64024Y218650D01*
X62976Y218650D01*
M02*
