G04 EAGLE Gerber RS-274X export*
G75*
%MOMM*%
%FSLAX34Y34*%
%LPD*%
%INSoldermask Bottom*%
%IPPOS*%
%AMOC8*
5,1,8,0,0,1.08239X$1,22.5*%
G01*
%ADD10C,3.403200*%
%ADD11P,1.869504X8X112.500000*%
%ADD12C,1.727200*%
%ADD13C,2.529200*%
%ADD14C,1.103200*%
%ADD15P,1.309259X8X22.500000*%


D10*
X25000Y325000D03*
X25000Y25000D03*
X675000Y25000D03*
X675000Y325000D03*
D11*
X625850Y177800D03*
X600450Y177800D03*
X625850Y203200D03*
X600450Y203200D03*
X625850Y228600D03*
X600450Y228600D03*
X625850Y254000D03*
X600450Y254000D03*
X625850Y279400D03*
X600450Y279400D03*
D12*
X261620Y190500D02*
X246380Y190500D01*
X246380Y165100D02*
X261620Y165100D01*
X261620Y139700D02*
X246380Y139700D01*
X246380Y114300D02*
X261620Y114300D01*
X261620Y88900D02*
X246380Y88900D01*
X63170Y273050D02*
X47930Y273050D01*
X47930Y247650D02*
X63170Y247650D01*
X63170Y222250D02*
X47930Y222250D01*
D13*
X139390Y292370D03*
D14*
X139390Y207870D03*
D13*
X328850Y201250D03*
D14*
X328850Y76750D03*
D15*
X177800Y60350D03*
X440650Y95900D03*
X441650Y133300D03*
X485750Y170800D03*
X525050Y277700D03*
X239150Y277050D03*
X44450Y64520D03*
X26750Y139550D03*
X500000Y209200D03*
X496550Y65850D03*
X668950Y121300D03*
X215380Y274050D03*
M02*
