G04 EAGLE Gerber RS-274X export*
G75*
%MOMM*%
%FSLAX34Y34*%
%LPD*%
%INSoldermask Top*%
%IPPOS*%
%AMOC8*
5,1,8,0,0,1.08239X$1,22.5*%
G01*
%ADD10C,3.403200*%
%ADD11R,1.303200X1.203200*%
%ADD12R,1.203200X1.303200*%
%ADD13R,1.403200X0.803200*%
%ADD14R,2.603200X2.603200*%
%ADD15R,1.703200X1.503200*%
%ADD16P,1.869504X8X112.500000*%
%ADD17R,1.503200X1.703200*%
%ADD18R,1.603200X1.203200*%
%ADD19R,1.203200X1.603200*%
%ADD20R,1.403200X1.403200*%
%ADD21R,1.203200X1.003200*%
%ADD22R,1.003200X1.203200*%
%ADD23C,1.727200*%
%ADD24R,0.753200X1.403200*%
%ADD25R,3.103200X1.203200*%
%ADD26R,3.803200X2.003200*%
%ADD27C,2.529200*%
%ADD28C,1.103200*%
%ADD29P,1.309259X8X22.500000*%


D10*
X25000Y325000D03*
X25000Y25000D03*
X675000Y25000D03*
X675000Y325000D03*
D11*
X377150Y183550D03*
X377150Y166550D03*
X379150Y118450D03*
X379150Y135450D03*
X380150Y68350D03*
X380150Y85350D03*
D12*
X430950Y68350D03*
X430950Y85350D03*
X429950Y118450D03*
X429950Y135450D03*
X429950Y166550D03*
X429950Y183550D03*
D11*
X405550Y68350D03*
X405550Y85350D03*
X404550Y118450D03*
X404550Y135450D03*
X404550Y166550D03*
X404550Y183550D03*
D13*
X569950Y89900D03*
X569950Y102600D03*
X569950Y115300D03*
X569950Y128000D03*
X569950Y140700D03*
X569950Y153400D03*
X569950Y166100D03*
X513950Y166100D03*
X513950Y153400D03*
X513950Y140700D03*
X513950Y128000D03*
X513950Y115300D03*
X513950Y102600D03*
X513950Y89900D03*
D11*
X383150Y234650D03*
X383150Y217650D03*
D12*
X433950Y234650D03*
X433950Y217650D03*
D11*
X408550Y234650D03*
X408550Y217650D03*
D14*
X466650Y253200D03*
X510650Y253200D03*
D12*
X626650Y128000D03*
X609650Y128000D03*
D15*
X516550Y220050D03*
X516550Y201050D03*
D16*
X625850Y177800D03*
X600450Y177800D03*
X625850Y203200D03*
X600450Y203200D03*
X625850Y228600D03*
X600450Y228600D03*
X625850Y254000D03*
X600450Y254000D03*
X625850Y279400D03*
X600450Y279400D03*
D17*
X551450Y65850D03*
X532450Y65850D03*
D18*
X89600Y161950D03*
X113600Y171450D03*
X113600Y152450D03*
X89600Y130200D03*
X113600Y139700D03*
X113600Y120700D03*
X89600Y90450D03*
X113600Y99950D03*
X113600Y80950D03*
D17*
X155550Y174650D03*
X136550Y174650D03*
X155550Y142900D03*
X136550Y142900D03*
X155550Y111150D03*
X136550Y111150D03*
X155550Y79400D03*
X136550Y79400D03*
D11*
X240100Y307950D03*
X240100Y290950D03*
X201100Y234800D03*
X201100Y251800D03*
D12*
X668950Y152200D03*
X668950Y135200D03*
D11*
X191010Y308090D03*
X191010Y291090D03*
X291200Y290950D03*
X291200Y307950D03*
D19*
X248850Y237650D03*
X239350Y261650D03*
X258350Y261650D03*
D18*
X134050Y50830D03*
X158050Y60330D03*
X158050Y41330D03*
X69150Y85750D03*
X45150Y76250D03*
X45150Y95250D03*
X69150Y117500D03*
X45150Y108000D03*
X45150Y127000D03*
X69150Y149250D03*
X45150Y139750D03*
X45150Y158750D03*
D20*
X180000Y174650D03*
X201000Y174650D03*
X180000Y142900D03*
X201000Y142900D03*
X180000Y111150D03*
X201000Y111150D03*
X180000Y79400D03*
X201000Y79400D03*
D21*
X389550Y249900D03*
X409550Y249900D03*
D22*
X266150Y289450D03*
X266150Y309450D03*
D23*
X261620Y190500D02*
X246380Y190500D01*
X246380Y165100D02*
X261620Y165100D01*
X261620Y139700D02*
X246380Y139700D01*
X246380Y114300D02*
X261620Y114300D01*
X261620Y88900D02*
X246380Y88900D01*
D12*
X484450Y138550D03*
X484450Y155550D03*
D23*
X63170Y273050D02*
X47930Y273050D01*
X47930Y247650D02*
X63170Y247650D01*
X63170Y222250D02*
X47930Y222250D01*
D12*
X211700Y215900D03*
X194700Y215900D03*
D24*
X538800Y229299D03*
X548300Y229299D03*
X557800Y229299D03*
X557800Y255301D03*
X538800Y255301D03*
X467200Y191401D03*
X457700Y191401D03*
X448200Y191401D03*
X448200Y165399D03*
X467200Y165399D03*
D11*
X214700Y290950D03*
X214700Y307950D03*
D25*
X151890Y229870D03*
X151890Y249870D03*
X151890Y269870D03*
D26*
X105390Y293370D03*
X105390Y206370D03*
D27*
X139390Y292370D03*
D28*
X139390Y207870D03*
D25*
X341350Y98750D03*
X341350Y118750D03*
X341350Y138750D03*
D26*
X294850Y202250D03*
X294850Y75250D03*
D25*
X341350Y158750D03*
X341350Y178750D03*
D27*
X328850Y201250D03*
D28*
X328850Y76750D03*
D29*
X177800Y60350D03*
X440650Y95900D03*
X441650Y133300D03*
X485750Y170800D03*
X525050Y277700D03*
X239150Y277050D03*
X44450Y64520D03*
X26750Y139550D03*
X500000Y209200D03*
X496550Y65850D03*
X668950Y121300D03*
X215380Y274050D03*
M02*
