G04 EAGLE Gerber RS-274X export*
G75*
%MOMM*%
%FSLAX34Y34*%
%LPD*%
%INBottom Copper*%
%IPPOS*%
%AMOC8*
5,1,8,0,0,1.08239X$1,22.5*%
G01*
%ADD10P,1.649562X8X112.500000*%
%ADD11C,1.524000*%
%ADD12P,1.089317X8X22.500000*%
%ADD13C,0.406400*%
%ADD14C,0.304800*%

G36*
X649987Y10175D02*
X649987Y10175D01*
X650133Y10182D01*
X650187Y10195D01*
X650242Y10201D01*
X650382Y10244D01*
X650524Y10279D01*
X650574Y10302D01*
X650627Y10319D01*
X650756Y10388D01*
X650888Y10451D01*
X650932Y10484D01*
X650981Y10511D01*
X651093Y10604D01*
X651211Y10691D01*
X651248Y10733D01*
X651290Y10768D01*
X651382Y10882D01*
X651480Y10991D01*
X651508Y11039D01*
X651543Y11082D01*
X651610Y11212D01*
X651684Y11338D01*
X651703Y11390D01*
X651728Y11439D01*
X651769Y11580D01*
X651817Y11718D01*
X651824Y11773D01*
X651840Y11826D01*
X651851Y11972D01*
X651871Y12117D01*
X651868Y12172D01*
X651872Y12228D01*
X651855Y12373D01*
X651846Y12519D01*
X651832Y12572D01*
X651825Y12627D01*
X651780Y12766D01*
X651742Y12908D01*
X651715Y12965D01*
X651701Y13010D01*
X651659Y13083D01*
X651601Y13208D01*
X650622Y14902D01*
X648839Y21556D01*
X648839Y28444D01*
X650622Y35098D01*
X654066Y41063D01*
X658937Y45934D01*
X664902Y49378D01*
X671556Y51161D01*
X678444Y51161D01*
X685098Y49378D01*
X686792Y48399D01*
X686926Y48339D01*
X687055Y48272D01*
X687109Y48257D01*
X687159Y48234D01*
X687302Y48201D01*
X687442Y48160D01*
X687498Y48156D01*
X687552Y48144D01*
X687698Y48140D01*
X687844Y48128D01*
X687899Y48134D01*
X687954Y48133D01*
X688098Y48158D01*
X688243Y48175D01*
X688296Y48192D01*
X688351Y48201D01*
X688487Y48254D01*
X688626Y48299D01*
X688675Y48327D01*
X688726Y48347D01*
X688849Y48425D01*
X688977Y48497D01*
X689019Y48534D01*
X689066Y48563D01*
X689171Y48665D01*
X689282Y48760D01*
X689315Y48804D01*
X689356Y48843D01*
X689439Y48963D01*
X689528Y49079D01*
X689553Y49128D01*
X689585Y49174D01*
X689642Y49308D01*
X689708Y49439D01*
X689722Y49493D01*
X689744Y49544D01*
X689774Y49687D01*
X689812Y49828D01*
X689817Y49891D01*
X689827Y49938D01*
X689828Y50021D01*
X689839Y50159D01*
X689839Y299841D01*
X689825Y299987D01*
X689818Y300133D01*
X689805Y300187D01*
X689799Y300242D01*
X689756Y300382D01*
X689721Y300524D01*
X689698Y300574D01*
X689681Y300627D01*
X689612Y300756D01*
X689549Y300888D01*
X689516Y300932D01*
X689489Y300981D01*
X689396Y301093D01*
X689309Y301211D01*
X689267Y301248D01*
X689232Y301290D01*
X689118Y301382D01*
X689009Y301480D01*
X688961Y301508D01*
X688918Y301543D01*
X688788Y301610D01*
X688662Y301684D01*
X688610Y301703D01*
X688561Y301728D01*
X688420Y301769D01*
X688282Y301817D01*
X688227Y301824D01*
X688174Y301840D01*
X688028Y301851D01*
X687883Y301871D01*
X687828Y301868D01*
X687772Y301872D01*
X687627Y301855D01*
X687481Y301846D01*
X687428Y301832D01*
X687373Y301825D01*
X687234Y301780D01*
X687092Y301742D01*
X687035Y301715D01*
X686990Y301701D01*
X686917Y301659D01*
X686792Y301601D01*
X685098Y300622D01*
X678444Y298839D01*
X671556Y298839D01*
X664902Y300622D01*
X658937Y304066D01*
X654066Y308937D01*
X650622Y314902D01*
X648839Y321556D01*
X648839Y328444D01*
X650622Y335098D01*
X651601Y336792D01*
X651661Y336926D01*
X651728Y337055D01*
X651743Y337109D01*
X651766Y337159D01*
X651799Y337302D01*
X651840Y337442D01*
X651844Y337498D01*
X651856Y337552D01*
X651860Y337698D01*
X651872Y337844D01*
X651866Y337899D01*
X651867Y337954D01*
X651842Y338098D01*
X651825Y338243D01*
X651808Y338296D01*
X651799Y338351D01*
X651746Y338487D01*
X651701Y338626D01*
X651673Y338675D01*
X651653Y338726D01*
X651575Y338849D01*
X651503Y338977D01*
X651466Y339019D01*
X651437Y339066D01*
X651335Y339171D01*
X651240Y339282D01*
X651196Y339315D01*
X651157Y339356D01*
X651037Y339439D01*
X650921Y339528D01*
X650872Y339553D01*
X650826Y339585D01*
X650692Y339642D01*
X650561Y339708D01*
X650507Y339722D01*
X650456Y339744D01*
X650313Y339774D01*
X650172Y339812D01*
X650109Y339817D01*
X650062Y339827D01*
X649979Y339828D01*
X649841Y339839D01*
X50159Y339839D01*
X50013Y339825D01*
X49867Y339818D01*
X49813Y339805D01*
X49758Y339799D01*
X49618Y339756D01*
X49476Y339721D01*
X49426Y339698D01*
X49373Y339681D01*
X49244Y339612D01*
X49112Y339549D01*
X49068Y339516D01*
X49019Y339489D01*
X48907Y339396D01*
X48789Y339309D01*
X48752Y339267D01*
X48710Y339232D01*
X48618Y339118D01*
X48520Y339009D01*
X48492Y338961D01*
X48457Y338918D01*
X48390Y338788D01*
X48316Y338662D01*
X48297Y338610D01*
X48272Y338561D01*
X48231Y338420D01*
X48183Y338282D01*
X48176Y338227D01*
X48160Y338174D01*
X48149Y338028D01*
X48129Y337883D01*
X48132Y337828D01*
X48128Y337772D01*
X48145Y337627D01*
X48154Y337481D01*
X48168Y337428D01*
X48175Y337373D01*
X48220Y337234D01*
X48258Y337092D01*
X48285Y337035D01*
X48299Y336990D01*
X48341Y336917D01*
X48399Y336792D01*
X49378Y335098D01*
X51161Y328444D01*
X51161Y321556D01*
X49378Y314902D01*
X45934Y308937D01*
X41063Y304066D01*
X35098Y300622D01*
X28444Y298839D01*
X21556Y298839D01*
X14902Y300622D01*
X13208Y301601D01*
X13074Y301661D01*
X12945Y301728D01*
X12891Y301743D01*
X12841Y301766D01*
X12698Y301799D01*
X12558Y301840D01*
X12502Y301844D01*
X12448Y301856D01*
X12302Y301860D01*
X12156Y301872D01*
X12101Y301866D01*
X12046Y301867D01*
X11902Y301842D01*
X11757Y301825D01*
X11704Y301808D01*
X11649Y301799D01*
X11513Y301746D01*
X11374Y301701D01*
X11325Y301673D01*
X11274Y301653D01*
X11151Y301575D01*
X11023Y301503D01*
X10981Y301466D01*
X10934Y301437D01*
X10829Y301335D01*
X10718Y301240D01*
X10685Y301196D01*
X10644Y301157D01*
X10561Y301037D01*
X10472Y300921D01*
X10447Y300872D01*
X10415Y300826D01*
X10358Y300692D01*
X10292Y300561D01*
X10278Y300507D01*
X10256Y300456D01*
X10226Y300313D01*
X10188Y300172D01*
X10183Y300109D01*
X10173Y300062D01*
X10172Y299979D01*
X10161Y299841D01*
X10161Y50159D01*
X10175Y50013D01*
X10182Y49867D01*
X10195Y49813D01*
X10201Y49758D01*
X10244Y49618D01*
X10279Y49476D01*
X10302Y49426D01*
X10319Y49373D01*
X10388Y49244D01*
X10451Y49112D01*
X10484Y49068D01*
X10511Y49019D01*
X10604Y48907D01*
X10691Y48789D01*
X10733Y48752D01*
X10768Y48710D01*
X10882Y48618D01*
X10991Y48520D01*
X11039Y48492D01*
X11082Y48457D01*
X11212Y48390D01*
X11338Y48316D01*
X11390Y48297D01*
X11439Y48272D01*
X11580Y48231D01*
X11718Y48183D01*
X11773Y48176D01*
X11826Y48160D01*
X11972Y48149D01*
X12117Y48129D01*
X12172Y48132D01*
X12228Y48128D01*
X12373Y48145D01*
X12519Y48154D01*
X12572Y48168D01*
X12627Y48175D01*
X12766Y48220D01*
X12908Y48258D01*
X12965Y48285D01*
X13010Y48299D01*
X13083Y48341D01*
X13208Y48399D01*
X14902Y49378D01*
X21556Y51161D01*
X28444Y51161D01*
X35098Y49378D01*
X41063Y45934D01*
X45934Y41063D01*
X49378Y35098D01*
X51161Y28444D01*
X51161Y21556D01*
X49378Y14902D01*
X48399Y13208D01*
X48339Y13074D01*
X48272Y12945D01*
X48257Y12891D01*
X48234Y12841D01*
X48201Y12698D01*
X48160Y12558D01*
X48156Y12502D01*
X48144Y12448D01*
X48140Y12302D01*
X48128Y12156D01*
X48134Y12101D01*
X48133Y12046D01*
X48158Y11902D01*
X48175Y11757D01*
X48192Y11704D01*
X48201Y11649D01*
X48254Y11513D01*
X48299Y11374D01*
X48327Y11325D01*
X48347Y11274D01*
X48425Y11151D01*
X48497Y11023D01*
X48534Y10981D01*
X48563Y10934D01*
X48665Y10829D01*
X48760Y10718D01*
X48804Y10685D01*
X48843Y10644D01*
X48963Y10561D01*
X49079Y10472D01*
X49128Y10447D01*
X49174Y10415D01*
X49308Y10358D01*
X49439Y10292D01*
X49493Y10278D01*
X49544Y10256D01*
X49687Y10226D01*
X49828Y10188D01*
X49891Y10183D01*
X49938Y10173D01*
X50021Y10172D01*
X50159Y10161D01*
X649841Y10161D01*
X649987Y10175D01*
G37*
%LPC*%
G36*
X324516Y179459D02*
X324516Y179459D01*
X316507Y182777D01*
X310377Y188907D01*
X307059Y196916D01*
X307059Y205584D01*
X310377Y213593D01*
X316507Y219723D01*
X324516Y223041D01*
X333184Y223041D01*
X341193Y219723D01*
X347323Y213593D01*
X350641Y205584D01*
X350641Y196916D01*
X347323Y188907D01*
X341193Y182777D01*
X340909Y182659D01*
X333184Y179459D01*
X324516Y179459D01*
G37*
%LPD*%
%LPC*%
G36*
X135056Y270579D02*
X135056Y270579D01*
X127047Y273897D01*
X120917Y280027D01*
X117599Y288036D01*
X117599Y296704D01*
X120917Y304713D01*
X127047Y310843D01*
X127289Y310944D01*
X135056Y314161D01*
X143724Y314161D01*
X151733Y310843D01*
X157863Y304713D01*
X161181Y296704D01*
X161181Y288036D01*
X157863Y280027D01*
X151733Y273897D01*
X143724Y270579D01*
X135056Y270579D01*
G37*
%LPD*%
%LPC*%
G36*
X325934Y62089D02*
X325934Y62089D01*
X320545Y64321D01*
X316421Y68445D01*
X314189Y73834D01*
X314189Y79666D01*
X316421Y85055D01*
X320545Y89179D01*
X321411Y89537D01*
X321411Y89538D01*
X325934Y91411D01*
X331766Y91411D01*
X337155Y89179D01*
X341279Y85055D01*
X343511Y79666D01*
X343511Y73834D01*
X341279Y68445D01*
X337155Y64321D01*
X331766Y62089D01*
X325934Y62089D01*
G37*
%LPD*%
%LPC*%
G36*
X136474Y193209D02*
X136474Y193209D01*
X131085Y195441D01*
X126961Y199565D01*
X124729Y204954D01*
X124729Y210786D01*
X126961Y216175D01*
X131085Y220299D01*
X134151Y221569D01*
X136474Y222531D01*
X142306Y222531D01*
X147695Y220299D01*
X151819Y216175D01*
X154051Y210786D01*
X154051Y204954D01*
X151819Y199565D01*
X147695Y195441D01*
X142306Y193209D01*
X136474Y193209D01*
G37*
%LPD*%
%LPC*%
G36*
X46111Y263905D02*
X46111Y263905D01*
X42750Y265297D01*
X40177Y267870D01*
X38785Y271231D01*
X38785Y274869D01*
X40177Y278230D01*
X42750Y280803D01*
X46111Y282195D01*
X64989Y282195D01*
X68350Y280803D01*
X70923Y278230D01*
X72315Y274869D01*
X72315Y271231D01*
X70923Y267870D01*
X68350Y265297D01*
X64989Y263905D01*
X46111Y263905D01*
G37*
%LPD*%
%LPC*%
G36*
X46111Y213105D02*
X46111Y213105D01*
X42750Y214497D01*
X40177Y217070D01*
X38785Y220431D01*
X38785Y224069D01*
X40177Y227430D01*
X42750Y230003D01*
X46111Y231395D01*
X64989Y231395D01*
X68350Y230003D01*
X70923Y227430D01*
X72315Y224069D01*
X72315Y220431D01*
X70923Y217070D01*
X68350Y214497D01*
X64989Y213105D01*
X46111Y213105D01*
G37*
%LPD*%
%LPC*%
G36*
X244561Y181355D02*
X244561Y181355D01*
X241200Y182747D01*
X238627Y185320D01*
X237235Y188681D01*
X237235Y192319D01*
X238627Y195680D01*
X241200Y198253D01*
X244561Y199645D01*
X263439Y199645D01*
X266800Y198253D01*
X269373Y195680D01*
X270765Y192319D01*
X270765Y188681D01*
X269373Y185320D01*
X266800Y182747D01*
X263439Y181355D01*
X244561Y181355D01*
G37*
%LPD*%
%LPC*%
G36*
X46111Y238505D02*
X46111Y238505D01*
X42750Y239897D01*
X40177Y242470D01*
X38785Y245831D01*
X38785Y249469D01*
X40177Y252830D01*
X42750Y255403D01*
X46111Y256795D01*
X64989Y256795D01*
X68350Y255403D01*
X70923Y252830D01*
X72315Y249469D01*
X72315Y245831D01*
X70923Y242470D01*
X68350Y239897D01*
X64989Y238505D01*
X46111Y238505D01*
G37*
%LPD*%
%LPC*%
G36*
X244561Y155955D02*
X244561Y155955D01*
X241200Y157347D01*
X238627Y159920D01*
X237235Y163281D01*
X237235Y166919D01*
X238627Y170280D01*
X241200Y172853D01*
X244561Y174245D01*
X263439Y174245D01*
X266800Y172853D01*
X269373Y170280D01*
X270765Y166919D01*
X270765Y163281D01*
X269373Y159920D01*
X266800Y157347D01*
X263439Y155955D01*
X244561Y155955D01*
G37*
%LPD*%
%LPC*%
G36*
X244561Y105155D02*
X244561Y105155D01*
X241200Y106547D01*
X238627Y109120D01*
X237235Y112481D01*
X237235Y116119D01*
X238627Y119480D01*
X241200Y122053D01*
X244561Y123445D01*
X263439Y123445D01*
X266800Y122053D01*
X269373Y119480D01*
X270765Y116119D01*
X270765Y112481D01*
X269373Y109120D01*
X266800Y106547D01*
X264202Y105471D01*
X263439Y105155D01*
X244561Y105155D01*
G37*
%LPD*%
%LPC*%
G36*
X244561Y130555D02*
X244561Y130555D01*
X241200Y131947D01*
X238627Y134520D01*
X237235Y137881D01*
X237235Y141519D01*
X238627Y144880D01*
X241200Y147453D01*
X243593Y148444D01*
X244561Y148845D01*
X263439Y148845D01*
X266800Y147453D01*
X269373Y144880D01*
X270765Y141519D01*
X270765Y137881D01*
X269373Y134520D01*
X266800Y131947D01*
X263439Y130555D01*
X244561Y130555D01*
G37*
%LPD*%
%LPC*%
G36*
X622062Y244855D02*
X622062Y244855D01*
X616705Y250212D01*
X616705Y257788D01*
X622062Y263145D01*
X629638Y263145D01*
X634995Y257788D01*
X634995Y250212D01*
X629638Y244855D01*
X622062Y244855D01*
G37*
%LPD*%
%LPC*%
G36*
X596662Y168655D02*
X596662Y168655D01*
X591305Y174012D01*
X591305Y181588D01*
X596662Y186945D01*
X604238Y186945D01*
X609595Y181588D01*
X609595Y174012D01*
X604238Y168655D01*
X596662Y168655D01*
G37*
%LPD*%
%LPC*%
G36*
X622062Y168655D02*
X622062Y168655D01*
X616705Y174012D01*
X616705Y181588D01*
X622062Y186945D01*
X629638Y186945D01*
X634995Y181588D01*
X634995Y174012D01*
X629638Y168655D01*
X622062Y168655D01*
G37*
%LPD*%
%LPC*%
G36*
X622062Y219455D02*
X622062Y219455D01*
X616705Y224812D01*
X616705Y232388D01*
X622062Y237745D01*
X629638Y237745D01*
X634995Y232388D01*
X634995Y224812D01*
X629638Y219455D01*
X622062Y219455D01*
G37*
%LPD*%
%LPC*%
G36*
X622062Y270255D02*
X622062Y270255D01*
X616705Y275612D01*
X616705Y283188D01*
X622062Y288545D01*
X629638Y288545D01*
X634995Y283188D01*
X634995Y275612D01*
X629638Y270255D01*
X622062Y270255D01*
G37*
%LPD*%
%LPC*%
G36*
X622062Y194055D02*
X622062Y194055D01*
X616705Y199412D01*
X616705Y206988D01*
X622062Y212345D01*
X629638Y212345D01*
X634995Y206988D01*
X634995Y199412D01*
X629638Y194055D01*
X622062Y194055D01*
G37*
%LPD*%
%LPC*%
G36*
X256539Y91439D02*
X256539Y91439D01*
X256539Y99061D01*
X262420Y99061D01*
X263999Y98811D01*
X265520Y98316D01*
X266945Y97590D01*
X268239Y96650D01*
X269370Y95519D01*
X270310Y94225D01*
X271036Y92800D01*
X271479Y91439D01*
X256539Y91439D01*
G37*
%LPD*%
%LPC*%
G36*
X236521Y91439D02*
X236521Y91439D01*
X236964Y92800D01*
X237690Y94225D01*
X238630Y95519D01*
X239761Y96650D01*
X241055Y97590D01*
X242480Y98316D01*
X244001Y98811D01*
X245580Y99061D01*
X251461Y99061D01*
X251461Y91439D01*
X236521Y91439D01*
G37*
%LPD*%
%LPC*%
G36*
X256539Y78739D02*
X256539Y78739D01*
X256539Y86361D01*
X271479Y86361D01*
X271036Y85000D01*
X270310Y83575D01*
X269370Y82281D01*
X268239Y81150D01*
X266945Y80210D01*
X265520Y79484D01*
X263999Y78989D01*
X262420Y78739D01*
X256539Y78739D01*
G37*
%LPD*%
%LPC*%
G36*
X245580Y78739D02*
X245580Y78739D01*
X244001Y78989D01*
X242480Y79484D01*
X241055Y80210D01*
X239761Y81150D01*
X238630Y82281D01*
X237690Y83575D01*
X236964Y85000D01*
X236521Y86361D01*
X251461Y86361D01*
X251461Y78739D01*
X245580Y78739D01*
G37*
%LPD*%
%LPC*%
G36*
X602989Y256539D02*
X602989Y256539D01*
X602989Y264161D01*
X604659Y264161D01*
X610611Y258209D01*
X610611Y256539D01*
X602989Y256539D01*
G37*
%LPD*%
%LPC*%
G36*
X602989Y205739D02*
X602989Y205739D01*
X602989Y213361D01*
X604659Y213361D01*
X610611Y207409D01*
X610611Y205739D01*
X602989Y205739D01*
G37*
%LPD*%
%LPC*%
G36*
X602989Y231139D02*
X602989Y231139D01*
X602989Y238761D01*
X604659Y238761D01*
X610611Y232809D01*
X610611Y231139D01*
X602989Y231139D01*
G37*
%LPD*%
%LPC*%
G36*
X602989Y281939D02*
X602989Y281939D01*
X602989Y289561D01*
X604659Y289561D01*
X610611Y283609D01*
X610611Y281939D01*
X602989Y281939D01*
G37*
%LPD*%
%LPC*%
G36*
X590289Y205739D02*
X590289Y205739D01*
X590289Y207409D01*
X596241Y213361D01*
X597911Y213361D01*
X597911Y205739D01*
X590289Y205739D01*
G37*
%LPD*%
%LPC*%
G36*
X590289Y281939D02*
X590289Y281939D01*
X590289Y283609D01*
X596241Y289561D01*
X597911Y289561D01*
X597911Y281939D01*
X590289Y281939D01*
G37*
%LPD*%
%LPC*%
G36*
X590289Y231139D02*
X590289Y231139D01*
X590289Y232809D01*
X596241Y238761D01*
X597911Y238761D01*
X597911Y231139D01*
X590289Y231139D01*
G37*
%LPD*%
%LPC*%
G36*
X590289Y256539D02*
X590289Y256539D01*
X590289Y258209D01*
X596241Y264161D01*
X597911Y264161D01*
X597911Y256539D01*
X590289Y256539D01*
G37*
%LPD*%
%LPC*%
G36*
X602989Y243839D02*
X602989Y243839D01*
X602989Y251461D01*
X610611Y251461D01*
X610611Y249791D01*
X604659Y243839D01*
X602989Y243839D01*
G37*
%LPD*%
%LPC*%
G36*
X602989Y269239D02*
X602989Y269239D01*
X602989Y276861D01*
X610611Y276861D01*
X610611Y275191D01*
X604659Y269239D01*
X602989Y269239D01*
G37*
%LPD*%
%LPC*%
G36*
X602989Y218439D02*
X602989Y218439D01*
X602989Y226061D01*
X610611Y226061D01*
X610611Y224391D01*
X604659Y218439D01*
X602989Y218439D01*
G37*
%LPD*%
%LPC*%
G36*
X602989Y193039D02*
X602989Y193039D01*
X602989Y200661D01*
X610611Y200661D01*
X610611Y198991D01*
X604659Y193039D01*
X602989Y193039D01*
G37*
%LPD*%
%LPC*%
G36*
X596241Y243839D02*
X596241Y243839D01*
X590289Y249791D01*
X590289Y251461D01*
X597911Y251461D01*
X597911Y243839D01*
X596241Y243839D01*
G37*
%LPD*%
%LPC*%
G36*
X596241Y269239D02*
X596241Y269239D01*
X590289Y275191D01*
X590289Y276861D01*
X597911Y276861D01*
X597911Y269239D01*
X596241Y269239D01*
G37*
%LPD*%
%LPC*%
G36*
X596241Y193039D02*
X596241Y193039D01*
X590289Y198991D01*
X590289Y200661D01*
X597911Y200661D01*
X597911Y193039D01*
X596241Y193039D01*
G37*
%LPD*%
%LPC*%
G36*
X596241Y218439D02*
X596241Y218439D01*
X590289Y224391D01*
X590289Y226061D01*
X597911Y226061D01*
X597911Y218439D01*
X596241Y218439D01*
G37*
%LPD*%
D10*
X625850Y177800D03*
X600450Y177800D03*
X625850Y203200D03*
X600450Y203200D03*
X625850Y228600D03*
X600450Y228600D03*
X625850Y254000D03*
X600450Y254000D03*
X625850Y279400D03*
X600450Y279400D03*
D11*
X261620Y190500D02*
X246380Y190500D01*
X246380Y165100D02*
X261620Y165100D01*
X261620Y139700D02*
X246380Y139700D01*
X246380Y114300D02*
X261620Y114300D01*
X261620Y88900D02*
X246380Y88900D01*
X63170Y273050D02*
X47930Y273050D01*
X47930Y247650D02*
X63170Y247650D01*
X63170Y222250D02*
X47930Y222250D01*
D12*
X177800Y60350D03*
D13*
X190500Y60350D01*
D12*
X440650Y95900D03*
D13*
X449350Y95900D01*
D12*
X441650Y133300D03*
D13*
X441950Y133000D01*
X450650Y133000D01*
X477050Y170800D02*
X485750Y170800D01*
D12*
X485750Y170800D03*
X525050Y277700D03*
D13*
X507750Y277700D01*
D12*
X239150Y277050D03*
D14*
X232800Y277050D01*
D12*
X44450Y64520D03*
D13*
X44450Y58170D01*
D12*
X26750Y139550D03*
D14*
X26750Y145900D01*
D12*
X500000Y209200D03*
D13*
X489650Y209200D01*
D12*
X496550Y65850D03*
D13*
X490200Y65850D01*
D12*
X668950Y121300D03*
D13*
X668950Y107600D01*
D12*
X215380Y274050D03*
D14*
X215380Y267700D01*
M02*
