G04 EAGLE Gerber RS-274X export*
G75*
%MOMM*%
%FSLAX34Y34*%
%LPD*%
%IN*%
%IPPOS*%
%AMOC8*
5,1,8,0,0,1.08239X$1,22.5*%
G01*
%ADD10C,0.254000*%


D10*
X0Y0D02*
X700000Y0D01*
X700000Y350000D01*
X0Y350000D01*
X0Y0D01*
X41000Y324476D02*
X40932Y323431D01*
X40795Y322392D01*
X40590Y321365D01*
X40319Y320353D01*
X39983Y319361D01*
X39582Y318393D01*
X39118Y317454D01*
X38595Y316546D01*
X38013Y315675D01*
X37375Y314844D01*
X36684Y314057D01*
X35943Y313316D01*
X35156Y312625D01*
X34325Y311988D01*
X33454Y311406D01*
X32546Y310882D01*
X31607Y310418D01*
X30639Y310017D01*
X29647Y309681D01*
X28635Y309410D01*
X27608Y309205D01*
X26569Y309069D01*
X25524Y309000D01*
X24476Y309000D01*
X23431Y309069D01*
X22392Y309205D01*
X21365Y309410D01*
X20353Y309681D01*
X19361Y310017D01*
X18393Y310418D01*
X17454Y310882D01*
X16546Y311406D01*
X15675Y311988D01*
X14844Y312625D01*
X14057Y313316D01*
X13316Y314057D01*
X12625Y314844D01*
X11988Y315675D01*
X11406Y316546D01*
X10882Y317454D01*
X10418Y318393D01*
X10017Y319361D01*
X9681Y320353D01*
X9410Y321365D01*
X9205Y322392D01*
X9069Y323431D01*
X9000Y324476D01*
X9000Y325524D01*
X9069Y326569D01*
X9205Y327608D01*
X9410Y328635D01*
X9681Y329647D01*
X10017Y330639D01*
X10418Y331607D01*
X10882Y332546D01*
X11406Y333454D01*
X11988Y334325D01*
X12625Y335156D01*
X13316Y335943D01*
X14057Y336684D01*
X14844Y337375D01*
X15675Y338013D01*
X16546Y338595D01*
X17454Y339118D01*
X18393Y339582D01*
X19361Y339983D01*
X20353Y340319D01*
X21365Y340590D01*
X22392Y340795D01*
X23431Y340932D01*
X24476Y341000D01*
X25524Y341000D01*
X26569Y340932D01*
X27608Y340795D01*
X28635Y340590D01*
X29647Y340319D01*
X30639Y339983D01*
X31607Y339582D01*
X32546Y339118D01*
X33454Y338595D01*
X34325Y338013D01*
X35156Y337375D01*
X35943Y336684D01*
X36684Y335943D01*
X37375Y335156D01*
X38013Y334325D01*
X38595Y333454D01*
X39118Y332546D01*
X39582Y331607D01*
X39983Y330639D01*
X40319Y329647D01*
X40590Y328635D01*
X40795Y327608D01*
X40932Y326569D01*
X41000Y325524D01*
X41000Y324476D01*
X41000Y24476D02*
X40932Y23431D01*
X40795Y22392D01*
X40590Y21365D01*
X40319Y20353D01*
X39983Y19361D01*
X39582Y18393D01*
X39118Y17454D01*
X38595Y16546D01*
X38013Y15675D01*
X37375Y14844D01*
X36684Y14057D01*
X35943Y13316D01*
X35156Y12625D01*
X34325Y11988D01*
X33454Y11406D01*
X32546Y10882D01*
X31607Y10418D01*
X30639Y10017D01*
X29647Y9681D01*
X28635Y9410D01*
X27608Y9205D01*
X26569Y9069D01*
X25524Y9000D01*
X24476Y9000D01*
X23431Y9069D01*
X22392Y9205D01*
X21365Y9410D01*
X20353Y9681D01*
X19361Y10017D01*
X18393Y10418D01*
X17454Y10882D01*
X16546Y11406D01*
X15675Y11988D01*
X14844Y12625D01*
X14057Y13316D01*
X13316Y14057D01*
X12625Y14844D01*
X11988Y15675D01*
X11406Y16546D01*
X10882Y17454D01*
X10418Y18393D01*
X10017Y19361D01*
X9681Y20353D01*
X9410Y21365D01*
X9205Y22392D01*
X9069Y23431D01*
X9000Y24476D01*
X9000Y25524D01*
X9069Y26569D01*
X9205Y27608D01*
X9410Y28635D01*
X9681Y29647D01*
X10017Y30639D01*
X10418Y31607D01*
X10882Y32546D01*
X11406Y33454D01*
X11988Y34325D01*
X12625Y35156D01*
X13316Y35943D01*
X14057Y36684D01*
X14844Y37375D01*
X15675Y38013D01*
X16546Y38595D01*
X17454Y39118D01*
X18393Y39582D01*
X19361Y39983D01*
X20353Y40319D01*
X21365Y40590D01*
X22392Y40795D01*
X23431Y40932D01*
X24476Y41000D01*
X25524Y41000D01*
X26569Y40932D01*
X27608Y40795D01*
X28635Y40590D01*
X29647Y40319D01*
X30639Y39983D01*
X31607Y39582D01*
X32546Y39118D01*
X33454Y38595D01*
X34325Y38013D01*
X35156Y37375D01*
X35943Y36684D01*
X36684Y35943D01*
X37375Y35156D01*
X38013Y34325D01*
X38595Y33454D01*
X39118Y32546D01*
X39582Y31607D01*
X39983Y30639D01*
X40319Y29647D01*
X40590Y28635D01*
X40795Y27608D01*
X40932Y26569D01*
X41000Y25524D01*
X41000Y24476D01*
X691000Y24476D02*
X690932Y23431D01*
X690795Y22392D01*
X690590Y21365D01*
X690319Y20353D01*
X689983Y19361D01*
X689582Y18393D01*
X689118Y17454D01*
X688595Y16546D01*
X688013Y15675D01*
X687375Y14844D01*
X686684Y14057D01*
X685943Y13316D01*
X685156Y12625D01*
X684325Y11988D01*
X683454Y11406D01*
X682546Y10882D01*
X681607Y10418D01*
X680639Y10017D01*
X679647Y9681D01*
X678635Y9410D01*
X677608Y9205D01*
X676569Y9069D01*
X675524Y9000D01*
X674476Y9000D01*
X673431Y9069D01*
X672392Y9205D01*
X671365Y9410D01*
X670353Y9681D01*
X669361Y10017D01*
X668393Y10418D01*
X667454Y10882D01*
X666546Y11406D01*
X665675Y11988D01*
X664844Y12625D01*
X664057Y13316D01*
X663316Y14057D01*
X662625Y14844D01*
X661988Y15675D01*
X661406Y16546D01*
X660882Y17454D01*
X660418Y18393D01*
X660017Y19361D01*
X659681Y20353D01*
X659410Y21365D01*
X659205Y22392D01*
X659069Y23431D01*
X659000Y24476D01*
X659000Y25524D01*
X659069Y26569D01*
X659205Y27608D01*
X659410Y28635D01*
X659681Y29647D01*
X660017Y30639D01*
X660418Y31607D01*
X660882Y32546D01*
X661406Y33454D01*
X661988Y34325D01*
X662625Y35156D01*
X663316Y35943D01*
X664057Y36684D01*
X664844Y37375D01*
X665675Y38013D01*
X666546Y38595D01*
X667454Y39118D01*
X668393Y39582D01*
X669361Y39983D01*
X670353Y40319D01*
X671365Y40590D01*
X672392Y40795D01*
X673431Y40932D01*
X674476Y41000D01*
X675524Y41000D01*
X676569Y40932D01*
X677608Y40795D01*
X678635Y40590D01*
X679647Y40319D01*
X680639Y39983D01*
X681607Y39582D01*
X682546Y39118D01*
X683454Y38595D01*
X684325Y38013D01*
X685156Y37375D01*
X685943Y36684D01*
X686684Y35943D01*
X687375Y35156D01*
X688013Y34325D01*
X688595Y33454D01*
X689118Y32546D01*
X689582Y31607D01*
X689983Y30639D01*
X690319Y29647D01*
X690590Y28635D01*
X690795Y27608D01*
X690932Y26569D01*
X691000Y25524D01*
X691000Y24476D01*
X691000Y324476D02*
X690932Y323431D01*
X690795Y322392D01*
X690590Y321365D01*
X690319Y320353D01*
X689983Y319361D01*
X689582Y318393D01*
X689118Y317454D01*
X688595Y316546D01*
X688013Y315675D01*
X687375Y314844D01*
X686684Y314057D01*
X685943Y313316D01*
X685156Y312625D01*
X684325Y311988D01*
X683454Y311406D01*
X682546Y310882D01*
X681607Y310418D01*
X680639Y310017D01*
X679647Y309681D01*
X678635Y309410D01*
X677608Y309205D01*
X676569Y309069D01*
X675524Y309000D01*
X674476Y309000D01*
X673431Y309069D01*
X672392Y309205D01*
X671365Y309410D01*
X670353Y309681D01*
X669361Y310017D01*
X668393Y310418D01*
X667454Y310882D01*
X666546Y311406D01*
X665675Y311988D01*
X664844Y312625D01*
X664057Y313316D01*
X663316Y314057D01*
X662625Y314844D01*
X661988Y315675D01*
X661406Y316546D01*
X660882Y317454D01*
X660418Y318393D01*
X660017Y319361D01*
X659681Y320353D01*
X659410Y321365D01*
X659205Y322392D01*
X659069Y323431D01*
X659000Y324476D01*
X659000Y325524D01*
X659069Y326569D01*
X659205Y327608D01*
X659410Y328635D01*
X659681Y329647D01*
X660017Y330639D01*
X660418Y331607D01*
X660882Y332546D01*
X661406Y333454D01*
X661988Y334325D01*
X662625Y335156D01*
X663316Y335943D01*
X664057Y336684D01*
X664844Y337375D01*
X665675Y338013D01*
X666546Y338595D01*
X667454Y339118D01*
X668393Y339582D01*
X669361Y339983D01*
X670353Y340319D01*
X671365Y340590D01*
X672392Y340795D01*
X673431Y340932D01*
X674476Y341000D01*
X675524Y341000D01*
X676569Y340932D01*
X677608Y340795D01*
X678635Y340590D01*
X679647Y340319D01*
X680639Y339983D01*
X681607Y339582D01*
X682546Y339118D01*
X683454Y338595D01*
X684325Y338013D01*
X685156Y337375D01*
X685943Y336684D01*
X686684Y335943D01*
X687375Y335156D01*
X688013Y334325D01*
X688595Y333454D01*
X689118Y332546D01*
X689582Y331607D01*
X689983Y330639D01*
X690319Y329647D01*
X690590Y328635D01*
X690795Y327608D01*
X690932Y326569D01*
X691000Y325524D01*
X691000Y324476D01*
X138933Y280740D02*
X138022Y280812D01*
X137119Y280955D01*
X136231Y281168D01*
X135362Y281450D01*
X134517Y281800D01*
X133703Y282215D01*
X132924Y282693D01*
X132184Y283230D01*
X131489Y283823D01*
X130843Y284469D01*
X130250Y285164D01*
X129713Y285904D01*
X129235Y286683D01*
X128820Y287497D01*
X128470Y288342D01*
X128188Y289211D01*
X127975Y290099D01*
X127832Y291002D01*
X127760Y291913D01*
X127760Y292827D01*
X127832Y293738D01*
X127975Y294641D01*
X128188Y295529D01*
X128470Y296398D01*
X128820Y297243D01*
X129235Y298057D01*
X129713Y298836D01*
X130250Y299576D01*
X130843Y300271D01*
X131489Y300917D01*
X132184Y301510D01*
X132924Y302047D01*
X133703Y302525D01*
X134517Y302940D01*
X135362Y303290D01*
X136231Y303572D01*
X137119Y303785D01*
X138022Y303928D01*
X138933Y304000D01*
X139847Y304000D01*
X140758Y303928D01*
X141661Y303785D01*
X142549Y303572D01*
X143418Y303290D01*
X144263Y302940D01*
X145077Y302525D01*
X145856Y302047D01*
X146596Y301510D01*
X147291Y300917D01*
X147937Y300271D01*
X148530Y299576D01*
X149067Y298836D01*
X149545Y298057D01*
X149960Y297243D01*
X150310Y296398D01*
X150592Y295529D01*
X150805Y294641D01*
X150948Y293738D01*
X151020Y292827D01*
X151020Y291913D01*
X150948Y291002D01*
X150805Y290099D01*
X150592Y289211D01*
X150310Y288342D01*
X149960Y287497D01*
X149545Y286683D01*
X149067Y285904D01*
X148530Y285164D01*
X147937Y284469D01*
X147291Y283823D01*
X146596Y283230D01*
X145856Y282693D01*
X145077Y282215D01*
X144263Y281800D01*
X143418Y281450D01*
X142549Y281168D01*
X141661Y280955D01*
X140758Y280812D01*
X139847Y280740D01*
X138933Y280740D01*
X139095Y203370D02*
X138510Y203447D01*
X137940Y203600D01*
X137395Y203825D01*
X136885Y204120D01*
X136417Y204479D01*
X135999Y204897D01*
X135640Y205365D01*
X135345Y205875D01*
X135120Y206420D01*
X134967Y206990D01*
X134890Y207575D01*
X134890Y208165D01*
X134967Y208750D01*
X135120Y209320D01*
X135345Y209865D01*
X135640Y210375D01*
X135999Y210843D01*
X136417Y211261D01*
X136885Y211620D01*
X137395Y211915D01*
X137940Y212140D01*
X138510Y212293D01*
X139095Y212370D01*
X139685Y212370D01*
X140270Y212293D01*
X140840Y212140D01*
X141385Y211915D01*
X141895Y211620D01*
X142363Y211261D01*
X142781Y210843D01*
X143140Y210375D01*
X143435Y209865D01*
X143660Y209320D01*
X143813Y208750D01*
X143890Y208165D01*
X143890Y207575D01*
X143813Y206990D01*
X143660Y206420D01*
X143435Y205875D01*
X143140Y205365D01*
X142781Y204897D01*
X142363Y204479D01*
X141895Y204120D01*
X141385Y203825D01*
X140840Y203600D01*
X140270Y203447D01*
X139685Y203370D01*
X139095Y203370D01*
X328393Y189620D02*
X327482Y189692D01*
X326579Y189835D01*
X325691Y190048D01*
X324822Y190330D01*
X323977Y190680D01*
X323163Y191095D01*
X322384Y191573D01*
X321644Y192110D01*
X320949Y192703D01*
X320303Y193349D01*
X319710Y194044D01*
X319173Y194784D01*
X318695Y195563D01*
X318280Y196377D01*
X317930Y197222D01*
X317648Y198091D01*
X317435Y198979D01*
X317292Y199882D01*
X317220Y200793D01*
X317220Y201707D01*
X317292Y202618D01*
X317435Y203521D01*
X317648Y204409D01*
X317930Y205278D01*
X318280Y206123D01*
X318695Y206937D01*
X319173Y207716D01*
X319710Y208456D01*
X320303Y209151D01*
X320949Y209797D01*
X321644Y210390D01*
X322384Y210927D01*
X323163Y211405D01*
X323977Y211820D01*
X324822Y212170D01*
X325691Y212452D01*
X326579Y212665D01*
X327482Y212808D01*
X328393Y212880D01*
X329307Y212880D01*
X330218Y212808D01*
X331121Y212665D01*
X332009Y212452D01*
X332878Y212170D01*
X333723Y211820D01*
X334537Y211405D01*
X335316Y210927D01*
X336056Y210390D01*
X336751Y209797D01*
X337397Y209151D01*
X337990Y208456D01*
X338527Y207716D01*
X339005Y206937D01*
X339420Y206123D01*
X339770Y205278D01*
X340052Y204409D01*
X340265Y203521D01*
X340408Y202618D01*
X340480Y201707D01*
X340480Y200793D01*
X340408Y199882D01*
X340265Y198979D01*
X340052Y198091D01*
X339770Y197222D01*
X339420Y196377D01*
X339005Y195563D01*
X338527Y194784D01*
X337990Y194044D01*
X337397Y193349D01*
X336751Y192703D01*
X336056Y192110D01*
X335316Y191573D01*
X334537Y191095D01*
X333723Y190680D01*
X332878Y190330D01*
X332009Y190048D01*
X331121Y189835D01*
X330218Y189692D01*
X329307Y189620D01*
X328393Y189620D01*
X328555Y72250D02*
X327970Y72327D01*
X327400Y72480D01*
X326855Y72705D01*
X326345Y73000D01*
X325877Y73359D01*
X325459Y73777D01*
X325100Y74245D01*
X324805Y74755D01*
X324580Y75300D01*
X324427Y75870D01*
X324350Y76455D01*
X324350Y77045D01*
X324427Y77630D01*
X324580Y78200D01*
X324805Y78745D01*
X325100Y79255D01*
X325459Y79723D01*
X325877Y80141D01*
X326345Y80500D01*
X326855Y80795D01*
X327400Y81020D01*
X327970Y81173D01*
X328555Y81250D01*
X329145Y81250D01*
X329730Y81173D01*
X330300Y81020D01*
X330845Y80795D01*
X331355Y80500D01*
X331823Y80141D01*
X332241Y79723D01*
X332600Y79255D01*
X332895Y78745D01*
X333120Y78200D01*
X333273Y77630D01*
X333350Y77045D01*
X333350Y76455D01*
X333273Y75870D01*
X333120Y75300D01*
X332895Y74755D01*
X332600Y74245D01*
X332241Y73777D01*
X331823Y73359D01*
X331355Y73000D01*
X330845Y72705D01*
X330300Y72480D01*
X329730Y72327D01*
X329145Y72250D01*
X328555Y72250D01*
M02*
