G04 EAGLE Gerber RS-274X export*
G75*
%MOMM*%
%FSLAX34Y34*%
%LPD*%
%INSilkscreen Top*%
%IPPOS*%
%AMOC8*
5,1,8,0,0,1.08239X$1,22.5*%
G01*
%ADD10C,0.101600*%
%ADD11C,0.152400*%
%ADD12C,0.076200*%
%ADD13R,0.127000X0.508000*%
%ADD14C,0.127000*%
%ADD15C,0.203200*%
%ADD16R,0.200000X0.200000*%
%ADD17R,0.508000X0.508000*%
%ADD18C,0.100000*%
%ADD19C,0.200000*%
%ADD20C,0.200000*%


D10*
X318157Y281508D02*
X322055Y281508D01*
X324004Y283457D01*
X324004Y287355D01*
X322055Y289304D01*
X318157Y289304D01*
X316208Y287355D01*
X316208Y283457D01*
X318157Y281508D01*
X327902Y277610D02*
X327902Y289304D01*
X333749Y289304D01*
X335698Y287355D01*
X335698Y283457D01*
X333749Y281508D01*
X327902Y281508D01*
X341545Y281508D02*
X345443Y281508D01*
X341545Y281508D02*
X339596Y283457D01*
X339596Y287355D01*
X341545Y289304D01*
X345443Y289304D01*
X347392Y287355D01*
X347392Y285406D01*
X339596Y285406D01*
X351290Y281508D02*
X351290Y289304D01*
X357137Y289304D01*
X359086Y287355D01*
X359086Y281508D01*
X362984Y289304D02*
X364933Y289304D01*
X364933Y281508D01*
X362984Y281508D02*
X366882Y281508D01*
X364933Y293202D02*
X364933Y295151D01*
X370780Y289304D02*
X370780Y281508D01*
X370780Y289304D02*
X376627Y289304D01*
X378576Y287355D01*
X378576Y281508D01*
X386372Y281508D02*
X382474Y289304D01*
X390270Y289304D02*
X386372Y281508D01*
X396117Y281508D02*
X400015Y281508D01*
X396117Y281508D02*
X394168Y283457D01*
X394168Y287355D01*
X396117Y289304D01*
X400015Y289304D01*
X401964Y287355D01*
X401964Y285406D01*
X394168Y285406D01*
X405862Y281508D02*
X405862Y289304D01*
X405862Y285406D02*
X409760Y289304D01*
X411709Y289304D01*
X417556Y291253D02*
X417556Y283457D01*
X419505Y281508D01*
X419505Y289304D02*
X415607Y289304D01*
X425352Y281508D02*
X429250Y281508D01*
X425352Y281508D02*
X423403Y283457D01*
X423403Y287355D01*
X425352Y289304D01*
X429250Y289304D01*
X431199Y287355D01*
X431199Y285406D01*
X423403Y285406D01*
X435097Y281508D02*
X435097Y289304D01*
X435097Y285406D02*
X438995Y289304D01*
X440944Y289304D01*
X444842Y283457D02*
X444842Y281508D01*
X444842Y283457D02*
X446791Y283457D01*
X446791Y281508D01*
X444842Y281508D01*
X452638Y281508D02*
X456536Y281508D01*
X458485Y283457D01*
X458485Y287355D01*
X456536Y289304D01*
X452638Y289304D01*
X450689Y287355D01*
X450689Y283457D01*
X452638Y281508D01*
X462383Y281508D02*
X462383Y289304D01*
X462383Y285406D02*
X466281Y289304D01*
X468230Y289304D01*
X476026Y277610D02*
X477975Y277610D01*
X479924Y279559D01*
X479924Y289304D01*
X474077Y289304D01*
X472128Y287355D01*
X472128Y283457D01*
X474077Y281508D01*
X479924Y281508D01*
D11*
X26009Y273597D02*
X15162Y273597D01*
X31534Y281732D02*
X42380Y273597D01*
X31534Y265462D01*
X15315Y258602D02*
X4469Y250467D01*
X15315Y242332D01*
X20840Y250467D02*
X31687Y250467D01*
D10*
X324055Y316508D02*
X324055Y328202D01*
X318208Y322355D01*
X326004Y322355D01*
X329902Y322355D02*
X337698Y322355D01*
X343545Y324304D02*
X349392Y324304D01*
X343545Y324304D02*
X341596Y322355D01*
X341596Y318457D01*
X343545Y316508D01*
X349392Y316508D01*
X355239Y316508D02*
X359137Y316508D01*
X355239Y316508D02*
X353290Y318457D01*
X353290Y322355D01*
X355239Y324304D01*
X359137Y324304D01*
X361086Y322355D01*
X361086Y320406D01*
X353290Y320406D01*
X364984Y328202D02*
X366933Y328202D01*
X366933Y316508D01*
X364984Y316508D02*
X368882Y316508D01*
X372780Y328202D02*
X374729Y328202D01*
X374729Y316508D01*
X372780Y316508D02*
X376678Y316508D01*
X392270Y316508D02*
X392270Y328202D01*
X398117Y328202D01*
X400066Y326253D01*
X400066Y324304D01*
X398117Y322355D01*
X400066Y320406D01*
X400066Y318457D01*
X398117Y316508D01*
X392270Y316508D01*
X392270Y322355D02*
X398117Y322355D01*
X403964Y316508D02*
X403964Y328202D01*
X407862Y324304D01*
X411760Y328202D01*
X411760Y316508D01*
X423454Y326253D02*
X421505Y328202D01*
X417607Y328202D01*
X415658Y326253D01*
X415658Y324304D01*
X417607Y322355D01*
X421505Y322355D01*
X423454Y320406D01*
X423454Y318457D01*
X421505Y316508D01*
X417607Y316508D01*
X415658Y318457D01*
X439046Y316508D02*
X444893Y316508D01*
X446842Y318457D01*
X444893Y320406D01*
X440995Y320406D01*
X439046Y322355D01*
X440995Y324304D01*
X446842Y324304D01*
X450740Y328202D02*
X452689Y328202D01*
X452689Y316508D01*
X450740Y316508D02*
X454638Y316508D01*
X460485Y324304D02*
X464383Y324304D01*
X466332Y322355D01*
X466332Y316508D01*
X460485Y316508D01*
X458536Y318457D01*
X460485Y320406D01*
X466332Y320406D01*
X470230Y324304D02*
X474128Y316508D01*
X478026Y324304D01*
X483873Y316508D02*
X487771Y316508D01*
X483873Y316508D02*
X481924Y318457D01*
X481924Y322355D01*
X483873Y324304D01*
X487771Y324304D01*
X489720Y322355D01*
X489720Y320406D01*
X481924Y320406D01*
X321106Y299508D02*
X317208Y303406D01*
X317208Y307304D01*
X321106Y311202D01*
X326953Y307304D02*
X332800Y307304D01*
X326953Y307304D02*
X325004Y305355D01*
X325004Y301457D01*
X326953Y299508D01*
X332800Y299508D01*
X336698Y299508D02*
X340596Y303406D01*
X340596Y307304D01*
X336698Y311202D01*
X356188Y299508D02*
X363984Y299508D01*
X356188Y299508D02*
X363984Y307304D01*
X363984Y309253D01*
X362035Y311202D01*
X358137Y311202D01*
X356188Y309253D01*
X367882Y309253D02*
X367882Y301457D01*
X367882Y309253D02*
X369831Y311202D01*
X373729Y311202D01*
X375678Y309253D01*
X375678Y301457D01*
X373729Y299508D01*
X369831Y299508D01*
X367882Y301457D01*
X375678Y309253D01*
X379576Y307304D02*
X383474Y311202D01*
X383474Y299508D01*
X379576Y299508D02*
X387372Y299508D01*
X391270Y301457D02*
X393219Y299508D01*
X397117Y299508D01*
X399066Y301457D01*
X399066Y309253D01*
X397117Y311202D01*
X393219Y311202D01*
X391270Y309253D01*
X391270Y307304D01*
X393219Y305355D01*
X399066Y305355D01*
X414658Y301457D02*
X416607Y299508D01*
X418556Y299508D01*
X420505Y301457D01*
X420505Y311202D01*
X418556Y311202D02*
X422454Y311202D01*
X438046Y311202D02*
X438046Y299508D01*
X438046Y305355D02*
X445842Y305355D01*
X445842Y311202D02*
X445842Y299508D01*
X449740Y301457D02*
X449740Y307304D01*
X449740Y301457D02*
X451689Y299508D01*
X457536Y299508D01*
X457536Y307304D01*
X463383Y299508D02*
X467281Y299508D01*
X463383Y299508D02*
X461434Y301457D01*
X461434Y305355D01*
X463383Y307304D01*
X467281Y307304D01*
X469230Y305355D01*
X469230Y303406D01*
X461434Y303406D01*
X473128Y299508D02*
X473128Y311202D01*
X473128Y299508D02*
X478975Y299508D01*
X480924Y301457D01*
X480924Y305355D01*
X478975Y307304D01*
X473128Y307304D01*
X484822Y307304D02*
X484822Y299508D01*
X484822Y307304D02*
X490669Y307304D01*
X492618Y305355D01*
X492618Y299508D01*
X498464Y299508D02*
X502362Y299508D01*
X498464Y299508D02*
X496516Y301457D01*
X496516Y305355D01*
X498464Y307304D01*
X502362Y307304D01*
X504311Y305355D01*
X504311Y303406D01*
X496516Y303406D01*
X508209Y299508D02*
X508209Y307304D01*
X508209Y303406D02*
X512107Y307304D01*
X514056Y307304D01*
X529648Y299508D02*
X537444Y311202D01*
X553036Y307304D02*
X553036Y299508D01*
X553036Y307304D02*
X556934Y311202D01*
X560832Y307304D01*
X560832Y299508D01*
X560832Y305355D02*
X553036Y305355D01*
X576424Y299508D02*
X576424Y311202D01*
X580322Y307304D01*
X584220Y311202D01*
X584220Y299508D01*
X590067Y307304D02*
X593965Y307304D01*
X595914Y305355D01*
X595914Y299508D01*
X590067Y299508D01*
X588118Y301457D01*
X590067Y303406D01*
X595914Y303406D01*
X599812Y299508D02*
X599812Y307304D01*
X599812Y303406D02*
X603710Y307304D01*
X605659Y307304D01*
X611506Y309253D02*
X611506Y301457D01*
X613455Y299508D01*
X613455Y307304D02*
X609557Y307304D01*
X619302Y299508D02*
X623200Y299508D01*
X619302Y299508D02*
X617353Y301457D01*
X617353Y305355D01*
X619302Y307304D01*
X623200Y307304D01*
X625149Y305355D01*
X625149Y303406D01*
X617353Y303406D01*
X629047Y311202D02*
X630996Y311202D01*
X630996Y299508D01*
X629047Y299508D02*
X632945Y299508D01*
X636843Y311202D02*
X638792Y311202D01*
X638792Y299508D01*
X636843Y299508D02*
X640741Y299508D01*
X316208Y274202D02*
X316208Y266406D01*
X320106Y262508D01*
X324004Y266406D01*
X324004Y274202D01*
X327902Y274202D02*
X335698Y274202D01*
X327902Y274202D02*
X327902Y268355D01*
X331800Y270304D01*
X333749Y270304D01*
X335698Y268355D01*
X335698Y264457D01*
X333749Y262508D01*
X329851Y262508D01*
X327902Y264457D01*
X339596Y264457D02*
X339596Y262508D01*
X339596Y264457D02*
X341545Y264457D01*
X341545Y262508D01*
X339596Y262508D01*
X345443Y262508D02*
X353239Y262508D01*
X345443Y262508D02*
X353239Y270304D01*
X353239Y272253D01*
X351290Y274202D01*
X347392Y274202D01*
X345443Y272253D01*
X368831Y264457D02*
X370780Y262508D01*
X372729Y262508D01*
X374678Y264457D01*
X374678Y274202D01*
X372729Y274202D02*
X376627Y274202D01*
X380525Y270304D02*
X380525Y264457D01*
X382474Y262508D01*
X388321Y262508D01*
X388321Y270304D01*
X392219Y274202D02*
X394168Y274202D01*
X394168Y262508D01*
X392219Y262508D02*
X396117Y262508D01*
X400015Y264457D02*
X400015Y270304D01*
X400015Y264457D02*
X401964Y262508D01*
X407811Y262508D01*
X407811Y260559D02*
X407811Y270304D01*
X407811Y260559D02*
X405862Y258610D01*
X403913Y258610D01*
X423403Y270304D02*
X427301Y274202D01*
X427301Y262508D01*
X423403Y262508D02*
X431199Y262508D01*
X435097Y264457D02*
X437046Y262508D01*
X440944Y262508D01*
X442893Y264457D01*
X442893Y272253D01*
X440944Y274202D01*
X437046Y274202D01*
X435097Y272253D01*
X435097Y270304D01*
X437046Y268355D01*
X442893Y268355D01*
D12*
X370381Y159087D02*
X370381Y149681D01*
X370381Y159087D02*
X375084Y159087D01*
X376652Y157519D01*
X376652Y154384D01*
X375084Y152816D01*
X370381Y152816D01*
X373516Y152816D02*
X376652Y149681D01*
X379736Y151249D02*
X381304Y149681D01*
X384439Y149681D01*
X386007Y151249D01*
X386007Y157519D01*
X384439Y159087D01*
X381304Y159087D01*
X379736Y157519D01*
X379736Y155952D01*
X381304Y154384D01*
X386007Y154384D01*
X369071Y110427D02*
X369071Y101021D01*
X369071Y110427D02*
X373774Y110427D01*
X375341Y108859D01*
X375341Y105724D01*
X373774Y104156D01*
X369071Y104156D01*
X372206Y104156D02*
X375341Y101021D01*
X378426Y108859D02*
X379993Y110427D01*
X383129Y110427D01*
X384697Y108859D01*
X384697Y107292D01*
X383129Y105724D01*
X384697Y104156D01*
X384697Y102589D01*
X383129Y101021D01*
X379993Y101021D01*
X378426Y102589D01*
X378426Y104156D01*
X379993Y105724D01*
X378426Y107292D01*
X378426Y108859D01*
X379993Y105724D02*
X383129Y105724D01*
X370171Y59427D02*
X370171Y50021D01*
X370171Y59427D02*
X374874Y59427D01*
X376441Y57859D01*
X376441Y54724D01*
X374874Y53156D01*
X370171Y53156D01*
X373306Y53156D02*
X376441Y50021D01*
X379526Y59427D02*
X385797Y59427D01*
X385797Y57859D01*
X379526Y51589D01*
X379526Y50021D01*
X427874Y60227D02*
X429441Y58659D01*
X427874Y60227D02*
X424738Y60227D01*
X423171Y58659D01*
X423171Y52389D01*
X424738Y50821D01*
X427874Y50821D01*
X429441Y52389D01*
X432526Y57092D02*
X435661Y60227D01*
X435661Y50821D01*
X432526Y50821D02*
X438797Y50821D01*
X426341Y108659D02*
X424774Y110227D01*
X421638Y110227D01*
X420071Y108659D01*
X420071Y102389D01*
X421638Y100821D01*
X424774Y100821D01*
X426341Y102389D01*
X429426Y100821D02*
X435697Y100821D01*
X429426Y100821D02*
X435697Y107092D01*
X435697Y108659D01*
X434129Y110227D01*
X430993Y110227D01*
X429426Y108659D01*
X426241Y156659D02*
X424674Y158227D01*
X421538Y158227D01*
X419971Y156659D01*
X419971Y150389D01*
X421538Y148821D01*
X424674Y148821D01*
X426241Y150389D01*
X429326Y156659D02*
X430893Y158227D01*
X434029Y158227D01*
X435597Y156659D01*
X435597Y155092D01*
X434029Y153524D01*
X432461Y153524D01*
X434029Y153524D02*
X435597Y151956D01*
X435597Y150389D01*
X434029Y148821D01*
X430893Y148821D01*
X429326Y150389D01*
X396171Y59827D02*
X396171Y50421D01*
X396171Y59827D02*
X400874Y59827D01*
X402441Y58259D01*
X402441Y55124D01*
X400874Y53556D01*
X396171Y53556D01*
X399306Y53556D02*
X402441Y50421D01*
X405526Y56692D02*
X408661Y59827D01*
X408661Y50421D01*
X405526Y50421D02*
X411797Y50421D01*
X395071Y100421D02*
X395071Y109827D01*
X399774Y109827D01*
X401341Y108259D01*
X401341Y105124D01*
X399774Y103556D01*
X395071Y103556D01*
X398206Y103556D02*
X401341Y100421D01*
X404426Y100421D02*
X410697Y100421D01*
X404426Y100421D02*
X410697Y106692D01*
X410697Y108259D01*
X409129Y109827D01*
X405993Y109827D01*
X404426Y108259D01*
X395971Y149421D02*
X395971Y158827D01*
X400674Y158827D01*
X402241Y157259D01*
X402241Y154124D01*
X400674Y152556D01*
X395971Y152556D01*
X399106Y152556D02*
X402241Y149421D01*
X405326Y157259D02*
X406893Y158827D01*
X410029Y158827D01*
X411597Y157259D01*
X411597Y155692D01*
X410029Y154124D01*
X408461Y154124D01*
X410029Y154124D02*
X411597Y152556D01*
X411597Y150989D01*
X410029Y149421D01*
X406893Y149421D01*
X405326Y150989D01*
D11*
X520487Y170418D02*
X520487Y85582D01*
X563413Y170418D02*
X563411Y170540D01*
X563405Y170662D01*
X563395Y170784D01*
X563382Y170905D01*
X563364Y171026D01*
X563343Y171146D01*
X563317Y171266D01*
X563288Y171384D01*
X563256Y171502D01*
X563219Y171619D01*
X563179Y171734D01*
X563135Y171848D01*
X563087Y171960D01*
X563036Y172071D01*
X562981Y172180D01*
X562923Y172288D01*
X562861Y172393D01*
X562796Y172496D01*
X562728Y172598D01*
X562656Y172697D01*
X562582Y172793D01*
X562504Y172888D01*
X562423Y172979D01*
X562340Y173069D01*
X562254Y173155D01*
X562164Y173238D01*
X562073Y173319D01*
X561978Y173397D01*
X561882Y173471D01*
X561783Y173543D01*
X561681Y173611D01*
X561578Y173676D01*
X561473Y173738D01*
X561365Y173796D01*
X561256Y173851D01*
X561145Y173902D01*
X561033Y173950D01*
X560919Y173994D01*
X560804Y174034D01*
X560687Y174071D01*
X560569Y174103D01*
X560451Y174132D01*
X560331Y174158D01*
X560211Y174179D01*
X560090Y174197D01*
X559969Y174210D01*
X559847Y174220D01*
X559725Y174226D01*
X559603Y174228D01*
X520487Y85582D02*
X520489Y85460D01*
X520495Y85338D01*
X520505Y85216D01*
X520518Y85095D01*
X520536Y84974D01*
X520557Y84854D01*
X520583Y84734D01*
X520612Y84616D01*
X520644Y84498D01*
X520681Y84381D01*
X520721Y84266D01*
X520765Y84152D01*
X520813Y84040D01*
X520864Y83929D01*
X520919Y83820D01*
X520977Y83712D01*
X521039Y83607D01*
X521104Y83504D01*
X521172Y83402D01*
X521244Y83303D01*
X521318Y83207D01*
X521396Y83112D01*
X521477Y83021D01*
X521560Y82931D01*
X521646Y82845D01*
X521736Y82762D01*
X521827Y82681D01*
X521922Y82603D01*
X522018Y82529D01*
X522117Y82457D01*
X522219Y82389D01*
X522322Y82324D01*
X522427Y82262D01*
X522535Y82204D01*
X522644Y82149D01*
X522755Y82098D01*
X522867Y82050D01*
X522981Y82006D01*
X523096Y81966D01*
X523213Y81929D01*
X523331Y81897D01*
X523449Y81868D01*
X523569Y81842D01*
X523689Y81821D01*
X523810Y81803D01*
X523931Y81790D01*
X524053Y81780D01*
X524175Y81774D01*
X524297Y81772D01*
X520487Y170418D02*
X520489Y170540D01*
X520495Y170662D01*
X520505Y170784D01*
X520518Y170905D01*
X520536Y171026D01*
X520557Y171146D01*
X520583Y171266D01*
X520612Y171384D01*
X520644Y171502D01*
X520681Y171619D01*
X520721Y171734D01*
X520765Y171848D01*
X520813Y171960D01*
X520864Y172071D01*
X520919Y172180D01*
X520977Y172288D01*
X521039Y172393D01*
X521104Y172496D01*
X521172Y172598D01*
X521244Y172697D01*
X521318Y172793D01*
X521396Y172888D01*
X521477Y172979D01*
X521560Y173069D01*
X521646Y173155D01*
X521736Y173238D01*
X521827Y173319D01*
X521922Y173397D01*
X522018Y173471D01*
X522117Y173543D01*
X522219Y173611D01*
X522322Y173676D01*
X522427Y173738D01*
X522535Y173796D01*
X522644Y173851D01*
X522755Y173902D01*
X522867Y173950D01*
X522981Y173994D01*
X523096Y174034D01*
X523213Y174071D01*
X523331Y174103D01*
X523449Y174132D01*
X523569Y174158D01*
X523689Y174179D01*
X523810Y174197D01*
X523931Y174210D01*
X524053Y174220D01*
X524175Y174226D01*
X524297Y174228D01*
X563413Y85582D02*
X563411Y85460D01*
X563405Y85338D01*
X563395Y85216D01*
X563382Y85095D01*
X563364Y84974D01*
X563343Y84854D01*
X563317Y84734D01*
X563288Y84616D01*
X563256Y84498D01*
X563219Y84381D01*
X563179Y84266D01*
X563135Y84152D01*
X563087Y84040D01*
X563036Y83929D01*
X562981Y83820D01*
X562923Y83712D01*
X562861Y83607D01*
X562796Y83504D01*
X562728Y83402D01*
X562656Y83303D01*
X562582Y83207D01*
X562504Y83112D01*
X562423Y83021D01*
X562340Y82931D01*
X562254Y82845D01*
X562164Y82762D01*
X562073Y82681D01*
X561978Y82603D01*
X561882Y82529D01*
X561783Y82457D01*
X561681Y82389D01*
X561578Y82324D01*
X561473Y82262D01*
X561365Y82204D01*
X561256Y82149D01*
X561145Y82098D01*
X561033Y82050D01*
X560919Y82006D01*
X560804Y81966D01*
X560687Y81929D01*
X560569Y81897D01*
X560451Y81868D01*
X560331Y81842D01*
X560211Y81821D01*
X560090Y81803D01*
X559969Y81790D01*
X559847Y81780D01*
X559725Y81774D01*
X559603Y81772D01*
X563413Y85582D02*
X563413Y170418D01*
X559603Y174228D02*
X524297Y174228D01*
X524297Y81772D02*
X529250Y81772D01*
X554650Y81772D01*
X559603Y81772D01*
X554650Y81772D02*
X554646Y82081D01*
X554635Y82390D01*
X554616Y82699D01*
X554590Y83007D01*
X554556Y83315D01*
X554515Y83621D01*
X554466Y83927D01*
X554410Y84231D01*
X554346Y84533D01*
X554275Y84834D01*
X554197Y85134D01*
X554112Y85431D01*
X554019Y85726D01*
X553919Y86019D01*
X553812Y86309D01*
X553698Y86596D01*
X553577Y86881D01*
X553449Y87163D01*
X553315Y87441D01*
X553173Y87716D01*
X553025Y87988D01*
X552870Y88255D01*
X552709Y88519D01*
X552542Y88779D01*
X552368Y89035D01*
X552188Y89287D01*
X552002Y89534D01*
X551810Y89776D01*
X551612Y90014D01*
X551409Y90247D01*
X551199Y90475D01*
X550985Y90697D01*
X550765Y90915D01*
X550539Y91127D01*
X550309Y91333D01*
X550074Y91534D01*
X549834Y91729D01*
X549589Y91918D01*
X549340Y92101D01*
X549086Y92278D01*
X548828Y92448D01*
X548566Y92613D01*
X548300Y92771D01*
X548030Y92922D01*
X547757Y93067D01*
X547480Y93205D01*
X547200Y93336D01*
X546917Y93460D01*
X546631Y93578D01*
X546342Y93688D01*
X546051Y93792D01*
X545757Y93888D01*
X545461Y93977D01*
X545162Y94059D01*
X544862Y94134D01*
X544560Y94201D01*
X544257Y94261D01*
X543952Y94313D01*
X543646Y94358D01*
X543339Y94396D01*
X543031Y94426D01*
X542723Y94448D01*
X542414Y94464D01*
X542105Y94471D01*
X541795Y94471D01*
X541486Y94464D01*
X541177Y94448D01*
X540869Y94426D01*
X540561Y94396D01*
X540254Y94358D01*
X539948Y94313D01*
X539643Y94261D01*
X539340Y94201D01*
X539038Y94134D01*
X538738Y94059D01*
X538439Y93977D01*
X538143Y93888D01*
X537849Y93792D01*
X537558Y93688D01*
X537269Y93578D01*
X536983Y93460D01*
X536700Y93336D01*
X536420Y93205D01*
X536143Y93067D01*
X535870Y92922D01*
X535600Y92771D01*
X535334Y92613D01*
X535072Y92448D01*
X534814Y92278D01*
X534560Y92101D01*
X534311Y91918D01*
X534066Y91729D01*
X533826Y91534D01*
X533591Y91333D01*
X533361Y91127D01*
X533135Y90915D01*
X532915Y90697D01*
X532701Y90475D01*
X532491Y90247D01*
X532288Y90014D01*
X532090Y89776D01*
X531898Y89534D01*
X531712Y89287D01*
X531532Y89035D01*
X531358Y88779D01*
X531191Y88519D01*
X531030Y88255D01*
X530875Y87988D01*
X530727Y87716D01*
X530585Y87441D01*
X530451Y87163D01*
X530323Y86881D01*
X530202Y86596D01*
X530088Y86309D01*
X529981Y86019D01*
X529881Y85726D01*
X529788Y85431D01*
X529703Y85134D01*
X529625Y84834D01*
X529554Y84533D01*
X529490Y84231D01*
X529434Y83927D01*
X529385Y83621D01*
X529344Y83315D01*
X529310Y83007D01*
X529284Y82699D01*
X529265Y82390D01*
X529254Y82081D01*
X529250Y81772D01*
D13*
X564048Y89900D03*
X564048Y89900D03*
X564048Y102600D03*
X564048Y115300D03*
X564048Y128000D03*
X564048Y140700D03*
X564048Y153400D03*
X564048Y166100D03*
X519852Y89900D03*
X519852Y89900D03*
X519852Y102600D03*
X519852Y115300D03*
X519852Y128000D03*
X519852Y140700D03*
X519852Y153400D03*
X519852Y166100D03*
D14*
X524386Y177705D02*
X528199Y177705D01*
X526293Y177705D02*
X526293Y189145D01*
X528199Y189145D02*
X524386Y189145D01*
X537902Y189145D02*
X539809Y187238D01*
X537902Y189145D02*
X534089Y189145D01*
X532182Y187238D01*
X532182Y179612D01*
X534089Y177705D01*
X537902Y177705D01*
X539809Y179612D01*
X543876Y185332D02*
X547689Y189145D01*
X547689Y177705D01*
X543876Y177705D02*
X551502Y177705D01*
D12*
X371181Y198481D02*
X371181Y207887D01*
X375884Y207887D01*
X377452Y206319D01*
X377452Y203184D01*
X375884Y201616D01*
X371181Y201616D01*
X374316Y201616D02*
X377452Y198481D01*
X380536Y204752D02*
X383672Y207887D01*
X383672Y198481D01*
X386807Y198481D02*
X380536Y198481D01*
X389891Y200049D02*
X389891Y206319D01*
X391459Y207887D01*
X394594Y207887D01*
X396162Y206319D01*
X396162Y200049D01*
X394594Y198481D01*
X391459Y198481D01*
X389891Y200049D01*
X396162Y206319D01*
X428884Y208687D02*
X430452Y207119D01*
X428884Y208687D02*
X425749Y208687D01*
X424181Y207119D01*
X424181Y200849D01*
X425749Y199281D01*
X428884Y199281D01*
X430452Y200849D01*
X438239Y199281D02*
X438239Y208687D01*
X433536Y203984D01*
X439807Y203984D01*
X401181Y208287D02*
X401181Y198881D01*
X401181Y208287D02*
X405884Y208287D01*
X407452Y206719D01*
X407452Y203584D01*
X405884Y202016D01*
X401181Y202016D01*
X404316Y202016D02*
X407452Y198881D01*
X415239Y198881D02*
X415239Y208287D01*
X410536Y203584D01*
X416807Y203584D01*
D10*
X466044Y272250D02*
X511256Y272250D01*
X511256Y234150D02*
X466044Y234150D01*
D15*
X480350Y253200D02*
X490580Y263200D01*
X480350Y253200D02*
X490580Y243200D01*
X490580Y263200D01*
D12*
X470611Y228837D02*
X470611Y219431D01*
X475314Y219431D01*
X476881Y220999D01*
X476881Y227269D01*
X475314Y228837D01*
X470611Y228837D01*
X479966Y225702D02*
X483101Y228837D01*
X483101Y219431D01*
X479966Y219431D02*
X486237Y219431D01*
D10*
X599926Y114152D02*
X599926Y102458D01*
X599926Y114152D02*
X605773Y114152D01*
X607722Y112203D01*
X607722Y108305D01*
X605773Y106356D01*
X599926Y106356D01*
X603824Y106356D02*
X607722Y102458D01*
X611620Y110254D02*
X615518Y114152D01*
X615518Y102458D01*
X611620Y102458D02*
X619416Y102458D01*
X627212Y112203D02*
X631110Y114152D01*
X627212Y112203D02*
X623314Y108305D01*
X623314Y104407D01*
X625263Y102458D01*
X629161Y102458D01*
X631110Y104407D01*
X631110Y106356D01*
X629161Y108305D01*
X623314Y108305D01*
X538054Y213503D02*
X536105Y215452D01*
X532207Y215452D01*
X530258Y213503D01*
X530258Y205707D01*
X532207Y203758D01*
X536105Y203758D01*
X538054Y205707D01*
X541952Y213503D02*
X543901Y215452D01*
X547799Y215452D01*
X549748Y213503D01*
X549748Y211554D01*
X547799Y209605D01*
X549748Y207656D01*
X549748Y205707D01*
X547799Y203758D01*
X543901Y203758D01*
X541952Y205707D01*
X541952Y207656D01*
X543901Y209605D01*
X541952Y211554D01*
X541952Y213503D01*
X543901Y209605D02*
X547799Y209605D01*
D11*
X632200Y165100D02*
X638550Y171450D01*
X638550Y184150D02*
X632200Y190500D01*
X638550Y196850D01*
X638550Y209550D02*
X632200Y215900D01*
X638550Y222250D01*
X638550Y234950D02*
X632200Y241300D01*
X638550Y247650D01*
X638550Y260350D02*
X632200Y266700D01*
X632200Y165100D02*
X594100Y165100D01*
X587750Y171450D01*
X587750Y184150D01*
X594100Y190500D01*
X587750Y196850D01*
X587750Y209550D01*
X594100Y215900D01*
X587750Y222250D01*
X587750Y234950D01*
X594100Y241300D01*
X587750Y247650D01*
X587750Y260350D01*
X594100Y266700D01*
X594100Y190500D02*
X632200Y190500D01*
X632200Y215900D02*
X594100Y215900D01*
X594100Y241300D02*
X632200Y241300D01*
X632200Y266700D02*
X594100Y266700D01*
X638550Y260350D02*
X638550Y247650D01*
X638550Y234950D02*
X638550Y222250D01*
X638550Y209550D02*
X638550Y196850D01*
X638550Y184150D02*
X638550Y171450D01*
X632200Y266700D02*
X638550Y273050D01*
X638550Y285750D02*
X632200Y292100D01*
X594100Y266700D02*
X587750Y273050D01*
X587750Y285750D01*
X594100Y292100D01*
X632200Y292100D01*
X638550Y285750D02*
X638550Y273050D01*
D14*
X634453Y240242D02*
X636360Y238335D01*
X638266Y238335D01*
X640173Y240242D01*
X640173Y249775D01*
X638266Y249775D02*
X642080Y249775D01*
X646147Y249775D02*
X646147Y238335D01*
X646147Y249775D02*
X651867Y249775D01*
X653774Y247868D01*
X653774Y244055D01*
X651867Y242148D01*
X646147Y242148D01*
X657841Y245962D02*
X661654Y249775D01*
X661654Y238335D01*
X657841Y238335D02*
X665467Y238335D01*
D10*
X537617Y52652D02*
X539566Y50703D01*
X537617Y52652D02*
X533719Y52652D01*
X531770Y50703D01*
X531770Y42907D01*
X533719Y40958D01*
X537617Y40958D01*
X539566Y42907D01*
X543464Y42907D02*
X545413Y40958D01*
X549311Y40958D01*
X551260Y42907D01*
X551260Y50703D01*
X549311Y52652D01*
X545413Y52652D01*
X543464Y50703D01*
X543464Y48754D01*
X545413Y46805D01*
X551260Y46805D01*
D12*
X93276Y61641D02*
X93276Y71047D01*
X90141Y71047D02*
X96411Y71047D01*
X104199Y71047D02*
X104199Y61641D01*
X99496Y66344D02*
X104199Y71047D01*
X105767Y66344D02*
X99496Y66344D01*
X95566Y59087D02*
X95566Y49681D01*
X92431Y59087D02*
X98702Y59087D01*
X101786Y59087D02*
X108057Y59087D01*
X101786Y59087D02*
X101786Y54384D01*
X104922Y55952D01*
X106489Y55952D01*
X108057Y54384D01*
X108057Y51249D01*
X106489Y49681D01*
X103354Y49681D01*
X101786Y51249D01*
X92756Y45667D02*
X92756Y36261D01*
X89621Y45667D02*
X95891Y45667D01*
X102111Y44099D02*
X105247Y45667D01*
X102111Y44099D02*
X98976Y40964D01*
X98976Y37829D01*
X100543Y36261D01*
X103679Y36261D01*
X105247Y37829D01*
X105247Y39396D01*
X103679Y40964D01*
X98976Y40964D01*
X103019Y178293D02*
X103019Y185665D01*
X106705Y185665D01*
X107933Y184437D01*
X107933Y181979D01*
X106705Y180750D01*
X103019Y180750D01*
X105476Y180750D02*
X107933Y178293D01*
X110503Y183208D02*
X112960Y185665D01*
X112960Y178293D01*
X110503Y178293D02*
X115418Y178293D01*
X117987Y179522D02*
X119216Y178293D01*
X121673Y178293D01*
X122902Y179522D01*
X122902Y184437D01*
X121673Y185665D01*
X119216Y185665D01*
X117987Y184437D01*
X117987Y183208D01*
X119216Y181979D01*
X122902Y181979D01*
X131065Y163577D02*
X131065Y154171D01*
X131065Y163577D02*
X135768Y163577D01*
X137336Y162009D01*
X137336Y158874D01*
X135768Y157306D01*
X131065Y157306D01*
X134201Y157306D02*
X137336Y154171D01*
X140421Y154171D02*
X146691Y154171D01*
X140421Y154171D02*
X146691Y160442D01*
X146691Y162009D01*
X145124Y163577D01*
X141988Y163577D01*
X140421Y162009D01*
X149776Y162009D02*
X149776Y155739D01*
X149776Y162009D02*
X151343Y163577D01*
X154479Y163577D01*
X156047Y162009D01*
X156047Y155739D01*
X154479Y154171D01*
X151343Y154171D01*
X149776Y155739D01*
X156047Y162009D01*
X131065Y131827D02*
X131065Y122421D01*
X131065Y131827D02*
X135768Y131827D01*
X137336Y130259D01*
X137336Y127124D01*
X135768Y125556D01*
X131065Y125556D01*
X134201Y125556D02*
X137336Y122421D01*
X140421Y122421D02*
X146691Y122421D01*
X140421Y122421D02*
X146691Y128692D01*
X146691Y130259D01*
X145124Y131827D01*
X141988Y131827D01*
X140421Y130259D01*
X149776Y128692D02*
X152911Y131827D01*
X152911Y122421D01*
X149776Y122421D02*
X156047Y122421D01*
X131065Y100077D02*
X131065Y90671D01*
X131065Y100077D02*
X135768Y100077D01*
X137336Y98509D01*
X137336Y95374D01*
X135768Y93806D01*
X131065Y93806D01*
X134201Y93806D02*
X137336Y90671D01*
X140421Y90671D02*
X146691Y90671D01*
X140421Y90671D02*
X146691Y96942D01*
X146691Y98509D01*
X145124Y100077D01*
X141988Y100077D01*
X140421Y98509D01*
X149776Y90671D02*
X156047Y90671D01*
X149776Y90671D02*
X156047Y96942D01*
X156047Y98509D01*
X154479Y100077D01*
X151343Y100077D01*
X149776Y98509D01*
X232741Y318611D02*
X232741Y328017D01*
X237444Y328017D01*
X239012Y326449D01*
X239012Y323314D01*
X237444Y321746D01*
X232741Y321746D01*
X235876Y321746D02*
X239012Y318611D01*
X245232Y326449D02*
X248367Y328017D01*
X245232Y326449D02*
X242096Y323314D01*
X242096Y320179D01*
X243664Y318611D01*
X246799Y318611D01*
X248367Y320179D01*
X248367Y321746D01*
X246799Y323314D01*
X242096Y323314D01*
X189065Y270377D02*
X189065Y260971D01*
X189065Y270377D02*
X193768Y270377D01*
X195336Y268809D01*
X195336Y265674D01*
X193768Y264106D01*
X189065Y264106D01*
X192201Y264106D02*
X195336Y260971D01*
X198421Y267242D02*
X201556Y270377D01*
X201556Y260971D01*
X198421Y260971D02*
X204691Y260971D01*
X207776Y267242D02*
X210911Y270377D01*
X210911Y260971D01*
X207776Y260971D02*
X214047Y260971D01*
D10*
X663305Y174502D02*
X665254Y172553D01*
X663305Y174502D02*
X659407Y174502D01*
X657458Y172553D01*
X657458Y164757D01*
X659407Y162808D01*
X663305Y162808D01*
X665254Y164757D01*
X669152Y174502D02*
X676948Y174502D01*
X669152Y174502D02*
X669152Y168655D01*
X673050Y170604D01*
X674999Y170604D01*
X676948Y168655D01*
X676948Y164757D01*
X674999Y162808D01*
X671101Y162808D01*
X669152Y164757D01*
D12*
X175455Y317561D02*
X175455Y326967D01*
X180158Y326967D01*
X181726Y325399D01*
X181726Y322264D01*
X180158Y320696D01*
X175455Y320696D01*
X178591Y320696D02*
X181726Y317561D01*
X184811Y323832D02*
X187946Y326967D01*
X187946Y317561D01*
X184811Y317561D02*
X191081Y317561D01*
X194166Y317561D02*
X200437Y317561D01*
X194166Y317561D02*
X200437Y323832D01*
X200437Y325399D01*
X198869Y326967D01*
X195733Y326967D01*
X194166Y325399D01*
X280021Y327437D02*
X280021Y318031D01*
X280021Y327437D02*
X284724Y327437D01*
X286292Y325869D01*
X286292Y322734D01*
X284724Y321166D01*
X280021Y321166D01*
X283156Y321166D02*
X286292Y318031D01*
X289376Y324302D02*
X292512Y327437D01*
X292512Y318031D01*
X295647Y318031D02*
X289376Y318031D01*
X303434Y318031D02*
X303434Y327437D01*
X298731Y322734D01*
X305002Y322734D01*
X268606Y263677D02*
X268606Y254271D01*
X265471Y263677D02*
X271741Y263677D01*
X274826Y254271D02*
X281097Y254271D01*
X274826Y254271D02*
X281097Y260542D01*
X281097Y262109D01*
X279529Y263677D01*
X276393Y263677D01*
X274826Y262109D01*
D10*
X137138Y32252D02*
X137138Y20558D01*
X133240Y32252D02*
X141036Y32252D01*
X144934Y28354D02*
X148832Y32252D01*
X148832Y20558D01*
X144934Y20558D02*
X152730Y20558D01*
D12*
X23186Y80671D02*
X23186Y90077D01*
X20051Y90077D02*
X26322Y90077D01*
X29406Y88509D02*
X30974Y90077D01*
X34109Y90077D01*
X35677Y88509D01*
X35677Y86942D01*
X34109Y85374D01*
X32542Y85374D01*
X34109Y85374D02*
X35677Y83806D01*
X35677Y82239D01*
X34109Y80671D01*
X30974Y80671D01*
X29406Y82239D01*
X21476Y110741D02*
X21476Y120147D01*
X18341Y120147D02*
X24611Y120147D01*
X27696Y120147D02*
X33967Y120147D01*
X33967Y118579D01*
X27696Y112309D01*
X27696Y110741D01*
X21416Y146781D02*
X21416Y156187D01*
X18281Y156187D02*
X24551Y156187D01*
X27636Y154619D02*
X29203Y156187D01*
X32339Y156187D01*
X33907Y154619D01*
X33907Y153052D01*
X32339Y151484D01*
X33907Y149916D01*
X33907Y148349D01*
X32339Y146781D01*
X29203Y146781D01*
X27636Y148349D01*
X27636Y149916D01*
X29203Y151484D01*
X27636Y153052D01*
X27636Y154619D01*
X29203Y151484D02*
X32339Y151484D01*
D16*
X189500Y174650D03*
D10*
X176632Y183678D02*
X176632Y195372D01*
X176632Y183678D02*
X184428Y183678D01*
X188326Y195372D02*
X196122Y195372D01*
X188326Y195372D02*
X188326Y183678D01*
X196122Y183678D01*
X192224Y189525D02*
X188326Y189525D01*
X200020Y195372D02*
X200020Y183678D01*
X205867Y183678D01*
X207816Y185627D01*
X207816Y193423D01*
X205867Y195372D01*
X200020Y195372D01*
X211714Y191474D02*
X215612Y195372D01*
X215612Y183678D01*
X211714Y183678D02*
X219510Y183678D01*
D16*
X189500Y142900D03*
D10*
X172028Y152388D02*
X172028Y164082D01*
X172028Y152388D02*
X179824Y152388D01*
X183722Y164082D02*
X191518Y164082D01*
X183722Y164082D02*
X183722Y152388D01*
X191518Y152388D01*
X187620Y158235D02*
X183722Y158235D01*
X195416Y164082D02*
X195416Y152388D01*
X201263Y152388D01*
X203212Y154337D01*
X203212Y162133D01*
X201263Y164082D01*
X195416Y164082D01*
X207110Y152388D02*
X214906Y152388D01*
X207110Y152388D02*
X214906Y160184D01*
X214906Y162133D01*
X212957Y164082D01*
X209059Y164082D01*
X207110Y162133D01*
D16*
X189500Y111150D03*
D10*
X166632Y121178D02*
X166632Y132872D01*
X166632Y121178D02*
X174428Y121178D01*
X178326Y132872D02*
X186122Y132872D01*
X178326Y132872D02*
X178326Y121178D01*
X186122Y121178D01*
X182224Y127025D02*
X178326Y127025D01*
X190020Y132872D02*
X190020Y121178D01*
X195867Y121178D01*
X197816Y123127D01*
X197816Y130923D01*
X195867Y132872D01*
X190020Y132872D01*
X201714Y130923D02*
X203663Y132872D01*
X207561Y132872D01*
X209510Y130923D01*
X209510Y128974D01*
X207561Y127025D01*
X205612Y127025D01*
X207561Y127025D02*
X209510Y125076D01*
X209510Y123127D01*
X207561Y121178D01*
X203663Y121178D01*
X201714Y123127D01*
D16*
X189500Y79400D03*
D10*
X166462Y89428D02*
X166462Y101122D01*
X166462Y89428D02*
X174258Y89428D01*
X178156Y101122D02*
X185952Y101122D01*
X178156Y101122D02*
X178156Y89428D01*
X185952Y89428D01*
X182054Y95275D02*
X178156Y95275D01*
X189850Y101122D02*
X189850Y89428D01*
X195697Y89428D01*
X197646Y91377D01*
X197646Y99173D01*
X195697Y101122D01*
X189850Y101122D01*
X207391Y101122D02*
X207391Y89428D01*
X201544Y95275D02*
X207391Y101122D01*
X209340Y95275D02*
X201544Y95275D01*
D14*
X391050Y256400D02*
X408050Y256400D01*
X408050Y243400D01*
X391050Y243400D01*
X391050Y256400D01*
X403550Y255900D02*
X403550Y243900D01*
X402550Y243900D01*
X402550Y255900D01*
D12*
X421931Y254653D02*
X421931Y247281D01*
X425617Y247281D01*
X426846Y248510D01*
X426846Y253425D01*
X425617Y254653D01*
X421931Y254653D01*
X429415Y247281D02*
X434330Y247281D01*
X429415Y247281D02*
X434330Y252196D01*
X434330Y253425D01*
X433101Y254653D01*
X430644Y254653D01*
X429415Y253425D01*
D14*
X259650Y290950D02*
X259650Y307950D01*
X272650Y307950D01*
X272650Y290950D01*
X259650Y290950D01*
X260150Y303450D02*
X272150Y303450D01*
X272150Y302450D01*
X260150Y302450D01*
D12*
X258621Y317391D02*
X258621Y326797D01*
X258621Y317391D02*
X263324Y317391D01*
X264891Y318959D01*
X264891Y325229D01*
X263324Y326797D01*
X258621Y326797D01*
X267976Y325229D02*
X269543Y326797D01*
X272679Y326797D01*
X274247Y325229D01*
X274247Y323662D01*
X272679Y322094D01*
X271111Y322094D01*
X272679Y322094D02*
X274247Y320526D01*
X274247Y318959D01*
X272679Y317391D01*
X269543Y317391D01*
X267976Y318959D01*
D11*
X266700Y203200D02*
X241300Y203200D01*
X266700Y203200D02*
X266700Y76200D01*
X241300Y76200D01*
X241300Y203200D01*
X266700Y203200D02*
X273050Y203200D01*
X273050Y76200D01*
X266700Y76200D01*
D17*
X254000Y139700D03*
X254000Y165100D03*
X254000Y190500D03*
X254000Y114300D03*
X254000Y88900D03*
D10*
X232496Y62945D02*
X234445Y60996D01*
X236394Y60996D01*
X238343Y62945D01*
X238343Y72690D01*
X236394Y72690D02*
X240292Y72690D01*
X244190Y68792D02*
X248088Y72690D01*
X248088Y60996D01*
X244190Y60996D02*
X251986Y60996D01*
D12*
X479674Y128727D02*
X481241Y127159D01*
X479674Y128727D02*
X476538Y128727D01*
X474971Y127159D01*
X474971Y120889D01*
X476538Y119321D01*
X479674Y119321D01*
X481241Y120889D01*
X487461Y127159D02*
X490597Y128727D01*
X487461Y127159D02*
X484326Y124024D01*
X484326Y120889D01*
X485893Y119321D01*
X489029Y119321D01*
X490597Y120889D01*
X490597Y122456D01*
X489029Y124024D01*
X484326Y124024D01*
D11*
X68250Y285750D02*
X42850Y285750D01*
X68250Y285750D02*
X68250Y209550D01*
X42850Y209550D02*
X42850Y285750D01*
X68250Y285750D02*
X74600Y285750D01*
X74600Y209550D01*
X68250Y209550D02*
X42850Y209550D01*
X68250Y209550D02*
X74600Y209550D01*
D17*
X55550Y222250D03*
X55550Y247650D03*
X55550Y273050D03*
D10*
X46061Y290410D02*
X44112Y292359D01*
X46061Y290410D02*
X48010Y290410D01*
X49959Y292359D01*
X49959Y302104D01*
X48010Y302104D02*
X51908Y302104D01*
X55806Y290410D02*
X63602Y290410D01*
X55806Y290410D02*
X63602Y298206D01*
X63602Y300155D01*
X61653Y302104D01*
X57755Y302104D01*
X55806Y300155D01*
X219426Y221752D02*
X219426Y210058D01*
X219426Y221752D02*
X225273Y221752D01*
X227222Y219803D01*
X227222Y215905D01*
X225273Y213956D01*
X219426Y213956D01*
X223324Y213956D02*
X227222Y210058D01*
X231120Y217854D02*
X235018Y221752D01*
X235018Y210058D01*
X231120Y210058D02*
X238916Y210058D01*
X242814Y219803D02*
X244763Y221752D01*
X248661Y221752D01*
X250610Y219803D01*
X250610Y217854D01*
X248661Y215905D01*
X246712Y215905D01*
X248661Y215905D02*
X250610Y213956D01*
X250610Y212007D01*
X248661Y210058D01*
X244763Y210058D01*
X242814Y212007D01*
D15*
X562524Y238006D02*
X562524Y246594D01*
X534076Y246594D02*
X534076Y238006D01*
X545616Y250404D02*
X550984Y250404D01*
D10*
X537816Y264398D02*
X533918Y264398D01*
X535867Y264398D02*
X535867Y276092D01*
X533918Y276092D02*
X537816Y276092D01*
X547561Y276092D02*
X549510Y274143D01*
X547561Y276092D02*
X543663Y276092D01*
X541714Y274143D01*
X541714Y266347D01*
X543663Y264398D01*
X547561Y264398D01*
X549510Y266347D01*
X553408Y264398D02*
X561204Y264398D01*
X553408Y264398D02*
X561204Y272194D01*
X561204Y274143D01*
X559255Y276092D01*
X555357Y276092D01*
X553408Y274143D01*
D15*
X443476Y182694D02*
X443476Y174106D01*
X471924Y174106D02*
X471924Y182694D01*
X460384Y170296D02*
X455016Y170296D01*
D12*
X445159Y147031D02*
X442024Y147031D01*
X443591Y147031D02*
X443591Y156437D01*
X442024Y156437D02*
X445159Y156437D01*
X452964Y156437D02*
X454531Y154869D01*
X452964Y156437D02*
X449828Y156437D01*
X448261Y154869D01*
X448261Y148599D01*
X449828Y147031D01*
X452964Y147031D01*
X454531Y148599D01*
X457616Y154869D02*
X459183Y156437D01*
X462319Y156437D01*
X463886Y154869D01*
X463886Y153302D01*
X462319Y151734D01*
X460751Y151734D01*
X462319Y151734D02*
X463886Y150166D01*
X463886Y148599D01*
X462319Y147031D01*
X459183Y147031D01*
X457616Y148599D01*
X206811Y318171D02*
X206811Y327577D01*
X211514Y327577D01*
X213082Y326009D01*
X213082Y322874D01*
X211514Y321306D01*
X206811Y321306D01*
X209946Y321306D02*
X213082Y318171D01*
X216166Y327577D02*
X222437Y327577D01*
X216166Y327577D02*
X216166Y322874D01*
X219302Y324442D01*
X220869Y324442D01*
X222437Y322874D01*
X222437Y319739D01*
X220869Y318171D01*
X217734Y318171D01*
X216166Y319739D01*
D18*
X90390Y274870D02*
X90390Y224870D01*
X147390Y219870D02*
X147390Y199870D01*
X130390Y199870D01*
D19*
X170140Y229870D03*
D20*
X170142Y229808D01*
X170148Y229747D01*
X170157Y229686D01*
X170170Y229626D01*
X170187Y229567D01*
X170208Y229509D01*
X170232Y229452D01*
X170259Y229397D01*
X170290Y229344D01*
X170324Y229292D01*
X170361Y229243D01*
X170401Y229196D01*
X170444Y229152D01*
X170489Y229111D01*
X170537Y229072D01*
X170588Y229036D01*
X170640Y229004D01*
X170694Y228975D01*
X170750Y228949D01*
X170808Y228927D01*
X170866Y228908D01*
X170926Y228893D01*
X170987Y228882D01*
X171048Y228874D01*
X171109Y228870D01*
X171171Y228870D01*
X171232Y228874D01*
X171293Y228882D01*
X171354Y228893D01*
X171414Y228908D01*
X171472Y228927D01*
X171530Y228949D01*
X171586Y228975D01*
X171640Y229004D01*
X171692Y229036D01*
X171743Y229072D01*
X171791Y229111D01*
X171836Y229152D01*
X171879Y229196D01*
X171919Y229243D01*
X171956Y229292D01*
X171990Y229344D01*
X172021Y229397D01*
X172048Y229452D01*
X172072Y229509D01*
X172093Y229567D01*
X172110Y229626D01*
X172123Y229686D01*
X172132Y229747D01*
X172138Y229808D01*
X172140Y229870D01*
D19*
X172140Y229870D03*
D20*
X172138Y229932D01*
X172132Y229993D01*
X172123Y230054D01*
X172110Y230114D01*
X172093Y230173D01*
X172072Y230231D01*
X172048Y230288D01*
X172021Y230343D01*
X171990Y230396D01*
X171956Y230448D01*
X171919Y230497D01*
X171879Y230544D01*
X171836Y230588D01*
X171791Y230629D01*
X171743Y230668D01*
X171692Y230704D01*
X171640Y230736D01*
X171586Y230765D01*
X171530Y230791D01*
X171472Y230813D01*
X171414Y230832D01*
X171354Y230847D01*
X171293Y230858D01*
X171232Y230866D01*
X171171Y230870D01*
X171109Y230870D01*
X171048Y230866D01*
X170987Y230858D01*
X170926Y230847D01*
X170866Y230832D01*
X170808Y230813D01*
X170750Y230791D01*
X170694Y230765D01*
X170640Y230736D01*
X170588Y230704D01*
X170537Y230668D01*
X170489Y230629D01*
X170444Y230588D01*
X170401Y230544D01*
X170361Y230497D01*
X170324Y230448D01*
X170290Y230396D01*
X170259Y230343D01*
X170232Y230288D01*
X170208Y230231D01*
X170187Y230173D01*
X170170Y230114D01*
X170157Y230054D01*
X170148Y229993D01*
X170142Y229932D01*
X170140Y229870D01*
D10*
X57083Y187048D02*
X55134Y188997D01*
X57083Y187048D02*
X59032Y187048D01*
X60981Y188997D01*
X60981Y198742D01*
X59032Y198742D02*
X62930Y198742D01*
X66828Y196793D02*
X68777Y198742D01*
X72675Y198742D01*
X74624Y196793D01*
X74624Y194844D01*
X72675Y192895D01*
X70726Y192895D01*
X72675Y192895D02*
X74624Y190946D01*
X74624Y188997D01*
X72675Y187048D01*
X68777Y187048D01*
X66828Y188997D01*
D18*
X279850Y183750D02*
X279850Y93750D01*
X336850Y88750D02*
X336850Y68750D01*
X319850Y68750D01*
D19*
X359600Y98750D03*
D20*
X359602Y98688D01*
X359608Y98627D01*
X359617Y98566D01*
X359630Y98506D01*
X359647Y98447D01*
X359668Y98389D01*
X359692Y98332D01*
X359719Y98277D01*
X359750Y98224D01*
X359784Y98172D01*
X359821Y98123D01*
X359861Y98076D01*
X359904Y98032D01*
X359949Y97991D01*
X359997Y97952D01*
X360048Y97916D01*
X360100Y97884D01*
X360154Y97855D01*
X360210Y97829D01*
X360268Y97807D01*
X360326Y97788D01*
X360386Y97773D01*
X360447Y97762D01*
X360508Y97754D01*
X360569Y97750D01*
X360631Y97750D01*
X360692Y97754D01*
X360753Y97762D01*
X360814Y97773D01*
X360874Y97788D01*
X360932Y97807D01*
X360990Y97829D01*
X361046Y97855D01*
X361100Y97884D01*
X361152Y97916D01*
X361203Y97952D01*
X361251Y97991D01*
X361296Y98032D01*
X361339Y98076D01*
X361379Y98123D01*
X361416Y98172D01*
X361450Y98224D01*
X361481Y98277D01*
X361508Y98332D01*
X361532Y98389D01*
X361553Y98447D01*
X361570Y98506D01*
X361583Y98566D01*
X361592Y98627D01*
X361598Y98688D01*
X361600Y98750D01*
D19*
X361600Y98750D03*
D20*
X361598Y98812D01*
X361592Y98873D01*
X361583Y98934D01*
X361570Y98994D01*
X361553Y99053D01*
X361532Y99111D01*
X361508Y99168D01*
X361481Y99223D01*
X361450Y99276D01*
X361416Y99328D01*
X361379Y99377D01*
X361339Y99424D01*
X361296Y99468D01*
X361251Y99509D01*
X361203Y99548D01*
X361152Y99584D01*
X361100Y99616D01*
X361046Y99645D01*
X360990Y99671D01*
X360932Y99693D01*
X360874Y99712D01*
X360814Y99727D01*
X360753Y99738D01*
X360692Y99746D01*
X360631Y99750D01*
X360569Y99750D01*
X360508Y99746D01*
X360447Y99738D01*
X360386Y99727D01*
X360326Y99712D01*
X360268Y99693D01*
X360210Y99671D01*
X360154Y99645D01*
X360100Y99616D01*
X360048Y99584D01*
X359997Y99548D01*
X359949Y99509D01*
X359904Y99468D01*
X359861Y99424D01*
X359821Y99377D01*
X359784Y99328D01*
X359750Y99276D01*
X359719Y99223D01*
X359692Y99168D01*
X359668Y99111D01*
X359647Y99053D01*
X359630Y98994D01*
X359617Y98934D01*
X359608Y98873D01*
X359602Y98812D01*
X359600Y98750D01*
D10*
X309503Y225158D02*
X307554Y227107D01*
X309503Y225158D02*
X311452Y225158D01*
X313401Y227107D01*
X313401Y236852D01*
X311452Y236852D02*
X315350Y236852D01*
X325095Y236852D02*
X325095Y225158D01*
X319248Y231005D02*
X325095Y236852D01*
X327044Y231005D02*
X319248Y231005D01*
M02*
