G75*
G70*
%OFA0B0*%
%FSLAX24Y24*%
%IPPOS*%
%LPD*%
%AMOC8*
5,1,8,0,0,1.08239X$1,22.5*
%
%ADD10C,0.0040*%
%ADD11C,0.0060*%
%ADD12R,0.0340X0.0160*%
%ADD13C,0.0030*%
%ADD14R,0.0374X0.0197*%
%ADD15R,0.0050X0.0200*%
%ADD16R,0.0580X0.0200*%
%ADD17C,0.0050*%
%ADD18C,0.0080*%
%ADD19R,0.0210X0.0860*%
%ADD20R,0.0217X0.1496*%
%ADD21R,0.0571X0.0295*%
%ADD22R,0.0200X0.0200*%
%ADD23R,0.0295X0.0571*%
%ADD24R,0.0230X0.0180*%
%ADD25R,0.0256X0.0551*%
%ADD26R,0.0160X0.0340*%
%ADD27R,0.0180X0.0230*%
%ADD28R,0.0197X0.0128*%
%ADD29R,0.0098X0.0059*%
%ADD30R,0.0069X0.0157*%
%ADD31R,0.0079X0.0079*%
%ADD32R,0.0118X0.0118*%
%ADD33R,0.0030X0.0128*%
%ADD34R,0.0197X0.0256*%
%ADD35C,0.0079*%
%ADD36C,0.0039*%
D10*
X005499Y001253D02*
X005499Y001714D01*
X005346Y001714D02*
X005653Y001714D01*
X005806Y001560D02*
X005960Y001714D01*
X005960Y001253D01*
X006113Y001253D02*
X005806Y001253D01*
X007175Y001931D02*
X007175Y002085D01*
X007329Y002238D01*
X007559Y002085D02*
X007482Y002008D01*
X007482Y001855D01*
X007559Y001778D01*
X007789Y001778D01*
X007942Y001778D02*
X008096Y001931D01*
X008096Y002085D01*
X007942Y002238D01*
X007789Y002085D02*
X007559Y002085D01*
X007329Y001778D02*
X007175Y001931D01*
X008710Y001778D02*
X009017Y002085D01*
X009017Y002162D01*
X008940Y002238D01*
X008786Y002238D01*
X008710Y002162D01*
X009170Y002162D02*
X009247Y002238D01*
X009400Y002238D01*
X009477Y002162D01*
X009170Y001855D01*
X009247Y001778D01*
X009400Y001778D01*
X009477Y001855D01*
X009477Y002162D01*
X009631Y002085D02*
X009784Y002238D01*
X009784Y001778D01*
X009631Y001778D02*
X009937Y001778D01*
X010091Y001855D02*
X010168Y001778D01*
X010321Y001778D01*
X010398Y001855D01*
X010398Y002162D01*
X010321Y002238D01*
X010168Y002238D01*
X010091Y002162D01*
X010091Y002085D01*
X010168Y002008D01*
X010398Y002008D01*
X011012Y001855D02*
X011088Y001778D01*
X011165Y001778D01*
X011242Y001855D01*
X011242Y002238D01*
X011165Y002238D02*
X011319Y002238D01*
X011933Y002238D02*
X011933Y001778D01*
X012007Y001606D02*
X012007Y001530D01*
X012007Y001376D02*
X011930Y001376D01*
X012007Y001376D02*
X012007Y001069D01*
X011930Y001069D02*
X012084Y001069D01*
X012237Y001069D02*
X012237Y001376D01*
X012467Y001376D01*
X012544Y001299D01*
X012544Y001069D01*
X012851Y001069D02*
X013004Y001376D01*
X013158Y001299D02*
X013158Y001146D01*
X013235Y001069D01*
X013388Y001069D01*
X013465Y001223D02*
X013158Y001223D01*
X013158Y001299D02*
X013235Y001376D01*
X013388Y001376D01*
X013465Y001299D01*
X013465Y001223D01*
X013618Y001223D02*
X013772Y001376D01*
X013848Y001376D01*
X014002Y001376D02*
X014155Y001376D01*
X014079Y001453D02*
X014079Y001146D01*
X014155Y001069D01*
X014309Y001146D02*
X014309Y001299D01*
X014385Y001376D01*
X014539Y001376D01*
X014616Y001299D01*
X014616Y001223D01*
X014309Y001223D01*
X014309Y001146D02*
X014385Y001069D01*
X014539Y001069D01*
X014769Y001069D02*
X014769Y001376D01*
X014769Y001223D02*
X014923Y001376D01*
X014999Y001376D01*
X015153Y001146D02*
X015230Y001146D01*
X015230Y001069D01*
X015153Y001069D01*
X015153Y001146D01*
X015383Y001146D02*
X015460Y001069D01*
X015613Y001069D01*
X015690Y001146D01*
X015690Y001299D01*
X015613Y001376D01*
X015460Y001376D01*
X015383Y001299D01*
X015383Y001146D01*
X015843Y001069D02*
X015843Y001376D01*
X015843Y001223D02*
X015997Y001376D01*
X016074Y001376D01*
X016227Y001299D02*
X016227Y001146D01*
X016304Y001069D01*
X016534Y001069D01*
X016534Y000993D02*
X016534Y001376D01*
X016304Y001376D01*
X016227Y001299D01*
X016381Y000916D02*
X016457Y000916D01*
X016534Y000993D01*
X016460Y001778D02*
X016460Y002085D01*
X016613Y002238D01*
X016767Y002085D01*
X016767Y001778D01*
X016767Y002008D02*
X016460Y002008D01*
X015846Y002238D02*
X015539Y001778D01*
X014925Y002085D02*
X014848Y002085D01*
X014695Y001931D01*
X014695Y001778D02*
X014695Y002085D01*
X014541Y002008D02*
X014541Y001931D01*
X014234Y001931D01*
X014234Y001855D02*
X014234Y002008D01*
X014311Y002085D01*
X014465Y002085D01*
X014541Y002008D01*
X014465Y001778D02*
X014311Y001778D01*
X014234Y001855D01*
X014081Y001778D02*
X014081Y002008D01*
X014004Y002085D01*
X013774Y002085D01*
X013774Y001778D01*
X013621Y001855D02*
X013621Y002008D01*
X013544Y002085D01*
X013314Y002085D01*
X013314Y002238D02*
X013314Y001778D01*
X013544Y001778D01*
X013621Y001855D01*
X013160Y001931D02*
X013160Y002008D01*
X013083Y002085D01*
X012930Y002085D01*
X012853Y002008D01*
X012853Y001855D01*
X012930Y001778D01*
X013083Y001778D01*
X013160Y001931D02*
X012853Y001931D01*
X012700Y001778D02*
X012700Y002085D01*
X012393Y002085D02*
X012393Y001855D01*
X012470Y001778D01*
X012700Y001778D01*
X012239Y001778D02*
X012239Y002238D01*
X012239Y002008D02*
X011933Y002008D01*
X011700Y001376D02*
X011470Y001376D01*
X011470Y001069D01*
X011316Y001223D02*
X011009Y001223D01*
X011009Y001299D02*
X011009Y001146D01*
X011086Y001069D01*
X011239Y001069D01*
X011316Y001223D02*
X011316Y001299D01*
X011239Y001376D01*
X011086Y001376D01*
X011009Y001299D01*
X010856Y001299D02*
X010856Y001146D01*
X010779Y001069D01*
X010549Y001069D01*
X010549Y000916D02*
X010549Y001376D01*
X010779Y001376D01*
X010856Y001299D01*
X010395Y001299D02*
X010395Y001146D01*
X010319Y001069D01*
X010165Y001069D01*
X010089Y001146D01*
X010089Y001299D01*
X010165Y001376D01*
X010319Y001376D01*
X010395Y001299D01*
X009170Y001855D02*
X009170Y002162D01*
X009017Y001778D02*
X008710Y001778D01*
X007797Y003344D02*
X007236Y003344D01*
X007224Y003393D02*
X007226Y003405D01*
X007231Y003416D01*
X007239Y003425D01*
X007250Y003431D01*
X007262Y003434D01*
X007274Y003433D01*
X007286Y003429D01*
X007295Y003421D01*
X007302Y003411D01*
X007306Y003399D01*
X007306Y003387D01*
X007302Y003375D01*
X007295Y003365D01*
X007285Y003357D01*
X007274Y003353D01*
X007262Y003352D01*
X007250Y003355D01*
X007239Y003361D01*
X007231Y003370D01*
X007226Y003381D01*
X007224Y003393D01*
X007235Y003433D02*
X007257Y003438D01*
X007277Y003446D01*
X007295Y003457D01*
X007312Y003472D01*
X007326Y003488D01*
X007338Y003507D01*
X007346Y003527D01*
X007351Y003548D01*
X007353Y003570D01*
X007351Y003592D01*
X007346Y003613D01*
X007338Y003633D01*
X007326Y003652D01*
X007312Y003668D01*
X007295Y003683D01*
X007277Y003694D01*
X007257Y003702D01*
X007235Y003707D01*
X007393Y003796D02*
X007807Y003796D01*
X007805Y003965D02*
X007574Y003965D01*
X007574Y004425D01*
X007805Y004425D01*
X007881Y004348D01*
X007881Y004041D01*
X007805Y003965D01*
X008265Y003965D02*
X008265Y004425D01*
X008035Y004195D01*
X008342Y004195D01*
X007797Y004594D02*
X007236Y004594D01*
X007224Y004643D02*
X007226Y004655D01*
X007231Y004666D01*
X007239Y004675D01*
X007250Y004681D01*
X007262Y004684D01*
X007274Y004683D01*
X007286Y004679D01*
X007295Y004671D01*
X007302Y004661D01*
X007306Y004649D01*
X007306Y004637D01*
X007302Y004625D01*
X007295Y004615D01*
X007285Y004607D01*
X007274Y004603D01*
X007262Y004602D01*
X007250Y004605D01*
X007239Y004611D01*
X007231Y004620D01*
X007226Y004631D01*
X007224Y004643D01*
X007235Y004683D02*
X007257Y004688D01*
X007277Y004696D01*
X007295Y004707D01*
X007312Y004722D01*
X007326Y004738D01*
X007338Y004757D01*
X007346Y004777D01*
X007351Y004798D01*
X007353Y004820D01*
X007351Y004842D01*
X007346Y004863D01*
X007338Y004883D01*
X007326Y004902D01*
X007312Y004918D01*
X007295Y004933D01*
X007277Y004944D01*
X007257Y004952D01*
X007235Y004957D01*
X007393Y005046D02*
X007807Y005046D01*
X007811Y005215D02*
X007581Y005215D01*
X007581Y005675D01*
X007811Y005675D01*
X007888Y005598D01*
X007888Y005291D01*
X007811Y005215D01*
X008041Y005291D02*
X008118Y005215D01*
X008272Y005215D01*
X008348Y005291D01*
X008348Y005368D01*
X008272Y005445D01*
X008195Y005445D01*
X008272Y005445D02*
X008348Y005522D01*
X008348Y005598D01*
X008272Y005675D01*
X008118Y005675D01*
X008041Y005598D01*
X007797Y005844D02*
X007236Y005844D01*
X007224Y005893D02*
X007226Y005905D01*
X007231Y005916D01*
X007239Y005925D01*
X007250Y005931D01*
X007262Y005934D01*
X007274Y005933D01*
X007286Y005929D01*
X007295Y005921D01*
X007302Y005911D01*
X007306Y005899D01*
X007306Y005887D01*
X007302Y005875D01*
X007295Y005865D01*
X007285Y005857D01*
X007274Y005853D01*
X007262Y005852D01*
X007250Y005855D01*
X007239Y005861D01*
X007231Y005870D01*
X007226Y005881D01*
X007224Y005893D01*
X007235Y005933D02*
X007257Y005938D01*
X007277Y005946D01*
X007295Y005957D01*
X007312Y005972D01*
X007326Y005988D01*
X007338Y006007D01*
X007346Y006027D01*
X007351Y006048D01*
X007353Y006070D01*
X007351Y006092D01*
X007346Y006113D01*
X007338Y006133D01*
X007326Y006152D01*
X007312Y006168D01*
X007295Y006183D01*
X007277Y006194D01*
X007257Y006202D01*
X007235Y006207D01*
X007393Y006296D02*
X007807Y006296D01*
X007794Y006444D02*
X008024Y006444D01*
X008100Y006520D01*
X008100Y006827D01*
X008024Y006904D01*
X007794Y006904D01*
X007794Y006444D01*
X007640Y006444D02*
X007333Y006444D01*
X007333Y006904D01*
X007640Y006904D01*
X007797Y007094D02*
X007236Y007094D01*
X007224Y007143D02*
X007226Y007155D01*
X007231Y007166D01*
X007239Y007175D01*
X007250Y007181D01*
X007262Y007184D01*
X007274Y007183D01*
X007286Y007179D01*
X007295Y007171D01*
X007302Y007161D01*
X007306Y007149D01*
X007306Y007137D01*
X007302Y007125D01*
X007295Y007115D01*
X007285Y007107D01*
X007274Y007103D01*
X007262Y007102D01*
X007250Y007105D01*
X007239Y007111D01*
X007231Y007120D01*
X007226Y007131D01*
X007224Y007143D01*
X007235Y007183D02*
X007257Y007188D01*
X007277Y007196D01*
X007295Y007207D01*
X007312Y007222D01*
X007326Y007238D01*
X007338Y007257D01*
X007346Y007277D01*
X007351Y007298D01*
X007353Y007320D01*
X007351Y007342D01*
X007346Y007363D01*
X007338Y007383D01*
X007326Y007402D01*
X007312Y007418D01*
X007295Y007433D01*
X007277Y007444D01*
X007257Y007452D01*
X007235Y007457D01*
X007393Y007546D02*
X007807Y007546D01*
X007729Y007675D02*
X007959Y007675D01*
X008036Y007752D01*
X008036Y008059D01*
X007959Y008136D01*
X007729Y008136D01*
X007729Y007675D01*
X007575Y007675D02*
X007268Y007675D01*
X007268Y008136D01*
X007575Y008136D01*
X007422Y007906D02*
X007268Y007906D01*
X007115Y007675D02*
X006808Y007675D01*
X006808Y008136D01*
X008189Y007982D02*
X008343Y008136D01*
X008343Y007675D01*
X008496Y007675D02*
X008189Y007675D01*
X007965Y007457D02*
X007943Y007452D01*
X007923Y007444D01*
X007905Y007433D01*
X007888Y007418D01*
X007874Y007402D01*
X007862Y007383D01*
X007854Y007363D01*
X007849Y007342D01*
X007847Y007320D01*
X007849Y007298D01*
X007854Y007277D01*
X007862Y007257D01*
X007874Y007238D01*
X007888Y007222D01*
X007905Y007207D01*
X007923Y007196D01*
X007943Y007188D01*
X007965Y007183D01*
X008254Y006827D02*
X008331Y006904D01*
X008484Y006904D01*
X008561Y006827D01*
X008561Y006750D01*
X008254Y006444D01*
X008561Y006444D01*
X007965Y006207D02*
X007943Y006202D01*
X007923Y006194D01*
X007905Y006183D01*
X007888Y006168D01*
X007874Y006152D01*
X007862Y006133D01*
X007854Y006113D01*
X007849Y006092D01*
X007847Y006070D01*
X007849Y006048D01*
X007854Y006027D01*
X007862Y006007D01*
X007874Y005988D01*
X007888Y005972D01*
X007905Y005957D01*
X007923Y005946D01*
X007943Y005938D01*
X007965Y005933D01*
X007428Y005675D02*
X007121Y005675D01*
X007121Y005215D01*
X007428Y005215D01*
X006967Y005215D02*
X006660Y005215D01*
X006660Y005675D01*
X007121Y005445D02*
X007274Y005445D01*
X007965Y004957D02*
X007943Y004952D01*
X007923Y004944D01*
X007905Y004933D01*
X007888Y004918D01*
X007874Y004902D01*
X007862Y004883D01*
X007854Y004863D01*
X007849Y004842D01*
X007847Y004820D01*
X007849Y004798D01*
X007854Y004777D01*
X007862Y004757D01*
X007874Y004738D01*
X007888Y004722D01*
X007905Y004707D01*
X007923Y004696D01*
X007943Y004688D01*
X007965Y004683D01*
X007421Y004425D02*
X007114Y004425D01*
X007114Y003965D01*
X007421Y003965D01*
X006961Y003965D02*
X006654Y003965D01*
X006654Y004425D01*
X007114Y004195D02*
X007267Y004195D01*
X007965Y003707D02*
X007943Y003702D01*
X007923Y003694D01*
X007905Y003683D01*
X007888Y003668D01*
X007874Y003652D01*
X007862Y003633D01*
X007854Y003613D01*
X007849Y003592D01*
X007847Y003570D01*
X007849Y003548D01*
X007854Y003527D01*
X007862Y003507D01*
X007874Y003488D01*
X007888Y003472D01*
X007905Y003457D01*
X007923Y003446D01*
X007943Y003438D01*
X007965Y003433D01*
X011700Y001376D02*
X011777Y001299D01*
X011777Y001069D01*
X012697Y001376D02*
X012851Y001069D01*
X013618Y001069D02*
X013618Y001376D01*
X017380Y001778D02*
X017380Y002238D01*
X017534Y002085D01*
X017687Y002238D01*
X017687Y001778D01*
X017841Y001855D02*
X017918Y001931D01*
X018148Y001931D01*
X018148Y002008D02*
X018148Y001778D01*
X017918Y001778D01*
X017841Y001855D01*
X018301Y001931D02*
X018455Y002085D01*
X018531Y002085D01*
X018685Y002085D02*
X018838Y002085D01*
X018762Y002162D02*
X018762Y001855D01*
X018838Y001778D01*
X018992Y001855D02*
X018992Y002008D01*
X019069Y002085D01*
X019222Y002085D01*
X019299Y002008D01*
X019299Y001931D01*
X018992Y001931D01*
X018992Y001855D02*
X019069Y001778D01*
X019222Y001778D01*
X019452Y001778D02*
X019606Y001778D01*
X019529Y001778D02*
X019529Y002238D01*
X019452Y002238D01*
X019759Y002238D02*
X019836Y002238D01*
X019836Y001778D01*
X019759Y001778D02*
X019913Y001778D01*
X020667Y002133D02*
X020743Y002056D01*
X020897Y002056D01*
X020974Y002133D01*
X021127Y002133D02*
X021204Y002056D01*
X021357Y002056D01*
X021434Y002133D01*
X021434Y002440D01*
X021357Y002517D01*
X021204Y002517D01*
X021127Y002440D01*
X021127Y002363D01*
X021204Y002287D01*
X021434Y002287D01*
X020974Y002440D02*
X020897Y002517D01*
X020743Y002517D01*
X020667Y002440D01*
X020667Y002133D01*
X020918Y002777D02*
X021218Y002777D01*
X021208Y003296D02*
X020918Y003296D01*
X023326Y003273D02*
X023326Y003043D01*
X023787Y003043D01*
X023633Y003043D02*
X023633Y003273D01*
X023556Y003350D01*
X023403Y003350D01*
X023326Y003273D01*
X023633Y003196D02*
X023787Y003350D01*
X023787Y003503D02*
X023787Y003810D01*
X023787Y003657D02*
X023326Y003657D01*
X023480Y003503D01*
X023556Y003963D02*
X023556Y004194D01*
X023633Y004270D01*
X023710Y004270D01*
X023787Y004194D01*
X023787Y004040D01*
X023710Y003963D01*
X023556Y003963D01*
X023403Y004117D01*
X023326Y004270D01*
X018969Y006093D02*
X018969Y006374D01*
X018634Y006374D02*
X018634Y006093D01*
X016823Y005582D02*
X016823Y005302D01*
X016488Y005302D02*
X016488Y005582D01*
X016488Y007196D02*
X016488Y007476D01*
X016823Y007476D02*
X016823Y007196D01*
X019808Y008583D02*
X019808Y008874D01*
X020327Y008883D02*
X020327Y008583D01*
X020607Y008543D02*
X020684Y008466D01*
X020837Y008466D01*
X020914Y008543D01*
X021068Y008543D02*
X021068Y008619D01*
X021144Y008696D01*
X021298Y008696D01*
X021375Y008619D01*
X021375Y008543D01*
X021298Y008466D01*
X021144Y008466D01*
X021068Y008543D01*
X021144Y008696D02*
X021068Y008773D01*
X021068Y008850D01*
X021144Y008926D01*
X021298Y008926D01*
X021375Y008850D01*
X021375Y008773D01*
X021298Y008696D01*
X020914Y008850D02*
X020837Y008926D01*
X020684Y008926D01*
X020607Y008850D01*
X020607Y008543D01*
X019859Y009662D02*
X019859Y011162D01*
X018079Y011162D01*
X018079Y009662D01*
X019859Y009662D01*
X020751Y010853D02*
X020905Y010853D01*
X020828Y010853D02*
X020828Y011314D01*
X020751Y011314D02*
X020905Y011314D01*
X021058Y011237D02*
X021058Y010930D01*
X021135Y010853D01*
X021288Y010853D01*
X021365Y010930D01*
X021519Y010853D02*
X021826Y011160D01*
X021826Y011237D01*
X021749Y011314D01*
X021595Y011314D01*
X021519Y011237D01*
X021365Y011237D02*
X021288Y011314D01*
X021135Y011314D01*
X021058Y011237D01*
X021519Y010853D02*
X021826Y010853D01*
X020655Y012152D02*
X020501Y012152D01*
X020424Y012229D01*
X020271Y012229D02*
X020194Y012152D01*
X020041Y012152D01*
X019964Y012229D01*
X019964Y012536D01*
X020041Y012612D01*
X020194Y012612D01*
X020271Y012536D01*
X020424Y012612D02*
X020424Y012382D01*
X020578Y012459D01*
X020655Y012459D01*
X020731Y012382D01*
X020731Y012229D01*
X020655Y012152D01*
X020731Y012612D02*
X020424Y012612D01*
X021206Y012609D02*
X021206Y012889D01*
X021542Y012889D02*
X021542Y012609D01*
X019626Y012812D02*
X019319Y012812D01*
X019319Y012736D02*
X019319Y012889D01*
X019396Y012966D01*
X019550Y012966D01*
X019626Y012889D01*
X019626Y012812D01*
X019550Y012659D02*
X019396Y012659D01*
X019319Y012736D01*
X019166Y012966D02*
X019013Y012659D01*
X018859Y012966D01*
X018706Y012889D02*
X018629Y012966D01*
X018475Y012966D01*
X018475Y012812D02*
X018706Y012812D01*
X018706Y012889D02*
X018706Y012659D01*
X018475Y012659D01*
X018399Y012736D01*
X018475Y012812D01*
X018245Y012659D02*
X018092Y012659D01*
X018168Y012659D02*
X018168Y013119D01*
X018092Y013119D01*
X017938Y012966D02*
X017708Y012966D01*
X017631Y012889D01*
X017708Y012812D01*
X017862Y012812D01*
X017938Y012736D01*
X017862Y012659D01*
X017631Y012659D01*
X017522Y012347D02*
X017369Y012347D01*
X017292Y012270D01*
X017292Y011963D01*
X017599Y012270D01*
X017599Y011963D01*
X017522Y011886D01*
X017369Y011886D01*
X017292Y011963D01*
X017138Y011886D02*
X016832Y011886D01*
X017138Y012193D01*
X017138Y012270D01*
X017062Y012347D01*
X016908Y012347D01*
X016832Y012270D01*
X016218Y012116D02*
X016218Y011963D01*
X016141Y011886D01*
X015911Y011886D01*
X015911Y012347D01*
X015911Y012193D02*
X016141Y012193D01*
X016218Y012116D01*
X015757Y012116D02*
X015757Y012040D01*
X015450Y012040D01*
X015450Y012116D02*
X015527Y012193D01*
X015681Y012193D01*
X015757Y012116D01*
X015450Y012116D02*
X015450Y011963D01*
X015527Y011886D01*
X015681Y011886D01*
X015143Y012116D02*
X014990Y012116D01*
X014990Y011886D02*
X014990Y012347D01*
X015297Y012347D01*
X015176Y012659D02*
X015022Y012659D01*
X015099Y012659D02*
X015099Y013119D01*
X015022Y013119D01*
X014792Y013119D02*
X014792Y012659D01*
X014716Y012659D02*
X014869Y012659D01*
X014562Y012812D02*
X014255Y012812D01*
X014255Y012736D02*
X014255Y012889D01*
X014332Y012966D01*
X014485Y012966D01*
X014562Y012889D01*
X014562Y012812D01*
X014485Y012659D02*
X014332Y012659D01*
X014255Y012736D01*
X014102Y012659D02*
X013871Y012659D01*
X013795Y012736D01*
X013795Y012889D01*
X013871Y012966D01*
X014102Y012966D01*
X013641Y012889D02*
X013334Y012889D01*
X013181Y012889D02*
X012874Y012889D01*
X013104Y013119D01*
X013104Y012659D01*
X013225Y012347D02*
X013225Y012040D01*
X013072Y011886D01*
X012918Y012040D01*
X012918Y012347D01*
X013379Y012347D02*
X013379Y012116D01*
X013532Y012193D01*
X013609Y012193D01*
X013686Y012116D01*
X013686Y011963D01*
X013609Y011886D01*
X013455Y011886D01*
X013379Y011963D01*
X013839Y011963D02*
X013839Y011886D01*
X013916Y011886D01*
X013916Y011963D01*
X013839Y011963D01*
X014069Y011963D02*
X014146Y011886D01*
X014299Y011886D01*
X014376Y011963D01*
X014376Y012040D01*
X014299Y012116D01*
X014223Y012116D01*
X014299Y012116D02*
X014376Y012193D01*
X014376Y012270D01*
X014299Y012347D01*
X014146Y012347D01*
X014069Y012270D01*
X013686Y012347D02*
X013379Y012347D01*
X014716Y013119D02*
X014792Y013119D01*
X015790Y013119D02*
X015790Y012659D01*
X016020Y012659D01*
X016097Y012736D01*
X016097Y012812D01*
X016020Y012889D01*
X015790Y012889D01*
X016020Y012889D02*
X016097Y012966D01*
X016097Y013043D01*
X016020Y013119D01*
X015790Y013119D01*
X016250Y013119D02*
X016404Y012966D01*
X016557Y013119D01*
X016557Y012659D01*
X016711Y012736D02*
X016787Y012659D01*
X016941Y012659D01*
X017017Y012736D01*
X017017Y012812D01*
X016941Y012889D01*
X016787Y012889D01*
X016711Y012966D01*
X016711Y013043D01*
X016787Y013119D01*
X016941Y013119D01*
X017017Y013043D01*
X016250Y013119D02*
X016250Y012659D01*
X017522Y012347D02*
X017599Y012270D01*
X016828Y009488D02*
X016828Y009207D01*
X016493Y009207D02*
X016493Y009488D01*
X012484Y009539D02*
X012177Y009539D01*
X012407Y009769D01*
X012407Y009308D01*
X011946Y009385D02*
X011946Y009769D01*
X011870Y009769D02*
X012023Y009769D01*
X011946Y009385D02*
X011870Y009308D01*
X011793Y009308D01*
X011716Y009385D01*
X009967Y009098D02*
X009967Y009021D01*
X009890Y008944D01*
X009967Y008867D01*
X009967Y008791D01*
X009890Y008714D01*
X009736Y008714D01*
X009660Y008791D01*
X009506Y008714D02*
X009199Y008714D01*
X009046Y008714D02*
X008892Y008867D01*
X008969Y008867D02*
X008739Y008867D01*
X008739Y008714D02*
X008739Y009174D01*
X008969Y009174D01*
X009046Y009098D01*
X009046Y008944D01*
X008969Y008867D01*
X009199Y009021D02*
X009353Y009174D01*
X009353Y008714D01*
X009813Y008944D02*
X009890Y008944D01*
X009967Y009098D02*
X009890Y009174D01*
X009736Y009174D01*
X009660Y009098D01*
X008370Y009535D02*
X008080Y009535D01*
X007454Y009514D02*
X007377Y009437D01*
X007070Y009437D01*
X006994Y009514D01*
X006994Y009668D01*
X007070Y009744D01*
X006994Y009898D02*
X006994Y010205D01*
X007070Y010205D01*
X007377Y009898D01*
X007454Y009898D01*
X007377Y009744D02*
X007454Y009668D01*
X007454Y009514D01*
X008070Y010054D02*
X008370Y010054D01*
X002787Y010085D02*
X002787Y009258D01*
X002590Y009258D01*
X002590Y009356D01*
X002374Y009356D01*
X002256Y009356D01*
X002256Y009228D01*
X002374Y009228D01*
X002374Y009356D01*
X002256Y009356D02*
X002039Y009356D01*
X002039Y009258D01*
X001842Y009258D01*
X001842Y009691D01*
X002039Y009986D02*
X002039Y010085D01*
X002039Y010242D01*
X002039Y010341D01*
X002256Y010341D01*
X002374Y010341D01*
X002590Y010341D01*
X002590Y010242D01*
X002590Y010085D01*
X002590Y009986D01*
X002374Y009986D01*
X002256Y009986D01*
X002039Y009986D01*
X002039Y010085D02*
X001842Y010085D01*
X001842Y009258D01*
X001842Y009100D02*
X002039Y009100D01*
X002039Y009002D01*
X002256Y009002D01*
X002374Y009002D01*
X002374Y009130D01*
X002256Y009130D01*
X002256Y009002D01*
X002374Y009002D02*
X002590Y009002D01*
X002590Y009100D01*
X002787Y009100D01*
X002787Y008707D01*
X001842Y008707D01*
X001842Y009100D01*
X002039Y009100D02*
X002039Y009258D01*
X002590Y009258D02*
X002590Y009100D01*
X002467Y008613D02*
X002467Y008306D01*
X002467Y008153D02*
X002006Y007846D01*
X002006Y008153D02*
X002467Y007846D01*
X002160Y008306D02*
X002006Y008460D01*
X002467Y008460D01*
X002787Y009652D02*
X002787Y010085D01*
X002590Y010085D01*
X002590Y010242D02*
X002787Y010242D01*
X002787Y011069D01*
X002787Y010636D01*
X002787Y010242D01*
X002374Y010213D02*
X002374Y010341D01*
X002256Y010341D02*
X002256Y010213D01*
X002374Y010213D01*
X002374Y010114D02*
X002256Y010114D01*
X002256Y009986D01*
X002374Y009986D02*
X002374Y010114D01*
X002039Y010242D02*
X001842Y010242D01*
X001842Y010675D01*
X001842Y010636D02*
X001842Y010242D01*
X001842Y011069D01*
X002039Y011069D01*
X002039Y010971D01*
X002256Y010971D01*
X002374Y010971D01*
X002590Y010971D01*
X002590Y011069D01*
X002787Y011069D01*
X002787Y011226D02*
X002590Y011226D01*
X002590Y011325D01*
X002374Y011325D01*
X002256Y011325D01*
X002256Y011197D01*
X002374Y011197D01*
X002374Y011325D01*
X002256Y011325D02*
X002039Y011325D01*
X002039Y011226D01*
X001842Y011226D01*
X001842Y011620D01*
X002787Y011620D01*
X002787Y011226D01*
X002590Y011226D02*
X002590Y011069D01*
X002374Y011099D02*
X002374Y010971D01*
X002256Y010971D02*
X002256Y011099D01*
X002374Y011099D01*
X002039Y011069D02*
X002039Y011226D01*
X006873Y006904D02*
X006873Y006444D01*
X007180Y006444D01*
X007333Y006674D02*
X007487Y006674D01*
X016527Y003610D02*
X016527Y003329D01*
X016862Y003329D02*
X016862Y003610D01*
X017918Y002085D02*
X018071Y002085D01*
X018148Y002008D01*
X018301Y002085D02*
X018301Y001778D01*
D11*
X015961Y003299D02*
X015961Y003640D01*
X015680Y003640D02*
X015680Y003299D01*
X015089Y003299D02*
X015089Y003640D01*
X014808Y003640D02*
X014808Y003299D01*
X014808Y005272D02*
X014808Y005612D01*
X015089Y005612D02*
X015089Y005272D01*
X015641Y005272D02*
X015641Y005612D01*
X015921Y005612D02*
X015921Y005272D01*
X017199Y007153D02*
X017199Y007783D01*
X018302Y007783D01*
X018302Y007153D01*
X017199Y007153D01*
X015921Y007166D02*
X015921Y007506D01*
X015641Y007506D02*
X015641Y007166D01*
X015089Y007166D02*
X015089Y007506D01*
X014808Y007506D02*
X014808Y007166D01*
X014808Y009177D02*
X014808Y009518D01*
X015089Y009518D02*
X015089Y009177D01*
X015641Y009177D02*
X015641Y009518D01*
X015921Y009518D02*
X015921Y009177D01*
X020223Y007153D02*
X020223Y003813D01*
X020225Y003790D01*
X020230Y003767D01*
X020239Y003745D01*
X020252Y003725D01*
X020267Y003707D01*
X020285Y003692D01*
X020305Y003679D01*
X020327Y003670D01*
X020350Y003665D01*
X020373Y003663D01*
X020568Y003663D01*
X021568Y003663D01*
X021763Y003663D01*
X021786Y003665D01*
X021809Y003670D01*
X021831Y003679D01*
X021851Y003692D01*
X021869Y003707D01*
X021884Y003725D01*
X021897Y003745D01*
X021906Y003767D01*
X021911Y003790D01*
X021913Y003813D01*
X021913Y007153D01*
X021911Y007176D01*
X021906Y007199D01*
X021897Y007221D01*
X021884Y007241D01*
X021869Y007259D01*
X021851Y007274D01*
X021831Y007287D01*
X021809Y007296D01*
X021786Y007301D01*
X021763Y007303D01*
X020373Y007303D01*
X020350Y007301D01*
X020327Y007296D01*
X020305Y007287D01*
X020285Y007274D01*
X020267Y007259D01*
X020252Y007241D01*
X020239Y007221D01*
X020230Y007199D01*
X020225Y007176D01*
X020223Y007153D01*
X020766Y009668D02*
X020766Y010298D01*
X021869Y010298D01*
X021869Y009668D01*
X020766Y009668D01*
X022126Y012579D02*
X022126Y012919D01*
X022406Y012919D02*
X022406Y012579D01*
X011705Y012403D02*
X011705Y012063D01*
X011424Y012063D02*
X011424Y012403D01*
X008285Y010839D02*
X007945Y010839D01*
X007945Y010559D02*
X008285Y010559D01*
X008270Y009084D02*
X007930Y009084D01*
X007930Y008804D02*
X008270Y008804D01*
X006011Y007570D02*
X005689Y007570D01*
X005689Y007070D02*
X006011Y007070D01*
X006011Y006320D02*
X005689Y006320D01*
X005689Y005820D02*
X006011Y005820D01*
X006011Y005070D02*
X005689Y005070D01*
X005689Y004570D02*
X006011Y004570D01*
X006011Y003820D02*
X005689Y003820D01*
X005689Y003320D02*
X006011Y003320D01*
X000703Y009985D02*
X000276Y010305D01*
X000703Y010625D01*
X001341Y010895D02*
X001769Y011216D01*
X001341Y011536D01*
X001124Y011216D02*
X000697Y011216D01*
X000920Y010305D02*
X001348Y010305D01*
X007480Y012069D02*
X007480Y012409D01*
X007760Y012409D02*
X007760Y012069D01*
X020568Y003663D02*
X020570Y003707D01*
X020576Y003750D01*
X020585Y003792D01*
X020598Y003834D01*
X020615Y003874D01*
X020635Y003913D01*
X020658Y003950D01*
X020685Y003984D01*
X020714Y004017D01*
X020747Y004046D01*
X020781Y004073D01*
X020818Y004096D01*
X020857Y004116D01*
X020897Y004133D01*
X020939Y004146D01*
X020981Y004155D01*
X021024Y004161D01*
X021068Y004163D01*
X021112Y004161D01*
X021155Y004155D01*
X021197Y004146D01*
X021239Y004133D01*
X021279Y004116D01*
X021318Y004096D01*
X021355Y004073D01*
X021389Y004046D01*
X021422Y004017D01*
X021451Y003984D01*
X021478Y003950D01*
X021501Y003913D01*
X021521Y003874D01*
X021538Y003834D01*
X021551Y003792D01*
X021560Y003750D01*
X021566Y003707D01*
X021568Y003663D01*
X024192Y003836D02*
X024192Y003496D01*
X024472Y003496D02*
X024472Y003836D01*
D12*
X024332Y003916D03*
X024332Y003416D03*
X015820Y003220D03*
X015820Y003720D03*
X014948Y003720D03*
X014948Y003220D03*
X014948Y005192D03*
X014948Y005692D03*
X015781Y005692D03*
X015781Y005192D03*
X015781Y007086D03*
X015781Y007586D03*
X014948Y007586D03*
X014948Y007086D03*
X014948Y009098D03*
X015781Y009098D03*
X015781Y009598D03*
X014948Y009598D03*
X011565Y011983D03*
X011565Y012483D03*
X007620Y012489D03*
X007620Y011989D03*
X022266Y012499D03*
X022266Y012999D03*
D13*
X003752Y002242D02*
X003752Y001872D01*
X003997Y001933D02*
X003997Y002057D01*
X004182Y002057D01*
X004244Y001995D01*
X004244Y001933D01*
X004182Y001872D01*
X004058Y001872D01*
X003997Y001933D01*
X003997Y002057D02*
X004120Y002180D01*
X004244Y002242D01*
X004292Y002400D02*
X004169Y002400D01*
X004107Y002462D01*
X004107Y002585D02*
X004231Y002647D01*
X004292Y002647D01*
X004354Y002585D01*
X004354Y002462D01*
X004292Y002400D01*
X004107Y002585D02*
X004107Y002770D01*
X004354Y002770D01*
X004202Y002871D02*
X004202Y003241D01*
X004017Y003056D01*
X004264Y003056D01*
X003896Y003241D02*
X003649Y003241D01*
X003772Y003241D02*
X003772Y002871D01*
X003739Y002770D02*
X003986Y002770D01*
X003862Y002770D02*
X003862Y002400D01*
X003875Y002242D02*
X003628Y002242D01*
X001505Y003682D02*
X001443Y003620D01*
X001319Y003620D01*
X001258Y003682D01*
X001381Y003805D02*
X001443Y003805D01*
X001505Y003743D01*
X001505Y003682D01*
X001443Y003805D02*
X001505Y003867D01*
X001505Y003929D01*
X001443Y003990D01*
X001319Y003990D01*
X001258Y003929D01*
X001136Y003990D02*
X000889Y003990D01*
X001013Y003990D02*
X001013Y003620D01*
X000946Y004804D02*
X000946Y005174D01*
X001069Y005174D02*
X000822Y005174D01*
X001190Y005174D02*
X001437Y005174D01*
X001437Y005112D01*
X001190Y004866D01*
X001190Y004804D01*
X001250Y006223D02*
X001188Y006284D01*
X001188Y006346D01*
X001250Y006408D01*
X001373Y006408D01*
X001435Y006346D01*
X001435Y006284D01*
X001373Y006223D01*
X001250Y006223D01*
X001250Y006408D02*
X001188Y006470D01*
X001188Y006531D01*
X001250Y006593D01*
X001373Y006593D01*
X001435Y006531D01*
X001435Y006470D01*
X001373Y006408D01*
X000943Y006223D02*
X000943Y006593D01*
X000820Y006593D02*
X001067Y006593D01*
X004156Y007463D02*
X004156Y007754D01*
X004301Y007754D01*
X004349Y007705D01*
X004349Y007609D01*
X004301Y007560D01*
X004156Y007560D01*
X004253Y007560D02*
X004349Y007463D01*
X004450Y007463D02*
X004644Y007463D01*
X004547Y007463D02*
X004547Y007754D01*
X004450Y007657D01*
X004745Y007657D02*
X004794Y007609D01*
X004939Y007609D01*
X004939Y007705D02*
X004890Y007754D01*
X004794Y007754D01*
X004745Y007705D01*
X004745Y007657D01*
X004745Y007512D02*
X004794Y007463D01*
X004890Y007463D01*
X004939Y007512D01*
X004939Y007705D01*
X005260Y006884D02*
X005445Y006884D01*
X005507Y006822D01*
X005507Y006699D01*
X005445Y006637D01*
X005260Y006637D01*
X005260Y006514D02*
X005260Y006884D01*
X005383Y006637D02*
X005507Y006514D01*
X005628Y006514D02*
X005875Y006761D01*
X005875Y006822D01*
X005814Y006884D01*
X005690Y006884D01*
X005628Y006822D01*
X005997Y006822D02*
X006058Y006884D01*
X006182Y006884D01*
X006244Y006822D01*
X005997Y006575D01*
X006058Y006514D01*
X006182Y006514D01*
X006244Y006575D01*
X006244Y006822D01*
X005997Y006822D02*
X005997Y006575D01*
X005875Y006514D02*
X005628Y006514D01*
X005690Y005634D02*
X005628Y005572D01*
X005690Y005634D02*
X005814Y005634D01*
X005875Y005572D01*
X005875Y005511D01*
X005628Y005264D01*
X005875Y005264D01*
X005997Y005264D02*
X006244Y005264D01*
X006120Y005264D02*
X006120Y005634D01*
X005997Y005511D01*
X005507Y005572D02*
X005507Y005449D01*
X005445Y005387D01*
X005260Y005387D01*
X005260Y005264D02*
X005260Y005634D01*
X005445Y005634D01*
X005507Y005572D01*
X005383Y005387D02*
X005507Y005264D01*
X005445Y004384D02*
X005260Y004384D01*
X005260Y004014D01*
X005260Y004137D02*
X005445Y004137D01*
X005507Y004199D01*
X005507Y004322D01*
X005445Y004384D01*
X005628Y004322D02*
X005690Y004384D01*
X005814Y004384D01*
X005875Y004322D01*
X005875Y004261D01*
X005628Y004014D01*
X005875Y004014D01*
X005997Y004014D02*
X006244Y004261D01*
X006244Y004322D01*
X006182Y004384D01*
X006058Y004384D01*
X005997Y004322D01*
X005997Y004014D02*
X006244Y004014D01*
X005507Y004014D02*
X005383Y004137D01*
X014552Y004421D02*
X014552Y004791D01*
X014737Y004791D01*
X014798Y004730D01*
X014798Y004606D01*
X014737Y004545D01*
X014552Y004545D01*
X014675Y004545D02*
X014798Y004421D01*
X014920Y004483D02*
X014982Y004421D01*
X015105Y004421D01*
X015167Y004483D01*
X015167Y004545D01*
X015105Y004606D01*
X014982Y004606D01*
X014920Y004668D01*
X014920Y004730D01*
X014982Y004791D01*
X015105Y004791D01*
X015167Y004730D01*
X015167Y004668D01*
X015105Y004606D01*
X014982Y004606D02*
X014920Y004545D01*
X014920Y004483D01*
X015408Y004521D02*
X015593Y004521D01*
X015655Y004583D01*
X015655Y004706D01*
X015593Y004768D01*
X015408Y004768D01*
X015408Y004398D01*
X015531Y004521D02*
X015655Y004398D01*
X015776Y004398D02*
X016023Y004644D01*
X016023Y004706D01*
X015961Y004768D01*
X015838Y004768D01*
X015776Y004706D01*
X015776Y004398D02*
X016023Y004398D01*
X016269Y004475D02*
X016331Y004413D01*
X016454Y004413D01*
X016516Y004475D01*
X016637Y004413D02*
X016884Y004660D01*
X016884Y004722D01*
X016823Y004784D01*
X016699Y004784D01*
X016637Y004722D01*
X016516Y004722D02*
X016454Y004784D01*
X016331Y004784D01*
X016269Y004722D01*
X016269Y004475D01*
X016637Y004413D02*
X016884Y004413D01*
X018431Y005203D02*
X018492Y005142D01*
X018616Y005142D01*
X018677Y005203D01*
X018799Y005203D02*
X018861Y005142D01*
X018984Y005142D01*
X019046Y005203D01*
X019046Y005265D01*
X018984Y005327D01*
X018799Y005327D01*
X018799Y005203D01*
X018799Y005327D02*
X018922Y005450D01*
X019046Y005512D01*
X018677Y005450D02*
X018616Y005512D01*
X018492Y005512D01*
X018431Y005450D01*
X018431Y005203D01*
X017932Y006233D02*
X017809Y006233D01*
X017747Y006294D01*
X017626Y006294D02*
X017564Y006233D01*
X017441Y006233D01*
X017379Y006294D01*
X017379Y006541D01*
X017441Y006603D01*
X017564Y006603D01*
X017626Y006541D01*
X017747Y006541D02*
X017809Y006603D01*
X017932Y006603D01*
X017994Y006541D01*
X017994Y006479D01*
X017932Y006418D01*
X017994Y006356D01*
X017994Y006294D01*
X017932Y006233D01*
X017932Y006418D02*
X017871Y006418D01*
X017257Y006603D02*
X017133Y006603D01*
X017195Y006603D02*
X017195Y006233D01*
X017133Y006233D02*
X017257Y006233D01*
X016880Y006365D02*
X016819Y006303D01*
X016695Y006303D01*
X016633Y006365D01*
X016512Y006365D02*
X016450Y006303D01*
X016327Y006303D01*
X016265Y006365D01*
X016265Y006612D01*
X016327Y006673D01*
X016450Y006673D01*
X016512Y006612D01*
X016633Y006612D02*
X016695Y006673D01*
X016819Y006673D01*
X016880Y006612D01*
X016880Y006550D01*
X016819Y006488D01*
X016880Y006427D01*
X016880Y006365D01*
X016819Y006488D02*
X016757Y006488D01*
X016059Y006450D02*
X016059Y006388D01*
X015997Y006327D01*
X015873Y006327D01*
X015812Y006388D01*
X015690Y006327D02*
X015567Y006450D01*
X015628Y006450D02*
X015443Y006450D01*
X015443Y006327D02*
X015443Y006697D01*
X015628Y006697D01*
X015690Y006635D01*
X015690Y006512D01*
X015628Y006450D01*
X015812Y006635D02*
X015873Y006697D01*
X015997Y006697D01*
X016059Y006635D01*
X016059Y006574D01*
X015997Y006512D01*
X016059Y006450D01*
X015997Y006512D02*
X015935Y006512D01*
X015297Y006522D02*
X015112Y006522D01*
X015050Y006584D01*
X015050Y006646D01*
X015112Y006707D01*
X015235Y006707D01*
X015297Y006646D01*
X015297Y006399D01*
X015235Y006337D01*
X015112Y006337D01*
X015050Y006399D01*
X014929Y006337D02*
X014805Y006460D01*
X014867Y006460D02*
X014682Y006460D01*
X014682Y006337D02*
X014682Y006707D01*
X014867Y006707D01*
X014929Y006646D01*
X014929Y006522D01*
X014867Y006460D01*
X014846Y008258D02*
X015092Y008258D01*
X014969Y008258D02*
X014969Y008629D01*
X014846Y008505D01*
X014724Y008567D02*
X014724Y008443D01*
X014662Y008382D01*
X014477Y008382D01*
X014601Y008382D02*
X014724Y008258D01*
X014477Y008258D02*
X014477Y008629D01*
X014662Y008629D01*
X014724Y008567D01*
X015214Y008567D02*
X015214Y008320D01*
X015461Y008567D01*
X015461Y008320D01*
X015399Y008258D01*
X015276Y008258D01*
X015214Y008320D01*
X015214Y008567D02*
X015276Y008629D01*
X015399Y008629D01*
X015461Y008567D01*
X015491Y008644D02*
X015676Y008644D01*
X015738Y008583D01*
X015738Y008459D01*
X015676Y008397D01*
X015491Y008397D01*
X015491Y008274D02*
X015491Y008644D01*
X015614Y008397D02*
X015738Y008274D01*
X016044Y008274D02*
X016044Y008644D01*
X015859Y008459D01*
X016106Y008459D01*
X016273Y008351D02*
X016335Y008290D01*
X016459Y008290D01*
X016520Y008351D01*
X016642Y008475D02*
X016889Y008475D01*
X016827Y008660D02*
X016642Y008475D01*
X016520Y008598D02*
X016459Y008660D01*
X016335Y008660D01*
X016273Y008598D01*
X016273Y008351D01*
X016827Y008290D02*
X016827Y008660D01*
X018259Y009083D02*
X018259Y009453D01*
X018444Y009453D01*
X018506Y009392D01*
X018506Y009145D01*
X018444Y009083D01*
X018259Y009083D01*
X018627Y009083D02*
X018874Y009083D01*
X018751Y009083D02*
X018751Y009453D01*
X018627Y009330D01*
X017200Y010179D02*
X017006Y010179D01*
X017200Y010373D01*
X017200Y010421D01*
X017151Y010470D01*
X017054Y010470D01*
X017006Y010421D01*
X016905Y010421D02*
X016905Y010228D01*
X016857Y010179D01*
X016711Y010179D01*
X016711Y010470D01*
X016857Y010470D01*
X016905Y010421D01*
X012169Y012965D02*
X012169Y013335D01*
X011984Y013150D01*
X012231Y013150D01*
X011863Y012965D02*
X011616Y012965D01*
X011494Y012965D02*
X011371Y013088D01*
X011433Y013088D02*
X011247Y013088D01*
X011247Y012965D02*
X011247Y013335D01*
X011433Y013335D01*
X011494Y013273D01*
X011494Y013150D01*
X011433Y013088D01*
X011616Y013212D02*
X011739Y013335D01*
X011739Y012965D01*
X010675Y012609D02*
X010675Y012547D01*
X010428Y012300D01*
X010675Y012300D01*
X010183Y012300D02*
X010183Y012670D01*
X010306Y012670D02*
X010059Y012670D01*
X010428Y012609D02*
X010490Y012670D01*
X010613Y012670D01*
X010675Y012609D01*
X008343Y012001D02*
X008343Y011904D01*
X008295Y011856D01*
X008295Y011755D02*
X008101Y011755D01*
X008053Y011706D01*
X008053Y011561D01*
X008343Y011561D01*
X008343Y011706D01*
X008295Y011755D01*
X008101Y011856D02*
X008053Y011904D01*
X008053Y012001D01*
X008101Y012049D01*
X008149Y012049D01*
X008198Y012001D01*
X008246Y012049D01*
X008295Y012049D01*
X008343Y012001D01*
X008198Y012001D02*
X008198Y011953D01*
X008190Y011454D02*
X008190Y011084D01*
X008067Y011084D02*
X008314Y011084D01*
X008435Y011084D02*
X008682Y011084D01*
X008559Y011084D02*
X008559Y011454D01*
X008435Y011331D01*
X008190Y011454D02*
X008067Y011331D01*
X007946Y011393D02*
X007946Y011269D01*
X007884Y011207D01*
X007699Y011207D01*
X007699Y011084D02*
X007699Y011454D01*
X007884Y011454D01*
X007946Y011393D01*
X007822Y011207D02*
X007946Y011084D01*
X007991Y012946D02*
X007744Y012946D01*
X007991Y013193D01*
X007991Y013255D01*
X007929Y013317D01*
X007806Y013317D01*
X007744Y013255D01*
X007499Y013317D02*
X007499Y012946D01*
X007376Y012946D02*
X007623Y012946D01*
X007255Y012946D02*
X007131Y013070D01*
X007193Y013070D02*
X007008Y013070D01*
X007008Y012946D02*
X007008Y013317D01*
X007193Y013317D01*
X007255Y013255D01*
X007255Y013132D01*
X007193Y013070D01*
X007376Y013193D02*
X007499Y013317D01*
X022588Y013348D02*
X022588Y012978D01*
X022588Y013102D02*
X022773Y013102D01*
X022835Y013163D01*
X022835Y013287D01*
X022773Y013348D01*
X022588Y013348D01*
X022711Y013102D02*
X022835Y012978D01*
X022956Y013040D02*
X023018Y012978D01*
X023141Y012978D01*
X023203Y013040D01*
X023203Y013102D01*
X023141Y013163D01*
X022956Y013163D01*
X022956Y013040D01*
X022956Y013163D02*
X023079Y013287D01*
X023203Y013348D01*
X016883Y002815D02*
X016883Y002445D01*
X017006Y002445D02*
X016759Y002445D01*
X016638Y002507D02*
X016576Y002445D01*
X016453Y002445D01*
X016391Y002507D01*
X016391Y002753D01*
X016453Y002815D01*
X016576Y002815D01*
X016638Y002753D01*
X016759Y002692D02*
X016883Y002815D01*
X016066Y002429D02*
X015820Y002429D01*
X015698Y002429D02*
X015575Y002552D01*
X015636Y002552D02*
X015451Y002552D01*
X015451Y002429D02*
X015451Y002799D01*
X015636Y002799D01*
X015698Y002738D01*
X015698Y002614D01*
X015636Y002552D01*
X015820Y002676D02*
X015943Y002799D01*
X015943Y002429D01*
X015171Y002722D02*
X014924Y002475D01*
X014924Y002413D01*
X014802Y002413D02*
X014679Y002537D01*
X014741Y002537D02*
X014556Y002537D01*
X014556Y002413D02*
X014556Y002784D01*
X014741Y002784D01*
X014802Y002722D01*
X014802Y002598D01*
X014741Y002537D01*
X014924Y002784D02*
X015171Y002784D01*
X015171Y002722D01*
D14*
X016695Y003238D03*
X016695Y003698D03*
X016656Y005210D03*
X016656Y005670D03*
X018802Y006002D03*
X018802Y006462D03*
X016656Y007104D03*
X016656Y007564D03*
X016660Y009119D03*
X016660Y009579D03*
X021375Y012518D03*
X021375Y012978D03*
D15*
X021938Y006983D03*
X021938Y006483D03*
X021938Y005983D03*
X021938Y005483D03*
X021938Y004983D03*
X021938Y004483D03*
X021938Y003983D03*
X021938Y003983D03*
X020198Y003983D03*
X020198Y003983D03*
X020198Y004483D03*
X020198Y004983D03*
X020198Y005483D03*
X020198Y005983D03*
X020198Y006483D03*
X020198Y006983D03*
D16*
X019883Y006983D03*
X019883Y006483D03*
X019883Y005983D03*
X019883Y005483D03*
X019883Y004983D03*
X019883Y004483D03*
X019883Y003983D03*
X022128Y003983D03*
X022128Y004483D03*
X022128Y004983D03*
X022128Y005483D03*
X022128Y005983D03*
X022128Y006483D03*
X022128Y006983D03*
D17*
X021444Y007440D02*
X021143Y007440D01*
X021293Y007440D02*
X021293Y007891D01*
X021143Y007740D01*
X020983Y007816D02*
X020908Y007891D01*
X020758Y007891D01*
X020683Y007816D01*
X020683Y007515D01*
X020758Y007440D01*
X020908Y007440D01*
X020983Y007515D01*
X020526Y007440D02*
X020376Y007440D01*
X020451Y007440D02*
X020451Y007891D01*
X020376Y007891D02*
X020526Y007891D01*
X016165Y010027D02*
X015496Y010027D01*
X015496Y010538D01*
X016165Y010538D01*
X016165Y010027D01*
X016185Y010204D02*
X016303Y010204D01*
X016303Y010361D01*
X016185Y010361D01*
X015988Y010519D02*
X015988Y010046D01*
X015948Y010046D01*
X015948Y010519D01*
X015476Y010361D02*
X015358Y010361D01*
X015358Y010204D01*
X015476Y010204D01*
X011072Y011041D02*
X009952Y011041D01*
X009952Y011719D01*
X011072Y011719D01*
X011072Y011041D01*
X008968Y011920D02*
X008456Y011920D01*
X008456Y012590D01*
X008968Y012590D01*
X008968Y011920D01*
X008791Y011901D02*
X008791Y011783D01*
X008633Y011783D01*
X008633Y011901D01*
X008476Y012373D02*
X008948Y012373D01*
X008948Y012412D01*
X008476Y012412D01*
X008633Y012609D02*
X008633Y012727D01*
X008791Y012727D01*
X008791Y012609D01*
X006434Y013456D02*
X006434Y008101D01*
X003363Y008101D01*
X003363Y013456D01*
X006434Y013456D01*
X004439Y007380D02*
X003761Y007380D01*
X003761Y006260D01*
X004439Y006260D01*
X004439Y007380D01*
X002689Y006880D02*
X002689Y005760D01*
X002011Y005760D01*
X002011Y006880D01*
X002689Y006880D01*
X003761Y006130D02*
X003761Y005010D01*
X004439Y005010D01*
X004439Y006130D01*
X003761Y006130D01*
X002689Y005630D02*
X002689Y004510D01*
X002011Y004510D01*
X002011Y005630D01*
X002689Y005630D01*
X003761Y004565D02*
X003761Y003445D01*
X004439Y003445D01*
X004439Y004565D01*
X003761Y004565D01*
X002689Y004380D02*
X002689Y003260D01*
X002011Y003260D01*
X002011Y004380D01*
X002689Y004380D01*
X005511Y003005D02*
X005511Y001885D01*
X006189Y001885D01*
X006189Y003005D01*
X005511Y003005D01*
X023987Y012708D02*
X024062Y012633D01*
X024137Y012633D01*
X024212Y012708D01*
X024212Y013084D01*
X024137Y013084D02*
X024287Y013084D01*
X024448Y013084D02*
X024673Y013084D01*
X024748Y013009D01*
X024748Y012859D01*
X024673Y012783D01*
X024448Y012783D01*
X024448Y012633D02*
X024448Y013084D01*
X024908Y012934D02*
X025058Y013084D01*
X025058Y012633D01*
X024908Y012633D02*
X025208Y012633D01*
D18*
X026336Y012443D02*
X022793Y012443D01*
X022793Y004490D01*
X022832Y004490D02*
X026336Y004490D01*
X026336Y007600D01*
X025746Y007600D01*
X025746Y009333D01*
X026336Y009333D01*
X026336Y007600D01*
X025903Y007600D02*
X025903Y004923D01*
X023226Y004923D01*
X023226Y012010D01*
X025903Y012010D01*
X025903Y009333D01*
X026336Y009333D02*
X026336Y012443D01*
X021878Y010152D02*
X021878Y009814D01*
X021423Y010302D02*
X021212Y010302D01*
X020758Y010152D02*
X020758Y009814D01*
X019045Y010019D02*
X019045Y010806D01*
X018642Y010412D01*
X019045Y010019D01*
X018311Y007637D02*
X018311Y007299D01*
X017856Y007149D02*
X017645Y007149D01*
X017191Y007299D02*
X017191Y007637D01*
X025657Y006717D02*
X025657Y006217D01*
D19*
X019964Y010412D03*
X017974Y010412D03*
D20*
X018546Y010412D03*
D21*
X020068Y009016D03*
X020068Y008446D03*
D22*
X024065Y008467D03*
X025065Y008467D03*
X025065Y009467D03*
X025065Y009467D03*
X024065Y009467D03*
X024065Y009467D03*
X024065Y010467D03*
X025065Y010467D03*
X025065Y007467D03*
X024065Y007467D03*
X024065Y006467D03*
X025065Y006467D03*
D23*
X021350Y003036D03*
X020780Y003036D03*
X008508Y009795D03*
X007938Y009795D03*
D24*
X004574Y007190D03*
X003626Y006820D03*
X002824Y006320D03*
X001876Y006690D03*
X001876Y005950D03*
X001876Y005440D03*
X002824Y005070D03*
X003626Y005570D03*
X004574Y005940D03*
X004574Y006450D03*
X004574Y005200D03*
X004574Y004375D03*
X003626Y004005D03*
X002824Y003820D03*
X001876Y004190D03*
X001876Y004700D03*
X001876Y003450D03*
X004574Y003635D03*
X006324Y002815D03*
X005376Y002445D03*
X006324Y002075D03*
D25*
X006142Y003569D03*
X005562Y003569D03*
X005562Y004819D03*
X006142Y004819D03*
X006142Y006069D03*
X005562Y006069D03*
X005562Y007319D03*
X006142Y007319D03*
D26*
X007850Y008944D03*
X008350Y008944D03*
X008365Y010699D03*
X007865Y010699D03*
D27*
X010142Y011854D03*
X010882Y011854D03*
X010512Y010906D03*
D28*
X007895Y007502D03*
X007305Y007502D03*
X007895Y007138D03*
X007895Y006252D03*
X007895Y005888D03*
X007305Y006252D03*
X007305Y005002D03*
X007895Y005002D03*
X007895Y004638D03*
X007895Y003752D03*
X007305Y003752D03*
X007895Y003388D03*
D29*
X007846Y003472D03*
X007846Y003668D03*
X007354Y003668D03*
X007354Y003472D03*
X007354Y004722D03*
X007354Y004918D03*
X007846Y004918D03*
X007846Y004722D03*
X007846Y005972D03*
X007846Y006168D03*
X007354Y006168D03*
X007354Y005972D03*
X007354Y007222D03*
X007354Y007418D03*
X007846Y007418D03*
X007846Y007222D03*
D30*
X007831Y007320D03*
X007369Y007320D03*
X007369Y006070D03*
X007831Y006070D03*
X007831Y004820D03*
X007369Y004820D03*
X007369Y003570D03*
X007831Y003570D03*
D31*
X007561Y003570D03*
X007561Y004820D03*
X007561Y006070D03*
X007561Y007320D03*
D32*
X007344Y007143D03*
X007344Y005893D03*
X007344Y004643D03*
X007344Y003393D03*
D33*
X007221Y003388D03*
X007221Y004638D03*
X007221Y005888D03*
X007221Y007138D03*
D34*
X017377Y007005D03*
X018125Y007005D03*
X018125Y007930D03*
X017751Y007930D03*
X017377Y007930D03*
X020944Y009521D03*
X021318Y009521D03*
X021692Y009521D03*
X021692Y010446D03*
X020944Y010446D03*
D35*
X012870Y008662D02*
X010626Y008662D01*
X010626Y003151D01*
X012870Y003151D01*
X012870Y008662D01*
X013766Y004332D02*
X013768Y004343D01*
X013772Y004353D01*
X013779Y004361D01*
X013789Y004367D01*
X013799Y004371D01*
X013811Y004371D01*
X013821Y004367D01*
X013831Y004361D01*
X013838Y004353D01*
X013842Y004343D01*
X013844Y004332D01*
X013842Y004321D01*
X013838Y004311D01*
X013831Y004303D01*
X013821Y004297D01*
X013811Y004293D01*
X013799Y004293D01*
X013789Y004297D01*
X013779Y004303D01*
X013772Y004311D01*
X013768Y004321D01*
X013766Y004332D01*
X013768Y004343D01*
X013772Y004353D01*
X013779Y004361D01*
X013789Y004367D01*
X013799Y004371D01*
X013811Y004371D01*
X013821Y004367D01*
X013831Y004361D01*
X013838Y004353D01*
X013842Y004343D01*
X013844Y004332D01*
X013842Y004321D01*
X013838Y004311D01*
X013831Y004303D01*
X013821Y004297D01*
X013811Y004293D01*
X013799Y004293D01*
X013789Y004297D01*
X013779Y004303D01*
X013772Y004311D01*
X013768Y004321D01*
X013766Y004332D01*
D36*
X012870Y003938D02*
X012870Y003151D01*
X012200Y003151D01*
X010626Y004135D02*
X010626Y007678D01*
X010114Y009219D02*
X014011Y009219D01*
X014011Y002659D01*
X010114Y002659D01*
X010114Y009219D01*
M02*
