G75*
G70*
%OFA0B0*%
%FSLAX24Y24*%
%IPPOS*%
%LPD*%
%AMOC8*
5,1,8,0,0,1.08239X$1,22.5*
%
%ADD10C,0.0160*%
%ADD11OC8,0.0396*%
%ADD12C,0.0120*%
D10*
X002075Y000924D02*
X002119Y001000D01*
X002194Y001282D01*
X002194Y001574D01*
X002119Y001857D01*
X001972Y002110D01*
X001766Y002316D01*
X001513Y002463D01*
X001230Y002538D01*
X000938Y002538D01*
X000656Y002463D01*
X000580Y002419D01*
X000580Y012249D01*
X000656Y012205D01*
X000938Y012129D01*
X001230Y012129D01*
X001513Y012205D01*
X001766Y012351D01*
X001972Y012558D01*
X002119Y012811D01*
X002194Y013093D01*
X002194Y013385D01*
X002119Y013668D01*
X002075Y013744D01*
X025684Y013744D01*
X025641Y013668D01*
X025565Y013385D01*
X025565Y013093D01*
X025641Y012811D01*
X025787Y012558D01*
X025993Y012351D01*
X026246Y012205D01*
X026529Y012129D01*
X026821Y012129D01*
X027103Y012205D01*
X027179Y012249D01*
X027179Y002419D01*
X027103Y002463D01*
X026821Y002538D01*
X026529Y002538D01*
X026246Y002463D01*
X025993Y002316D01*
X025787Y002110D01*
X025641Y001857D01*
X025565Y001574D01*
X025565Y001282D01*
X025641Y001000D01*
X025684Y000924D01*
X002075Y000924D01*
X002139Y001078D02*
X025620Y001078D01*
X025577Y001236D02*
X002182Y001236D01*
X002194Y001395D02*
X025565Y001395D01*
X025565Y001553D02*
X002194Y001553D01*
X002157Y001712D02*
X025602Y001712D01*
X025649Y001870D02*
X002111Y001870D01*
X002019Y002029D02*
X025740Y002029D01*
X025864Y002187D02*
X001895Y002187D01*
X001715Y002346D02*
X026045Y002346D01*
X026403Y002504D02*
X001356Y002504D01*
X000812Y002504D02*
X000580Y002504D01*
X000580Y002663D02*
X027179Y002663D01*
X027179Y002821D02*
X000580Y002821D01*
X000580Y002980D02*
X027179Y002980D01*
X027179Y003138D02*
X000580Y003138D01*
X000580Y003297D02*
X027179Y003297D01*
X027179Y003455D02*
X000580Y003455D01*
X000580Y003614D02*
X027179Y003614D01*
X027179Y003772D02*
X000580Y003772D01*
X000580Y003931D02*
X027179Y003931D01*
X027179Y004089D02*
X000580Y004089D01*
X000580Y004248D02*
X027179Y004248D01*
X027179Y004406D02*
X000580Y004406D01*
X000580Y004565D02*
X027179Y004565D01*
X027179Y004723D02*
X000580Y004723D01*
X000580Y004882D02*
X027179Y004882D01*
X027179Y005040D02*
X000580Y005040D01*
X000580Y005199D02*
X027179Y005199D01*
X027179Y005357D02*
X000580Y005357D01*
X000580Y005516D02*
X027179Y005516D01*
X027179Y005674D02*
X000580Y005674D01*
X000580Y005833D02*
X027179Y005833D01*
X027179Y005991D02*
X000580Y005991D01*
X000580Y006150D02*
X027179Y006150D01*
X027179Y006308D02*
X000580Y006308D01*
X000580Y006467D02*
X027179Y006467D01*
X027179Y006625D02*
X000580Y006625D01*
X000580Y006784D02*
X027179Y006784D01*
X027179Y006942D02*
X000580Y006942D01*
X000580Y007101D02*
X027179Y007101D01*
X027179Y007259D02*
X000580Y007259D01*
X000580Y007418D02*
X027179Y007418D01*
X027179Y007576D02*
X000580Y007576D01*
X000580Y007735D02*
X027179Y007735D01*
X027179Y007893D02*
X000580Y007893D01*
X000580Y008052D02*
X027179Y008052D01*
X027179Y008210D02*
X000580Y008210D01*
X000580Y008369D02*
X027179Y008369D01*
X027179Y008527D02*
X000580Y008527D01*
X000580Y008686D02*
X027179Y008686D01*
X027179Y008844D02*
X000580Y008844D01*
X000580Y009003D02*
X027179Y009003D01*
X027179Y009161D02*
X000580Y009161D01*
X000580Y009320D02*
X027179Y009320D01*
X027179Y009478D02*
X000580Y009478D01*
X000580Y009637D02*
X027179Y009637D01*
X027179Y009795D02*
X000580Y009795D01*
X000580Y009954D02*
X027179Y009954D01*
X027179Y010112D02*
X000580Y010112D01*
X000580Y010271D02*
X027179Y010271D01*
X027179Y010429D02*
X000580Y010429D01*
X000580Y010588D02*
X027179Y010588D01*
X027179Y010746D02*
X000580Y010746D01*
X000580Y010905D02*
X027179Y010905D01*
X027179Y011063D02*
X000580Y011063D01*
X000580Y011222D02*
X027179Y011222D01*
X027179Y011380D02*
X000580Y011380D01*
X000580Y011539D02*
X027179Y011539D01*
X027179Y011697D02*
X000580Y011697D01*
X000580Y011856D02*
X027179Y011856D01*
X027179Y012014D02*
X000580Y012014D01*
X000580Y012173D02*
X000775Y012173D01*
X001393Y012173D02*
X026366Y012173D01*
X026027Y012331D02*
X001732Y012331D01*
X001905Y012490D02*
X025854Y012490D01*
X025734Y012648D02*
X002025Y012648D01*
X002116Y012807D02*
X025643Y012807D01*
X025599Y012965D02*
X002160Y012965D01*
X002194Y013124D02*
X025565Y013124D01*
X025565Y013282D02*
X002194Y013282D01*
X002179Y013441D02*
X025580Y013441D01*
X025622Y013599D02*
X002137Y013599D01*
X009204Y009794D02*
X009573Y009671D01*
X009819Y011394D02*
X009450Y011763D01*
X018512Y007168D02*
X018855Y007168D01*
X019008Y008680D02*
X019416Y008680D01*
X019721Y011377D02*
X020402Y011377D01*
X026984Y012173D02*
X027179Y012173D01*
X017473Y005680D02*
X017131Y005680D01*
X017242Y005692D01*
X017202Y004343D02*
X017545Y004343D01*
X019030Y003036D02*
X019280Y003036D01*
X026947Y002504D02*
X027179Y002504D01*
X007600Y002820D02*
X007100Y002820D01*
X001850Y002734D02*
X001850Y002984D01*
D11*
X001850Y002984D03*
X007100Y002820D03*
X001153Y005938D03*
X009204Y009794D03*
X009450Y011763D03*
X018855Y007168D03*
X019416Y008680D03*
X020402Y011377D03*
X020769Y012993D03*
X024583Y010040D03*
X024583Y008564D03*
X017242Y005692D03*
X017202Y004343D03*
X019280Y003036D03*
D12*
X024583Y008564D02*
X024706Y008564D01*
X024583Y010040D02*
X024583Y010163D01*
X020769Y012993D02*
X020523Y012993D01*
X001153Y006188D02*
X001153Y005938D01*
M02*
