G75*
G70*
%OFA0B0*%
%FSLAX24Y24*%
%IPPOS*%
%LPD*%
%AMOC8*
5,1,8,0,0,1.08239X$1,22.5*
%
%ADD10C,0.1340*%
%ADD11R,0.0513X0.0474*%
%ADD12R,0.0474X0.0513*%
%ADD13R,0.0552X0.0316*%
%ADD14R,0.1025X0.1025*%
%ADD15R,0.0671X0.0592*%
%ADD16C,0.0237*%
%ADD17R,0.0592X0.0671*%
%ADD18R,0.0631X0.0474*%
%ADD19R,0.0474X0.0631*%
%ADD20R,0.0552X0.0552*%
%ADD21R,0.0474X0.0395*%
%ADD22R,0.0297X0.0552*%
%ADD23R,0.1419X0.0474*%
%ADD24R,0.1497X0.0789*%
%ADD25R,0.0395X0.0474*%
%ADD26R,0.0651X0.0474*%
%ADD27R,0.2620X0.1360*%
%ADD28OC8,0.0476*%
D10*
X001084Y001428D03*
X001084Y013239D03*
X026675Y013239D03*
X026675Y001428D03*
D11*
X024332Y003332D03*
X024332Y004001D03*
X015820Y003804D03*
X014948Y003804D03*
X014948Y003135D03*
X015820Y003135D03*
X015781Y005107D03*
X014948Y005107D03*
X014948Y005777D03*
X015781Y005777D03*
X015781Y007001D03*
X014948Y007001D03*
X014948Y007670D03*
X015781Y007670D03*
X015781Y009013D03*
X014948Y009013D03*
X014948Y009682D03*
X015781Y009682D03*
X011565Y011899D03*
X011565Y012568D03*
X007620Y012574D03*
X007620Y011904D03*
X022266Y012414D03*
X022266Y013084D03*
D12*
X021377Y013084D03*
X021377Y012414D03*
X016658Y009682D03*
X016658Y009013D03*
X016658Y007670D03*
X016658Y007001D03*
X018804Y006568D03*
X018804Y005899D03*
X016658Y005777D03*
X016658Y005107D03*
X016697Y003804D03*
X016697Y003135D03*
X008435Y008944D03*
X007765Y008944D03*
X007780Y010699D03*
X008449Y010699D03*
D13*
X019965Y006983D03*
X019965Y006483D03*
X019965Y005983D03*
X019965Y005483D03*
X019965Y004983D03*
X019965Y004483D03*
X019965Y003983D03*
X022170Y003983D03*
X022170Y004483D03*
X022170Y004983D03*
X022170Y005483D03*
X022170Y005983D03*
X022170Y006483D03*
X022170Y006983D03*
D14*
X019835Y010412D03*
X018103Y010412D03*
D15*
X020068Y009107D03*
X020068Y008359D03*
D16*
X022726Y008586D02*
X024204Y008586D01*
X024204Y008348D01*
X022726Y008348D01*
X022726Y008586D01*
X022726Y008584D02*
X024204Y008584D01*
X024926Y008586D02*
X026404Y008586D01*
X026404Y008348D01*
X024926Y008348D01*
X024926Y008586D01*
X024926Y008584D02*
X026404Y008584D01*
X026404Y009586D02*
X024926Y009586D01*
X026404Y009586D02*
X026404Y009348D01*
X024926Y009348D01*
X024926Y009586D01*
X024926Y009584D02*
X026404Y009584D01*
X026404Y010586D02*
X024926Y010586D01*
X026404Y010586D02*
X026404Y010348D01*
X024926Y010348D01*
X024926Y010586D01*
X024926Y010584D02*
X026404Y010584D01*
X024204Y010586D02*
X022726Y010586D01*
X024204Y010586D02*
X024204Y010348D01*
X022726Y010348D01*
X022726Y010586D01*
X022726Y010584D02*
X024204Y010584D01*
X024204Y009586D02*
X022726Y009586D01*
X024204Y009586D02*
X024204Y009348D01*
X022726Y009348D01*
X022726Y009586D01*
X022726Y009584D02*
X024204Y009584D01*
X024204Y007586D02*
X022726Y007586D01*
X024204Y007586D02*
X024204Y007348D01*
X022726Y007348D01*
X022726Y007586D01*
X022726Y007584D02*
X024204Y007584D01*
X024926Y007586D02*
X026404Y007586D01*
X026404Y007348D01*
X024926Y007348D01*
X024926Y007586D01*
X024926Y007584D02*
X026404Y007584D01*
X026404Y006586D02*
X024926Y006586D01*
X026404Y006586D02*
X026404Y006348D01*
X024926Y006348D01*
X024926Y006586D01*
X024926Y006584D02*
X026404Y006584D01*
X024204Y006586D02*
X022726Y006586D01*
X024204Y006586D02*
X024204Y006348D01*
X022726Y006348D01*
X022726Y006586D01*
X022726Y006584D02*
X024204Y006584D01*
D17*
X021442Y003036D03*
X020694Y003036D03*
X008594Y009794D03*
X007846Y009794D03*
X006224Y007320D03*
X005476Y007320D03*
X005476Y006070D03*
X006224Y006070D03*
X006224Y004820D03*
X005476Y004820D03*
X005476Y003570D03*
X006224Y003570D03*
D18*
X006322Y002819D03*
X005378Y002445D03*
X006322Y002071D03*
X004572Y003631D03*
X003628Y004005D03*
X002822Y003820D03*
X001878Y004194D03*
X001878Y004696D03*
X002822Y005070D03*
X003628Y005570D03*
X004572Y005944D03*
X004572Y006446D03*
X003628Y006820D03*
X002822Y006320D03*
X001878Y006694D03*
X001878Y005946D03*
X001878Y005444D03*
X004572Y005196D03*
X004572Y004379D03*
X001878Y003446D03*
X004572Y007194D03*
D19*
X010512Y010908D03*
X010138Y011852D03*
X010886Y011852D03*
D20*
X008013Y007320D03*
X007187Y007320D03*
X007187Y006070D03*
X008013Y006070D03*
X008013Y004820D03*
X007187Y004820D03*
X007187Y003570D03*
X008013Y003570D03*
D21*
X015437Y010283D03*
X016224Y010283D03*
D22*
X017377Y007979D03*
X017751Y007979D03*
X018125Y007979D03*
X018125Y006956D03*
X017377Y006956D03*
X020944Y009471D03*
X021318Y009471D03*
X021692Y009471D03*
X021692Y010495D03*
X020944Y010495D03*
D23*
X013047Y007481D03*
X013047Y006694D03*
X013047Y005907D03*
X013047Y005119D03*
X013047Y004332D03*
D24*
X011216Y003407D03*
X011216Y008407D03*
D25*
X008712Y011861D03*
X008712Y012649D03*
D26*
X002600Y011364D03*
X002029Y010931D03*
X002600Y010380D03*
X002029Y009947D03*
X002600Y009396D03*
X002029Y008963D03*
D27*
X004898Y009204D03*
X004898Y010779D03*
X004898Y012353D03*
D28*
X009450Y011763D03*
X009204Y009794D03*
X001153Y005938D03*
X001850Y002984D03*
X007100Y002820D03*
X017202Y004343D03*
X017242Y005692D03*
X018855Y007168D03*
X019416Y008680D03*
X020402Y011377D03*
X020769Y012993D03*
X024583Y010040D03*
X024583Y008564D03*
X019280Y003036D03*
M02*
