G04 #@! TF.GenerationSoftware,KiCad,Pcbnew,(5.1.5)-3*
G04 #@! TF.CreationDate,2020-02-19T20:56:23+00:00*
G04 #@! TF.ProjectId,Isolator CAN SMT,49736f6c-6174-46f7-9220-43414e20534d,rev?*
G04 #@! TF.SameCoordinates,Original*
G04 #@! TF.FileFunction,Soldermask,Bot*
G04 #@! TF.FilePolarity,Negative*
%FSLAX46Y46*%
G04 Gerber Fmt 4.6, Leading zero omitted, Abs format (unit mm)*
G04 Created by KiCad (PCBNEW (5.1.5)-3) date 2020-02-19 20:56:23*
%MOMM*%
%LPD*%
G04 APERTURE LIST*
%ADD10C,0.100000*%
G04 APERTURE END LIST*
D10*
G36*
X112653512Y-94513927D02*
G01*
X112802812Y-94543624D01*
X112966784Y-94611544D01*
X113114354Y-94710147D01*
X113239853Y-94835646D01*
X113338456Y-94983216D01*
X113406376Y-95147188D01*
X113441000Y-95321259D01*
X113441000Y-95498741D01*
X113406376Y-95672812D01*
X113338456Y-95836784D01*
X113239853Y-95984354D01*
X113114354Y-96109853D01*
X112966784Y-96208456D01*
X112802812Y-96276376D01*
X112653512Y-96306073D01*
X112628742Y-96311000D01*
X112451258Y-96311000D01*
X112426488Y-96306073D01*
X112277188Y-96276376D01*
X112113216Y-96208456D01*
X111965646Y-96109853D01*
X111840147Y-95984354D01*
X111741544Y-95836784D01*
X111673624Y-95672812D01*
X111639000Y-95498741D01*
X111639000Y-95321259D01*
X111673624Y-95147188D01*
X111741544Y-94983216D01*
X111840147Y-94835646D01*
X111965646Y-94710147D01*
X112113216Y-94611544D01*
X112277188Y-94543624D01*
X112426488Y-94513927D01*
X112451258Y-94509000D01*
X112628742Y-94509000D01*
X112653512Y-94513927D01*
G37*
G36*
X110113512Y-94513927D02*
G01*
X110262812Y-94543624D01*
X110426784Y-94611544D01*
X110574354Y-94710147D01*
X110699853Y-94835646D01*
X110798456Y-94983216D01*
X110866376Y-95147188D01*
X110901000Y-95321259D01*
X110901000Y-95498741D01*
X110866376Y-95672812D01*
X110798456Y-95836784D01*
X110699853Y-95984354D01*
X110574354Y-96109853D01*
X110426784Y-96208456D01*
X110262812Y-96276376D01*
X110113512Y-96306073D01*
X110088742Y-96311000D01*
X109911258Y-96311000D01*
X109886488Y-96306073D01*
X109737188Y-96276376D01*
X109573216Y-96208456D01*
X109425646Y-96109853D01*
X109300147Y-95984354D01*
X109201544Y-95836784D01*
X109133624Y-95672812D01*
X109099000Y-95498741D01*
X109099000Y-95321259D01*
X109133624Y-95147188D01*
X109201544Y-94983216D01*
X109300147Y-94835646D01*
X109425646Y-94710147D01*
X109573216Y-94611544D01*
X109737188Y-94543624D01*
X109886488Y-94513927D01*
X109911258Y-94509000D01*
X110088742Y-94509000D01*
X110113512Y-94513927D01*
G37*
G36*
X112653512Y-91973927D02*
G01*
X112802812Y-92003624D01*
X112966784Y-92071544D01*
X113114354Y-92170147D01*
X113239853Y-92295646D01*
X113338456Y-92443216D01*
X113406376Y-92607188D01*
X113441000Y-92781259D01*
X113441000Y-92958741D01*
X113406376Y-93132812D01*
X113338456Y-93296784D01*
X113239853Y-93444354D01*
X113114354Y-93569853D01*
X112966784Y-93668456D01*
X112802812Y-93736376D01*
X112653512Y-93766073D01*
X112628742Y-93771000D01*
X112451258Y-93771000D01*
X112426488Y-93766073D01*
X112277188Y-93736376D01*
X112113216Y-93668456D01*
X111965646Y-93569853D01*
X111840147Y-93444354D01*
X111741544Y-93296784D01*
X111673624Y-93132812D01*
X111639000Y-92958741D01*
X111639000Y-92781259D01*
X111673624Y-92607188D01*
X111741544Y-92443216D01*
X111840147Y-92295646D01*
X111965646Y-92170147D01*
X112113216Y-92071544D01*
X112277188Y-92003624D01*
X112426488Y-91973927D01*
X112451258Y-91969000D01*
X112628742Y-91969000D01*
X112653512Y-91973927D01*
G37*
G36*
X110113512Y-91973927D02*
G01*
X110262812Y-92003624D01*
X110426784Y-92071544D01*
X110574354Y-92170147D01*
X110699853Y-92295646D01*
X110798456Y-92443216D01*
X110866376Y-92607188D01*
X110901000Y-92781259D01*
X110901000Y-92958741D01*
X110866376Y-93132812D01*
X110798456Y-93296784D01*
X110699853Y-93444354D01*
X110574354Y-93569853D01*
X110426784Y-93668456D01*
X110262812Y-93736376D01*
X110113512Y-93766073D01*
X110088742Y-93771000D01*
X109911258Y-93771000D01*
X109886488Y-93766073D01*
X109737188Y-93736376D01*
X109573216Y-93668456D01*
X109425646Y-93569853D01*
X109300147Y-93444354D01*
X109201544Y-93296784D01*
X109133624Y-93132812D01*
X109099000Y-92958741D01*
X109099000Y-92781259D01*
X109133624Y-92607188D01*
X109201544Y-92443216D01*
X109300147Y-92295646D01*
X109425646Y-92170147D01*
X109573216Y-92071544D01*
X109737188Y-92003624D01*
X109886488Y-91973927D01*
X109911258Y-91969000D01*
X110088742Y-91969000D01*
X110113512Y-91973927D01*
G37*
G36*
X112653512Y-89433927D02*
G01*
X112802812Y-89463624D01*
X112966784Y-89531544D01*
X113114354Y-89630147D01*
X113239853Y-89755646D01*
X113338456Y-89903216D01*
X113406376Y-90067188D01*
X113441000Y-90241259D01*
X113441000Y-90418741D01*
X113406376Y-90592812D01*
X113338456Y-90756784D01*
X113239853Y-90904354D01*
X113114354Y-91029853D01*
X112966784Y-91128456D01*
X112802812Y-91196376D01*
X112653512Y-91226073D01*
X112628742Y-91231000D01*
X112451258Y-91231000D01*
X112426488Y-91226073D01*
X112277188Y-91196376D01*
X112113216Y-91128456D01*
X111965646Y-91029853D01*
X111840147Y-90904354D01*
X111741544Y-90756784D01*
X111673624Y-90592812D01*
X111639000Y-90418741D01*
X111639000Y-90241259D01*
X111673624Y-90067188D01*
X111741544Y-89903216D01*
X111840147Y-89755646D01*
X111965646Y-89630147D01*
X112113216Y-89531544D01*
X112277188Y-89463624D01*
X112426488Y-89433927D01*
X112451258Y-89429000D01*
X112628742Y-89429000D01*
X112653512Y-89433927D01*
G37*
G36*
X110113512Y-89433927D02*
G01*
X110262812Y-89463624D01*
X110426784Y-89531544D01*
X110574354Y-89630147D01*
X110699853Y-89755646D01*
X110798456Y-89903216D01*
X110866376Y-90067188D01*
X110901000Y-90241259D01*
X110901000Y-90418741D01*
X110866376Y-90592812D01*
X110798456Y-90756784D01*
X110699853Y-90904354D01*
X110574354Y-91029853D01*
X110426784Y-91128456D01*
X110262812Y-91196376D01*
X110113512Y-91226073D01*
X110088742Y-91231000D01*
X109911258Y-91231000D01*
X109886488Y-91226073D01*
X109737188Y-91196376D01*
X109573216Y-91128456D01*
X109425646Y-91029853D01*
X109300147Y-90904354D01*
X109201544Y-90756784D01*
X109133624Y-90592812D01*
X109099000Y-90418741D01*
X109099000Y-90241259D01*
X109133624Y-90067188D01*
X109201544Y-89903216D01*
X109300147Y-89755646D01*
X109425646Y-89630147D01*
X109573216Y-89531544D01*
X109737188Y-89463624D01*
X109886488Y-89433927D01*
X109911258Y-89429000D01*
X110088742Y-89429000D01*
X110113512Y-89433927D01*
G37*
G36*
X176363512Y-88393927D02*
G01*
X176512812Y-88423624D01*
X176676784Y-88491544D01*
X176824354Y-88590147D01*
X176949853Y-88715646D01*
X177048456Y-88863216D01*
X177116376Y-89027188D01*
X177151000Y-89201259D01*
X177151000Y-89378741D01*
X177116376Y-89552812D01*
X177048456Y-89716784D01*
X176949853Y-89864354D01*
X176824354Y-89989853D01*
X176676784Y-90088456D01*
X176512812Y-90156376D01*
X176363512Y-90186073D01*
X176338742Y-90191000D01*
X176161258Y-90191000D01*
X176136488Y-90186073D01*
X175987188Y-90156376D01*
X175823216Y-90088456D01*
X175675646Y-89989853D01*
X175550147Y-89864354D01*
X175451544Y-89716784D01*
X175383624Y-89552812D01*
X175349000Y-89378741D01*
X175349000Y-89201259D01*
X175383624Y-89027188D01*
X175451544Y-88863216D01*
X175550147Y-88715646D01*
X175675646Y-88590147D01*
X175823216Y-88491544D01*
X175987188Y-88423624D01*
X176136488Y-88393927D01*
X176161258Y-88389000D01*
X176338742Y-88389000D01*
X176363512Y-88393927D01*
G37*
G36*
X112653512Y-86893927D02*
G01*
X112802812Y-86923624D01*
X112966784Y-86991544D01*
X113114354Y-87090147D01*
X113239853Y-87215646D01*
X113338456Y-87363216D01*
X113406376Y-87527188D01*
X113441000Y-87701259D01*
X113441000Y-87878741D01*
X113406376Y-88052812D01*
X113338456Y-88216784D01*
X113239853Y-88364354D01*
X113114354Y-88489853D01*
X112966784Y-88588456D01*
X112802812Y-88656376D01*
X112653512Y-88686073D01*
X112628742Y-88691000D01*
X112451258Y-88691000D01*
X112426488Y-88686073D01*
X112277188Y-88656376D01*
X112113216Y-88588456D01*
X111965646Y-88489853D01*
X111840147Y-88364354D01*
X111741544Y-88216784D01*
X111673624Y-88052812D01*
X111639000Y-87878741D01*
X111639000Y-87701259D01*
X111673624Y-87527188D01*
X111741544Y-87363216D01*
X111840147Y-87215646D01*
X111965646Y-87090147D01*
X112113216Y-86991544D01*
X112277188Y-86923624D01*
X112426488Y-86893927D01*
X112451258Y-86889000D01*
X112628742Y-86889000D01*
X112653512Y-86893927D01*
G37*
G36*
X110113512Y-86893927D02*
G01*
X110262812Y-86923624D01*
X110426784Y-86991544D01*
X110574354Y-87090147D01*
X110699853Y-87215646D01*
X110798456Y-87363216D01*
X110866376Y-87527188D01*
X110901000Y-87701259D01*
X110901000Y-87878741D01*
X110866376Y-88052812D01*
X110798456Y-88216784D01*
X110699853Y-88364354D01*
X110574354Y-88489853D01*
X110426784Y-88588456D01*
X110262812Y-88656376D01*
X110113512Y-88686073D01*
X110088742Y-88691000D01*
X109911258Y-88691000D01*
X109886488Y-88686073D01*
X109737188Y-88656376D01*
X109573216Y-88588456D01*
X109425646Y-88489853D01*
X109300147Y-88364354D01*
X109201544Y-88216784D01*
X109133624Y-88052812D01*
X109099000Y-87878741D01*
X109099000Y-87701259D01*
X109133624Y-87527188D01*
X109201544Y-87363216D01*
X109300147Y-87215646D01*
X109425646Y-87090147D01*
X109573216Y-86991544D01*
X109737188Y-86923624D01*
X109886488Y-86893927D01*
X109911258Y-86889000D01*
X110088742Y-86889000D01*
X110113512Y-86893927D01*
G37*
G36*
X177151000Y-87651000D02*
G01*
X175349000Y-87651000D01*
X175349000Y-85849000D01*
X177151000Y-85849000D01*
X177151000Y-87651000D01*
G37*
G36*
X112653512Y-84353927D02*
G01*
X112802812Y-84383624D01*
X112966784Y-84451544D01*
X113114354Y-84550147D01*
X113239853Y-84675646D01*
X113338456Y-84823216D01*
X113406376Y-84987188D01*
X113441000Y-85161259D01*
X113441000Y-85338741D01*
X113406376Y-85512812D01*
X113338456Y-85676784D01*
X113239853Y-85824354D01*
X113114354Y-85949853D01*
X112966784Y-86048456D01*
X112802812Y-86116376D01*
X112653512Y-86146073D01*
X112628742Y-86151000D01*
X112451258Y-86151000D01*
X112426488Y-86146073D01*
X112277188Y-86116376D01*
X112113216Y-86048456D01*
X111965646Y-85949853D01*
X111840147Y-85824354D01*
X111741544Y-85676784D01*
X111673624Y-85512812D01*
X111639000Y-85338741D01*
X111639000Y-85161259D01*
X111673624Y-84987188D01*
X111741544Y-84823216D01*
X111840147Y-84675646D01*
X111965646Y-84550147D01*
X112113216Y-84451544D01*
X112277188Y-84383624D01*
X112426488Y-84353927D01*
X112451258Y-84349000D01*
X112628742Y-84349000D01*
X112653512Y-84353927D01*
G37*
G36*
X110901000Y-86151000D02*
G01*
X109099000Y-86151000D01*
X109099000Y-84349000D01*
X110901000Y-84349000D01*
X110901000Y-86151000D01*
G37*
G36*
X104401000Y-78651000D02*
G01*
X102599000Y-78651000D01*
X102599000Y-76849000D01*
X104401000Y-76849000D01*
X104401000Y-78651000D01*
G37*
G36*
X176113512Y-76143927D02*
G01*
X176262812Y-76173624D01*
X176426784Y-76241544D01*
X176574354Y-76340147D01*
X176699853Y-76465646D01*
X176798456Y-76613216D01*
X176866376Y-76777188D01*
X176901000Y-76951259D01*
X176901000Y-77128741D01*
X176866376Y-77302812D01*
X176798456Y-77466784D01*
X176699853Y-77614354D01*
X176574354Y-77739853D01*
X176426784Y-77838456D01*
X176262812Y-77906376D01*
X176113512Y-77936073D01*
X176088742Y-77941000D01*
X175911258Y-77941000D01*
X175886488Y-77936073D01*
X175737188Y-77906376D01*
X175573216Y-77838456D01*
X175425646Y-77739853D01*
X175300147Y-77614354D01*
X175201544Y-77466784D01*
X175133624Y-77302812D01*
X175099000Y-77128741D01*
X175099000Y-76951259D01*
X175133624Y-76777188D01*
X175201544Y-76613216D01*
X175300147Y-76465646D01*
X175425646Y-76340147D01*
X175573216Y-76241544D01*
X175737188Y-76173624D01*
X175886488Y-76143927D01*
X175911258Y-76139000D01*
X176088742Y-76139000D01*
X176113512Y-76143927D01*
G37*
G36*
X103613512Y-74313927D02*
G01*
X103762812Y-74343624D01*
X103926784Y-74411544D01*
X104074354Y-74510147D01*
X104199853Y-74635646D01*
X104298456Y-74783216D01*
X104366376Y-74947188D01*
X104401000Y-75121259D01*
X104401000Y-75298741D01*
X104366376Y-75472812D01*
X104298456Y-75636784D01*
X104199853Y-75784354D01*
X104074354Y-75909853D01*
X103926784Y-76008456D01*
X103762812Y-76076376D01*
X103613512Y-76106073D01*
X103588742Y-76111000D01*
X103411258Y-76111000D01*
X103386488Y-76106073D01*
X103237188Y-76076376D01*
X103073216Y-76008456D01*
X102925646Y-75909853D01*
X102800147Y-75784354D01*
X102701544Y-75636784D01*
X102633624Y-75472812D01*
X102599000Y-75298741D01*
X102599000Y-75121259D01*
X102633624Y-74947188D01*
X102701544Y-74783216D01*
X102800147Y-74635646D01*
X102925646Y-74510147D01*
X103073216Y-74411544D01*
X103237188Y-74343624D01*
X103386488Y-74313927D01*
X103411258Y-74309000D01*
X103588742Y-74309000D01*
X103613512Y-74313927D01*
G37*
G36*
X176901000Y-75401000D02*
G01*
X175099000Y-75401000D01*
X175099000Y-73599000D01*
X176901000Y-73599000D01*
X176901000Y-75401000D01*
G37*
G36*
X103613512Y-71773927D02*
G01*
X103762812Y-71803624D01*
X103926784Y-71871544D01*
X104074354Y-71970147D01*
X104199853Y-72095646D01*
X104298456Y-72243216D01*
X104366376Y-72407188D01*
X104401000Y-72581259D01*
X104401000Y-72758741D01*
X104366376Y-72932812D01*
X104298456Y-73096784D01*
X104199853Y-73244354D01*
X104074354Y-73369853D01*
X103926784Y-73468456D01*
X103762812Y-73536376D01*
X103613512Y-73566073D01*
X103588742Y-73571000D01*
X103411258Y-73571000D01*
X103386488Y-73566073D01*
X103237188Y-73536376D01*
X103073216Y-73468456D01*
X102925646Y-73369853D01*
X102800147Y-73244354D01*
X102701544Y-73096784D01*
X102633624Y-72932812D01*
X102599000Y-72758741D01*
X102599000Y-72581259D01*
X102633624Y-72407188D01*
X102701544Y-72243216D01*
X102800147Y-72095646D01*
X102925646Y-71970147D01*
X103073216Y-71871544D01*
X103237188Y-71803624D01*
X103386488Y-71773927D01*
X103411258Y-71769000D01*
X103588742Y-71769000D01*
X103613512Y-71773927D01*
G37*
G36*
X103613512Y-69233927D02*
G01*
X103762812Y-69263624D01*
X103926784Y-69331544D01*
X104074354Y-69430147D01*
X104199853Y-69555646D01*
X104298456Y-69703216D01*
X104366376Y-69867188D01*
X104401000Y-70041259D01*
X104401000Y-70218741D01*
X104366376Y-70392812D01*
X104298456Y-70556784D01*
X104199853Y-70704354D01*
X104074354Y-70829853D01*
X103926784Y-70928456D01*
X103762812Y-70996376D01*
X103613512Y-71026073D01*
X103588742Y-71031000D01*
X103411258Y-71031000D01*
X103386488Y-71026073D01*
X103237188Y-70996376D01*
X103073216Y-70928456D01*
X102925646Y-70829853D01*
X102800147Y-70704354D01*
X102701544Y-70556784D01*
X102633624Y-70392812D01*
X102599000Y-70218741D01*
X102599000Y-70041259D01*
X102633624Y-69867188D01*
X102701544Y-69703216D01*
X102800147Y-69555646D01*
X102925646Y-69430147D01*
X103073216Y-69331544D01*
X103237188Y-69263624D01*
X103386488Y-69233927D01*
X103411258Y-69229000D01*
X103588742Y-69229000D01*
X103613512Y-69233927D01*
G37*
G36*
X104406000Y-66814000D02*
G01*
X102604000Y-66814000D01*
X102604000Y-65012000D01*
X104406000Y-65012000D01*
X104406000Y-66814000D01*
G37*
G36*
X103618512Y-62476927D02*
G01*
X103767812Y-62506624D01*
X103931784Y-62574544D01*
X104079354Y-62673147D01*
X104204853Y-62798646D01*
X104303456Y-62946216D01*
X104371376Y-63110188D01*
X104406000Y-63284259D01*
X104406000Y-63461741D01*
X104371376Y-63635812D01*
X104303456Y-63799784D01*
X104204853Y-63947354D01*
X104079354Y-64072853D01*
X103931784Y-64171456D01*
X103767812Y-64239376D01*
X103618512Y-64269073D01*
X103593742Y-64274000D01*
X103416258Y-64274000D01*
X103391488Y-64269073D01*
X103242188Y-64239376D01*
X103078216Y-64171456D01*
X102930646Y-64072853D01*
X102805147Y-63947354D01*
X102706544Y-63799784D01*
X102638624Y-63635812D01*
X102604000Y-63461741D01*
X102604000Y-63284259D01*
X102638624Y-63110188D01*
X102706544Y-62946216D01*
X102805147Y-62798646D01*
X102930646Y-62673147D01*
X103078216Y-62574544D01*
X103242188Y-62506624D01*
X103391488Y-62476927D01*
X103416258Y-62472000D01*
X103593742Y-62472000D01*
X103618512Y-62476927D01*
G37*
G36*
X171995987Y-59803496D02*
G01*
X172232753Y-59901568D01*
X172232755Y-59901569D01*
X172278298Y-59932000D01*
X172445839Y-60043947D01*
X172627053Y-60225161D01*
X172769432Y-60438247D01*
X172867504Y-60675013D01*
X172917500Y-60926361D01*
X172917500Y-61182639D01*
X172867504Y-61433987D01*
X172826552Y-61532853D01*
X172769431Y-61670755D01*
X172627053Y-61883839D01*
X172445839Y-62065053D01*
X172232755Y-62207431D01*
X172232754Y-62207432D01*
X172232753Y-62207432D01*
X171995987Y-62305504D01*
X171744639Y-62355500D01*
X171488361Y-62355500D01*
X171237013Y-62305504D01*
X171000247Y-62207432D01*
X171000246Y-62207432D01*
X171000245Y-62207431D01*
X170787161Y-62065053D01*
X170605947Y-61883839D01*
X170463569Y-61670755D01*
X170406448Y-61532853D01*
X170365496Y-61433987D01*
X170315500Y-61182639D01*
X170315500Y-60926361D01*
X170365496Y-60675013D01*
X170463568Y-60438247D01*
X170605947Y-60225161D01*
X170787161Y-60043947D01*
X170954702Y-59932000D01*
X171000245Y-59901569D01*
X171000247Y-59901568D01*
X171237013Y-59803496D01*
X171488361Y-59753500D01*
X171744639Y-59753500D01*
X171995987Y-59803496D01*
G37*
G36*
X159795987Y-59803496D02*
G01*
X160032753Y-59901568D01*
X160032755Y-59901569D01*
X160078298Y-59932000D01*
X160245839Y-60043947D01*
X160427053Y-60225161D01*
X160569432Y-60438247D01*
X160667504Y-60675013D01*
X160717500Y-60926361D01*
X160717500Y-61182639D01*
X160667504Y-61433987D01*
X160626552Y-61532853D01*
X160569431Y-61670755D01*
X160427053Y-61883839D01*
X160245839Y-62065053D01*
X160032755Y-62207431D01*
X160032754Y-62207432D01*
X160032753Y-62207432D01*
X159795987Y-62305504D01*
X159544639Y-62355500D01*
X159288361Y-62355500D01*
X159037013Y-62305504D01*
X158800247Y-62207432D01*
X158800246Y-62207432D01*
X158800245Y-62207431D01*
X158587161Y-62065053D01*
X158405947Y-61883839D01*
X158263569Y-61670755D01*
X158206448Y-61532853D01*
X158165496Y-61433987D01*
X158115500Y-61182639D01*
X158115500Y-60926361D01*
X158165496Y-60675013D01*
X158263568Y-60438247D01*
X158405947Y-60225161D01*
X158587161Y-60043947D01*
X158754702Y-59932000D01*
X158800245Y-59901569D01*
X158800247Y-59901568D01*
X159037013Y-59803496D01*
X159288361Y-59753500D01*
X159544639Y-59753500D01*
X159795987Y-59803496D01*
G37*
G36*
X103618512Y-59936927D02*
G01*
X103767812Y-59966624D01*
X103931784Y-60034544D01*
X104079354Y-60133147D01*
X104204853Y-60258646D01*
X104303456Y-60406216D01*
X104371376Y-60570188D01*
X104406000Y-60744259D01*
X104406000Y-60921741D01*
X104371376Y-61095812D01*
X104303456Y-61259784D01*
X104204853Y-61407354D01*
X104079354Y-61532853D01*
X103931784Y-61631456D01*
X103767812Y-61699376D01*
X103618512Y-61729073D01*
X103593742Y-61734000D01*
X103416258Y-61734000D01*
X103391488Y-61729073D01*
X103242188Y-61699376D01*
X103078216Y-61631456D01*
X102930646Y-61532853D01*
X102805147Y-61407354D01*
X102706544Y-61259784D01*
X102638624Y-61095812D01*
X102604000Y-60921741D01*
X102604000Y-60744259D01*
X102638624Y-60570188D01*
X102706544Y-60406216D01*
X102805147Y-60258646D01*
X102930646Y-60133147D01*
X103078216Y-60034544D01*
X103242188Y-59966624D01*
X103391488Y-59936927D01*
X103416258Y-59932000D01*
X103593742Y-59932000D01*
X103618512Y-59936927D01*
G37*
G36*
X103618512Y-57396927D02*
G01*
X103767812Y-57426624D01*
X103931784Y-57494544D01*
X104079354Y-57593147D01*
X104204853Y-57718646D01*
X104303456Y-57866216D01*
X104371376Y-58030188D01*
X104406000Y-58204259D01*
X104406000Y-58381741D01*
X104371376Y-58555812D01*
X104303456Y-58719784D01*
X104204853Y-58867354D01*
X104079354Y-58992853D01*
X103931784Y-59091456D01*
X103767812Y-59159376D01*
X103618512Y-59189073D01*
X103593742Y-59194000D01*
X103416258Y-59194000D01*
X103391488Y-59189073D01*
X103242188Y-59159376D01*
X103078216Y-59091456D01*
X102930646Y-58992853D01*
X102805147Y-58867354D01*
X102706544Y-58719784D01*
X102638624Y-58555812D01*
X102604000Y-58381741D01*
X102604000Y-58204259D01*
X102638624Y-58030188D01*
X102706544Y-57866216D01*
X102805147Y-57718646D01*
X102930646Y-57593147D01*
X103078216Y-57494544D01*
X103242188Y-57426624D01*
X103391488Y-57396927D01*
X103416258Y-57392000D01*
X103593742Y-57392000D01*
X103618512Y-57396927D01*
G37*
G36*
X103618512Y-54856927D02*
G01*
X103767812Y-54886624D01*
X103931784Y-54954544D01*
X104079354Y-55053147D01*
X104204853Y-55178646D01*
X104303456Y-55326216D01*
X104371376Y-55490188D01*
X104406000Y-55664259D01*
X104406000Y-55841741D01*
X104371376Y-56015812D01*
X104303456Y-56179784D01*
X104204853Y-56327354D01*
X104079354Y-56452853D01*
X103931784Y-56551456D01*
X103767812Y-56619376D01*
X103618512Y-56649073D01*
X103593742Y-56654000D01*
X103416258Y-56654000D01*
X103391488Y-56649073D01*
X103242188Y-56619376D01*
X103078216Y-56551456D01*
X102930646Y-56452853D01*
X102805147Y-56327354D01*
X102706544Y-56179784D01*
X102638624Y-56015812D01*
X102604000Y-55841741D01*
X102604000Y-55664259D01*
X102638624Y-55490188D01*
X102706544Y-55326216D01*
X102805147Y-55178646D01*
X102930646Y-55053147D01*
X103078216Y-54954544D01*
X103242188Y-54886624D01*
X103391488Y-54856927D01*
X103416258Y-54852000D01*
X103593742Y-54852000D01*
X103618512Y-54856927D01*
G37*
G36*
X158717500Y-56355500D02*
G01*
X156115500Y-56355500D01*
X156115500Y-53753500D01*
X158717500Y-53753500D01*
X158717500Y-56355500D01*
G37*
G36*
X103618512Y-52316927D02*
G01*
X103767812Y-52346624D01*
X103931784Y-52414544D01*
X104079354Y-52513147D01*
X104204853Y-52638646D01*
X104303456Y-52786216D01*
X104371376Y-52950188D01*
X104406000Y-53124259D01*
X104406000Y-53301741D01*
X104371376Y-53475812D01*
X104303456Y-53639784D01*
X104204853Y-53787354D01*
X104079354Y-53912853D01*
X103931784Y-54011456D01*
X103767812Y-54079376D01*
X103618512Y-54109073D01*
X103593742Y-54114000D01*
X103416258Y-54114000D01*
X103391488Y-54109073D01*
X103242188Y-54079376D01*
X103078216Y-54011456D01*
X102930646Y-53912853D01*
X102805147Y-53787354D01*
X102706544Y-53639784D01*
X102638624Y-53475812D01*
X102604000Y-53301741D01*
X102604000Y-53124259D01*
X102638624Y-52950188D01*
X102706544Y-52786216D01*
X102805147Y-52638646D01*
X102930646Y-52513147D01*
X103078216Y-52414544D01*
X103242188Y-52346624D01*
X103391488Y-52316927D01*
X103416258Y-52312000D01*
X103593742Y-52312000D01*
X103618512Y-52316927D01*
G37*
G36*
X103618512Y-49776927D02*
G01*
X103767812Y-49806624D01*
X103931784Y-49874544D01*
X104079354Y-49973147D01*
X104204853Y-50098646D01*
X104303456Y-50246216D01*
X104371376Y-50410188D01*
X104406000Y-50584259D01*
X104406000Y-50761741D01*
X104371376Y-50935812D01*
X104303456Y-51099784D01*
X104204853Y-51247354D01*
X104079354Y-51372853D01*
X103931784Y-51471456D01*
X103767812Y-51539376D01*
X103618512Y-51569073D01*
X103593742Y-51574000D01*
X103416258Y-51574000D01*
X103391488Y-51569073D01*
X103242188Y-51539376D01*
X103078216Y-51471456D01*
X102930646Y-51372853D01*
X102805147Y-51247354D01*
X102706544Y-51099784D01*
X102638624Y-50935812D01*
X102604000Y-50761741D01*
X102604000Y-50584259D01*
X102638624Y-50410188D01*
X102706544Y-50246216D01*
X102805147Y-50098646D01*
X102930646Y-49973147D01*
X103078216Y-49874544D01*
X103242188Y-49806624D01*
X103391488Y-49776927D01*
X103416258Y-49772000D01*
X103593742Y-49772000D01*
X103618512Y-49776927D01*
G37*
G36*
X171995987Y-47803496D02*
G01*
X172232753Y-47901568D01*
X172232755Y-47901569D01*
X172445839Y-48043947D01*
X172627053Y-48225161D01*
X172741078Y-48395811D01*
X172769432Y-48438247D01*
X172867504Y-48675013D01*
X172917500Y-48926361D01*
X172917500Y-49182639D01*
X172867504Y-49433987D01*
X172769432Y-49670753D01*
X172769431Y-49670755D01*
X172627053Y-49883839D01*
X172445839Y-50065053D01*
X172232755Y-50207431D01*
X172232754Y-50207432D01*
X172232753Y-50207432D01*
X171995987Y-50305504D01*
X171744639Y-50355500D01*
X171488361Y-50355500D01*
X171237013Y-50305504D01*
X171000247Y-50207432D01*
X171000246Y-50207432D01*
X171000245Y-50207431D01*
X170787161Y-50065053D01*
X170605947Y-49883839D01*
X170463569Y-49670755D01*
X170463568Y-49670753D01*
X170365496Y-49433987D01*
X170315500Y-49182639D01*
X170315500Y-48926361D01*
X170365496Y-48675013D01*
X170463568Y-48438247D01*
X170491923Y-48395811D01*
X170605947Y-48225161D01*
X170787161Y-48043947D01*
X171000245Y-47901569D01*
X171000247Y-47901568D01*
X171237013Y-47803496D01*
X171488361Y-47753500D01*
X171744639Y-47753500D01*
X171995987Y-47803496D01*
G37*
G36*
X159795987Y-47803496D02*
G01*
X160032753Y-47901568D01*
X160032755Y-47901569D01*
X160245839Y-48043947D01*
X160427053Y-48225161D01*
X160541078Y-48395811D01*
X160569432Y-48438247D01*
X160667504Y-48675013D01*
X160717500Y-48926361D01*
X160717500Y-49182639D01*
X160667504Y-49433987D01*
X160569432Y-49670753D01*
X160569431Y-49670755D01*
X160427053Y-49883839D01*
X160245839Y-50065053D01*
X160032755Y-50207431D01*
X160032754Y-50207432D01*
X160032753Y-50207432D01*
X159795987Y-50305504D01*
X159544639Y-50355500D01*
X159288361Y-50355500D01*
X159037013Y-50305504D01*
X158800247Y-50207432D01*
X158800246Y-50207432D01*
X158800245Y-50207431D01*
X158587161Y-50065053D01*
X158405947Y-49883839D01*
X158263569Y-49670755D01*
X158263568Y-49670753D01*
X158165496Y-49433987D01*
X158115500Y-49182639D01*
X158115500Y-48926361D01*
X158165496Y-48675013D01*
X158263568Y-48438247D01*
X158291923Y-48395811D01*
X158405947Y-48225161D01*
X158587161Y-48043947D01*
X158800245Y-47901569D01*
X158800247Y-47901568D01*
X159037013Y-47803496D01*
X159288361Y-47753500D01*
X159544639Y-47753500D01*
X159795987Y-47803496D01*
G37*
G36*
X103618512Y-47236927D02*
G01*
X103767812Y-47266624D01*
X103931784Y-47334544D01*
X104079354Y-47433147D01*
X104204853Y-47558646D01*
X104303456Y-47706216D01*
X104371376Y-47870188D01*
X104406000Y-48044259D01*
X104406000Y-48221741D01*
X104371376Y-48395812D01*
X104303456Y-48559784D01*
X104204853Y-48707354D01*
X104079354Y-48832853D01*
X103931784Y-48931456D01*
X103767812Y-48999376D01*
X103618512Y-49029073D01*
X103593742Y-49034000D01*
X103416258Y-49034000D01*
X103391488Y-49029073D01*
X103242188Y-48999376D01*
X103078216Y-48931456D01*
X102930646Y-48832853D01*
X102805147Y-48707354D01*
X102706544Y-48559784D01*
X102638624Y-48395812D01*
X102604000Y-48221741D01*
X102604000Y-48044259D01*
X102638624Y-47870188D01*
X102706544Y-47706216D01*
X102805147Y-47558646D01*
X102930646Y-47433147D01*
X103078216Y-47334544D01*
X103242188Y-47266624D01*
X103391488Y-47236927D01*
X103416258Y-47232000D01*
X103593742Y-47232000D01*
X103618512Y-47236927D01*
G37*
G36*
X148030500Y-44398500D02*
G01*
X146228500Y-44398500D01*
X146228500Y-42596500D01*
X148030500Y-42596500D01*
X148030500Y-44398500D01*
G37*
G36*
X132819769Y-42599688D02*
G01*
X132977812Y-42631124D01*
X133141784Y-42699044D01*
X133289354Y-42797647D01*
X133414853Y-42923146D01*
X133513456Y-43070716D01*
X133581376Y-43234688D01*
X133616000Y-43408759D01*
X133616000Y-43586241D01*
X133581376Y-43760312D01*
X133513456Y-43924284D01*
X133414853Y-44071854D01*
X133289354Y-44197353D01*
X133141784Y-44295956D01*
X132977812Y-44363876D01*
X132828512Y-44393573D01*
X132803742Y-44398500D01*
X132626258Y-44398500D01*
X132601488Y-44393573D01*
X132452188Y-44363876D01*
X132288216Y-44295956D01*
X132140646Y-44197353D01*
X132015147Y-44071854D01*
X131916544Y-43924284D01*
X131848624Y-43760312D01*
X131814000Y-43586241D01*
X131814000Y-43408759D01*
X131848624Y-43234688D01*
X131916544Y-43070716D01*
X132015147Y-42923146D01*
X132140646Y-42797647D01*
X132288216Y-42699044D01*
X132452188Y-42631124D01*
X132610231Y-42599688D01*
X132626258Y-42596500D01*
X132803742Y-42596500D01*
X132819769Y-42599688D01*
G37*
G36*
X135359769Y-42599688D02*
G01*
X135517812Y-42631124D01*
X135681784Y-42699044D01*
X135829354Y-42797647D01*
X135954853Y-42923146D01*
X136053456Y-43070716D01*
X136121376Y-43234688D01*
X136156000Y-43408759D01*
X136156000Y-43586241D01*
X136121376Y-43760312D01*
X136053456Y-43924284D01*
X135954853Y-44071854D01*
X135829354Y-44197353D01*
X135681784Y-44295956D01*
X135517812Y-44363876D01*
X135368512Y-44393573D01*
X135343742Y-44398500D01*
X135166258Y-44398500D01*
X135141488Y-44393573D01*
X134992188Y-44363876D01*
X134828216Y-44295956D01*
X134680646Y-44197353D01*
X134555147Y-44071854D01*
X134456544Y-43924284D01*
X134388624Y-43760312D01*
X134354000Y-43586241D01*
X134354000Y-43408759D01*
X134388624Y-43234688D01*
X134456544Y-43070716D01*
X134555147Y-42923146D01*
X134680646Y-42797647D01*
X134828216Y-42699044D01*
X134992188Y-42631124D01*
X135150231Y-42599688D01*
X135166258Y-42596500D01*
X135343742Y-42596500D01*
X135359769Y-42599688D01*
G37*
G36*
X141236000Y-44398500D02*
G01*
X139434000Y-44398500D01*
X139434000Y-42596500D01*
X141236000Y-42596500D01*
X141236000Y-44398500D01*
G37*
G36*
X144694269Y-42599688D02*
G01*
X144852312Y-42631124D01*
X145016284Y-42699044D01*
X145163854Y-42797647D01*
X145289353Y-42923146D01*
X145387956Y-43070716D01*
X145455876Y-43234688D01*
X145490500Y-43408759D01*
X145490500Y-43586241D01*
X145455876Y-43760312D01*
X145387956Y-43924284D01*
X145289353Y-44071854D01*
X145163854Y-44197353D01*
X145016284Y-44295956D01*
X144852312Y-44363876D01*
X144703012Y-44393573D01*
X144678242Y-44398500D01*
X144500758Y-44398500D01*
X144475988Y-44393573D01*
X144326688Y-44363876D01*
X144162716Y-44295956D01*
X144015146Y-44197353D01*
X143889647Y-44071854D01*
X143791044Y-43924284D01*
X143723124Y-43760312D01*
X143688500Y-43586241D01*
X143688500Y-43408759D01*
X143723124Y-43234688D01*
X143791044Y-43070716D01*
X143889647Y-42923146D01*
X144015146Y-42797647D01*
X144162716Y-42699044D01*
X144326688Y-42631124D01*
X144484731Y-42599688D01*
X144500758Y-42596500D01*
X144678242Y-42596500D01*
X144694269Y-42599688D01*
G37*
G36*
X137899769Y-42599688D02*
G01*
X138057812Y-42631124D01*
X138221784Y-42699044D01*
X138369354Y-42797647D01*
X138494853Y-42923146D01*
X138593456Y-43070716D01*
X138661376Y-43234688D01*
X138696000Y-43408759D01*
X138696000Y-43586241D01*
X138661376Y-43760312D01*
X138593456Y-43924284D01*
X138494853Y-44071854D01*
X138369354Y-44197353D01*
X138221784Y-44295956D01*
X138057812Y-44363876D01*
X137908512Y-44393573D01*
X137883742Y-44398500D01*
X137706258Y-44398500D01*
X137681488Y-44393573D01*
X137532188Y-44363876D01*
X137368216Y-44295956D01*
X137220646Y-44197353D01*
X137095147Y-44071854D01*
X136996544Y-43924284D01*
X136928624Y-43760312D01*
X136894000Y-43586241D01*
X136894000Y-43408759D01*
X136928624Y-43234688D01*
X136996544Y-43070716D01*
X137095147Y-42923146D01*
X137220646Y-42797647D01*
X137368216Y-42699044D01*
X137532188Y-42631124D01*
X137690231Y-42599688D01*
X137706258Y-42596500D01*
X137883742Y-42596500D01*
X137899769Y-42599688D01*
G37*
G36*
X111010000Y-43954000D02*
G01*
X109208000Y-43954000D01*
X109208000Y-42152000D01*
X111010000Y-42152000D01*
X111010000Y-43954000D01*
G37*
G36*
X112762512Y-42156927D02*
G01*
X112911812Y-42186624D01*
X113075784Y-42254544D01*
X113223354Y-42353147D01*
X113348853Y-42478646D01*
X113447456Y-42626216D01*
X113515376Y-42790188D01*
X113550000Y-42964259D01*
X113550000Y-43141741D01*
X113515376Y-43315812D01*
X113447456Y-43479784D01*
X113348853Y-43627354D01*
X113223354Y-43752853D01*
X113075784Y-43851456D01*
X112911812Y-43919376D01*
X112762512Y-43949073D01*
X112737742Y-43954000D01*
X112560258Y-43954000D01*
X112535488Y-43949073D01*
X112386188Y-43919376D01*
X112222216Y-43851456D01*
X112074646Y-43752853D01*
X111949147Y-43627354D01*
X111850544Y-43479784D01*
X111782624Y-43315812D01*
X111748000Y-43141741D01*
X111748000Y-42964259D01*
X111782624Y-42790188D01*
X111850544Y-42626216D01*
X111949147Y-42478646D01*
X112074646Y-42353147D01*
X112222216Y-42254544D01*
X112386188Y-42186624D01*
X112535488Y-42156927D01*
X112560258Y-42152000D01*
X112737742Y-42152000D01*
X112762512Y-42156927D01*
G37*
G36*
X115302512Y-42156927D02*
G01*
X115451812Y-42186624D01*
X115615784Y-42254544D01*
X115763354Y-42353147D01*
X115888853Y-42478646D01*
X115987456Y-42626216D01*
X116055376Y-42790188D01*
X116090000Y-42964259D01*
X116090000Y-43141741D01*
X116055376Y-43315812D01*
X115987456Y-43479784D01*
X115888853Y-43627354D01*
X115763354Y-43752853D01*
X115615784Y-43851456D01*
X115451812Y-43919376D01*
X115302512Y-43949073D01*
X115277742Y-43954000D01*
X115100258Y-43954000D01*
X115075488Y-43949073D01*
X114926188Y-43919376D01*
X114762216Y-43851456D01*
X114614646Y-43752853D01*
X114489147Y-43627354D01*
X114390544Y-43479784D01*
X114322624Y-43315812D01*
X114288000Y-43141741D01*
X114288000Y-42964259D01*
X114322624Y-42790188D01*
X114390544Y-42626216D01*
X114489147Y-42478646D01*
X114614646Y-42353147D01*
X114762216Y-42254544D01*
X114926188Y-42186624D01*
X115075488Y-42156927D01*
X115100258Y-42152000D01*
X115277742Y-42152000D01*
X115302512Y-42156927D01*
G37*
G36*
X167563012Y-41966427D02*
G01*
X167712312Y-41996124D01*
X167876284Y-42064044D01*
X168023854Y-42162647D01*
X168149353Y-42288146D01*
X168247956Y-42435716D01*
X168315876Y-42599688D01*
X168350500Y-42773759D01*
X168350500Y-42951241D01*
X168315876Y-43125312D01*
X168247956Y-43289284D01*
X168149353Y-43436854D01*
X168023854Y-43562353D01*
X167876284Y-43660956D01*
X167712312Y-43728876D01*
X167563012Y-43758573D01*
X167538242Y-43763500D01*
X167360758Y-43763500D01*
X167335988Y-43758573D01*
X167186688Y-43728876D01*
X167022716Y-43660956D01*
X166875146Y-43562353D01*
X166749647Y-43436854D01*
X166651044Y-43289284D01*
X166583124Y-43125312D01*
X166548500Y-42951241D01*
X166548500Y-42773759D01*
X166583124Y-42599688D01*
X166651044Y-42435716D01*
X166749647Y-42288146D01*
X166875146Y-42162647D01*
X167022716Y-42064044D01*
X167186688Y-41996124D01*
X167335988Y-41966427D01*
X167360758Y-41961500D01*
X167538242Y-41961500D01*
X167563012Y-41966427D01*
G37*
G36*
X170890500Y-43763500D02*
G01*
X169088500Y-43763500D01*
X169088500Y-41961500D01*
X170890500Y-41961500D01*
X170890500Y-43763500D01*
G37*
G36*
X165023012Y-41966427D02*
G01*
X165172312Y-41996124D01*
X165336284Y-42064044D01*
X165483854Y-42162647D01*
X165609353Y-42288146D01*
X165707956Y-42435716D01*
X165775876Y-42599688D01*
X165810500Y-42773759D01*
X165810500Y-42951241D01*
X165775876Y-43125312D01*
X165707956Y-43289284D01*
X165609353Y-43436854D01*
X165483854Y-43562353D01*
X165336284Y-43660956D01*
X165172312Y-43728876D01*
X165023012Y-43758573D01*
X164998242Y-43763500D01*
X164820758Y-43763500D01*
X164795988Y-43758573D01*
X164646688Y-43728876D01*
X164482716Y-43660956D01*
X164335146Y-43562353D01*
X164209647Y-43436854D01*
X164111044Y-43289284D01*
X164043124Y-43125312D01*
X164008500Y-42951241D01*
X164008500Y-42773759D01*
X164043124Y-42599688D01*
X164111044Y-42435716D01*
X164209647Y-42288146D01*
X164335146Y-42162647D01*
X164482716Y-42064044D01*
X164646688Y-41996124D01*
X164795988Y-41966427D01*
X164820758Y-41961500D01*
X164998242Y-41961500D01*
X165023012Y-41966427D01*
G37*
M02*
