G04 #@! TF.GenerationSoftware,KiCad,Pcbnew,(5.1.5)-3*
G04 #@! TF.CreationDate,2020-02-19T20:56:23+00:00*
G04 #@! TF.ProjectId,Isolator CAN SMT,49736f6c-6174-46f7-9220-43414e20534d,rev?*
G04 #@! TF.SameCoordinates,Original*
G04 #@! TF.FileFunction,Copper,L2,Bot*
G04 #@! TF.FilePolarity,Positive*
%FSLAX46Y46*%
G04 Gerber Fmt 4.6, Leading zero omitted, Abs format (unit mm)*
G04 Created by KiCad (PCBNEW (5.1.5)-3) date 2020-02-19 20:56:23*
%MOMM*%
%LPD*%
G04 APERTURE LIST*
%ADD10O,1.700000X1.700000*%
%ADD11R,1.700000X1.700000*%
%ADD12O,2.500000X2.500000*%
%ADD13R,2.500000X2.500000*%
%ADD14C,0.800000*%
%ADD15C,0.250000*%
%ADD16C,0.750000*%
%ADD17C,0.254000*%
G04 APERTURE END LIST*
D10*
X144589500Y-43497500D03*
D11*
X147129500Y-43497500D03*
D10*
X164909500Y-42862500D03*
X167449500Y-42862500D03*
D11*
X169989500Y-42862500D03*
D10*
X103505000Y-48133000D03*
X103505000Y-50673000D03*
X103505000Y-53213000D03*
X103505000Y-55753000D03*
X103505000Y-58293000D03*
X103505000Y-60833000D03*
X103505000Y-63373000D03*
D11*
X103505000Y-65913000D03*
D10*
X115189000Y-43053000D03*
X112649000Y-43053000D03*
D11*
X110109000Y-43053000D03*
D12*
X159416500Y-49054500D03*
X171616500Y-49054500D03*
X171616500Y-61054500D03*
X159416500Y-61054500D03*
D13*
X157416500Y-55054500D03*
D11*
X103500000Y-77750000D03*
D10*
X103500000Y-75210000D03*
X103500000Y-72670000D03*
X103500000Y-70130000D03*
X132715000Y-43497500D03*
X135255000Y-43497500D03*
X137795000Y-43497500D03*
D11*
X140335000Y-43497500D03*
D10*
X176250000Y-89290000D03*
D11*
X176250000Y-86750000D03*
X176000000Y-74500000D03*
D10*
X176000000Y-77040000D03*
D11*
X110000000Y-85250000D03*
D10*
X112540000Y-85250000D03*
X110000000Y-87790000D03*
X112540000Y-87790000D03*
X110000000Y-90330000D03*
X112540000Y-90330000D03*
X110000000Y-92870000D03*
X112540000Y-92870000D03*
X110000000Y-95410000D03*
X112540000Y-95410000D03*
D14*
X121412000Y-59944000D03*
X141177000Y-52449000D03*
X128666500Y-69046000D03*
X128730000Y-72911000D03*
X128050000Y-75750000D03*
X119697500Y-71120000D03*
X116537500Y-73037500D03*
X107206500Y-67438000D03*
X157250000Y-90850000D03*
X151854500Y-79006500D03*
X150368000Y-60642500D03*
X122427000Y-57099000D03*
X143002000Y-62230000D03*
X139954000Y-57658000D03*
X154432000Y-66675000D03*
X146389000Y-47837000D03*
X107251500Y-61468000D03*
X119507000Y-60134500D03*
X146135000Y-52620000D03*
X148068510Y-77419990D03*
X143789500Y-79654500D03*
X136779000Y-80772000D03*
X117413500Y-54227000D03*
X113600014Y-77000000D03*
X102745000Y-91950000D03*
X118083000Y-47271000D03*
X136819010Y-74993500D03*
X116586000Y-74993500D03*
X138430000Y-62230000D03*
X154483000Y-65100000D03*
X119798000Y-64553000D03*
X119507000Y-58864500D03*
X151765000Y-77406500D03*
X149542500Y-75819000D03*
X143827500Y-78041500D03*
X139001500Y-80835500D03*
X131381500Y-75819000D03*
X103812500Y-84445000D03*
X120078500Y-77787500D03*
X154975000Y-97437500D03*
X160337500Y-82740500D03*
X147637500Y-62865000D03*
X149352000Y-62865000D03*
X142593500Y-74458000D03*
X117538500Y-55499000D03*
X136819010Y-73025000D03*
X117348000Y-71501000D03*
X140574000Y-77739000D03*
X140970000Y-73025006D03*
X155448000Y-70739000D03*
X155103990Y-68854000D03*
X148626990Y-62066000D03*
X152146000Y-67818000D03*
X171312500Y-86600000D03*
X171300000Y-89000000D03*
X137544010Y-71878990D03*
X137544010Y-76768490D03*
X141668500Y-67119500D03*
X142049500Y-91948000D03*
X152844500Y-69659500D03*
X152844500Y-88011000D03*
X144335500Y-65976500D03*
X144620990Y-69362509D03*
X144764668Y-73257165D03*
X145859500Y-50863500D03*
X145796000Y-73850500D03*
X146177000Y-56324500D03*
X143256000Y-66738500D03*
X150622000Y-74803000D03*
X156908500Y-76073000D03*
X159131000Y-74549000D03*
X107300000Y-88500000D03*
X140779500Y-68199000D03*
X126111000Y-67608785D03*
X141070500Y-69278500D03*
X124968000Y-66883785D03*
X140939726Y-70475764D03*
X122936000Y-65659000D03*
X140970000Y-71501000D03*
X119380000Y-57658000D03*
D15*
X121412000Y-59944000D02*
X121412000Y-68961000D01*
X120243000Y-70130000D02*
X103500000Y-70130000D01*
X121412000Y-68961000D02*
X120243000Y-70130000D01*
D16*
X118110000Y-42862500D02*
X119634000Y-41338500D01*
X118110000Y-46678315D02*
X118110000Y-42862500D01*
X118083000Y-47271000D02*
X118083000Y-46705315D01*
X119634000Y-41338500D02*
X153924000Y-41275000D01*
X118083000Y-46705315D02*
X118110000Y-46678315D01*
X153924000Y-41275000D02*
X154559000Y-41275000D01*
X154559000Y-41275000D02*
X155638500Y-42354500D01*
X155638500Y-42354500D02*
X155638500Y-48387000D01*
X156306000Y-49054500D02*
X159416500Y-49054500D01*
X155638500Y-48387000D02*
X156306000Y-49054500D01*
D15*
X136819010Y-74993500D02*
X116586000Y-74993500D01*
X149542500Y-76384685D02*
X149542500Y-75819000D01*
X149542500Y-77019002D02*
X149542500Y-76384685D01*
X148416511Y-78144991D02*
X149542500Y-77019002D01*
X147720509Y-78144991D02*
X148416511Y-78144991D01*
X147617018Y-78041500D02*
X147720509Y-78144991D01*
X143827500Y-78041500D02*
X147617018Y-78041500D01*
X147637500Y-62865000D02*
X148203185Y-62865000D01*
X148203185Y-62865000D02*
X149352000Y-62865000D01*
X131381500Y-76384685D02*
X132334000Y-77337185D01*
X131381500Y-75819000D02*
X131381500Y-76384685D01*
X132334000Y-77337185D02*
X132334000Y-78994000D01*
X132334000Y-78994000D02*
X133096000Y-79756000D01*
X137922000Y-79756000D02*
X139001500Y-80835500D01*
X133096000Y-79756000D02*
X137922000Y-79756000D01*
X142393501Y-73692316D02*
X142393501Y-66193501D01*
X142593500Y-74458000D02*
X142593500Y-73892315D01*
X142593500Y-73892315D02*
X142393501Y-73692316D01*
X142393501Y-66193501D02*
X141859000Y-65659000D01*
X141859000Y-65659000D02*
X124777500Y-65659000D01*
X124777500Y-65659000D02*
X122872500Y-63754000D01*
X122872500Y-63754000D02*
X122872500Y-59499500D01*
X122872500Y-59499500D02*
X118872000Y-55499000D01*
X118872000Y-55499000D02*
X117538500Y-55499000D01*
X136819010Y-73025000D02*
X136819010Y-73920498D01*
X136819010Y-73920498D02*
X136196018Y-74543490D01*
X136196018Y-74543490D02*
X118548990Y-74543490D01*
X118548990Y-74543490D02*
X117983000Y-73977500D01*
X117983000Y-73977500D02*
X117983000Y-72136000D01*
X117983000Y-72136000D02*
X117348000Y-71501000D01*
X140574000Y-73421006D02*
X140970000Y-73025006D01*
X140574000Y-77739000D02*
X140574000Y-73421006D01*
X155448000Y-69198010D02*
X155103990Y-68854000D01*
X155448000Y-70739000D02*
X155448000Y-69198010D01*
X135255000Y-43497500D02*
X137858500Y-46101000D01*
X137858500Y-46101000D02*
X146431000Y-46101000D01*
X148626990Y-48296990D02*
X148626990Y-61500315D01*
X148626990Y-61500315D02*
X148626990Y-62066000D01*
X146431000Y-46101000D02*
X148626990Y-48296990D01*
X147764500Y-45529500D02*
X139827000Y-45529500D01*
X150431500Y-55943500D02*
X150431500Y-48196500D01*
X150114000Y-65786000D02*
X150114000Y-61658500D01*
X139827000Y-45529500D02*
X137795000Y-43497500D01*
X150114000Y-61658500D02*
X149352000Y-60896500D01*
X150431500Y-48196500D02*
X147764500Y-45529500D01*
X152146000Y-67818000D02*
X150114000Y-65786000D01*
X149352000Y-60896500D02*
X149352000Y-57023000D01*
X149352000Y-57023000D02*
X150431500Y-55943500D01*
X171312500Y-86600000D02*
X171312500Y-88987500D01*
X171312500Y-88987500D02*
X171300000Y-89000000D01*
X137544010Y-71878990D02*
X137544010Y-76768490D01*
X141668500Y-67685185D02*
X141795500Y-67812185D01*
X141668500Y-67119500D02*
X141668500Y-67685185D01*
X141795500Y-67812185D02*
X141795500Y-91694000D01*
X141795500Y-91694000D02*
X142049500Y-91948000D01*
X152844500Y-69659500D02*
X152844500Y-77400002D01*
X152844500Y-77400002D02*
X152844500Y-88011000D01*
X144335500Y-65976500D02*
X144335500Y-69088000D01*
X144335500Y-69088000D02*
X144610009Y-69362509D01*
X144610009Y-69362509D02*
X144620990Y-69362509D01*
X145345990Y-72110158D02*
X145345990Y-51377010D01*
X144764668Y-73257165D02*
X144764668Y-72691480D01*
X144764668Y-72691480D02*
X145345990Y-72110158D01*
X145345990Y-51377010D02*
X145859500Y-50863500D01*
X145796000Y-73850500D02*
X145796000Y-56705500D01*
X145796000Y-56705500D02*
X146177000Y-56324500D01*
X143256000Y-66738500D02*
X143256000Y-67304185D01*
X143256000Y-67304185D02*
X143256000Y-73977500D01*
X143854001Y-74575501D02*
X146531499Y-74575501D01*
X143256000Y-73977500D02*
X143854001Y-74575501D01*
X146531499Y-74575501D02*
X150394501Y-74575501D01*
X150394501Y-74575501D02*
X150622000Y-74803000D01*
X159131000Y-75120500D02*
X159131000Y-74549000D01*
X156908500Y-76073000D02*
X158178500Y-76073000D01*
X158178500Y-76073000D02*
X159131000Y-75120500D01*
X111190000Y-86600000D02*
X112540000Y-85250000D01*
X108100000Y-86600000D02*
X111190000Y-86600000D01*
X107300000Y-87400000D02*
X108100000Y-86600000D01*
X107300000Y-88500000D02*
X107300000Y-87400000D01*
X104354999Y-48982999D02*
X103505000Y-48133000D01*
X104680001Y-49308001D02*
X104354999Y-48982999D01*
X104680001Y-52037999D02*
X104680001Y-49308001D01*
X103505000Y-53213000D02*
X104680001Y-52037999D01*
X103505000Y-63373000D02*
X104680001Y-62197999D01*
X104680001Y-59468001D02*
X104354999Y-59142999D01*
X104680001Y-62197999D02*
X104680001Y-59468001D01*
X104354999Y-59142999D02*
X103505000Y-58293000D01*
X140779500Y-68199000D02*
X140189285Y-67608785D01*
X140189285Y-67608785D02*
X126111000Y-67608785D01*
X125762998Y-68333787D02*
X124968000Y-67538789D01*
X124968000Y-67449470D02*
X124968000Y-66883785D01*
X141070500Y-69278500D02*
X140144500Y-69278500D01*
X139186999Y-68320999D02*
X127125505Y-68320999D01*
X140144500Y-69278500D02*
X139186999Y-68320999D01*
X127125505Y-68320999D02*
X127112717Y-68333787D01*
X124968000Y-67538789D02*
X124968000Y-67449470D01*
X127112717Y-68333787D02*
X125762998Y-68333787D01*
X140374041Y-70475764D02*
X140364805Y-70485000D01*
X140939726Y-70475764D02*
X140374041Y-70475764D01*
X140364805Y-70485000D02*
X127190500Y-70485000D01*
X127190500Y-70485000D02*
X123634500Y-70485000D01*
X123634500Y-70485000D02*
X122936000Y-69786500D01*
X122936000Y-69786500D02*
X122936000Y-65659000D01*
X137673032Y-70935010D02*
X126053010Y-70935010D01*
X140970000Y-71501000D02*
X138239022Y-71501000D01*
X138239022Y-71501000D02*
X137673032Y-70935010D01*
X126053010Y-70935010D02*
X122941510Y-70935010D01*
X122941510Y-70935010D02*
X122137001Y-70130501D01*
X122137001Y-59595999D02*
X120199002Y-57658000D01*
X122137001Y-70130501D02*
X122137001Y-59595999D01*
X120199002Y-57658000D02*
X119380000Y-57658000D01*
D17*
G36*
X117430901Y-42113244D02*
G01*
X117392368Y-42144867D01*
X117360745Y-42183400D01*
X117360744Y-42183401D01*
X117266154Y-42298660D01*
X117172368Y-42474121D01*
X117114615Y-42664506D01*
X117095114Y-42862500D01*
X117100001Y-42912118D01*
X117100000Y-46466493D01*
X117087615Y-46507321D01*
X117068114Y-46705315D01*
X117073000Y-46754923D01*
X117073000Y-47043377D01*
X117048000Y-47169061D01*
X117048000Y-47372939D01*
X117087774Y-47572898D01*
X117165795Y-47761256D01*
X117279063Y-47930774D01*
X117423226Y-48074937D01*
X117592744Y-48188205D01*
X117781102Y-48266226D01*
X117981061Y-48306000D01*
X118184939Y-48306000D01*
X118384898Y-48266226D01*
X118573256Y-48188205D01*
X118742774Y-48074937D01*
X118886937Y-47930774D01*
X119000205Y-47761256D01*
X119078226Y-47572898D01*
X119118000Y-47372939D01*
X119118000Y-47169061D01*
X119093000Y-47043377D01*
X119093000Y-46917137D01*
X119105385Y-46876309D01*
X119120000Y-46727923D01*
X119120000Y-46727922D01*
X119124886Y-46678315D01*
X119120000Y-46628707D01*
X119120000Y-43854391D01*
X131273519Y-43854391D01*
X131370843Y-44128752D01*
X131519822Y-44378855D01*
X131714731Y-44595088D01*
X131948080Y-44769141D01*
X132210901Y-44894325D01*
X132358110Y-44938976D01*
X132588000Y-44817655D01*
X132588000Y-43624500D01*
X131394186Y-43624500D01*
X131273519Y-43854391D01*
X119120000Y-43854391D01*
X119120000Y-43280855D01*
X120053130Y-42347725D01*
X131813895Y-42325946D01*
X131714731Y-42399912D01*
X131519822Y-42616145D01*
X131370843Y-42866248D01*
X131273519Y-43140609D01*
X131394186Y-43370500D01*
X132588000Y-43370500D01*
X132588000Y-43350500D01*
X132842000Y-43350500D01*
X132842000Y-43370500D01*
X132862000Y-43370500D01*
X132862000Y-43624500D01*
X132842000Y-43624500D01*
X132842000Y-44817655D01*
X133071890Y-44938976D01*
X133219099Y-44894325D01*
X133481920Y-44769141D01*
X133715269Y-44595088D01*
X133910178Y-44378855D01*
X133979805Y-44261966D01*
X134101525Y-44444132D01*
X134308368Y-44650975D01*
X134551589Y-44813490D01*
X134821842Y-44925432D01*
X135108740Y-44982500D01*
X135401260Y-44982500D01*
X135621408Y-44938709D01*
X137294700Y-46612002D01*
X137318499Y-46641001D01*
X137347497Y-46664799D01*
X137434223Y-46735974D01*
X137566253Y-46806546D01*
X137709514Y-46850003D01*
X137821167Y-46861000D01*
X137821177Y-46861000D01*
X137858499Y-46864676D01*
X137895822Y-46861000D01*
X146116199Y-46861000D01*
X147866990Y-48611792D01*
X147866991Y-61362288D01*
X147823053Y-61406226D01*
X147709785Y-61575744D01*
X147631764Y-61764102D01*
X147618656Y-61830000D01*
X147535561Y-61830000D01*
X147335602Y-61869774D01*
X147147244Y-61947795D01*
X146977726Y-62061063D01*
X146833563Y-62205226D01*
X146720295Y-62374744D01*
X146642274Y-62563102D01*
X146602500Y-62763061D01*
X146602500Y-62966939D01*
X146642274Y-63166898D01*
X146720295Y-63355256D01*
X146833563Y-63524774D01*
X146977726Y-63668937D01*
X147147244Y-63782205D01*
X147335602Y-63860226D01*
X147535561Y-63900000D01*
X147739439Y-63900000D01*
X147939398Y-63860226D01*
X148127756Y-63782205D01*
X148297274Y-63668937D01*
X148341211Y-63625000D01*
X148648289Y-63625000D01*
X148692226Y-63668937D01*
X148861744Y-63782205D01*
X149050102Y-63860226D01*
X149250061Y-63900000D01*
X149354000Y-63900000D01*
X149354000Y-65748677D01*
X149350324Y-65786000D01*
X149354000Y-65823322D01*
X149354000Y-65823332D01*
X149364997Y-65934985D01*
X149377082Y-65974823D01*
X149408454Y-66078246D01*
X149479026Y-66210276D01*
X149510186Y-66248244D01*
X149573999Y-66326001D01*
X149603003Y-66349804D01*
X151111000Y-67857802D01*
X151111000Y-67919939D01*
X151150774Y-68119898D01*
X151228795Y-68308256D01*
X151342063Y-68477774D01*
X151486226Y-68621937D01*
X151655744Y-68735205D01*
X151844102Y-68813226D01*
X152044061Y-68853000D01*
X152188562Y-68853000D01*
X152184726Y-68855563D01*
X152040563Y-68999726D01*
X151927295Y-69169244D01*
X151849274Y-69357602D01*
X151809500Y-69557561D01*
X151809500Y-69761439D01*
X151849274Y-69961398D01*
X151927295Y-70149756D01*
X152040563Y-70319274D01*
X152084500Y-70363211D01*
X152084501Y-76418565D01*
X152066898Y-76411274D01*
X151866939Y-76371500D01*
X151663061Y-76371500D01*
X151463102Y-76411274D01*
X151274744Y-76489295D01*
X151105226Y-76602563D01*
X150961063Y-76746726D01*
X150847795Y-76916244D01*
X150769774Y-77104602D01*
X150730000Y-77304561D01*
X150730000Y-77508439D01*
X150769774Y-77708398D01*
X150847795Y-77896756D01*
X150961063Y-78066274D01*
X151105226Y-78210437D01*
X151274744Y-78323705D01*
X151463102Y-78401726D01*
X151663061Y-78441500D01*
X151866939Y-78441500D01*
X152066898Y-78401726D01*
X152084500Y-78394435D01*
X152084501Y-87307288D01*
X152040563Y-87351226D01*
X151927295Y-87520744D01*
X151849274Y-87709102D01*
X151809500Y-87909061D01*
X151809500Y-88112939D01*
X151849274Y-88312898D01*
X151927295Y-88501256D01*
X152040563Y-88670774D01*
X152184726Y-88814937D01*
X152354244Y-88928205D01*
X152542602Y-89006226D01*
X152742561Y-89046000D01*
X152946439Y-89046000D01*
X153146398Y-89006226D01*
X153334756Y-88928205D01*
X153504274Y-88814937D01*
X153648437Y-88670774D01*
X153761705Y-88501256D01*
X153839726Y-88312898D01*
X153879500Y-88112939D01*
X153879500Y-87909061D01*
X153839726Y-87709102D01*
X153761705Y-87520744D01*
X153648437Y-87351226D01*
X153604500Y-87307289D01*
X153604500Y-75971061D01*
X155873500Y-75971061D01*
X155873500Y-76174939D01*
X155913274Y-76374898D01*
X155991295Y-76563256D01*
X156104563Y-76732774D01*
X156248726Y-76876937D01*
X156418244Y-76990205D01*
X156606602Y-77068226D01*
X156806561Y-77108000D01*
X157010439Y-77108000D01*
X157210398Y-77068226D01*
X157398756Y-76990205D01*
X157568274Y-76876937D01*
X157612211Y-76833000D01*
X158141178Y-76833000D01*
X158178500Y-76836676D01*
X158215822Y-76833000D01*
X158215833Y-76833000D01*
X158327486Y-76822003D01*
X158470747Y-76778546D01*
X158602776Y-76707974D01*
X158718501Y-76613001D01*
X158742303Y-76583998D01*
X159642009Y-75684294D01*
X159671001Y-75660501D01*
X159694795Y-75631508D01*
X159694799Y-75631504D01*
X159765973Y-75544777D01*
X159765974Y-75544776D01*
X159836546Y-75412747D01*
X159880003Y-75269486D01*
X159880634Y-75263077D01*
X159934937Y-75208774D01*
X160048205Y-75039256D01*
X160126226Y-74850898D01*
X160166000Y-74650939D01*
X160166000Y-74447061D01*
X160126226Y-74247102D01*
X160048205Y-74058744D01*
X159934937Y-73889226D01*
X159790774Y-73745063D01*
X159621256Y-73631795D01*
X159432898Y-73553774D01*
X159232939Y-73514000D01*
X159029061Y-73514000D01*
X158829102Y-73553774D01*
X158640744Y-73631795D01*
X158471226Y-73745063D01*
X158327063Y-73889226D01*
X158213795Y-74058744D01*
X158135774Y-74247102D01*
X158096000Y-74447061D01*
X158096000Y-74650939D01*
X158135774Y-74850898D01*
X158191432Y-74985266D01*
X157863699Y-75313000D01*
X157612211Y-75313000D01*
X157568274Y-75269063D01*
X157398756Y-75155795D01*
X157210398Y-75077774D01*
X157010439Y-75038000D01*
X156806561Y-75038000D01*
X156606602Y-75077774D01*
X156418244Y-75155795D01*
X156248726Y-75269063D01*
X156104563Y-75413226D01*
X155991295Y-75582744D01*
X155913274Y-75771102D01*
X155873500Y-75971061D01*
X153604500Y-75971061D01*
X153604500Y-70363211D01*
X153648437Y-70319274D01*
X153761705Y-70149756D01*
X153839726Y-69961398D01*
X153879500Y-69761439D01*
X153879500Y-69557561D01*
X153839726Y-69357602D01*
X153761705Y-69169244D01*
X153648437Y-68999726D01*
X153504274Y-68855563D01*
X153349372Y-68752061D01*
X154068990Y-68752061D01*
X154068990Y-68955939D01*
X154108764Y-69155898D01*
X154186785Y-69344256D01*
X154300053Y-69513774D01*
X154444216Y-69657937D01*
X154613734Y-69771205D01*
X154688001Y-69801967D01*
X154688000Y-70035289D01*
X154644063Y-70079226D01*
X154530795Y-70248744D01*
X154452774Y-70437102D01*
X154413000Y-70637061D01*
X154413000Y-70840939D01*
X154452774Y-71040898D01*
X154530795Y-71229256D01*
X154644063Y-71398774D01*
X154788226Y-71542937D01*
X154957744Y-71656205D01*
X155146102Y-71734226D01*
X155346061Y-71774000D01*
X155549939Y-71774000D01*
X155749898Y-71734226D01*
X155938256Y-71656205D01*
X156107774Y-71542937D01*
X156251937Y-71398774D01*
X156365205Y-71229256D01*
X156443226Y-71040898D01*
X156483000Y-70840939D01*
X156483000Y-70637061D01*
X156443226Y-70437102D01*
X156365205Y-70248744D01*
X156251937Y-70079226D01*
X156208000Y-70035289D01*
X156208000Y-69235343D01*
X156211677Y-69198010D01*
X156197003Y-69049024D01*
X156153546Y-68905763D01*
X156138990Y-68878531D01*
X156138990Y-68752061D01*
X156099216Y-68552102D01*
X156021195Y-68363744D01*
X155907927Y-68194226D01*
X155763764Y-68050063D01*
X155594246Y-67936795D01*
X155405888Y-67858774D01*
X155205929Y-67819000D01*
X155002051Y-67819000D01*
X154802092Y-67858774D01*
X154613734Y-67936795D01*
X154444216Y-68050063D01*
X154300053Y-68194226D01*
X154186785Y-68363744D01*
X154108764Y-68552102D01*
X154068990Y-68752061D01*
X153349372Y-68752061D01*
X153334756Y-68742295D01*
X153146398Y-68664274D01*
X152946439Y-68624500D01*
X152801938Y-68624500D01*
X152805774Y-68621937D01*
X152949937Y-68477774D01*
X153063205Y-68308256D01*
X153141226Y-68119898D01*
X153181000Y-67919939D01*
X153181000Y-67716061D01*
X153141226Y-67516102D01*
X153063205Y-67327744D01*
X152949937Y-67158226D01*
X152805774Y-67014063D01*
X152636256Y-66900795D01*
X152447898Y-66822774D01*
X152247939Y-66783000D01*
X152185802Y-66783000D01*
X150874000Y-65471199D01*
X150874000Y-61695825D01*
X150877676Y-61658500D01*
X150874000Y-61621175D01*
X150874000Y-61621167D01*
X150863003Y-61509514D01*
X150819546Y-61366253D01*
X150748974Y-61234224D01*
X150654001Y-61118499D01*
X150625002Y-61094701D01*
X150112000Y-60581699D01*
X150112000Y-57337801D01*
X150942504Y-56507298D01*
X150971501Y-56483501D01*
X151066474Y-56367776D01*
X151137046Y-56235747D01*
X151180503Y-56092486D01*
X151191500Y-55980833D01*
X151191500Y-55980832D01*
X151195177Y-55943500D01*
X151191500Y-55906167D01*
X151191500Y-48233833D01*
X151195177Y-48196500D01*
X151180503Y-48047514D01*
X151137046Y-47904253D01*
X151066474Y-47772224D01*
X150995299Y-47685497D01*
X150971501Y-47656499D01*
X150942503Y-47632701D01*
X148328304Y-45018503D01*
X148304501Y-44989499D01*
X148233886Y-44931547D01*
X148333994Y-44878037D01*
X148430685Y-44798685D01*
X148510037Y-44701994D01*
X148569002Y-44591680D01*
X148605312Y-44471982D01*
X148617572Y-44347500D01*
X148617572Y-42647500D01*
X148605312Y-42523018D01*
X148569002Y-42403320D01*
X148511116Y-42295025D01*
X151118052Y-42290197D01*
X152209500Y-43116158D01*
X152209500Y-59817000D01*
X152211940Y-59841776D01*
X152219167Y-59865601D01*
X152230903Y-59887557D01*
X152246697Y-59906803D01*
X153289000Y-60949106D01*
X153289000Y-64325500D01*
X153291440Y-64350276D01*
X153298667Y-64374101D01*
X153310403Y-64396057D01*
X153326197Y-64415303D01*
X153345443Y-64431097D01*
X153367399Y-64442833D01*
X153391224Y-64450060D01*
X153416000Y-64452500D01*
X153670862Y-64452500D01*
X153565795Y-64609744D01*
X153487774Y-64798102D01*
X153448000Y-64998061D01*
X153448000Y-65201939D01*
X153487774Y-65401898D01*
X153565795Y-65590256D01*
X153679063Y-65759774D01*
X153823226Y-65903937D01*
X153992744Y-66017205D01*
X154181102Y-66095226D01*
X154381061Y-66135000D01*
X154584939Y-66135000D01*
X154784898Y-66095226D01*
X154973256Y-66017205D01*
X155142774Y-65903937D01*
X155286937Y-65759774D01*
X155400205Y-65590256D01*
X155478226Y-65401898D01*
X155518000Y-65201939D01*
X155518000Y-64998061D01*
X155478226Y-64798102D01*
X155400205Y-64609744D01*
X155295138Y-64452500D01*
X158822489Y-64452500D01*
X161163747Y-66916234D01*
X161168132Y-82120678D01*
X161141437Y-82080726D01*
X160997274Y-81936563D01*
X160827756Y-81823295D01*
X160639398Y-81745274D01*
X160439439Y-81705500D01*
X160235561Y-81705500D01*
X160035602Y-81745274D01*
X159847244Y-81823295D01*
X159677726Y-81936563D01*
X159533563Y-82080726D01*
X159420295Y-82250244D01*
X159342274Y-82438602D01*
X159302500Y-82638561D01*
X159302500Y-82842439D01*
X159342274Y-83042398D01*
X159420295Y-83230756D01*
X159533563Y-83400274D01*
X159677726Y-83544437D01*
X159847244Y-83657705D01*
X160035602Y-83735726D01*
X160235561Y-83775500D01*
X160439439Y-83775500D01*
X160639398Y-83735726D01*
X160827756Y-83657705D01*
X160997274Y-83544437D01*
X161141437Y-83400274D01*
X161168489Y-83359787D01*
X161172963Y-98873000D01*
X106598572Y-98873000D01*
X105534120Y-97808548D01*
X105643069Y-97645494D01*
X105771447Y-97335561D01*
X153940000Y-97335561D01*
X153940000Y-97539439D01*
X153979774Y-97739398D01*
X154057795Y-97927756D01*
X154171063Y-98097274D01*
X154315226Y-98241437D01*
X154484744Y-98354705D01*
X154673102Y-98432726D01*
X154873061Y-98472500D01*
X155076939Y-98472500D01*
X155276898Y-98432726D01*
X155465256Y-98354705D01*
X155634774Y-98241437D01*
X155778937Y-98097274D01*
X155892205Y-97927756D01*
X155970226Y-97739398D01*
X156010000Y-97539439D01*
X156010000Y-97335561D01*
X155970226Y-97135602D01*
X155892205Y-96947244D01*
X155778937Y-96777726D01*
X155634774Y-96633563D01*
X155465256Y-96520295D01*
X155276898Y-96442274D01*
X155076939Y-96402500D01*
X154873061Y-96402500D01*
X154673102Y-96442274D01*
X154484744Y-96520295D01*
X154315226Y-96633563D01*
X154171063Y-96777726D01*
X154057795Y-96947244D01*
X153979774Y-97135602D01*
X153940000Y-97335561D01*
X105771447Y-97335561D01*
X105825365Y-97205392D01*
X105918299Y-96738182D01*
X105918299Y-96261818D01*
X105825365Y-95794608D01*
X105643069Y-95354506D01*
X105378415Y-94958424D01*
X105041576Y-94621585D01*
X104645494Y-94356931D01*
X104205392Y-94174635D01*
X103738182Y-94081701D01*
X103261818Y-94081701D01*
X102794608Y-94174635D01*
X102354506Y-94356931D01*
X102191452Y-94465880D01*
X100922966Y-93197394D01*
X100922966Y-88398061D01*
X106265000Y-88398061D01*
X106265000Y-88601939D01*
X106304774Y-88801898D01*
X106382795Y-88990256D01*
X106496063Y-89159774D01*
X106640226Y-89303937D01*
X106809744Y-89417205D01*
X106998102Y-89495226D01*
X107198061Y-89535000D01*
X107401939Y-89535000D01*
X107601898Y-89495226D01*
X107790256Y-89417205D01*
X107959774Y-89303937D01*
X108103937Y-89159774D01*
X108217205Y-88990256D01*
X108295226Y-88801898D01*
X108335000Y-88601939D01*
X108335000Y-88398061D01*
X108295226Y-88198102D01*
X108217205Y-88009744D01*
X108103937Y-87840226D01*
X108060000Y-87796289D01*
X108060000Y-87714801D01*
X108414802Y-87360000D01*
X108571440Y-87360000D01*
X108515000Y-87643740D01*
X108515000Y-87936260D01*
X108572068Y-88223158D01*
X108684010Y-88493411D01*
X108846525Y-88736632D01*
X109053368Y-88943475D01*
X109227760Y-89060000D01*
X109053368Y-89176525D01*
X108846525Y-89383368D01*
X108684010Y-89626589D01*
X108572068Y-89896842D01*
X108515000Y-90183740D01*
X108515000Y-90476260D01*
X108572068Y-90763158D01*
X108684010Y-91033411D01*
X108846525Y-91276632D01*
X109053368Y-91483475D01*
X109227760Y-91600000D01*
X109053368Y-91716525D01*
X108846525Y-91923368D01*
X108684010Y-92166589D01*
X108572068Y-92436842D01*
X108515000Y-92723740D01*
X108515000Y-93016260D01*
X108572068Y-93303158D01*
X108684010Y-93573411D01*
X108846525Y-93816632D01*
X109053368Y-94023475D01*
X109227760Y-94140000D01*
X109053368Y-94256525D01*
X108846525Y-94463368D01*
X108684010Y-94706589D01*
X108572068Y-94976842D01*
X108515000Y-95263740D01*
X108515000Y-95556260D01*
X108572068Y-95843158D01*
X108684010Y-96113411D01*
X108846525Y-96356632D01*
X109053368Y-96563475D01*
X109296589Y-96725990D01*
X109566842Y-96837932D01*
X109853740Y-96895000D01*
X110146260Y-96895000D01*
X110433158Y-96837932D01*
X110703411Y-96725990D01*
X110946632Y-96563475D01*
X111153475Y-96356632D01*
X111270000Y-96182240D01*
X111386525Y-96356632D01*
X111593368Y-96563475D01*
X111836589Y-96725990D01*
X112106842Y-96837932D01*
X112393740Y-96895000D01*
X112686260Y-96895000D01*
X112973158Y-96837932D01*
X113243411Y-96725990D01*
X113486632Y-96563475D01*
X113693475Y-96356632D01*
X113855990Y-96113411D01*
X113967932Y-95843158D01*
X114025000Y-95556260D01*
X114025000Y-95263740D01*
X113967932Y-94976842D01*
X113855990Y-94706589D01*
X113693475Y-94463368D01*
X113486632Y-94256525D01*
X113312240Y-94140000D01*
X113486632Y-94023475D01*
X113693475Y-93816632D01*
X113855990Y-93573411D01*
X113967932Y-93303158D01*
X114025000Y-93016260D01*
X114025000Y-92723740D01*
X113967932Y-92436842D01*
X113855990Y-92166589D01*
X113693475Y-91923368D01*
X113486632Y-91716525D01*
X113312240Y-91600000D01*
X113486632Y-91483475D01*
X113693475Y-91276632D01*
X113855990Y-91033411D01*
X113967932Y-90763158D01*
X114025000Y-90476260D01*
X114025000Y-90183740D01*
X113967932Y-89896842D01*
X113855990Y-89626589D01*
X113693475Y-89383368D01*
X113486632Y-89176525D01*
X113312240Y-89060000D01*
X113486632Y-88943475D01*
X113693475Y-88736632D01*
X113855990Y-88493411D01*
X113967932Y-88223158D01*
X114025000Y-87936260D01*
X114025000Y-87643740D01*
X113967932Y-87356842D01*
X113855990Y-87086589D01*
X113693475Y-86843368D01*
X113486632Y-86636525D01*
X113312240Y-86520000D01*
X113486632Y-86403475D01*
X113693475Y-86196632D01*
X113855990Y-85953411D01*
X113967932Y-85683158D01*
X114025000Y-85396260D01*
X114025000Y-85103740D01*
X113967932Y-84816842D01*
X113855990Y-84546589D01*
X113693475Y-84303368D01*
X113486632Y-84096525D01*
X113243411Y-83934010D01*
X112973158Y-83822068D01*
X112686260Y-83765000D01*
X112393740Y-83765000D01*
X112106842Y-83822068D01*
X111836589Y-83934010D01*
X111593368Y-84096525D01*
X111461513Y-84228380D01*
X111439502Y-84155820D01*
X111380537Y-84045506D01*
X111301185Y-83948815D01*
X111204494Y-83869463D01*
X111094180Y-83810498D01*
X110974482Y-83774188D01*
X110850000Y-83761928D01*
X109150000Y-83761928D01*
X109025518Y-83774188D01*
X108905820Y-83810498D01*
X108795506Y-83869463D01*
X108698815Y-83948815D01*
X108619463Y-84045506D01*
X108560498Y-84155820D01*
X108524188Y-84275518D01*
X108511928Y-84400000D01*
X108511928Y-85840000D01*
X108137323Y-85840000D01*
X108100000Y-85836324D01*
X108062677Y-85840000D01*
X108062667Y-85840000D01*
X107951014Y-85850997D01*
X107807753Y-85894454D01*
X107675724Y-85965026D01*
X107559999Y-86059999D01*
X107536201Y-86088998D01*
X106788998Y-86836201D01*
X106760000Y-86859999D01*
X106736202Y-86888997D01*
X106736201Y-86888998D01*
X106665026Y-86975724D01*
X106594454Y-87107754D01*
X106550998Y-87251015D01*
X106536324Y-87400000D01*
X106540001Y-87437332D01*
X106540001Y-87796288D01*
X106496063Y-87840226D01*
X106382795Y-88009744D01*
X106304774Y-88198102D01*
X106265000Y-88398061D01*
X100922966Y-88398061D01*
X100922966Y-84343061D01*
X102777500Y-84343061D01*
X102777500Y-84546939D01*
X102817274Y-84746898D01*
X102895295Y-84935256D01*
X103008563Y-85104774D01*
X103152726Y-85248937D01*
X103322244Y-85362205D01*
X103510602Y-85440226D01*
X103710561Y-85480000D01*
X103914439Y-85480000D01*
X104114398Y-85440226D01*
X104302756Y-85362205D01*
X104472274Y-85248937D01*
X104616437Y-85104774D01*
X104729705Y-84935256D01*
X104807726Y-84746898D01*
X104847500Y-84546939D01*
X104847500Y-84343061D01*
X104807726Y-84143102D01*
X104729705Y-83954744D01*
X104616437Y-83785226D01*
X104472274Y-83641063D01*
X104302756Y-83527795D01*
X104114398Y-83449774D01*
X103914439Y-83410000D01*
X103710561Y-83410000D01*
X103510602Y-83449774D01*
X103322244Y-83527795D01*
X103152726Y-83641063D01*
X103008563Y-83785226D01*
X102895295Y-83954744D01*
X102817274Y-84143102D01*
X102777500Y-84343061D01*
X100922966Y-84343061D01*
X100922966Y-76900000D01*
X102011928Y-76900000D01*
X102011928Y-78600000D01*
X102024188Y-78724482D01*
X102060498Y-78844180D01*
X102119463Y-78954494D01*
X102198815Y-79051185D01*
X102295506Y-79130537D01*
X102405820Y-79189502D01*
X102525518Y-79225812D01*
X102650000Y-79238072D01*
X104350000Y-79238072D01*
X104474482Y-79225812D01*
X104594180Y-79189502D01*
X104704494Y-79130537D01*
X104801185Y-79051185D01*
X104880537Y-78954494D01*
X104939502Y-78844180D01*
X104975812Y-78724482D01*
X104988072Y-78600000D01*
X104988072Y-77685561D01*
X119043500Y-77685561D01*
X119043500Y-77889439D01*
X119083274Y-78089398D01*
X119161295Y-78277756D01*
X119274563Y-78447274D01*
X119418726Y-78591437D01*
X119588244Y-78704705D01*
X119776602Y-78782726D01*
X119976561Y-78822500D01*
X120180439Y-78822500D01*
X120380398Y-78782726D01*
X120568756Y-78704705D01*
X120738274Y-78591437D01*
X120882437Y-78447274D01*
X120995705Y-78277756D01*
X121073726Y-78089398D01*
X121113500Y-77889439D01*
X121113500Y-77685561D01*
X121073726Y-77485602D01*
X120995705Y-77297244D01*
X120882437Y-77127726D01*
X120738274Y-76983563D01*
X120568756Y-76870295D01*
X120380398Y-76792274D01*
X120180439Y-76752500D01*
X119976561Y-76752500D01*
X119776602Y-76792274D01*
X119588244Y-76870295D01*
X119418726Y-76983563D01*
X119274563Y-77127726D01*
X119161295Y-77297244D01*
X119083274Y-77485602D01*
X119043500Y-77685561D01*
X104988072Y-77685561D01*
X104988072Y-76900000D01*
X104975812Y-76775518D01*
X104939502Y-76655820D01*
X104880537Y-76545506D01*
X104801185Y-76448815D01*
X104704494Y-76369463D01*
X104594180Y-76310498D01*
X104521620Y-76288487D01*
X104653475Y-76156632D01*
X104815990Y-75913411D01*
X104927932Y-75643158D01*
X104985000Y-75356260D01*
X104985000Y-75063740D01*
X104927932Y-74776842D01*
X104815990Y-74506589D01*
X104653475Y-74263368D01*
X104446632Y-74056525D01*
X104272240Y-73940000D01*
X104446632Y-73823475D01*
X104653475Y-73616632D01*
X104815990Y-73373411D01*
X104927932Y-73103158D01*
X104985000Y-72816260D01*
X104985000Y-72523740D01*
X104927932Y-72236842D01*
X104815990Y-71966589D01*
X104653475Y-71723368D01*
X104446632Y-71516525D01*
X104272240Y-71400000D01*
X104446632Y-71283475D01*
X104653475Y-71076632D01*
X104778178Y-70890000D01*
X116511473Y-70890000D01*
X116430795Y-71010744D01*
X116352774Y-71199102D01*
X116313000Y-71399061D01*
X116313000Y-71602939D01*
X116352774Y-71802898D01*
X116430795Y-71991256D01*
X116544063Y-72160774D01*
X116688226Y-72304937D01*
X116857744Y-72418205D01*
X117046102Y-72496226D01*
X117223001Y-72531413D01*
X117223000Y-73940177D01*
X117219324Y-73977500D01*
X117223000Y-74014822D01*
X117223000Y-74014832D01*
X117233997Y-74126485D01*
X117256335Y-74200124D01*
X117245774Y-74189563D01*
X117076256Y-74076295D01*
X116887898Y-73998274D01*
X116687939Y-73958500D01*
X116484061Y-73958500D01*
X116284102Y-73998274D01*
X116095744Y-74076295D01*
X115926226Y-74189563D01*
X115782063Y-74333726D01*
X115668795Y-74503244D01*
X115590774Y-74691602D01*
X115551000Y-74891561D01*
X115551000Y-75095439D01*
X115590774Y-75295398D01*
X115668795Y-75483756D01*
X115782063Y-75653274D01*
X115926226Y-75797437D01*
X116095744Y-75910705D01*
X116284102Y-75988726D01*
X116484061Y-76028500D01*
X116687939Y-76028500D01*
X116887898Y-75988726D01*
X117076256Y-75910705D01*
X117245774Y-75797437D01*
X117289711Y-75753500D01*
X130346500Y-75753500D01*
X130346500Y-75920939D01*
X130386274Y-76120898D01*
X130464295Y-76309256D01*
X130577563Y-76478774D01*
X130632513Y-76533724D01*
X130675954Y-76676932D01*
X130690423Y-76704000D01*
X130746526Y-76808961D01*
X130796862Y-76870295D01*
X130841500Y-76924686D01*
X130870498Y-76948484D01*
X131574000Y-77651988D01*
X131574001Y-78956668D01*
X131570324Y-78994000D01*
X131584998Y-79142985D01*
X131628454Y-79286246D01*
X131699026Y-79418276D01*
X131770201Y-79505002D01*
X131794000Y-79534001D01*
X131822998Y-79557799D01*
X132532201Y-80267002D01*
X132555999Y-80296001D01*
X132671724Y-80390974D01*
X132803753Y-80461546D01*
X132947014Y-80505003D01*
X133058667Y-80516000D01*
X133058675Y-80516000D01*
X133096000Y-80519676D01*
X133133325Y-80516000D01*
X137607199Y-80516000D01*
X137966500Y-80875302D01*
X137966500Y-80937439D01*
X138006274Y-81137398D01*
X138084295Y-81325756D01*
X138197563Y-81495274D01*
X138341726Y-81639437D01*
X138511244Y-81752705D01*
X138699602Y-81830726D01*
X138899561Y-81870500D01*
X139103439Y-81870500D01*
X139303398Y-81830726D01*
X139491756Y-81752705D01*
X139661274Y-81639437D01*
X139805437Y-81495274D01*
X139918705Y-81325756D01*
X139996726Y-81137398D01*
X140036500Y-80937439D01*
X140036500Y-80733561D01*
X139996726Y-80533602D01*
X139918705Y-80345244D01*
X139805437Y-80175726D01*
X139661274Y-80031563D01*
X139491756Y-79918295D01*
X139303398Y-79840274D01*
X139103439Y-79800500D01*
X139041302Y-79800500D01*
X138485804Y-79245002D01*
X138462001Y-79215999D01*
X138346276Y-79121026D01*
X138214247Y-79050454D01*
X138070986Y-79006997D01*
X137959333Y-78996000D01*
X137959322Y-78996000D01*
X137922000Y-78992324D01*
X137884678Y-78996000D01*
X133410802Y-78996000D01*
X133094000Y-78679199D01*
X133094000Y-77374507D01*
X133097676Y-77337184D01*
X133094000Y-77299861D01*
X133094000Y-77299852D01*
X133083003Y-77188199D01*
X133039546Y-77044938D01*
X132968974Y-76912909D01*
X132920629Y-76854000D01*
X132897799Y-76826181D01*
X132897795Y-76826177D01*
X132874001Y-76797184D01*
X132845009Y-76773391D01*
X132322772Y-76251155D01*
X132376726Y-76120898D01*
X132416500Y-75920939D01*
X132416500Y-75753500D01*
X136115299Y-75753500D01*
X136159236Y-75797437D01*
X136328754Y-75910705D01*
X136517112Y-75988726D01*
X136717071Y-76028500D01*
X136784011Y-76028500D01*
X136784011Y-76064778D01*
X136740073Y-76108716D01*
X136626805Y-76278234D01*
X136548784Y-76466592D01*
X136509010Y-76666551D01*
X136509010Y-76870429D01*
X136548784Y-77070388D01*
X136626805Y-77258746D01*
X136740073Y-77428264D01*
X136884236Y-77572427D01*
X137053754Y-77685695D01*
X137242112Y-77763716D01*
X137442071Y-77803490D01*
X137645949Y-77803490D01*
X137845908Y-77763716D01*
X138034266Y-77685695D01*
X138203784Y-77572427D01*
X138347947Y-77428264D01*
X138461215Y-77258746D01*
X138539236Y-77070388D01*
X138579010Y-76870429D01*
X138579010Y-76666551D01*
X138539236Y-76466592D01*
X138461215Y-76278234D01*
X138347947Y-76108716D01*
X138304010Y-76064779D01*
X138304010Y-72582701D01*
X138347947Y-72538764D01*
X138461215Y-72369246D01*
X138506052Y-72261000D01*
X140266289Y-72261000D01*
X140268292Y-72263003D01*
X140166063Y-72365232D01*
X140052795Y-72534750D01*
X139974774Y-72723108D01*
X139935000Y-72923067D01*
X139935000Y-73004262D01*
X139868454Y-73128760D01*
X139864040Y-73143312D01*
X139826206Y-73268040D01*
X139824998Y-73272021D01*
X139810324Y-73421006D01*
X139814001Y-73458338D01*
X139814000Y-77035289D01*
X139770063Y-77079226D01*
X139656795Y-77248744D01*
X139578774Y-77437102D01*
X139539000Y-77637061D01*
X139539000Y-77840939D01*
X139578774Y-78040898D01*
X139656795Y-78229256D01*
X139770063Y-78398774D01*
X139914226Y-78542937D01*
X140083744Y-78656205D01*
X140272102Y-78734226D01*
X140472061Y-78774000D01*
X140675939Y-78774000D01*
X140875898Y-78734226D01*
X141035500Y-78668116D01*
X141035501Y-91656667D01*
X141031824Y-91694000D01*
X141036104Y-91737451D01*
X141014500Y-91846061D01*
X141014500Y-92049939D01*
X141054274Y-92249898D01*
X141132295Y-92438256D01*
X141245563Y-92607774D01*
X141389726Y-92751937D01*
X141559244Y-92865205D01*
X141747602Y-92943226D01*
X141947561Y-92983000D01*
X142151439Y-92983000D01*
X142351398Y-92943226D01*
X142539756Y-92865205D01*
X142709274Y-92751937D01*
X142853437Y-92607774D01*
X142966705Y-92438256D01*
X143044726Y-92249898D01*
X143084500Y-92049939D01*
X143084500Y-91846061D01*
X143044726Y-91646102D01*
X142966705Y-91457744D01*
X142853437Y-91288226D01*
X142709274Y-91144063D01*
X142555500Y-91041315D01*
X142555500Y-75493000D01*
X142695439Y-75493000D01*
X142895398Y-75453226D01*
X143083756Y-75375205D01*
X143253274Y-75261937D01*
X143361075Y-75154136D01*
X143429724Y-75210475D01*
X143561754Y-75281047D01*
X143705015Y-75324504D01*
X143816668Y-75335501D01*
X143816677Y-75335501D01*
X143854000Y-75339177D01*
X143891323Y-75335501D01*
X148622496Y-75335501D01*
X148547274Y-75517102D01*
X148507500Y-75717061D01*
X148507500Y-75920939D01*
X148547274Y-76120898D01*
X148625295Y-76309256D01*
X148738563Y-76478774D01*
X148782500Y-76522711D01*
X148782500Y-76704200D01*
X148101710Y-77384991D01*
X148001005Y-77384991D01*
X147909265Y-77335954D01*
X147766004Y-77292497D01*
X147654351Y-77281500D01*
X147654340Y-77281500D01*
X147617018Y-77277824D01*
X147579696Y-77281500D01*
X144531211Y-77281500D01*
X144487274Y-77237563D01*
X144317756Y-77124295D01*
X144129398Y-77046274D01*
X143929439Y-77006500D01*
X143725561Y-77006500D01*
X143525602Y-77046274D01*
X143337244Y-77124295D01*
X143167726Y-77237563D01*
X143023563Y-77381726D01*
X142910295Y-77551244D01*
X142832274Y-77739602D01*
X142792500Y-77939561D01*
X142792500Y-78143439D01*
X142832274Y-78343398D01*
X142910295Y-78531756D01*
X143023563Y-78701274D01*
X143167726Y-78845437D01*
X143337244Y-78958705D01*
X143525602Y-79036726D01*
X143725561Y-79076500D01*
X143929439Y-79076500D01*
X144129398Y-79036726D01*
X144317756Y-78958705D01*
X144487274Y-78845437D01*
X144531211Y-78801500D01*
X147336522Y-78801500D01*
X147428262Y-78850537D01*
X147571523Y-78893994D01*
X147683176Y-78904991D01*
X147683186Y-78904991D01*
X147720508Y-78908667D01*
X147757831Y-78904991D01*
X148379189Y-78904991D01*
X148416511Y-78908667D01*
X148453833Y-78904991D01*
X148453844Y-78904991D01*
X148565497Y-78893994D01*
X148708758Y-78850537D01*
X148840787Y-78779965D01*
X148956512Y-78684992D01*
X148980315Y-78655989D01*
X150053504Y-77582800D01*
X150082501Y-77559003D01*
X150123998Y-77508439D01*
X150177474Y-77443279D01*
X150248046Y-77311249D01*
X150263972Y-77258746D01*
X150291503Y-77167988D01*
X150302500Y-77056335D01*
X150302500Y-77056325D01*
X150306176Y-77019002D01*
X150302500Y-76981679D01*
X150302500Y-76522711D01*
X150346437Y-76478774D01*
X150459705Y-76309256D01*
X150537726Y-76120898D01*
X150577500Y-75920939D01*
X150577500Y-75838000D01*
X150723939Y-75838000D01*
X150923898Y-75798226D01*
X151112256Y-75720205D01*
X151281774Y-75606937D01*
X151425937Y-75462774D01*
X151539205Y-75293256D01*
X151617226Y-75104898D01*
X151657000Y-74904939D01*
X151657000Y-74701061D01*
X151617226Y-74501102D01*
X151539205Y-74312744D01*
X151425937Y-74143226D01*
X151281774Y-73999063D01*
X151112256Y-73885795D01*
X150923898Y-73807774D01*
X150723939Y-73768000D01*
X150520061Y-73768000D01*
X150320102Y-73807774D01*
X150301448Y-73815501D01*
X146831000Y-73815501D01*
X146831000Y-73748561D01*
X146791226Y-73548602D01*
X146713205Y-73360244D01*
X146599937Y-73190726D01*
X146556000Y-73146789D01*
X146556000Y-57287789D01*
X146667256Y-57241705D01*
X146836774Y-57128437D01*
X146980937Y-56984274D01*
X147094205Y-56814756D01*
X147172226Y-56626398D01*
X147212000Y-56426439D01*
X147212000Y-56222561D01*
X147172226Y-56022602D01*
X147094205Y-55834244D01*
X146980937Y-55664726D01*
X146836774Y-55520563D01*
X146667256Y-55407295D01*
X146478898Y-55329274D01*
X146278939Y-55289500D01*
X146105990Y-55289500D01*
X146105990Y-51869747D01*
X146161398Y-51858726D01*
X146349756Y-51780705D01*
X146519274Y-51667437D01*
X146663437Y-51523274D01*
X146776705Y-51353756D01*
X146854726Y-51165398D01*
X146894500Y-50965439D01*
X146894500Y-50761561D01*
X146854726Y-50561602D01*
X146776705Y-50373244D01*
X146663437Y-50203726D01*
X146519274Y-50059563D01*
X146349756Y-49946295D01*
X146161398Y-49868274D01*
X145961439Y-49828500D01*
X145757561Y-49828500D01*
X145557602Y-49868274D01*
X145369244Y-49946295D01*
X145199726Y-50059563D01*
X145055563Y-50203726D01*
X144942295Y-50373244D01*
X144864274Y-50561602D01*
X144824500Y-50761561D01*
X144824500Y-50821818D01*
X144805990Y-50837009D01*
X144782192Y-50866007D01*
X144782191Y-50866008D01*
X144711016Y-50952734D01*
X144640444Y-51084764D01*
X144596988Y-51228025D01*
X144582314Y-51377010D01*
X144585991Y-51414343D01*
X144585990Y-64971048D01*
X144437439Y-64941500D01*
X144233561Y-64941500D01*
X144033602Y-64981274D01*
X143845244Y-65059295D01*
X143675726Y-65172563D01*
X143531563Y-65316726D01*
X143418295Y-65486244D01*
X143340274Y-65674602D01*
X143334526Y-65703500D01*
X143154061Y-65703500D01*
X142999729Y-65734198D01*
X142957300Y-65682498D01*
X142933502Y-65653500D01*
X142904503Y-65629701D01*
X142422803Y-65148002D01*
X142399001Y-65118999D01*
X142283276Y-65024026D01*
X142151247Y-64953454D01*
X142007986Y-64909997D01*
X141896333Y-64899000D01*
X141896322Y-64899000D01*
X141859000Y-64895324D01*
X141821678Y-64899000D01*
X125092302Y-64899000D01*
X123632500Y-63439199D01*
X123632500Y-62128061D01*
X137395000Y-62128061D01*
X137395000Y-62331939D01*
X137434774Y-62531898D01*
X137512795Y-62720256D01*
X137626063Y-62889774D01*
X137770226Y-63033937D01*
X137939744Y-63147205D01*
X138128102Y-63225226D01*
X138328061Y-63265000D01*
X138531939Y-63265000D01*
X138731898Y-63225226D01*
X138920256Y-63147205D01*
X139089774Y-63033937D01*
X139233937Y-62889774D01*
X139347205Y-62720256D01*
X139425226Y-62531898D01*
X139465000Y-62331939D01*
X139465000Y-62128061D01*
X139425226Y-61928102D01*
X139347205Y-61739744D01*
X139233937Y-61570226D01*
X139089774Y-61426063D01*
X138920256Y-61312795D01*
X138731898Y-61234774D01*
X138531939Y-61195000D01*
X138328061Y-61195000D01*
X138128102Y-61234774D01*
X137939744Y-61312795D01*
X137770226Y-61426063D01*
X137626063Y-61570226D01*
X137512795Y-61739744D01*
X137434774Y-61928102D01*
X137395000Y-62128061D01*
X123632500Y-62128061D01*
X123632500Y-59536822D01*
X123636176Y-59499499D01*
X123632500Y-59462176D01*
X123632500Y-59462167D01*
X123621503Y-59350514D01*
X123578046Y-59207253D01*
X123507474Y-59075224D01*
X123412501Y-58959499D01*
X123383503Y-58935701D01*
X119435804Y-54988003D01*
X119412001Y-54958999D01*
X119296276Y-54864026D01*
X119164247Y-54793454D01*
X119020986Y-54749997D01*
X118909333Y-54739000D01*
X118909322Y-54739000D01*
X118872000Y-54735324D01*
X118834678Y-54739000D01*
X118242211Y-54739000D01*
X118198274Y-54695063D01*
X118028756Y-54581795D01*
X117840398Y-54503774D01*
X117640439Y-54464000D01*
X117436561Y-54464000D01*
X117236602Y-54503774D01*
X117048244Y-54581795D01*
X116878726Y-54695063D01*
X116734563Y-54839226D01*
X116621295Y-55008744D01*
X116543274Y-55197102D01*
X116503500Y-55397061D01*
X116503500Y-55600939D01*
X116543274Y-55800898D01*
X116621295Y-55989256D01*
X116734563Y-56158774D01*
X116878726Y-56302937D01*
X117048244Y-56416205D01*
X117236602Y-56494226D01*
X117436561Y-56534000D01*
X117640439Y-56534000D01*
X117840398Y-56494226D01*
X118028756Y-56416205D01*
X118198274Y-56302937D01*
X118242211Y-56259000D01*
X118557199Y-56259000D01*
X118995279Y-56697081D01*
X118889744Y-56740795D01*
X118720226Y-56854063D01*
X118576063Y-56998226D01*
X118462795Y-57167744D01*
X118384774Y-57356102D01*
X118345000Y-57556061D01*
X118345000Y-57759939D01*
X118384774Y-57959898D01*
X118462795Y-58148256D01*
X118576063Y-58317774D01*
X118606913Y-58348624D01*
X118589795Y-58374244D01*
X118511774Y-58562602D01*
X118472000Y-58762561D01*
X118472000Y-58966439D01*
X118511774Y-59166398D01*
X118589795Y-59354756D01*
X118703063Y-59524274D01*
X118847226Y-59668437D01*
X119016744Y-59781705D01*
X119205102Y-59859726D01*
X119405061Y-59899500D01*
X119608939Y-59899500D01*
X119808898Y-59859726D01*
X119997256Y-59781705D01*
X120166774Y-59668437D01*
X120310937Y-59524274D01*
X120424205Y-59354756D01*
X120502226Y-59166398D01*
X120523856Y-59057656D01*
X120679244Y-59213045D01*
X120608063Y-59284226D01*
X120494795Y-59453744D01*
X120416774Y-59642102D01*
X120377000Y-59842061D01*
X120377000Y-60045939D01*
X120416774Y-60245898D01*
X120494795Y-60434256D01*
X120608063Y-60603774D01*
X120652000Y-60647711D01*
X120652000Y-63968151D01*
X120601937Y-63893226D01*
X120457774Y-63749063D01*
X120288256Y-63635795D01*
X120099898Y-63557774D01*
X119899939Y-63518000D01*
X119696061Y-63518000D01*
X119496102Y-63557774D01*
X119307744Y-63635795D01*
X119138226Y-63749063D01*
X118994063Y-63893226D01*
X118880795Y-64062744D01*
X118802774Y-64251102D01*
X118763000Y-64451061D01*
X118763000Y-64654939D01*
X118802774Y-64854898D01*
X118880795Y-65043256D01*
X118994063Y-65212774D01*
X119138226Y-65356937D01*
X119307744Y-65470205D01*
X119496102Y-65548226D01*
X119696061Y-65588000D01*
X119899939Y-65588000D01*
X120099898Y-65548226D01*
X120288256Y-65470205D01*
X120457774Y-65356937D01*
X120601937Y-65212774D01*
X120652001Y-65137848D01*
X120652001Y-68646197D01*
X119928199Y-69370000D01*
X104778178Y-69370000D01*
X104653475Y-69183368D01*
X104446632Y-68976525D01*
X104203411Y-68814010D01*
X103933158Y-68702068D01*
X103646260Y-68645000D01*
X103353740Y-68645000D01*
X103066842Y-68702068D01*
X102796589Y-68814010D01*
X102553368Y-68976525D01*
X102346525Y-69183368D01*
X102184010Y-69426589D01*
X102072068Y-69696842D01*
X102015000Y-69983740D01*
X102015000Y-70276260D01*
X102072068Y-70563158D01*
X102184010Y-70833411D01*
X102346525Y-71076632D01*
X102553368Y-71283475D01*
X102727760Y-71400000D01*
X102553368Y-71516525D01*
X102346525Y-71723368D01*
X102184010Y-71966589D01*
X102072068Y-72236842D01*
X102015000Y-72523740D01*
X102015000Y-72816260D01*
X102072068Y-73103158D01*
X102184010Y-73373411D01*
X102346525Y-73616632D01*
X102553368Y-73823475D01*
X102727760Y-73940000D01*
X102553368Y-74056525D01*
X102346525Y-74263368D01*
X102184010Y-74506589D01*
X102072068Y-74776842D01*
X102015000Y-75063740D01*
X102015000Y-75356260D01*
X102072068Y-75643158D01*
X102184010Y-75913411D01*
X102346525Y-76156632D01*
X102478380Y-76288487D01*
X102405820Y-76310498D01*
X102295506Y-76369463D01*
X102198815Y-76448815D01*
X102119463Y-76545506D01*
X102060498Y-76655820D01*
X102024188Y-76775518D01*
X102011928Y-76900000D01*
X100922966Y-76900000D01*
X100922966Y-65063000D01*
X102016928Y-65063000D01*
X102016928Y-66763000D01*
X102029188Y-66887482D01*
X102065498Y-67007180D01*
X102124463Y-67117494D01*
X102203815Y-67214185D01*
X102300506Y-67293537D01*
X102410820Y-67352502D01*
X102530518Y-67388812D01*
X102655000Y-67401072D01*
X104355000Y-67401072D01*
X104479482Y-67388812D01*
X104599180Y-67352502D01*
X104709494Y-67293537D01*
X104806185Y-67214185D01*
X104885537Y-67117494D01*
X104944502Y-67007180D01*
X104980812Y-66887482D01*
X104993072Y-66763000D01*
X104993072Y-65063000D01*
X104980812Y-64938518D01*
X104944502Y-64818820D01*
X104885537Y-64708506D01*
X104806185Y-64611815D01*
X104709494Y-64532463D01*
X104599180Y-64473498D01*
X104526620Y-64451487D01*
X104658475Y-64319632D01*
X104820990Y-64076411D01*
X104932932Y-63806158D01*
X104990000Y-63519260D01*
X104990000Y-63226740D01*
X104946210Y-63006592D01*
X105191005Y-62761797D01*
X105220002Y-62738000D01*
X105314975Y-62622275D01*
X105385547Y-62490246D01*
X105429004Y-62346985D01*
X105440001Y-62235332D01*
X105440001Y-62235323D01*
X105443677Y-62198000D01*
X105440001Y-62160677D01*
X105440001Y-59505323D01*
X105443677Y-59468000D01*
X105440001Y-59430677D01*
X105440001Y-59430668D01*
X105429004Y-59319015D01*
X105385547Y-59175754D01*
X105314975Y-59043725D01*
X105220002Y-58928000D01*
X105190998Y-58904197D01*
X104946209Y-58659408D01*
X104990000Y-58439260D01*
X104990000Y-58146740D01*
X104932932Y-57859842D01*
X104820990Y-57589589D01*
X104658475Y-57346368D01*
X104451632Y-57139525D01*
X104277240Y-57023000D01*
X104451632Y-56906475D01*
X104658475Y-56699632D01*
X104820990Y-56456411D01*
X104932932Y-56186158D01*
X104990000Y-55899260D01*
X104990000Y-55606740D01*
X104932932Y-55319842D01*
X104820990Y-55049589D01*
X104658475Y-54806368D01*
X104451632Y-54599525D01*
X104277240Y-54483000D01*
X104451632Y-54366475D01*
X104658475Y-54159632D01*
X104820990Y-53916411D01*
X104932932Y-53646158D01*
X104990000Y-53359260D01*
X104990000Y-53066740D01*
X104946210Y-52846592D01*
X105191005Y-52601797D01*
X105220002Y-52578000D01*
X105314975Y-52462275D01*
X105385547Y-52330246D01*
X105429004Y-52186985D01*
X105440001Y-52075332D01*
X105440001Y-52075323D01*
X105443677Y-52038000D01*
X105440001Y-52000677D01*
X105440001Y-49345323D01*
X105443677Y-49308000D01*
X105440001Y-49270677D01*
X105440001Y-49270668D01*
X105429004Y-49159015D01*
X105385547Y-49015754D01*
X105314975Y-48883725D01*
X105220002Y-48768000D01*
X105190998Y-48744197D01*
X104946209Y-48499408D01*
X104990000Y-48279260D01*
X104990000Y-47986740D01*
X104932932Y-47699842D01*
X104820990Y-47429589D01*
X104658475Y-47186368D01*
X104451632Y-46979525D01*
X104208411Y-46817010D01*
X103938158Y-46705068D01*
X103651260Y-46648000D01*
X103358740Y-46648000D01*
X103071842Y-46705068D01*
X102801589Y-46817010D01*
X102558368Y-46979525D01*
X102351525Y-47186368D01*
X102189010Y-47429589D01*
X102077068Y-47699842D01*
X102020000Y-47986740D01*
X102020000Y-48279260D01*
X102077068Y-48566158D01*
X102189010Y-48836411D01*
X102351525Y-49079632D01*
X102558368Y-49286475D01*
X102732760Y-49403000D01*
X102558368Y-49519525D01*
X102351525Y-49726368D01*
X102189010Y-49969589D01*
X102077068Y-50239842D01*
X102020000Y-50526740D01*
X102020000Y-50819260D01*
X102077068Y-51106158D01*
X102189010Y-51376411D01*
X102351525Y-51619632D01*
X102558368Y-51826475D01*
X102732760Y-51943000D01*
X102558368Y-52059525D01*
X102351525Y-52266368D01*
X102189010Y-52509589D01*
X102077068Y-52779842D01*
X102020000Y-53066740D01*
X102020000Y-53359260D01*
X102077068Y-53646158D01*
X102189010Y-53916411D01*
X102351525Y-54159632D01*
X102558368Y-54366475D01*
X102732760Y-54483000D01*
X102558368Y-54599525D01*
X102351525Y-54806368D01*
X102189010Y-55049589D01*
X102077068Y-55319842D01*
X102020000Y-55606740D01*
X102020000Y-55899260D01*
X102077068Y-56186158D01*
X102189010Y-56456411D01*
X102351525Y-56699632D01*
X102558368Y-56906475D01*
X102732760Y-57023000D01*
X102558368Y-57139525D01*
X102351525Y-57346368D01*
X102189010Y-57589589D01*
X102077068Y-57859842D01*
X102020000Y-58146740D01*
X102020000Y-58439260D01*
X102077068Y-58726158D01*
X102189010Y-58996411D01*
X102351525Y-59239632D01*
X102558368Y-59446475D01*
X102732760Y-59563000D01*
X102558368Y-59679525D01*
X102351525Y-59886368D01*
X102189010Y-60129589D01*
X102077068Y-60399842D01*
X102020000Y-60686740D01*
X102020000Y-60979260D01*
X102077068Y-61266158D01*
X102189010Y-61536411D01*
X102351525Y-61779632D01*
X102558368Y-61986475D01*
X102732760Y-62103000D01*
X102558368Y-62219525D01*
X102351525Y-62426368D01*
X102189010Y-62669589D01*
X102077068Y-62939842D01*
X102020000Y-63226740D01*
X102020000Y-63519260D01*
X102077068Y-63806158D01*
X102189010Y-64076411D01*
X102351525Y-64319632D01*
X102483380Y-64451487D01*
X102410820Y-64473498D01*
X102300506Y-64532463D01*
X102203815Y-64611815D01*
X102124463Y-64708506D01*
X102065498Y-64818820D01*
X102029188Y-64938518D01*
X102016928Y-65063000D01*
X100922966Y-65063000D01*
X100922966Y-46557628D01*
X102135453Y-45496702D01*
X102354506Y-45643069D01*
X102794608Y-45825365D01*
X103261818Y-45918299D01*
X103738182Y-45918299D01*
X104205392Y-45825365D01*
X104645494Y-45643069D01*
X105041576Y-45378415D01*
X105378415Y-45041576D01*
X105643069Y-44645494D01*
X105825365Y-44205392D01*
X105885514Y-43903000D01*
X108620928Y-43903000D01*
X108633188Y-44027482D01*
X108669498Y-44147180D01*
X108728463Y-44257494D01*
X108807815Y-44354185D01*
X108904506Y-44433537D01*
X109014820Y-44492502D01*
X109134518Y-44528812D01*
X109259000Y-44541072D01*
X109823250Y-44538000D01*
X109982000Y-44379250D01*
X109982000Y-43180000D01*
X108782750Y-43180000D01*
X108624000Y-43338750D01*
X108620928Y-43903000D01*
X105885514Y-43903000D01*
X105918299Y-43738182D01*
X105918299Y-43261818D01*
X105825365Y-42794608D01*
X105665272Y-42408110D01*
X105899683Y-42203000D01*
X108620928Y-42203000D01*
X108624000Y-42767250D01*
X108782750Y-42926000D01*
X109982000Y-42926000D01*
X109982000Y-41726750D01*
X110236000Y-41726750D01*
X110236000Y-42926000D01*
X110256000Y-42926000D01*
X110256000Y-43180000D01*
X110236000Y-43180000D01*
X110236000Y-44379250D01*
X110394750Y-44538000D01*
X110959000Y-44541072D01*
X111083482Y-44528812D01*
X111203180Y-44492502D01*
X111313494Y-44433537D01*
X111410185Y-44354185D01*
X111489537Y-44257494D01*
X111548502Y-44147180D01*
X111570513Y-44074620D01*
X111702368Y-44206475D01*
X111945589Y-44368990D01*
X112215842Y-44480932D01*
X112502740Y-44538000D01*
X112795260Y-44538000D01*
X113082158Y-44480932D01*
X113352411Y-44368990D01*
X113595632Y-44206475D01*
X113802475Y-43999632D01*
X113919000Y-43825240D01*
X114035525Y-43999632D01*
X114242368Y-44206475D01*
X114485589Y-44368990D01*
X114755842Y-44480932D01*
X115042740Y-44538000D01*
X115335260Y-44538000D01*
X115622158Y-44480932D01*
X115892411Y-44368990D01*
X116135632Y-44206475D01*
X116342475Y-43999632D01*
X116504990Y-43756411D01*
X116616932Y-43486158D01*
X116674000Y-43199260D01*
X116674000Y-42906740D01*
X116616932Y-42619842D01*
X116504990Y-42349589D01*
X116342475Y-42106368D01*
X116135632Y-41899525D01*
X115892411Y-41737010D01*
X115622158Y-41625068D01*
X115335260Y-41568000D01*
X115042740Y-41568000D01*
X114755842Y-41625068D01*
X114485589Y-41737010D01*
X114242368Y-41899525D01*
X114035525Y-42106368D01*
X113919000Y-42280760D01*
X113802475Y-42106368D01*
X113595632Y-41899525D01*
X113352411Y-41737010D01*
X113082158Y-41625068D01*
X112795260Y-41568000D01*
X112502740Y-41568000D01*
X112215842Y-41625068D01*
X111945589Y-41737010D01*
X111702368Y-41899525D01*
X111570513Y-42031380D01*
X111548502Y-41958820D01*
X111489537Y-41848506D01*
X111410185Y-41751815D01*
X111313494Y-41672463D01*
X111203180Y-41613498D01*
X111083482Y-41577188D01*
X110959000Y-41564928D01*
X110394750Y-41568000D01*
X110236000Y-41726750D01*
X109982000Y-41726750D01*
X109823250Y-41568000D01*
X109259000Y-41564928D01*
X109134518Y-41577188D01*
X109014820Y-41613498D01*
X108904506Y-41672463D01*
X108807815Y-41751815D01*
X108728463Y-41848506D01*
X108669498Y-41958820D01*
X108633188Y-42078518D01*
X108620928Y-42203000D01*
X105899683Y-42203000D01*
X106843684Y-41377000D01*
X118167145Y-41377000D01*
X117430901Y-42113244D01*
G37*
X117430901Y-42113244D02*
X117392368Y-42144867D01*
X117360745Y-42183400D01*
X117360744Y-42183401D01*
X117266154Y-42298660D01*
X117172368Y-42474121D01*
X117114615Y-42664506D01*
X117095114Y-42862500D01*
X117100001Y-42912118D01*
X117100000Y-46466493D01*
X117087615Y-46507321D01*
X117068114Y-46705315D01*
X117073000Y-46754923D01*
X117073000Y-47043377D01*
X117048000Y-47169061D01*
X117048000Y-47372939D01*
X117087774Y-47572898D01*
X117165795Y-47761256D01*
X117279063Y-47930774D01*
X117423226Y-48074937D01*
X117592744Y-48188205D01*
X117781102Y-48266226D01*
X117981061Y-48306000D01*
X118184939Y-48306000D01*
X118384898Y-48266226D01*
X118573256Y-48188205D01*
X118742774Y-48074937D01*
X118886937Y-47930774D01*
X119000205Y-47761256D01*
X119078226Y-47572898D01*
X119118000Y-47372939D01*
X119118000Y-47169061D01*
X119093000Y-47043377D01*
X119093000Y-46917137D01*
X119105385Y-46876309D01*
X119120000Y-46727923D01*
X119120000Y-46727922D01*
X119124886Y-46678315D01*
X119120000Y-46628707D01*
X119120000Y-43854391D01*
X131273519Y-43854391D01*
X131370843Y-44128752D01*
X131519822Y-44378855D01*
X131714731Y-44595088D01*
X131948080Y-44769141D01*
X132210901Y-44894325D01*
X132358110Y-44938976D01*
X132588000Y-44817655D01*
X132588000Y-43624500D01*
X131394186Y-43624500D01*
X131273519Y-43854391D01*
X119120000Y-43854391D01*
X119120000Y-43280855D01*
X120053130Y-42347725D01*
X131813895Y-42325946D01*
X131714731Y-42399912D01*
X131519822Y-42616145D01*
X131370843Y-42866248D01*
X131273519Y-43140609D01*
X131394186Y-43370500D01*
X132588000Y-43370500D01*
X132588000Y-43350500D01*
X132842000Y-43350500D01*
X132842000Y-43370500D01*
X132862000Y-43370500D01*
X132862000Y-43624500D01*
X132842000Y-43624500D01*
X132842000Y-44817655D01*
X133071890Y-44938976D01*
X133219099Y-44894325D01*
X133481920Y-44769141D01*
X133715269Y-44595088D01*
X133910178Y-44378855D01*
X133979805Y-44261966D01*
X134101525Y-44444132D01*
X134308368Y-44650975D01*
X134551589Y-44813490D01*
X134821842Y-44925432D01*
X135108740Y-44982500D01*
X135401260Y-44982500D01*
X135621408Y-44938709D01*
X137294700Y-46612002D01*
X137318499Y-46641001D01*
X137347497Y-46664799D01*
X137434223Y-46735974D01*
X137566253Y-46806546D01*
X137709514Y-46850003D01*
X137821167Y-46861000D01*
X137821177Y-46861000D01*
X137858499Y-46864676D01*
X137895822Y-46861000D01*
X146116199Y-46861000D01*
X147866990Y-48611792D01*
X147866991Y-61362288D01*
X147823053Y-61406226D01*
X147709785Y-61575744D01*
X147631764Y-61764102D01*
X147618656Y-61830000D01*
X147535561Y-61830000D01*
X147335602Y-61869774D01*
X147147244Y-61947795D01*
X146977726Y-62061063D01*
X146833563Y-62205226D01*
X146720295Y-62374744D01*
X146642274Y-62563102D01*
X146602500Y-62763061D01*
X146602500Y-62966939D01*
X146642274Y-63166898D01*
X146720295Y-63355256D01*
X146833563Y-63524774D01*
X146977726Y-63668937D01*
X147147244Y-63782205D01*
X147335602Y-63860226D01*
X147535561Y-63900000D01*
X147739439Y-63900000D01*
X147939398Y-63860226D01*
X148127756Y-63782205D01*
X148297274Y-63668937D01*
X148341211Y-63625000D01*
X148648289Y-63625000D01*
X148692226Y-63668937D01*
X148861744Y-63782205D01*
X149050102Y-63860226D01*
X149250061Y-63900000D01*
X149354000Y-63900000D01*
X149354000Y-65748677D01*
X149350324Y-65786000D01*
X149354000Y-65823322D01*
X149354000Y-65823332D01*
X149364997Y-65934985D01*
X149377082Y-65974823D01*
X149408454Y-66078246D01*
X149479026Y-66210276D01*
X149510186Y-66248244D01*
X149573999Y-66326001D01*
X149603003Y-66349804D01*
X151111000Y-67857802D01*
X151111000Y-67919939D01*
X151150774Y-68119898D01*
X151228795Y-68308256D01*
X151342063Y-68477774D01*
X151486226Y-68621937D01*
X151655744Y-68735205D01*
X151844102Y-68813226D01*
X152044061Y-68853000D01*
X152188562Y-68853000D01*
X152184726Y-68855563D01*
X152040563Y-68999726D01*
X151927295Y-69169244D01*
X151849274Y-69357602D01*
X151809500Y-69557561D01*
X151809500Y-69761439D01*
X151849274Y-69961398D01*
X151927295Y-70149756D01*
X152040563Y-70319274D01*
X152084500Y-70363211D01*
X152084501Y-76418565D01*
X152066898Y-76411274D01*
X151866939Y-76371500D01*
X151663061Y-76371500D01*
X151463102Y-76411274D01*
X151274744Y-76489295D01*
X151105226Y-76602563D01*
X150961063Y-76746726D01*
X150847795Y-76916244D01*
X150769774Y-77104602D01*
X150730000Y-77304561D01*
X150730000Y-77508439D01*
X150769774Y-77708398D01*
X150847795Y-77896756D01*
X150961063Y-78066274D01*
X151105226Y-78210437D01*
X151274744Y-78323705D01*
X151463102Y-78401726D01*
X151663061Y-78441500D01*
X151866939Y-78441500D01*
X152066898Y-78401726D01*
X152084500Y-78394435D01*
X152084501Y-87307288D01*
X152040563Y-87351226D01*
X151927295Y-87520744D01*
X151849274Y-87709102D01*
X151809500Y-87909061D01*
X151809500Y-88112939D01*
X151849274Y-88312898D01*
X151927295Y-88501256D01*
X152040563Y-88670774D01*
X152184726Y-88814937D01*
X152354244Y-88928205D01*
X152542602Y-89006226D01*
X152742561Y-89046000D01*
X152946439Y-89046000D01*
X153146398Y-89006226D01*
X153334756Y-88928205D01*
X153504274Y-88814937D01*
X153648437Y-88670774D01*
X153761705Y-88501256D01*
X153839726Y-88312898D01*
X153879500Y-88112939D01*
X153879500Y-87909061D01*
X153839726Y-87709102D01*
X153761705Y-87520744D01*
X153648437Y-87351226D01*
X153604500Y-87307289D01*
X153604500Y-75971061D01*
X155873500Y-75971061D01*
X155873500Y-76174939D01*
X155913274Y-76374898D01*
X155991295Y-76563256D01*
X156104563Y-76732774D01*
X156248726Y-76876937D01*
X156418244Y-76990205D01*
X156606602Y-77068226D01*
X156806561Y-77108000D01*
X157010439Y-77108000D01*
X157210398Y-77068226D01*
X157398756Y-76990205D01*
X157568274Y-76876937D01*
X157612211Y-76833000D01*
X158141178Y-76833000D01*
X158178500Y-76836676D01*
X158215822Y-76833000D01*
X158215833Y-76833000D01*
X158327486Y-76822003D01*
X158470747Y-76778546D01*
X158602776Y-76707974D01*
X158718501Y-76613001D01*
X158742303Y-76583998D01*
X159642009Y-75684294D01*
X159671001Y-75660501D01*
X159694795Y-75631508D01*
X159694799Y-75631504D01*
X159765973Y-75544777D01*
X159765974Y-75544776D01*
X159836546Y-75412747D01*
X159880003Y-75269486D01*
X159880634Y-75263077D01*
X159934937Y-75208774D01*
X160048205Y-75039256D01*
X160126226Y-74850898D01*
X160166000Y-74650939D01*
X160166000Y-74447061D01*
X160126226Y-74247102D01*
X160048205Y-74058744D01*
X159934937Y-73889226D01*
X159790774Y-73745063D01*
X159621256Y-73631795D01*
X159432898Y-73553774D01*
X159232939Y-73514000D01*
X159029061Y-73514000D01*
X158829102Y-73553774D01*
X158640744Y-73631795D01*
X158471226Y-73745063D01*
X158327063Y-73889226D01*
X158213795Y-74058744D01*
X158135774Y-74247102D01*
X158096000Y-74447061D01*
X158096000Y-74650939D01*
X158135774Y-74850898D01*
X158191432Y-74985266D01*
X157863699Y-75313000D01*
X157612211Y-75313000D01*
X157568274Y-75269063D01*
X157398756Y-75155795D01*
X157210398Y-75077774D01*
X157010439Y-75038000D01*
X156806561Y-75038000D01*
X156606602Y-75077774D01*
X156418244Y-75155795D01*
X156248726Y-75269063D01*
X156104563Y-75413226D01*
X155991295Y-75582744D01*
X155913274Y-75771102D01*
X155873500Y-75971061D01*
X153604500Y-75971061D01*
X153604500Y-70363211D01*
X153648437Y-70319274D01*
X153761705Y-70149756D01*
X153839726Y-69961398D01*
X153879500Y-69761439D01*
X153879500Y-69557561D01*
X153839726Y-69357602D01*
X153761705Y-69169244D01*
X153648437Y-68999726D01*
X153504274Y-68855563D01*
X153349372Y-68752061D01*
X154068990Y-68752061D01*
X154068990Y-68955939D01*
X154108764Y-69155898D01*
X154186785Y-69344256D01*
X154300053Y-69513774D01*
X154444216Y-69657937D01*
X154613734Y-69771205D01*
X154688001Y-69801967D01*
X154688000Y-70035289D01*
X154644063Y-70079226D01*
X154530795Y-70248744D01*
X154452774Y-70437102D01*
X154413000Y-70637061D01*
X154413000Y-70840939D01*
X154452774Y-71040898D01*
X154530795Y-71229256D01*
X154644063Y-71398774D01*
X154788226Y-71542937D01*
X154957744Y-71656205D01*
X155146102Y-71734226D01*
X155346061Y-71774000D01*
X155549939Y-71774000D01*
X155749898Y-71734226D01*
X155938256Y-71656205D01*
X156107774Y-71542937D01*
X156251937Y-71398774D01*
X156365205Y-71229256D01*
X156443226Y-71040898D01*
X156483000Y-70840939D01*
X156483000Y-70637061D01*
X156443226Y-70437102D01*
X156365205Y-70248744D01*
X156251937Y-70079226D01*
X156208000Y-70035289D01*
X156208000Y-69235343D01*
X156211677Y-69198010D01*
X156197003Y-69049024D01*
X156153546Y-68905763D01*
X156138990Y-68878531D01*
X156138990Y-68752061D01*
X156099216Y-68552102D01*
X156021195Y-68363744D01*
X155907927Y-68194226D01*
X155763764Y-68050063D01*
X155594246Y-67936795D01*
X155405888Y-67858774D01*
X155205929Y-67819000D01*
X155002051Y-67819000D01*
X154802092Y-67858774D01*
X154613734Y-67936795D01*
X154444216Y-68050063D01*
X154300053Y-68194226D01*
X154186785Y-68363744D01*
X154108764Y-68552102D01*
X154068990Y-68752061D01*
X153349372Y-68752061D01*
X153334756Y-68742295D01*
X153146398Y-68664274D01*
X152946439Y-68624500D01*
X152801938Y-68624500D01*
X152805774Y-68621937D01*
X152949937Y-68477774D01*
X153063205Y-68308256D01*
X153141226Y-68119898D01*
X153181000Y-67919939D01*
X153181000Y-67716061D01*
X153141226Y-67516102D01*
X153063205Y-67327744D01*
X152949937Y-67158226D01*
X152805774Y-67014063D01*
X152636256Y-66900795D01*
X152447898Y-66822774D01*
X152247939Y-66783000D01*
X152185802Y-66783000D01*
X150874000Y-65471199D01*
X150874000Y-61695825D01*
X150877676Y-61658500D01*
X150874000Y-61621175D01*
X150874000Y-61621167D01*
X150863003Y-61509514D01*
X150819546Y-61366253D01*
X150748974Y-61234224D01*
X150654001Y-61118499D01*
X150625002Y-61094701D01*
X150112000Y-60581699D01*
X150112000Y-57337801D01*
X150942504Y-56507298D01*
X150971501Y-56483501D01*
X151066474Y-56367776D01*
X151137046Y-56235747D01*
X151180503Y-56092486D01*
X151191500Y-55980833D01*
X151191500Y-55980832D01*
X151195177Y-55943500D01*
X151191500Y-55906167D01*
X151191500Y-48233833D01*
X151195177Y-48196500D01*
X151180503Y-48047514D01*
X151137046Y-47904253D01*
X151066474Y-47772224D01*
X150995299Y-47685497D01*
X150971501Y-47656499D01*
X150942503Y-47632701D01*
X148328304Y-45018503D01*
X148304501Y-44989499D01*
X148233886Y-44931547D01*
X148333994Y-44878037D01*
X148430685Y-44798685D01*
X148510037Y-44701994D01*
X148569002Y-44591680D01*
X148605312Y-44471982D01*
X148617572Y-44347500D01*
X148617572Y-42647500D01*
X148605312Y-42523018D01*
X148569002Y-42403320D01*
X148511116Y-42295025D01*
X151118052Y-42290197D01*
X152209500Y-43116158D01*
X152209500Y-59817000D01*
X152211940Y-59841776D01*
X152219167Y-59865601D01*
X152230903Y-59887557D01*
X152246697Y-59906803D01*
X153289000Y-60949106D01*
X153289000Y-64325500D01*
X153291440Y-64350276D01*
X153298667Y-64374101D01*
X153310403Y-64396057D01*
X153326197Y-64415303D01*
X153345443Y-64431097D01*
X153367399Y-64442833D01*
X153391224Y-64450060D01*
X153416000Y-64452500D01*
X153670862Y-64452500D01*
X153565795Y-64609744D01*
X153487774Y-64798102D01*
X153448000Y-64998061D01*
X153448000Y-65201939D01*
X153487774Y-65401898D01*
X153565795Y-65590256D01*
X153679063Y-65759774D01*
X153823226Y-65903937D01*
X153992744Y-66017205D01*
X154181102Y-66095226D01*
X154381061Y-66135000D01*
X154584939Y-66135000D01*
X154784898Y-66095226D01*
X154973256Y-66017205D01*
X155142774Y-65903937D01*
X155286937Y-65759774D01*
X155400205Y-65590256D01*
X155478226Y-65401898D01*
X155518000Y-65201939D01*
X155518000Y-64998061D01*
X155478226Y-64798102D01*
X155400205Y-64609744D01*
X155295138Y-64452500D01*
X158822489Y-64452500D01*
X161163747Y-66916234D01*
X161168132Y-82120678D01*
X161141437Y-82080726D01*
X160997274Y-81936563D01*
X160827756Y-81823295D01*
X160639398Y-81745274D01*
X160439439Y-81705500D01*
X160235561Y-81705500D01*
X160035602Y-81745274D01*
X159847244Y-81823295D01*
X159677726Y-81936563D01*
X159533563Y-82080726D01*
X159420295Y-82250244D01*
X159342274Y-82438602D01*
X159302500Y-82638561D01*
X159302500Y-82842439D01*
X159342274Y-83042398D01*
X159420295Y-83230756D01*
X159533563Y-83400274D01*
X159677726Y-83544437D01*
X159847244Y-83657705D01*
X160035602Y-83735726D01*
X160235561Y-83775500D01*
X160439439Y-83775500D01*
X160639398Y-83735726D01*
X160827756Y-83657705D01*
X160997274Y-83544437D01*
X161141437Y-83400274D01*
X161168489Y-83359787D01*
X161172963Y-98873000D01*
X106598572Y-98873000D01*
X105534120Y-97808548D01*
X105643069Y-97645494D01*
X105771447Y-97335561D01*
X153940000Y-97335561D01*
X153940000Y-97539439D01*
X153979774Y-97739398D01*
X154057795Y-97927756D01*
X154171063Y-98097274D01*
X154315226Y-98241437D01*
X154484744Y-98354705D01*
X154673102Y-98432726D01*
X154873061Y-98472500D01*
X155076939Y-98472500D01*
X155276898Y-98432726D01*
X155465256Y-98354705D01*
X155634774Y-98241437D01*
X155778937Y-98097274D01*
X155892205Y-97927756D01*
X155970226Y-97739398D01*
X156010000Y-97539439D01*
X156010000Y-97335561D01*
X155970226Y-97135602D01*
X155892205Y-96947244D01*
X155778937Y-96777726D01*
X155634774Y-96633563D01*
X155465256Y-96520295D01*
X155276898Y-96442274D01*
X155076939Y-96402500D01*
X154873061Y-96402500D01*
X154673102Y-96442274D01*
X154484744Y-96520295D01*
X154315226Y-96633563D01*
X154171063Y-96777726D01*
X154057795Y-96947244D01*
X153979774Y-97135602D01*
X153940000Y-97335561D01*
X105771447Y-97335561D01*
X105825365Y-97205392D01*
X105918299Y-96738182D01*
X105918299Y-96261818D01*
X105825365Y-95794608D01*
X105643069Y-95354506D01*
X105378415Y-94958424D01*
X105041576Y-94621585D01*
X104645494Y-94356931D01*
X104205392Y-94174635D01*
X103738182Y-94081701D01*
X103261818Y-94081701D01*
X102794608Y-94174635D01*
X102354506Y-94356931D01*
X102191452Y-94465880D01*
X100922966Y-93197394D01*
X100922966Y-88398061D01*
X106265000Y-88398061D01*
X106265000Y-88601939D01*
X106304774Y-88801898D01*
X106382795Y-88990256D01*
X106496063Y-89159774D01*
X106640226Y-89303937D01*
X106809744Y-89417205D01*
X106998102Y-89495226D01*
X107198061Y-89535000D01*
X107401939Y-89535000D01*
X107601898Y-89495226D01*
X107790256Y-89417205D01*
X107959774Y-89303937D01*
X108103937Y-89159774D01*
X108217205Y-88990256D01*
X108295226Y-88801898D01*
X108335000Y-88601939D01*
X108335000Y-88398061D01*
X108295226Y-88198102D01*
X108217205Y-88009744D01*
X108103937Y-87840226D01*
X108060000Y-87796289D01*
X108060000Y-87714801D01*
X108414802Y-87360000D01*
X108571440Y-87360000D01*
X108515000Y-87643740D01*
X108515000Y-87936260D01*
X108572068Y-88223158D01*
X108684010Y-88493411D01*
X108846525Y-88736632D01*
X109053368Y-88943475D01*
X109227760Y-89060000D01*
X109053368Y-89176525D01*
X108846525Y-89383368D01*
X108684010Y-89626589D01*
X108572068Y-89896842D01*
X108515000Y-90183740D01*
X108515000Y-90476260D01*
X108572068Y-90763158D01*
X108684010Y-91033411D01*
X108846525Y-91276632D01*
X109053368Y-91483475D01*
X109227760Y-91600000D01*
X109053368Y-91716525D01*
X108846525Y-91923368D01*
X108684010Y-92166589D01*
X108572068Y-92436842D01*
X108515000Y-92723740D01*
X108515000Y-93016260D01*
X108572068Y-93303158D01*
X108684010Y-93573411D01*
X108846525Y-93816632D01*
X109053368Y-94023475D01*
X109227760Y-94140000D01*
X109053368Y-94256525D01*
X108846525Y-94463368D01*
X108684010Y-94706589D01*
X108572068Y-94976842D01*
X108515000Y-95263740D01*
X108515000Y-95556260D01*
X108572068Y-95843158D01*
X108684010Y-96113411D01*
X108846525Y-96356632D01*
X109053368Y-96563475D01*
X109296589Y-96725990D01*
X109566842Y-96837932D01*
X109853740Y-96895000D01*
X110146260Y-96895000D01*
X110433158Y-96837932D01*
X110703411Y-96725990D01*
X110946632Y-96563475D01*
X111153475Y-96356632D01*
X111270000Y-96182240D01*
X111386525Y-96356632D01*
X111593368Y-96563475D01*
X111836589Y-96725990D01*
X112106842Y-96837932D01*
X112393740Y-96895000D01*
X112686260Y-96895000D01*
X112973158Y-96837932D01*
X113243411Y-96725990D01*
X113486632Y-96563475D01*
X113693475Y-96356632D01*
X113855990Y-96113411D01*
X113967932Y-95843158D01*
X114025000Y-95556260D01*
X114025000Y-95263740D01*
X113967932Y-94976842D01*
X113855990Y-94706589D01*
X113693475Y-94463368D01*
X113486632Y-94256525D01*
X113312240Y-94140000D01*
X113486632Y-94023475D01*
X113693475Y-93816632D01*
X113855990Y-93573411D01*
X113967932Y-93303158D01*
X114025000Y-93016260D01*
X114025000Y-92723740D01*
X113967932Y-92436842D01*
X113855990Y-92166589D01*
X113693475Y-91923368D01*
X113486632Y-91716525D01*
X113312240Y-91600000D01*
X113486632Y-91483475D01*
X113693475Y-91276632D01*
X113855990Y-91033411D01*
X113967932Y-90763158D01*
X114025000Y-90476260D01*
X114025000Y-90183740D01*
X113967932Y-89896842D01*
X113855990Y-89626589D01*
X113693475Y-89383368D01*
X113486632Y-89176525D01*
X113312240Y-89060000D01*
X113486632Y-88943475D01*
X113693475Y-88736632D01*
X113855990Y-88493411D01*
X113967932Y-88223158D01*
X114025000Y-87936260D01*
X114025000Y-87643740D01*
X113967932Y-87356842D01*
X113855990Y-87086589D01*
X113693475Y-86843368D01*
X113486632Y-86636525D01*
X113312240Y-86520000D01*
X113486632Y-86403475D01*
X113693475Y-86196632D01*
X113855990Y-85953411D01*
X113967932Y-85683158D01*
X114025000Y-85396260D01*
X114025000Y-85103740D01*
X113967932Y-84816842D01*
X113855990Y-84546589D01*
X113693475Y-84303368D01*
X113486632Y-84096525D01*
X113243411Y-83934010D01*
X112973158Y-83822068D01*
X112686260Y-83765000D01*
X112393740Y-83765000D01*
X112106842Y-83822068D01*
X111836589Y-83934010D01*
X111593368Y-84096525D01*
X111461513Y-84228380D01*
X111439502Y-84155820D01*
X111380537Y-84045506D01*
X111301185Y-83948815D01*
X111204494Y-83869463D01*
X111094180Y-83810498D01*
X110974482Y-83774188D01*
X110850000Y-83761928D01*
X109150000Y-83761928D01*
X109025518Y-83774188D01*
X108905820Y-83810498D01*
X108795506Y-83869463D01*
X108698815Y-83948815D01*
X108619463Y-84045506D01*
X108560498Y-84155820D01*
X108524188Y-84275518D01*
X108511928Y-84400000D01*
X108511928Y-85840000D01*
X108137323Y-85840000D01*
X108100000Y-85836324D01*
X108062677Y-85840000D01*
X108062667Y-85840000D01*
X107951014Y-85850997D01*
X107807753Y-85894454D01*
X107675724Y-85965026D01*
X107559999Y-86059999D01*
X107536201Y-86088998D01*
X106788998Y-86836201D01*
X106760000Y-86859999D01*
X106736202Y-86888997D01*
X106736201Y-86888998D01*
X106665026Y-86975724D01*
X106594454Y-87107754D01*
X106550998Y-87251015D01*
X106536324Y-87400000D01*
X106540001Y-87437332D01*
X106540001Y-87796288D01*
X106496063Y-87840226D01*
X106382795Y-88009744D01*
X106304774Y-88198102D01*
X106265000Y-88398061D01*
X100922966Y-88398061D01*
X100922966Y-84343061D01*
X102777500Y-84343061D01*
X102777500Y-84546939D01*
X102817274Y-84746898D01*
X102895295Y-84935256D01*
X103008563Y-85104774D01*
X103152726Y-85248937D01*
X103322244Y-85362205D01*
X103510602Y-85440226D01*
X103710561Y-85480000D01*
X103914439Y-85480000D01*
X104114398Y-85440226D01*
X104302756Y-85362205D01*
X104472274Y-85248937D01*
X104616437Y-85104774D01*
X104729705Y-84935256D01*
X104807726Y-84746898D01*
X104847500Y-84546939D01*
X104847500Y-84343061D01*
X104807726Y-84143102D01*
X104729705Y-83954744D01*
X104616437Y-83785226D01*
X104472274Y-83641063D01*
X104302756Y-83527795D01*
X104114398Y-83449774D01*
X103914439Y-83410000D01*
X103710561Y-83410000D01*
X103510602Y-83449774D01*
X103322244Y-83527795D01*
X103152726Y-83641063D01*
X103008563Y-83785226D01*
X102895295Y-83954744D01*
X102817274Y-84143102D01*
X102777500Y-84343061D01*
X100922966Y-84343061D01*
X100922966Y-76900000D01*
X102011928Y-76900000D01*
X102011928Y-78600000D01*
X102024188Y-78724482D01*
X102060498Y-78844180D01*
X102119463Y-78954494D01*
X102198815Y-79051185D01*
X102295506Y-79130537D01*
X102405820Y-79189502D01*
X102525518Y-79225812D01*
X102650000Y-79238072D01*
X104350000Y-79238072D01*
X104474482Y-79225812D01*
X104594180Y-79189502D01*
X104704494Y-79130537D01*
X104801185Y-79051185D01*
X104880537Y-78954494D01*
X104939502Y-78844180D01*
X104975812Y-78724482D01*
X104988072Y-78600000D01*
X104988072Y-77685561D01*
X119043500Y-77685561D01*
X119043500Y-77889439D01*
X119083274Y-78089398D01*
X119161295Y-78277756D01*
X119274563Y-78447274D01*
X119418726Y-78591437D01*
X119588244Y-78704705D01*
X119776602Y-78782726D01*
X119976561Y-78822500D01*
X120180439Y-78822500D01*
X120380398Y-78782726D01*
X120568756Y-78704705D01*
X120738274Y-78591437D01*
X120882437Y-78447274D01*
X120995705Y-78277756D01*
X121073726Y-78089398D01*
X121113500Y-77889439D01*
X121113500Y-77685561D01*
X121073726Y-77485602D01*
X120995705Y-77297244D01*
X120882437Y-77127726D01*
X120738274Y-76983563D01*
X120568756Y-76870295D01*
X120380398Y-76792274D01*
X120180439Y-76752500D01*
X119976561Y-76752500D01*
X119776602Y-76792274D01*
X119588244Y-76870295D01*
X119418726Y-76983563D01*
X119274563Y-77127726D01*
X119161295Y-77297244D01*
X119083274Y-77485602D01*
X119043500Y-77685561D01*
X104988072Y-77685561D01*
X104988072Y-76900000D01*
X104975812Y-76775518D01*
X104939502Y-76655820D01*
X104880537Y-76545506D01*
X104801185Y-76448815D01*
X104704494Y-76369463D01*
X104594180Y-76310498D01*
X104521620Y-76288487D01*
X104653475Y-76156632D01*
X104815990Y-75913411D01*
X104927932Y-75643158D01*
X104985000Y-75356260D01*
X104985000Y-75063740D01*
X104927932Y-74776842D01*
X104815990Y-74506589D01*
X104653475Y-74263368D01*
X104446632Y-74056525D01*
X104272240Y-73940000D01*
X104446632Y-73823475D01*
X104653475Y-73616632D01*
X104815990Y-73373411D01*
X104927932Y-73103158D01*
X104985000Y-72816260D01*
X104985000Y-72523740D01*
X104927932Y-72236842D01*
X104815990Y-71966589D01*
X104653475Y-71723368D01*
X104446632Y-71516525D01*
X104272240Y-71400000D01*
X104446632Y-71283475D01*
X104653475Y-71076632D01*
X104778178Y-70890000D01*
X116511473Y-70890000D01*
X116430795Y-71010744D01*
X116352774Y-71199102D01*
X116313000Y-71399061D01*
X116313000Y-71602939D01*
X116352774Y-71802898D01*
X116430795Y-71991256D01*
X116544063Y-72160774D01*
X116688226Y-72304937D01*
X116857744Y-72418205D01*
X117046102Y-72496226D01*
X117223001Y-72531413D01*
X117223000Y-73940177D01*
X117219324Y-73977500D01*
X117223000Y-74014822D01*
X117223000Y-74014832D01*
X117233997Y-74126485D01*
X117256335Y-74200124D01*
X117245774Y-74189563D01*
X117076256Y-74076295D01*
X116887898Y-73998274D01*
X116687939Y-73958500D01*
X116484061Y-73958500D01*
X116284102Y-73998274D01*
X116095744Y-74076295D01*
X115926226Y-74189563D01*
X115782063Y-74333726D01*
X115668795Y-74503244D01*
X115590774Y-74691602D01*
X115551000Y-74891561D01*
X115551000Y-75095439D01*
X115590774Y-75295398D01*
X115668795Y-75483756D01*
X115782063Y-75653274D01*
X115926226Y-75797437D01*
X116095744Y-75910705D01*
X116284102Y-75988726D01*
X116484061Y-76028500D01*
X116687939Y-76028500D01*
X116887898Y-75988726D01*
X117076256Y-75910705D01*
X117245774Y-75797437D01*
X117289711Y-75753500D01*
X130346500Y-75753500D01*
X130346500Y-75920939D01*
X130386274Y-76120898D01*
X130464295Y-76309256D01*
X130577563Y-76478774D01*
X130632513Y-76533724D01*
X130675954Y-76676932D01*
X130690423Y-76704000D01*
X130746526Y-76808961D01*
X130796862Y-76870295D01*
X130841500Y-76924686D01*
X130870498Y-76948484D01*
X131574000Y-77651988D01*
X131574001Y-78956668D01*
X131570324Y-78994000D01*
X131584998Y-79142985D01*
X131628454Y-79286246D01*
X131699026Y-79418276D01*
X131770201Y-79505002D01*
X131794000Y-79534001D01*
X131822998Y-79557799D01*
X132532201Y-80267002D01*
X132555999Y-80296001D01*
X132671724Y-80390974D01*
X132803753Y-80461546D01*
X132947014Y-80505003D01*
X133058667Y-80516000D01*
X133058675Y-80516000D01*
X133096000Y-80519676D01*
X133133325Y-80516000D01*
X137607199Y-80516000D01*
X137966500Y-80875302D01*
X137966500Y-80937439D01*
X138006274Y-81137398D01*
X138084295Y-81325756D01*
X138197563Y-81495274D01*
X138341726Y-81639437D01*
X138511244Y-81752705D01*
X138699602Y-81830726D01*
X138899561Y-81870500D01*
X139103439Y-81870500D01*
X139303398Y-81830726D01*
X139491756Y-81752705D01*
X139661274Y-81639437D01*
X139805437Y-81495274D01*
X139918705Y-81325756D01*
X139996726Y-81137398D01*
X140036500Y-80937439D01*
X140036500Y-80733561D01*
X139996726Y-80533602D01*
X139918705Y-80345244D01*
X139805437Y-80175726D01*
X139661274Y-80031563D01*
X139491756Y-79918295D01*
X139303398Y-79840274D01*
X139103439Y-79800500D01*
X139041302Y-79800500D01*
X138485804Y-79245002D01*
X138462001Y-79215999D01*
X138346276Y-79121026D01*
X138214247Y-79050454D01*
X138070986Y-79006997D01*
X137959333Y-78996000D01*
X137959322Y-78996000D01*
X137922000Y-78992324D01*
X137884678Y-78996000D01*
X133410802Y-78996000D01*
X133094000Y-78679199D01*
X133094000Y-77374507D01*
X133097676Y-77337184D01*
X133094000Y-77299861D01*
X133094000Y-77299852D01*
X133083003Y-77188199D01*
X133039546Y-77044938D01*
X132968974Y-76912909D01*
X132920629Y-76854000D01*
X132897799Y-76826181D01*
X132897795Y-76826177D01*
X132874001Y-76797184D01*
X132845009Y-76773391D01*
X132322772Y-76251155D01*
X132376726Y-76120898D01*
X132416500Y-75920939D01*
X132416500Y-75753500D01*
X136115299Y-75753500D01*
X136159236Y-75797437D01*
X136328754Y-75910705D01*
X136517112Y-75988726D01*
X136717071Y-76028500D01*
X136784011Y-76028500D01*
X136784011Y-76064778D01*
X136740073Y-76108716D01*
X136626805Y-76278234D01*
X136548784Y-76466592D01*
X136509010Y-76666551D01*
X136509010Y-76870429D01*
X136548784Y-77070388D01*
X136626805Y-77258746D01*
X136740073Y-77428264D01*
X136884236Y-77572427D01*
X137053754Y-77685695D01*
X137242112Y-77763716D01*
X137442071Y-77803490D01*
X137645949Y-77803490D01*
X137845908Y-77763716D01*
X138034266Y-77685695D01*
X138203784Y-77572427D01*
X138347947Y-77428264D01*
X138461215Y-77258746D01*
X138539236Y-77070388D01*
X138579010Y-76870429D01*
X138579010Y-76666551D01*
X138539236Y-76466592D01*
X138461215Y-76278234D01*
X138347947Y-76108716D01*
X138304010Y-76064779D01*
X138304010Y-72582701D01*
X138347947Y-72538764D01*
X138461215Y-72369246D01*
X138506052Y-72261000D01*
X140266289Y-72261000D01*
X140268292Y-72263003D01*
X140166063Y-72365232D01*
X140052795Y-72534750D01*
X139974774Y-72723108D01*
X139935000Y-72923067D01*
X139935000Y-73004262D01*
X139868454Y-73128760D01*
X139864040Y-73143312D01*
X139826206Y-73268040D01*
X139824998Y-73272021D01*
X139810324Y-73421006D01*
X139814001Y-73458338D01*
X139814000Y-77035289D01*
X139770063Y-77079226D01*
X139656795Y-77248744D01*
X139578774Y-77437102D01*
X139539000Y-77637061D01*
X139539000Y-77840939D01*
X139578774Y-78040898D01*
X139656795Y-78229256D01*
X139770063Y-78398774D01*
X139914226Y-78542937D01*
X140083744Y-78656205D01*
X140272102Y-78734226D01*
X140472061Y-78774000D01*
X140675939Y-78774000D01*
X140875898Y-78734226D01*
X141035500Y-78668116D01*
X141035501Y-91656667D01*
X141031824Y-91694000D01*
X141036104Y-91737451D01*
X141014500Y-91846061D01*
X141014500Y-92049939D01*
X141054274Y-92249898D01*
X141132295Y-92438256D01*
X141245563Y-92607774D01*
X141389726Y-92751937D01*
X141559244Y-92865205D01*
X141747602Y-92943226D01*
X141947561Y-92983000D01*
X142151439Y-92983000D01*
X142351398Y-92943226D01*
X142539756Y-92865205D01*
X142709274Y-92751937D01*
X142853437Y-92607774D01*
X142966705Y-92438256D01*
X143044726Y-92249898D01*
X143084500Y-92049939D01*
X143084500Y-91846061D01*
X143044726Y-91646102D01*
X142966705Y-91457744D01*
X142853437Y-91288226D01*
X142709274Y-91144063D01*
X142555500Y-91041315D01*
X142555500Y-75493000D01*
X142695439Y-75493000D01*
X142895398Y-75453226D01*
X143083756Y-75375205D01*
X143253274Y-75261937D01*
X143361075Y-75154136D01*
X143429724Y-75210475D01*
X143561754Y-75281047D01*
X143705015Y-75324504D01*
X143816668Y-75335501D01*
X143816677Y-75335501D01*
X143854000Y-75339177D01*
X143891323Y-75335501D01*
X148622496Y-75335501D01*
X148547274Y-75517102D01*
X148507500Y-75717061D01*
X148507500Y-75920939D01*
X148547274Y-76120898D01*
X148625295Y-76309256D01*
X148738563Y-76478774D01*
X148782500Y-76522711D01*
X148782500Y-76704200D01*
X148101710Y-77384991D01*
X148001005Y-77384991D01*
X147909265Y-77335954D01*
X147766004Y-77292497D01*
X147654351Y-77281500D01*
X147654340Y-77281500D01*
X147617018Y-77277824D01*
X147579696Y-77281500D01*
X144531211Y-77281500D01*
X144487274Y-77237563D01*
X144317756Y-77124295D01*
X144129398Y-77046274D01*
X143929439Y-77006500D01*
X143725561Y-77006500D01*
X143525602Y-77046274D01*
X143337244Y-77124295D01*
X143167726Y-77237563D01*
X143023563Y-77381726D01*
X142910295Y-77551244D01*
X142832274Y-77739602D01*
X142792500Y-77939561D01*
X142792500Y-78143439D01*
X142832274Y-78343398D01*
X142910295Y-78531756D01*
X143023563Y-78701274D01*
X143167726Y-78845437D01*
X143337244Y-78958705D01*
X143525602Y-79036726D01*
X143725561Y-79076500D01*
X143929439Y-79076500D01*
X144129398Y-79036726D01*
X144317756Y-78958705D01*
X144487274Y-78845437D01*
X144531211Y-78801500D01*
X147336522Y-78801500D01*
X147428262Y-78850537D01*
X147571523Y-78893994D01*
X147683176Y-78904991D01*
X147683186Y-78904991D01*
X147720508Y-78908667D01*
X147757831Y-78904991D01*
X148379189Y-78904991D01*
X148416511Y-78908667D01*
X148453833Y-78904991D01*
X148453844Y-78904991D01*
X148565497Y-78893994D01*
X148708758Y-78850537D01*
X148840787Y-78779965D01*
X148956512Y-78684992D01*
X148980315Y-78655989D01*
X150053504Y-77582800D01*
X150082501Y-77559003D01*
X150123998Y-77508439D01*
X150177474Y-77443279D01*
X150248046Y-77311249D01*
X150263972Y-77258746D01*
X150291503Y-77167988D01*
X150302500Y-77056335D01*
X150302500Y-77056325D01*
X150306176Y-77019002D01*
X150302500Y-76981679D01*
X150302500Y-76522711D01*
X150346437Y-76478774D01*
X150459705Y-76309256D01*
X150537726Y-76120898D01*
X150577500Y-75920939D01*
X150577500Y-75838000D01*
X150723939Y-75838000D01*
X150923898Y-75798226D01*
X151112256Y-75720205D01*
X151281774Y-75606937D01*
X151425937Y-75462774D01*
X151539205Y-75293256D01*
X151617226Y-75104898D01*
X151657000Y-74904939D01*
X151657000Y-74701061D01*
X151617226Y-74501102D01*
X151539205Y-74312744D01*
X151425937Y-74143226D01*
X151281774Y-73999063D01*
X151112256Y-73885795D01*
X150923898Y-73807774D01*
X150723939Y-73768000D01*
X150520061Y-73768000D01*
X150320102Y-73807774D01*
X150301448Y-73815501D01*
X146831000Y-73815501D01*
X146831000Y-73748561D01*
X146791226Y-73548602D01*
X146713205Y-73360244D01*
X146599937Y-73190726D01*
X146556000Y-73146789D01*
X146556000Y-57287789D01*
X146667256Y-57241705D01*
X146836774Y-57128437D01*
X146980937Y-56984274D01*
X147094205Y-56814756D01*
X147172226Y-56626398D01*
X147212000Y-56426439D01*
X147212000Y-56222561D01*
X147172226Y-56022602D01*
X147094205Y-55834244D01*
X146980937Y-55664726D01*
X146836774Y-55520563D01*
X146667256Y-55407295D01*
X146478898Y-55329274D01*
X146278939Y-55289500D01*
X146105990Y-55289500D01*
X146105990Y-51869747D01*
X146161398Y-51858726D01*
X146349756Y-51780705D01*
X146519274Y-51667437D01*
X146663437Y-51523274D01*
X146776705Y-51353756D01*
X146854726Y-51165398D01*
X146894500Y-50965439D01*
X146894500Y-50761561D01*
X146854726Y-50561602D01*
X146776705Y-50373244D01*
X146663437Y-50203726D01*
X146519274Y-50059563D01*
X146349756Y-49946295D01*
X146161398Y-49868274D01*
X145961439Y-49828500D01*
X145757561Y-49828500D01*
X145557602Y-49868274D01*
X145369244Y-49946295D01*
X145199726Y-50059563D01*
X145055563Y-50203726D01*
X144942295Y-50373244D01*
X144864274Y-50561602D01*
X144824500Y-50761561D01*
X144824500Y-50821818D01*
X144805990Y-50837009D01*
X144782192Y-50866007D01*
X144782191Y-50866008D01*
X144711016Y-50952734D01*
X144640444Y-51084764D01*
X144596988Y-51228025D01*
X144582314Y-51377010D01*
X144585991Y-51414343D01*
X144585990Y-64971048D01*
X144437439Y-64941500D01*
X144233561Y-64941500D01*
X144033602Y-64981274D01*
X143845244Y-65059295D01*
X143675726Y-65172563D01*
X143531563Y-65316726D01*
X143418295Y-65486244D01*
X143340274Y-65674602D01*
X143334526Y-65703500D01*
X143154061Y-65703500D01*
X142999729Y-65734198D01*
X142957300Y-65682498D01*
X142933502Y-65653500D01*
X142904503Y-65629701D01*
X142422803Y-65148002D01*
X142399001Y-65118999D01*
X142283276Y-65024026D01*
X142151247Y-64953454D01*
X142007986Y-64909997D01*
X141896333Y-64899000D01*
X141896322Y-64899000D01*
X141859000Y-64895324D01*
X141821678Y-64899000D01*
X125092302Y-64899000D01*
X123632500Y-63439199D01*
X123632500Y-62128061D01*
X137395000Y-62128061D01*
X137395000Y-62331939D01*
X137434774Y-62531898D01*
X137512795Y-62720256D01*
X137626063Y-62889774D01*
X137770226Y-63033937D01*
X137939744Y-63147205D01*
X138128102Y-63225226D01*
X138328061Y-63265000D01*
X138531939Y-63265000D01*
X138731898Y-63225226D01*
X138920256Y-63147205D01*
X139089774Y-63033937D01*
X139233937Y-62889774D01*
X139347205Y-62720256D01*
X139425226Y-62531898D01*
X139465000Y-62331939D01*
X139465000Y-62128061D01*
X139425226Y-61928102D01*
X139347205Y-61739744D01*
X139233937Y-61570226D01*
X139089774Y-61426063D01*
X138920256Y-61312795D01*
X138731898Y-61234774D01*
X138531939Y-61195000D01*
X138328061Y-61195000D01*
X138128102Y-61234774D01*
X137939744Y-61312795D01*
X137770226Y-61426063D01*
X137626063Y-61570226D01*
X137512795Y-61739744D01*
X137434774Y-61928102D01*
X137395000Y-62128061D01*
X123632500Y-62128061D01*
X123632500Y-59536822D01*
X123636176Y-59499499D01*
X123632500Y-59462176D01*
X123632500Y-59462167D01*
X123621503Y-59350514D01*
X123578046Y-59207253D01*
X123507474Y-59075224D01*
X123412501Y-58959499D01*
X123383503Y-58935701D01*
X119435804Y-54988003D01*
X119412001Y-54958999D01*
X119296276Y-54864026D01*
X119164247Y-54793454D01*
X119020986Y-54749997D01*
X118909333Y-54739000D01*
X118909322Y-54739000D01*
X118872000Y-54735324D01*
X118834678Y-54739000D01*
X118242211Y-54739000D01*
X118198274Y-54695063D01*
X118028756Y-54581795D01*
X117840398Y-54503774D01*
X117640439Y-54464000D01*
X117436561Y-54464000D01*
X117236602Y-54503774D01*
X117048244Y-54581795D01*
X116878726Y-54695063D01*
X116734563Y-54839226D01*
X116621295Y-55008744D01*
X116543274Y-55197102D01*
X116503500Y-55397061D01*
X116503500Y-55600939D01*
X116543274Y-55800898D01*
X116621295Y-55989256D01*
X116734563Y-56158774D01*
X116878726Y-56302937D01*
X117048244Y-56416205D01*
X117236602Y-56494226D01*
X117436561Y-56534000D01*
X117640439Y-56534000D01*
X117840398Y-56494226D01*
X118028756Y-56416205D01*
X118198274Y-56302937D01*
X118242211Y-56259000D01*
X118557199Y-56259000D01*
X118995279Y-56697081D01*
X118889744Y-56740795D01*
X118720226Y-56854063D01*
X118576063Y-56998226D01*
X118462795Y-57167744D01*
X118384774Y-57356102D01*
X118345000Y-57556061D01*
X118345000Y-57759939D01*
X118384774Y-57959898D01*
X118462795Y-58148256D01*
X118576063Y-58317774D01*
X118606913Y-58348624D01*
X118589795Y-58374244D01*
X118511774Y-58562602D01*
X118472000Y-58762561D01*
X118472000Y-58966439D01*
X118511774Y-59166398D01*
X118589795Y-59354756D01*
X118703063Y-59524274D01*
X118847226Y-59668437D01*
X119016744Y-59781705D01*
X119205102Y-59859726D01*
X119405061Y-59899500D01*
X119608939Y-59899500D01*
X119808898Y-59859726D01*
X119997256Y-59781705D01*
X120166774Y-59668437D01*
X120310937Y-59524274D01*
X120424205Y-59354756D01*
X120502226Y-59166398D01*
X120523856Y-59057656D01*
X120679244Y-59213045D01*
X120608063Y-59284226D01*
X120494795Y-59453744D01*
X120416774Y-59642102D01*
X120377000Y-59842061D01*
X120377000Y-60045939D01*
X120416774Y-60245898D01*
X120494795Y-60434256D01*
X120608063Y-60603774D01*
X120652000Y-60647711D01*
X120652000Y-63968151D01*
X120601937Y-63893226D01*
X120457774Y-63749063D01*
X120288256Y-63635795D01*
X120099898Y-63557774D01*
X119899939Y-63518000D01*
X119696061Y-63518000D01*
X119496102Y-63557774D01*
X119307744Y-63635795D01*
X119138226Y-63749063D01*
X118994063Y-63893226D01*
X118880795Y-64062744D01*
X118802774Y-64251102D01*
X118763000Y-64451061D01*
X118763000Y-64654939D01*
X118802774Y-64854898D01*
X118880795Y-65043256D01*
X118994063Y-65212774D01*
X119138226Y-65356937D01*
X119307744Y-65470205D01*
X119496102Y-65548226D01*
X119696061Y-65588000D01*
X119899939Y-65588000D01*
X120099898Y-65548226D01*
X120288256Y-65470205D01*
X120457774Y-65356937D01*
X120601937Y-65212774D01*
X120652001Y-65137848D01*
X120652001Y-68646197D01*
X119928199Y-69370000D01*
X104778178Y-69370000D01*
X104653475Y-69183368D01*
X104446632Y-68976525D01*
X104203411Y-68814010D01*
X103933158Y-68702068D01*
X103646260Y-68645000D01*
X103353740Y-68645000D01*
X103066842Y-68702068D01*
X102796589Y-68814010D01*
X102553368Y-68976525D01*
X102346525Y-69183368D01*
X102184010Y-69426589D01*
X102072068Y-69696842D01*
X102015000Y-69983740D01*
X102015000Y-70276260D01*
X102072068Y-70563158D01*
X102184010Y-70833411D01*
X102346525Y-71076632D01*
X102553368Y-71283475D01*
X102727760Y-71400000D01*
X102553368Y-71516525D01*
X102346525Y-71723368D01*
X102184010Y-71966589D01*
X102072068Y-72236842D01*
X102015000Y-72523740D01*
X102015000Y-72816260D01*
X102072068Y-73103158D01*
X102184010Y-73373411D01*
X102346525Y-73616632D01*
X102553368Y-73823475D01*
X102727760Y-73940000D01*
X102553368Y-74056525D01*
X102346525Y-74263368D01*
X102184010Y-74506589D01*
X102072068Y-74776842D01*
X102015000Y-75063740D01*
X102015000Y-75356260D01*
X102072068Y-75643158D01*
X102184010Y-75913411D01*
X102346525Y-76156632D01*
X102478380Y-76288487D01*
X102405820Y-76310498D01*
X102295506Y-76369463D01*
X102198815Y-76448815D01*
X102119463Y-76545506D01*
X102060498Y-76655820D01*
X102024188Y-76775518D01*
X102011928Y-76900000D01*
X100922966Y-76900000D01*
X100922966Y-65063000D01*
X102016928Y-65063000D01*
X102016928Y-66763000D01*
X102029188Y-66887482D01*
X102065498Y-67007180D01*
X102124463Y-67117494D01*
X102203815Y-67214185D01*
X102300506Y-67293537D01*
X102410820Y-67352502D01*
X102530518Y-67388812D01*
X102655000Y-67401072D01*
X104355000Y-67401072D01*
X104479482Y-67388812D01*
X104599180Y-67352502D01*
X104709494Y-67293537D01*
X104806185Y-67214185D01*
X104885537Y-67117494D01*
X104944502Y-67007180D01*
X104980812Y-66887482D01*
X104993072Y-66763000D01*
X104993072Y-65063000D01*
X104980812Y-64938518D01*
X104944502Y-64818820D01*
X104885537Y-64708506D01*
X104806185Y-64611815D01*
X104709494Y-64532463D01*
X104599180Y-64473498D01*
X104526620Y-64451487D01*
X104658475Y-64319632D01*
X104820990Y-64076411D01*
X104932932Y-63806158D01*
X104990000Y-63519260D01*
X104990000Y-63226740D01*
X104946210Y-63006592D01*
X105191005Y-62761797D01*
X105220002Y-62738000D01*
X105314975Y-62622275D01*
X105385547Y-62490246D01*
X105429004Y-62346985D01*
X105440001Y-62235332D01*
X105440001Y-62235323D01*
X105443677Y-62198000D01*
X105440001Y-62160677D01*
X105440001Y-59505323D01*
X105443677Y-59468000D01*
X105440001Y-59430677D01*
X105440001Y-59430668D01*
X105429004Y-59319015D01*
X105385547Y-59175754D01*
X105314975Y-59043725D01*
X105220002Y-58928000D01*
X105190998Y-58904197D01*
X104946209Y-58659408D01*
X104990000Y-58439260D01*
X104990000Y-58146740D01*
X104932932Y-57859842D01*
X104820990Y-57589589D01*
X104658475Y-57346368D01*
X104451632Y-57139525D01*
X104277240Y-57023000D01*
X104451632Y-56906475D01*
X104658475Y-56699632D01*
X104820990Y-56456411D01*
X104932932Y-56186158D01*
X104990000Y-55899260D01*
X104990000Y-55606740D01*
X104932932Y-55319842D01*
X104820990Y-55049589D01*
X104658475Y-54806368D01*
X104451632Y-54599525D01*
X104277240Y-54483000D01*
X104451632Y-54366475D01*
X104658475Y-54159632D01*
X104820990Y-53916411D01*
X104932932Y-53646158D01*
X104990000Y-53359260D01*
X104990000Y-53066740D01*
X104946210Y-52846592D01*
X105191005Y-52601797D01*
X105220002Y-52578000D01*
X105314975Y-52462275D01*
X105385547Y-52330246D01*
X105429004Y-52186985D01*
X105440001Y-52075332D01*
X105440001Y-52075323D01*
X105443677Y-52038000D01*
X105440001Y-52000677D01*
X105440001Y-49345323D01*
X105443677Y-49308000D01*
X105440001Y-49270677D01*
X105440001Y-49270668D01*
X105429004Y-49159015D01*
X105385547Y-49015754D01*
X105314975Y-48883725D01*
X105220002Y-48768000D01*
X105190998Y-48744197D01*
X104946209Y-48499408D01*
X104990000Y-48279260D01*
X104990000Y-47986740D01*
X104932932Y-47699842D01*
X104820990Y-47429589D01*
X104658475Y-47186368D01*
X104451632Y-46979525D01*
X104208411Y-46817010D01*
X103938158Y-46705068D01*
X103651260Y-46648000D01*
X103358740Y-46648000D01*
X103071842Y-46705068D01*
X102801589Y-46817010D01*
X102558368Y-46979525D01*
X102351525Y-47186368D01*
X102189010Y-47429589D01*
X102077068Y-47699842D01*
X102020000Y-47986740D01*
X102020000Y-48279260D01*
X102077068Y-48566158D01*
X102189010Y-48836411D01*
X102351525Y-49079632D01*
X102558368Y-49286475D01*
X102732760Y-49403000D01*
X102558368Y-49519525D01*
X102351525Y-49726368D01*
X102189010Y-49969589D01*
X102077068Y-50239842D01*
X102020000Y-50526740D01*
X102020000Y-50819260D01*
X102077068Y-51106158D01*
X102189010Y-51376411D01*
X102351525Y-51619632D01*
X102558368Y-51826475D01*
X102732760Y-51943000D01*
X102558368Y-52059525D01*
X102351525Y-52266368D01*
X102189010Y-52509589D01*
X102077068Y-52779842D01*
X102020000Y-53066740D01*
X102020000Y-53359260D01*
X102077068Y-53646158D01*
X102189010Y-53916411D01*
X102351525Y-54159632D01*
X102558368Y-54366475D01*
X102732760Y-54483000D01*
X102558368Y-54599525D01*
X102351525Y-54806368D01*
X102189010Y-55049589D01*
X102077068Y-55319842D01*
X102020000Y-55606740D01*
X102020000Y-55899260D01*
X102077068Y-56186158D01*
X102189010Y-56456411D01*
X102351525Y-56699632D01*
X102558368Y-56906475D01*
X102732760Y-57023000D01*
X102558368Y-57139525D01*
X102351525Y-57346368D01*
X102189010Y-57589589D01*
X102077068Y-57859842D01*
X102020000Y-58146740D01*
X102020000Y-58439260D01*
X102077068Y-58726158D01*
X102189010Y-58996411D01*
X102351525Y-59239632D01*
X102558368Y-59446475D01*
X102732760Y-59563000D01*
X102558368Y-59679525D01*
X102351525Y-59886368D01*
X102189010Y-60129589D01*
X102077068Y-60399842D01*
X102020000Y-60686740D01*
X102020000Y-60979260D01*
X102077068Y-61266158D01*
X102189010Y-61536411D01*
X102351525Y-61779632D01*
X102558368Y-61986475D01*
X102732760Y-62103000D01*
X102558368Y-62219525D01*
X102351525Y-62426368D01*
X102189010Y-62669589D01*
X102077068Y-62939842D01*
X102020000Y-63226740D01*
X102020000Y-63519260D01*
X102077068Y-63806158D01*
X102189010Y-64076411D01*
X102351525Y-64319632D01*
X102483380Y-64451487D01*
X102410820Y-64473498D01*
X102300506Y-64532463D01*
X102203815Y-64611815D01*
X102124463Y-64708506D01*
X102065498Y-64818820D01*
X102029188Y-64938518D01*
X102016928Y-65063000D01*
X100922966Y-65063000D01*
X100922966Y-46557628D01*
X102135453Y-45496702D01*
X102354506Y-45643069D01*
X102794608Y-45825365D01*
X103261818Y-45918299D01*
X103738182Y-45918299D01*
X104205392Y-45825365D01*
X104645494Y-45643069D01*
X105041576Y-45378415D01*
X105378415Y-45041576D01*
X105643069Y-44645494D01*
X105825365Y-44205392D01*
X105885514Y-43903000D01*
X108620928Y-43903000D01*
X108633188Y-44027482D01*
X108669498Y-44147180D01*
X108728463Y-44257494D01*
X108807815Y-44354185D01*
X108904506Y-44433537D01*
X109014820Y-44492502D01*
X109134518Y-44528812D01*
X109259000Y-44541072D01*
X109823250Y-44538000D01*
X109982000Y-44379250D01*
X109982000Y-43180000D01*
X108782750Y-43180000D01*
X108624000Y-43338750D01*
X108620928Y-43903000D01*
X105885514Y-43903000D01*
X105918299Y-43738182D01*
X105918299Y-43261818D01*
X105825365Y-42794608D01*
X105665272Y-42408110D01*
X105899683Y-42203000D01*
X108620928Y-42203000D01*
X108624000Y-42767250D01*
X108782750Y-42926000D01*
X109982000Y-42926000D01*
X109982000Y-41726750D01*
X110236000Y-41726750D01*
X110236000Y-42926000D01*
X110256000Y-42926000D01*
X110256000Y-43180000D01*
X110236000Y-43180000D01*
X110236000Y-44379250D01*
X110394750Y-44538000D01*
X110959000Y-44541072D01*
X111083482Y-44528812D01*
X111203180Y-44492502D01*
X111313494Y-44433537D01*
X111410185Y-44354185D01*
X111489537Y-44257494D01*
X111548502Y-44147180D01*
X111570513Y-44074620D01*
X111702368Y-44206475D01*
X111945589Y-44368990D01*
X112215842Y-44480932D01*
X112502740Y-44538000D01*
X112795260Y-44538000D01*
X113082158Y-44480932D01*
X113352411Y-44368990D01*
X113595632Y-44206475D01*
X113802475Y-43999632D01*
X113919000Y-43825240D01*
X114035525Y-43999632D01*
X114242368Y-44206475D01*
X114485589Y-44368990D01*
X114755842Y-44480932D01*
X115042740Y-44538000D01*
X115335260Y-44538000D01*
X115622158Y-44480932D01*
X115892411Y-44368990D01*
X116135632Y-44206475D01*
X116342475Y-43999632D01*
X116504990Y-43756411D01*
X116616932Y-43486158D01*
X116674000Y-43199260D01*
X116674000Y-42906740D01*
X116616932Y-42619842D01*
X116504990Y-42349589D01*
X116342475Y-42106368D01*
X116135632Y-41899525D01*
X115892411Y-41737010D01*
X115622158Y-41625068D01*
X115335260Y-41568000D01*
X115042740Y-41568000D01*
X114755842Y-41625068D01*
X114485589Y-41737010D01*
X114242368Y-41899525D01*
X114035525Y-42106368D01*
X113919000Y-42280760D01*
X113802475Y-42106368D01*
X113595632Y-41899525D01*
X113352411Y-41737010D01*
X113082158Y-41625068D01*
X112795260Y-41568000D01*
X112502740Y-41568000D01*
X112215842Y-41625068D01*
X111945589Y-41737010D01*
X111702368Y-41899525D01*
X111570513Y-42031380D01*
X111548502Y-41958820D01*
X111489537Y-41848506D01*
X111410185Y-41751815D01*
X111313494Y-41672463D01*
X111203180Y-41613498D01*
X111083482Y-41577188D01*
X110959000Y-41564928D01*
X110394750Y-41568000D01*
X110236000Y-41726750D01*
X109982000Y-41726750D01*
X109823250Y-41568000D01*
X109259000Y-41564928D01*
X109134518Y-41577188D01*
X109014820Y-41613498D01*
X108904506Y-41672463D01*
X108807815Y-41751815D01*
X108728463Y-41848506D01*
X108669498Y-41958820D01*
X108633188Y-42078518D01*
X108620928Y-42203000D01*
X105899683Y-42203000D01*
X106843684Y-41377000D01*
X118167145Y-41377000D01*
X117430901Y-42113244D01*
G36*
X121377001Y-70093179D02*
G01*
X121373325Y-70130501D01*
X121377001Y-70167823D01*
X121377001Y-70167833D01*
X121387998Y-70279486D01*
X121415822Y-70371211D01*
X121431455Y-70422747D01*
X121502027Y-70554777D01*
X121525842Y-70583795D01*
X121597000Y-70670502D01*
X121626003Y-70694304D01*
X122377711Y-71446012D01*
X122401509Y-71475011D01*
X122430507Y-71498809D01*
X122517234Y-71569984D01*
X122649263Y-71640556D01*
X122792524Y-71684013D01*
X122941510Y-71698687D01*
X122978843Y-71695010D01*
X136525329Y-71695010D01*
X136509010Y-71777051D01*
X136509010Y-71980929D01*
X136518664Y-72029465D01*
X136517112Y-72029774D01*
X136328754Y-72107795D01*
X136159236Y-72221063D01*
X136015073Y-72365226D01*
X135901805Y-72534744D01*
X135823784Y-72723102D01*
X135784010Y-72923061D01*
X135784010Y-73126939D01*
X135823784Y-73326898D01*
X135901805Y-73515256D01*
X136000998Y-73663709D01*
X135881217Y-73783490D01*
X118863792Y-73783490D01*
X118743000Y-73662699D01*
X118743000Y-72173333D01*
X118746677Y-72136000D01*
X118732003Y-71987014D01*
X118688546Y-71843753D01*
X118617974Y-71711724D01*
X118546799Y-71624997D01*
X118523001Y-71595999D01*
X118494002Y-71572200D01*
X118383000Y-71461198D01*
X118383000Y-71399061D01*
X118343226Y-71199102D01*
X118265205Y-71010744D01*
X118184527Y-70890000D01*
X120205678Y-70890000D01*
X120243000Y-70893676D01*
X120280322Y-70890000D01*
X120280333Y-70890000D01*
X120391986Y-70879003D01*
X120535247Y-70835546D01*
X120667276Y-70764974D01*
X120783001Y-70670001D01*
X120806804Y-70640997D01*
X121377001Y-70070801D01*
X121377001Y-70093179D01*
G37*
X121377001Y-70093179D02*
X121373325Y-70130501D01*
X121377001Y-70167823D01*
X121377001Y-70167833D01*
X121387998Y-70279486D01*
X121415822Y-70371211D01*
X121431455Y-70422747D01*
X121502027Y-70554777D01*
X121525842Y-70583795D01*
X121597000Y-70670502D01*
X121626003Y-70694304D01*
X122377711Y-71446012D01*
X122401509Y-71475011D01*
X122430507Y-71498809D01*
X122517234Y-71569984D01*
X122649263Y-71640556D01*
X122792524Y-71684013D01*
X122941510Y-71698687D01*
X122978843Y-71695010D01*
X136525329Y-71695010D01*
X136509010Y-71777051D01*
X136509010Y-71980929D01*
X136518664Y-72029465D01*
X136517112Y-72029774D01*
X136328754Y-72107795D01*
X136159236Y-72221063D01*
X136015073Y-72365226D01*
X135901805Y-72534744D01*
X135823784Y-72723102D01*
X135784010Y-72923061D01*
X135784010Y-73126939D01*
X135823784Y-73326898D01*
X135901805Y-73515256D01*
X136000998Y-73663709D01*
X135881217Y-73783490D01*
X118863792Y-73783490D01*
X118743000Y-73662699D01*
X118743000Y-72173333D01*
X118746677Y-72136000D01*
X118732003Y-71987014D01*
X118688546Y-71843753D01*
X118617974Y-71711724D01*
X118546799Y-71624997D01*
X118523001Y-71595999D01*
X118494002Y-71572200D01*
X118383000Y-71461198D01*
X118383000Y-71399061D01*
X118343226Y-71199102D01*
X118265205Y-71010744D01*
X118184527Y-70890000D01*
X120205678Y-70890000D01*
X120243000Y-70893676D01*
X120280322Y-70890000D01*
X120280333Y-70890000D01*
X120391986Y-70879003D01*
X120535247Y-70835546D01*
X120667276Y-70764974D01*
X120783001Y-70670001D01*
X120806804Y-70640997D01*
X121377001Y-70070801D01*
X121377001Y-70093179D01*
M02*
