G04 #@! TF.GenerationSoftware,KiCad,Pcbnew,(5.1.5)-3*
G04 #@! TF.CreationDate,2020-05-03T19:08:43+01:00*
G04 #@! TF.ProjectId,Isolator CAN SMT v2,49736f6c-6174-46f7-9220-43414e20534d,rev?*
G04 #@! TF.SameCoordinates,Original*
G04 #@! TF.FileFunction,Legend,Top*
G04 #@! TF.FilePolarity,Positive*
%FSLAX46Y46*%
G04 Gerber Fmt 4.6, Leading zero omitted, Abs format (unit mm)*
G04 Created by KiCad (PCBNEW (5.1.5)-3) date 2020-05-03 19:08:43*
%MOMM*%
%LPD*%
G04 APERTURE LIST*
%ADD10C,0.150000*%
%ADD11C,0.100000*%
%ADD12C,0.120000*%
G04 APERTURE END LIST*
D10*
X107214285Y-114157142D02*
X107166666Y-114204761D01*
X107023809Y-114252380D01*
X106928571Y-114252380D01*
X106785714Y-114204761D01*
X106690476Y-114109523D01*
X106642857Y-114014285D01*
X106595238Y-113823809D01*
X106595238Y-113680952D01*
X106642857Y-113490476D01*
X106690476Y-113395238D01*
X106785714Y-113300000D01*
X106928571Y-113252380D01*
X107023809Y-113252380D01*
X107166666Y-113300000D01*
X107214285Y-113347619D01*
X107833333Y-113252380D02*
X108023809Y-113252380D01*
X108119047Y-113300000D01*
X108214285Y-113395238D01*
X108261904Y-113585714D01*
X108261904Y-113919047D01*
X108214285Y-114109523D01*
X108119047Y-114204761D01*
X108023809Y-114252380D01*
X107833333Y-114252380D01*
X107738095Y-114204761D01*
X107642857Y-114109523D01*
X107595238Y-113919047D01*
X107595238Y-113585714D01*
X107642857Y-113395238D01*
X107738095Y-113300000D01*
X107833333Y-113252380D01*
X108690476Y-114252380D02*
X108690476Y-113252380D01*
X109023809Y-113966666D01*
X109357142Y-113252380D01*
X109357142Y-114252380D01*
X111852380Y-113728571D02*
X111995238Y-113776190D01*
X112042857Y-113823809D01*
X112090476Y-113919047D01*
X112090476Y-114061904D01*
X112042857Y-114157142D01*
X111995238Y-114204761D01*
X111900000Y-114252380D01*
X111519047Y-114252380D01*
X111519047Y-113252380D01*
X111852380Y-113252380D01*
X111947619Y-113300000D01*
X111995238Y-113347619D01*
X112042857Y-113442857D01*
X112042857Y-113538095D01*
X111995238Y-113633333D01*
X111947619Y-113680952D01*
X111852380Y-113728571D01*
X111519047Y-113728571D01*
X112519047Y-113871428D02*
X113280952Y-113871428D01*
X112900000Y-114252380D02*
X112900000Y-113490476D01*
X107652380Y-135728571D02*
X107795238Y-135776190D01*
X107842857Y-135823809D01*
X107890476Y-135919047D01*
X107890476Y-136061904D01*
X107842857Y-136157142D01*
X107795238Y-136204761D01*
X107700000Y-136252380D01*
X107319047Y-136252380D01*
X107319047Y-135252380D01*
X107652380Y-135252380D01*
X107747619Y-135300000D01*
X107795238Y-135347619D01*
X107842857Y-135442857D01*
X107842857Y-135538095D01*
X107795238Y-135633333D01*
X107747619Y-135680952D01*
X107652380Y-135728571D01*
X107319047Y-135728571D01*
X108319047Y-135871428D02*
X109080952Y-135871428D01*
X108700000Y-136252380D02*
X108700000Y-135490476D01*
X131228571Y-108604761D02*
X131371428Y-108652380D01*
X131609523Y-108652380D01*
X131704761Y-108604761D01*
X131752380Y-108557142D01*
X131800000Y-108461904D01*
X131800000Y-108366666D01*
X131752380Y-108271428D01*
X131704761Y-108223809D01*
X131609523Y-108176190D01*
X131419047Y-108128571D01*
X131323809Y-108080952D01*
X131276190Y-108033333D01*
X131228571Y-107938095D01*
X131228571Y-107842857D01*
X131276190Y-107747619D01*
X131323809Y-107700000D01*
X131419047Y-107652380D01*
X131657142Y-107652380D01*
X131800000Y-107700000D01*
X132609523Y-108604761D02*
X132514285Y-108652380D01*
X132323809Y-108652380D01*
X132228571Y-108604761D01*
X132180952Y-108509523D01*
X132180952Y-108128571D01*
X132228571Y-108033333D01*
X132323809Y-107985714D01*
X132514285Y-107985714D01*
X132609523Y-108033333D01*
X132657142Y-108128571D01*
X132657142Y-108223809D01*
X132180952Y-108319047D01*
X133085714Y-108652380D02*
X133085714Y-107985714D01*
X133085714Y-108176190D02*
X133133333Y-108080952D01*
X133180952Y-108033333D01*
X133276190Y-107985714D01*
X133371428Y-107985714D01*
X133704761Y-108652380D02*
X133704761Y-107985714D01*
X133704761Y-107652380D02*
X133657142Y-107700000D01*
X133704761Y-107747619D01*
X133752380Y-107700000D01*
X133704761Y-107652380D01*
X133704761Y-107747619D01*
X134609523Y-108652380D02*
X134609523Y-108128571D01*
X134561904Y-108033333D01*
X134466666Y-107985714D01*
X134276190Y-107985714D01*
X134180952Y-108033333D01*
X134609523Y-108604761D02*
X134514285Y-108652380D01*
X134276190Y-108652380D01*
X134180952Y-108604761D01*
X134133333Y-108509523D01*
X134133333Y-108414285D01*
X134180952Y-108319047D01*
X134276190Y-108271428D01*
X134514285Y-108271428D01*
X134609523Y-108223809D01*
X135228571Y-108652380D02*
X135133333Y-108604761D01*
X135085714Y-108509523D01*
X135085714Y-107652380D01*
X136371428Y-108652380D02*
X136371428Y-107652380D01*
X136942857Y-108652380D01*
X136942857Y-107652380D01*
X137561904Y-108652380D02*
X137466666Y-108604761D01*
X137419047Y-108557142D01*
X137371428Y-108461904D01*
X137371428Y-108176190D01*
X137419047Y-108080952D01*
X137466666Y-108033333D01*
X137561904Y-107985714D01*
X137704761Y-107985714D01*
X137800000Y-108033333D01*
X137847619Y-108080952D01*
X137895238Y-108176190D01*
X137895238Y-108461904D01*
X137847619Y-108557142D01*
X137800000Y-108604761D01*
X137704761Y-108652380D01*
X137561904Y-108652380D01*
X138323809Y-108557142D02*
X138371428Y-108604761D01*
X138323809Y-108652380D01*
X138276190Y-108604761D01*
X138323809Y-108557142D01*
X138323809Y-108652380D01*
D11*
G36*
X138557000Y-112600000D02*
G01*
X127000000Y-112600000D01*
X127000000Y-109044000D01*
X138557000Y-109044000D01*
X138557000Y-112600000D01*
G37*
X138557000Y-112600000D02*
X127000000Y-112600000D01*
X127000000Y-109044000D01*
X138557000Y-109044000D01*
X138557000Y-112600000D01*
D10*
X115209452Y-108430571D02*
X114447547Y-108430571D01*
X114828500Y-108049619D02*
X114828500Y-108811523D01*
X117106595Y-108827380D02*
X117106595Y-107827380D01*
X117344690Y-107827380D01*
X117487547Y-107875000D01*
X117582785Y-107970238D01*
X117630404Y-108065476D01*
X117678023Y-108255952D01*
X117678023Y-108398809D01*
X117630404Y-108589285D01*
X117582785Y-108684523D01*
X117487547Y-108779761D01*
X117344690Y-108827380D01*
X117106595Y-108827380D01*
X120345023Y-108732142D02*
X120297404Y-108779761D01*
X120154547Y-108827380D01*
X120059309Y-108827380D01*
X119916452Y-108779761D01*
X119821214Y-108684523D01*
X119773595Y-108589285D01*
X119725976Y-108398809D01*
X119725976Y-108255952D01*
X119773595Y-108065476D01*
X119821214Y-107970238D01*
X119916452Y-107875000D01*
X120059309Y-107827380D01*
X120154547Y-107827380D01*
X120297404Y-107875000D01*
X120345023Y-107922619D01*
X122473928Y-124002380D02*
X122473928Y-124716666D01*
X122426309Y-124859523D01*
X122331071Y-124954761D01*
X122188214Y-125002380D01*
X122092976Y-125002380D01*
X123712023Y-125002380D02*
X123712023Y-124002380D01*
X123712023Y-124478571D02*
X124283452Y-124478571D01*
X124283452Y-125002380D02*
X124283452Y-124002380D01*
X125188214Y-124335714D02*
X125188214Y-125002380D01*
X124759642Y-124335714D02*
X124759642Y-124859523D01*
X124807261Y-124954761D01*
X124902500Y-125002380D01*
X125045357Y-125002380D01*
X125140595Y-124954761D01*
X125188214Y-124907142D01*
X126045357Y-124954761D02*
X125950119Y-125002380D01*
X125759642Y-125002380D01*
X125664404Y-124954761D01*
X125616785Y-124859523D01*
X125616785Y-124478571D01*
X125664404Y-124383333D01*
X125759642Y-124335714D01*
X125950119Y-124335714D01*
X126045357Y-124383333D01*
X126092976Y-124478571D01*
X126092976Y-124573809D01*
X125616785Y-124669047D01*
X126521547Y-125002380D02*
X126521547Y-124002380D01*
X126521547Y-124383333D02*
X126616785Y-124335714D01*
X126807261Y-124335714D01*
X126902500Y-124383333D01*
X126950119Y-124430952D01*
X126997738Y-124526190D01*
X126997738Y-124811904D01*
X126950119Y-124907142D01*
X126902500Y-124954761D01*
X126807261Y-125002380D01*
X126616785Y-125002380D01*
X126521547Y-124954761D01*
X127426309Y-124335714D02*
X127426309Y-125002380D01*
X127426309Y-124430952D02*
X127473928Y-124383333D01*
X127569166Y-124335714D01*
X127712023Y-124335714D01*
X127807261Y-124383333D01*
X127854880Y-124478571D01*
X127854880Y-125002380D01*
X128712023Y-124954761D02*
X128616785Y-125002380D01*
X128426309Y-125002380D01*
X128331071Y-124954761D01*
X128283452Y-124859523D01*
X128283452Y-124478571D01*
X128331071Y-124383333D01*
X128426309Y-124335714D01*
X128616785Y-124335714D01*
X128712023Y-124383333D01*
X128759642Y-124478571D01*
X128759642Y-124573809D01*
X128283452Y-124669047D01*
X129188214Y-125002380D02*
X129188214Y-124335714D01*
X129188214Y-124526190D02*
X129235833Y-124430952D01*
X129283452Y-124383333D01*
X129378690Y-124335714D01*
X129473928Y-124335714D01*
X131283452Y-123954761D02*
X130426309Y-125240476D01*
X132331071Y-124716666D02*
X132807261Y-124716666D01*
X132235833Y-125002380D02*
X132569166Y-124002380D01*
X132902500Y-125002380D01*
X133997738Y-125002380D02*
X133997738Y-124002380D01*
X134331071Y-124716666D01*
X134664404Y-124002380D01*
X134664404Y-125002380D01*
X135569166Y-125002380D02*
X135569166Y-124478571D01*
X135521547Y-124383333D01*
X135426309Y-124335714D01*
X135235833Y-124335714D01*
X135140595Y-124383333D01*
X135569166Y-124954761D02*
X135473928Y-125002380D01*
X135235833Y-125002380D01*
X135140595Y-124954761D01*
X135092976Y-124859523D01*
X135092976Y-124764285D01*
X135140595Y-124669047D01*
X135235833Y-124621428D01*
X135473928Y-124621428D01*
X135569166Y-124573809D01*
X136045357Y-125002380D02*
X136045357Y-124335714D01*
X136045357Y-124526190D02*
X136092976Y-124430952D01*
X136140595Y-124383333D01*
X136235833Y-124335714D01*
X136331071Y-124335714D01*
X136521547Y-124335714D02*
X136902500Y-124335714D01*
X136664404Y-124002380D02*
X136664404Y-124859523D01*
X136712023Y-124954761D01*
X136807261Y-125002380D01*
X136902500Y-125002380D01*
X137616785Y-124954761D02*
X137521547Y-125002380D01*
X137331071Y-125002380D01*
X137235833Y-124954761D01*
X137188214Y-124859523D01*
X137188214Y-124478571D01*
X137235833Y-124383333D01*
X137331071Y-124335714D01*
X137521547Y-124335714D01*
X137616785Y-124383333D01*
X137664404Y-124478571D01*
X137664404Y-124573809D01*
X137188214Y-124669047D01*
X138235833Y-125002380D02*
X138140595Y-124954761D01*
X138092976Y-124859523D01*
X138092976Y-124002380D01*
X138759642Y-125002380D02*
X138664404Y-124954761D01*
X138616785Y-124859523D01*
X138616785Y-124002380D01*
X127140595Y-126652380D02*
X127045357Y-126604761D01*
X126997738Y-126557142D01*
X126950119Y-126461904D01*
X126950119Y-126176190D01*
X126997738Y-126080952D01*
X127045357Y-126033333D01*
X127140595Y-125985714D01*
X127283452Y-125985714D01*
X127378690Y-126033333D01*
X127426309Y-126080952D01*
X127473928Y-126176190D01*
X127473928Y-126461904D01*
X127426309Y-126557142D01*
X127378690Y-126604761D01*
X127283452Y-126652380D01*
X127140595Y-126652380D01*
X127902500Y-125985714D02*
X127902500Y-126985714D01*
X127902500Y-126033333D02*
X127997738Y-125985714D01*
X128188214Y-125985714D01*
X128283452Y-126033333D01*
X128331071Y-126080952D01*
X128378690Y-126176190D01*
X128378690Y-126461904D01*
X128331071Y-126557142D01*
X128283452Y-126604761D01*
X128188214Y-126652380D01*
X127997738Y-126652380D01*
X127902500Y-126604761D01*
X129188214Y-126604761D02*
X129092976Y-126652380D01*
X128902500Y-126652380D01*
X128807261Y-126604761D01*
X128759642Y-126509523D01*
X128759642Y-126128571D01*
X128807261Y-126033333D01*
X128902500Y-125985714D01*
X129092976Y-125985714D01*
X129188214Y-126033333D01*
X129235833Y-126128571D01*
X129235833Y-126223809D01*
X128759642Y-126319047D01*
X129664404Y-125985714D02*
X129664404Y-126652380D01*
X129664404Y-126080952D02*
X129712023Y-126033333D01*
X129807261Y-125985714D01*
X129950119Y-125985714D01*
X130045357Y-126033333D01*
X130092976Y-126128571D01*
X130092976Y-126652380D01*
X130569166Y-126652380D02*
X130569166Y-125985714D01*
X130569166Y-125652380D02*
X130521547Y-125700000D01*
X130569166Y-125747619D01*
X130616785Y-125700000D01*
X130569166Y-125652380D01*
X130569166Y-125747619D01*
X131045357Y-125985714D02*
X131045357Y-126652380D01*
X131045357Y-126080952D02*
X131092976Y-126033333D01*
X131188214Y-125985714D01*
X131331071Y-125985714D01*
X131426309Y-126033333D01*
X131473928Y-126128571D01*
X131473928Y-126652380D01*
X131854880Y-125985714D02*
X132092976Y-126652380D01*
X132331071Y-125985714D01*
X133092976Y-126604761D02*
X132997738Y-126652380D01*
X132807261Y-126652380D01*
X132712023Y-126604761D01*
X132664404Y-126509523D01*
X132664404Y-126128571D01*
X132712023Y-126033333D01*
X132807261Y-125985714D01*
X132997738Y-125985714D01*
X133092976Y-126033333D01*
X133140595Y-126128571D01*
X133140595Y-126223809D01*
X132664404Y-126319047D01*
X133569166Y-126652380D02*
X133569166Y-125985714D01*
X133569166Y-126176190D02*
X133616785Y-126080952D01*
X133664404Y-126033333D01*
X133759642Y-125985714D01*
X133854880Y-125985714D01*
X134045357Y-125985714D02*
X134426309Y-125985714D01*
X134188214Y-125652380D02*
X134188214Y-126509523D01*
X134235833Y-126604761D01*
X134331071Y-126652380D01*
X134426309Y-126652380D01*
X135140595Y-126604761D02*
X135045357Y-126652380D01*
X134854880Y-126652380D01*
X134759642Y-126604761D01*
X134712023Y-126509523D01*
X134712023Y-126128571D01*
X134759642Y-126033333D01*
X134854880Y-125985714D01*
X135045357Y-125985714D01*
X135140595Y-126033333D01*
X135188214Y-126128571D01*
X135188214Y-126223809D01*
X134712023Y-126319047D01*
X135616785Y-126652380D02*
X135616785Y-125985714D01*
X135616785Y-126176190D02*
X135664404Y-126080952D01*
X135712023Y-126033333D01*
X135807261Y-125985714D01*
X135902500Y-125985714D01*
X136235833Y-126557142D02*
X136283452Y-126604761D01*
X136235833Y-126652380D01*
X136188214Y-126604761D01*
X136235833Y-126557142D01*
X136235833Y-126652380D01*
X136854880Y-126652380D02*
X136759642Y-126604761D01*
X136712023Y-126557142D01*
X136664404Y-126461904D01*
X136664404Y-126176190D01*
X136712023Y-126080952D01*
X136759642Y-126033333D01*
X136854880Y-125985714D01*
X136997738Y-125985714D01*
X137092976Y-126033333D01*
X137140595Y-126080952D01*
X137188214Y-126176190D01*
X137188214Y-126461904D01*
X137140595Y-126557142D01*
X137092976Y-126604761D01*
X136997738Y-126652380D01*
X136854880Y-126652380D01*
X137616785Y-126652380D02*
X137616785Y-125985714D01*
X137616785Y-126176190D02*
X137664404Y-126080952D01*
X137712023Y-126033333D01*
X137807261Y-125985714D01*
X137902500Y-125985714D01*
X138664404Y-125985714D02*
X138664404Y-126795238D01*
X138616785Y-126890476D01*
X138569166Y-126938095D01*
X138473928Y-126985714D01*
X138331071Y-126985714D01*
X138235833Y-126938095D01*
X138664404Y-126604761D02*
X138569166Y-126652380D01*
X138378690Y-126652380D01*
X138283452Y-126604761D01*
X138235833Y-126557142D01*
X138188214Y-126461904D01*
X138188214Y-126176190D01*
X138235833Y-126080952D01*
X138283452Y-126033333D01*
X138378690Y-125985714D01*
X138569166Y-125985714D01*
X138664404Y-126033333D01*
X128521547Y-128683333D02*
X128473928Y-128635714D01*
X128378690Y-128492857D01*
X128331071Y-128397619D01*
X128283452Y-128254761D01*
X128235833Y-128016666D01*
X128235833Y-127826190D01*
X128283452Y-127588095D01*
X128331071Y-127445238D01*
X128378690Y-127350000D01*
X128473928Y-127207142D01*
X128521547Y-127159523D01*
X129331071Y-128254761D02*
X129235833Y-128302380D01*
X129045357Y-128302380D01*
X128950119Y-128254761D01*
X128902500Y-128207142D01*
X128854880Y-128111904D01*
X128854880Y-127826190D01*
X128902500Y-127730952D01*
X128950119Y-127683333D01*
X129045357Y-127635714D01*
X129235833Y-127635714D01*
X129331071Y-127683333D01*
X129664404Y-128683333D02*
X129712023Y-128635714D01*
X129807261Y-128492857D01*
X129854880Y-128397619D01*
X129902500Y-128254761D01*
X129950119Y-128016666D01*
X129950119Y-127826190D01*
X129902500Y-127588095D01*
X129854880Y-127445238D01*
X129807261Y-127350000D01*
X129712023Y-127207142D01*
X129664404Y-127159523D01*
X131140595Y-128016666D02*
X131616785Y-128016666D01*
X131045357Y-128302380D02*
X131378690Y-127302380D01*
X131712023Y-128302380D01*
X132045357Y-127635714D02*
X132045357Y-128635714D01*
X132045357Y-127683333D02*
X132140595Y-127635714D01*
X132331071Y-127635714D01*
X132426309Y-127683333D01*
X132473928Y-127730952D01*
X132521547Y-127826190D01*
X132521547Y-128111904D01*
X132473928Y-128207142D01*
X132426309Y-128254761D01*
X132331071Y-128302380D01*
X132140595Y-128302380D01*
X132045357Y-128254761D01*
X132950119Y-128302380D02*
X132950119Y-127635714D01*
X132950119Y-127826190D02*
X132997738Y-127730952D01*
X133045357Y-127683333D01*
X133140595Y-127635714D01*
X133235833Y-127635714D01*
X133569166Y-128302380D02*
X133569166Y-127635714D01*
X133569166Y-127302380D02*
X133521547Y-127350000D01*
X133569166Y-127397619D01*
X133616785Y-127350000D01*
X133569166Y-127302380D01*
X133569166Y-127397619D01*
X134188214Y-128302380D02*
X134092976Y-128254761D01*
X134045357Y-128159523D01*
X134045357Y-127302380D01*
X135283452Y-127397619D02*
X135331071Y-127350000D01*
X135426309Y-127302380D01*
X135664404Y-127302380D01*
X135759642Y-127350000D01*
X135807261Y-127397619D01*
X135854880Y-127492857D01*
X135854880Y-127588095D01*
X135807261Y-127730952D01*
X135235833Y-128302380D01*
X135854880Y-128302380D01*
X136473928Y-127302380D02*
X136569166Y-127302380D01*
X136664404Y-127350000D01*
X136712023Y-127397619D01*
X136759642Y-127492857D01*
X136807261Y-127683333D01*
X136807261Y-127921428D01*
X136759642Y-128111904D01*
X136712023Y-128207142D01*
X136664404Y-128254761D01*
X136569166Y-128302380D01*
X136473928Y-128302380D01*
X136378690Y-128254761D01*
X136331071Y-128207142D01*
X136283452Y-128111904D01*
X136235833Y-127921428D01*
X136235833Y-127683333D01*
X136283452Y-127492857D01*
X136331071Y-127397619D01*
X136378690Y-127350000D01*
X136473928Y-127302380D01*
X137188214Y-127397619D02*
X137235833Y-127350000D01*
X137331071Y-127302380D01*
X137569166Y-127302380D01*
X137664404Y-127350000D01*
X137712023Y-127397619D01*
X137759642Y-127492857D01*
X137759642Y-127588095D01*
X137712023Y-127730952D01*
X137140595Y-128302380D01*
X137759642Y-128302380D01*
X138378690Y-127302380D02*
X138473928Y-127302380D01*
X138569166Y-127350000D01*
X138616785Y-127397619D01*
X138664404Y-127492857D01*
X138712023Y-127683333D01*
X138712023Y-127921428D01*
X138664404Y-128111904D01*
X138616785Y-128207142D01*
X138569166Y-128254761D01*
X138473928Y-128302380D01*
X138378690Y-128302380D01*
X138283452Y-128254761D01*
X138235833Y-128207142D01*
X138188214Y-128111904D01*
X138140595Y-127921428D01*
X138140595Y-127683333D01*
X138188214Y-127492857D01*
X138235833Y-127397619D01*
X138283452Y-127350000D01*
X138378690Y-127302380D01*
X103199999Y-110692857D02*
X103414285Y-110764285D01*
X103485714Y-110835714D01*
X103557142Y-110978571D01*
X103557142Y-111192857D01*
X103485714Y-111335714D01*
X103414285Y-111407142D01*
X103271428Y-111478571D01*
X102699999Y-111478571D01*
X102699999Y-109978571D01*
X103199999Y-109978571D01*
X103342857Y-110050000D01*
X103414285Y-110121428D01*
X103485714Y-110264285D01*
X103485714Y-110407142D01*
X103414285Y-110550000D01*
X103342857Y-110621428D01*
X103199999Y-110692857D01*
X102699999Y-110692857D01*
X104199999Y-111478571D02*
X104199999Y-109978571D01*
X104699999Y-111050000D01*
X105199999Y-109978571D01*
X105199999Y-111478571D01*
X105842857Y-111407142D02*
X106057142Y-111478571D01*
X106414285Y-111478571D01*
X106557142Y-111407142D01*
X106628571Y-111335714D01*
X106699999Y-111192857D01*
X106699999Y-111050000D01*
X106628571Y-110907142D01*
X106557142Y-110835714D01*
X106414285Y-110764285D01*
X106128571Y-110692857D01*
X105985714Y-110621428D01*
X105914285Y-110550000D01*
X105842857Y-110407142D01*
X105842857Y-110264285D01*
X105914285Y-110121428D01*
X105985714Y-110050000D01*
X106128571Y-109978571D01*
X106485714Y-109978571D01*
X106699999Y-110050000D01*
X109342857Y-111335714D02*
X109271428Y-111407142D01*
X109057142Y-111478571D01*
X108914285Y-111478571D01*
X108699999Y-111407142D01*
X108557142Y-111264285D01*
X108485714Y-111121428D01*
X108414285Y-110835714D01*
X108414285Y-110621428D01*
X108485714Y-110335714D01*
X108557142Y-110192857D01*
X108699999Y-110050000D01*
X108914285Y-109978571D01*
X109057142Y-109978571D01*
X109271428Y-110050000D01*
X109342857Y-110121428D01*
X109914285Y-111050000D02*
X110628571Y-111050000D01*
X109771428Y-111478571D02*
X110271428Y-109978571D01*
X110771428Y-111478571D01*
X111271428Y-111478571D02*
X111271428Y-109978571D01*
X112128571Y-111478571D01*
X112128571Y-109978571D01*
X113985714Y-111478571D02*
X113985714Y-109978571D01*
X114628571Y-111407142D02*
X114771428Y-111478571D01*
X115057142Y-111478571D01*
X115199999Y-111407142D01*
X115271428Y-111264285D01*
X115271428Y-111192857D01*
X115199999Y-111050000D01*
X115057142Y-110978571D01*
X114842857Y-110978571D01*
X114699999Y-110907142D01*
X114628571Y-110764285D01*
X114628571Y-110692857D01*
X114699999Y-110550000D01*
X114842857Y-110478571D01*
X115057142Y-110478571D01*
X115199999Y-110550000D01*
X116128571Y-111478571D02*
X115985714Y-111407142D01*
X115914285Y-111335714D01*
X115842857Y-111192857D01*
X115842857Y-110764285D01*
X115914285Y-110621428D01*
X115985714Y-110550000D01*
X116128571Y-110478571D01*
X116342857Y-110478571D01*
X116485714Y-110550000D01*
X116557142Y-110621428D01*
X116628571Y-110764285D01*
X116628571Y-111192857D01*
X116557142Y-111335714D01*
X116485714Y-111407142D01*
X116342857Y-111478571D01*
X116128571Y-111478571D01*
X117485714Y-111478571D02*
X117342857Y-111407142D01*
X117271428Y-111264285D01*
X117271428Y-109978571D01*
X118699999Y-111478571D02*
X118699999Y-110692857D01*
X118628571Y-110550000D01*
X118485714Y-110478571D01*
X118199999Y-110478571D01*
X118057142Y-110550000D01*
X118699999Y-111407142D02*
X118557142Y-111478571D01*
X118199999Y-111478571D01*
X118057142Y-111407142D01*
X117985714Y-111264285D01*
X117985714Y-111121428D01*
X118057142Y-110978571D01*
X118199999Y-110907142D01*
X118557142Y-110907142D01*
X118699999Y-110835714D01*
X119199999Y-110478571D02*
X119771428Y-110478571D01*
X119414285Y-109978571D02*
X119414285Y-111264285D01*
X119485714Y-111407142D01*
X119628571Y-111478571D01*
X119771428Y-111478571D01*
X120485714Y-111478571D02*
X120342857Y-111407142D01*
X120271428Y-111335714D01*
X120199999Y-111192857D01*
X120199999Y-110764285D01*
X120271428Y-110621428D01*
X120342857Y-110550000D01*
X120485714Y-110478571D01*
X120699999Y-110478571D01*
X120842857Y-110550000D01*
X120914285Y-110621428D01*
X120985714Y-110764285D01*
X120985714Y-111192857D01*
X120914285Y-111335714D01*
X120842857Y-111407142D01*
X120699999Y-111478571D01*
X120485714Y-111478571D01*
X121628571Y-111478571D02*
X121628571Y-110478571D01*
X121628571Y-110764285D02*
X121699999Y-110621428D01*
X121771428Y-110550000D01*
X121914285Y-110478571D01*
X122057142Y-110478571D01*
X123485714Y-109978571D02*
X123985714Y-111478571D01*
X124485714Y-109978571D01*
X124914285Y-110121428D02*
X124985714Y-110050000D01*
X125128571Y-109978571D01*
X125485714Y-109978571D01*
X125628571Y-110050000D01*
X125699999Y-110121428D01*
X125771428Y-110264285D01*
X125771428Y-110407142D01*
X125699999Y-110621428D01*
X124842857Y-111478571D01*
X125771428Y-111478571D01*
X111214285Y-136157142D02*
X111166666Y-136204761D01*
X111023809Y-136252380D01*
X110928571Y-136252380D01*
X110785714Y-136204761D01*
X110690476Y-136109523D01*
X110642857Y-136014285D01*
X110595238Y-135823809D01*
X110595238Y-135680952D01*
X110642857Y-135490476D01*
X110690476Y-135395238D01*
X110785714Y-135300000D01*
X110928571Y-135252380D01*
X111023809Y-135252380D01*
X111166666Y-135300000D01*
X111214285Y-135347619D01*
X111833333Y-135252380D02*
X112023809Y-135252380D01*
X112119047Y-135300000D01*
X112214285Y-135395238D01*
X112261904Y-135585714D01*
X112261904Y-135919047D01*
X112214285Y-136109523D01*
X112119047Y-136204761D01*
X112023809Y-136252380D01*
X111833333Y-136252380D01*
X111738095Y-136204761D01*
X111642857Y-136109523D01*
X111595238Y-135919047D01*
X111595238Y-135585714D01*
X111642857Y-135395238D01*
X111738095Y-135300000D01*
X111833333Y-135252380D01*
X112690476Y-136252380D02*
X112690476Y-135252380D01*
X113023809Y-135966666D01*
X113357142Y-135252380D01*
X113357142Y-136252380D01*
X122861904Y-107900000D02*
X122766666Y-107852380D01*
X122623809Y-107852380D01*
X122480952Y-107900000D01*
X122385714Y-107995238D01*
X122338095Y-108090476D01*
X122290476Y-108280952D01*
X122290476Y-108423809D01*
X122338095Y-108614285D01*
X122385714Y-108709523D01*
X122480952Y-108804761D01*
X122623809Y-108852380D01*
X122719047Y-108852380D01*
X122861904Y-108804761D01*
X122909523Y-108757142D01*
X122909523Y-108423809D01*
X122719047Y-108423809D01*
X150372619Y-120409523D02*
X149372619Y-120647619D01*
X150086904Y-120838095D01*
X149372619Y-121028571D01*
X150372619Y-121266666D01*
X149372619Y-121647619D02*
X150039285Y-121647619D01*
X150372619Y-121647619D02*
X150325000Y-121600000D01*
X150277380Y-121647619D01*
X150325000Y-121695238D01*
X150372619Y-121647619D01*
X150277380Y-121647619D01*
X150039285Y-121980952D02*
X150039285Y-122361904D01*
X149372619Y-122123809D02*
X150229761Y-122123809D01*
X150325000Y-122171428D01*
X150372619Y-122266666D01*
X150372619Y-122361904D01*
X149372619Y-122695238D02*
X150039285Y-122695238D01*
X150372619Y-122695238D02*
X150325000Y-122647619D01*
X150277380Y-122695238D01*
X150325000Y-122742857D01*
X150372619Y-122695238D01*
X150277380Y-122695238D01*
X147722619Y-119219047D02*
X148722619Y-119219047D01*
X148008333Y-119552380D01*
X148722619Y-119885714D01*
X147722619Y-119885714D01*
X147722619Y-120504761D02*
X147770238Y-120409523D01*
X147817857Y-120361904D01*
X147913095Y-120314285D01*
X148198809Y-120314285D01*
X148294047Y-120361904D01*
X148341666Y-120409523D01*
X148389285Y-120504761D01*
X148389285Y-120647619D01*
X148341666Y-120742857D01*
X148294047Y-120790476D01*
X148198809Y-120838095D01*
X147913095Y-120838095D01*
X147817857Y-120790476D01*
X147770238Y-120742857D01*
X147722619Y-120647619D01*
X147722619Y-120504761D01*
X147722619Y-121695238D02*
X148722619Y-121695238D01*
X147770238Y-121695238D02*
X147722619Y-121600000D01*
X147722619Y-121409523D01*
X147770238Y-121314285D01*
X147817857Y-121266666D01*
X147913095Y-121219047D01*
X148198809Y-121219047D01*
X148294047Y-121266666D01*
X148341666Y-121314285D01*
X148389285Y-121409523D01*
X148389285Y-121600000D01*
X148341666Y-121695238D01*
X148389285Y-122600000D02*
X147722619Y-122600000D01*
X148389285Y-122171428D02*
X147865476Y-122171428D01*
X147770238Y-122219047D01*
X147722619Y-122314285D01*
X147722619Y-122457142D01*
X147770238Y-122552380D01*
X147817857Y-122600000D01*
X147722619Y-123219047D02*
X147770238Y-123123809D01*
X147865476Y-123076190D01*
X148722619Y-123076190D01*
X147770238Y-123980952D02*
X147722619Y-123885714D01*
X147722619Y-123695238D01*
X147770238Y-123600000D01*
X147865476Y-123552380D01*
X148246428Y-123552380D01*
X148341666Y-123600000D01*
X148389285Y-123695238D01*
X148389285Y-123885714D01*
X148341666Y-123980952D01*
X148246428Y-124028571D01*
X148151190Y-124028571D01*
X148055952Y-123552380D01*
D12*
X139700000Y-137550000D02*
X139700000Y-109300000D01*
X156950000Y-137550000D02*
X139700000Y-137550000D01*
X156950000Y-109300000D02*
X156950000Y-137550000D01*
X139700000Y-109300000D02*
X156950000Y-109300000D01*
X120050000Y-61400000D02*
X120050000Y-59400000D01*
X120050000Y-59400000D02*
X116150000Y-59400000D01*
X120050000Y-61400000D02*
X116150000Y-61400000D01*
X117640000Y-70820000D02*
X119100000Y-70820000D01*
X117640000Y-73980000D02*
X119800000Y-73980000D01*
X117640000Y-73980000D02*
X117640000Y-73050000D01*
X117640000Y-70820000D02*
X117640000Y-71750000D01*
X117640000Y-65820000D02*
X119100000Y-65820000D01*
X117640000Y-68980000D02*
X119800000Y-68980000D01*
X117640000Y-68980000D02*
X117640000Y-68050000D01*
X117640000Y-65820000D02*
X117640000Y-66750000D01*
X154180000Y-81440000D02*
X154180000Y-82900000D01*
X151020000Y-81440000D02*
X151020000Y-83600000D01*
X151020000Y-81440000D02*
X151950000Y-81440000D01*
X154180000Y-81440000D02*
X153250000Y-81440000D01*
X161441250Y-83956250D02*
X160653750Y-83956250D01*
X161047500Y-83562500D02*
X161047500Y-84350000D01*
X156854437Y-84590000D02*
X155790000Y-85654437D01*
X161545563Y-84590000D02*
X162610000Y-85654437D01*
X161545563Y-84590000D02*
X160260000Y-84590000D01*
X156854437Y-84590000D02*
X158140000Y-84590000D01*
X155790000Y-85654437D02*
X155790000Y-91410000D01*
X162610000Y-85654437D02*
X162610000Y-91410000D01*
X162610000Y-91410000D02*
X160260000Y-91410000D01*
X155790000Y-91410000D02*
X158140000Y-91410000D01*
X120600000Y-90560000D02*
X124050000Y-90560000D01*
X120600000Y-90560000D02*
X118650000Y-90560000D01*
X120600000Y-85440000D02*
X122550000Y-85440000D01*
X120600000Y-85440000D02*
X118650000Y-85440000D01*
X120762779Y-91490000D02*
X120437221Y-91490000D01*
X120762779Y-92510000D02*
X120437221Y-92510000D01*
X145600000Y-72750000D02*
X145600000Y-75900000D01*
X145600000Y-66900000D02*
X145600000Y-70050000D01*
X150710000Y-70400000D02*
X150710000Y-72400000D01*
X145000000Y-71050000D02*
X145000000Y-71750000D01*
X146200000Y-71050000D02*
X145000000Y-71050000D01*
X146200000Y-71750000D02*
X146200000Y-71050000D01*
X145000000Y-71750000D02*
X146200000Y-71750000D01*
X145400000Y-71050000D02*
X145800000Y-71750000D01*
X127750000Y-63050000D02*
X127750000Y-79750000D01*
X150450000Y-63050000D02*
X127750000Y-63050000D01*
X150450000Y-79750000D02*
X150450000Y-63050000D01*
X127750000Y-79750000D02*
X150450000Y-79750000D01*
X159627000Y-74049000D02*
X156327000Y-74049000D01*
X156327000Y-74049000D02*
X156327000Y-79449000D01*
X159627000Y-74049000D02*
X159627000Y-79449000D01*
X155352279Y-63189000D02*
X155026721Y-63189000D01*
X155352279Y-64209000D02*
X155026721Y-64209000D01*
X159987000Y-68611779D02*
X159987000Y-68286221D01*
X158967000Y-68611779D02*
X158967000Y-68286221D01*
X154187000Y-75440422D02*
X154187000Y-75957578D01*
X152767000Y-75440422D02*
X152767000Y-75957578D01*
X148478922Y-92290000D02*
X148996078Y-92290000D01*
X148478922Y-93710000D02*
X148996078Y-93710000D01*
X143110000Y-81837221D02*
X143110000Y-82162779D01*
X142090000Y-81837221D02*
X142090000Y-82162779D01*
X162235578Y-75989000D02*
X161718422Y-75989000D01*
X162235578Y-77409000D02*
X161718422Y-77409000D01*
X123092779Y-66372000D02*
X122767221Y-66372000D01*
X123092779Y-67392000D02*
X122767221Y-67392000D01*
X123208279Y-71574500D02*
X122882721Y-71574500D01*
X123208279Y-70554500D02*
X122882721Y-70554500D01*
X160374936Y-70589000D02*
X161579064Y-70589000D01*
X160374936Y-73309000D02*
X161579064Y-73309000D01*
X145290000Y-81849721D02*
X145290000Y-82175279D01*
X146310000Y-81849721D02*
X146310000Y-82175279D01*
X140490000Y-82162779D02*
X140490000Y-81837221D01*
X141510000Y-82162779D02*
X141510000Y-81837221D01*
X151667000Y-66136221D02*
X151667000Y-66461779D01*
X152687000Y-66136221D02*
X152687000Y-66461779D01*
X155352279Y-65959000D02*
X155026721Y-65959000D01*
X155352279Y-64939000D02*
X155026721Y-64939000D01*
X151967000Y-72036221D02*
X151967000Y-72361779D01*
X152987000Y-72036221D02*
X152987000Y-72361779D01*
X149290000Y-82024721D02*
X149290000Y-82350279D01*
X150310000Y-82024721D02*
X150310000Y-82350279D01*
X123130279Y-69642000D02*
X122804721Y-69642000D01*
X123130279Y-68622000D02*
X122804721Y-68622000D01*
X123144779Y-72523000D02*
X122819221Y-72523000D01*
X123144779Y-73543000D02*
X122819221Y-73543000D01*
X122162779Y-101910000D02*
X121837221Y-101910000D01*
X122162779Y-100890000D02*
X121837221Y-100890000D01*
X154167000Y-69069000D02*
X154167000Y-70829000D01*
X157237000Y-70829000D02*
X157237000Y-68399000D01*
X148740000Y-84690000D02*
X148740000Y-85950000D01*
X148740000Y-91510000D02*
X148740000Y-90250000D01*
X152500000Y-84690000D02*
X148740000Y-84690000D01*
X154750000Y-91510000D02*
X148740000Y-91510000D01*
X122400000Y-94840000D02*
X120450000Y-94840000D01*
X122400000Y-94840000D02*
X124350000Y-94840000D01*
X122400000Y-99960000D02*
X120450000Y-99960000D01*
X122400000Y-99960000D02*
X125850000Y-99960000D01*
X138366500Y-94506000D02*
X139706500Y-94506000D01*
X138366500Y-95456000D02*
X138366500Y-94506000D01*
X137416500Y-95456000D02*
X138366500Y-95456000D01*
X128146500Y-95456000D02*
X128146500Y-94506000D01*
X129096500Y-95456000D02*
X128146500Y-95456000D01*
X138366500Y-85236000D02*
X138366500Y-86186000D01*
X137416500Y-85236000D02*
X138366500Y-85236000D01*
X128146500Y-85236000D02*
X128146500Y-86186000D01*
X129096500Y-85236000D02*
X128146500Y-85236000D01*
X125750000Y-129280000D02*
X124300000Y-129280000D01*
X125750000Y-137020000D02*
X125750000Y-129280000D01*
X120850000Y-137020000D02*
X125750000Y-137020000D01*
X120850000Y-129280000D02*
X120850000Y-137020000D01*
X122300000Y-129280000D02*
X120850000Y-129280000D01*
X124300000Y-129280000D02*
G75*
G02X122300000Y-129280000I-1000000J0D01*
G01*
X120910000Y-122560000D02*
X122360000Y-122560000D01*
X120910000Y-114820000D02*
X120910000Y-122560000D01*
X125810000Y-114820000D02*
X120910000Y-114820000D01*
X125810000Y-122560000D02*
X125810000Y-114820000D01*
X124360000Y-122560000D02*
X125810000Y-122560000D01*
X122360000Y-122560000D02*
G75*
G02X124360000Y-122560000I1000000J0D01*
G01*
X124590000Y-80799721D02*
X124590000Y-81125279D01*
X125610000Y-80799721D02*
X125610000Y-81125279D01*
X110690000Y-105775279D02*
X110690000Y-105449721D01*
X111710000Y-105775279D02*
X111710000Y-105449721D01*
X125310000Y-76837221D02*
X125310000Y-77162779D01*
X124290000Y-76837221D02*
X124290000Y-77162779D01*
X129110000Y-102824721D02*
X129110000Y-103150279D01*
X128090000Y-102824721D02*
X128090000Y-103150279D01*
X143037221Y-93110000D02*
X143362779Y-93110000D01*
X143037221Y-92090000D02*
X143362779Y-92090000D01*
X135690500Y-102322279D02*
X135690500Y-101996721D01*
X136710500Y-102322279D02*
X136710500Y-101996721D01*
X142837221Y-84090000D02*
X143162779Y-84090000D01*
X142837221Y-85110000D02*
X143162779Y-85110000D01*
X126490000Y-96637221D02*
X126490000Y-96962779D01*
X127510000Y-96637221D02*
X127510000Y-96962779D01*
X137237221Y-82710000D02*
X137562779Y-82710000D01*
X137237221Y-81690000D02*
X137562779Y-81690000D01*
X128310000Y-83362779D02*
X128310000Y-83037221D01*
X127290000Y-83362779D02*
X127290000Y-83037221D01*
X136762779Y-99110000D02*
X136437221Y-99110000D01*
X136762779Y-98090000D02*
X136437221Y-98090000D01*
X132342000Y-134062779D02*
X132342000Y-133737221D01*
X133362000Y-134062779D02*
X133362000Y-133737221D01*
X164010000Y-102990000D02*
X161660000Y-102990000D01*
X157190000Y-102990000D02*
X159540000Y-102990000D01*
X157190000Y-108745563D02*
X157190000Y-102990000D01*
X164010000Y-108745563D02*
X164010000Y-102990000D01*
X162945563Y-109810000D02*
X161660000Y-109810000D01*
X158254437Y-109810000D02*
X159540000Y-109810000D01*
X158254437Y-109810000D02*
X157190000Y-108745563D01*
X162945563Y-109810000D02*
X164010000Y-108745563D01*
X158752500Y-110837500D02*
X158752500Y-110050000D01*
X158358750Y-110443750D02*
X159146250Y-110443750D01*
X161310000Y-128450000D02*
X161310000Y-125765000D01*
X161310000Y-125765000D02*
X159390000Y-125765000D01*
X159390000Y-125765000D02*
X159390000Y-128450000D01*
X161360000Y-133085000D02*
X161360000Y-130400000D01*
X159440000Y-133085000D02*
X161360000Y-133085000D01*
X159440000Y-130400000D02*
X159440000Y-133085000D01*
X113470000Y-106930000D02*
X113470000Y-105600000D01*
X114800000Y-106930000D02*
X113470000Y-106930000D01*
X116070000Y-106930000D02*
X116070000Y-104270000D01*
X116070000Y-104270000D02*
X123750000Y-104270000D01*
X116070000Y-106930000D02*
X123750000Y-106930000D01*
X123750000Y-106930000D02*
X123750000Y-104270000D01*
X154530000Y-100280000D02*
X141710000Y-100280000D01*
X141710000Y-100280000D02*
X141710000Y-102940000D01*
X141710000Y-102940000D02*
X154530000Y-102940000D01*
X154530000Y-102940000D02*
X154530000Y-100280000D01*
X153580000Y-102940000D02*
X153580000Y-108940000D01*
X153580000Y-108940000D02*
X152820000Y-108940000D01*
X152820000Y-108940000D02*
X152820000Y-102940000D01*
X153520000Y-102940000D02*
X153520000Y-108940000D01*
X153400000Y-102940000D02*
X153400000Y-108940000D01*
X153280000Y-102940000D02*
X153280000Y-108940000D01*
X153160000Y-102940000D02*
X153160000Y-108940000D01*
X153040000Y-102940000D02*
X153040000Y-108940000D01*
X152920000Y-102940000D02*
X152920000Y-108940000D01*
X153580000Y-99882929D02*
X153580000Y-100280000D01*
X152820000Y-99882929D02*
X152820000Y-100280000D01*
X153580000Y-97410000D02*
X153580000Y-97797071D01*
X152820000Y-97410000D02*
X152820000Y-97797071D01*
X151930000Y-100280000D02*
X151930000Y-102940000D01*
X151040000Y-102940000D02*
X151040000Y-108940000D01*
X151040000Y-108940000D02*
X150280000Y-108940000D01*
X150280000Y-108940000D02*
X150280000Y-102940000D01*
X151040000Y-99882929D02*
X151040000Y-100280000D01*
X150280000Y-99882929D02*
X150280000Y-100280000D01*
X151040000Y-97342929D02*
X151040000Y-97797071D01*
X150280000Y-97342929D02*
X150280000Y-97797071D01*
X149390000Y-100280000D02*
X149390000Y-102940000D01*
X148500000Y-102940000D02*
X148500000Y-108940000D01*
X148500000Y-108940000D02*
X147740000Y-108940000D01*
X147740000Y-108940000D02*
X147740000Y-102940000D01*
X148500000Y-99882929D02*
X148500000Y-100280000D01*
X147740000Y-99882929D02*
X147740000Y-100280000D01*
X148500000Y-97342929D02*
X148500000Y-97797071D01*
X147740000Y-97342929D02*
X147740000Y-97797071D01*
X146850000Y-100280000D02*
X146850000Y-102940000D01*
X145960000Y-102940000D02*
X145960000Y-108940000D01*
X145960000Y-108940000D02*
X145200000Y-108940000D01*
X145200000Y-108940000D02*
X145200000Y-102940000D01*
X145960000Y-99882929D02*
X145960000Y-100280000D01*
X145200000Y-99882929D02*
X145200000Y-100280000D01*
X145960000Y-97342929D02*
X145960000Y-97797071D01*
X145200000Y-97342929D02*
X145200000Y-97797071D01*
X144310000Y-100280000D02*
X144310000Y-102940000D01*
X143420000Y-102940000D02*
X143420000Y-108940000D01*
X143420000Y-108940000D02*
X142660000Y-108940000D01*
X142660000Y-108940000D02*
X142660000Y-102940000D01*
X143420000Y-99882929D02*
X143420000Y-100280000D01*
X142660000Y-99882929D02*
X142660000Y-100280000D01*
X143420000Y-97342929D02*
X143420000Y-97797071D01*
X142660000Y-97342929D02*
X142660000Y-97797071D01*
X153200000Y-95030000D02*
X154470000Y-95030000D01*
X154470000Y-95030000D02*
X154470000Y-96300000D01*
X131110000Y-102678922D02*
X131110000Y-103196078D01*
X129690000Y-102678922D02*
X129690000Y-103196078D01*
X127310000Y-103196078D02*
X127310000Y-102678922D01*
X125890000Y-103196078D02*
X125890000Y-102678922D01*
X115840000Y-94820000D02*
X117300000Y-94820000D01*
X115840000Y-97980000D02*
X118000000Y-97980000D01*
X115840000Y-97980000D02*
X115840000Y-97050000D01*
X115840000Y-94820000D02*
X115840000Y-95750000D01*
X159640000Y-113620000D02*
X159640000Y-114550000D01*
X159640000Y-116780000D02*
X159640000Y-115850000D01*
X159640000Y-116780000D02*
X161800000Y-116780000D01*
X159640000Y-113620000D02*
X161100000Y-113620000D01*
X118437221Y-76090000D02*
X118762779Y-76090000D01*
X118437221Y-77110000D02*
X118762779Y-77110000D01*
X118437221Y-80260000D02*
X118762779Y-80260000D01*
X118437221Y-79240000D02*
X118762779Y-79240000D01*
X121840000Y-81125279D02*
X121840000Y-80799721D01*
X122860000Y-81125279D02*
X122860000Y-80799721D01*
X121840000Y-77162779D02*
X121840000Y-76837221D01*
X122860000Y-77162779D02*
X122860000Y-76837221D01*
X137490000Y-102037221D02*
X137490000Y-102362779D01*
X138510000Y-102037221D02*
X138510000Y-102362779D01*
X159840000Y-123537221D02*
X159840000Y-123862779D01*
X160860000Y-123537221D02*
X160860000Y-123862779D01*
X159890000Y-135762779D02*
X159890000Y-135437221D01*
X160910000Y-135762779D02*
X160910000Y-135437221D01*
X131560000Y-133737221D02*
X131560000Y-134062779D01*
X130540000Y-133737221D02*
X130540000Y-134062779D01*
X130387221Y-119160000D02*
X130712779Y-119160000D01*
X130387221Y-118140000D02*
X130712779Y-118140000D01*
X117310000Y-121237221D02*
X117310000Y-121562779D01*
X116290000Y-121237221D02*
X116290000Y-121562779D01*
X116962779Y-100490000D02*
X116637221Y-100490000D01*
X116962779Y-101510000D02*
X116637221Y-101510000D01*
X160362779Y-119810000D02*
X160037221Y-119810000D01*
X160362779Y-118790000D02*
X160037221Y-118790000D01*
X141400000Y-85900000D02*
X141400000Y-91650000D01*
X141400000Y-91650000D02*
X145000000Y-91650000D01*
X145000000Y-91650000D02*
X145000000Y-85900000D01*
D10*
X101266666Y-106252380D02*
X101266666Y-106966666D01*
X101219047Y-107109523D01*
X101123809Y-107204761D01*
X100980952Y-107252380D01*
X100885714Y-107252380D01*
X102266666Y-107252380D02*
X101695238Y-107252380D01*
X101980952Y-107252380D02*
X101980952Y-106252380D01*
X101885714Y-106395238D01*
X101790476Y-106490476D01*
X101695238Y-106538095D01*
X117261904Y-62852380D02*
X117261904Y-61852380D01*
X117500000Y-61852380D01*
X117642857Y-61900000D01*
X117738095Y-61995238D01*
X117785714Y-62090476D01*
X117833333Y-62280952D01*
X117833333Y-62423809D01*
X117785714Y-62614285D01*
X117738095Y-62709523D01*
X117642857Y-62804761D01*
X117500000Y-62852380D01*
X117261904Y-62852380D01*
X118214285Y-61947619D02*
X118261904Y-61900000D01*
X118357142Y-61852380D01*
X118595238Y-61852380D01*
X118690476Y-61900000D01*
X118738095Y-61947619D01*
X118785714Y-62042857D01*
X118785714Y-62138095D01*
X118738095Y-62280952D01*
X118166666Y-62852380D01*
X118785714Y-62852380D01*
X118304761Y-75447619D02*
X118209523Y-75400000D01*
X118114285Y-75304761D01*
X117971428Y-75161904D01*
X117876190Y-75114285D01*
X117780952Y-75114285D01*
X117828571Y-75352380D02*
X117733333Y-75304761D01*
X117638095Y-75209523D01*
X117590476Y-75019047D01*
X117590476Y-74685714D01*
X117638095Y-74495238D01*
X117733333Y-74400000D01*
X117828571Y-74352380D01*
X118019047Y-74352380D01*
X118114285Y-74400000D01*
X118209523Y-74495238D01*
X118257142Y-74685714D01*
X118257142Y-75019047D01*
X118209523Y-75209523D01*
X118114285Y-75304761D01*
X118019047Y-75352380D01*
X117828571Y-75352380D01*
X118590476Y-74352380D02*
X119209523Y-74352380D01*
X118876190Y-74733333D01*
X119019047Y-74733333D01*
X119114285Y-74780952D01*
X119161904Y-74828571D01*
X119209523Y-74923809D01*
X119209523Y-75161904D01*
X119161904Y-75257142D01*
X119114285Y-75304761D01*
X119019047Y-75352380D01*
X118733333Y-75352380D01*
X118638095Y-75304761D01*
X118590476Y-75257142D01*
X118304761Y-70447619D02*
X118209523Y-70400000D01*
X118114285Y-70304761D01*
X117971428Y-70161904D01*
X117876190Y-70114285D01*
X117780952Y-70114285D01*
X117828571Y-70352380D02*
X117733333Y-70304761D01*
X117638095Y-70209523D01*
X117590476Y-70019047D01*
X117590476Y-69685714D01*
X117638095Y-69495238D01*
X117733333Y-69400000D01*
X117828571Y-69352380D01*
X118019047Y-69352380D01*
X118114285Y-69400000D01*
X118209523Y-69495238D01*
X118257142Y-69685714D01*
X118257142Y-70019047D01*
X118209523Y-70209523D01*
X118114285Y-70304761D01*
X118019047Y-70352380D01*
X117828571Y-70352380D01*
X118638095Y-69447619D02*
X118685714Y-69400000D01*
X118780952Y-69352380D01*
X119019047Y-69352380D01*
X119114285Y-69400000D01*
X119161904Y-69447619D01*
X119209523Y-69542857D01*
X119209523Y-69638095D01*
X119161904Y-69780952D01*
X118590476Y-70352380D01*
X119209523Y-70352380D01*
X155504761Y-83147619D02*
X155409523Y-83100000D01*
X155314285Y-83004761D01*
X155171428Y-82861904D01*
X155076190Y-82814285D01*
X154980952Y-82814285D01*
X155028571Y-83052380D02*
X154933333Y-83004761D01*
X154838095Y-82909523D01*
X154790476Y-82719047D01*
X154790476Y-82385714D01*
X154838095Y-82195238D01*
X154933333Y-82100000D01*
X155028571Y-82052380D01*
X155219047Y-82052380D01*
X155314285Y-82100000D01*
X155409523Y-82195238D01*
X155457142Y-82385714D01*
X155457142Y-82719047D01*
X155409523Y-82909523D01*
X155314285Y-83004761D01*
X155219047Y-83052380D01*
X155028571Y-83052380D01*
X156409523Y-83052380D02*
X155838095Y-83052380D01*
X156123809Y-83052380D02*
X156123809Y-82052380D01*
X156028571Y-82195238D01*
X155933333Y-82290476D01*
X155838095Y-82338095D01*
X159233333Y-94557142D02*
X159185714Y-94604761D01*
X159042857Y-94652380D01*
X158947619Y-94652380D01*
X158804761Y-94604761D01*
X158709523Y-94509523D01*
X158661904Y-94414285D01*
X158614285Y-94223809D01*
X158614285Y-94080952D01*
X158661904Y-93890476D01*
X158709523Y-93795238D01*
X158804761Y-93700000D01*
X158947619Y-93652380D01*
X159042857Y-93652380D01*
X159185714Y-93700000D01*
X159233333Y-93747619D01*
X159566666Y-93652380D02*
X160185714Y-93652380D01*
X159852380Y-94033333D01*
X159995238Y-94033333D01*
X160090476Y-94080952D01*
X160138095Y-94128571D01*
X160185714Y-94223809D01*
X160185714Y-94461904D01*
X160138095Y-94557142D01*
X160090476Y-94604761D01*
X159995238Y-94652380D01*
X159709523Y-94652380D01*
X159614285Y-94604761D01*
X159566666Y-94557142D01*
X119438095Y-83852380D02*
X119438095Y-84661904D01*
X119485714Y-84757142D01*
X119533333Y-84804761D01*
X119628571Y-84852380D01*
X119819047Y-84852380D01*
X119914285Y-84804761D01*
X119961904Y-84757142D01*
X120009523Y-84661904D01*
X120009523Y-83852380D01*
X120390476Y-83852380D02*
X121057142Y-83852380D01*
X120628571Y-84852380D01*
X116557142Y-92452380D02*
X116223809Y-91976190D01*
X115985714Y-92452380D02*
X115985714Y-91452380D01*
X116366666Y-91452380D01*
X116461904Y-91500000D01*
X116509523Y-91547619D01*
X116557142Y-91642857D01*
X116557142Y-91785714D01*
X116509523Y-91880952D01*
X116461904Y-91928571D01*
X116366666Y-91976190D01*
X115985714Y-91976190D01*
X116938095Y-91547619D02*
X116985714Y-91500000D01*
X117080952Y-91452380D01*
X117319047Y-91452380D01*
X117414285Y-91500000D01*
X117461904Y-91547619D01*
X117509523Y-91642857D01*
X117509523Y-91738095D01*
X117461904Y-91880952D01*
X116890476Y-92452380D01*
X117509523Y-92452380D01*
X117890476Y-91547619D02*
X117938095Y-91500000D01*
X118033333Y-91452380D01*
X118271428Y-91452380D01*
X118366666Y-91500000D01*
X118414285Y-91547619D01*
X118461904Y-91642857D01*
X118461904Y-91738095D01*
X118414285Y-91880952D01*
X117842857Y-92452380D01*
X118461904Y-92452380D01*
X125661904Y-64652380D02*
X125661904Y-63652380D01*
X126233333Y-64652380D02*
X125804761Y-64080952D01*
X126233333Y-63652380D02*
X125661904Y-64223809D01*
X127185714Y-64652380D02*
X126614285Y-64652380D01*
X126900000Y-64652380D02*
X126900000Y-63652380D01*
X126804761Y-63795238D01*
X126709523Y-63890476D01*
X126614285Y-63938095D01*
X157338904Y-82351380D02*
X157338904Y-81351380D01*
X157577000Y-81351380D01*
X157719857Y-81399000D01*
X157815095Y-81494238D01*
X157862714Y-81589476D01*
X157910333Y-81779952D01*
X157910333Y-81922809D01*
X157862714Y-82113285D01*
X157815095Y-82208523D01*
X157719857Y-82303761D01*
X157577000Y-82351380D01*
X157338904Y-82351380D01*
X158862714Y-82351380D02*
X158291285Y-82351380D01*
X158577000Y-82351380D02*
X158577000Y-81351380D01*
X158481761Y-81494238D01*
X158386523Y-81589476D01*
X158291285Y-81637095D01*
X157745833Y-64045642D02*
X157698214Y-64093261D01*
X157555357Y-64140880D01*
X157460119Y-64140880D01*
X157317261Y-64093261D01*
X157222023Y-63998023D01*
X157174404Y-63902785D01*
X157126785Y-63712309D01*
X157126785Y-63569452D01*
X157174404Y-63378976D01*
X157222023Y-63283738D01*
X157317261Y-63188500D01*
X157460119Y-63140880D01*
X157555357Y-63140880D01*
X157698214Y-63188500D01*
X157745833Y-63236119D01*
X158698214Y-64140880D02*
X158126785Y-64140880D01*
X158412500Y-64140880D02*
X158412500Y-63140880D01*
X158317261Y-63283738D01*
X158222023Y-63378976D01*
X158126785Y-63426595D01*
X161310333Y-68356142D02*
X161262714Y-68403761D01*
X161119857Y-68451380D01*
X161024619Y-68451380D01*
X160881761Y-68403761D01*
X160786523Y-68308523D01*
X160738904Y-68213285D01*
X160691285Y-68022809D01*
X160691285Y-67879952D01*
X160738904Y-67689476D01*
X160786523Y-67594238D01*
X160881761Y-67499000D01*
X161024619Y-67451380D01*
X161119857Y-67451380D01*
X161262714Y-67499000D01*
X161310333Y-67546619D01*
X161691285Y-67546619D02*
X161738904Y-67499000D01*
X161834142Y-67451380D01*
X162072238Y-67451380D01*
X162167476Y-67499000D01*
X162215095Y-67546619D01*
X162262714Y-67641857D01*
X162262714Y-67737095D01*
X162215095Y-67879952D01*
X161643666Y-68451380D01*
X162262714Y-68451380D01*
X153433333Y-78757142D02*
X153385714Y-78804761D01*
X153242857Y-78852380D01*
X153147619Y-78852380D01*
X153004761Y-78804761D01*
X152909523Y-78709523D01*
X152861904Y-78614285D01*
X152814285Y-78423809D01*
X152814285Y-78280952D01*
X152861904Y-78090476D01*
X152909523Y-77995238D01*
X153004761Y-77900000D01*
X153147619Y-77852380D01*
X153242857Y-77852380D01*
X153385714Y-77900000D01*
X153433333Y-77947619D01*
X154290476Y-78185714D02*
X154290476Y-78852380D01*
X154052380Y-77804761D02*
X153814285Y-78519047D01*
X154433333Y-78519047D01*
X151433333Y-93257142D02*
X151385714Y-93304761D01*
X151242857Y-93352380D01*
X151147619Y-93352380D01*
X151004761Y-93304761D01*
X150909523Y-93209523D01*
X150861904Y-93114285D01*
X150814285Y-92923809D01*
X150814285Y-92780952D01*
X150861904Y-92590476D01*
X150909523Y-92495238D01*
X151004761Y-92400000D01*
X151147619Y-92352380D01*
X151242857Y-92352380D01*
X151385714Y-92400000D01*
X151433333Y-92447619D01*
X152290476Y-92352380D02*
X152100000Y-92352380D01*
X152004761Y-92400000D01*
X151957142Y-92447619D01*
X151861904Y-92590476D01*
X151814285Y-92780952D01*
X151814285Y-93161904D01*
X151861904Y-93257142D01*
X151909523Y-93304761D01*
X152004761Y-93352380D01*
X152195238Y-93352380D01*
X152290476Y-93304761D01*
X152338095Y-93257142D01*
X152385714Y-93161904D01*
X152385714Y-92923809D01*
X152338095Y-92828571D01*
X152290476Y-92780952D01*
X152195238Y-92733333D01*
X152004761Y-92733333D01*
X151909523Y-92780952D01*
X151861904Y-92828571D01*
X151814285Y-92923809D01*
X144357142Y-81966666D02*
X144404761Y-82014285D01*
X144452380Y-82157142D01*
X144452380Y-82252380D01*
X144404761Y-82395238D01*
X144309523Y-82490476D01*
X144214285Y-82538095D01*
X144023809Y-82585714D01*
X143880952Y-82585714D01*
X143690476Y-82538095D01*
X143595238Y-82490476D01*
X143500000Y-82395238D01*
X143452380Y-82252380D01*
X143452380Y-82157142D01*
X143500000Y-82014285D01*
X143547619Y-81966666D01*
X143880952Y-81395238D02*
X143833333Y-81490476D01*
X143785714Y-81538095D01*
X143690476Y-81585714D01*
X143642857Y-81585714D01*
X143547619Y-81538095D01*
X143500000Y-81490476D01*
X143452380Y-81395238D01*
X143452380Y-81204761D01*
X143500000Y-81109523D01*
X143547619Y-81061904D01*
X143642857Y-81014285D01*
X143690476Y-81014285D01*
X143785714Y-81061904D01*
X143833333Y-81109523D01*
X143880952Y-81204761D01*
X143880952Y-81395238D01*
X143928571Y-81490476D01*
X143976190Y-81538095D01*
X144071428Y-81585714D01*
X144261904Y-81585714D01*
X144357142Y-81538095D01*
X144404761Y-81490476D01*
X144452380Y-81395238D01*
X144452380Y-81204761D01*
X144404761Y-81109523D01*
X144357142Y-81061904D01*
X144261904Y-81014285D01*
X144071428Y-81014285D01*
X143976190Y-81061904D01*
X143928571Y-81109523D01*
X143880952Y-81204761D01*
X160666833Y-79056142D02*
X160619214Y-79103761D01*
X160476357Y-79151380D01*
X160381119Y-79151380D01*
X160238261Y-79103761D01*
X160143023Y-79008523D01*
X160095404Y-78913285D01*
X160047785Y-78722809D01*
X160047785Y-78579952D01*
X160095404Y-78389476D01*
X160143023Y-78294238D01*
X160238261Y-78199000D01*
X160381119Y-78151380D01*
X160476357Y-78151380D01*
X160619214Y-78199000D01*
X160666833Y-78246619D01*
X161143023Y-79151380D02*
X161333500Y-79151380D01*
X161428738Y-79103761D01*
X161476357Y-79056142D01*
X161571595Y-78913285D01*
X161619214Y-78722809D01*
X161619214Y-78341857D01*
X161571595Y-78246619D01*
X161523976Y-78199000D01*
X161428738Y-78151380D01*
X161238261Y-78151380D01*
X161143023Y-78199000D01*
X161095404Y-78246619D01*
X161047785Y-78341857D01*
X161047785Y-78579952D01*
X161095404Y-78675190D01*
X161143023Y-78722809D01*
X161238261Y-78770428D01*
X161428738Y-78770428D01*
X161523976Y-78722809D01*
X161571595Y-78675190D01*
X161619214Y-78579952D01*
X125357142Y-67116142D02*
X125309523Y-67163761D01*
X125166666Y-67211380D01*
X125071428Y-67211380D01*
X124928571Y-67163761D01*
X124833333Y-67068523D01*
X124785714Y-66973285D01*
X124738095Y-66782809D01*
X124738095Y-66639952D01*
X124785714Y-66449476D01*
X124833333Y-66354238D01*
X124928571Y-66259000D01*
X125071428Y-66211380D01*
X125166666Y-66211380D01*
X125309523Y-66259000D01*
X125357142Y-66306619D01*
X125738095Y-66306619D02*
X125785714Y-66259000D01*
X125880952Y-66211380D01*
X126119047Y-66211380D01*
X126214285Y-66259000D01*
X126261904Y-66306619D01*
X126309523Y-66401857D01*
X126309523Y-66497095D01*
X126261904Y-66639952D01*
X125690476Y-67211380D01*
X126309523Y-67211380D01*
X127261904Y-67211380D02*
X126690476Y-67211380D01*
X126976190Y-67211380D02*
X126976190Y-66211380D01*
X126880952Y-66354238D01*
X126785714Y-66449476D01*
X126690476Y-66497095D01*
X125357142Y-71557142D02*
X125309523Y-71604761D01*
X125166666Y-71652380D01*
X125071428Y-71652380D01*
X124928571Y-71604761D01*
X124833333Y-71509523D01*
X124785714Y-71414285D01*
X124738095Y-71223809D01*
X124738095Y-71080952D01*
X124785714Y-70890476D01*
X124833333Y-70795238D01*
X124928571Y-70700000D01*
X125071428Y-70652380D01*
X125166666Y-70652380D01*
X125309523Y-70700000D01*
X125357142Y-70747619D01*
X125738095Y-70747619D02*
X125785714Y-70700000D01*
X125880952Y-70652380D01*
X126119047Y-70652380D01*
X126214285Y-70700000D01*
X126261904Y-70747619D01*
X126309523Y-70842857D01*
X126309523Y-70938095D01*
X126261904Y-71080952D01*
X125690476Y-71652380D01*
X126309523Y-71652380D01*
X126690476Y-70747619D02*
X126738095Y-70700000D01*
X126833333Y-70652380D01*
X127071428Y-70652380D01*
X127166666Y-70700000D01*
X127214285Y-70747619D01*
X127261904Y-70842857D01*
X127261904Y-70938095D01*
X127214285Y-71080952D01*
X126642857Y-71652380D01*
X127261904Y-71652380D01*
X162310333Y-74951380D02*
X161834142Y-74951380D01*
X161834142Y-73951380D01*
X163167476Y-74951380D02*
X162596047Y-74951380D01*
X162881761Y-74951380D02*
X162881761Y-73951380D01*
X162786523Y-74094238D01*
X162691285Y-74189476D01*
X162596047Y-74237095D01*
X147433333Y-81252380D02*
X147100000Y-80776190D01*
X146861904Y-81252380D02*
X146861904Y-80252380D01*
X147242857Y-80252380D01*
X147338095Y-80300000D01*
X147385714Y-80347619D01*
X147433333Y-80442857D01*
X147433333Y-80585714D01*
X147385714Y-80680952D01*
X147338095Y-80728571D01*
X147242857Y-80776190D01*
X146861904Y-80776190D01*
X148385714Y-81252380D02*
X147814285Y-81252380D01*
X148100000Y-81252380D02*
X148100000Y-80252380D01*
X148004761Y-80395238D01*
X147909523Y-80490476D01*
X147814285Y-80538095D01*
X138810333Y-81450380D02*
X138477000Y-80974190D01*
X138238904Y-81450380D02*
X138238904Y-80450380D01*
X138619857Y-80450380D01*
X138715095Y-80498000D01*
X138762714Y-80545619D01*
X138810333Y-80640857D01*
X138810333Y-80783714D01*
X138762714Y-80878952D01*
X138715095Y-80926571D01*
X138619857Y-80974190D01*
X138238904Y-80974190D01*
X139667476Y-80783714D02*
X139667476Y-81450380D01*
X139429380Y-80402761D02*
X139191285Y-81117047D01*
X139810333Y-81117047D01*
X151557142Y-64331380D02*
X151223809Y-63855190D01*
X150985714Y-64331380D02*
X150985714Y-63331380D01*
X151366666Y-63331380D01*
X151461904Y-63379000D01*
X151509523Y-63426619D01*
X151557142Y-63521857D01*
X151557142Y-63664714D01*
X151509523Y-63759952D01*
X151461904Y-63807571D01*
X151366666Y-63855190D01*
X150985714Y-63855190D01*
X152509523Y-64331380D02*
X151938095Y-64331380D01*
X152223809Y-64331380D02*
X152223809Y-63331380D01*
X152128571Y-63474238D01*
X152033333Y-63569476D01*
X151938095Y-63617095D01*
X153128571Y-63331380D02*
X153223809Y-63331380D01*
X153319047Y-63379000D01*
X153366666Y-63426619D01*
X153414285Y-63521857D01*
X153461904Y-63712333D01*
X153461904Y-63950428D01*
X153414285Y-64140904D01*
X153366666Y-64236142D01*
X153319047Y-64283761D01*
X153223809Y-64331380D01*
X153128571Y-64331380D01*
X153033333Y-64283761D01*
X152985714Y-64236142D01*
X152938095Y-64140904D01*
X152890476Y-63950428D01*
X152890476Y-63712333D01*
X152938095Y-63521857D01*
X152985714Y-63426619D01*
X153033333Y-63379000D01*
X153128571Y-63331380D01*
X157714142Y-65951380D02*
X157380809Y-65475190D01*
X157142714Y-65951380D02*
X157142714Y-64951380D01*
X157523666Y-64951380D01*
X157618904Y-64999000D01*
X157666523Y-65046619D01*
X157714142Y-65141857D01*
X157714142Y-65284714D01*
X157666523Y-65379952D01*
X157618904Y-65427571D01*
X157523666Y-65475190D01*
X157142714Y-65475190D01*
X158666523Y-65951380D02*
X158095095Y-65951380D01*
X158380809Y-65951380D02*
X158380809Y-64951380D01*
X158285571Y-65094238D01*
X158190333Y-65189476D01*
X158095095Y-65237095D01*
X159618904Y-65951380D02*
X159047476Y-65951380D01*
X159333190Y-65951380D02*
X159333190Y-64951380D01*
X159237952Y-65094238D01*
X159142714Y-65189476D01*
X159047476Y-65237095D01*
X154158142Y-73475380D02*
X153824809Y-72999190D01*
X153586714Y-73475380D02*
X153586714Y-72475380D01*
X153967666Y-72475380D01*
X154062904Y-72523000D01*
X154110523Y-72570619D01*
X154158142Y-72665857D01*
X154158142Y-72808714D01*
X154110523Y-72903952D01*
X154062904Y-72951571D01*
X153967666Y-72999190D01*
X153586714Y-72999190D01*
X155110523Y-73475380D02*
X154539095Y-73475380D01*
X154824809Y-73475380D02*
X154824809Y-72475380D01*
X154729571Y-72618238D01*
X154634333Y-72713476D01*
X154539095Y-72761095D01*
X155491476Y-72570619D02*
X155539095Y-72523000D01*
X155634333Y-72475380D01*
X155872428Y-72475380D01*
X155967666Y-72523000D01*
X156015285Y-72570619D01*
X156062904Y-72665857D01*
X156062904Y-72761095D01*
X156015285Y-72903952D01*
X155443857Y-73475380D01*
X156062904Y-73475380D01*
X146957142Y-84252380D02*
X146623809Y-83776190D01*
X146385714Y-84252380D02*
X146385714Y-83252380D01*
X146766666Y-83252380D01*
X146861904Y-83300000D01*
X146909523Y-83347619D01*
X146957142Y-83442857D01*
X146957142Y-83585714D01*
X146909523Y-83680952D01*
X146861904Y-83728571D01*
X146766666Y-83776190D01*
X146385714Y-83776190D01*
X147909523Y-84252380D02*
X147338095Y-84252380D01*
X147623809Y-84252380D02*
X147623809Y-83252380D01*
X147528571Y-83395238D01*
X147433333Y-83490476D01*
X147338095Y-83538095D01*
X148242857Y-83252380D02*
X148861904Y-83252380D01*
X148528571Y-83633333D01*
X148671428Y-83633333D01*
X148766666Y-83680952D01*
X148814285Y-83728571D01*
X148861904Y-83823809D01*
X148861904Y-84061904D01*
X148814285Y-84157142D01*
X148766666Y-84204761D01*
X148671428Y-84252380D01*
X148385714Y-84252380D01*
X148290476Y-84204761D01*
X148242857Y-84157142D01*
X125357142Y-69652380D02*
X125023809Y-69176190D01*
X124785714Y-69652380D02*
X124785714Y-68652380D01*
X125166666Y-68652380D01*
X125261904Y-68700000D01*
X125309523Y-68747619D01*
X125357142Y-68842857D01*
X125357142Y-68985714D01*
X125309523Y-69080952D01*
X125261904Y-69128571D01*
X125166666Y-69176190D01*
X124785714Y-69176190D01*
X126309523Y-69652380D02*
X125738095Y-69652380D01*
X126023809Y-69652380D02*
X126023809Y-68652380D01*
X125928571Y-68795238D01*
X125833333Y-68890476D01*
X125738095Y-68938095D01*
X127166666Y-68652380D02*
X126976190Y-68652380D01*
X126880952Y-68700000D01*
X126833333Y-68747619D01*
X126738095Y-68890476D01*
X126690476Y-69080952D01*
X126690476Y-69461904D01*
X126738095Y-69557142D01*
X126785714Y-69604761D01*
X126880952Y-69652380D01*
X127071428Y-69652380D01*
X127166666Y-69604761D01*
X127214285Y-69557142D01*
X127261904Y-69461904D01*
X127261904Y-69223809D01*
X127214285Y-69128571D01*
X127166666Y-69080952D01*
X127071428Y-69033333D01*
X126880952Y-69033333D01*
X126785714Y-69080952D01*
X126738095Y-69128571D01*
X126690476Y-69223809D01*
X125357142Y-73548880D02*
X125023809Y-73072690D01*
X124785714Y-73548880D02*
X124785714Y-72548880D01*
X125166666Y-72548880D01*
X125261904Y-72596500D01*
X125309523Y-72644119D01*
X125357142Y-72739357D01*
X125357142Y-72882214D01*
X125309523Y-72977452D01*
X125261904Y-73025071D01*
X125166666Y-73072690D01*
X124785714Y-73072690D01*
X126309523Y-73548880D02*
X125738095Y-73548880D01*
X126023809Y-73548880D02*
X126023809Y-72548880D01*
X125928571Y-72691738D01*
X125833333Y-72786976D01*
X125738095Y-72834595D01*
X126642857Y-72548880D02*
X127309523Y-72548880D01*
X126880952Y-73548880D01*
X121357142Y-103452380D02*
X121023809Y-102976190D01*
X120785714Y-103452380D02*
X120785714Y-102452380D01*
X121166666Y-102452380D01*
X121261904Y-102500000D01*
X121309523Y-102547619D01*
X121357142Y-102642857D01*
X121357142Y-102785714D01*
X121309523Y-102880952D01*
X121261904Y-102928571D01*
X121166666Y-102976190D01*
X120785714Y-102976190D01*
X121738095Y-102547619D02*
X121785714Y-102500000D01*
X121880952Y-102452380D01*
X122119047Y-102452380D01*
X122214285Y-102500000D01*
X122261904Y-102547619D01*
X122309523Y-102642857D01*
X122309523Y-102738095D01*
X122261904Y-102880952D01*
X121690476Y-103452380D01*
X122309523Y-103452380D01*
X123261904Y-103452380D02*
X122690476Y-103452380D01*
X122976190Y-103452380D02*
X122976190Y-102452380D01*
X122880952Y-102595238D01*
X122785714Y-102690476D01*
X122690476Y-102738095D01*
X152015095Y-68951380D02*
X152015095Y-69760904D01*
X152062714Y-69856142D01*
X152110333Y-69903761D01*
X152205571Y-69951380D01*
X152396047Y-69951380D01*
X152491285Y-69903761D01*
X152538904Y-69856142D01*
X152586523Y-69760904D01*
X152586523Y-68951380D01*
X153586523Y-69951380D02*
X153015095Y-69951380D01*
X153300809Y-69951380D02*
X153300809Y-68951380D01*
X153205571Y-69094238D01*
X153110333Y-69189476D01*
X153015095Y-69237095D01*
X154438095Y-91852380D02*
X154438095Y-92661904D01*
X154485714Y-92757142D01*
X154533333Y-92804761D01*
X154628571Y-92852380D01*
X154819047Y-92852380D01*
X154914285Y-92804761D01*
X154961904Y-92757142D01*
X155009523Y-92661904D01*
X155009523Y-91852380D01*
X155438095Y-91947619D02*
X155485714Y-91900000D01*
X155580952Y-91852380D01*
X155819047Y-91852380D01*
X155914285Y-91900000D01*
X155961904Y-91947619D01*
X156009523Y-92042857D01*
X156009523Y-92138095D01*
X155961904Y-92280952D01*
X155390476Y-92852380D01*
X156009523Y-92852380D01*
X119638095Y-93452380D02*
X119638095Y-94261904D01*
X119685714Y-94357142D01*
X119733333Y-94404761D01*
X119828571Y-94452380D01*
X120019047Y-94452380D01*
X120114285Y-94404761D01*
X120161904Y-94357142D01*
X120209523Y-94261904D01*
X120209523Y-93452380D01*
X121114285Y-93785714D02*
X121114285Y-94452380D01*
X120876190Y-93404761D02*
X120638095Y-94119047D01*
X121257142Y-94119047D01*
X131238095Y-97354880D02*
X131238095Y-98164404D01*
X131285714Y-98259642D01*
X131333333Y-98307261D01*
X131428571Y-98354880D01*
X131619047Y-98354880D01*
X131714285Y-98307261D01*
X131761904Y-98259642D01*
X131809523Y-98164404D01*
X131809523Y-97354880D01*
X132190476Y-97354880D02*
X132809523Y-97354880D01*
X132476190Y-97735833D01*
X132619047Y-97735833D01*
X132714285Y-97783452D01*
X132761904Y-97831071D01*
X132809523Y-97926309D01*
X132809523Y-98164404D01*
X132761904Y-98259642D01*
X132714285Y-98307261D01*
X132619047Y-98354880D01*
X132333333Y-98354880D01*
X132238095Y-98307261D01*
X132190476Y-98259642D01*
X116138095Y-134402380D02*
X116138095Y-135211904D01*
X116185714Y-135307142D01*
X116233333Y-135354761D01*
X116328571Y-135402380D01*
X116519047Y-135402380D01*
X116614285Y-135354761D01*
X116661904Y-135307142D01*
X116709523Y-135211904D01*
X116709523Y-134402380D01*
X117614285Y-134402380D02*
X117423809Y-134402380D01*
X117328571Y-134450000D01*
X117280952Y-134497619D01*
X117185714Y-134640476D01*
X117138095Y-134830952D01*
X117138095Y-135211904D01*
X117185714Y-135307142D01*
X117233333Y-135354761D01*
X117328571Y-135402380D01*
X117519047Y-135402380D01*
X117614285Y-135354761D01*
X117661904Y-135307142D01*
X117709523Y-135211904D01*
X117709523Y-134973809D01*
X117661904Y-134878571D01*
X117614285Y-134830952D01*
X117519047Y-134783333D01*
X117328571Y-134783333D01*
X117233333Y-134830952D01*
X117185714Y-134878571D01*
X117138095Y-134973809D01*
X116088095Y-114408380D02*
X116088095Y-115217904D01*
X116135714Y-115313142D01*
X116183333Y-115360761D01*
X116278571Y-115408380D01*
X116469047Y-115408380D01*
X116564285Y-115360761D01*
X116611904Y-115313142D01*
X116659523Y-115217904D01*
X116659523Y-114408380D01*
X117611904Y-114408380D02*
X117135714Y-114408380D01*
X117088095Y-114884571D01*
X117135714Y-114836952D01*
X117230952Y-114789333D01*
X117469047Y-114789333D01*
X117564285Y-114836952D01*
X117611904Y-114884571D01*
X117659523Y-114979809D01*
X117659523Y-115217904D01*
X117611904Y-115313142D01*
X117564285Y-115360761D01*
X117469047Y-115408380D01*
X117230952Y-115408380D01*
X117135714Y-115360761D01*
X117088095Y-115313142D01*
X124833333Y-83757142D02*
X124785714Y-83804761D01*
X124642857Y-83852380D01*
X124547619Y-83852380D01*
X124404761Y-83804761D01*
X124309523Y-83709523D01*
X124261904Y-83614285D01*
X124214285Y-83423809D01*
X124214285Y-83280952D01*
X124261904Y-83090476D01*
X124309523Y-82995238D01*
X124404761Y-82900000D01*
X124547619Y-82852380D01*
X124642857Y-82852380D01*
X124785714Y-82900000D01*
X124833333Y-82947619D01*
X125738095Y-82852380D02*
X125261904Y-82852380D01*
X125214285Y-83328571D01*
X125261904Y-83280952D01*
X125357142Y-83233333D01*
X125595238Y-83233333D01*
X125690476Y-83280952D01*
X125738095Y-83328571D01*
X125785714Y-83423809D01*
X125785714Y-83661904D01*
X125738095Y-83757142D01*
X125690476Y-83804761D01*
X125595238Y-83852380D01*
X125357142Y-83852380D01*
X125261904Y-83804761D01*
X125214285Y-83757142D01*
X108833333Y-105757142D02*
X108785714Y-105804761D01*
X108642857Y-105852380D01*
X108547619Y-105852380D01*
X108404761Y-105804761D01*
X108309523Y-105709523D01*
X108261904Y-105614285D01*
X108214285Y-105423809D01*
X108214285Y-105280952D01*
X108261904Y-105090476D01*
X108309523Y-104995238D01*
X108404761Y-104900000D01*
X108547619Y-104852380D01*
X108642857Y-104852380D01*
X108785714Y-104900000D01*
X108833333Y-104947619D01*
X109166666Y-104852380D02*
X109833333Y-104852380D01*
X109404761Y-105852380D01*
X125157142Y-75157142D02*
X125109523Y-75204761D01*
X124966666Y-75252380D01*
X124871428Y-75252380D01*
X124728571Y-75204761D01*
X124633333Y-75109523D01*
X124585714Y-75014285D01*
X124538095Y-74823809D01*
X124538095Y-74680952D01*
X124585714Y-74490476D01*
X124633333Y-74395238D01*
X124728571Y-74300000D01*
X124871428Y-74252380D01*
X124966666Y-74252380D01*
X125109523Y-74300000D01*
X125157142Y-74347619D01*
X126109523Y-75252380D02*
X125538095Y-75252380D01*
X125823809Y-75252380D02*
X125823809Y-74252380D01*
X125728571Y-74395238D01*
X125633333Y-74490476D01*
X125538095Y-74538095D01*
X126728571Y-74252380D02*
X126823809Y-74252380D01*
X126919047Y-74300000D01*
X126966666Y-74347619D01*
X127014285Y-74442857D01*
X127061904Y-74633333D01*
X127061904Y-74871428D01*
X127014285Y-75061904D01*
X126966666Y-75157142D01*
X126919047Y-75204761D01*
X126823809Y-75252380D01*
X126728571Y-75252380D01*
X126633333Y-75204761D01*
X126585714Y-75157142D01*
X126538095Y-75061904D01*
X126490476Y-74871428D01*
X126490476Y-74633333D01*
X126538095Y-74442857D01*
X126585714Y-74347619D01*
X126633333Y-74300000D01*
X126728571Y-74252380D01*
X127878142Y-100991142D02*
X127830523Y-101038761D01*
X127687666Y-101086380D01*
X127592428Y-101086380D01*
X127449571Y-101038761D01*
X127354333Y-100943523D01*
X127306714Y-100848285D01*
X127259095Y-100657809D01*
X127259095Y-100514952D01*
X127306714Y-100324476D01*
X127354333Y-100229238D01*
X127449571Y-100134000D01*
X127592428Y-100086380D01*
X127687666Y-100086380D01*
X127830523Y-100134000D01*
X127878142Y-100181619D01*
X128830523Y-101086380D02*
X128259095Y-101086380D01*
X128544809Y-101086380D02*
X128544809Y-100086380D01*
X128449571Y-100229238D01*
X128354333Y-100324476D01*
X128259095Y-100372095D01*
X129782904Y-101086380D02*
X129211476Y-101086380D01*
X129497190Y-101086380D02*
X129497190Y-100086380D01*
X129401952Y-100229238D01*
X129306714Y-100324476D01*
X129211476Y-100372095D01*
X142561142Y-94523642D02*
X142513523Y-94571261D01*
X142370666Y-94618880D01*
X142275428Y-94618880D01*
X142132571Y-94571261D01*
X142037333Y-94476023D01*
X141989714Y-94380785D01*
X141942095Y-94190309D01*
X141942095Y-94047452D01*
X141989714Y-93856976D01*
X142037333Y-93761738D01*
X142132571Y-93666500D01*
X142275428Y-93618880D01*
X142370666Y-93618880D01*
X142513523Y-93666500D01*
X142561142Y-93714119D01*
X143513523Y-94618880D02*
X142942095Y-94618880D01*
X143227809Y-94618880D02*
X143227809Y-93618880D01*
X143132571Y-93761738D01*
X143037333Y-93856976D01*
X142942095Y-93904595D01*
X143894476Y-93714119D02*
X143942095Y-93666500D01*
X144037333Y-93618880D01*
X144275428Y-93618880D01*
X144370666Y-93666500D01*
X144418285Y-93714119D01*
X144465904Y-93809357D01*
X144465904Y-93904595D01*
X144418285Y-94047452D01*
X143846857Y-94618880D01*
X144465904Y-94618880D01*
X133157142Y-101957142D02*
X133109523Y-102004761D01*
X132966666Y-102052380D01*
X132871428Y-102052380D01*
X132728571Y-102004761D01*
X132633333Y-101909523D01*
X132585714Y-101814285D01*
X132538095Y-101623809D01*
X132538095Y-101480952D01*
X132585714Y-101290476D01*
X132633333Y-101195238D01*
X132728571Y-101100000D01*
X132871428Y-101052380D01*
X132966666Y-101052380D01*
X133109523Y-101100000D01*
X133157142Y-101147619D01*
X134109523Y-102052380D02*
X133538095Y-102052380D01*
X133823809Y-102052380D02*
X133823809Y-101052380D01*
X133728571Y-101195238D01*
X133633333Y-101290476D01*
X133538095Y-101338095D01*
X134442857Y-101052380D02*
X135061904Y-101052380D01*
X134728571Y-101433333D01*
X134871428Y-101433333D01*
X134966666Y-101480952D01*
X135014285Y-101528571D01*
X135061904Y-101623809D01*
X135061904Y-101861904D01*
X135014285Y-101957142D01*
X134966666Y-102004761D01*
X134871428Y-102052380D01*
X134585714Y-102052380D01*
X134490476Y-102004761D01*
X134442857Y-101957142D01*
X139157142Y-84557142D02*
X139109523Y-84604761D01*
X138966666Y-84652380D01*
X138871428Y-84652380D01*
X138728571Y-84604761D01*
X138633333Y-84509523D01*
X138585714Y-84414285D01*
X138538095Y-84223809D01*
X138538095Y-84080952D01*
X138585714Y-83890476D01*
X138633333Y-83795238D01*
X138728571Y-83700000D01*
X138871428Y-83652380D01*
X138966666Y-83652380D01*
X139109523Y-83700000D01*
X139157142Y-83747619D01*
X140109523Y-84652380D02*
X139538095Y-84652380D01*
X139823809Y-84652380D02*
X139823809Y-83652380D01*
X139728571Y-83795238D01*
X139633333Y-83890476D01*
X139538095Y-83938095D01*
X141014285Y-83652380D02*
X140538095Y-83652380D01*
X140490476Y-84128571D01*
X140538095Y-84080952D01*
X140633333Y-84033333D01*
X140871428Y-84033333D01*
X140966666Y-84080952D01*
X141014285Y-84128571D01*
X141061904Y-84223809D01*
X141061904Y-84461904D01*
X141014285Y-84557142D01*
X140966666Y-84604761D01*
X140871428Y-84652380D01*
X140633333Y-84652380D01*
X140538095Y-84604761D01*
X140490476Y-84557142D01*
X127157142Y-99557142D02*
X127109523Y-99604761D01*
X126966666Y-99652380D01*
X126871428Y-99652380D01*
X126728571Y-99604761D01*
X126633333Y-99509523D01*
X126585714Y-99414285D01*
X126538095Y-99223809D01*
X126538095Y-99080952D01*
X126585714Y-98890476D01*
X126633333Y-98795238D01*
X126728571Y-98700000D01*
X126871428Y-98652380D01*
X126966666Y-98652380D01*
X127109523Y-98700000D01*
X127157142Y-98747619D01*
X128109523Y-99652380D02*
X127538095Y-99652380D01*
X127823809Y-99652380D02*
X127823809Y-98652380D01*
X127728571Y-98795238D01*
X127633333Y-98890476D01*
X127538095Y-98938095D01*
X128966666Y-98652380D02*
X128776190Y-98652380D01*
X128680952Y-98700000D01*
X128633333Y-98747619D01*
X128538095Y-98890476D01*
X128490476Y-99080952D01*
X128490476Y-99461904D01*
X128538095Y-99557142D01*
X128585714Y-99604761D01*
X128680952Y-99652380D01*
X128871428Y-99652380D01*
X128966666Y-99604761D01*
X129014285Y-99557142D01*
X129061904Y-99461904D01*
X129061904Y-99223809D01*
X129014285Y-99128571D01*
X128966666Y-99080952D01*
X128871428Y-99033333D01*
X128680952Y-99033333D01*
X128585714Y-99080952D01*
X128538095Y-99128571D01*
X128490476Y-99223809D01*
X133557142Y-82557142D02*
X133509523Y-82604761D01*
X133366666Y-82652380D01*
X133271428Y-82652380D01*
X133128571Y-82604761D01*
X133033333Y-82509523D01*
X132985714Y-82414285D01*
X132938095Y-82223809D01*
X132938095Y-82080952D01*
X132985714Y-81890476D01*
X133033333Y-81795238D01*
X133128571Y-81700000D01*
X133271428Y-81652380D01*
X133366666Y-81652380D01*
X133509523Y-81700000D01*
X133557142Y-81747619D01*
X134509523Y-82652380D02*
X133938095Y-82652380D01*
X134223809Y-82652380D02*
X134223809Y-81652380D01*
X134128571Y-81795238D01*
X134033333Y-81890476D01*
X133938095Y-81938095D01*
X134842857Y-81652380D02*
X135509523Y-81652380D01*
X135080952Y-82652380D01*
X124957142Y-85357142D02*
X124909523Y-85404761D01*
X124766666Y-85452380D01*
X124671428Y-85452380D01*
X124528571Y-85404761D01*
X124433333Y-85309523D01*
X124385714Y-85214285D01*
X124338095Y-85023809D01*
X124338095Y-84880952D01*
X124385714Y-84690476D01*
X124433333Y-84595238D01*
X124528571Y-84500000D01*
X124671428Y-84452380D01*
X124766666Y-84452380D01*
X124909523Y-84500000D01*
X124957142Y-84547619D01*
X125909523Y-85452380D02*
X125338095Y-85452380D01*
X125623809Y-85452380D02*
X125623809Y-84452380D01*
X125528571Y-84595238D01*
X125433333Y-84690476D01*
X125338095Y-84738095D01*
X126480952Y-84880952D02*
X126385714Y-84833333D01*
X126338095Y-84785714D01*
X126290476Y-84690476D01*
X126290476Y-84642857D01*
X126338095Y-84547619D01*
X126385714Y-84500000D01*
X126480952Y-84452380D01*
X126671428Y-84452380D01*
X126766666Y-84500000D01*
X126814285Y-84547619D01*
X126861904Y-84642857D01*
X126861904Y-84690476D01*
X126814285Y-84785714D01*
X126766666Y-84833333D01*
X126671428Y-84880952D01*
X126480952Y-84880952D01*
X126385714Y-84928571D01*
X126338095Y-84976190D01*
X126290476Y-85071428D01*
X126290476Y-85261904D01*
X126338095Y-85357142D01*
X126385714Y-85404761D01*
X126480952Y-85452380D01*
X126671428Y-85452380D01*
X126766666Y-85404761D01*
X126814285Y-85357142D01*
X126861904Y-85261904D01*
X126861904Y-85071428D01*
X126814285Y-84976190D01*
X126766666Y-84928571D01*
X126671428Y-84880952D01*
X139157142Y-98957142D02*
X139109523Y-99004761D01*
X138966666Y-99052380D01*
X138871428Y-99052380D01*
X138728571Y-99004761D01*
X138633333Y-98909523D01*
X138585714Y-98814285D01*
X138538095Y-98623809D01*
X138538095Y-98480952D01*
X138585714Y-98290476D01*
X138633333Y-98195238D01*
X138728571Y-98100000D01*
X138871428Y-98052380D01*
X138966666Y-98052380D01*
X139109523Y-98100000D01*
X139157142Y-98147619D01*
X140109523Y-99052380D02*
X139538095Y-99052380D01*
X139823809Y-99052380D02*
X139823809Y-98052380D01*
X139728571Y-98195238D01*
X139633333Y-98290476D01*
X139538095Y-98338095D01*
X140585714Y-99052380D02*
X140776190Y-99052380D01*
X140871428Y-99004761D01*
X140919047Y-98957142D01*
X141014285Y-98814285D01*
X141061904Y-98623809D01*
X141061904Y-98242857D01*
X141014285Y-98147619D01*
X140966666Y-98100000D01*
X140871428Y-98052380D01*
X140680952Y-98052380D01*
X140585714Y-98100000D01*
X140538095Y-98147619D01*
X140490476Y-98242857D01*
X140490476Y-98480952D01*
X140538095Y-98576190D01*
X140585714Y-98623809D01*
X140680952Y-98671428D01*
X140871428Y-98671428D01*
X140966666Y-98623809D01*
X141014285Y-98576190D01*
X141061904Y-98480952D01*
X132157142Y-136957142D02*
X132109523Y-137004761D01*
X131966666Y-137052380D01*
X131871428Y-137052380D01*
X131728571Y-137004761D01*
X131633333Y-136909523D01*
X131585714Y-136814285D01*
X131538095Y-136623809D01*
X131538095Y-136480952D01*
X131585714Y-136290476D01*
X131633333Y-136195238D01*
X131728571Y-136100000D01*
X131871428Y-136052380D01*
X131966666Y-136052380D01*
X132109523Y-136100000D01*
X132157142Y-136147619D01*
X132538095Y-136147619D02*
X132585714Y-136100000D01*
X132680952Y-136052380D01*
X132919047Y-136052380D01*
X133014285Y-136100000D01*
X133061904Y-136147619D01*
X133109523Y-136242857D01*
X133109523Y-136338095D01*
X133061904Y-136480952D01*
X132490476Y-137052380D01*
X133109523Y-137052380D01*
X133728571Y-136052380D02*
X133823809Y-136052380D01*
X133919047Y-136100000D01*
X133966666Y-136147619D01*
X134014285Y-136242857D01*
X134061904Y-136433333D01*
X134061904Y-136671428D01*
X134014285Y-136861904D01*
X133966666Y-136957142D01*
X133919047Y-137004761D01*
X133823809Y-137052380D01*
X133728571Y-137052380D01*
X133633333Y-137004761D01*
X133585714Y-136957142D01*
X133538095Y-136861904D01*
X133490476Y-136671428D01*
X133490476Y-136433333D01*
X133538095Y-136242857D01*
X133585714Y-136147619D01*
X133633333Y-136100000D01*
X133728571Y-136052380D01*
X159957142Y-112557142D02*
X159909523Y-112604761D01*
X159766666Y-112652380D01*
X159671428Y-112652380D01*
X159528571Y-112604761D01*
X159433333Y-112509523D01*
X159385714Y-112414285D01*
X159338095Y-112223809D01*
X159338095Y-112080952D01*
X159385714Y-111890476D01*
X159433333Y-111795238D01*
X159528571Y-111700000D01*
X159671428Y-111652380D01*
X159766666Y-111652380D01*
X159909523Y-111700000D01*
X159957142Y-111747619D01*
X160338095Y-111747619D02*
X160385714Y-111700000D01*
X160480952Y-111652380D01*
X160719047Y-111652380D01*
X160814285Y-111700000D01*
X160861904Y-111747619D01*
X160909523Y-111842857D01*
X160909523Y-111938095D01*
X160861904Y-112080952D01*
X160290476Y-112652380D01*
X160909523Y-112652380D01*
X161242857Y-111652380D02*
X161861904Y-111652380D01*
X161528571Y-112033333D01*
X161671428Y-112033333D01*
X161766666Y-112080952D01*
X161814285Y-112128571D01*
X161861904Y-112223809D01*
X161861904Y-112461904D01*
X161814285Y-112557142D01*
X161766666Y-112604761D01*
X161671428Y-112652380D01*
X161385714Y-112652380D01*
X161290476Y-112604761D01*
X161242857Y-112557142D01*
X157461904Y-127852380D02*
X157461904Y-126852380D01*
X157700000Y-126852380D01*
X157842857Y-126900000D01*
X157938095Y-126995238D01*
X157985714Y-127090476D01*
X158033333Y-127280952D01*
X158033333Y-127423809D01*
X157985714Y-127614285D01*
X157938095Y-127709523D01*
X157842857Y-127804761D01*
X157700000Y-127852380D01*
X157461904Y-127852380D01*
X158366666Y-126852380D02*
X158985714Y-126852380D01*
X158652380Y-127233333D01*
X158795238Y-127233333D01*
X158890476Y-127280952D01*
X158938095Y-127328571D01*
X158985714Y-127423809D01*
X158985714Y-127661904D01*
X158938095Y-127757142D01*
X158890476Y-127804761D01*
X158795238Y-127852380D01*
X158509523Y-127852380D01*
X158414285Y-127804761D01*
X158366666Y-127757142D01*
X161811904Y-132152380D02*
X161811904Y-131152380D01*
X162050000Y-131152380D01*
X162192857Y-131200000D01*
X162288095Y-131295238D01*
X162335714Y-131390476D01*
X162383333Y-131580952D01*
X162383333Y-131723809D01*
X162335714Y-131914285D01*
X162288095Y-132009523D01*
X162192857Y-132104761D01*
X162050000Y-132152380D01*
X161811904Y-132152380D01*
X163240476Y-131485714D02*
X163240476Y-132152380D01*
X163002380Y-131104761D02*
X162764285Y-131819047D01*
X163383333Y-131819047D01*
X112266666Y-107852380D02*
X112266666Y-108566666D01*
X112219047Y-108709523D01*
X112123809Y-108804761D01*
X111980952Y-108852380D01*
X111885714Y-108852380D01*
X113171428Y-108185714D02*
X113171428Y-108852380D01*
X112933333Y-107804761D02*
X112695238Y-108519047D01*
X113314285Y-108519047D01*
X155466666Y-95252380D02*
X155466666Y-95966666D01*
X155419047Y-96109523D01*
X155323809Y-96204761D01*
X155180952Y-96252380D01*
X155085714Y-96252380D01*
X155990476Y-96252380D02*
X156180952Y-96252380D01*
X156276190Y-96204761D01*
X156323809Y-96157142D01*
X156419047Y-96014285D01*
X156466666Y-95823809D01*
X156466666Y-95442857D01*
X156419047Y-95347619D01*
X156371428Y-95300000D01*
X156276190Y-95252380D01*
X156085714Y-95252380D01*
X155990476Y-95300000D01*
X155942857Y-95347619D01*
X155895238Y-95442857D01*
X155895238Y-95680952D01*
X155942857Y-95776190D01*
X155990476Y-95823809D01*
X156085714Y-95871428D01*
X156276190Y-95871428D01*
X156371428Y-95823809D01*
X156419047Y-95776190D01*
X156466666Y-95680952D01*
X130233333Y-105836380D02*
X129757142Y-105836380D01*
X129757142Y-104836380D01*
X130519047Y-104931619D02*
X130566666Y-104884000D01*
X130661904Y-104836380D01*
X130900000Y-104836380D01*
X130995238Y-104884000D01*
X131042857Y-104931619D01*
X131090476Y-105026857D01*
X131090476Y-105122095D01*
X131042857Y-105264952D01*
X130471428Y-105836380D01*
X131090476Y-105836380D01*
X126433333Y-105927380D02*
X125957142Y-105927380D01*
X125957142Y-104927380D01*
X126671428Y-104927380D02*
X127290476Y-104927380D01*
X126957142Y-105308333D01*
X127100000Y-105308333D01*
X127195238Y-105355952D01*
X127242857Y-105403571D01*
X127290476Y-105498809D01*
X127290476Y-105736904D01*
X127242857Y-105832142D01*
X127195238Y-105879761D01*
X127100000Y-105927380D01*
X126814285Y-105927380D01*
X126719047Y-105879761D01*
X126671428Y-105832142D01*
X115504761Y-94347619D02*
X115409523Y-94300000D01*
X115314285Y-94204761D01*
X115171428Y-94061904D01*
X115076190Y-94014285D01*
X114980952Y-94014285D01*
X115028571Y-94252380D02*
X114933333Y-94204761D01*
X114838095Y-94109523D01*
X114790476Y-93919047D01*
X114790476Y-93585714D01*
X114838095Y-93395238D01*
X114933333Y-93300000D01*
X115028571Y-93252380D01*
X115219047Y-93252380D01*
X115314285Y-93300000D01*
X115409523Y-93395238D01*
X115457142Y-93585714D01*
X115457142Y-93919047D01*
X115409523Y-94109523D01*
X115314285Y-94204761D01*
X115219047Y-94252380D01*
X115028571Y-94252380D01*
X116314285Y-93585714D02*
X116314285Y-94252380D01*
X116076190Y-93204761D02*
X115838095Y-93919047D01*
X116457142Y-93919047D01*
X160304761Y-118247619D02*
X160209523Y-118200000D01*
X160114285Y-118104761D01*
X159971428Y-117961904D01*
X159876190Y-117914285D01*
X159780952Y-117914285D01*
X159828571Y-118152380D02*
X159733333Y-118104761D01*
X159638095Y-118009523D01*
X159590476Y-117819047D01*
X159590476Y-117485714D01*
X159638095Y-117295238D01*
X159733333Y-117200000D01*
X159828571Y-117152380D01*
X160019047Y-117152380D01*
X160114285Y-117200000D01*
X160209523Y-117295238D01*
X160257142Y-117485714D01*
X160257142Y-117819047D01*
X160209523Y-118009523D01*
X160114285Y-118104761D01*
X160019047Y-118152380D01*
X159828571Y-118152380D01*
X161161904Y-117152380D02*
X160685714Y-117152380D01*
X160638095Y-117628571D01*
X160685714Y-117580952D01*
X160780952Y-117533333D01*
X161019047Y-117533333D01*
X161114285Y-117580952D01*
X161161904Y-117628571D01*
X161209523Y-117723809D01*
X161209523Y-117961904D01*
X161161904Y-118057142D01*
X161114285Y-118104761D01*
X161019047Y-118152380D01*
X160780952Y-118152380D01*
X160685714Y-118104761D01*
X160638095Y-118057142D01*
X118433333Y-78452380D02*
X118100000Y-77976190D01*
X117861904Y-78452380D02*
X117861904Y-77452380D01*
X118242857Y-77452380D01*
X118338095Y-77500000D01*
X118385714Y-77547619D01*
X118433333Y-77642857D01*
X118433333Y-77785714D01*
X118385714Y-77880952D01*
X118338095Y-77928571D01*
X118242857Y-77976190D01*
X117861904Y-77976190D01*
X118814285Y-77547619D02*
X118861904Y-77500000D01*
X118957142Y-77452380D01*
X119195238Y-77452380D01*
X119290476Y-77500000D01*
X119338095Y-77547619D01*
X119385714Y-77642857D01*
X119385714Y-77738095D01*
X119338095Y-77880952D01*
X118766666Y-78452380D01*
X119385714Y-78452380D01*
X118433333Y-81852380D02*
X118100000Y-81376190D01*
X117861904Y-81852380D02*
X117861904Y-80852380D01*
X118242857Y-80852380D01*
X118338095Y-80900000D01*
X118385714Y-80947619D01*
X118433333Y-81042857D01*
X118433333Y-81185714D01*
X118385714Y-81280952D01*
X118338095Y-81328571D01*
X118242857Y-81376190D01*
X117861904Y-81376190D01*
X118766666Y-80852380D02*
X119385714Y-80852380D01*
X119052380Y-81233333D01*
X119195238Y-81233333D01*
X119290476Y-81280952D01*
X119338095Y-81328571D01*
X119385714Y-81423809D01*
X119385714Y-81661904D01*
X119338095Y-81757142D01*
X119290476Y-81804761D01*
X119195238Y-81852380D01*
X118909523Y-81852380D01*
X118814285Y-81804761D01*
X118766666Y-81757142D01*
X122333333Y-83902380D02*
X122000000Y-83426190D01*
X121761904Y-83902380D02*
X121761904Y-82902380D01*
X122142857Y-82902380D01*
X122238095Y-82950000D01*
X122285714Y-82997619D01*
X122333333Y-83092857D01*
X122333333Y-83235714D01*
X122285714Y-83330952D01*
X122238095Y-83378571D01*
X122142857Y-83426190D01*
X121761904Y-83426190D01*
X123238095Y-82902380D02*
X122761904Y-82902380D01*
X122714285Y-83378571D01*
X122761904Y-83330952D01*
X122857142Y-83283333D01*
X123095238Y-83283333D01*
X123190476Y-83330952D01*
X123238095Y-83378571D01*
X123285714Y-83473809D01*
X123285714Y-83711904D01*
X123238095Y-83807142D01*
X123190476Y-83854761D01*
X123095238Y-83902380D01*
X122857142Y-83902380D01*
X122761904Y-83854761D01*
X122714285Y-83807142D01*
X121833333Y-75252380D02*
X121500000Y-74776190D01*
X121261904Y-75252380D02*
X121261904Y-74252380D01*
X121642857Y-74252380D01*
X121738095Y-74300000D01*
X121785714Y-74347619D01*
X121833333Y-74442857D01*
X121833333Y-74585714D01*
X121785714Y-74680952D01*
X121738095Y-74728571D01*
X121642857Y-74776190D01*
X121261904Y-74776190D01*
X122690476Y-74252380D02*
X122500000Y-74252380D01*
X122404761Y-74300000D01*
X122357142Y-74347619D01*
X122261904Y-74490476D01*
X122214285Y-74680952D01*
X122214285Y-75061904D01*
X122261904Y-75157142D01*
X122309523Y-75204761D01*
X122404761Y-75252380D01*
X122595238Y-75252380D01*
X122690476Y-75204761D01*
X122738095Y-75157142D01*
X122785714Y-75061904D01*
X122785714Y-74823809D01*
X122738095Y-74728571D01*
X122690476Y-74680952D01*
X122595238Y-74633333D01*
X122404761Y-74633333D01*
X122309523Y-74680952D01*
X122261904Y-74728571D01*
X122214285Y-74823809D01*
X139633333Y-101652380D02*
X139300000Y-101176190D01*
X139061904Y-101652380D02*
X139061904Y-100652380D01*
X139442857Y-100652380D01*
X139538095Y-100700000D01*
X139585714Y-100747619D01*
X139633333Y-100842857D01*
X139633333Y-100985714D01*
X139585714Y-101080952D01*
X139538095Y-101128571D01*
X139442857Y-101176190D01*
X139061904Y-101176190D01*
X139966666Y-100652380D02*
X140633333Y-100652380D01*
X140204761Y-101652380D01*
X158233333Y-124252380D02*
X157900000Y-123776190D01*
X157661904Y-124252380D02*
X157661904Y-123252380D01*
X158042857Y-123252380D01*
X158138095Y-123300000D01*
X158185714Y-123347619D01*
X158233333Y-123442857D01*
X158233333Y-123585714D01*
X158185714Y-123680952D01*
X158138095Y-123728571D01*
X158042857Y-123776190D01*
X157661904Y-123776190D01*
X158804761Y-123680952D02*
X158709523Y-123633333D01*
X158661904Y-123585714D01*
X158614285Y-123490476D01*
X158614285Y-123442857D01*
X158661904Y-123347619D01*
X158709523Y-123300000D01*
X158804761Y-123252380D01*
X158995238Y-123252380D01*
X159090476Y-123300000D01*
X159138095Y-123347619D01*
X159185714Y-123442857D01*
X159185714Y-123490476D01*
X159138095Y-123585714D01*
X159090476Y-123633333D01*
X158995238Y-123680952D01*
X158804761Y-123680952D01*
X158709523Y-123728571D01*
X158661904Y-123776190D01*
X158614285Y-123871428D01*
X158614285Y-124061904D01*
X158661904Y-124157142D01*
X158709523Y-124204761D01*
X158804761Y-124252380D01*
X158995238Y-124252380D01*
X159090476Y-124204761D01*
X159138095Y-124157142D01*
X159185714Y-124061904D01*
X159185714Y-123871428D01*
X159138095Y-123776190D01*
X159090476Y-123728571D01*
X158995238Y-123680952D01*
X162383333Y-136202380D02*
X162050000Y-135726190D01*
X161811904Y-136202380D02*
X161811904Y-135202380D01*
X162192857Y-135202380D01*
X162288095Y-135250000D01*
X162335714Y-135297619D01*
X162383333Y-135392857D01*
X162383333Y-135535714D01*
X162335714Y-135630952D01*
X162288095Y-135678571D01*
X162192857Y-135726190D01*
X161811904Y-135726190D01*
X162859523Y-136202380D02*
X163050000Y-136202380D01*
X163145238Y-136154761D01*
X163192857Y-136107142D01*
X163288095Y-135964285D01*
X163335714Y-135773809D01*
X163335714Y-135392857D01*
X163288095Y-135297619D01*
X163240476Y-135250000D01*
X163145238Y-135202380D01*
X162954761Y-135202380D01*
X162859523Y-135250000D01*
X162811904Y-135297619D01*
X162764285Y-135392857D01*
X162764285Y-135630952D01*
X162811904Y-135726190D01*
X162859523Y-135773809D01*
X162954761Y-135821428D01*
X163145238Y-135821428D01*
X163240476Y-135773809D01*
X163288095Y-135726190D01*
X163335714Y-135630952D01*
X129986642Y-131711880D02*
X129653309Y-131235690D01*
X129415214Y-131711880D02*
X129415214Y-130711880D01*
X129796166Y-130711880D01*
X129891404Y-130759500D01*
X129939023Y-130807119D01*
X129986642Y-130902357D01*
X129986642Y-131045214D01*
X129939023Y-131140452D01*
X129891404Y-131188071D01*
X129796166Y-131235690D01*
X129415214Y-131235690D01*
X130939023Y-131711880D02*
X130367595Y-131711880D01*
X130653309Y-131711880D02*
X130653309Y-130711880D01*
X130558071Y-130854738D01*
X130462833Y-130949976D01*
X130367595Y-130997595D01*
X131796166Y-131045214D02*
X131796166Y-131711880D01*
X131558071Y-130664261D02*
X131319976Y-131378547D01*
X131939023Y-131378547D01*
X129757142Y-120902380D02*
X129423809Y-120426190D01*
X129185714Y-120902380D02*
X129185714Y-119902380D01*
X129566666Y-119902380D01*
X129661904Y-119950000D01*
X129709523Y-119997619D01*
X129757142Y-120092857D01*
X129757142Y-120235714D01*
X129709523Y-120330952D01*
X129661904Y-120378571D01*
X129566666Y-120426190D01*
X129185714Y-120426190D01*
X130709523Y-120902380D02*
X130138095Y-120902380D01*
X130423809Y-120902380D02*
X130423809Y-119902380D01*
X130328571Y-120045238D01*
X130233333Y-120140476D01*
X130138095Y-120188095D01*
X131614285Y-119902380D02*
X131138095Y-119902380D01*
X131090476Y-120378571D01*
X131138095Y-120330952D01*
X131233333Y-120283333D01*
X131471428Y-120283333D01*
X131566666Y-120330952D01*
X131614285Y-120378571D01*
X131661904Y-120473809D01*
X131661904Y-120711904D01*
X131614285Y-120807142D01*
X131566666Y-120854761D01*
X131471428Y-120902380D01*
X131233333Y-120902380D01*
X131138095Y-120854761D01*
X131090476Y-120807142D01*
X115957142Y-119452380D02*
X115623809Y-118976190D01*
X115385714Y-119452380D02*
X115385714Y-118452380D01*
X115766666Y-118452380D01*
X115861904Y-118500000D01*
X115909523Y-118547619D01*
X115957142Y-118642857D01*
X115957142Y-118785714D01*
X115909523Y-118880952D01*
X115861904Y-118928571D01*
X115766666Y-118976190D01*
X115385714Y-118976190D01*
X116909523Y-119452380D02*
X116338095Y-119452380D01*
X116623809Y-119452380D02*
X116623809Y-118452380D01*
X116528571Y-118595238D01*
X116433333Y-118690476D01*
X116338095Y-118738095D01*
X117480952Y-118880952D02*
X117385714Y-118833333D01*
X117338095Y-118785714D01*
X117290476Y-118690476D01*
X117290476Y-118642857D01*
X117338095Y-118547619D01*
X117385714Y-118500000D01*
X117480952Y-118452380D01*
X117671428Y-118452380D01*
X117766666Y-118500000D01*
X117814285Y-118547619D01*
X117861904Y-118642857D01*
X117861904Y-118690476D01*
X117814285Y-118785714D01*
X117766666Y-118833333D01*
X117671428Y-118880952D01*
X117480952Y-118880952D01*
X117385714Y-118928571D01*
X117338095Y-118976190D01*
X117290476Y-119071428D01*
X117290476Y-119261904D01*
X117338095Y-119357142D01*
X117385714Y-119404761D01*
X117480952Y-119452380D01*
X117671428Y-119452380D01*
X117766666Y-119404761D01*
X117814285Y-119357142D01*
X117861904Y-119261904D01*
X117861904Y-119071428D01*
X117814285Y-118976190D01*
X117766666Y-118928571D01*
X117671428Y-118880952D01*
X116757142Y-103252380D02*
X116423809Y-102776190D01*
X116185714Y-103252380D02*
X116185714Y-102252380D01*
X116566666Y-102252380D01*
X116661904Y-102300000D01*
X116709523Y-102347619D01*
X116757142Y-102442857D01*
X116757142Y-102585714D01*
X116709523Y-102680952D01*
X116661904Y-102728571D01*
X116566666Y-102776190D01*
X116185714Y-102776190D01*
X117709523Y-103252380D02*
X117138095Y-103252380D01*
X117423809Y-103252380D02*
X117423809Y-102252380D01*
X117328571Y-102395238D01*
X117233333Y-102490476D01*
X117138095Y-102538095D01*
X118185714Y-103252380D02*
X118376190Y-103252380D01*
X118471428Y-103204761D01*
X118519047Y-103157142D01*
X118614285Y-103014285D01*
X118661904Y-102823809D01*
X118661904Y-102442857D01*
X118614285Y-102347619D01*
X118566666Y-102300000D01*
X118471428Y-102252380D01*
X118280952Y-102252380D01*
X118185714Y-102300000D01*
X118138095Y-102347619D01*
X118090476Y-102442857D01*
X118090476Y-102680952D01*
X118138095Y-102776190D01*
X118185714Y-102823809D01*
X118280952Y-102871428D01*
X118471428Y-102871428D01*
X118566666Y-102823809D01*
X118614285Y-102776190D01*
X118661904Y-102680952D01*
X159557142Y-121182380D02*
X159223809Y-120706190D01*
X158985714Y-121182380D02*
X158985714Y-120182380D01*
X159366666Y-120182380D01*
X159461904Y-120230000D01*
X159509523Y-120277619D01*
X159557142Y-120372857D01*
X159557142Y-120515714D01*
X159509523Y-120610952D01*
X159461904Y-120658571D01*
X159366666Y-120706190D01*
X158985714Y-120706190D01*
X159938095Y-120277619D02*
X159985714Y-120230000D01*
X160080952Y-120182380D01*
X160319047Y-120182380D01*
X160414285Y-120230000D01*
X160461904Y-120277619D01*
X160509523Y-120372857D01*
X160509523Y-120468095D01*
X160461904Y-120610952D01*
X159890476Y-121182380D01*
X160509523Y-121182380D01*
X161128571Y-120182380D02*
X161223809Y-120182380D01*
X161319047Y-120230000D01*
X161366666Y-120277619D01*
X161414285Y-120372857D01*
X161461904Y-120563333D01*
X161461904Y-120801428D01*
X161414285Y-120991904D01*
X161366666Y-121087142D01*
X161319047Y-121134761D01*
X161223809Y-121182380D01*
X161128571Y-121182380D01*
X161033333Y-121134761D01*
X160985714Y-121087142D01*
X160938095Y-120991904D01*
X160890476Y-120801428D01*
X160890476Y-120563333D01*
X160938095Y-120372857D01*
X160985714Y-120277619D01*
X161033333Y-120230000D01*
X161128571Y-120182380D01*
X139723809Y-85576190D02*
X139723809Y-86052380D01*
X139390476Y-85052380D02*
X139723809Y-85576190D01*
X140057142Y-85052380D01*
X140342857Y-85147619D02*
X140390476Y-85100000D01*
X140485714Y-85052380D01*
X140723809Y-85052380D01*
X140819047Y-85100000D01*
X140866666Y-85147619D01*
X140914285Y-85242857D01*
X140914285Y-85338095D01*
X140866666Y-85480952D01*
X140295238Y-86052380D01*
X140914285Y-86052380D01*
M02*
