M48
; DRILL file {KiCad (5.1.5)-3} date 03/05/2020 19:08:53
; FORMAT={-:-/ absolute / inch / decimal}
; #@! TF.CreationDate,2020-05-03T19:08:53+01:00
; #@! TF.GenerationSoftware,Kicad,Pcbnew,(5.1.5)-3
; #@! TF.FileFunction,Plated,1,4,PTH
FMAT,2
INCH
T1C0.0157
T2C0.0394
T3C0.0500
T4C0.0512
%
G90
G05
T1
X4.378Y-3.7559
X4.4173Y-4.1339
X4.5039Y-3.4488
X4.5669Y-4.0236
X4.5669Y-4.6693
X4.6063Y-4.5669
X4.6299Y-3.7087
X4.6929Y-3.9921
X4.7539Y-2.6161
X4.7539Y-2.813
X4.7717Y-3.4409
X4.7795Y-3.4961
X4.7926Y-3.6594
X4.7953Y-3.7087
X4.8346Y-3.5984
X4.8346Y-3.7559
X4.8346Y-3.811
X4.8346Y-3.8819
X4.8661Y-3.6535
X4.8666Y-3.0625
X4.876Y-3.2185
X4.9055Y-3.685
X4.9055Y-3.9685
X4.9055Y-4.0394
X4.9501Y-3.5856
X4.9501Y-4.2992
X4.9606Y-3.0
X4.9685Y-3.189
X4.9685Y-3.3071
X4.9921Y-4.2126
X5.0Y-3.7402
X5.0079Y-4.874
X5.0315Y-3.8819
X5.063Y-3.9656
X5.063Y-4.1339
X5.0787Y-3.4882
X5.0861Y-3.2446
X5.0866Y-3.4252
X5.0988Y-5.1969
X5.1024Y-4.2047
X5.118Y-3.6849
X5.126Y-3.8583
X5.126Y-3.4094
X5.1309Y-4.2549
X5.1339Y-3.5354
X5.1575Y-3.4488
X5.1732Y-3.9528
X5.189Y-3.252
X5.1969Y-3.4016
X5.1969Y-4.5433
X5.2047Y-4.1575
X5.2362Y-3.3888
X5.2519Y-4.0999
X5.2598Y-4.6693
X5.2628Y-3.8583
X5.3071Y-3.8425
X5.3307Y-3.5512
X5.3386Y-3.2362
X5.3465Y-3.7165
X5.3622Y-3.937
X5.4016Y-3.5906
X5.4331Y-3.937
X5.4697Y-3.7665
X5.4803Y-3.2362
X5.4882Y-4.0315
X5.5276Y-3.685
X5.5512Y-4.7402
X5.7087Y-3.3386
X5.7244Y-3.6457
X5.8031Y-3.2205
X5.8071Y-3.5866
X5.8268Y-3.2756
X5.9291Y-4.189
X5.9764Y-4.0945
X6.0995Y-3.1279
X6.1575Y-4.0709
X6.1732Y-3.5591
X6.2761Y-4.6235
X6.3745Y-4.8391
X6.414Y-3.1687
X6.4173Y-4.4626
T2
X4.5197Y-4.1575
X4.6197Y-4.1575
X4.7197Y-4.1575
X4.8197Y-4.1575
X5.6315Y-3.7913
X5.6315Y-3.8913
X5.7315Y-3.7913
X5.7315Y-3.8913
X5.8315Y-3.7913
X5.8315Y-3.8913
X5.9315Y-3.7913
X5.9315Y-3.8913
X6.0315Y-3.7913
X6.0315Y-3.8913
T3
X4.2551Y-2.3469
X4.2551Y-2.4846
X4.2551Y-2.6224
X4.2551Y-2.7602
X4.2551Y-2.898
X4.2551Y-3.0358
X4.2551Y-3.1736
X4.2551Y-3.3114
X4.2551Y-3.4492
X4.2551Y-3.587
X4.2551Y-4.5622
X4.2551Y-4.7
X4.2551Y-4.8378
X4.2551Y-4.9756
X4.2551Y-5.1134
X4.2551Y-5.2512
X4.4126Y-2.3469
X4.4126Y-2.4846
X4.4126Y-2.6224
X4.4126Y-2.7602
X4.4126Y-2.898
X4.4126Y-3.0358
X4.4126Y-3.1736
X4.4126Y-3.3114
X4.4126Y-3.4492
X4.4126Y-3.587
X4.4126Y-4.5622
X4.4126Y-4.7
X4.4126Y-4.8378
X4.4126Y-4.9756
X4.4126Y-5.1134
X4.4126Y-5.2512
T4
X5.2598Y-2.5748
X5.2598Y-3.0472
X5.7402Y-2.5748
X5.7402Y-3.0472
X5.8189Y-2.811
T0
M30
