G04 #@! TF.GenerationSoftware,KiCad,Pcbnew,(5.1.5)-3*
G04 #@! TF.CreationDate,2020-05-03T19:08:43+01:00*
G04 #@! TF.ProjectId,Isolator CAN SMT v2,49736f6c-6174-46f7-9220-43414e20534d,rev?*
G04 #@! TF.SameCoordinates,Original*
G04 #@! TF.FileFunction,Soldermask,Bot*
G04 #@! TF.FilePolarity,Negative*
%FSLAX46Y46*%
G04 Gerber Fmt 4.6, Leading zero omitted, Abs format (unit mm)*
G04 Created by KiCad (PCBNEW (5.1.5)-3) date 2020-05-03 19:08:43*
%MOMM*%
%LPD*%
G04 APERTURE LIST*
%ADD10C,0.100000*%
G04 APERTURE END LIST*
D10*
G36*
X112386564Y-132369389D02*
G01*
X112577833Y-132448615D01*
X112577835Y-132448616D01*
X112749973Y-132563635D01*
X112896365Y-132710027D01*
X113011385Y-132882167D01*
X113090611Y-133073436D01*
X113131000Y-133276484D01*
X113131000Y-133483516D01*
X113090611Y-133686564D01*
X113011385Y-133877833D01*
X113011384Y-133877835D01*
X112896365Y-134049973D01*
X112749973Y-134196365D01*
X112577835Y-134311384D01*
X112577834Y-134311385D01*
X112577833Y-134311385D01*
X112386564Y-134390611D01*
X112183516Y-134431000D01*
X111976484Y-134431000D01*
X111773436Y-134390611D01*
X111582167Y-134311385D01*
X111582166Y-134311385D01*
X111582165Y-134311384D01*
X111410027Y-134196365D01*
X111263635Y-134049973D01*
X111148616Y-133877835D01*
X111148615Y-133877833D01*
X111069389Y-133686564D01*
X111029000Y-133483516D01*
X111029000Y-133276484D01*
X111069389Y-133073436D01*
X111148615Y-132882167D01*
X111263635Y-132710027D01*
X111410027Y-132563635D01*
X111582165Y-132448616D01*
X111582167Y-132448615D01*
X111773436Y-132369389D01*
X111976484Y-132329000D01*
X112183516Y-132329000D01*
X112386564Y-132369389D01*
G37*
G36*
X108386564Y-132369389D02*
G01*
X108577833Y-132448615D01*
X108577835Y-132448616D01*
X108749973Y-132563635D01*
X108896365Y-132710027D01*
X109011385Y-132882167D01*
X109090611Y-133073436D01*
X109131000Y-133276484D01*
X109131000Y-133483516D01*
X109090611Y-133686564D01*
X109011385Y-133877833D01*
X109011384Y-133877835D01*
X108896365Y-134049973D01*
X108749973Y-134196365D01*
X108577835Y-134311384D01*
X108577834Y-134311385D01*
X108577833Y-134311385D01*
X108386564Y-134390611D01*
X108183516Y-134431000D01*
X107976484Y-134431000D01*
X107773436Y-134390611D01*
X107582167Y-134311385D01*
X107582166Y-134311385D01*
X107582165Y-134311384D01*
X107410027Y-134196365D01*
X107263635Y-134049973D01*
X107148616Y-133877835D01*
X107148615Y-133877833D01*
X107069389Y-133686564D01*
X107029000Y-133483516D01*
X107029000Y-133276484D01*
X107069389Y-133073436D01*
X107148615Y-132882167D01*
X107263635Y-132710027D01*
X107410027Y-132563635D01*
X107582165Y-132448616D01*
X107582167Y-132448615D01*
X107773436Y-132369389D01*
X107976484Y-132329000D01*
X108183516Y-132329000D01*
X108386564Y-132369389D01*
G37*
G36*
X112386564Y-128869389D02*
G01*
X112577833Y-128948615D01*
X112577835Y-128948616D01*
X112749973Y-129063635D01*
X112896365Y-129210027D01*
X113011385Y-129382167D01*
X113090611Y-129573436D01*
X113131000Y-129776484D01*
X113131000Y-129983516D01*
X113090611Y-130186564D01*
X113011385Y-130377833D01*
X113011384Y-130377835D01*
X112896365Y-130549973D01*
X112749973Y-130696365D01*
X112577835Y-130811384D01*
X112577834Y-130811385D01*
X112577833Y-130811385D01*
X112386564Y-130890611D01*
X112183516Y-130931000D01*
X111976484Y-130931000D01*
X111773436Y-130890611D01*
X111582167Y-130811385D01*
X111582166Y-130811385D01*
X111582165Y-130811384D01*
X111410027Y-130696365D01*
X111263635Y-130549973D01*
X111148616Y-130377835D01*
X111148615Y-130377833D01*
X111069389Y-130186564D01*
X111029000Y-129983516D01*
X111029000Y-129776484D01*
X111069389Y-129573436D01*
X111148615Y-129382167D01*
X111263635Y-129210027D01*
X111410027Y-129063635D01*
X111582165Y-128948616D01*
X111582167Y-128948615D01*
X111773436Y-128869389D01*
X111976484Y-128829000D01*
X112183516Y-128829000D01*
X112386564Y-128869389D01*
G37*
G36*
X108386564Y-128869389D02*
G01*
X108577833Y-128948615D01*
X108577835Y-128948616D01*
X108749973Y-129063635D01*
X108896365Y-129210027D01*
X109011385Y-129382167D01*
X109090611Y-129573436D01*
X109131000Y-129776484D01*
X109131000Y-129983516D01*
X109090611Y-130186564D01*
X109011385Y-130377833D01*
X109011384Y-130377835D01*
X108896365Y-130549973D01*
X108749973Y-130696365D01*
X108577835Y-130811384D01*
X108577834Y-130811385D01*
X108577833Y-130811385D01*
X108386564Y-130890611D01*
X108183516Y-130931000D01*
X107976484Y-130931000D01*
X107773436Y-130890611D01*
X107582167Y-130811385D01*
X107582166Y-130811385D01*
X107582165Y-130811384D01*
X107410027Y-130696365D01*
X107263635Y-130549973D01*
X107148616Y-130377835D01*
X107148615Y-130377833D01*
X107069389Y-130186564D01*
X107029000Y-129983516D01*
X107029000Y-129776484D01*
X107069389Y-129573436D01*
X107148615Y-129382167D01*
X107263635Y-129210027D01*
X107410027Y-129063635D01*
X107582165Y-128948616D01*
X107582167Y-128948615D01*
X107773436Y-128869389D01*
X107976484Y-128829000D01*
X108183516Y-128829000D01*
X108386564Y-128869389D01*
G37*
G36*
X108386564Y-125369389D02*
G01*
X108577833Y-125448615D01*
X108577835Y-125448616D01*
X108749973Y-125563635D01*
X108896365Y-125710027D01*
X109011385Y-125882167D01*
X109090611Y-126073436D01*
X109131000Y-126276484D01*
X109131000Y-126483516D01*
X109090611Y-126686564D01*
X109011385Y-126877833D01*
X109011384Y-126877835D01*
X108896365Y-127049973D01*
X108749973Y-127196365D01*
X108577835Y-127311384D01*
X108577834Y-127311385D01*
X108577833Y-127311385D01*
X108386564Y-127390611D01*
X108183516Y-127431000D01*
X107976484Y-127431000D01*
X107773436Y-127390611D01*
X107582167Y-127311385D01*
X107582166Y-127311385D01*
X107582165Y-127311384D01*
X107410027Y-127196365D01*
X107263635Y-127049973D01*
X107148616Y-126877835D01*
X107148615Y-126877833D01*
X107069389Y-126686564D01*
X107029000Y-126483516D01*
X107029000Y-126276484D01*
X107069389Y-126073436D01*
X107148615Y-125882167D01*
X107263635Y-125710027D01*
X107410027Y-125563635D01*
X107582165Y-125448616D01*
X107582167Y-125448615D01*
X107773436Y-125369389D01*
X107976484Y-125329000D01*
X108183516Y-125329000D01*
X108386564Y-125369389D01*
G37*
G36*
X112386564Y-125369389D02*
G01*
X112577833Y-125448615D01*
X112577835Y-125448616D01*
X112749973Y-125563635D01*
X112896365Y-125710027D01*
X113011385Y-125882167D01*
X113090611Y-126073436D01*
X113131000Y-126276484D01*
X113131000Y-126483516D01*
X113090611Y-126686564D01*
X113011385Y-126877833D01*
X113011384Y-126877835D01*
X112896365Y-127049973D01*
X112749973Y-127196365D01*
X112577835Y-127311384D01*
X112577834Y-127311385D01*
X112577833Y-127311385D01*
X112386564Y-127390611D01*
X112183516Y-127431000D01*
X111976484Y-127431000D01*
X111773436Y-127390611D01*
X111582167Y-127311385D01*
X111582166Y-127311385D01*
X111582165Y-127311384D01*
X111410027Y-127196365D01*
X111263635Y-127049973D01*
X111148616Y-126877835D01*
X111148615Y-126877833D01*
X111069389Y-126686564D01*
X111029000Y-126483516D01*
X111029000Y-126276484D01*
X111069389Y-126073436D01*
X111148615Y-125882167D01*
X111263635Y-125710027D01*
X111410027Y-125563635D01*
X111582165Y-125448616D01*
X111582167Y-125448615D01*
X111773436Y-125369389D01*
X111976484Y-125329000D01*
X112183516Y-125329000D01*
X112386564Y-125369389D01*
G37*
G36*
X108386564Y-121869389D02*
G01*
X108577833Y-121948615D01*
X108577835Y-121948616D01*
X108749973Y-122063635D01*
X108896365Y-122210027D01*
X109011385Y-122382167D01*
X109090611Y-122573436D01*
X109131000Y-122776484D01*
X109131000Y-122983516D01*
X109090611Y-123186564D01*
X109011385Y-123377833D01*
X109011384Y-123377835D01*
X108896365Y-123549973D01*
X108749973Y-123696365D01*
X108577835Y-123811384D01*
X108577834Y-123811385D01*
X108577833Y-123811385D01*
X108386564Y-123890611D01*
X108183516Y-123931000D01*
X107976484Y-123931000D01*
X107773436Y-123890611D01*
X107582167Y-123811385D01*
X107582166Y-123811385D01*
X107582165Y-123811384D01*
X107410027Y-123696365D01*
X107263635Y-123549973D01*
X107148616Y-123377835D01*
X107148615Y-123377833D01*
X107069389Y-123186564D01*
X107029000Y-122983516D01*
X107029000Y-122776484D01*
X107069389Y-122573436D01*
X107148615Y-122382167D01*
X107263635Y-122210027D01*
X107410027Y-122063635D01*
X107582165Y-121948616D01*
X107582167Y-121948615D01*
X107773436Y-121869389D01*
X107976484Y-121829000D01*
X108183516Y-121829000D01*
X108386564Y-121869389D01*
G37*
G36*
X112386564Y-121869389D02*
G01*
X112577833Y-121948615D01*
X112577835Y-121948616D01*
X112749973Y-122063635D01*
X112896365Y-122210027D01*
X113011385Y-122382167D01*
X113090611Y-122573436D01*
X113131000Y-122776484D01*
X113131000Y-122983516D01*
X113090611Y-123186564D01*
X113011385Y-123377833D01*
X113011384Y-123377835D01*
X112896365Y-123549973D01*
X112749973Y-123696365D01*
X112577835Y-123811384D01*
X112577834Y-123811385D01*
X112577833Y-123811385D01*
X112386564Y-123890611D01*
X112183516Y-123931000D01*
X111976484Y-123931000D01*
X111773436Y-123890611D01*
X111582167Y-123811385D01*
X111582166Y-123811385D01*
X111582165Y-123811384D01*
X111410027Y-123696365D01*
X111263635Y-123549973D01*
X111148616Y-123377835D01*
X111148615Y-123377833D01*
X111069389Y-123186564D01*
X111029000Y-122983516D01*
X111029000Y-122776484D01*
X111069389Y-122573436D01*
X111148615Y-122382167D01*
X111263635Y-122210027D01*
X111410027Y-122063635D01*
X111582165Y-121948616D01*
X111582167Y-121948615D01*
X111773436Y-121869389D01*
X111976484Y-121829000D01*
X112183516Y-121829000D01*
X112386564Y-121869389D01*
G37*
G36*
X108386564Y-118369389D02*
G01*
X108577833Y-118448615D01*
X108577835Y-118448616D01*
X108749973Y-118563635D01*
X108896365Y-118710027D01*
X109011385Y-118882167D01*
X109090611Y-119073436D01*
X109131000Y-119276484D01*
X109131000Y-119483516D01*
X109090611Y-119686564D01*
X109011385Y-119877833D01*
X109011384Y-119877835D01*
X108896365Y-120049973D01*
X108749973Y-120196365D01*
X108577835Y-120311384D01*
X108577834Y-120311385D01*
X108577833Y-120311385D01*
X108386564Y-120390611D01*
X108183516Y-120431000D01*
X107976484Y-120431000D01*
X107773436Y-120390611D01*
X107582167Y-120311385D01*
X107582166Y-120311385D01*
X107582165Y-120311384D01*
X107410027Y-120196365D01*
X107263635Y-120049973D01*
X107148616Y-119877835D01*
X107148615Y-119877833D01*
X107069389Y-119686564D01*
X107029000Y-119483516D01*
X107029000Y-119276484D01*
X107069389Y-119073436D01*
X107148615Y-118882167D01*
X107263635Y-118710027D01*
X107410027Y-118563635D01*
X107582165Y-118448616D01*
X107582167Y-118448615D01*
X107773436Y-118369389D01*
X107976484Y-118329000D01*
X108183516Y-118329000D01*
X108386564Y-118369389D01*
G37*
G36*
X112386564Y-118369389D02*
G01*
X112577833Y-118448615D01*
X112577835Y-118448616D01*
X112749973Y-118563635D01*
X112896365Y-118710027D01*
X113011385Y-118882167D01*
X113090611Y-119073436D01*
X113131000Y-119276484D01*
X113131000Y-119483516D01*
X113090611Y-119686564D01*
X113011385Y-119877833D01*
X113011384Y-119877835D01*
X112896365Y-120049973D01*
X112749973Y-120196365D01*
X112577835Y-120311384D01*
X112577834Y-120311385D01*
X112577833Y-120311385D01*
X112386564Y-120390611D01*
X112183516Y-120431000D01*
X111976484Y-120431000D01*
X111773436Y-120390611D01*
X111582167Y-120311385D01*
X111582166Y-120311385D01*
X111582165Y-120311384D01*
X111410027Y-120196365D01*
X111263635Y-120049973D01*
X111148616Y-119877835D01*
X111148615Y-119877833D01*
X111069389Y-119686564D01*
X111029000Y-119483516D01*
X111029000Y-119276484D01*
X111069389Y-119073436D01*
X111148615Y-118882167D01*
X111263635Y-118710027D01*
X111410027Y-118563635D01*
X111582165Y-118448616D01*
X111582167Y-118448615D01*
X111773436Y-118369389D01*
X111976484Y-118329000D01*
X112183516Y-118329000D01*
X112386564Y-118369389D01*
G37*
G36*
X108386564Y-114869389D02*
G01*
X108577833Y-114948615D01*
X108577835Y-114948616D01*
X108749973Y-115063635D01*
X108896365Y-115210027D01*
X109011385Y-115382167D01*
X109090611Y-115573436D01*
X109131000Y-115776484D01*
X109131000Y-115983516D01*
X109090611Y-116186564D01*
X109011385Y-116377833D01*
X109011384Y-116377835D01*
X108896365Y-116549973D01*
X108749973Y-116696365D01*
X108577835Y-116811384D01*
X108577834Y-116811385D01*
X108577833Y-116811385D01*
X108386564Y-116890611D01*
X108183516Y-116931000D01*
X107976484Y-116931000D01*
X107773436Y-116890611D01*
X107582167Y-116811385D01*
X107582166Y-116811385D01*
X107582165Y-116811384D01*
X107410027Y-116696365D01*
X107263635Y-116549973D01*
X107148616Y-116377835D01*
X107148615Y-116377833D01*
X107069389Y-116186564D01*
X107029000Y-115983516D01*
X107029000Y-115776484D01*
X107069389Y-115573436D01*
X107148615Y-115382167D01*
X107263635Y-115210027D01*
X107410027Y-115063635D01*
X107582165Y-114948616D01*
X107582167Y-114948615D01*
X107773436Y-114869389D01*
X107976484Y-114829000D01*
X108183516Y-114829000D01*
X108386564Y-114869389D01*
G37*
G36*
X112386564Y-114869389D02*
G01*
X112577833Y-114948615D01*
X112577835Y-114948616D01*
X112749973Y-115063635D01*
X112896365Y-115210027D01*
X113011385Y-115382167D01*
X113090611Y-115573436D01*
X113131000Y-115776484D01*
X113131000Y-115983516D01*
X113090611Y-116186564D01*
X113011385Y-116377833D01*
X113011384Y-116377835D01*
X112896365Y-116549973D01*
X112749973Y-116696365D01*
X112577835Y-116811384D01*
X112577834Y-116811385D01*
X112577833Y-116811385D01*
X112386564Y-116890611D01*
X112183516Y-116931000D01*
X111976484Y-116931000D01*
X111773436Y-116890611D01*
X111582167Y-116811385D01*
X111582166Y-116811385D01*
X111582165Y-116811384D01*
X111410027Y-116696365D01*
X111263635Y-116549973D01*
X111148616Y-116377835D01*
X111148615Y-116377833D01*
X111069389Y-116186564D01*
X111029000Y-115983516D01*
X111029000Y-115776484D01*
X111069389Y-115573436D01*
X111148615Y-115382167D01*
X111263635Y-115210027D01*
X111410027Y-115063635D01*
X111582165Y-114948616D01*
X111582167Y-114948615D01*
X111773436Y-114869389D01*
X111976484Y-114829000D01*
X112183516Y-114829000D01*
X112386564Y-114869389D01*
G37*
G36*
X119993512Y-104703927D02*
G01*
X120142812Y-104733624D01*
X120306784Y-104801544D01*
X120454354Y-104900147D01*
X120579853Y-105025646D01*
X120678456Y-105173216D01*
X120746376Y-105337188D01*
X120781000Y-105511259D01*
X120781000Y-105688741D01*
X120746376Y-105862812D01*
X120678456Y-106026784D01*
X120579853Y-106174354D01*
X120454354Y-106299853D01*
X120306784Y-106398456D01*
X120142812Y-106466376D01*
X119993512Y-106496073D01*
X119968742Y-106501000D01*
X119791258Y-106501000D01*
X119766488Y-106496073D01*
X119617188Y-106466376D01*
X119453216Y-106398456D01*
X119305646Y-106299853D01*
X119180147Y-106174354D01*
X119081544Y-106026784D01*
X119013624Y-105862812D01*
X118979000Y-105688741D01*
X118979000Y-105511259D01*
X119013624Y-105337188D01*
X119081544Y-105173216D01*
X119180147Y-105025646D01*
X119305646Y-104900147D01*
X119453216Y-104801544D01*
X119617188Y-104733624D01*
X119766488Y-104703927D01*
X119791258Y-104699000D01*
X119968742Y-104699000D01*
X119993512Y-104703927D01*
G37*
G36*
X115701000Y-106501000D02*
G01*
X113899000Y-106501000D01*
X113899000Y-104699000D01*
X115701000Y-104699000D01*
X115701000Y-106501000D01*
G37*
G36*
X117453512Y-104703927D02*
G01*
X117602812Y-104733624D01*
X117766784Y-104801544D01*
X117914354Y-104900147D01*
X118039853Y-105025646D01*
X118138456Y-105173216D01*
X118206376Y-105337188D01*
X118241000Y-105511259D01*
X118241000Y-105688741D01*
X118206376Y-105862812D01*
X118138456Y-106026784D01*
X118039853Y-106174354D01*
X117914354Y-106299853D01*
X117766784Y-106398456D01*
X117602812Y-106466376D01*
X117453512Y-106496073D01*
X117428742Y-106501000D01*
X117251258Y-106501000D01*
X117226488Y-106496073D01*
X117077188Y-106466376D01*
X116913216Y-106398456D01*
X116765646Y-106299853D01*
X116640147Y-106174354D01*
X116541544Y-106026784D01*
X116473624Y-105862812D01*
X116439000Y-105688741D01*
X116439000Y-105511259D01*
X116473624Y-105337188D01*
X116541544Y-105173216D01*
X116640147Y-105025646D01*
X116765646Y-104900147D01*
X116913216Y-104801544D01*
X117077188Y-104733624D01*
X117226488Y-104703927D01*
X117251258Y-104699000D01*
X117428742Y-104699000D01*
X117453512Y-104703927D01*
G37*
G36*
X122533512Y-104703927D02*
G01*
X122682812Y-104733624D01*
X122846784Y-104801544D01*
X122994354Y-104900147D01*
X123119853Y-105025646D01*
X123218456Y-105173216D01*
X123286376Y-105337188D01*
X123321000Y-105511259D01*
X123321000Y-105688741D01*
X123286376Y-105862812D01*
X123218456Y-106026784D01*
X123119853Y-106174354D01*
X122994354Y-106299853D01*
X122846784Y-106398456D01*
X122682812Y-106466376D01*
X122533512Y-106496073D01*
X122508742Y-106501000D01*
X122331258Y-106501000D01*
X122306488Y-106496073D01*
X122157188Y-106466376D01*
X121993216Y-106398456D01*
X121845646Y-106299853D01*
X121720147Y-106174354D01*
X121621544Y-106026784D01*
X121553624Y-105862812D01*
X121519000Y-105688741D01*
X121519000Y-105511259D01*
X121553624Y-105337188D01*
X121621544Y-105173216D01*
X121720147Y-105025646D01*
X121845646Y-104900147D01*
X121993216Y-104801544D01*
X122157188Y-104733624D01*
X122306488Y-104703927D01*
X122331258Y-104699000D01*
X122508742Y-104699000D01*
X122533512Y-104703927D01*
G37*
G36*
X108605331Y-98268211D02*
G01*
X108933092Y-98403974D01*
X109228070Y-98601072D01*
X109478928Y-98851930D01*
X109676026Y-99146908D01*
X109811789Y-99474669D01*
X109881000Y-99822616D01*
X109881000Y-100177384D01*
X109811789Y-100525331D01*
X109676026Y-100853092D01*
X109478928Y-101148070D01*
X109228070Y-101398928D01*
X108933092Y-101596026D01*
X108605331Y-101731789D01*
X108257384Y-101801000D01*
X107902616Y-101801000D01*
X107554669Y-101731789D01*
X107226908Y-101596026D01*
X106931930Y-101398928D01*
X106681072Y-101148070D01*
X106483974Y-100853092D01*
X106348211Y-100525331D01*
X106279000Y-100177384D01*
X106279000Y-99822616D01*
X106348211Y-99474669D01*
X106483974Y-99146908D01*
X106681072Y-98851930D01*
X106931930Y-98601072D01*
X107226908Y-98403974D01*
X107554669Y-98268211D01*
X107902616Y-98199000D01*
X108257384Y-98199000D01*
X108605331Y-98268211D01*
G37*
G36*
X143153512Y-97943927D02*
G01*
X143302812Y-97973624D01*
X143466784Y-98041544D01*
X143614354Y-98140147D01*
X143739853Y-98265646D01*
X143838456Y-98413216D01*
X143906376Y-98577188D01*
X143941000Y-98751259D01*
X143941000Y-98928741D01*
X143906376Y-99102812D01*
X143838456Y-99266784D01*
X143739853Y-99414354D01*
X143614354Y-99539853D01*
X143466784Y-99638456D01*
X143302812Y-99706376D01*
X143153512Y-99736073D01*
X143128742Y-99741000D01*
X142951258Y-99741000D01*
X142926488Y-99736073D01*
X142777188Y-99706376D01*
X142613216Y-99638456D01*
X142465646Y-99539853D01*
X142340147Y-99414354D01*
X142241544Y-99266784D01*
X142173624Y-99102812D01*
X142139000Y-98928741D01*
X142139000Y-98751259D01*
X142173624Y-98577188D01*
X142241544Y-98413216D01*
X142340147Y-98265646D01*
X142465646Y-98140147D01*
X142613216Y-98041544D01*
X142777188Y-97973624D01*
X142926488Y-97943927D01*
X142951258Y-97939000D01*
X143128742Y-97939000D01*
X143153512Y-97943927D01*
G37*
G36*
X145693512Y-97943927D02*
G01*
X145842812Y-97973624D01*
X146006784Y-98041544D01*
X146154354Y-98140147D01*
X146279853Y-98265646D01*
X146378456Y-98413216D01*
X146446376Y-98577188D01*
X146481000Y-98751259D01*
X146481000Y-98928741D01*
X146446376Y-99102812D01*
X146378456Y-99266784D01*
X146279853Y-99414354D01*
X146154354Y-99539853D01*
X146006784Y-99638456D01*
X145842812Y-99706376D01*
X145693512Y-99736073D01*
X145668742Y-99741000D01*
X145491258Y-99741000D01*
X145466488Y-99736073D01*
X145317188Y-99706376D01*
X145153216Y-99638456D01*
X145005646Y-99539853D01*
X144880147Y-99414354D01*
X144781544Y-99266784D01*
X144713624Y-99102812D01*
X144679000Y-98928741D01*
X144679000Y-98751259D01*
X144713624Y-98577188D01*
X144781544Y-98413216D01*
X144880147Y-98265646D01*
X145005646Y-98140147D01*
X145153216Y-98041544D01*
X145317188Y-97973624D01*
X145466488Y-97943927D01*
X145491258Y-97939000D01*
X145668742Y-97939000D01*
X145693512Y-97943927D01*
G37*
G36*
X148233512Y-97943927D02*
G01*
X148382812Y-97973624D01*
X148546784Y-98041544D01*
X148694354Y-98140147D01*
X148819853Y-98265646D01*
X148918456Y-98413216D01*
X148986376Y-98577188D01*
X149021000Y-98751259D01*
X149021000Y-98928741D01*
X148986376Y-99102812D01*
X148918456Y-99266784D01*
X148819853Y-99414354D01*
X148694354Y-99539853D01*
X148546784Y-99638456D01*
X148382812Y-99706376D01*
X148233512Y-99736073D01*
X148208742Y-99741000D01*
X148031258Y-99741000D01*
X148006488Y-99736073D01*
X147857188Y-99706376D01*
X147693216Y-99638456D01*
X147545646Y-99539853D01*
X147420147Y-99414354D01*
X147321544Y-99266784D01*
X147253624Y-99102812D01*
X147219000Y-98928741D01*
X147219000Y-98751259D01*
X147253624Y-98577188D01*
X147321544Y-98413216D01*
X147420147Y-98265646D01*
X147545646Y-98140147D01*
X147693216Y-98041544D01*
X147857188Y-97973624D01*
X148006488Y-97943927D01*
X148031258Y-97939000D01*
X148208742Y-97939000D01*
X148233512Y-97943927D01*
G37*
G36*
X150773512Y-97943927D02*
G01*
X150922812Y-97973624D01*
X151086784Y-98041544D01*
X151234354Y-98140147D01*
X151359853Y-98265646D01*
X151458456Y-98413216D01*
X151526376Y-98577188D01*
X151561000Y-98751259D01*
X151561000Y-98928741D01*
X151526376Y-99102812D01*
X151458456Y-99266784D01*
X151359853Y-99414354D01*
X151234354Y-99539853D01*
X151086784Y-99638456D01*
X150922812Y-99706376D01*
X150773512Y-99736073D01*
X150748742Y-99741000D01*
X150571258Y-99741000D01*
X150546488Y-99736073D01*
X150397188Y-99706376D01*
X150233216Y-99638456D01*
X150085646Y-99539853D01*
X149960147Y-99414354D01*
X149861544Y-99266784D01*
X149793624Y-99102812D01*
X149759000Y-98928741D01*
X149759000Y-98751259D01*
X149793624Y-98577188D01*
X149861544Y-98413216D01*
X149960147Y-98265646D01*
X150085646Y-98140147D01*
X150233216Y-98041544D01*
X150397188Y-97973624D01*
X150546488Y-97943927D01*
X150571258Y-97939000D01*
X150748742Y-97939000D01*
X150773512Y-97943927D01*
G37*
G36*
X153313512Y-97943927D02*
G01*
X153462812Y-97973624D01*
X153626784Y-98041544D01*
X153774354Y-98140147D01*
X153899853Y-98265646D01*
X153998456Y-98413216D01*
X154066376Y-98577188D01*
X154101000Y-98751259D01*
X154101000Y-98928741D01*
X154066376Y-99102812D01*
X153998456Y-99266784D01*
X153899853Y-99414354D01*
X153774354Y-99539853D01*
X153626784Y-99638456D01*
X153462812Y-99706376D01*
X153313512Y-99736073D01*
X153288742Y-99741000D01*
X153111258Y-99741000D01*
X153086488Y-99736073D01*
X152937188Y-99706376D01*
X152773216Y-99638456D01*
X152625646Y-99539853D01*
X152500147Y-99414354D01*
X152401544Y-99266784D01*
X152333624Y-99102812D01*
X152299000Y-98928741D01*
X152299000Y-98751259D01*
X152333624Y-98577188D01*
X152401544Y-98413216D01*
X152500147Y-98265646D01*
X152625646Y-98140147D01*
X152773216Y-98041544D01*
X152937188Y-97973624D01*
X153086488Y-97943927D01*
X153111258Y-97939000D01*
X153288742Y-97939000D01*
X153313512Y-97943927D01*
G37*
G36*
X150773512Y-95403927D02*
G01*
X150922812Y-95433624D01*
X151086784Y-95501544D01*
X151234354Y-95600147D01*
X151359853Y-95725646D01*
X151458456Y-95873216D01*
X151526376Y-96037188D01*
X151561000Y-96211259D01*
X151561000Y-96388741D01*
X151526376Y-96562812D01*
X151458456Y-96726784D01*
X151359853Y-96874354D01*
X151234354Y-96999853D01*
X151086784Y-97098456D01*
X150922812Y-97166376D01*
X150773512Y-97196073D01*
X150748742Y-97201000D01*
X150571258Y-97201000D01*
X150546488Y-97196073D01*
X150397188Y-97166376D01*
X150233216Y-97098456D01*
X150085646Y-96999853D01*
X149960147Y-96874354D01*
X149861544Y-96726784D01*
X149793624Y-96562812D01*
X149759000Y-96388741D01*
X149759000Y-96211259D01*
X149793624Y-96037188D01*
X149861544Y-95873216D01*
X149960147Y-95725646D01*
X150085646Y-95600147D01*
X150233216Y-95501544D01*
X150397188Y-95433624D01*
X150546488Y-95403927D01*
X150571258Y-95399000D01*
X150748742Y-95399000D01*
X150773512Y-95403927D01*
G37*
G36*
X148233512Y-95403927D02*
G01*
X148382812Y-95433624D01*
X148546784Y-95501544D01*
X148694354Y-95600147D01*
X148819853Y-95725646D01*
X148918456Y-95873216D01*
X148986376Y-96037188D01*
X149021000Y-96211259D01*
X149021000Y-96388741D01*
X148986376Y-96562812D01*
X148918456Y-96726784D01*
X148819853Y-96874354D01*
X148694354Y-96999853D01*
X148546784Y-97098456D01*
X148382812Y-97166376D01*
X148233512Y-97196073D01*
X148208742Y-97201000D01*
X148031258Y-97201000D01*
X148006488Y-97196073D01*
X147857188Y-97166376D01*
X147693216Y-97098456D01*
X147545646Y-96999853D01*
X147420147Y-96874354D01*
X147321544Y-96726784D01*
X147253624Y-96562812D01*
X147219000Y-96388741D01*
X147219000Y-96211259D01*
X147253624Y-96037188D01*
X147321544Y-95873216D01*
X147420147Y-95725646D01*
X147545646Y-95600147D01*
X147693216Y-95501544D01*
X147857188Y-95433624D01*
X148006488Y-95403927D01*
X148031258Y-95399000D01*
X148208742Y-95399000D01*
X148233512Y-95403927D01*
G37*
G36*
X143153512Y-95403927D02*
G01*
X143302812Y-95433624D01*
X143466784Y-95501544D01*
X143614354Y-95600147D01*
X143739853Y-95725646D01*
X143838456Y-95873216D01*
X143906376Y-96037188D01*
X143941000Y-96211259D01*
X143941000Y-96388741D01*
X143906376Y-96562812D01*
X143838456Y-96726784D01*
X143739853Y-96874354D01*
X143614354Y-96999853D01*
X143466784Y-97098456D01*
X143302812Y-97166376D01*
X143153512Y-97196073D01*
X143128742Y-97201000D01*
X142951258Y-97201000D01*
X142926488Y-97196073D01*
X142777188Y-97166376D01*
X142613216Y-97098456D01*
X142465646Y-96999853D01*
X142340147Y-96874354D01*
X142241544Y-96726784D01*
X142173624Y-96562812D01*
X142139000Y-96388741D01*
X142139000Y-96211259D01*
X142173624Y-96037188D01*
X142241544Y-95873216D01*
X142340147Y-95725646D01*
X142465646Y-95600147D01*
X142613216Y-95501544D01*
X142777188Y-95433624D01*
X142926488Y-95403927D01*
X142951258Y-95399000D01*
X143128742Y-95399000D01*
X143153512Y-95403927D01*
G37*
G36*
X154101000Y-97201000D02*
G01*
X152299000Y-97201000D01*
X152299000Y-95399000D01*
X154101000Y-95399000D01*
X154101000Y-97201000D01*
G37*
G36*
X145693512Y-95403927D02*
G01*
X145842812Y-95433624D01*
X146006784Y-95501544D01*
X146154354Y-95600147D01*
X146279853Y-95725646D01*
X146378456Y-95873216D01*
X146446376Y-96037188D01*
X146481000Y-96211259D01*
X146481000Y-96388741D01*
X146446376Y-96562812D01*
X146378456Y-96726784D01*
X146279853Y-96874354D01*
X146154354Y-96999853D01*
X146006784Y-97098456D01*
X145842812Y-97166376D01*
X145693512Y-97196073D01*
X145668742Y-97201000D01*
X145491258Y-97201000D01*
X145466488Y-97196073D01*
X145317188Y-97166376D01*
X145153216Y-97098456D01*
X145005646Y-96999853D01*
X144880147Y-96874354D01*
X144781544Y-96726784D01*
X144713624Y-96562812D01*
X144679000Y-96388741D01*
X144679000Y-96211259D01*
X144713624Y-96037188D01*
X144781544Y-95873216D01*
X144880147Y-95725646D01*
X145005646Y-95600147D01*
X145153216Y-95501544D01*
X145317188Y-95433624D01*
X145466488Y-95403927D01*
X145491258Y-95399000D01*
X145668742Y-95399000D01*
X145693512Y-95403927D01*
G37*
G36*
X108386564Y-90099389D02*
G01*
X108577833Y-90178615D01*
X108577835Y-90178616D01*
X108749973Y-90293635D01*
X108896365Y-90440027D01*
X109011385Y-90612167D01*
X109090611Y-90803436D01*
X109131000Y-91006484D01*
X109131000Y-91213516D01*
X109090611Y-91416564D01*
X109011385Y-91607833D01*
X109011384Y-91607835D01*
X108896365Y-91779973D01*
X108749973Y-91926365D01*
X108577835Y-92041384D01*
X108577834Y-92041385D01*
X108577833Y-92041385D01*
X108386564Y-92120611D01*
X108183516Y-92161000D01*
X107976484Y-92161000D01*
X107773436Y-92120611D01*
X107582167Y-92041385D01*
X107582166Y-92041385D01*
X107582165Y-92041384D01*
X107410027Y-91926365D01*
X107263635Y-91779973D01*
X107148616Y-91607835D01*
X107148615Y-91607833D01*
X107069389Y-91416564D01*
X107029000Y-91213516D01*
X107029000Y-91006484D01*
X107069389Y-90803436D01*
X107148615Y-90612167D01*
X107263635Y-90440027D01*
X107410027Y-90293635D01*
X107582165Y-90178616D01*
X107582167Y-90178615D01*
X107773436Y-90099389D01*
X107976484Y-90059000D01*
X108183516Y-90059000D01*
X108386564Y-90099389D01*
G37*
G36*
X112386564Y-90099389D02*
G01*
X112577833Y-90178615D01*
X112577835Y-90178616D01*
X112749973Y-90293635D01*
X112896365Y-90440027D01*
X113011385Y-90612167D01*
X113090611Y-90803436D01*
X113131000Y-91006484D01*
X113131000Y-91213516D01*
X113090611Y-91416564D01*
X113011385Y-91607833D01*
X113011384Y-91607835D01*
X112896365Y-91779973D01*
X112749973Y-91926365D01*
X112577835Y-92041384D01*
X112577834Y-92041385D01*
X112577833Y-92041385D01*
X112386564Y-92120611D01*
X112183516Y-92161000D01*
X111976484Y-92161000D01*
X111773436Y-92120611D01*
X111582167Y-92041385D01*
X111582166Y-92041385D01*
X111582165Y-92041384D01*
X111410027Y-91926365D01*
X111263635Y-91779973D01*
X111148616Y-91607835D01*
X111148615Y-91607833D01*
X111069389Y-91416564D01*
X111029000Y-91213516D01*
X111029000Y-91006484D01*
X111069389Y-90803436D01*
X111148615Y-90612167D01*
X111263635Y-90440027D01*
X111410027Y-90293635D01*
X111582165Y-90178616D01*
X111582167Y-90178615D01*
X111773436Y-90099389D01*
X111976484Y-90059000D01*
X112183516Y-90059000D01*
X112386564Y-90099389D01*
G37*
G36*
X112386564Y-86599389D02*
G01*
X112577833Y-86678615D01*
X112577835Y-86678616D01*
X112749973Y-86793635D01*
X112896365Y-86940027D01*
X113011385Y-87112167D01*
X113090611Y-87303436D01*
X113131000Y-87506484D01*
X113131000Y-87713516D01*
X113090611Y-87916564D01*
X113011385Y-88107833D01*
X113011384Y-88107835D01*
X112896365Y-88279973D01*
X112749973Y-88426365D01*
X112577835Y-88541384D01*
X112577834Y-88541385D01*
X112577833Y-88541385D01*
X112386564Y-88620611D01*
X112183516Y-88661000D01*
X111976484Y-88661000D01*
X111773436Y-88620611D01*
X111582167Y-88541385D01*
X111582166Y-88541385D01*
X111582165Y-88541384D01*
X111410027Y-88426365D01*
X111263635Y-88279973D01*
X111148616Y-88107835D01*
X111148615Y-88107833D01*
X111069389Y-87916564D01*
X111029000Y-87713516D01*
X111029000Y-87506484D01*
X111069389Y-87303436D01*
X111148615Y-87112167D01*
X111263635Y-86940027D01*
X111410027Y-86793635D01*
X111582165Y-86678616D01*
X111582167Y-86678615D01*
X111773436Y-86599389D01*
X111976484Y-86559000D01*
X112183516Y-86559000D01*
X112386564Y-86599389D01*
G37*
G36*
X108386564Y-86599389D02*
G01*
X108577833Y-86678615D01*
X108577835Y-86678616D01*
X108749973Y-86793635D01*
X108896365Y-86940027D01*
X109011385Y-87112167D01*
X109090611Y-87303436D01*
X109131000Y-87506484D01*
X109131000Y-87713516D01*
X109090611Y-87916564D01*
X109011385Y-88107833D01*
X109011384Y-88107835D01*
X108896365Y-88279973D01*
X108749973Y-88426365D01*
X108577835Y-88541384D01*
X108577834Y-88541385D01*
X108577833Y-88541385D01*
X108386564Y-88620611D01*
X108183516Y-88661000D01*
X107976484Y-88661000D01*
X107773436Y-88620611D01*
X107582167Y-88541385D01*
X107582166Y-88541385D01*
X107582165Y-88541384D01*
X107410027Y-88426365D01*
X107263635Y-88279973D01*
X107148616Y-88107835D01*
X107148615Y-88107833D01*
X107069389Y-87916564D01*
X107029000Y-87713516D01*
X107029000Y-87506484D01*
X107069389Y-87303436D01*
X107148615Y-87112167D01*
X107263635Y-86940027D01*
X107410027Y-86793635D01*
X107582165Y-86678616D01*
X107582167Y-86678615D01*
X107773436Y-86599389D01*
X107976484Y-86559000D01*
X108183516Y-86559000D01*
X108386564Y-86599389D01*
G37*
G36*
X112386564Y-83099389D02*
G01*
X112577833Y-83178615D01*
X112577835Y-83178616D01*
X112749973Y-83293635D01*
X112896365Y-83440027D01*
X113011385Y-83612167D01*
X113090611Y-83803436D01*
X113131000Y-84006484D01*
X113131000Y-84213516D01*
X113090611Y-84416564D01*
X113011385Y-84607833D01*
X113011384Y-84607835D01*
X112896365Y-84779973D01*
X112749973Y-84926365D01*
X112577835Y-85041384D01*
X112577834Y-85041385D01*
X112577833Y-85041385D01*
X112386564Y-85120611D01*
X112183516Y-85161000D01*
X111976484Y-85161000D01*
X111773436Y-85120611D01*
X111582167Y-85041385D01*
X111582166Y-85041385D01*
X111582165Y-85041384D01*
X111410027Y-84926365D01*
X111263635Y-84779973D01*
X111148616Y-84607835D01*
X111148615Y-84607833D01*
X111069389Y-84416564D01*
X111029000Y-84213516D01*
X111029000Y-84006484D01*
X111069389Y-83803436D01*
X111148615Y-83612167D01*
X111263635Y-83440027D01*
X111410027Y-83293635D01*
X111582165Y-83178616D01*
X111582167Y-83178615D01*
X111773436Y-83099389D01*
X111976484Y-83059000D01*
X112183516Y-83059000D01*
X112386564Y-83099389D01*
G37*
G36*
X108386564Y-83099389D02*
G01*
X108577833Y-83178615D01*
X108577835Y-83178616D01*
X108749973Y-83293635D01*
X108896365Y-83440027D01*
X109011385Y-83612167D01*
X109090611Y-83803436D01*
X109131000Y-84006484D01*
X109131000Y-84213516D01*
X109090611Y-84416564D01*
X109011385Y-84607833D01*
X109011384Y-84607835D01*
X108896365Y-84779973D01*
X108749973Y-84926365D01*
X108577835Y-85041384D01*
X108577834Y-85041385D01*
X108577833Y-85041385D01*
X108386564Y-85120611D01*
X108183516Y-85161000D01*
X107976484Y-85161000D01*
X107773436Y-85120611D01*
X107582167Y-85041385D01*
X107582166Y-85041385D01*
X107582165Y-85041384D01*
X107410027Y-84926365D01*
X107263635Y-84779973D01*
X107148616Y-84607835D01*
X107148615Y-84607833D01*
X107069389Y-84416564D01*
X107029000Y-84213516D01*
X107029000Y-84006484D01*
X107069389Y-83803436D01*
X107148615Y-83612167D01*
X107263635Y-83440027D01*
X107410027Y-83293635D01*
X107582165Y-83178616D01*
X107582167Y-83178615D01*
X107773436Y-83099389D01*
X107976484Y-83059000D01*
X108183516Y-83059000D01*
X108386564Y-83099389D01*
G37*
G36*
X112386564Y-79599389D02*
G01*
X112577833Y-79678615D01*
X112577835Y-79678616D01*
X112749973Y-79793635D01*
X112896365Y-79940027D01*
X113011385Y-80112167D01*
X113090611Y-80303436D01*
X113131000Y-80506484D01*
X113131000Y-80713516D01*
X113090611Y-80916564D01*
X113011385Y-81107833D01*
X113011384Y-81107835D01*
X112896365Y-81279973D01*
X112749973Y-81426365D01*
X112577835Y-81541384D01*
X112577834Y-81541385D01*
X112577833Y-81541385D01*
X112386564Y-81620611D01*
X112183516Y-81661000D01*
X111976484Y-81661000D01*
X111773436Y-81620611D01*
X111582167Y-81541385D01*
X111582166Y-81541385D01*
X111582165Y-81541384D01*
X111410027Y-81426365D01*
X111263635Y-81279973D01*
X111148616Y-81107835D01*
X111148615Y-81107833D01*
X111069389Y-80916564D01*
X111029000Y-80713516D01*
X111029000Y-80506484D01*
X111069389Y-80303436D01*
X111148615Y-80112167D01*
X111263635Y-79940027D01*
X111410027Y-79793635D01*
X111582165Y-79678616D01*
X111582167Y-79678615D01*
X111773436Y-79599389D01*
X111976484Y-79559000D01*
X112183516Y-79559000D01*
X112386564Y-79599389D01*
G37*
G36*
X108386564Y-79599389D02*
G01*
X108577833Y-79678615D01*
X108577835Y-79678616D01*
X108749973Y-79793635D01*
X108896365Y-79940027D01*
X109011385Y-80112167D01*
X109090611Y-80303436D01*
X109131000Y-80506484D01*
X109131000Y-80713516D01*
X109090611Y-80916564D01*
X109011385Y-81107833D01*
X109011384Y-81107835D01*
X108896365Y-81279973D01*
X108749973Y-81426365D01*
X108577835Y-81541384D01*
X108577834Y-81541385D01*
X108577833Y-81541385D01*
X108386564Y-81620611D01*
X108183516Y-81661000D01*
X107976484Y-81661000D01*
X107773436Y-81620611D01*
X107582167Y-81541385D01*
X107582166Y-81541385D01*
X107582165Y-81541384D01*
X107410027Y-81426365D01*
X107263635Y-81279973D01*
X107148616Y-81107835D01*
X107148615Y-81107833D01*
X107069389Y-80916564D01*
X107029000Y-80713516D01*
X107029000Y-80506484D01*
X107069389Y-80303436D01*
X107148615Y-80112167D01*
X107263635Y-79940027D01*
X107410027Y-79793635D01*
X107582165Y-79678616D01*
X107582167Y-79678615D01*
X107773436Y-79599389D01*
X107976484Y-79559000D01*
X108183516Y-79559000D01*
X108386564Y-79599389D01*
G37*
G36*
X133979487Y-76148996D02*
G01*
X134216253Y-76247068D01*
X134216255Y-76247069D01*
X134285946Y-76293635D01*
X134429339Y-76389447D01*
X134610553Y-76570661D01*
X134752932Y-76783747D01*
X134851004Y-77020513D01*
X134901000Y-77271861D01*
X134901000Y-77528139D01*
X134851004Y-77779487D01*
X134790165Y-77926365D01*
X134752931Y-78016255D01*
X134610553Y-78229339D01*
X134429339Y-78410553D01*
X134216255Y-78552931D01*
X134216254Y-78552932D01*
X134216253Y-78552932D01*
X133979487Y-78651004D01*
X133728139Y-78701000D01*
X133471861Y-78701000D01*
X133220513Y-78651004D01*
X132983747Y-78552932D01*
X132983746Y-78552932D01*
X132983745Y-78552931D01*
X132770661Y-78410553D01*
X132589447Y-78229339D01*
X132447069Y-78016255D01*
X132409835Y-77926365D01*
X132348996Y-77779487D01*
X132299000Y-77528139D01*
X132299000Y-77271861D01*
X132348996Y-77020513D01*
X132447068Y-76783747D01*
X132589447Y-76570661D01*
X132770661Y-76389447D01*
X132914054Y-76293635D01*
X132983745Y-76247069D01*
X132983747Y-76247068D01*
X133220513Y-76148996D01*
X133471861Y-76099000D01*
X133728139Y-76099000D01*
X133979487Y-76148996D01*
G37*
G36*
X146179487Y-76148996D02*
G01*
X146416253Y-76247068D01*
X146416255Y-76247069D01*
X146485946Y-76293635D01*
X146629339Y-76389447D01*
X146810553Y-76570661D01*
X146952932Y-76783747D01*
X147051004Y-77020513D01*
X147101000Y-77271861D01*
X147101000Y-77528139D01*
X147051004Y-77779487D01*
X146990165Y-77926365D01*
X146952931Y-78016255D01*
X146810553Y-78229339D01*
X146629339Y-78410553D01*
X146416255Y-78552931D01*
X146416254Y-78552932D01*
X146416253Y-78552932D01*
X146179487Y-78651004D01*
X145928139Y-78701000D01*
X145671861Y-78701000D01*
X145420513Y-78651004D01*
X145183747Y-78552932D01*
X145183746Y-78552932D01*
X145183745Y-78552931D01*
X144970661Y-78410553D01*
X144789447Y-78229339D01*
X144647069Y-78016255D01*
X144609835Y-77926365D01*
X144548996Y-77779487D01*
X144499000Y-77528139D01*
X144499000Y-77271861D01*
X144548996Y-77020513D01*
X144647068Y-76783747D01*
X144789447Y-76570661D01*
X144970661Y-76389447D01*
X145114054Y-76293635D01*
X145183745Y-76247069D01*
X145183747Y-76247068D01*
X145420513Y-76148996D01*
X145671861Y-76099000D01*
X145928139Y-76099000D01*
X146179487Y-76148996D01*
G37*
G36*
X108386564Y-76099389D02*
G01*
X108577833Y-76178615D01*
X108577835Y-76178616D01*
X108680282Y-76247069D01*
X108749973Y-76293635D01*
X108896365Y-76440027D01*
X109011385Y-76612167D01*
X109090611Y-76803436D01*
X109131000Y-77006484D01*
X109131000Y-77213516D01*
X109090611Y-77416564D01*
X109044396Y-77528137D01*
X109011384Y-77607835D01*
X108896365Y-77779973D01*
X108749973Y-77926365D01*
X108577835Y-78041384D01*
X108577834Y-78041385D01*
X108577833Y-78041385D01*
X108386564Y-78120611D01*
X108183516Y-78161000D01*
X107976484Y-78161000D01*
X107773436Y-78120611D01*
X107582167Y-78041385D01*
X107582166Y-78041385D01*
X107582165Y-78041384D01*
X107410027Y-77926365D01*
X107263635Y-77779973D01*
X107148616Y-77607835D01*
X107115604Y-77528137D01*
X107069389Y-77416564D01*
X107029000Y-77213516D01*
X107029000Y-77006484D01*
X107069389Y-76803436D01*
X107148615Y-76612167D01*
X107263635Y-76440027D01*
X107410027Y-76293635D01*
X107479718Y-76247069D01*
X107582165Y-76178616D01*
X107582167Y-76178615D01*
X107773436Y-76099389D01*
X107976484Y-76059000D01*
X108183516Y-76059000D01*
X108386564Y-76099389D01*
G37*
G36*
X112386564Y-76099389D02*
G01*
X112577833Y-76178615D01*
X112577835Y-76178616D01*
X112680282Y-76247069D01*
X112749973Y-76293635D01*
X112896365Y-76440027D01*
X113011385Y-76612167D01*
X113090611Y-76803436D01*
X113131000Y-77006484D01*
X113131000Y-77213516D01*
X113090611Y-77416564D01*
X113044396Y-77528137D01*
X113011384Y-77607835D01*
X112896365Y-77779973D01*
X112749973Y-77926365D01*
X112577835Y-78041384D01*
X112577834Y-78041385D01*
X112577833Y-78041385D01*
X112386564Y-78120611D01*
X112183516Y-78161000D01*
X111976484Y-78161000D01*
X111773436Y-78120611D01*
X111582167Y-78041385D01*
X111582166Y-78041385D01*
X111582165Y-78041384D01*
X111410027Y-77926365D01*
X111263635Y-77779973D01*
X111148616Y-77607835D01*
X111115604Y-77528137D01*
X111069389Y-77416564D01*
X111029000Y-77213516D01*
X111029000Y-77006484D01*
X111069389Y-76803436D01*
X111148615Y-76612167D01*
X111263635Y-76440027D01*
X111410027Y-76293635D01*
X111479718Y-76247069D01*
X111582165Y-76178616D01*
X111582167Y-76178615D01*
X111773436Y-76099389D01*
X111976484Y-76059000D01*
X112183516Y-76059000D01*
X112386564Y-76099389D01*
G37*
G36*
X108386564Y-72599389D02*
G01*
X108577833Y-72678615D01*
X108577835Y-72678616D01*
X108611335Y-72701000D01*
X108749973Y-72793635D01*
X108896365Y-72940027D01*
X109011385Y-73112167D01*
X109090611Y-73303436D01*
X109131000Y-73506484D01*
X109131000Y-73713516D01*
X109090611Y-73916564D01*
X109011385Y-74107833D01*
X109011384Y-74107835D01*
X108896365Y-74279973D01*
X108749973Y-74426365D01*
X108577835Y-74541384D01*
X108577834Y-74541385D01*
X108577833Y-74541385D01*
X108386564Y-74620611D01*
X108183516Y-74661000D01*
X107976484Y-74661000D01*
X107773436Y-74620611D01*
X107582167Y-74541385D01*
X107582166Y-74541385D01*
X107582165Y-74541384D01*
X107410027Y-74426365D01*
X107263635Y-74279973D01*
X107148616Y-74107835D01*
X107148615Y-74107833D01*
X107069389Y-73916564D01*
X107029000Y-73713516D01*
X107029000Y-73506484D01*
X107069389Y-73303436D01*
X107148615Y-73112167D01*
X107263635Y-72940027D01*
X107410027Y-72793635D01*
X107548665Y-72701000D01*
X107582165Y-72678616D01*
X107582167Y-72678615D01*
X107773436Y-72599389D01*
X107976484Y-72559000D01*
X108183516Y-72559000D01*
X108386564Y-72599389D01*
G37*
G36*
X112386564Y-72599389D02*
G01*
X112577833Y-72678615D01*
X112577835Y-72678616D01*
X112611335Y-72701000D01*
X112749973Y-72793635D01*
X112896365Y-72940027D01*
X113011385Y-73112167D01*
X113090611Y-73303436D01*
X113131000Y-73506484D01*
X113131000Y-73713516D01*
X113090611Y-73916564D01*
X113011385Y-74107833D01*
X113011384Y-74107835D01*
X112896365Y-74279973D01*
X112749973Y-74426365D01*
X112577835Y-74541384D01*
X112577834Y-74541385D01*
X112577833Y-74541385D01*
X112386564Y-74620611D01*
X112183516Y-74661000D01*
X111976484Y-74661000D01*
X111773436Y-74620611D01*
X111582167Y-74541385D01*
X111582166Y-74541385D01*
X111582165Y-74541384D01*
X111410027Y-74426365D01*
X111263635Y-74279973D01*
X111148616Y-74107835D01*
X111148615Y-74107833D01*
X111069389Y-73916564D01*
X111029000Y-73713516D01*
X111029000Y-73506484D01*
X111069389Y-73303436D01*
X111148615Y-73112167D01*
X111263635Y-72940027D01*
X111410027Y-72793635D01*
X111548665Y-72701000D01*
X111582165Y-72678616D01*
X111582167Y-72678615D01*
X111773436Y-72599389D01*
X111976484Y-72559000D01*
X112183516Y-72559000D01*
X112386564Y-72599389D01*
G37*
G36*
X149101000Y-72701000D02*
G01*
X146499000Y-72701000D01*
X146499000Y-70099000D01*
X149101000Y-70099000D01*
X149101000Y-72701000D01*
G37*
G36*
X108386564Y-69099389D02*
G01*
X108577833Y-69178615D01*
X108577835Y-69178616D01*
X108749973Y-69293635D01*
X108896365Y-69440027D01*
X109011385Y-69612167D01*
X109090611Y-69803436D01*
X109131000Y-70006484D01*
X109131000Y-70213516D01*
X109090611Y-70416564D01*
X109011385Y-70607833D01*
X109011384Y-70607835D01*
X108896365Y-70779973D01*
X108749973Y-70926365D01*
X108577835Y-71041384D01*
X108577834Y-71041385D01*
X108577833Y-71041385D01*
X108386564Y-71120611D01*
X108183516Y-71161000D01*
X107976484Y-71161000D01*
X107773436Y-71120611D01*
X107582167Y-71041385D01*
X107582166Y-71041385D01*
X107582165Y-71041384D01*
X107410027Y-70926365D01*
X107263635Y-70779973D01*
X107148616Y-70607835D01*
X107148615Y-70607833D01*
X107069389Y-70416564D01*
X107029000Y-70213516D01*
X107029000Y-70006484D01*
X107069389Y-69803436D01*
X107148615Y-69612167D01*
X107263635Y-69440027D01*
X107410027Y-69293635D01*
X107582165Y-69178616D01*
X107582167Y-69178615D01*
X107773436Y-69099389D01*
X107976484Y-69059000D01*
X108183516Y-69059000D01*
X108386564Y-69099389D01*
G37*
G36*
X112386564Y-69099389D02*
G01*
X112577833Y-69178615D01*
X112577835Y-69178616D01*
X112749973Y-69293635D01*
X112896365Y-69440027D01*
X113011385Y-69612167D01*
X113090611Y-69803436D01*
X113131000Y-70006484D01*
X113131000Y-70213516D01*
X113090611Y-70416564D01*
X113011385Y-70607833D01*
X113011384Y-70607835D01*
X112896365Y-70779973D01*
X112749973Y-70926365D01*
X112577835Y-71041384D01*
X112577834Y-71041385D01*
X112577833Y-71041385D01*
X112386564Y-71120611D01*
X112183516Y-71161000D01*
X111976484Y-71161000D01*
X111773436Y-71120611D01*
X111582167Y-71041385D01*
X111582166Y-71041385D01*
X111582165Y-71041384D01*
X111410027Y-70926365D01*
X111263635Y-70779973D01*
X111148616Y-70607835D01*
X111148615Y-70607833D01*
X111069389Y-70416564D01*
X111029000Y-70213516D01*
X111029000Y-70006484D01*
X111069389Y-69803436D01*
X111148615Y-69612167D01*
X111263635Y-69440027D01*
X111410027Y-69293635D01*
X111582165Y-69178616D01*
X111582167Y-69178615D01*
X111773436Y-69099389D01*
X111976484Y-69059000D01*
X112183516Y-69059000D01*
X112386564Y-69099389D01*
G37*
G36*
X108386564Y-65599389D02*
G01*
X108577833Y-65678615D01*
X108577835Y-65678616D01*
X108749973Y-65793635D01*
X108896365Y-65940027D01*
X108947298Y-66016253D01*
X109011385Y-66112167D01*
X109090611Y-66303436D01*
X109131000Y-66506484D01*
X109131000Y-66713516D01*
X109090611Y-66916564D01*
X109011385Y-67107833D01*
X109011384Y-67107835D01*
X108896365Y-67279973D01*
X108749973Y-67426365D01*
X108577835Y-67541384D01*
X108577834Y-67541385D01*
X108577833Y-67541385D01*
X108386564Y-67620611D01*
X108183516Y-67661000D01*
X107976484Y-67661000D01*
X107773436Y-67620611D01*
X107582167Y-67541385D01*
X107582166Y-67541385D01*
X107582165Y-67541384D01*
X107410027Y-67426365D01*
X107263635Y-67279973D01*
X107148616Y-67107835D01*
X107148615Y-67107833D01*
X107069389Y-66916564D01*
X107029000Y-66713516D01*
X107029000Y-66506484D01*
X107069389Y-66303436D01*
X107148615Y-66112167D01*
X107212703Y-66016253D01*
X107263635Y-65940027D01*
X107410027Y-65793635D01*
X107582165Y-65678616D01*
X107582167Y-65678615D01*
X107773436Y-65599389D01*
X107976484Y-65559000D01*
X108183516Y-65559000D01*
X108386564Y-65599389D01*
G37*
G36*
X112386564Y-65599389D02*
G01*
X112577833Y-65678615D01*
X112577835Y-65678616D01*
X112749973Y-65793635D01*
X112896365Y-65940027D01*
X112947298Y-66016253D01*
X113011385Y-66112167D01*
X113090611Y-66303436D01*
X113131000Y-66506484D01*
X113131000Y-66713516D01*
X113090611Y-66916564D01*
X113011385Y-67107833D01*
X113011384Y-67107835D01*
X112896365Y-67279973D01*
X112749973Y-67426365D01*
X112577835Y-67541384D01*
X112577834Y-67541385D01*
X112577833Y-67541385D01*
X112386564Y-67620611D01*
X112183516Y-67661000D01*
X111976484Y-67661000D01*
X111773436Y-67620611D01*
X111582167Y-67541385D01*
X111582166Y-67541385D01*
X111582165Y-67541384D01*
X111410027Y-67426365D01*
X111263635Y-67279973D01*
X111148616Y-67107835D01*
X111148615Y-67107833D01*
X111069389Y-66916564D01*
X111029000Y-66713516D01*
X111029000Y-66506484D01*
X111069389Y-66303436D01*
X111148615Y-66112167D01*
X111212703Y-66016253D01*
X111263635Y-65940027D01*
X111410027Y-65793635D01*
X111582165Y-65678616D01*
X111582167Y-65678615D01*
X111773436Y-65599389D01*
X111976484Y-65559000D01*
X112183516Y-65559000D01*
X112386564Y-65599389D01*
G37*
G36*
X146179487Y-64148996D02*
G01*
X146416253Y-64247068D01*
X146416255Y-64247069D01*
X146629339Y-64389447D01*
X146810553Y-64570661D01*
X146952932Y-64783747D01*
X147051004Y-65020513D01*
X147101000Y-65271861D01*
X147101000Y-65528139D01*
X147051004Y-65779487D01*
X146984506Y-65940027D01*
X146952931Y-66016255D01*
X146810553Y-66229339D01*
X146629339Y-66410553D01*
X146416255Y-66552931D01*
X146416254Y-66552932D01*
X146416253Y-66552932D01*
X146179487Y-66651004D01*
X145928139Y-66701000D01*
X145671861Y-66701000D01*
X145420513Y-66651004D01*
X145183747Y-66552932D01*
X145183746Y-66552932D01*
X145183745Y-66552931D01*
X144970661Y-66410553D01*
X144789447Y-66229339D01*
X144647069Y-66016255D01*
X144615494Y-65940027D01*
X144548996Y-65779487D01*
X144499000Y-65528139D01*
X144499000Y-65271861D01*
X144548996Y-65020513D01*
X144647068Y-64783747D01*
X144789447Y-64570661D01*
X144970661Y-64389447D01*
X145183745Y-64247069D01*
X145183747Y-64247068D01*
X145420513Y-64148996D01*
X145671861Y-64099000D01*
X145928139Y-64099000D01*
X146179487Y-64148996D01*
G37*
G36*
X133979487Y-64148996D02*
G01*
X134216253Y-64247068D01*
X134216255Y-64247069D01*
X134429339Y-64389447D01*
X134610553Y-64570661D01*
X134752932Y-64783747D01*
X134851004Y-65020513D01*
X134901000Y-65271861D01*
X134901000Y-65528139D01*
X134851004Y-65779487D01*
X134784506Y-65940027D01*
X134752931Y-66016255D01*
X134610553Y-66229339D01*
X134429339Y-66410553D01*
X134216255Y-66552931D01*
X134216254Y-66552932D01*
X134216253Y-66552932D01*
X133979487Y-66651004D01*
X133728139Y-66701000D01*
X133471861Y-66701000D01*
X133220513Y-66651004D01*
X132983747Y-66552932D01*
X132983746Y-66552932D01*
X132983745Y-66552931D01*
X132770661Y-66410553D01*
X132589447Y-66229339D01*
X132447069Y-66016255D01*
X132415494Y-65940027D01*
X132348996Y-65779487D01*
X132299000Y-65528139D01*
X132299000Y-65271861D01*
X132348996Y-65020513D01*
X132447068Y-64783747D01*
X132589447Y-64570661D01*
X132770661Y-64389447D01*
X132983745Y-64247069D01*
X132983747Y-64247068D01*
X133220513Y-64148996D01*
X133471861Y-64099000D01*
X133728139Y-64099000D01*
X133979487Y-64148996D01*
G37*
G36*
X108386564Y-62099389D02*
G01*
X108577833Y-62178615D01*
X108577835Y-62178616D01*
X108749973Y-62293635D01*
X108896365Y-62440027D01*
X109011385Y-62612167D01*
X109090611Y-62803436D01*
X109131000Y-63006484D01*
X109131000Y-63213516D01*
X109090611Y-63416564D01*
X109011385Y-63607833D01*
X109011384Y-63607835D01*
X108896365Y-63779973D01*
X108749973Y-63926365D01*
X108577835Y-64041384D01*
X108577834Y-64041385D01*
X108577833Y-64041385D01*
X108386564Y-64120611D01*
X108183516Y-64161000D01*
X107976484Y-64161000D01*
X107773436Y-64120611D01*
X107582167Y-64041385D01*
X107582166Y-64041385D01*
X107582165Y-64041384D01*
X107410027Y-63926365D01*
X107263635Y-63779973D01*
X107148616Y-63607835D01*
X107148615Y-63607833D01*
X107069389Y-63416564D01*
X107029000Y-63213516D01*
X107029000Y-63006484D01*
X107069389Y-62803436D01*
X107148615Y-62612167D01*
X107263635Y-62440027D01*
X107410027Y-62293635D01*
X107582165Y-62178616D01*
X107582167Y-62178615D01*
X107773436Y-62099389D01*
X107976484Y-62059000D01*
X108183516Y-62059000D01*
X108386564Y-62099389D01*
G37*
G36*
X112386564Y-62099389D02*
G01*
X112577833Y-62178615D01*
X112577835Y-62178616D01*
X112749973Y-62293635D01*
X112896365Y-62440027D01*
X113011385Y-62612167D01*
X113090611Y-62803436D01*
X113131000Y-63006484D01*
X113131000Y-63213516D01*
X113090611Y-63416564D01*
X113011385Y-63607833D01*
X113011384Y-63607835D01*
X112896365Y-63779973D01*
X112749973Y-63926365D01*
X112577835Y-64041384D01*
X112577834Y-64041385D01*
X112577833Y-64041385D01*
X112386564Y-64120611D01*
X112183516Y-64161000D01*
X111976484Y-64161000D01*
X111773436Y-64120611D01*
X111582167Y-64041385D01*
X111582166Y-64041385D01*
X111582165Y-64041384D01*
X111410027Y-63926365D01*
X111263635Y-63779973D01*
X111148616Y-63607835D01*
X111148615Y-63607833D01*
X111069389Y-63416564D01*
X111029000Y-63213516D01*
X111029000Y-63006484D01*
X111069389Y-62803436D01*
X111148615Y-62612167D01*
X111263635Y-62440027D01*
X111410027Y-62293635D01*
X111582165Y-62178616D01*
X111582167Y-62178615D01*
X111773436Y-62099389D01*
X111976484Y-62059000D01*
X112183516Y-62059000D01*
X112386564Y-62099389D01*
G37*
G36*
X112386564Y-58599389D02*
G01*
X112577833Y-58678615D01*
X112577835Y-58678616D01*
X112749973Y-58793635D01*
X112896365Y-58940027D01*
X113011385Y-59112167D01*
X113090611Y-59303436D01*
X113131000Y-59506484D01*
X113131000Y-59713516D01*
X113090611Y-59916564D01*
X113011385Y-60107833D01*
X113011384Y-60107835D01*
X112896365Y-60279973D01*
X112749973Y-60426365D01*
X112577835Y-60541384D01*
X112577834Y-60541385D01*
X112577833Y-60541385D01*
X112386564Y-60620611D01*
X112183516Y-60661000D01*
X111976484Y-60661000D01*
X111773436Y-60620611D01*
X111582167Y-60541385D01*
X111582166Y-60541385D01*
X111582165Y-60541384D01*
X111410027Y-60426365D01*
X111263635Y-60279973D01*
X111148616Y-60107835D01*
X111148615Y-60107833D01*
X111069389Y-59916564D01*
X111029000Y-59713516D01*
X111029000Y-59506484D01*
X111069389Y-59303436D01*
X111148615Y-59112167D01*
X111263635Y-58940027D01*
X111410027Y-58793635D01*
X111582165Y-58678616D01*
X111582167Y-58678615D01*
X111773436Y-58599389D01*
X111976484Y-58559000D01*
X112183516Y-58559000D01*
X112386564Y-58599389D01*
G37*
G36*
X108386564Y-58599389D02*
G01*
X108577833Y-58678615D01*
X108577835Y-58678616D01*
X108749973Y-58793635D01*
X108896365Y-58940027D01*
X109011385Y-59112167D01*
X109090611Y-59303436D01*
X109131000Y-59506484D01*
X109131000Y-59713516D01*
X109090611Y-59916564D01*
X109011385Y-60107833D01*
X109011384Y-60107835D01*
X108896365Y-60279973D01*
X108749973Y-60426365D01*
X108577835Y-60541384D01*
X108577834Y-60541385D01*
X108577833Y-60541385D01*
X108386564Y-60620611D01*
X108183516Y-60661000D01*
X107976484Y-60661000D01*
X107773436Y-60620611D01*
X107582167Y-60541385D01*
X107582166Y-60541385D01*
X107582165Y-60541384D01*
X107410027Y-60426365D01*
X107263635Y-60279973D01*
X107148616Y-60107835D01*
X107148615Y-60107833D01*
X107069389Y-59916564D01*
X107029000Y-59713516D01*
X107029000Y-59506484D01*
X107069389Y-59303436D01*
X107148615Y-59112167D01*
X107263635Y-58940027D01*
X107410027Y-58793635D01*
X107582165Y-58678616D01*
X107582167Y-58678615D01*
X107773436Y-58599389D01*
X107976484Y-58559000D01*
X108183516Y-58559000D01*
X108386564Y-58599389D01*
G37*
M02*
