G04 #@! TF.GenerationSoftware,KiCad,Pcbnew,(5.1.5)-3*
G04 #@! TF.CreationDate,2020-05-03T19:08:43+01:00*
G04 #@! TF.ProjectId,Isolator CAN SMT v2,49736f6c-6174-46f7-9220-43414e20534d,rev?*
G04 #@! TF.SameCoordinates,Original*
G04 #@! TF.FileFunction,Copper,L3,Inr*
G04 #@! TF.FilePolarity,Positive*
%FSLAX46Y46*%
G04 Gerber Fmt 4.6, Leading zero omitted, Abs format (unit mm)*
G04 Created by KiCad (PCBNEW (5.1.5)-3) date 2020-05-03 19:08:43*
%MOMM*%
%LPD*%
G04 APERTURE LIST*
%ADD10C,2.000000*%
%ADD11O,2.500000X2.500000*%
%ADD12R,2.500000X2.500000*%
%ADD13O,1.700000X1.700000*%
%ADD14R,1.700000X1.700000*%
%ADD15C,0.800000*%
%ADD16C,0.250000*%
%ADD17C,0.750000*%
%ADD18C,0.254000*%
G04 APERTURE END LIST*
D10*
X112080000Y-70110000D03*
X112080000Y-59610000D03*
X112080000Y-73610000D03*
X112080000Y-87610000D03*
X112080000Y-63110000D03*
X112080000Y-77110000D03*
X112080000Y-84110000D03*
X112080000Y-91110000D03*
X112080000Y-80610000D03*
X112080000Y-66610000D03*
X108080000Y-63110000D03*
X108080000Y-66610000D03*
X108080000Y-70110000D03*
X108080000Y-73610000D03*
X108080000Y-77110000D03*
X108080000Y-80610000D03*
X108080000Y-84110000D03*
X108080000Y-87610000D03*
X108080000Y-59610000D03*
X108080000Y-91110000D03*
X108080000Y-133380000D03*
X108080000Y-129880000D03*
X108080000Y-126380000D03*
X108080000Y-122880000D03*
X108080000Y-119380000D03*
X108080000Y-115880000D03*
X112080000Y-133380000D03*
X112080000Y-129880000D03*
X112080000Y-126380000D03*
X112080000Y-122880000D03*
X112080000Y-119380000D03*
X112080000Y-115880000D03*
D11*
X145800000Y-77400000D03*
X133600000Y-77400000D03*
X133600000Y-65400000D03*
X145800000Y-65400000D03*
D12*
X147800000Y-71400000D03*
D13*
X122420000Y-105600000D03*
X119880000Y-105600000D03*
X117340000Y-105600000D03*
D14*
X114800000Y-105600000D03*
X153200000Y-96300000D03*
D13*
X153200000Y-98840000D03*
X150660000Y-96300000D03*
X150660000Y-98840000D03*
X148120000Y-96300000D03*
X148120000Y-98840000D03*
X145580000Y-96300000D03*
X145580000Y-98840000D03*
X143040000Y-96300000D03*
X143040000Y-98840000D03*
D15*
X162914500Y-80485500D03*
X154927000Y-79449000D03*
X156800000Y-90400000D03*
X156400000Y-103400000D03*
X163000000Y-113350000D03*
X161912500Y-122912500D03*
X135800000Y-94400000D03*
X145400000Y-92600000D03*
X145000000Y-84800000D03*
X129187500Y-82412500D03*
X123850000Y-81750000D03*
X139200002Y-82200000D03*
X128600000Y-105000000D03*
X112200000Y-105000000D03*
X127800000Y-98600000D03*
X122800000Y-98600000D03*
X136200500Y-100000500D03*
X121400000Y-88800000D03*
X123612500Y-77787500D03*
X120750000Y-66450000D03*
X120750000Y-71450000D03*
X129996000Y-93596000D03*
X121732530Y-92949989D03*
X126200000Y-81000000D03*
X130200008Y-86600000D03*
X138931500Y-95668500D03*
X126200000Y-84000000D03*
X135600002Y-82200000D03*
X124600000Y-102600000D03*
X119200000Y-101400000D03*
X127000000Y-95000000D03*
X122800000Y-96800000D03*
X138000000Y-100000000D03*
X147500000Y-91100000D03*
X121200000Y-87400000D03*
X126800000Y-107000000D03*
X127200000Y-123800000D03*
X131000000Y-87600000D03*
X126000000Y-76200000D03*
X129000000Y-88600000D03*
X128600000Y-100725010D03*
X137200000Y-91200000D03*
X139400000Y-102400000D03*
X125732738Y-91074990D03*
X125732738Y-109200000D03*
X130200000Y-98000000D03*
X130325001Y-108074999D03*
X124600000Y-93600000D03*
X121800000Y-94200002D03*
X131800000Y-82600000D03*
X151800000Y-104000000D03*
X133397990Y-104136441D03*
X129200000Y-87000000D03*
X129600000Y-106800000D03*
X150600000Y-106400000D03*
X130400000Y-89800000D03*
X131400000Y-100400000D03*
X117600000Y-94200000D03*
X133000000Y-86075000D03*
X132200000Y-105600000D03*
X116000000Y-102200000D03*
X132000000Y-86400000D03*
X132000000Y-115400000D03*
X159412500Y-117437500D03*
X140400000Y-93600000D03*
X141000000Y-120400000D03*
X135400000Y-90200000D03*
X148000000Y-83200000D03*
X133675000Y-98000000D03*
X133600000Y-118600000D03*
X134800000Y-97600000D03*
X129510000Y-132000000D03*
X114400000Y-87600000D03*
X123600000Y-92800000D03*
X124600000Y-100800000D03*
X122800000Y-91400000D03*
X122800000Y-95400000D03*
X111200000Y-95400000D03*
X147400000Y-81800000D03*
X116000000Y-118600000D03*
X117000000Y-116000000D03*
D16*
X162914500Y-80485500D02*
X162348815Y-80485500D01*
X162138314Y-80274999D02*
X127074999Y-80274999D01*
X162348815Y-80485500D02*
X162138314Y-80274999D01*
X127074999Y-80274999D02*
X126400000Y-79600000D01*
X113090000Y-79600000D02*
X112080000Y-80610000D01*
X126400000Y-79600000D02*
X113090000Y-79600000D01*
X124600000Y-93600000D02*
X123999998Y-94200002D01*
X123999998Y-94200002D02*
X121800000Y-94200002D01*
X134261549Y-105000000D02*
X133397990Y-104136441D01*
X151800000Y-104000000D02*
X150800000Y-105000000D01*
X150800000Y-105000000D02*
X134261549Y-105000000D01*
X129600000Y-106800000D02*
X150200000Y-106800000D01*
X150200000Y-106800000D02*
X150600000Y-106400000D01*
X131000000Y-100000000D02*
X131400000Y-100400000D01*
X118000000Y-100000000D02*
X131000000Y-100000000D01*
X117600000Y-94200000D02*
X117600000Y-99600000D01*
X117600000Y-99600000D02*
X118000000Y-100000000D01*
X116000000Y-102800000D02*
X116000000Y-102200000D01*
X116200000Y-103000000D02*
X116000000Y-102800000D01*
X123800000Y-103000000D02*
X116200000Y-103000000D01*
X131800000Y-106000000D02*
X125600000Y-106000000D01*
X132200000Y-105600000D02*
X131800000Y-106000000D01*
X125600000Y-106000000D02*
X124600000Y-105000000D01*
X124600000Y-105000000D02*
X124600000Y-103800000D01*
X124600000Y-103800000D02*
X123800000Y-103000000D01*
X132000000Y-115400000D02*
X157000000Y-115400000D01*
X157000000Y-115400000D02*
X159000000Y-117400000D01*
X159000000Y-117400000D02*
X159375000Y-117400000D01*
X159375000Y-117400000D02*
X159412500Y-117437500D01*
D17*
X109790000Y-61400000D02*
X109079999Y-62110001D01*
X115400000Y-63200000D02*
X113600000Y-61400000D01*
X109079999Y-62110001D02*
X108080000Y-63110000D01*
X113600000Y-61400000D02*
X109790000Y-61400000D01*
X133600000Y-77400000D02*
X133600000Y-68400000D01*
X133600000Y-68400000D02*
X128400000Y-63200000D01*
X128400000Y-63200000D02*
X115400000Y-63200000D01*
D18*
G36*
X122815000Y-81851939D02*
G01*
X122854774Y-82051898D01*
X122932795Y-82240256D01*
X123046063Y-82409774D01*
X123190226Y-82553937D01*
X123359744Y-82667205D01*
X123548102Y-82745226D01*
X123748061Y-82785000D01*
X123951939Y-82785000D01*
X124151898Y-82745226D01*
X124340256Y-82667205D01*
X124509774Y-82553937D01*
X124653937Y-82409774D01*
X124767205Y-82240256D01*
X124845226Y-82051898D01*
X124885000Y-81851939D01*
X124885000Y-81727000D01*
X125463289Y-81727000D01*
X125540226Y-81803937D01*
X125709744Y-81917205D01*
X125898102Y-81995226D01*
X126098061Y-82035000D01*
X126301939Y-82035000D01*
X126501898Y-81995226D01*
X126690256Y-81917205D01*
X126859774Y-81803937D01*
X126936711Y-81727000D01*
X128409289Y-81727000D01*
X128383563Y-81752726D01*
X128270295Y-81922244D01*
X128192274Y-82110602D01*
X128152500Y-82310561D01*
X128152500Y-82514439D01*
X128192274Y-82714398D01*
X128270295Y-82902756D01*
X128383563Y-83072274D01*
X128527726Y-83216437D01*
X128697244Y-83329705D01*
X128885602Y-83407726D01*
X129085561Y-83447500D01*
X129289439Y-83447500D01*
X129489398Y-83407726D01*
X129677756Y-83329705D01*
X129847274Y-83216437D01*
X129991437Y-83072274D01*
X130104705Y-82902756D01*
X130182726Y-82714398D01*
X130222500Y-82514439D01*
X130222500Y-82310561D01*
X130182726Y-82110602D01*
X130104705Y-81922244D01*
X129991437Y-81752726D01*
X129965711Y-81727000D01*
X131243586Y-81727000D01*
X131140226Y-81796063D01*
X130996063Y-81940226D01*
X130882795Y-82109744D01*
X130804774Y-82298102D01*
X130765000Y-82498061D01*
X130765000Y-82701939D01*
X130804774Y-82901898D01*
X130882795Y-83090256D01*
X130996063Y-83259774D01*
X131140226Y-83403937D01*
X131309744Y-83517205D01*
X131498102Y-83595226D01*
X131698061Y-83635000D01*
X131901939Y-83635000D01*
X132101898Y-83595226D01*
X132290256Y-83517205D01*
X132459774Y-83403937D01*
X132603937Y-83259774D01*
X132717205Y-83090256D01*
X132795226Y-82901898D01*
X132835000Y-82701939D01*
X132835000Y-82498061D01*
X132795226Y-82298102D01*
X132717205Y-82109744D01*
X132603937Y-81940226D01*
X132459774Y-81796063D01*
X132356414Y-81727000D01*
X138275649Y-81727000D01*
X138204776Y-81898102D01*
X138165002Y-82098061D01*
X138165002Y-82301939D01*
X138204776Y-82501898D01*
X138282797Y-82690256D01*
X138396065Y-82859774D01*
X138540228Y-83003937D01*
X138709746Y-83117205D01*
X138898104Y-83195226D01*
X139098063Y-83235000D01*
X139301941Y-83235000D01*
X139501900Y-83195226D01*
X139690258Y-83117205D01*
X139859776Y-83003937D01*
X140003939Y-82859774D01*
X140117207Y-82690256D01*
X140195228Y-82501898D01*
X140235002Y-82301939D01*
X140235002Y-82098061D01*
X140195228Y-81898102D01*
X140124355Y-81727000D01*
X146365000Y-81727000D01*
X146365000Y-81901939D01*
X146404774Y-82101898D01*
X146482795Y-82290256D01*
X146596063Y-82459774D01*
X146740226Y-82603937D01*
X146909744Y-82717205D01*
X147054814Y-82777295D01*
X147004774Y-82898102D01*
X146965000Y-83098061D01*
X146965000Y-83301939D01*
X147004774Y-83501898D01*
X147082795Y-83690256D01*
X147196063Y-83859774D01*
X147340226Y-84003937D01*
X147509744Y-84117205D01*
X147698102Y-84195226D01*
X147898061Y-84235000D01*
X148101939Y-84235000D01*
X148301898Y-84195226D01*
X148490256Y-84117205D01*
X148659774Y-84003937D01*
X148803937Y-83859774D01*
X148917205Y-83690256D01*
X148995226Y-83501898D01*
X149035000Y-83301939D01*
X149035000Y-83098061D01*
X148995226Y-82898102D01*
X148917205Y-82709744D01*
X148803937Y-82540226D01*
X148659774Y-82396063D01*
X148490256Y-82282795D01*
X148345186Y-82222705D01*
X148395226Y-82101898D01*
X148435000Y-81901939D01*
X148435000Y-81727000D01*
X151673000Y-81727000D01*
X151673000Y-94200000D01*
X151675440Y-94224776D01*
X151682667Y-94248601D01*
X151694403Y-94270557D01*
X151710197Y-94289803D01*
X151729443Y-94305597D01*
X151751399Y-94317333D01*
X151775224Y-94324560D01*
X151800000Y-94327000D01*
X156073000Y-94327000D01*
X156073000Y-102415172D01*
X155909744Y-102482795D01*
X155740226Y-102596063D01*
X155596063Y-102740226D01*
X155482795Y-102909744D01*
X155404774Y-103098102D01*
X155369985Y-103273000D01*
X152536711Y-103273000D01*
X152459774Y-103196063D01*
X152290256Y-103082795D01*
X152101898Y-103004774D01*
X151901939Y-102965000D01*
X151698061Y-102965000D01*
X151498102Y-103004774D01*
X151309744Y-103082795D01*
X151140226Y-103196063D01*
X151063289Y-103273000D01*
X140400000Y-103273000D01*
X140375224Y-103275440D01*
X140351399Y-103282667D01*
X140329443Y-103294403D01*
X140310197Y-103310197D01*
X140294403Y-103329443D01*
X140282667Y-103351399D01*
X140275440Y-103375224D01*
X140273000Y-103400000D01*
X140273000Y-103873000D01*
X134400866Y-103873000D01*
X134393216Y-103834543D01*
X134315195Y-103646185D01*
X134201927Y-103476667D01*
X134057764Y-103332504D01*
X133888246Y-103219236D01*
X133699888Y-103141215D01*
X133499929Y-103101441D01*
X133296051Y-103101441D01*
X133096092Y-103141215D01*
X132907734Y-103219236D01*
X132738216Y-103332504D01*
X132594053Y-103476667D01*
X132480785Y-103646185D01*
X132402764Y-103834543D01*
X132395114Y-103873000D01*
X125360000Y-103873000D01*
X125360000Y-103837323D01*
X125363676Y-103800000D01*
X125360000Y-103762677D01*
X125360000Y-103762667D01*
X125349003Y-103651014D01*
X125305546Y-103507753D01*
X125234974Y-103375724D01*
X125140001Y-103259999D01*
X125111002Y-103236201D01*
X124363803Y-102489002D01*
X124340001Y-102459999D01*
X124224276Y-102365026D01*
X124098996Y-102298061D01*
X138365000Y-102298061D01*
X138365000Y-102501939D01*
X138404774Y-102701898D01*
X138482795Y-102890256D01*
X138596063Y-103059774D01*
X138740226Y-103203937D01*
X138909744Y-103317205D01*
X139098102Y-103395226D01*
X139298061Y-103435000D01*
X139501939Y-103435000D01*
X139701898Y-103395226D01*
X139890256Y-103317205D01*
X140059774Y-103203937D01*
X140203937Y-103059774D01*
X140317205Y-102890256D01*
X140395226Y-102701898D01*
X140435000Y-102501939D01*
X140435000Y-102298061D01*
X140395226Y-102098102D01*
X140317205Y-101909744D01*
X140203937Y-101740226D01*
X140059774Y-101596063D01*
X139890256Y-101482795D01*
X139701898Y-101404774D01*
X139501939Y-101365000D01*
X139298061Y-101365000D01*
X139098102Y-101404774D01*
X138909744Y-101482795D01*
X138740226Y-101596063D01*
X138596063Y-101740226D01*
X138482795Y-101909744D01*
X138404774Y-102098102D01*
X138365000Y-102298061D01*
X124098996Y-102298061D01*
X124092247Y-102294454D01*
X123948986Y-102250997D01*
X123837333Y-102240000D01*
X123837322Y-102240000D01*
X123800000Y-102236324D01*
X123762678Y-102240000D01*
X117035000Y-102240000D01*
X117035000Y-102098061D01*
X116995226Y-101898102D01*
X116917205Y-101709744D01*
X116803937Y-101540226D01*
X116659774Y-101396063D01*
X116490256Y-101282795D01*
X116301898Y-101204774D01*
X116101939Y-101165000D01*
X115898061Y-101165000D01*
X115698102Y-101204774D01*
X115509744Y-101282795D01*
X115340226Y-101396063D01*
X115196063Y-101540226D01*
X115082795Y-101709744D01*
X115004774Y-101898102D01*
X114965000Y-102098061D01*
X114965000Y-102301939D01*
X115004774Y-102501898D01*
X115082795Y-102690256D01*
X115196063Y-102859774D01*
X115247252Y-102910963D01*
X115250997Y-102948985D01*
X115284604Y-103059774D01*
X115294454Y-103092246D01*
X115365026Y-103224276D01*
X115404871Y-103272826D01*
X115459999Y-103340001D01*
X115489003Y-103363804D01*
X115636196Y-103510997D01*
X115659999Y-103540001D01*
X115775724Y-103634974D01*
X115907753Y-103705546D01*
X116051014Y-103749003D01*
X116162667Y-103760000D01*
X116162675Y-103760000D01*
X116200000Y-103763676D01*
X116237325Y-103760000D01*
X123485199Y-103760000D01*
X123598199Y-103873000D01*
X113127000Y-103873000D01*
X113127000Y-95527000D01*
X116840000Y-95527000D01*
X116840001Y-99562668D01*
X116836324Y-99600000D01*
X116850998Y-99748985D01*
X116894454Y-99892246D01*
X116965026Y-100024276D01*
X117033535Y-100107753D01*
X117060000Y-100140001D01*
X117088998Y-100163799D01*
X117436200Y-100511002D01*
X117459999Y-100540001D01*
X117575724Y-100634974D01*
X117707753Y-100705546D01*
X117851014Y-100749003D01*
X117962667Y-100760000D01*
X117962676Y-100760000D01*
X117999999Y-100763676D01*
X118037322Y-100760000D01*
X123565000Y-100760000D01*
X123565000Y-100901939D01*
X123604774Y-101101898D01*
X123682795Y-101290256D01*
X123796063Y-101459774D01*
X123940226Y-101603937D01*
X124109744Y-101717205D01*
X124298102Y-101795226D01*
X124498061Y-101835000D01*
X124701939Y-101835000D01*
X124901898Y-101795226D01*
X125090256Y-101717205D01*
X125259774Y-101603937D01*
X125403937Y-101459774D01*
X125517205Y-101290256D01*
X125595226Y-101101898D01*
X125635000Y-100901939D01*
X125635000Y-100760000D01*
X127565000Y-100760000D01*
X127565000Y-100826949D01*
X127604774Y-101026908D01*
X127682795Y-101215266D01*
X127796063Y-101384784D01*
X127940226Y-101528947D01*
X128109744Y-101642215D01*
X128298102Y-101720236D01*
X128498061Y-101760010D01*
X128701939Y-101760010D01*
X128901898Y-101720236D01*
X129090256Y-101642215D01*
X129259774Y-101528947D01*
X129403937Y-101384784D01*
X129517205Y-101215266D01*
X129595226Y-101026908D01*
X129635000Y-100826949D01*
X129635000Y-100760000D01*
X130428841Y-100760000D01*
X130482795Y-100890256D01*
X130596063Y-101059774D01*
X130740226Y-101203937D01*
X130909744Y-101317205D01*
X131098102Y-101395226D01*
X131298061Y-101435000D01*
X131501939Y-101435000D01*
X131701898Y-101395226D01*
X131890256Y-101317205D01*
X132059774Y-101203937D01*
X132203937Y-101059774D01*
X132317205Y-100890256D01*
X132395226Y-100701898D01*
X132435000Y-100501939D01*
X132435000Y-100298061D01*
X132395226Y-100098102D01*
X132317205Y-99909744D01*
X132309733Y-99898561D01*
X135165500Y-99898561D01*
X135165500Y-100102439D01*
X135205274Y-100302398D01*
X135283295Y-100490756D01*
X135396563Y-100660274D01*
X135540726Y-100804437D01*
X135710244Y-100917705D01*
X135898602Y-100995726D01*
X136098561Y-101035500D01*
X136302439Y-101035500D01*
X136502398Y-100995726D01*
X136690756Y-100917705D01*
X136860274Y-100804437D01*
X137004437Y-100660274D01*
X137117705Y-100490756D01*
X137195726Y-100302398D01*
X137235500Y-100102439D01*
X137235500Y-99898561D01*
X137195726Y-99698602D01*
X137117705Y-99510244D01*
X137004437Y-99340726D01*
X136860274Y-99196563D01*
X136690756Y-99083295D01*
X136502398Y-99005274D01*
X136302439Y-98965500D01*
X136098561Y-98965500D01*
X135898602Y-99005274D01*
X135710244Y-99083295D01*
X135540726Y-99196563D01*
X135396563Y-99340726D01*
X135283295Y-99510244D01*
X135205274Y-99698602D01*
X135165500Y-99898561D01*
X132309733Y-99898561D01*
X132203937Y-99740226D01*
X132059774Y-99596063D01*
X131890256Y-99482795D01*
X131701898Y-99404774D01*
X131501939Y-99365000D01*
X131424227Y-99365000D01*
X131292247Y-99294454D01*
X131148986Y-99250997D01*
X131037333Y-99240000D01*
X131037322Y-99240000D01*
X131000000Y-99236324D01*
X130962678Y-99240000D01*
X128617150Y-99240000D01*
X128717205Y-99090256D01*
X128795226Y-98901898D01*
X128835000Y-98701939D01*
X128835000Y-98498061D01*
X128795226Y-98298102D01*
X128717205Y-98109744D01*
X128603937Y-97940226D01*
X128561772Y-97898061D01*
X129165000Y-97898061D01*
X129165000Y-98101939D01*
X129204774Y-98301898D01*
X129282795Y-98490256D01*
X129396063Y-98659774D01*
X129540226Y-98803937D01*
X129709744Y-98917205D01*
X129898102Y-98995226D01*
X130098061Y-99035000D01*
X130301939Y-99035000D01*
X130501898Y-98995226D01*
X130690256Y-98917205D01*
X130859774Y-98803937D01*
X131003937Y-98659774D01*
X131117205Y-98490256D01*
X131195226Y-98301898D01*
X131235000Y-98101939D01*
X131235000Y-97898061D01*
X132640000Y-97898061D01*
X132640000Y-98101939D01*
X132679774Y-98301898D01*
X132757795Y-98490256D01*
X132871063Y-98659774D01*
X133015226Y-98803937D01*
X133184744Y-98917205D01*
X133373102Y-98995226D01*
X133573061Y-99035000D01*
X133776939Y-99035000D01*
X133976898Y-98995226D01*
X134165256Y-98917205D01*
X134334774Y-98803937D01*
X134478937Y-98659774D01*
X134519255Y-98599434D01*
X134698061Y-98635000D01*
X134901939Y-98635000D01*
X135101898Y-98595226D01*
X135290256Y-98517205D01*
X135459774Y-98403937D01*
X135603937Y-98259774D01*
X135717205Y-98090256D01*
X135795226Y-97901898D01*
X135835000Y-97701939D01*
X135835000Y-97498061D01*
X135795226Y-97298102D01*
X135717205Y-97109744D01*
X135603937Y-96940226D01*
X135459774Y-96796063D01*
X135290256Y-96682795D01*
X135101898Y-96604774D01*
X134901939Y-96565000D01*
X134698061Y-96565000D01*
X134498102Y-96604774D01*
X134309744Y-96682795D01*
X134140226Y-96796063D01*
X133996063Y-96940226D01*
X133955745Y-97000566D01*
X133776939Y-96965000D01*
X133573061Y-96965000D01*
X133373102Y-97004774D01*
X133184744Y-97082795D01*
X133015226Y-97196063D01*
X132871063Y-97340226D01*
X132757795Y-97509744D01*
X132679774Y-97698102D01*
X132640000Y-97898061D01*
X131235000Y-97898061D01*
X131195226Y-97698102D01*
X131117205Y-97509744D01*
X131003937Y-97340226D01*
X130859774Y-97196063D01*
X130690256Y-97082795D01*
X130501898Y-97004774D01*
X130301939Y-96965000D01*
X130098061Y-96965000D01*
X129898102Y-97004774D01*
X129709744Y-97082795D01*
X129540226Y-97196063D01*
X129396063Y-97340226D01*
X129282795Y-97509744D01*
X129204774Y-97698102D01*
X129165000Y-97898061D01*
X128561772Y-97898061D01*
X128459774Y-97796063D01*
X128290256Y-97682795D01*
X128101898Y-97604774D01*
X127901939Y-97565000D01*
X127698061Y-97565000D01*
X127498102Y-97604774D01*
X127309744Y-97682795D01*
X127140226Y-97796063D01*
X126996063Y-97940226D01*
X126882795Y-98109744D01*
X126804774Y-98298102D01*
X126765000Y-98498061D01*
X126765000Y-98701939D01*
X126804774Y-98901898D01*
X126882795Y-99090256D01*
X126982850Y-99240000D01*
X123617150Y-99240000D01*
X123717205Y-99090256D01*
X123795226Y-98901898D01*
X123835000Y-98701939D01*
X123835000Y-98498061D01*
X123795226Y-98298102D01*
X123717205Y-98109744D01*
X123603937Y-97940226D01*
X123459774Y-97796063D01*
X123290256Y-97682795D01*
X123101898Y-97604774D01*
X122901939Y-97565000D01*
X122698061Y-97565000D01*
X122498102Y-97604774D01*
X122309744Y-97682795D01*
X122140226Y-97796063D01*
X121996063Y-97940226D01*
X121882795Y-98109744D01*
X121804774Y-98298102D01*
X121765000Y-98498061D01*
X121765000Y-98701939D01*
X121804774Y-98901898D01*
X121882795Y-99090256D01*
X121982850Y-99240000D01*
X118360000Y-99240000D01*
X118360000Y-94903711D01*
X118403937Y-94859774D01*
X118517205Y-94690256D01*
X118595226Y-94501898D01*
X118635000Y-94301939D01*
X118635000Y-94098061D01*
X118595226Y-93898102D01*
X118517205Y-93709744D01*
X118403937Y-93540226D01*
X118259774Y-93396063D01*
X118090256Y-93282795D01*
X117901898Y-93204774D01*
X117701939Y-93165000D01*
X117527000Y-93165000D01*
X117527000Y-92848050D01*
X120697530Y-92848050D01*
X120697530Y-93051928D01*
X120737304Y-93251887D01*
X120815325Y-93440245D01*
X120928593Y-93609763D01*
X120941187Y-93622357D01*
X120882795Y-93709746D01*
X120804774Y-93898104D01*
X120765000Y-94098063D01*
X120765000Y-94301941D01*
X120804774Y-94501900D01*
X120882795Y-94690258D01*
X120996063Y-94859776D01*
X121140226Y-95003939D01*
X121309744Y-95117207D01*
X121498102Y-95195228D01*
X121698061Y-95235002D01*
X121777543Y-95235002D01*
X121765000Y-95298061D01*
X121765000Y-95501939D01*
X121804774Y-95701898D01*
X121882795Y-95890256D01*
X121996063Y-96059774D01*
X122140226Y-96203937D01*
X122309744Y-96317205D01*
X122498102Y-96395226D01*
X122698061Y-96435000D01*
X122901939Y-96435000D01*
X123101898Y-96395226D01*
X123290256Y-96317205D01*
X123459774Y-96203937D01*
X123509971Y-96153740D01*
X141555000Y-96153740D01*
X141555000Y-96446260D01*
X141612068Y-96733158D01*
X141724010Y-97003411D01*
X141886525Y-97246632D01*
X142093368Y-97453475D01*
X142267760Y-97570000D01*
X142093368Y-97686525D01*
X141886525Y-97893368D01*
X141724010Y-98136589D01*
X141612068Y-98406842D01*
X141555000Y-98693740D01*
X141555000Y-98986260D01*
X141612068Y-99273158D01*
X141724010Y-99543411D01*
X141886525Y-99786632D01*
X142093368Y-99993475D01*
X142336589Y-100155990D01*
X142606842Y-100267932D01*
X142893740Y-100325000D01*
X143186260Y-100325000D01*
X143473158Y-100267932D01*
X143743411Y-100155990D01*
X143986632Y-99993475D01*
X144193475Y-99786632D01*
X144310000Y-99612240D01*
X144426525Y-99786632D01*
X144633368Y-99993475D01*
X144876589Y-100155990D01*
X145146842Y-100267932D01*
X145433740Y-100325000D01*
X145726260Y-100325000D01*
X146013158Y-100267932D01*
X146283411Y-100155990D01*
X146526632Y-99993475D01*
X146733475Y-99786632D01*
X146850000Y-99612240D01*
X146966525Y-99786632D01*
X147173368Y-99993475D01*
X147416589Y-100155990D01*
X147686842Y-100267932D01*
X147973740Y-100325000D01*
X148266260Y-100325000D01*
X148553158Y-100267932D01*
X148823411Y-100155990D01*
X149066632Y-99993475D01*
X149273475Y-99786632D01*
X149390000Y-99612240D01*
X149506525Y-99786632D01*
X149713368Y-99993475D01*
X149956589Y-100155990D01*
X150226842Y-100267932D01*
X150513740Y-100325000D01*
X150806260Y-100325000D01*
X151093158Y-100267932D01*
X151363411Y-100155990D01*
X151606632Y-99993475D01*
X151813475Y-99786632D01*
X151930000Y-99612240D01*
X152046525Y-99786632D01*
X152253368Y-99993475D01*
X152496589Y-100155990D01*
X152766842Y-100267932D01*
X153053740Y-100325000D01*
X153346260Y-100325000D01*
X153633158Y-100267932D01*
X153903411Y-100155990D01*
X154146632Y-99993475D01*
X154353475Y-99786632D01*
X154515990Y-99543411D01*
X154627932Y-99273158D01*
X154685000Y-98986260D01*
X154685000Y-98693740D01*
X154627932Y-98406842D01*
X154515990Y-98136589D01*
X154353475Y-97893368D01*
X154221620Y-97761513D01*
X154294180Y-97739502D01*
X154404494Y-97680537D01*
X154501185Y-97601185D01*
X154580537Y-97504494D01*
X154639502Y-97394180D01*
X154675812Y-97274482D01*
X154688072Y-97150000D01*
X154685000Y-96585750D01*
X154526250Y-96427000D01*
X153327000Y-96427000D01*
X153327000Y-96447000D01*
X153073000Y-96447000D01*
X153073000Y-96427000D01*
X153053000Y-96427000D01*
X153053000Y-96173000D01*
X153073000Y-96173000D01*
X153073000Y-94973750D01*
X153327000Y-94973750D01*
X153327000Y-96173000D01*
X154526250Y-96173000D01*
X154685000Y-96014250D01*
X154688072Y-95450000D01*
X154675812Y-95325518D01*
X154639502Y-95205820D01*
X154580537Y-95095506D01*
X154501185Y-94998815D01*
X154404494Y-94919463D01*
X154294180Y-94860498D01*
X154174482Y-94824188D01*
X154050000Y-94811928D01*
X153485750Y-94815000D01*
X153327000Y-94973750D01*
X153073000Y-94973750D01*
X152914250Y-94815000D01*
X152350000Y-94811928D01*
X152225518Y-94824188D01*
X152105820Y-94860498D01*
X151995506Y-94919463D01*
X151898815Y-94998815D01*
X151819463Y-95095506D01*
X151760498Y-95205820D01*
X151738487Y-95278380D01*
X151606632Y-95146525D01*
X151363411Y-94984010D01*
X151093158Y-94872068D01*
X150806260Y-94815000D01*
X150513740Y-94815000D01*
X150226842Y-94872068D01*
X149956589Y-94984010D01*
X149713368Y-95146525D01*
X149506525Y-95353368D01*
X149390000Y-95527760D01*
X149273475Y-95353368D01*
X149066632Y-95146525D01*
X148823411Y-94984010D01*
X148553158Y-94872068D01*
X148266260Y-94815000D01*
X147973740Y-94815000D01*
X147686842Y-94872068D01*
X147416589Y-94984010D01*
X147173368Y-95146525D01*
X146966525Y-95353368D01*
X146850000Y-95527760D01*
X146733475Y-95353368D01*
X146526632Y-95146525D01*
X146283411Y-94984010D01*
X146013158Y-94872068D01*
X145726260Y-94815000D01*
X145433740Y-94815000D01*
X145146842Y-94872068D01*
X144876589Y-94984010D01*
X144633368Y-95146525D01*
X144426525Y-95353368D01*
X144310000Y-95527760D01*
X144193475Y-95353368D01*
X143986632Y-95146525D01*
X143743411Y-94984010D01*
X143473158Y-94872068D01*
X143186260Y-94815000D01*
X142893740Y-94815000D01*
X142606842Y-94872068D01*
X142336589Y-94984010D01*
X142093368Y-95146525D01*
X141886525Y-95353368D01*
X141724010Y-95596589D01*
X141612068Y-95866842D01*
X141555000Y-96153740D01*
X123509971Y-96153740D01*
X123603937Y-96059774D01*
X123717205Y-95890256D01*
X123795226Y-95701898D01*
X123835000Y-95501939D01*
X123835000Y-95298061D01*
X123795226Y-95098102D01*
X123738023Y-94960002D01*
X123962676Y-94960002D01*
X123999998Y-94963678D01*
X124037320Y-94960002D01*
X124037331Y-94960002D01*
X124148984Y-94949005D01*
X124292245Y-94905548D01*
X124424274Y-94834976D01*
X124539999Y-94740003D01*
X124563801Y-94711000D01*
X124639801Y-94635000D01*
X124701939Y-94635000D01*
X124901898Y-94595226D01*
X125090256Y-94517205D01*
X125259774Y-94403937D01*
X125403937Y-94259774D01*
X125517205Y-94090256D01*
X125595226Y-93901898D01*
X125635000Y-93701939D01*
X125635000Y-93498061D01*
X125634205Y-93494061D01*
X128961000Y-93494061D01*
X128961000Y-93697939D01*
X129000774Y-93897898D01*
X129078795Y-94086256D01*
X129192063Y-94255774D01*
X129336226Y-94399937D01*
X129505744Y-94513205D01*
X129694102Y-94591226D01*
X129894061Y-94631000D01*
X130097939Y-94631000D01*
X130297898Y-94591226D01*
X130486256Y-94513205D01*
X130655774Y-94399937D01*
X130757650Y-94298061D01*
X134765000Y-94298061D01*
X134765000Y-94501939D01*
X134804774Y-94701898D01*
X134882795Y-94890256D01*
X134996063Y-95059774D01*
X135140226Y-95203937D01*
X135309744Y-95317205D01*
X135498102Y-95395226D01*
X135698061Y-95435000D01*
X135901939Y-95435000D01*
X136101898Y-95395226D01*
X136290256Y-95317205D01*
X136459774Y-95203937D01*
X136603937Y-95059774D01*
X136717205Y-94890256D01*
X136795226Y-94701898D01*
X136835000Y-94501939D01*
X136835000Y-94298061D01*
X136795226Y-94098102D01*
X136717205Y-93909744D01*
X136603937Y-93740226D01*
X136459774Y-93596063D01*
X136313104Y-93498061D01*
X139365000Y-93498061D01*
X139365000Y-93701939D01*
X139404774Y-93901898D01*
X139482795Y-94090256D01*
X139596063Y-94259774D01*
X139740226Y-94403937D01*
X139909744Y-94517205D01*
X140098102Y-94595226D01*
X140298061Y-94635000D01*
X140501939Y-94635000D01*
X140701898Y-94595226D01*
X140890256Y-94517205D01*
X141059774Y-94403937D01*
X141203937Y-94259774D01*
X141317205Y-94090256D01*
X141395226Y-93901898D01*
X141435000Y-93701939D01*
X141435000Y-93498061D01*
X141395226Y-93298102D01*
X141317205Y-93109744D01*
X141203937Y-92940226D01*
X141059774Y-92796063D01*
X140890256Y-92682795D01*
X140701898Y-92604774D01*
X140501939Y-92565000D01*
X140298061Y-92565000D01*
X140098102Y-92604774D01*
X139909744Y-92682795D01*
X139740226Y-92796063D01*
X139596063Y-92940226D01*
X139482795Y-93109744D01*
X139404774Y-93298102D01*
X139365000Y-93498061D01*
X136313104Y-93498061D01*
X136290256Y-93482795D01*
X136101898Y-93404774D01*
X135901939Y-93365000D01*
X135698061Y-93365000D01*
X135498102Y-93404774D01*
X135309744Y-93482795D01*
X135140226Y-93596063D01*
X134996063Y-93740226D01*
X134882795Y-93909744D01*
X134804774Y-94098102D01*
X134765000Y-94298061D01*
X130757650Y-94298061D01*
X130799937Y-94255774D01*
X130913205Y-94086256D01*
X130991226Y-93897898D01*
X131031000Y-93697939D01*
X131031000Y-93494061D01*
X130991226Y-93294102D01*
X130913205Y-93105744D01*
X130799937Y-92936226D01*
X130655774Y-92792063D01*
X130486256Y-92678795D01*
X130297898Y-92600774D01*
X130097939Y-92561000D01*
X129894061Y-92561000D01*
X129694102Y-92600774D01*
X129505744Y-92678795D01*
X129336226Y-92792063D01*
X129192063Y-92936226D01*
X129078795Y-93105744D01*
X129000774Y-93294102D01*
X128961000Y-93494061D01*
X125634205Y-93494061D01*
X125595226Y-93298102D01*
X125517205Y-93109744D01*
X125403937Y-92940226D01*
X125259774Y-92796063D01*
X125090256Y-92682795D01*
X124901898Y-92604774D01*
X124701939Y-92565000D01*
X124608533Y-92565000D01*
X124595226Y-92498102D01*
X124595210Y-92498061D01*
X144365000Y-92498061D01*
X144365000Y-92701939D01*
X144404774Y-92901898D01*
X144482795Y-93090256D01*
X144596063Y-93259774D01*
X144740226Y-93403937D01*
X144909744Y-93517205D01*
X145098102Y-93595226D01*
X145298061Y-93635000D01*
X145501939Y-93635000D01*
X145701898Y-93595226D01*
X145890256Y-93517205D01*
X146059774Y-93403937D01*
X146203937Y-93259774D01*
X146317205Y-93090256D01*
X146395226Y-92901898D01*
X146435000Y-92701939D01*
X146435000Y-92498061D01*
X146395226Y-92298102D01*
X146317205Y-92109744D01*
X146203937Y-91940226D01*
X146059774Y-91796063D01*
X145890256Y-91682795D01*
X145701898Y-91604774D01*
X145501939Y-91565000D01*
X145298061Y-91565000D01*
X145098102Y-91604774D01*
X144909744Y-91682795D01*
X144740226Y-91796063D01*
X144596063Y-91940226D01*
X144482795Y-92109744D01*
X144404774Y-92298102D01*
X144365000Y-92498061D01*
X124595210Y-92498061D01*
X124517205Y-92309744D01*
X124403937Y-92140226D01*
X124259774Y-91996063D01*
X124090256Y-91882795D01*
X123901898Y-91804774D01*
X123763977Y-91777340D01*
X123795226Y-91701898D01*
X123835000Y-91501939D01*
X123835000Y-91298061D01*
X123795226Y-91098102D01*
X123743428Y-90973051D01*
X124697738Y-90973051D01*
X124697738Y-91176929D01*
X124737512Y-91376888D01*
X124815533Y-91565246D01*
X124928801Y-91734764D01*
X125072964Y-91878927D01*
X125242482Y-91992195D01*
X125430840Y-92070216D01*
X125630799Y-92109990D01*
X125834677Y-92109990D01*
X126034636Y-92070216D01*
X126222994Y-91992195D01*
X126392512Y-91878927D01*
X126536675Y-91734764D01*
X126649943Y-91565246D01*
X126727964Y-91376888D01*
X126767738Y-91176929D01*
X126767738Y-90973051D01*
X126727964Y-90773092D01*
X126649943Y-90584734D01*
X126536675Y-90415216D01*
X126392512Y-90271053D01*
X126222994Y-90157785D01*
X126034636Y-90079764D01*
X125834677Y-90039990D01*
X125630799Y-90039990D01*
X125430840Y-90079764D01*
X125242482Y-90157785D01*
X125072964Y-90271053D01*
X124928801Y-90415216D01*
X124815533Y-90584734D01*
X124737512Y-90773092D01*
X124697738Y-90973051D01*
X123743428Y-90973051D01*
X123717205Y-90909744D01*
X123603937Y-90740226D01*
X123459774Y-90596063D01*
X123290256Y-90482795D01*
X123101898Y-90404774D01*
X122901939Y-90365000D01*
X122698061Y-90365000D01*
X122498102Y-90404774D01*
X122309744Y-90482795D01*
X122140226Y-90596063D01*
X121996063Y-90740226D01*
X121882795Y-90909744D01*
X121804774Y-91098102D01*
X121765000Y-91298061D01*
X121765000Y-91501939D01*
X121804774Y-91701898D01*
X121882795Y-91890256D01*
X121909262Y-91929866D01*
X121834469Y-91914989D01*
X121630591Y-91914989D01*
X121430632Y-91954763D01*
X121242274Y-92032784D01*
X121072756Y-92146052D01*
X120928593Y-92290215D01*
X120815325Y-92459733D01*
X120737304Y-92648091D01*
X120697530Y-92848050D01*
X117527000Y-92848050D01*
X117527000Y-88698061D01*
X120365000Y-88698061D01*
X120365000Y-88901939D01*
X120404774Y-89101898D01*
X120482795Y-89290256D01*
X120596063Y-89459774D01*
X120740226Y-89603937D01*
X120909744Y-89717205D01*
X121098102Y-89795226D01*
X121298061Y-89835000D01*
X121501939Y-89835000D01*
X121701898Y-89795226D01*
X121890256Y-89717205D01*
X122059774Y-89603937D01*
X122203937Y-89459774D01*
X122317205Y-89290256D01*
X122395226Y-89101898D01*
X122435000Y-88901939D01*
X122435000Y-88698061D01*
X122395226Y-88498102D01*
X122395210Y-88498061D01*
X127965000Y-88498061D01*
X127965000Y-88701939D01*
X128004774Y-88901898D01*
X128082795Y-89090256D01*
X128196063Y-89259774D01*
X128340226Y-89403937D01*
X128509744Y-89517205D01*
X128698102Y-89595226D01*
X128898061Y-89635000D01*
X129101939Y-89635000D01*
X129301898Y-89595226D01*
X129392958Y-89557508D01*
X129365000Y-89698061D01*
X129365000Y-89901939D01*
X129404774Y-90101898D01*
X129482795Y-90290256D01*
X129596063Y-90459774D01*
X129740226Y-90603937D01*
X129909744Y-90717205D01*
X130098102Y-90795226D01*
X130298061Y-90835000D01*
X130501939Y-90835000D01*
X130701898Y-90795226D01*
X130890256Y-90717205D01*
X131059774Y-90603937D01*
X131203937Y-90459774D01*
X131317205Y-90290256D01*
X131395226Y-90101898D01*
X131395989Y-90098061D01*
X134365000Y-90098061D01*
X134365000Y-90301939D01*
X134404774Y-90501898D01*
X134482795Y-90690256D01*
X134596063Y-90859774D01*
X134740226Y-91003937D01*
X134909744Y-91117205D01*
X135098102Y-91195226D01*
X135298061Y-91235000D01*
X135501939Y-91235000D01*
X135701898Y-91195226D01*
X135890256Y-91117205D01*
X136059774Y-91003937D01*
X136203937Y-90859774D01*
X136247910Y-90793964D01*
X136204774Y-90898102D01*
X136165000Y-91098061D01*
X136165000Y-91301939D01*
X136204774Y-91501898D01*
X136282795Y-91690256D01*
X136396063Y-91859774D01*
X136540226Y-92003937D01*
X136709744Y-92117205D01*
X136898102Y-92195226D01*
X137098061Y-92235000D01*
X137301939Y-92235000D01*
X137501898Y-92195226D01*
X137690256Y-92117205D01*
X137859774Y-92003937D01*
X138003937Y-91859774D01*
X138117205Y-91690256D01*
X138195226Y-91501898D01*
X138235000Y-91301939D01*
X138235000Y-91098061D01*
X138195226Y-90898102D01*
X138117205Y-90709744D01*
X138003937Y-90540226D01*
X137859774Y-90396063D01*
X137690256Y-90282795D01*
X137501898Y-90204774D01*
X137301939Y-90165000D01*
X137098061Y-90165000D01*
X136898102Y-90204774D01*
X136709744Y-90282795D01*
X136540226Y-90396063D01*
X136396063Y-90540226D01*
X136352090Y-90606036D01*
X136395226Y-90501898D01*
X136435000Y-90301939D01*
X136435000Y-90098061D01*
X136395226Y-89898102D01*
X136317205Y-89709744D01*
X136203937Y-89540226D01*
X136059774Y-89396063D01*
X135890256Y-89282795D01*
X135701898Y-89204774D01*
X135501939Y-89165000D01*
X135298061Y-89165000D01*
X135098102Y-89204774D01*
X134909744Y-89282795D01*
X134740226Y-89396063D01*
X134596063Y-89540226D01*
X134482795Y-89709744D01*
X134404774Y-89898102D01*
X134365000Y-90098061D01*
X131395989Y-90098061D01*
X131435000Y-89901939D01*
X131435000Y-89698061D01*
X131395226Y-89498102D01*
X131317205Y-89309744D01*
X131203937Y-89140226D01*
X131059774Y-88996063D01*
X130890256Y-88882795D01*
X130701898Y-88804774D01*
X130501939Y-88765000D01*
X130298061Y-88765000D01*
X130098102Y-88804774D01*
X130007042Y-88842492D01*
X130035000Y-88701939D01*
X130035000Y-88498061D01*
X129995226Y-88298102D01*
X129917205Y-88109744D01*
X129803937Y-87940226D01*
X129744603Y-87880892D01*
X129859774Y-87803937D01*
X129965000Y-87698711D01*
X129965000Y-87701939D01*
X130004774Y-87901898D01*
X130082795Y-88090256D01*
X130196063Y-88259774D01*
X130340226Y-88403937D01*
X130509744Y-88517205D01*
X130698102Y-88595226D01*
X130898061Y-88635000D01*
X131101939Y-88635000D01*
X131301898Y-88595226D01*
X131490256Y-88517205D01*
X131659774Y-88403937D01*
X131803937Y-88259774D01*
X131917205Y-88090256D01*
X131995226Y-87901898D01*
X132035000Y-87701939D01*
X132035000Y-87498061D01*
X132022456Y-87435000D01*
X132101939Y-87435000D01*
X132301898Y-87395226D01*
X132490256Y-87317205D01*
X132659774Y-87203937D01*
X132777660Y-87086051D01*
X132898061Y-87110000D01*
X133101939Y-87110000D01*
X133301898Y-87070226D01*
X133490256Y-86992205D01*
X133659774Y-86878937D01*
X133803937Y-86734774D01*
X133917205Y-86565256D01*
X133995226Y-86376898D01*
X134035000Y-86176939D01*
X134035000Y-85973061D01*
X133995226Y-85773102D01*
X133917205Y-85584744D01*
X133803937Y-85415226D01*
X133659774Y-85271063D01*
X133490256Y-85157795D01*
X133301898Y-85079774D01*
X133101939Y-85040000D01*
X132898061Y-85040000D01*
X132698102Y-85079774D01*
X132509744Y-85157795D01*
X132340226Y-85271063D01*
X132222340Y-85388949D01*
X132101939Y-85365000D01*
X131898061Y-85365000D01*
X131698102Y-85404774D01*
X131509744Y-85482795D01*
X131340226Y-85596063D01*
X131196063Y-85740226D01*
X131082795Y-85909744D01*
X131044826Y-86001409D01*
X131003945Y-85940226D01*
X130859782Y-85796063D01*
X130690264Y-85682795D01*
X130501906Y-85604774D01*
X130301947Y-85565000D01*
X130098069Y-85565000D01*
X129898110Y-85604774D01*
X129709752Y-85682795D01*
X129540234Y-85796063D01*
X129396071Y-85940226D01*
X129370416Y-85978621D01*
X129301939Y-85965000D01*
X129098061Y-85965000D01*
X128898102Y-86004774D01*
X128709744Y-86082795D01*
X128540226Y-86196063D01*
X128396063Y-86340226D01*
X128282795Y-86509744D01*
X128204774Y-86698102D01*
X128165000Y-86898061D01*
X128165000Y-87101939D01*
X128204774Y-87301898D01*
X128282795Y-87490256D01*
X128396063Y-87659774D01*
X128455397Y-87719108D01*
X128340226Y-87796063D01*
X128196063Y-87940226D01*
X128082795Y-88109744D01*
X128004774Y-88298102D01*
X127965000Y-88498061D01*
X122395210Y-88498061D01*
X122317205Y-88309744D01*
X122203937Y-88140226D01*
X122059774Y-87996063D01*
X121890256Y-87882795D01*
X121701898Y-87804774D01*
X121501939Y-87765000D01*
X121298061Y-87765000D01*
X121098102Y-87804774D01*
X120909744Y-87882795D01*
X120740226Y-87996063D01*
X120596063Y-88140226D01*
X120482795Y-88309744D01*
X120404774Y-88498102D01*
X120365000Y-88698061D01*
X117527000Y-88698061D01*
X117527000Y-84698061D01*
X143965000Y-84698061D01*
X143965000Y-84901939D01*
X144004774Y-85101898D01*
X144082795Y-85290256D01*
X144196063Y-85459774D01*
X144340226Y-85603937D01*
X144509744Y-85717205D01*
X144698102Y-85795226D01*
X144898061Y-85835000D01*
X145101939Y-85835000D01*
X145301898Y-85795226D01*
X145490256Y-85717205D01*
X145659774Y-85603937D01*
X145803937Y-85459774D01*
X145917205Y-85290256D01*
X145995226Y-85101898D01*
X146035000Y-84901939D01*
X146035000Y-84698061D01*
X145995226Y-84498102D01*
X145917205Y-84309744D01*
X145803937Y-84140226D01*
X145659774Y-83996063D01*
X145490256Y-83882795D01*
X145301898Y-83804774D01*
X145101939Y-83765000D01*
X144898061Y-83765000D01*
X144698102Y-83804774D01*
X144509744Y-83882795D01*
X144340226Y-83996063D01*
X144196063Y-84140226D01*
X144082795Y-84309744D01*
X144004774Y-84498102D01*
X143965000Y-84698061D01*
X117527000Y-84698061D01*
X117527000Y-81727000D01*
X122815000Y-81727000D01*
X122815000Y-81851939D01*
G37*
X122815000Y-81851939D02*
X122854774Y-82051898D01*
X122932795Y-82240256D01*
X123046063Y-82409774D01*
X123190226Y-82553937D01*
X123359744Y-82667205D01*
X123548102Y-82745226D01*
X123748061Y-82785000D01*
X123951939Y-82785000D01*
X124151898Y-82745226D01*
X124340256Y-82667205D01*
X124509774Y-82553937D01*
X124653937Y-82409774D01*
X124767205Y-82240256D01*
X124845226Y-82051898D01*
X124885000Y-81851939D01*
X124885000Y-81727000D01*
X125463289Y-81727000D01*
X125540226Y-81803937D01*
X125709744Y-81917205D01*
X125898102Y-81995226D01*
X126098061Y-82035000D01*
X126301939Y-82035000D01*
X126501898Y-81995226D01*
X126690256Y-81917205D01*
X126859774Y-81803937D01*
X126936711Y-81727000D01*
X128409289Y-81727000D01*
X128383563Y-81752726D01*
X128270295Y-81922244D01*
X128192274Y-82110602D01*
X128152500Y-82310561D01*
X128152500Y-82514439D01*
X128192274Y-82714398D01*
X128270295Y-82902756D01*
X128383563Y-83072274D01*
X128527726Y-83216437D01*
X128697244Y-83329705D01*
X128885602Y-83407726D01*
X129085561Y-83447500D01*
X129289439Y-83447500D01*
X129489398Y-83407726D01*
X129677756Y-83329705D01*
X129847274Y-83216437D01*
X129991437Y-83072274D01*
X130104705Y-82902756D01*
X130182726Y-82714398D01*
X130222500Y-82514439D01*
X130222500Y-82310561D01*
X130182726Y-82110602D01*
X130104705Y-81922244D01*
X129991437Y-81752726D01*
X129965711Y-81727000D01*
X131243586Y-81727000D01*
X131140226Y-81796063D01*
X130996063Y-81940226D01*
X130882795Y-82109744D01*
X130804774Y-82298102D01*
X130765000Y-82498061D01*
X130765000Y-82701939D01*
X130804774Y-82901898D01*
X130882795Y-83090256D01*
X130996063Y-83259774D01*
X131140226Y-83403937D01*
X131309744Y-83517205D01*
X131498102Y-83595226D01*
X131698061Y-83635000D01*
X131901939Y-83635000D01*
X132101898Y-83595226D01*
X132290256Y-83517205D01*
X132459774Y-83403937D01*
X132603937Y-83259774D01*
X132717205Y-83090256D01*
X132795226Y-82901898D01*
X132835000Y-82701939D01*
X132835000Y-82498061D01*
X132795226Y-82298102D01*
X132717205Y-82109744D01*
X132603937Y-81940226D01*
X132459774Y-81796063D01*
X132356414Y-81727000D01*
X138275649Y-81727000D01*
X138204776Y-81898102D01*
X138165002Y-82098061D01*
X138165002Y-82301939D01*
X138204776Y-82501898D01*
X138282797Y-82690256D01*
X138396065Y-82859774D01*
X138540228Y-83003937D01*
X138709746Y-83117205D01*
X138898104Y-83195226D01*
X139098063Y-83235000D01*
X139301941Y-83235000D01*
X139501900Y-83195226D01*
X139690258Y-83117205D01*
X139859776Y-83003937D01*
X140003939Y-82859774D01*
X140117207Y-82690256D01*
X140195228Y-82501898D01*
X140235002Y-82301939D01*
X140235002Y-82098061D01*
X140195228Y-81898102D01*
X140124355Y-81727000D01*
X146365000Y-81727000D01*
X146365000Y-81901939D01*
X146404774Y-82101898D01*
X146482795Y-82290256D01*
X146596063Y-82459774D01*
X146740226Y-82603937D01*
X146909744Y-82717205D01*
X147054814Y-82777295D01*
X147004774Y-82898102D01*
X146965000Y-83098061D01*
X146965000Y-83301939D01*
X147004774Y-83501898D01*
X147082795Y-83690256D01*
X147196063Y-83859774D01*
X147340226Y-84003937D01*
X147509744Y-84117205D01*
X147698102Y-84195226D01*
X147898061Y-84235000D01*
X148101939Y-84235000D01*
X148301898Y-84195226D01*
X148490256Y-84117205D01*
X148659774Y-84003937D01*
X148803937Y-83859774D01*
X148917205Y-83690256D01*
X148995226Y-83501898D01*
X149035000Y-83301939D01*
X149035000Y-83098061D01*
X148995226Y-82898102D01*
X148917205Y-82709744D01*
X148803937Y-82540226D01*
X148659774Y-82396063D01*
X148490256Y-82282795D01*
X148345186Y-82222705D01*
X148395226Y-82101898D01*
X148435000Y-81901939D01*
X148435000Y-81727000D01*
X151673000Y-81727000D01*
X151673000Y-94200000D01*
X151675440Y-94224776D01*
X151682667Y-94248601D01*
X151694403Y-94270557D01*
X151710197Y-94289803D01*
X151729443Y-94305597D01*
X151751399Y-94317333D01*
X151775224Y-94324560D01*
X151800000Y-94327000D01*
X156073000Y-94327000D01*
X156073000Y-102415172D01*
X155909744Y-102482795D01*
X155740226Y-102596063D01*
X155596063Y-102740226D01*
X155482795Y-102909744D01*
X155404774Y-103098102D01*
X155369985Y-103273000D01*
X152536711Y-103273000D01*
X152459774Y-103196063D01*
X152290256Y-103082795D01*
X152101898Y-103004774D01*
X151901939Y-102965000D01*
X151698061Y-102965000D01*
X151498102Y-103004774D01*
X151309744Y-103082795D01*
X151140226Y-103196063D01*
X151063289Y-103273000D01*
X140400000Y-103273000D01*
X140375224Y-103275440D01*
X140351399Y-103282667D01*
X140329443Y-103294403D01*
X140310197Y-103310197D01*
X140294403Y-103329443D01*
X140282667Y-103351399D01*
X140275440Y-103375224D01*
X140273000Y-103400000D01*
X140273000Y-103873000D01*
X134400866Y-103873000D01*
X134393216Y-103834543D01*
X134315195Y-103646185D01*
X134201927Y-103476667D01*
X134057764Y-103332504D01*
X133888246Y-103219236D01*
X133699888Y-103141215D01*
X133499929Y-103101441D01*
X133296051Y-103101441D01*
X133096092Y-103141215D01*
X132907734Y-103219236D01*
X132738216Y-103332504D01*
X132594053Y-103476667D01*
X132480785Y-103646185D01*
X132402764Y-103834543D01*
X132395114Y-103873000D01*
X125360000Y-103873000D01*
X125360000Y-103837323D01*
X125363676Y-103800000D01*
X125360000Y-103762677D01*
X125360000Y-103762667D01*
X125349003Y-103651014D01*
X125305546Y-103507753D01*
X125234974Y-103375724D01*
X125140001Y-103259999D01*
X125111002Y-103236201D01*
X124363803Y-102489002D01*
X124340001Y-102459999D01*
X124224276Y-102365026D01*
X124098996Y-102298061D01*
X138365000Y-102298061D01*
X138365000Y-102501939D01*
X138404774Y-102701898D01*
X138482795Y-102890256D01*
X138596063Y-103059774D01*
X138740226Y-103203937D01*
X138909744Y-103317205D01*
X139098102Y-103395226D01*
X139298061Y-103435000D01*
X139501939Y-103435000D01*
X139701898Y-103395226D01*
X139890256Y-103317205D01*
X140059774Y-103203937D01*
X140203937Y-103059774D01*
X140317205Y-102890256D01*
X140395226Y-102701898D01*
X140435000Y-102501939D01*
X140435000Y-102298061D01*
X140395226Y-102098102D01*
X140317205Y-101909744D01*
X140203937Y-101740226D01*
X140059774Y-101596063D01*
X139890256Y-101482795D01*
X139701898Y-101404774D01*
X139501939Y-101365000D01*
X139298061Y-101365000D01*
X139098102Y-101404774D01*
X138909744Y-101482795D01*
X138740226Y-101596063D01*
X138596063Y-101740226D01*
X138482795Y-101909744D01*
X138404774Y-102098102D01*
X138365000Y-102298061D01*
X124098996Y-102298061D01*
X124092247Y-102294454D01*
X123948986Y-102250997D01*
X123837333Y-102240000D01*
X123837322Y-102240000D01*
X123800000Y-102236324D01*
X123762678Y-102240000D01*
X117035000Y-102240000D01*
X117035000Y-102098061D01*
X116995226Y-101898102D01*
X116917205Y-101709744D01*
X116803937Y-101540226D01*
X116659774Y-101396063D01*
X116490256Y-101282795D01*
X116301898Y-101204774D01*
X116101939Y-101165000D01*
X115898061Y-101165000D01*
X115698102Y-101204774D01*
X115509744Y-101282795D01*
X115340226Y-101396063D01*
X115196063Y-101540226D01*
X115082795Y-101709744D01*
X115004774Y-101898102D01*
X114965000Y-102098061D01*
X114965000Y-102301939D01*
X115004774Y-102501898D01*
X115082795Y-102690256D01*
X115196063Y-102859774D01*
X115247252Y-102910963D01*
X115250997Y-102948985D01*
X115284604Y-103059774D01*
X115294454Y-103092246D01*
X115365026Y-103224276D01*
X115404871Y-103272826D01*
X115459999Y-103340001D01*
X115489003Y-103363804D01*
X115636196Y-103510997D01*
X115659999Y-103540001D01*
X115775724Y-103634974D01*
X115907753Y-103705546D01*
X116051014Y-103749003D01*
X116162667Y-103760000D01*
X116162675Y-103760000D01*
X116200000Y-103763676D01*
X116237325Y-103760000D01*
X123485199Y-103760000D01*
X123598199Y-103873000D01*
X113127000Y-103873000D01*
X113127000Y-95527000D01*
X116840000Y-95527000D01*
X116840001Y-99562668D01*
X116836324Y-99600000D01*
X116850998Y-99748985D01*
X116894454Y-99892246D01*
X116965026Y-100024276D01*
X117033535Y-100107753D01*
X117060000Y-100140001D01*
X117088998Y-100163799D01*
X117436200Y-100511002D01*
X117459999Y-100540001D01*
X117575724Y-100634974D01*
X117707753Y-100705546D01*
X117851014Y-100749003D01*
X117962667Y-100760000D01*
X117962676Y-100760000D01*
X117999999Y-100763676D01*
X118037322Y-100760000D01*
X123565000Y-100760000D01*
X123565000Y-100901939D01*
X123604774Y-101101898D01*
X123682795Y-101290256D01*
X123796063Y-101459774D01*
X123940226Y-101603937D01*
X124109744Y-101717205D01*
X124298102Y-101795226D01*
X124498061Y-101835000D01*
X124701939Y-101835000D01*
X124901898Y-101795226D01*
X125090256Y-101717205D01*
X125259774Y-101603937D01*
X125403937Y-101459774D01*
X125517205Y-101290256D01*
X125595226Y-101101898D01*
X125635000Y-100901939D01*
X125635000Y-100760000D01*
X127565000Y-100760000D01*
X127565000Y-100826949D01*
X127604774Y-101026908D01*
X127682795Y-101215266D01*
X127796063Y-101384784D01*
X127940226Y-101528947D01*
X128109744Y-101642215D01*
X128298102Y-101720236D01*
X128498061Y-101760010D01*
X128701939Y-101760010D01*
X128901898Y-101720236D01*
X129090256Y-101642215D01*
X129259774Y-101528947D01*
X129403937Y-101384784D01*
X129517205Y-101215266D01*
X129595226Y-101026908D01*
X129635000Y-100826949D01*
X129635000Y-100760000D01*
X130428841Y-100760000D01*
X130482795Y-100890256D01*
X130596063Y-101059774D01*
X130740226Y-101203937D01*
X130909744Y-101317205D01*
X131098102Y-101395226D01*
X131298061Y-101435000D01*
X131501939Y-101435000D01*
X131701898Y-101395226D01*
X131890256Y-101317205D01*
X132059774Y-101203937D01*
X132203937Y-101059774D01*
X132317205Y-100890256D01*
X132395226Y-100701898D01*
X132435000Y-100501939D01*
X132435000Y-100298061D01*
X132395226Y-100098102D01*
X132317205Y-99909744D01*
X132309733Y-99898561D01*
X135165500Y-99898561D01*
X135165500Y-100102439D01*
X135205274Y-100302398D01*
X135283295Y-100490756D01*
X135396563Y-100660274D01*
X135540726Y-100804437D01*
X135710244Y-100917705D01*
X135898602Y-100995726D01*
X136098561Y-101035500D01*
X136302439Y-101035500D01*
X136502398Y-100995726D01*
X136690756Y-100917705D01*
X136860274Y-100804437D01*
X137004437Y-100660274D01*
X137117705Y-100490756D01*
X137195726Y-100302398D01*
X137235500Y-100102439D01*
X137235500Y-99898561D01*
X137195726Y-99698602D01*
X137117705Y-99510244D01*
X137004437Y-99340726D01*
X136860274Y-99196563D01*
X136690756Y-99083295D01*
X136502398Y-99005274D01*
X136302439Y-98965500D01*
X136098561Y-98965500D01*
X135898602Y-99005274D01*
X135710244Y-99083295D01*
X135540726Y-99196563D01*
X135396563Y-99340726D01*
X135283295Y-99510244D01*
X135205274Y-99698602D01*
X135165500Y-99898561D01*
X132309733Y-99898561D01*
X132203937Y-99740226D01*
X132059774Y-99596063D01*
X131890256Y-99482795D01*
X131701898Y-99404774D01*
X131501939Y-99365000D01*
X131424227Y-99365000D01*
X131292247Y-99294454D01*
X131148986Y-99250997D01*
X131037333Y-99240000D01*
X131037322Y-99240000D01*
X131000000Y-99236324D01*
X130962678Y-99240000D01*
X128617150Y-99240000D01*
X128717205Y-99090256D01*
X128795226Y-98901898D01*
X128835000Y-98701939D01*
X128835000Y-98498061D01*
X128795226Y-98298102D01*
X128717205Y-98109744D01*
X128603937Y-97940226D01*
X128561772Y-97898061D01*
X129165000Y-97898061D01*
X129165000Y-98101939D01*
X129204774Y-98301898D01*
X129282795Y-98490256D01*
X129396063Y-98659774D01*
X129540226Y-98803937D01*
X129709744Y-98917205D01*
X129898102Y-98995226D01*
X130098061Y-99035000D01*
X130301939Y-99035000D01*
X130501898Y-98995226D01*
X130690256Y-98917205D01*
X130859774Y-98803937D01*
X131003937Y-98659774D01*
X131117205Y-98490256D01*
X131195226Y-98301898D01*
X131235000Y-98101939D01*
X131235000Y-97898061D01*
X132640000Y-97898061D01*
X132640000Y-98101939D01*
X132679774Y-98301898D01*
X132757795Y-98490256D01*
X132871063Y-98659774D01*
X133015226Y-98803937D01*
X133184744Y-98917205D01*
X133373102Y-98995226D01*
X133573061Y-99035000D01*
X133776939Y-99035000D01*
X133976898Y-98995226D01*
X134165256Y-98917205D01*
X134334774Y-98803937D01*
X134478937Y-98659774D01*
X134519255Y-98599434D01*
X134698061Y-98635000D01*
X134901939Y-98635000D01*
X135101898Y-98595226D01*
X135290256Y-98517205D01*
X135459774Y-98403937D01*
X135603937Y-98259774D01*
X135717205Y-98090256D01*
X135795226Y-97901898D01*
X135835000Y-97701939D01*
X135835000Y-97498061D01*
X135795226Y-97298102D01*
X135717205Y-97109744D01*
X135603937Y-96940226D01*
X135459774Y-96796063D01*
X135290256Y-96682795D01*
X135101898Y-96604774D01*
X134901939Y-96565000D01*
X134698061Y-96565000D01*
X134498102Y-96604774D01*
X134309744Y-96682795D01*
X134140226Y-96796063D01*
X133996063Y-96940226D01*
X133955745Y-97000566D01*
X133776939Y-96965000D01*
X133573061Y-96965000D01*
X133373102Y-97004774D01*
X133184744Y-97082795D01*
X133015226Y-97196063D01*
X132871063Y-97340226D01*
X132757795Y-97509744D01*
X132679774Y-97698102D01*
X132640000Y-97898061D01*
X131235000Y-97898061D01*
X131195226Y-97698102D01*
X131117205Y-97509744D01*
X131003937Y-97340226D01*
X130859774Y-97196063D01*
X130690256Y-97082795D01*
X130501898Y-97004774D01*
X130301939Y-96965000D01*
X130098061Y-96965000D01*
X129898102Y-97004774D01*
X129709744Y-97082795D01*
X129540226Y-97196063D01*
X129396063Y-97340226D01*
X129282795Y-97509744D01*
X129204774Y-97698102D01*
X129165000Y-97898061D01*
X128561772Y-97898061D01*
X128459774Y-97796063D01*
X128290256Y-97682795D01*
X128101898Y-97604774D01*
X127901939Y-97565000D01*
X127698061Y-97565000D01*
X127498102Y-97604774D01*
X127309744Y-97682795D01*
X127140226Y-97796063D01*
X126996063Y-97940226D01*
X126882795Y-98109744D01*
X126804774Y-98298102D01*
X126765000Y-98498061D01*
X126765000Y-98701939D01*
X126804774Y-98901898D01*
X126882795Y-99090256D01*
X126982850Y-99240000D01*
X123617150Y-99240000D01*
X123717205Y-99090256D01*
X123795226Y-98901898D01*
X123835000Y-98701939D01*
X123835000Y-98498061D01*
X123795226Y-98298102D01*
X123717205Y-98109744D01*
X123603937Y-97940226D01*
X123459774Y-97796063D01*
X123290256Y-97682795D01*
X123101898Y-97604774D01*
X122901939Y-97565000D01*
X122698061Y-97565000D01*
X122498102Y-97604774D01*
X122309744Y-97682795D01*
X122140226Y-97796063D01*
X121996063Y-97940226D01*
X121882795Y-98109744D01*
X121804774Y-98298102D01*
X121765000Y-98498061D01*
X121765000Y-98701939D01*
X121804774Y-98901898D01*
X121882795Y-99090256D01*
X121982850Y-99240000D01*
X118360000Y-99240000D01*
X118360000Y-94903711D01*
X118403937Y-94859774D01*
X118517205Y-94690256D01*
X118595226Y-94501898D01*
X118635000Y-94301939D01*
X118635000Y-94098061D01*
X118595226Y-93898102D01*
X118517205Y-93709744D01*
X118403937Y-93540226D01*
X118259774Y-93396063D01*
X118090256Y-93282795D01*
X117901898Y-93204774D01*
X117701939Y-93165000D01*
X117527000Y-93165000D01*
X117527000Y-92848050D01*
X120697530Y-92848050D01*
X120697530Y-93051928D01*
X120737304Y-93251887D01*
X120815325Y-93440245D01*
X120928593Y-93609763D01*
X120941187Y-93622357D01*
X120882795Y-93709746D01*
X120804774Y-93898104D01*
X120765000Y-94098063D01*
X120765000Y-94301941D01*
X120804774Y-94501900D01*
X120882795Y-94690258D01*
X120996063Y-94859776D01*
X121140226Y-95003939D01*
X121309744Y-95117207D01*
X121498102Y-95195228D01*
X121698061Y-95235002D01*
X121777543Y-95235002D01*
X121765000Y-95298061D01*
X121765000Y-95501939D01*
X121804774Y-95701898D01*
X121882795Y-95890256D01*
X121996063Y-96059774D01*
X122140226Y-96203937D01*
X122309744Y-96317205D01*
X122498102Y-96395226D01*
X122698061Y-96435000D01*
X122901939Y-96435000D01*
X123101898Y-96395226D01*
X123290256Y-96317205D01*
X123459774Y-96203937D01*
X123509971Y-96153740D01*
X141555000Y-96153740D01*
X141555000Y-96446260D01*
X141612068Y-96733158D01*
X141724010Y-97003411D01*
X141886525Y-97246632D01*
X142093368Y-97453475D01*
X142267760Y-97570000D01*
X142093368Y-97686525D01*
X141886525Y-97893368D01*
X141724010Y-98136589D01*
X141612068Y-98406842D01*
X141555000Y-98693740D01*
X141555000Y-98986260D01*
X141612068Y-99273158D01*
X141724010Y-99543411D01*
X141886525Y-99786632D01*
X142093368Y-99993475D01*
X142336589Y-100155990D01*
X142606842Y-100267932D01*
X142893740Y-100325000D01*
X143186260Y-100325000D01*
X143473158Y-100267932D01*
X143743411Y-100155990D01*
X143986632Y-99993475D01*
X144193475Y-99786632D01*
X144310000Y-99612240D01*
X144426525Y-99786632D01*
X144633368Y-99993475D01*
X144876589Y-100155990D01*
X145146842Y-100267932D01*
X145433740Y-100325000D01*
X145726260Y-100325000D01*
X146013158Y-100267932D01*
X146283411Y-100155990D01*
X146526632Y-99993475D01*
X146733475Y-99786632D01*
X146850000Y-99612240D01*
X146966525Y-99786632D01*
X147173368Y-99993475D01*
X147416589Y-100155990D01*
X147686842Y-100267932D01*
X147973740Y-100325000D01*
X148266260Y-100325000D01*
X148553158Y-100267932D01*
X148823411Y-100155990D01*
X149066632Y-99993475D01*
X149273475Y-99786632D01*
X149390000Y-99612240D01*
X149506525Y-99786632D01*
X149713368Y-99993475D01*
X149956589Y-100155990D01*
X150226842Y-100267932D01*
X150513740Y-100325000D01*
X150806260Y-100325000D01*
X151093158Y-100267932D01*
X151363411Y-100155990D01*
X151606632Y-99993475D01*
X151813475Y-99786632D01*
X151930000Y-99612240D01*
X152046525Y-99786632D01*
X152253368Y-99993475D01*
X152496589Y-100155990D01*
X152766842Y-100267932D01*
X153053740Y-100325000D01*
X153346260Y-100325000D01*
X153633158Y-100267932D01*
X153903411Y-100155990D01*
X154146632Y-99993475D01*
X154353475Y-99786632D01*
X154515990Y-99543411D01*
X154627932Y-99273158D01*
X154685000Y-98986260D01*
X154685000Y-98693740D01*
X154627932Y-98406842D01*
X154515990Y-98136589D01*
X154353475Y-97893368D01*
X154221620Y-97761513D01*
X154294180Y-97739502D01*
X154404494Y-97680537D01*
X154501185Y-97601185D01*
X154580537Y-97504494D01*
X154639502Y-97394180D01*
X154675812Y-97274482D01*
X154688072Y-97150000D01*
X154685000Y-96585750D01*
X154526250Y-96427000D01*
X153327000Y-96427000D01*
X153327000Y-96447000D01*
X153073000Y-96447000D01*
X153073000Y-96427000D01*
X153053000Y-96427000D01*
X153053000Y-96173000D01*
X153073000Y-96173000D01*
X153073000Y-94973750D01*
X153327000Y-94973750D01*
X153327000Y-96173000D01*
X154526250Y-96173000D01*
X154685000Y-96014250D01*
X154688072Y-95450000D01*
X154675812Y-95325518D01*
X154639502Y-95205820D01*
X154580537Y-95095506D01*
X154501185Y-94998815D01*
X154404494Y-94919463D01*
X154294180Y-94860498D01*
X154174482Y-94824188D01*
X154050000Y-94811928D01*
X153485750Y-94815000D01*
X153327000Y-94973750D01*
X153073000Y-94973750D01*
X152914250Y-94815000D01*
X152350000Y-94811928D01*
X152225518Y-94824188D01*
X152105820Y-94860498D01*
X151995506Y-94919463D01*
X151898815Y-94998815D01*
X151819463Y-95095506D01*
X151760498Y-95205820D01*
X151738487Y-95278380D01*
X151606632Y-95146525D01*
X151363411Y-94984010D01*
X151093158Y-94872068D01*
X150806260Y-94815000D01*
X150513740Y-94815000D01*
X150226842Y-94872068D01*
X149956589Y-94984010D01*
X149713368Y-95146525D01*
X149506525Y-95353368D01*
X149390000Y-95527760D01*
X149273475Y-95353368D01*
X149066632Y-95146525D01*
X148823411Y-94984010D01*
X148553158Y-94872068D01*
X148266260Y-94815000D01*
X147973740Y-94815000D01*
X147686842Y-94872068D01*
X147416589Y-94984010D01*
X147173368Y-95146525D01*
X146966525Y-95353368D01*
X146850000Y-95527760D01*
X146733475Y-95353368D01*
X146526632Y-95146525D01*
X146283411Y-94984010D01*
X146013158Y-94872068D01*
X145726260Y-94815000D01*
X145433740Y-94815000D01*
X145146842Y-94872068D01*
X144876589Y-94984010D01*
X144633368Y-95146525D01*
X144426525Y-95353368D01*
X144310000Y-95527760D01*
X144193475Y-95353368D01*
X143986632Y-95146525D01*
X143743411Y-94984010D01*
X143473158Y-94872068D01*
X143186260Y-94815000D01*
X142893740Y-94815000D01*
X142606842Y-94872068D01*
X142336589Y-94984010D01*
X142093368Y-95146525D01*
X141886525Y-95353368D01*
X141724010Y-95596589D01*
X141612068Y-95866842D01*
X141555000Y-96153740D01*
X123509971Y-96153740D01*
X123603937Y-96059774D01*
X123717205Y-95890256D01*
X123795226Y-95701898D01*
X123835000Y-95501939D01*
X123835000Y-95298061D01*
X123795226Y-95098102D01*
X123738023Y-94960002D01*
X123962676Y-94960002D01*
X123999998Y-94963678D01*
X124037320Y-94960002D01*
X124037331Y-94960002D01*
X124148984Y-94949005D01*
X124292245Y-94905548D01*
X124424274Y-94834976D01*
X124539999Y-94740003D01*
X124563801Y-94711000D01*
X124639801Y-94635000D01*
X124701939Y-94635000D01*
X124901898Y-94595226D01*
X125090256Y-94517205D01*
X125259774Y-94403937D01*
X125403937Y-94259774D01*
X125517205Y-94090256D01*
X125595226Y-93901898D01*
X125635000Y-93701939D01*
X125635000Y-93498061D01*
X125634205Y-93494061D01*
X128961000Y-93494061D01*
X128961000Y-93697939D01*
X129000774Y-93897898D01*
X129078795Y-94086256D01*
X129192063Y-94255774D01*
X129336226Y-94399937D01*
X129505744Y-94513205D01*
X129694102Y-94591226D01*
X129894061Y-94631000D01*
X130097939Y-94631000D01*
X130297898Y-94591226D01*
X130486256Y-94513205D01*
X130655774Y-94399937D01*
X130757650Y-94298061D01*
X134765000Y-94298061D01*
X134765000Y-94501939D01*
X134804774Y-94701898D01*
X134882795Y-94890256D01*
X134996063Y-95059774D01*
X135140226Y-95203937D01*
X135309744Y-95317205D01*
X135498102Y-95395226D01*
X135698061Y-95435000D01*
X135901939Y-95435000D01*
X136101898Y-95395226D01*
X136290256Y-95317205D01*
X136459774Y-95203937D01*
X136603937Y-95059774D01*
X136717205Y-94890256D01*
X136795226Y-94701898D01*
X136835000Y-94501939D01*
X136835000Y-94298061D01*
X136795226Y-94098102D01*
X136717205Y-93909744D01*
X136603937Y-93740226D01*
X136459774Y-93596063D01*
X136313104Y-93498061D01*
X139365000Y-93498061D01*
X139365000Y-93701939D01*
X139404774Y-93901898D01*
X139482795Y-94090256D01*
X139596063Y-94259774D01*
X139740226Y-94403937D01*
X139909744Y-94517205D01*
X140098102Y-94595226D01*
X140298061Y-94635000D01*
X140501939Y-94635000D01*
X140701898Y-94595226D01*
X140890256Y-94517205D01*
X141059774Y-94403937D01*
X141203937Y-94259774D01*
X141317205Y-94090256D01*
X141395226Y-93901898D01*
X141435000Y-93701939D01*
X141435000Y-93498061D01*
X141395226Y-93298102D01*
X141317205Y-93109744D01*
X141203937Y-92940226D01*
X141059774Y-92796063D01*
X140890256Y-92682795D01*
X140701898Y-92604774D01*
X140501939Y-92565000D01*
X140298061Y-92565000D01*
X140098102Y-92604774D01*
X139909744Y-92682795D01*
X139740226Y-92796063D01*
X139596063Y-92940226D01*
X139482795Y-93109744D01*
X139404774Y-93298102D01*
X139365000Y-93498061D01*
X136313104Y-93498061D01*
X136290256Y-93482795D01*
X136101898Y-93404774D01*
X135901939Y-93365000D01*
X135698061Y-93365000D01*
X135498102Y-93404774D01*
X135309744Y-93482795D01*
X135140226Y-93596063D01*
X134996063Y-93740226D01*
X134882795Y-93909744D01*
X134804774Y-94098102D01*
X134765000Y-94298061D01*
X130757650Y-94298061D01*
X130799937Y-94255774D01*
X130913205Y-94086256D01*
X130991226Y-93897898D01*
X131031000Y-93697939D01*
X131031000Y-93494061D01*
X130991226Y-93294102D01*
X130913205Y-93105744D01*
X130799937Y-92936226D01*
X130655774Y-92792063D01*
X130486256Y-92678795D01*
X130297898Y-92600774D01*
X130097939Y-92561000D01*
X129894061Y-92561000D01*
X129694102Y-92600774D01*
X129505744Y-92678795D01*
X129336226Y-92792063D01*
X129192063Y-92936226D01*
X129078795Y-93105744D01*
X129000774Y-93294102D01*
X128961000Y-93494061D01*
X125634205Y-93494061D01*
X125595226Y-93298102D01*
X125517205Y-93109744D01*
X125403937Y-92940226D01*
X125259774Y-92796063D01*
X125090256Y-92682795D01*
X124901898Y-92604774D01*
X124701939Y-92565000D01*
X124608533Y-92565000D01*
X124595226Y-92498102D01*
X124595210Y-92498061D01*
X144365000Y-92498061D01*
X144365000Y-92701939D01*
X144404774Y-92901898D01*
X144482795Y-93090256D01*
X144596063Y-93259774D01*
X144740226Y-93403937D01*
X144909744Y-93517205D01*
X145098102Y-93595226D01*
X145298061Y-93635000D01*
X145501939Y-93635000D01*
X145701898Y-93595226D01*
X145890256Y-93517205D01*
X146059774Y-93403937D01*
X146203937Y-93259774D01*
X146317205Y-93090256D01*
X146395226Y-92901898D01*
X146435000Y-92701939D01*
X146435000Y-92498061D01*
X146395226Y-92298102D01*
X146317205Y-92109744D01*
X146203937Y-91940226D01*
X146059774Y-91796063D01*
X145890256Y-91682795D01*
X145701898Y-91604774D01*
X145501939Y-91565000D01*
X145298061Y-91565000D01*
X145098102Y-91604774D01*
X144909744Y-91682795D01*
X144740226Y-91796063D01*
X144596063Y-91940226D01*
X144482795Y-92109744D01*
X144404774Y-92298102D01*
X144365000Y-92498061D01*
X124595210Y-92498061D01*
X124517205Y-92309744D01*
X124403937Y-92140226D01*
X124259774Y-91996063D01*
X124090256Y-91882795D01*
X123901898Y-91804774D01*
X123763977Y-91777340D01*
X123795226Y-91701898D01*
X123835000Y-91501939D01*
X123835000Y-91298061D01*
X123795226Y-91098102D01*
X123743428Y-90973051D01*
X124697738Y-90973051D01*
X124697738Y-91176929D01*
X124737512Y-91376888D01*
X124815533Y-91565246D01*
X124928801Y-91734764D01*
X125072964Y-91878927D01*
X125242482Y-91992195D01*
X125430840Y-92070216D01*
X125630799Y-92109990D01*
X125834677Y-92109990D01*
X126034636Y-92070216D01*
X126222994Y-91992195D01*
X126392512Y-91878927D01*
X126536675Y-91734764D01*
X126649943Y-91565246D01*
X126727964Y-91376888D01*
X126767738Y-91176929D01*
X126767738Y-90973051D01*
X126727964Y-90773092D01*
X126649943Y-90584734D01*
X126536675Y-90415216D01*
X126392512Y-90271053D01*
X126222994Y-90157785D01*
X126034636Y-90079764D01*
X125834677Y-90039990D01*
X125630799Y-90039990D01*
X125430840Y-90079764D01*
X125242482Y-90157785D01*
X125072964Y-90271053D01*
X124928801Y-90415216D01*
X124815533Y-90584734D01*
X124737512Y-90773092D01*
X124697738Y-90973051D01*
X123743428Y-90973051D01*
X123717205Y-90909744D01*
X123603937Y-90740226D01*
X123459774Y-90596063D01*
X123290256Y-90482795D01*
X123101898Y-90404774D01*
X122901939Y-90365000D01*
X122698061Y-90365000D01*
X122498102Y-90404774D01*
X122309744Y-90482795D01*
X122140226Y-90596063D01*
X121996063Y-90740226D01*
X121882795Y-90909744D01*
X121804774Y-91098102D01*
X121765000Y-91298061D01*
X121765000Y-91501939D01*
X121804774Y-91701898D01*
X121882795Y-91890256D01*
X121909262Y-91929866D01*
X121834469Y-91914989D01*
X121630591Y-91914989D01*
X121430632Y-91954763D01*
X121242274Y-92032784D01*
X121072756Y-92146052D01*
X120928593Y-92290215D01*
X120815325Y-92459733D01*
X120737304Y-92648091D01*
X120697530Y-92848050D01*
X117527000Y-92848050D01*
X117527000Y-88698061D01*
X120365000Y-88698061D01*
X120365000Y-88901939D01*
X120404774Y-89101898D01*
X120482795Y-89290256D01*
X120596063Y-89459774D01*
X120740226Y-89603937D01*
X120909744Y-89717205D01*
X121098102Y-89795226D01*
X121298061Y-89835000D01*
X121501939Y-89835000D01*
X121701898Y-89795226D01*
X121890256Y-89717205D01*
X122059774Y-89603937D01*
X122203937Y-89459774D01*
X122317205Y-89290256D01*
X122395226Y-89101898D01*
X122435000Y-88901939D01*
X122435000Y-88698061D01*
X122395226Y-88498102D01*
X122395210Y-88498061D01*
X127965000Y-88498061D01*
X127965000Y-88701939D01*
X128004774Y-88901898D01*
X128082795Y-89090256D01*
X128196063Y-89259774D01*
X128340226Y-89403937D01*
X128509744Y-89517205D01*
X128698102Y-89595226D01*
X128898061Y-89635000D01*
X129101939Y-89635000D01*
X129301898Y-89595226D01*
X129392958Y-89557508D01*
X129365000Y-89698061D01*
X129365000Y-89901939D01*
X129404774Y-90101898D01*
X129482795Y-90290256D01*
X129596063Y-90459774D01*
X129740226Y-90603937D01*
X129909744Y-90717205D01*
X130098102Y-90795226D01*
X130298061Y-90835000D01*
X130501939Y-90835000D01*
X130701898Y-90795226D01*
X130890256Y-90717205D01*
X131059774Y-90603937D01*
X131203937Y-90459774D01*
X131317205Y-90290256D01*
X131395226Y-90101898D01*
X131395989Y-90098061D01*
X134365000Y-90098061D01*
X134365000Y-90301939D01*
X134404774Y-90501898D01*
X134482795Y-90690256D01*
X134596063Y-90859774D01*
X134740226Y-91003937D01*
X134909744Y-91117205D01*
X135098102Y-91195226D01*
X135298061Y-91235000D01*
X135501939Y-91235000D01*
X135701898Y-91195226D01*
X135890256Y-91117205D01*
X136059774Y-91003937D01*
X136203937Y-90859774D01*
X136247910Y-90793964D01*
X136204774Y-90898102D01*
X136165000Y-91098061D01*
X136165000Y-91301939D01*
X136204774Y-91501898D01*
X136282795Y-91690256D01*
X136396063Y-91859774D01*
X136540226Y-92003937D01*
X136709744Y-92117205D01*
X136898102Y-92195226D01*
X137098061Y-92235000D01*
X137301939Y-92235000D01*
X137501898Y-92195226D01*
X137690256Y-92117205D01*
X137859774Y-92003937D01*
X138003937Y-91859774D01*
X138117205Y-91690256D01*
X138195226Y-91501898D01*
X138235000Y-91301939D01*
X138235000Y-91098061D01*
X138195226Y-90898102D01*
X138117205Y-90709744D01*
X138003937Y-90540226D01*
X137859774Y-90396063D01*
X137690256Y-90282795D01*
X137501898Y-90204774D01*
X137301939Y-90165000D01*
X137098061Y-90165000D01*
X136898102Y-90204774D01*
X136709744Y-90282795D01*
X136540226Y-90396063D01*
X136396063Y-90540226D01*
X136352090Y-90606036D01*
X136395226Y-90501898D01*
X136435000Y-90301939D01*
X136435000Y-90098061D01*
X136395226Y-89898102D01*
X136317205Y-89709744D01*
X136203937Y-89540226D01*
X136059774Y-89396063D01*
X135890256Y-89282795D01*
X135701898Y-89204774D01*
X135501939Y-89165000D01*
X135298061Y-89165000D01*
X135098102Y-89204774D01*
X134909744Y-89282795D01*
X134740226Y-89396063D01*
X134596063Y-89540226D01*
X134482795Y-89709744D01*
X134404774Y-89898102D01*
X134365000Y-90098061D01*
X131395989Y-90098061D01*
X131435000Y-89901939D01*
X131435000Y-89698061D01*
X131395226Y-89498102D01*
X131317205Y-89309744D01*
X131203937Y-89140226D01*
X131059774Y-88996063D01*
X130890256Y-88882795D01*
X130701898Y-88804774D01*
X130501939Y-88765000D01*
X130298061Y-88765000D01*
X130098102Y-88804774D01*
X130007042Y-88842492D01*
X130035000Y-88701939D01*
X130035000Y-88498061D01*
X129995226Y-88298102D01*
X129917205Y-88109744D01*
X129803937Y-87940226D01*
X129744603Y-87880892D01*
X129859774Y-87803937D01*
X129965000Y-87698711D01*
X129965000Y-87701939D01*
X130004774Y-87901898D01*
X130082795Y-88090256D01*
X130196063Y-88259774D01*
X130340226Y-88403937D01*
X130509744Y-88517205D01*
X130698102Y-88595226D01*
X130898061Y-88635000D01*
X131101939Y-88635000D01*
X131301898Y-88595226D01*
X131490256Y-88517205D01*
X131659774Y-88403937D01*
X131803937Y-88259774D01*
X131917205Y-88090256D01*
X131995226Y-87901898D01*
X132035000Y-87701939D01*
X132035000Y-87498061D01*
X132022456Y-87435000D01*
X132101939Y-87435000D01*
X132301898Y-87395226D01*
X132490256Y-87317205D01*
X132659774Y-87203937D01*
X132777660Y-87086051D01*
X132898061Y-87110000D01*
X133101939Y-87110000D01*
X133301898Y-87070226D01*
X133490256Y-86992205D01*
X133659774Y-86878937D01*
X133803937Y-86734774D01*
X133917205Y-86565256D01*
X133995226Y-86376898D01*
X134035000Y-86176939D01*
X134035000Y-85973061D01*
X133995226Y-85773102D01*
X133917205Y-85584744D01*
X133803937Y-85415226D01*
X133659774Y-85271063D01*
X133490256Y-85157795D01*
X133301898Y-85079774D01*
X133101939Y-85040000D01*
X132898061Y-85040000D01*
X132698102Y-85079774D01*
X132509744Y-85157795D01*
X132340226Y-85271063D01*
X132222340Y-85388949D01*
X132101939Y-85365000D01*
X131898061Y-85365000D01*
X131698102Y-85404774D01*
X131509744Y-85482795D01*
X131340226Y-85596063D01*
X131196063Y-85740226D01*
X131082795Y-85909744D01*
X131044826Y-86001409D01*
X131003945Y-85940226D01*
X130859782Y-85796063D01*
X130690264Y-85682795D01*
X130501906Y-85604774D01*
X130301947Y-85565000D01*
X130098069Y-85565000D01*
X129898110Y-85604774D01*
X129709752Y-85682795D01*
X129540234Y-85796063D01*
X129396071Y-85940226D01*
X129370416Y-85978621D01*
X129301939Y-85965000D01*
X129098061Y-85965000D01*
X128898102Y-86004774D01*
X128709744Y-86082795D01*
X128540226Y-86196063D01*
X128396063Y-86340226D01*
X128282795Y-86509744D01*
X128204774Y-86698102D01*
X128165000Y-86898061D01*
X128165000Y-87101939D01*
X128204774Y-87301898D01*
X128282795Y-87490256D01*
X128396063Y-87659774D01*
X128455397Y-87719108D01*
X128340226Y-87796063D01*
X128196063Y-87940226D01*
X128082795Y-88109744D01*
X128004774Y-88298102D01*
X127965000Y-88498061D01*
X122395210Y-88498061D01*
X122317205Y-88309744D01*
X122203937Y-88140226D01*
X122059774Y-87996063D01*
X121890256Y-87882795D01*
X121701898Y-87804774D01*
X121501939Y-87765000D01*
X121298061Y-87765000D01*
X121098102Y-87804774D01*
X120909744Y-87882795D01*
X120740226Y-87996063D01*
X120596063Y-88140226D01*
X120482795Y-88309744D01*
X120404774Y-88498102D01*
X120365000Y-88698061D01*
X117527000Y-88698061D01*
X117527000Y-84698061D01*
X143965000Y-84698061D01*
X143965000Y-84901939D01*
X144004774Y-85101898D01*
X144082795Y-85290256D01*
X144196063Y-85459774D01*
X144340226Y-85603937D01*
X144509744Y-85717205D01*
X144698102Y-85795226D01*
X144898061Y-85835000D01*
X145101939Y-85835000D01*
X145301898Y-85795226D01*
X145490256Y-85717205D01*
X145659774Y-85603937D01*
X145803937Y-85459774D01*
X145917205Y-85290256D01*
X145995226Y-85101898D01*
X146035000Y-84901939D01*
X146035000Y-84698061D01*
X145995226Y-84498102D01*
X145917205Y-84309744D01*
X145803937Y-84140226D01*
X145659774Y-83996063D01*
X145490256Y-83882795D01*
X145301898Y-83804774D01*
X145101939Y-83765000D01*
X144898061Y-83765000D01*
X144698102Y-83804774D01*
X144509744Y-83882795D01*
X144340226Y-83996063D01*
X144196063Y-84140226D01*
X144082795Y-84309744D01*
X144004774Y-84498102D01*
X143965000Y-84698061D01*
X117527000Y-84698061D01*
X117527000Y-81727000D01*
X122815000Y-81727000D01*
X122815000Y-81851939D01*
M02*
