M48
;GenerationSoftware,Autodesk,EAGLE,9.4.2*%
;CreationDate,2019-07-22T17:51:49Z*%
FMAT,2
ICI,OFF
METRIC,TZ,000.000
T4C0.600
T3C1.000
T2C1.016
T1C3.200
%
G90
M71
T1
X20000Y3500
X20000Y38500
X76000Y3500
X76000Y38500
X6350Y23465
X6350Y34895
X6350Y6945
X6350Y18375
T2
X68200Y26320
X40350Y35310
X68200Y28860
X68200Y10510
X68200Y13050
X35270Y35310
X32730Y35310
X32730Y37850
X35270Y37850
X37810Y35310
X37810Y37850
X40350Y37850
X42890Y35310
X42890Y37850
T3
X12700Y33625
X12700Y31085
X12700Y28545
X15240Y32355
X15240Y29815
X15240Y27275
X12700Y26005
X15240Y24735
X12700Y17105
X12700Y14565
X12700Y12025
X15240Y15835
X15240Y13295
X15240Y10755
X15240Y8215
X12700Y9485
T4
X21953Y18446
X22940Y31530
X30380Y25950
X17670Y27810
X13330Y39060
X46990Y18770
X32550Y22230
X22940Y27810
X22940Y20060
X28210Y17890
X27280Y20680
X22940Y29670
X23199Y17270
X32240Y19440
X18600Y23780
X29450Y20990
X29450Y22540
X29610Y14460
M30