M48
;GenerationSoftware,Autodesk,EAGLE,9.4.2*%
;CreationDate,2019-07-21T19:00:03Z*%
FMAT,2
ICI,OFF
METRIC,TZ,000.000
T5C0.600
T4C0.900
T3C1.016
T2C2.326
T1C3.200
%
G90
M71
T1
X67500Y32500
X67500Y2500
X2500Y2500
X2500Y32500
T2
X32885Y20125
X13939Y29237
T3
X5555Y22225
X62585Y20320
X5555Y24765
X5555Y27305
X25400Y8890
X25400Y11430
X25400Y13970
X25400Y16510
X25400Y19050
X60045Y27940
X62585Y27940
X60045Y25400
X62585Y17780
X60045Y17780
X62585Y25400
X60045Y20320
X62585Y22860
X60045Y22860
T4
X13939Y20787
X32885Y7675
T5
X2675Y13955
X4445Y6452
X44065Y9590
X44165Y13330
X48575Y17080
X52505Y27770
X23915Y27705
X21538Y27405
X66895Y12130
X49655Y6585
X50000Y20920
X17780Y6035
M30